<svg width="749" height="315" viewBox="0 0 749 315" fill="none" xmlns="http://www.w3.org/2000/svg">
<path d="M194.187 19.296C194.187 17.528 193.355 15.968 192.003 14.928C190.755 13.784 187.635 11.288 159.347 15.864L160.803 11.184C161.531 8.584 160.075 5.88 157.475 5.15199C154.979 4.32 152.171 5.776 151.443 8.376L148.635 17.736C142.395 18.88 135.219 20.232 126.899 22C124.299 22.52 122.635 25.12 123.155 27.72C123.675 30.424 126.275 32.088 128.979 31.568C134.283 30.424 139.899 29.28 145.411 28.344L133.035 69.424C129.291 69.424 125.963 69.424 123.259 69.216C120.555 69.008 118.267 71.088 118.059 73.792C117.955 76.496 119.931 78.784 122.635 78.992C123.675 78.992 126.587 79.096 130.643 79.096C144.059 79.096 169.539 78.16 175.467 72.648C176.923 71.4 177.651 69.736 177.651 67.968C177.651 62.248 164.859 55.28 154.459 50.912C158.307 48.624 163.299 45.4 169.955 40.928C194.187 24.6 194.187 21.688 194.187 19.296ZM164.443 66.824C159.451 67.864 151.443 68.696 143.435 69.112L146.659 58.192C151.963 60.272 159.659 64.016 164.443 66.824ZM151.755 41.136L156.227 26.368C164.651 24.912 172.347 23.872 177.963 23.248C170.891 28.552 160.075 36.04 151.755 41.136ZM240.591 68.488C228.215 69.112 214.071 69.424 204.815 69.112C210.015 66.408 216.463 63.392 219.999 61.624C230.919 56.424 231.855 56.008 231.855 52.68C231.855 49.456 230.711 48.832 222.079 43.84C218.855 42.072 213.239 38.848 209.495 36.352C215.839 33.544 227.487 29.592 232.687 28.032C234.039 30.216 236.015 34.272 237.575 38.12C238.615 40.616 241.527 41.864 244.023 40.824C246.519 39.784 247.663 36.976 246.623 34.376C239.759 17.736 236.639 17.736 234.143 17.736C231.647 17.736 216.047 23.352 215.839 23.352C198.887 29.488 196.911 31.88 196.703 35.416C196.391 39.992 200.551 42.8 216.983 52.264C216.671 52.472 216.255 52.68 215.839 52.784C191.919 64.224 187.447 67.24 187.447 72.024C187.447 73.48 188.071 74.936 189.215 75.976C190.255 77.016 192.439 79.096 212.927 79.096C219.999 79.096 229.151 78.888 241.111 78.264C243.815 78.056 245.895 75.768 245.791 73.064C245.687 70.36 243.295 68.28 240.591 68.488ZM333.104 2.75999C307.624 0.783995 240.024 8.792 237.112 9.104C234.512 9.416 232.536 11.808 232.848 14.512C233.16 17.008 235.24 18.88 237.736 18.88C237.944 18.88 238.152 18.776 238.256 18.776C238.568 18.776 249.28 17.528 263.736 16.072L244.392 72.752C243.56 75.352 244.912 78.056 247.408 78.992C247.928 79.2 248.448 79.2 248.968 79.2C251.048 79.2 252.92 77.952 253.648 75.976L274.448 15.032C295.248 13.16 319.688 11.496 332.272 12.536C334.976 12.64 337.368 10.664 337.576 8.06399C337.784 5.36 335.704 2.968 333.104 2.75999ZM319.495 48.416C317.519 48.312 315.647 48.208 313.775 48.104C313.775 36.664 313.463 28.552 312.735 25.224C312.319 23.248 310.967 17.424 305.767 17.008C299.319 16.488 296.407 24.08 289.127 42.384C288.295 44.464 287.463 46.648 286.527 48.936C274.671 49.976 268.119 51.848 267.599 51.952C264.999 52.68 263.543 55.384 264.271 57.984C264.895 60.168 266.871 61.52 268.951 61.52C269.367 61.52 269.887 61.52 270.303 61.312C270.407 61.312 274.567 60.168 282.263 59.232C278.935 66.72 275.399 74 271.551 79.512C270.095 81.696 270.615 84.712 272.903 86.272C275.087 87.832 278.103 87.312 279.663 85.024C284.759 77.64 289.335 67.76 293.287 58.192C296.615 57.984 300.151 57.88 303.999 57.776C303.999 61.728 303.999 65.68 303.999 69.32C303.895 74.312 303.895 78.992 303.895 83.048C303.895 85.752 306.079 87.936 308.783 87.936C311.487 87.936 313.671 85.752 313.671 83.048C313.671 78.992 313.671 74.312 313.775 69.32C313.775 65.368 313.775 61.52 313.775 57.984C315.439 57.984 317.207 58.088 318.975 58.192C321.575 58.296 323.967 56.216 324.071 53.512C324.175 50.808 322.199 48.52 319.495 48.416ZM297.343 48.208C297.655 47.48 297.967 46.648 298.279 46.024C300.047 41.552 302.023 36.56 303.687 32.712C303.895 36.56 303.999 42.072 303.999 48C301.711 48.104 299.527 48.104 297.343 48.208ZM389.716 68.28C389.092 65.68 386.492 64.016 383.892 64.64C377.132 66.096 369.332 67.76 364.444 68.696C366.524 60.48 372.348 43.528 377.86 28.968C378.9 26.472 377.652 23.56 375.052 22.624C372.556 21.688 369.748 22.936 368.812 25.432C351.548 70.568 353.524 74.312 354.564 76.288C355.292 77.64 356.644 78.576 358.1 78.992C358.308 78.992 358.724 79.096 359.452 79.096C361.636 79.096 367.46 78.368 386.076 74.104C388.676 73.584 390.34 70.88 389.716 68.28ZM435.13 48.416C433.154 48.312 431.282 48.208 429.41 48.104C429.41 36.664 429.098 28.552 428.37 25.224C427.954 23.248 426.602 17.424 421.402 17.008C414.954 16.488 412.042 24.08 404.762 42.384C403.93 44.464 403.098 46.648 402.162 48.936C390.306 49.976 383.754 51.848 383.234 51.952C380.634 52.68 379.178 55.384 379.906 57.984C380.53 60.168 382.506 61.52 384.586 61.52C385.002 61.52 385.522 61.52 385.938 61.312C386.042 61.312 390.202 60.168 397.898 59.232C394.57 66.72 391.034 74 387.186 79.512C385.73 81.696 386.25 84.712 388.538 86.272C390.722 87.832 393.738 87.312 395.298 85.024C400.394 77.64 404.97 67.76 408.922 58.192C412.25 57.984 415.786 57.88 419.634 57.776C419.634 61.728 419.634 65.68 419.634 69.32C419.53 74.312 419.53 78.992 419.53 83.048C419.53 85.752 421.714 87.936 424.418 87.936C427.122 87.936 429.306 85.752 429.306 83.048C429.306 78.992 429.306 74.312 429.41 69.32C429.41 65.368 429.41 61.52 429.41 57.984C431.074 57.984 432.842 58.088 434.61 58.192C437.21 58.296 439.602 56.216 439.706 53.512C439.81 50.808 437.834 48.52 435.13 48.416ZM412.978 48.208C413.29 47.48 413.602 46.648 413.914 46.024C415.682 41.552 417.658 36.56 419.322 32.712C419.53 36.56 419.634 42.072 419.634 48C417.346 48.104 415.162 48.104 412.978 48.208ZM494.96 23.976L493.4 21.688H490.696C487.264 21.688 485.392 24.08 477.488 34.584C469.688 44.88 455.856 63.392 446.288 68.176C448.888 59.648 461.16 38.848 472.912 21.688C474.472 19.504 473.848 16.384 471.664 14.928C469.48 13.368 466.36 13.888 464.904 16.176C430.48 66.096 435.68 73.584 437.344 76.08C438.176 77.224 440.776 80.032 446.08 78.68C455.544 76.392 465.944 65.264 476.76 51.536C472.704 61.52 467.712 73.064 462.824 84.088C461.784 86.584 462.824 89.392 465.32 90.536C465.944 90.848 466.672 90.952 467.296 90.952C469.168 90.952 470.936 89.808 471.768 88.04C498.08 28.656 496.624 26.472 494.96 23.976ZM540.478 18.152C540.478 15.448 538.294 13.368 535.59 13.368H535.486C532.782 13.368 530.702 15.552 530.702 18.256C530.702 18.568 530.91 43.008 530.91 61.832C528.31 54.032 524.878 42.8 520.198 26.264C519.47 23.976 517.39 16.904 511.358 17.008C508.134 17.112 499.606 17.424 487.958 73.064C487.438 75.768 489.102 78.368 491.806 78.888C494.406 79.408 497.006 77.744 497.526 75.144C501.27 57.464 506.886 37.288 510.942 29.488C525.918 82.424 529.766 87.208 533.822 87.208C534.342 87.208 534.758 87.208 535.174 87.104C538.502 86.688 540.27 84.088 540.374 79.304C540.998 64.64 540.478 20.024 540.478 18.152ZM590.811 7.96C588.211 7.232 585.507 8.688 584.675 11.288L582.075 20.128C580.515 19.192 579.059 18.88 578.123 18.776C565.955 17.528 548.587 38.952 544.427 55.904C541.099 69.424 546.819 75.04 550.459 77.224C553.163 78.784 556.179 79.408 559.403 79.408C565.331 79.408 571.675 77.016 575.315 73.48C580.515 68.696 584.363 61.52 585.715 58.608C586.963 56.216 585.923 53.304 583.531 52.056C581.035 50.912 578.123 51.848 576.979 54.344C575.107 58.088 571.883 63.288 568.659 66.408C565.851 69.008 558.779 70.672 555.451 68.8C552.435 67.032 552.955 62.04 553.891 58.192C557.947 41.864 573.235 27.616 576.979 28.344C576.979 28.448 577.811 29.28 577.915 32.712C577.915 33.024 577.915 33.336 578.019 33.648L577.395 35.832C576.563 38.432 578.019 41.136 580.619 41.864C581.139 42.072 581.555 42.072 582.075 42.072C584.155 42.072 586.027 40.72 586.755 38.64L594.035 14.096C594.867 11.496 593.411 8.792 590.811 7.96ZM622.927 21.688C620.327 21.168 617.831 23.04 617.311 25.64L613.983 46.024L602.439 47.584L608.679 27.928C609.511 25.432 608.159 22.624 605.559 21.792C602.959 20.96 600.255 22.416 599.423 25.016L584.031 73.168C583.199 75.768 584.655 78.472 587.151 79.304C587.671 79.512 588.191 79.512 588.711 79.512C590.791 79.512 592.663 78.264 593.287 76.184L599.111 57.984L612.319 56.112L607.119 87.728C606.703 90.328 608.471 92.824 611.175 93.344C611.487 93.344 611.695 93.344 612.007 93.344C614.295 93.344 616.375 91.68 616.791 89.288L626.983 27.304C627.399 24.6 625.631 22.104 622.927 21.688ZM303.11 294.672C290.422 297.064 281.374 299.456 273.47 301.432C271.494 301.952 269.622 302.368 267.75 302.888C269.518 301.224 271.39 299.56 272.742 298.416C276.486 295.088 279.606 292.28 281.374 290.304C283.454 287.912 283.454 285.52 282.622 283.856C285.742 281.36 288.55 278.344 290.838 274.808C299.782 260.456 296.87 242.464 284.39 234.664C271.91 226.864 254.542 232.272 245.598 246.52C236.654 260.872 239.566 278.864 251.942 286.664C247.99 287.912 243.518 289.472 238.318 291.24C235.718 292.176 234.366 294.88 235.302 297.48C236.238 300.08 238.942 301.328 241.542 300.496C248.822 297.896 257.038 295.296 263.694 293.32C253.294 302.68 249.238 306.944 251.63 311.728C252.774 313.912 254.75 314.952 257.558 314.952C258.598 314.952 259.742 314.848 260.886 314.536C266.086 313.392 270.87 312.248 275.862 310.896C284.078 308.816 292.502 306.632 304.982 304.24C307.582 303.824 309.35 301.224 308.83 298.52C308.31 295.92 305.814 294.152 303.11 294.672ZM257.142 278.344C249.342 273.456 247.782 261.496 253.918 251.72C258.182 244.856 265.15 240.904 271.598 240.904C274.302 240.904 276.902 241.528 279.294 242.984C287.094 247.872 288.654 259.832 282.518 269.608C276.486 279.384 265.046 283.232 257.142 278.344ZM271.39 247.248C268.79 246.312 265.982 247.664 265.15 250.16L259.43 266.176C258.598 268.672 259.846 271.48 262.446 272.416C262.966 272.624 263.486 272.728 264.11 272.728C266.086 272.728 267.958 271.48 268.686 269.4L274.302 253.488C275.238 250.888 273.886 248.08 271.39 247.248ZM338.613 232.896C335.701 230.92 332.685 230.504 318.125 243.608C316.149 245.376 315.941 248.496 317.813 250.472C319.581 252.448 322.701 252.656 324.677 250.888C325.405 250.16 326.237 249.536 327.069 248.808C322.389 262.12 315.629 281.672 313.549 287.808L309.077 287.912C306.373 288.016 304.189 290.304 304.293 293.008C304.397 295.608 306.581 297.688 309.181 297.688H309.285L326.029 297.272C328.733 297.168 330.813 294.88 330.813 292.176C330.709 289.472 328.421 287.392 325.717 287.496H324.053C328.317 275.016 338.717 244.752 340.485 239.968C342.149 235.496 339.237 233.312 338.613 232.896ZM395.777 219.376C393.177 218.648 390.473 220.104 389.641 222.704L367.905 294.152C367.073 296.752 368.529 299.456 371.129 300.288C371.649 300.392 372.065 300.496 372.585 300.496C374.665 300.496 376.641 299.144 377.265 297.064L399.001 225.512C399.833 222.912 398.377 220.208 395.777 219.376ZM437.329 286.248C428.489 286.976 418.505 287.704 411.225 287.912C456.673 250.68 452.825 242.984 450.953 239.136C447.625 232.688 435.873 233.208 426.513 234.768C421.521 235.704 396.457 240.592 394.793 253.696C393.961 260.144 399.057 265.864 409.769 270.544C412.161 271.688 415.073 270.544 416.217 268.048C417.257 265.552 416.113 262.744 413.721 261.6C406.233 258.376 404.569 255.776 404.465 255.048C404.465 254.632 405.193 253.072 408.625 250.992C418.505 244.96 436.185 242.568 441.593 243.816C440.241 247.04 433.169 257.96 397.289 286.56L396.353 287.288C393.961 289.264 393.857 291.864 394.585 293.632C395.417 295.816 396.249 297.792 408.209 297.792C414.553 297.792 424.017 297.272 438.265 295.92C440.969 295.712 442.945 293.32 442.737 290.616C442.425 287.912 440.033 285.936 437.329 286.248ZM494.054 286.248C485.214 286.976 475.23 287.704 467.95 287.912C513.398 250.68 509.55 242.984 507.678 239.136C504.35 232.688 492.598 233.208 483.238 234.768C478.246 235.704 453.182 240.592 451.518 253.696C450.686 260.144 455.782 265.864 466.494 270.544C468.886 271.688 471.798 270.544 472.942 268.048C473.982 265.552 472.838 262.744 470.446 261.6C462.958 258.376 461.294 255.776 461.19 255.048C461.19 254.632 461.918 253.072 465.35 250.992C475.23 244.96 492.91 242.568 498.318 243.816C496.966 247.04 489.894 257.96 454.014 286.56L453.078 287.288C450.686 289.264 450.582 291.864 451.31 293.632C452.142 295.816 452.974 297.792 464.934 297.792C471.278 297.792 480.742 297.272 494.99 295.92C497.694 295.712 499.67 293.32 499.462 290.616C499.15 287.912 496.758 285.936 494.054 286.248Z" fill="white"/>
<path d="M64.2717 111.16C60.9217 110.222 57.4377 112.098 56.3657 115.448L53.0157 126.838C51.0057 125.632 49.1297 125.23 47.9237 125.096C32.2457 123.488 9.86772 151.092 4.50772 172.934C0.219725 190.354 7.58972 197.59 12.2797 200.404C15.7637 202.414 19.6497 203.218 23.8037 203.218C31.4417 203.218 39.6157 200.136 44.3057 195.58C51.0057 189.416 55.9637 180.17 57.7057 176.418C59.3137 173.336 57.9737 169.584 54.8917 167.976C51.6757 166.502 47.9237 167.708 46.4497 170.924C44.0377 175.748 39.8837 182.448 35.7297 186.468C32.1117 189.818 22.9997 191.962 18.7117 189.55C14.8257 187.272 15.4957 180.84 16.7017 175.882C21.9277 154.844 41.6257 136.486 46.4497 137.424C46.4497 137.558 47.5217 138.63 47.6557 143.052C47.6557 143.454 47.6557 143.856 47.7897 144.258L46.9857 147.072C45.9137 150.422 47.7897 153.906 51.1397 154.844C51.8097 155.112 52.3457 155.112 53.0157 155.112C55.6957 155.112 58.1077 153.37 59.0457 150.69L68.4257 119.066C69.4977 115.716 67.6217 112.232 64.2717 111.16ZM116.886 131.394C100.806 121.344 78.4276 128.312 66.9036 146.67C55.3796 165.162 59.1316 188.344 75.2116 198.394C80.1696 201.476 85.7976 202.95 91.5596 202.95C104.156 202.95 117.288 195.714 125.194 183.118C136.718 164.626 132.966 141.444 116.886 131.394ZM114.474 176.418C106.702 189.014 91.9616 193.972 81.7776 187.674C71.5936 181.376 69.7176 165.966 77.6236 153.37C83.1176 144.526 92.0956 139.434 100.404 139.434C103.888 139.434 107.238 140.238 110.186 142.114C120.37 148.412 122.246 163.822 114.474 176.418ZM100.136 147.608C96.7856 146.402 93.1676 148.144 92.0956 151.36L84.7256 171.996C83.5196 175.212 85.2616 178.83 88.6116 180.036C89.2816 180.304 89.9516 180.438 90.6216 180.438C93.3016 180.438 95.7136 178.83 96.6516 176.15L103.888 155.648C105.094 152.298 103.352 148.68 100.136 147.608ZM90.6216 120.942H115.68C119.164 120.942 121.978 118.128 121.978 114.644C121.978 111.16 119.164 108.346 115.68 108.346H90.6216C87.1376 108.346 84.3236 111.16 84.3236 114.644C84.3236 118.128 87.1376 120.942 90.6216 120.942ZM174.077 188.88C173.273 185.53 169.923 183.386 166.573 184.19C157.863 186.066 147.813 188.21 141.515 189.416C144.195 178.83 151.699 156.988 158.801 138.228C160.141 135.012 158.533 131.26 155.183 130.054C151.967 128.848 148.349 130.456 147.143 133.672C124.899 191.828 127.445 196.652 128.785 199.198C129.723 200.94 131.465 202.146 133.341 202.682C133.609 202.682 134.145 202.816 135.083 202.816C137.897 202.816 145.401 201.878 169.387 196.384C172.737 195.714 174.881 192.23 174.077 188.88ZM218.507 188.88C217.703 185.53 214.353 183.386 211.003 184.19C202.293 186.066 192.243 188.21 185.945 189.416C188.625 178.83 196.129 156.988 203.231 138.228C204.571 135.012 202.963 131.26 199.613 130.054C196.397 128.848 192.779 130.456 191.573 133.672C169.329 191.828 171.875 196.652 173.215 199.198C174.153 200.94 175.895 202.146 177.771 202.682C178.039 202.682 178.575 202.816 179.513 202.816C182.327 202.816 189.831 201.878 213.817 196.384C217.167 195.714 219.311 192.23 218.507 188.88ZM277.021 163.286C274.475 163.152 272.063 163.018 269.651 162.884C269.651 148.144 269.249 137.692 268.311 133.404C267.775 130.858 266.033 123.354 259.333 122.818C251.025 122.148 247.273 131.93 237.893 155.514C236.821 158.194 235.749 161.008 234.543 163.956C219.267 165.296 210.825 167.708 210.155 167.842C206.805 168.78 204.929 172.264 205.867 175.614C206.671 178.428 209.217 180.17 211.897 180.17C212.433 180.17 213.103 180.17 213.639 179.902C213.773 179.902 219.133 178.428 229.049 177.222C224.761 186.87 220.205 196.25 215.247 203.352C213.371 206.166 214.041 210.052 216.989 212.062C219.803 214.072 223.689 213.402 225.699 210.454C232.265 200.94 238.161 188.21 243.253 175.882C247.541 175.614 252.097 175.48 257.055 175.346C257.055 180.438 257.055 185.53 257.055 190.22C256.921 196.652 256.921 202.682 256.921 207.908C256.921 211.392 259.735 214.206 263.219 214.206C266.703 214.206 269.517 211.392 269.517 207.908C269.517 202.682 269.517 196.652 269.651 190.22C269.651 185.128 269.651 180.17 269.651 175.614C271.795 175.614 274.073 175.748 276.351 175.882C279.701 176.016 282.783 173.336 282.917 169.852C283.051 166.368 280.505 163.42 277.021 163.286ZM248.479 163.018C248.881 162.08 249.283 161.008 249.685 160.204C251.963 154.442 254.509 148.01 256.653 143.052C256.921 148.01 257.055 155.112 257.055 162.75C254.107 162.884 251.293 162.884 248.479 163.018ZM371.537 125.766C371.537 123.488 370.465 121.478 368.723 120.138C367.115 118.664 363.095 115.448 326.647 121.344L328.523 115.314C329.461 111.964 327.585 108.48 324.235 107.542C321.019 106.47 317.401 108.346 316.463 111.696L312.845 123.756C304.805 125.23 295.559 126.972 284.839 129.25C281.489 129.92 279.345 133.27 280.015 136.62C280.685 140.104 284.035 142.248 287.519 141.578C294.353 140.104 301.589 138.63 308.691 137.424L292.745 190.354C287.921 190.354 283.633 190.354 280.149 190.086C276.665 189.818 273.717 192.498 273.449 195.982C273.315 199.466 275.861 202.414 279.345 202.682C280.685 202.682 284.437 202.816 289.663 202.816C306.949 202.816 339.779 201.61 347.417 194.508C349.293 192.9 350.231 190.756 350.231 188.478C350.231 181.108 333.749 172.13 320.349 166.502C325.307 163.554 331.739 159.4 340.315 153.638C371.537 132.6 371.537 128.848 371.537 125.766ZM333.213 187.004C326.781 188.344 316.463 189.416 306.145 189.952L310.299 175.882C317.133 178.562 327.049 183.386 333.213 187.004ZM316.865 153.906L322.627 134.878C333.481 133.002 343.397 131.662 350.633 130.858C341.521 137.692 327.585 147.34 316.865 153.906ZM422.782 131.394C406.702 121.344 384.324 128.312 372.8 146.67C361.276 165.162 365.028 188.344 381.108 198.394C386.066 201.476 391.694 202.95 397.456 202.95C410.052 202.95 423.184 195.714 431.09 183.118C442.614 164.626 438.862 141.444 422.782 131.394ZM420.37 176.418C412.598 189.014 397.858 193.972 387.674 187.674C377.49 181.376 375.614 165.966 383.52 153.37C389.014 144.526 397.992 139.434 406.3 139.434C409.784 139.434 413.134 140.238 416.082 142.114C426.266 148.412 428.142 163.822 420.37 176.418ZM406.032 147.608C402.682 146.402 399.064 148.144 397.992 151.36L390.622 171.996C389.416 175.212 391.158 178.83 394.508 180.036C395.178 180.304 395.848 180.438 396.518 180.438C399.198 180.438 401.61 178.83 402.548 176.15L409.784 155.648C410.99 152.298 409.248 148.68 406.032 147.608ZM396.518 120.942H421.576C425.06 120.942 427.874 118.128 427.874 114.644C427.874 111.16 425.06 108.346 421.576 108.346H396.518C393.034 108.346 390.22 111.16 390.22 114.644C390.22 118.128 393.034 120.942 396.518 120.942ZM516.288 132.064C516.422 128.982 515.35 123.354 507.444 119.468C477.964 105.264 443.928 116.52 442.454 116.922C439.238 118.128 437.362 121.612 438.568 124.962C439.64 128.312 443.258 130.054 446.474 128.982C446.608 128.848 450.628 127.642 456.926 126.436L443.794 167.306C443.392 167.44 442.856 167.708 442.454 167.842C439.238 169.182 437.63 172.8 438.97 176.016C439.238 176.82 439.774 177.49 440.31 178.026L434.95 194.508C433.878 197.858 435.754 201.476 439.104 202.414C439.774 202.682 440.31 202.816 440.98 202.816C443.66 202.816 446.206 201.074 447.01 198.394L453.308 178.964L478.098 219.7C479.304 221.71 481.314 222.782 483.458 222.782C484.53 222.782 485.736 222.514 486.674 221.844C489.756 220.102 490.694 216.216 488.818 213.268L464.028 172.264C486.674 161.946 515.886 146 516.288 132.064ZM459.204 160.606L470.594 124.962C480.376 124.694 491.632 125.9 501.95 130.858C502.888 131.26 503.424 131.662 503.692 131.93C502.352 137.29 483.324 149.35 459.204 160.606ZM568.324 163.286C565.778 163.152 563.366 163.018 560.954 162.884C560.954 148.144 560.552 137.692 559.614 133.404C559.078 130.858 557.336 123.354 550.636 122.818C542.328 122.148 538.576 131.93 529.196 155.514C528.124 158.194 527.052 161.008 525.846 163.956C510.57 165.296 502.128 167.708 501.458 167.842C498.108 168.78 496.232 172.264 497.17 175.614C497.974 178.428 500.52 180.17 503.2 180.17C503.736 180.17 504.406 180.17 504.942 179.902C505.076 179.902 510.436 178.428 520.352 177.222C516.064 186.87 511.508 196.25 506.55 203.352C504.674 206.166 505.344 210.052 508.292 212.062C511.106 214.072 514.992 213.402 517.002 210.454C523.568 200.94 529.464 188.21 534.556 175.882C538.844 175.614 543.4 175.48 548.358 175.346C548.358 180.438 548.358 185.53 548.358 190.22C548.224 196.652 548.224 202.682 548.224 207.908C548.224 211.392 551.038 214.206 554.522 214.206C558.006 214.206 560.82 211.392 560.82 207.908C560.82 202.682 560.82 196.652 560.954 190.22C560.954 185.128 560.954 180.17 560.954 175.614C563.098 175.614 565.376 175.748 567.654 175.882C571.004 176.016 574.086 173.336 574.22 169.852C574.354 166.368 571.808 163.42 568.324 163.286ZM539.782 163.018C540.184 162.08 540.586 161.008 540.988 160.204C543.266 154.442 545.812 148.01 547.956 143.052C548.224 148.01 548.358 155.112 548.358 162.75C545.41 162.884 542.596 162.884 539.782 163.018ZM682.699 104.46C649.869 101.914 562.769 112.232 559.017 112.634C555.667 113.036 553.121 116.118 553.523 119.602C553.925 122.818 556.605 125.23 559.821 125.23C560.089 125.23 560.357 125.096 560.491 125.096C560.893 125.096 574.695 123.488 593.321 121.612L568.397 194.642C567.325 197.992 569.067 201.476 572.283 202.682C572.953 202.95 573.623 202.95 574.293 202.95C576.973 202.95 579.385 201.342 580.323 198.796L607.123 120.272C633.923 117.86 665.413 115.716 681.627 117.056C685.111 117.19 688.193 114.644 688.461 111.294C688.729 107.81 686.049 104.728 682.699 104.46ZM654.676 131.394C638.596 121.344 616.218 128.312 604.694 146.67C593.17 165.162 596.922 188.344 613.002 198.394C617.96 201.476 623.588 202.95 629.35 202.95C641.946 202.95 655.078 195.714 662.984 183.118C674.508 164.626 670.756 141.444 654.676 131.394ZM652.264 176.418C644.492 189.014 629.752 193.972 619.568 187.674C609.384 181.376 607.508 165.966 615.414 153.37C620.908 144.526 629.886 139.434 638.194 139.434C641.678 139.434 645.028 140.238 647.976 142.114C658.16 148.412 660.036 163.822 652.264 176.418ZM637.926 147.608C634.576 146.402 630.958 148.144 629.886 151.36L622.516 171.996C621.31 175.212 623.052 178.83 626.402 180.036C627.072 180.304 627.742 180.438 628.412 180.438C631.092 180.438 633.504 178.83 634.442 176.15L641.678 155.648C642.884 152.298 641.142 148.68 637.926 147.608ZM628.412 120.942H653.47C656.954 120.942 659.768 118.128 659.768 114.644C659.768 111.16 656.954 108.346 653.47 108.346H628.412C624.928 108.346 622.114 111.16 622.114 114.644C622.114 118.128 624.928 120.942 628.412 120.942ZM748.182 132.064C748.316 128.982 747.244 123.354 739.338 119.468C709.858 105.264 675.822 116.52 674.348 116.922C671.132 118.128 669.256 121.612 670.462 124.962C671.534 128.312 675.152 130.054 678.368 128.982C678.502 128.848 682.522 127.642 688.82 126.436L675.688 167.306C675.286 167.44 674.75 167.708 674.348 167.842C671.132 169.182 669.524 172.8 670.864 176.016C671.132 176.82 671.668 177.49 672.204 178.026L666.844 194.508C665.772 197.858 667.648 201.476 670.998 202.414C671.668 202.682 672.204 202.816 672.874 202.816C675.554 202.816 678.1 201.074 678.904 198.394L685.202 178.964L709.992 219.7C711.198 221.71 713.208 222.782 715.352 222.782C716.424 222.782 717.63 222.514 718.568 221.844C721.65 220.102 722.588 216.216 720.712 213.268L695.922 172.264C718.568 161.946 747.78 146 748.182 132.064ZM691.098 160.606L702.488 124.962C712.27 124.694 723.526 125.9 733.844 130.858C734.782 131.26 735.318 131.662 735.586 131.93C734.246 137.29 715.218 149.35 691.098 160.606Z" fill="#E5986E"/>
</svg>
