<svg width="724" height="242" viewBox="0 0 724 242" fill="none" xmlns="http://www.w3.org/2000/svg">
<path d="M113.105 26.256C113.105 23.808 111.953 21.648 110.081 20.208C108.353 18.624 104.033 15.168 64.8647 21.504L66.8807 15.024C67.8887 11.424 65.8727 7.68 62.2727 6.67199C58.8167 5.52 54.9287 7.536 53.9207 11.136L50.0327 24.096C41.3927 25.68 31.4567 27.552 19.9367 30C16.3367 30.72 14.0327 34.32 14.7527 37.92C15.4727 41.664 19.0727 43.968 22.8167 43.248C30.1607 41.664 37.9367 40.08 45.5687 38.784L28.4327 95.664C23.2487 95.664 18.6407 95.664 14.8967 95.376C11.1527 95.088 7.98473 97.968 7.69673 101.712C7.55273 105.456 10.2887 108.624 14.0327 108.912C15.4727 108.912 19.5047 109.056 25.1207 109.056C43.6967 109.056 78.9767 107.76 87.1847 100.128C89.2007 98.4 90.2087 96.096 90.2087 93.648C90.2087 85.728 72.4967 76.08 58.0967 70.032C63.4247 66.864 70.3367 62.4 79.5527 56.208C113.105 33.6 113.105 29.568 113.105 26.256ZM71.9207 92.064C65.0087 93.504 53.9207 94.656 42.8327 95.232L47.2967 80.112C54.6407 82.992 65.2967 88.176 71.9207 92.064ZM54.3527 56.496L60.5447 36.048C72.2087 34.032 82.8647 32.592 90.6407 31.728C80.8487 39.072 65.8727 49.44 54.3527 56.496ZM177.357 94.368C160.221 95.232 140.637 95.664 127.821 95.232C135.021 91.488 143.949 87.312 148.845 84.864C163.965 77.664 165.261 77.088 165.261 72.48C165.261 68.016 163.677 67.152 151.725 60.24C147.261 57.792 139.485 53.328 134.301 49.872C143.085 45.984 159.213 40.512 166.413 38.352C168.285 41.376 171.021 46.992 173.181 52.32C174.621 55.776 178.653 57.504 182.109 56.064C185.565 54.624 187.149 50.736 185.709 47.136C176.205 24.096 171.885 24.096 168.429 24.096C164.973 24.096 143.373 31.872 143.085 31.872C119.613 40.368 116.877 43.68 116.589 48.576C116.157 54.912 121.917 58.8 144.669 71.904C144.237 72.192 143.661 72.48 143.085 72.624C109.965 88.464 103.773 92.64 103.773 99.264C103.773 101.28 104.637 103.296 106.221 104.736C107.661 106.176 110.685 109.056 139.053 109.056C148.845 109.056 161.517 108.768 178.077 107.904C181.821 107.616 184.701 104.448 184.557 100.704C184.413 96.96 181.101 94.08 177.357 94.368ZM305.452 3.35999C270.172 0.623995 176.572 11.712 172.54 12.144C168.94 12.576 166.204 15.888 166.636 19.632C167.068 23.088 169.948 25.68 173.404 25.68C173.692 25.68 173.98 25.536 174.124 25.536C174.556 25.536 189.388 23.808 209.404 21.792L182.62 100.272C181.468 103.872 183.34 107.616 186.796 108.912C187.516 109.2 188.236 109.2 188.956 109.2C191.836 109.2 194.428 107.472 195.436 104.736L224.236 20.352C253.036 17.76 286.876 15.456 304.3 16.896C308.044 17.04 311.356 14.304 311.644 10.704C311.932 6.96 309.052 3.648 305.452 3.35999ZM286.609 66.576C283.873 66.432 281.281 66.288 278.689 66.144C278.689 50.304 278.257 39.072 277.249 34.464C276.673 31.728 274.801 23.664 267.601 23.088C258.673 22.368 254.641 32.88 244.561 58.224C243.409 61.104 242.257 64.128 240.961 67.296C224.545 68.736 215.473 71.328 214.753 71.472C211.153 72.48 209.137 76.224 210.145 79.824C211.009 82.848 213.745 84.72 216.625 84.72C217.201 84.72 217.921 84.72 218.497 84.432C218.641 84.432 224.401 82.848 235.057 81.552C230.449 91.92 225.553 102 220.225 109.632C218.209 112.656 218.929 116.832 222.097 118.992C225.121 121.152 229.297 120.432 231.457 117.264C238.513 107.04 244.849 93.36 250.321 80.112C254.929 79.824 259.825 79.68 265.153 79.536C265.153 85.008 265.153 90.48 265.153 95.52C265.009 102.432 265.009 108.912 265.009 114.528C265.009 118.272 268.033 121.296 271.777 121.296C275.521 121.296 278.545 118.272 278.545 114.528C278.545 108.912 278.545 102.432 278.689 95.52C278.689 90.048 278.689 84.72 278.689 79.824C280.993 79.824 283.441 79.968 285.889 80.112C289.489 80.256 292.801 77.376 292.945 73.632C293.089 69.888 290.353 66.72 286.609 66.576ZM255.937 66.288C256.369 65.28 256.801 64.128 257.233 63.264C259.681 57.072 262.417 50.16 264.721 44.832C265.009 50.16 265.153 57.792 265.153 66C261.985 66.144 258.961 66.144 255.937 66.288ZM383.838 94.08C382.974 90.48 379.374 88.176 375.774 89.04C366.414 91.056 355.614 93.36 348.846 94.656C351.726 83.28 359.79 59.808 367.422 39.648C368.862 36.192 367.134 32.16 363.534 30.864C360.078 29.568 356.19 31.296 354.894 34.752C330.99 97.248 333.726 102.432 335.166 105.168C336.174 107.04 338.046 108.336 340.062 108.912C340.35 108.912 340.926 109.056 341.934 109.056C344.958 109.056 353.022 108.048 378.798 102.144C382.398 101.424 384.702 97.68 383.838 94.08ZM446.719 66.576C443.983 66.432 441.391 66.288 438.799 66.144C438.799 50.304 438.367 39.072 437.359 34.464C436.783 31.728 434.911 23.664 427.711 23.088C418.783 22.368 414.751 32.88 404.671 58.224C403.519 61.104 402.367 64.128 401.071 67.296C384.655 68.736 375.583 71.328 374.863 71.472C371.263 72.48 369.247 76.224 370.255 79.824C371.119 82.848 373.855 84.72 376.735 84.72C377.311 84.72 378.031 84.72 378.607 84.432C378.751 84.432 384.511 82.848 395.167 81.552C390.559 91.92 385.663 102 380.335 109.632C378.319 112.656 379.039 116.832 382.207 118.992C385.231 121.152 389.407 120.432 391.567 117.264C398.623 107.04 404.959 93.36 410.431 80.112C415.039 79.824 419.935 79.68 425.263 79.536C425.263 85.008 425.263 90.48 425.263 95.52C425.119 102.432 425.119 108.912 425.119 114.528C425.119 118.272 428.143 121.296 431.887 121.296C435.631 121.296 438.655 118.272 438.655 114.528C438.655 108.912 438.655 102.432 438.799 95.52C438.799 90.048 438.799 84.72 438.799 79.824C441.103 79.824 443.551 79.968 445.999 80.112C449.599 80.256 452.911 77.376 453.055 73.632C453.199 69.888 450.463 66.72 446.719 66.576ZM416.047 66.288C416.479 65.28 416.911 64.128 417.343 63.264C419.791 57.072 422.527 50.16 424.831 44.832C425.119 50.16 425.263 57.792 425.263 66C422.095 66.144 419.071 66.144 416.047 66.288ZM529.561 32.736L527.401 29.568H523.657C518.905 29.568 516.313 32.88 505.369 47.424C494.569 61.68 475.417 87.312 462.169 93.936C465.769 82.128 482.761 53.328 499.033 29.568C501.193 26.544 500.329 22.224 497.305 20.208C494.281 18.048 489.961 18.768 487.945 21.936C440.281 91.056 447.481 101.424 449.785 104.88C450.937 106.464 454.537 110.352 461.881 108.48C474.985 105.312 489.385 89.904 504.361 70.896C498.745 84.72 491.833 100.704 485.065 115.968C483.625 119.424 485.065 123.312 488.521 124.896C489.385 125.328 490.393 125.472 491.257 125.472C493.849 125.472 496.297 123.888 497.449 121.44C533.881 39.216 531.865 36.192 529.561 32.736ZM592.585 24.672C592.585 20.928 589.561 18.048 585.817 18.048H585.673C581.929 18.048 579.049 21.072 579.049 24.816C579.049 25.248 579.337 59.088 579.337 85.152C575.737 74.352 570.985 58.8 564.505 35.904C563.497 32.736 560.617 22.944 552.265 23.088C547.801 23.232 535.993 23.664 519.865 100.704C519.145 104.448 521.449 108.048 525.193 108.768C528.793 109.488 532.393 107.184 533.113 103.584C538.297 79.104 546.073 51.168 551.689 40.368C572.425 113.664 577.753 120.288 583.369 120.288C584.089 120.288 584.665 120.288 585.241 120.144C589.849 119.568 592.297 115.968 592.441 109.344C593.305 89.04 592.585 27.264 592.585 24.672ZM662.277 10.56C658.677 9.552 654.933 11.568 653.781 15.168L650.181 27.408C648.021 26.112 646.005 25.68 644.709 25.536C627.861 23.808 603.813 53.472 598.053 76.944C593.445 95.664 601.365 103.44 606.405 106.464C610.149 108.624 614.325 109.488 618.789 109.488C626.997 109.488 635.781 106.176 640.821 101.28C648.021 94.656 653.349 84.72 655.221 80.688C656.949 77.376 655.509 73.344 652.197 71.616C648.741 70.032 644.709 71.328 643.125 74.784C640.533 79.968 636.069 87.168 631.605 91.488C627.717 95.088 617.925 97.392 613.317 94.8C609.141 92.352 609.861 85.44 611.157 80.112C616.773 57.504 637.941 37.776 643.125 38.784C643.125 38.928 644.277 40.08 644.421 44.832C644.421 45.264 644.421 45.696 644.565 46.128L643.701 49.152C642.549 52.752 644.565 56.496 648.165 57.504C648.885 57.792 649.461 57.792 650.181 57.792C653.061 57.792 655.653 55.92 656.661 53.04L666.741 19.056C667.893 15.456 665.877 11.712 662.277 10.56ZM706.745 29.568C703.145 28.848 699.689 31.44 698.969 35.04L694.361 63.264L678.377 65.424L687.017 38.208C688.169 34.752 686.297 30.864 682.697 29.712C679.097 28.56 675.353 30.576 674.201 34.176L652.889 100.848C651.737 104.448 653.753 108.192 657.209 109.344C657.929 109.632 658.649 109.632 659.369 109.632C662.249 109.632 664.841 107.904 665.705 105.024L673.769 79.824L692.057 77.232L684.857 121.008C684.281 124.608 686.729 128.064 690.473 128.784C690.905 128.784 691.193 128.784 691.625 128.784C694.793 128.784 697.673 126.48 698.249 123.168L712.361 37.344C712.937 33.6 710.489 30.144 706.745 29.568Z" fill="white"/>
<path d="M88.7877 215.712C72.4397 218.794 60.7817 221.876 50.5977 224.422C48.0517 225.092 45.6397 225.628 43.2277 226.298C45.5057 224.154 47.9177 222.01 49.6597 220.536C54.4837 216.248 58.5037 212.63 60.7817 210.084C63.4617 207.002 63.4617 203.92 62.3897 201.776C66.4097 198.56 70.0277 194.674 72.9757 190.118C84.4997 171.626 80.7477 148.444 64.6677 138.394C48.5877 128.344 26.2097 135.312 14.6857 153.67C3.1617 172.162 6.9137 195.344 22.8597 205.394C17.7677 207.002 12.0057 209.012 5.3057 211.29C1.9557 212.496 0.213701 215.98 1.4197 219.33C2.6257 222.68 6.1097 224.288 9.4597 223.216C18.8397 219.866 29.4257 216.516 38.0017 213.97C24.6017 226.03 19.3757 231.524 22.4577 237.688C23.9317 240.502 26.4777 241.842 30.0957 241.842C31.4357 241.842 32.9097 241.708 34.3837 241.306C41.0837 239.832 47.2477 238.358 53.6797 236.616C64.2657 233.936 75.1197 231.122 91.1997 228.04C94.5497 227.504 96.8277 224.154 96.1577 220.67C95.4877 217.32 92.2717 215.042 88.7877 215.712ZM29.5597 194.674C19.5097 188.376 17.4997 172.966 25.4057 160.37C30.8997 151.526 39.8777 146.434 48.1857 146.434C51.6697 146.434 55.0197 147.238 58.1017 149.114C68.1517 155.412 70.1617 170.822 62.2557 183.418C54.4837 196.014 39.7437 200.972 29.5597 194.674ZM47.9177 154.608C44.5677 153.402 40.9497 155.144 39.8777 158.36L32.5077 178.996C31.4357 182.212 33.0437 185.83 36.3937 187.036C37.0637 187.304 37.7337 187.438 38.5377 187.438C41.0837 187.438 43.4957 185.83 44.4337 183.15L51.6697 162.648C52.8757 159.298 51.1337 155.68 47.9177 154.608ZM133.303 153.67C129.953 152.598 126.469 154.34 125.263 157.69L122.717 165.462C120.707 156.886 117.759 148.444 113.337 145.094C111.327 143.62 108.915 142.95 106.503 143.352C95.7829 144.96 74.4769 194.004 71.6629 205.126C70.7249 208.476 68.7149 216.248 73.9409 220.134C74.8789 220.938 76.4869 222.144 79.4349 222.144C84.6609 222.144 94.0409 217.99 111.193 199.23L106.235 213.836C105.029 217.052 106.771 220.67 110.121 221.742C110.791 222.01 111.461 222.144 112.131 222.144C114.811 222.144 117.223 220.536 118.161 217.856L137.189 161.71C138.395 158.494 136.653 154.876 133.303 153.67ZM83.9909 207.27C87.4749 195.076 100.473 168.678 107.575 158.628C109.183 163.05 111.059 170.688 112.265 178.594C101.947 191.19 90.5569 202.58 83.9909 207.27ZM204.611 146.434C201.395 145.228 197.777 146.836 196.571 150.052C196.437 150.052 196.437 150.186 196.437 150.454C195.901 150.722 195.365 151.258 194.963 151.794C175.935 177.388 151.815 205.796 142.033 212.496C141.363 203.384 150.341 177.656 163.205 153.134C164.813 150.052 163.607 146.3 160.525 144.692C157.443 143.084 153.691 144.29 152.083 147.372C142.301 165.864 120.995 210.486 133.859 224.154L134.931 225.092C136.003 225.762 137.343 226.7 139.487 226.7C145.115 226.7 156.103 220.536 181.697 189.314C177.275 201.642 173.255 213.3 171.915 218.66C171.111 222.01 173.121 225.494 176.471 226.298C177.007 226.432 177.543 226.432 177.945 226.432C180.893 226.432 183.439 224.556 184.109 221.742C187.191 209.146 208.095 155.144 208.229 154.608C209.569 151.392 207.961 147.64 204.611 146.434ZM226.655 199.498C227.325 199.632 227.995 199.9 228.665 199.9C228.799 199.9 228.933 199.9 229.067 199.9C231.747 199.9 234.159 198.828 236.035 197.086C251.177 181.944 261.495 148.578 255.867 140.806C254.795 139.198 252.651 138.126 250.775 137.992C248.497 137.724 245.147 137.59 226.789 155.546L228.799 148.712C229.737 145.362 227.861 141.878 224.645 140.94C221.295 139.868 217.677 141.744 216.739 145.094L207.761 175.244C207.225 176.048 206.957 176.986 206.957 177.924L193.289 223.216C192.351 226.566 194.227 230.05 197.577 230.988C198.113 231.256 198.783 231.256 199.319 231.256C202.133 231.256 204.545 229.514 205.349 226.834L212.719 202.58L227.593 220C228.799 221.34 230.541 222.144 232.417 222.144C233.891 222.144 235.231 221.608 236.437 220.67C239.117 218.392 239.385 214.372 237.107 211.692L226.655 199.498ZM243.137 157.422C240.725 166.4 235.901 178.594 228.263 186.902C226.387 185.964 223.037 183.284 220.089 180.202C227.995 172.028 236.705 163.452 243.137 157.422ZM307.596 160.37C299.69 159.298 292.052 158.896 285.352 158.628L287.764 149.516C288.702 146.166 286.692 142.682 283.342 141.744C279.858 140.94 276.508 142.95 275.57 146.3L272.354 158.628C264.984 158.628 260.16 159.03 259.758 159.03C256.274 159.432 253.728 162.38 253.996 165.864C254.264 169.348 257.346 171.894 260.83 171.626C260.83 171.626 263.912 171.358 268.87 171.224L257.48 214.238C256.676 217.588 258.552 221.072 262.036 221.876C262.572 222.144 263.108 222.144 263.644 222.144C266.324 222.144 268.87 220.268 269.674 217.454L282.002 171.224C289.104 171.358 297.412 171.76 305.988 172.832C306.256 172.832 306.524 172.832 306.792 172.832C310.008 172.832 312.688 170.554 313.09 167.338C313.492 163.854 311.08 160.772 307.596 160.37ZM352.802 169.214C353.74 172.564 357.09 174.44 360.574 173.502C363.924 172.564 365.8 169.08 364.862 165.73C361.11 151.928 356.688 150.052 353.204 149.918C342.484 149.382 317.694 168.544 313.138 173.368C312.334 174.172 310.19 176.584 310.592 179.8C311.262 185.026 315.014 186.098 332.702 191.726C333.238 191.86 333.774 191.994 334.444 192.262C333.64 192.664 332.97 193.066 332.3 193.334C309.654 205.796 304.83 208.878 304.83 214.372C304.83 216.248 305.634 218.124 307.108 219.464C308.448 220.804 310.86 223.082 331.63 223.082C337.66 223.082 345.298 222.814 354.946 222.412C358.43 222.144 361.11 219.196 360.976 215.846C360.842 212.362 357.76 209.548 354.41 209.816C345.432 210.218 335.516 210.486 327.744 210.352C331.496 208.208 335.382 206.064 338.33 204.456C353.874 195.88 355.75 194.808 354.946 189.716C354.142 185.16 351.864 184.49 336.454 179.666C334.042 178.862 330.96 177.924 328.146 176.986C334.846 171.76 345.164 164.926 350.524 163.05C351.328 164.658 352.132 167.07 352.802 169.214ZM392.134 199.498C392.804 199.632 393.474 199.9 394.144 199.9C394.278 199.9 394.412 199.9 394.546 199.9C397.226 199.9 399.638 198.828 401.514 197.086C416.656 181.944 426.974 148.578 421.346 140.806C420.274 139.198 418.13 138.126 416.254 137.992C413.976 137.724 410.626 137.59 392.268 155.546L394.278 148.712C395.216 145.362 393.34 141.878 390.124 140.94C386.774 139.868 383.156 141.744 382.218 145.094L373.24 175.244C372.704 176.048 372.436 176.986 372.436 177.924L358.768 223.216C357.83 226.566 359.706 230.05 363.056 230.988C363.592 231.256 364.262 231.256 364.798 231.256C367.612 231.256 370.024 229.514 370.828 226.834L378.198 202.58L393.072 220C394.278 221.34 396.02 222.144 397.896 222.144C399.37 222.144 400.71 221.608 401.916 220.67C404.596 218.392 404.864 214.372 402.586 211.692L392.134 199.498ZM408.616 157.422C406.204 166.4 401.38 178.594 393.742 186.902C391.866 185.964 388.516 183.284 385.568 180.202C393.474 172.028 402.184 163.452 408.616 157.422ZM510.182 136.116C506.43 133.57 502.544 133.034 483.784 149.918C481.238 152.196 480.97 156.216 483.382 158.762C485.66 161.308 489.68 161.576 492.226 159.298C493.164 158.36 494.236 157.556 495.308 156.618C489.278 173.77 480.568 198.962 477.888 206.868L472.126 207.002C468.642 207.136 465.828 210.084 465.962 213.568C466.096 216.918 468.91 219.598 472.26 219.598H472.394L493.968 219.062C497.452 218.928 500.132 215.98 500.132 212.496C499.998 209.012 497.05 206.332 493.566 206.466H491.422C496.916 190.386 510.316 151.392 512.594 145.228C514.738 139.466 510.986 136.652 510.182 136.116ZM565.612 166.936L564.004 165.864L567.354 155.814C568.158 153.536 566.952 151.124 564.808 150.454C562.664 149.65 560.252 150.856 559.448 153L555.026 165.998C554.892 166.4 554.892 166.802 554.892 167.204C554.892 167.338 554.892 167.338 554.892 167.472C554.892 167.606 554.892 167.74 554.892 168.008C554.892 169.348 555.562 170.688 556.902 171.492L561.324 174.172C561.994 174.574 562.664 174.708 563.468 174.708C564.942 174.708 566.282 173.904 567.086 172.564C568.292 170.554 567.622 168.008 565.612 166.936ZM625.335 204.858C613.945 205.796 601.081 206.734 591.701 207.002C650.259 159.03 645.301 149.114 642.889 144.156C638.601 135.848 623.459 136.518 611.399 138.528C604.967 139.734 572.673 146.032 570.529 162.916C569.457 171.224 576.023 178.594 589.825 184.624C592.907 186.098 596.659 184.624 598.133 181.408C599.473 178.192 597.999 174.574 594.917 173.1C585.269 168.946 583.125 165.596 582.991 164.658C582.991 164.122 583.929 162.112 588.351 159.432C601.081 151.66 623.861 148.578 630.829 150.186C629.087 154.34 619.975 168.41 573.745 205.26L572.539 206.198C569.457 208.744 569.323 212.094 570.261 214.372C571.333 217.186 572.405 219.732 587.815 219.732C595.989 219.732 608.183 219.062 626.541 217.32C630.025 217.052 632.571 213.97 632.303 210.486C631.901 207.002 628.819 204.456 625.335 204.858ZM698.423 204.858C687.033 205.796 674.169 206.734 664.789 207.002C723.347 159.03 718.389 149.114 715.977 144.156C711.689 135.848 696.547 136.518 684.487 138.528C678.055 139.734 645.761 146.032 643.617 162.916C642.545 171.224 649.111 178.594 662.913 184.624C665.995 186.098 669.747 184.624 671.221 181.408C672.561 178.192 671.087 174.574 668.005 173.1C658.357 168.946 656.213 165.596 656.079 164.658C656.079 164.122 657.017 162.112 661.439 159.432C674.169 151.66 696.949 148.578 703.917 150.186C702.175 154.34 693.063 168.41 646.833 205.26L645.627 206.198C642.545 208.744 642.411 212.094 643.349 214.372C644.421 217.186 645.493 219.732 660.903 219.732C669.077 219.732 681.271 219.062 699.629 217.32C703.113 217.052 705.659 213.97 705.391 210.486C704.989 207.002 701.907 204.456 698.423 204.858Z" fill="#E5986E"/>
</svg>
