<svg width="526" height="89" viewBox="0 0 526 89" fill="none" xmlns="http://www.w3.org/2000/svg">
<path d="M55.9706 41.416C53.9946 41.312 52.1226 41.208 50.2506 41.104C50.2506 29.664 49.9386 21.552 49.2106 18.224C48.7946 16.248 47.4426 10.424 42.2426 10.008C35.7946 9.488 32.8826 17.08 25.6026 35.384C24.7706 37.464 23.9386 39.648 23.0026 41.936C11.1466 42.976 4.59457 44.848 4.07457 44.952C1.47457 45.68 0.018567 48.384 0.746567 50.984C1.37057 53.168 3.34657 54.52 5.42657 54.52C5.84257 54.52 6.36257 54.52 6.77857 54.312C6.88257 54.312 11.0426 53.168 18.7386 52.232C15.4106 59.72 11.8746 67 8.02657 72.512C6.57057 74.696 7.09057 77.712 9.37857 79.272C11.5626 80.832 14.5786 80.312 16.1386 78.024C21.2346 70.64 25.8106 60.76 29.7626 51.192C33.0906 50.984 36.6266 50.88 40.4746 50.776C40.4746 54.728 40.4746 58.68 40.4746 62.32C40.3706 67.312 40.3706 71.992 40.3706 76.048C40.3706 78.752 42.5546 80.936 45.2586 80.936C47.9626 80.936 50.1466 78.752 50.1466 76.048C50.1466 71.992 50.1466 67.312 50.2506 62.32C50.2506 58.368 50.2506 54.52 50.2506 50.984C51.9146 50.984 53.6826 51.088 55.4506 51.192C58.0506 51.296 60.4426 49.216 60.5466 46.512C60.6506 43.808 58.6746 41.52 55.9706 41.416ZM33.8186 41.208C34.1306 40.48 34.4426 39.648 34.7546 39.024C36.5226 34.552 38.4986 29.56 40.1626 25.712C40.3706 29.56 40.4746 35.072 40.4746 41C38.1866 41.104 36.0026 41.104 33.8186 41.208ZM78.9172 64.088C79.4372 64.192 79.9572 64.4 80.4772 64.4C80.5812 64.4 80.6852 64.4 80.7892 64.4C82.8692 64.4 84.7412 63.568 86.1972 62.216C97.9492 50.464 105.957 24.568 101.589 18.536C100.757 17.288 99.0932 16.456 97.6372 16.352C95.8692 16.144 93.2692 16.04 79.0212 29.976L80.5812 24.672C81.3092 22.072 79.8532 19.368 77.3572 18.64C74.7572 17.808 71.9492 19.264 71.2212 21.864L64.2532 45.264C63.8372 45.888 63.6292 46.616 63.6292 47.344L53.0212 82.496C52.2932 85.096 53.7492 87.8 56.3492 88.528C56.7652 88.736 57.2852 88.736 57.7012 88.736C59.8852 88.736 61.7572 87.384 62.3812 85.304L68.1012 66.48L79.6452 80C80.5812 81.04 81.9332 81.664 83.3892 81.664C84.5332 81.664 85.5732 81.248 86.5092 80.52C88.5892 78.752 88.7972 75.632 87.0292 73.552L78.9172 64.088ZM91.7092 31.432C89.8372 38.4 86.0932 47.864 80.1652 54.312C78.7092 53.584 76.1092 51.504 73.8212 49.112C79.9572 42.768 86.7172 36.112 91.7092 31.432ZM141.737 33.72C135.601 32.888 129.673 32.576 124.473 32.368L126.345 25.296C127.073 22.696 125.513 19.992 122.913 19.264C120.209 18.64 117.609 20.2 116.881 22.8L114.385 32.368C108.665 32.368 104.921 32.68 104.609 32.68C101.905 32.992 99.9293 35.28 100.137 37.984C100.345 40.688 102.737 42.664 105.441 42.456C105.441 42.456 107.833 42.248 111.681 42.144L102.841 75.528C102.217 78.128 103.673 80.832 106.377 81.456C106.793 81.664 107.209 81.664 107.625 81.664C109.705 81.664 111.681 80.208 112.305 78.024L121.873 42.144C127.385 42.248 133.833 42.56 140.489 43.392C140.697 43.392 140.905 43.392 141.113 43.392C143.609 43.392 145.689 41.624 146.001 39.128C146.313 36.424 144.441 34.032 141.737 33.72ZM152.738 41.624C150.138 40.792 147.434 42.352 146.706 44.952C146.394 45.992 139.426 70.952 138.178 75.632C137.45 78.336 139.01 80.936 141.714 81.664C142.026 81.768 142.442 81.768 142.858 81.768C145.042 81.768 147.018 80.312 147.642 78.128C148.786 73.448 156.067 47.864 156.171 47.656C156.899 45.056 155.339 42.352 152.738 41.624ZM160.643 17.288C158.042 16.456 155.235 17.808 154.402 20.304L150.97 30.392C150.034 32.992 151.387 35.8 153.986 36.632C154.507 36.84 155.026 36.944 155.546 36.944C157.627 36.944 159.498 35.696 160.226 33.616L163.659 23.528C164.491 20.928 163.139 18.224 160.643 17.288ZM201.46 63.048C200.42 57.536 193.556 55.976 183.26 53.48C178.372 52.336 173.276 51.192 169.428 49.632C169.324 49.632 169.22 49.528 169.116 49.528C171.924 46.408 181.18 41.416 187.524 38.192L186.9 44.224C186.692 46.928 188.668 49.32 191.268 49.632C191.476 49.632 191.684 49.632 191.788 49.632C194.284 49.632 196.364 47.76 196.676 45.264L198.548 25.816C198.86 23.112 196.884 20.72 194.18 20.408C191.58 20.2 189.084 22.176 188.876 24.88L188.668 26.96C188.148 27.064 187.628 27.168 187.212 27.376C169.74 36.112 158.3 42.456 158.612 50.464C158.716 52.96 160.068 56.496 165.788 58.68C170.364 60.552 176.084 61.904 181.076 63.048C183.156 63.568 185.86 64.192 188.148 64.816C180.14 68.768 166.932 72.408 161.732 73.552C159.132 74.176 157.468 76.776 158.092 79.48C158.612 81.664 160.692 83.224 162.876 83.224C163.188 83.224 163.604 83.224 164.02 83.12C164.956 82.912 187.42 77.608 197.3 70.848C201.356 68.144 201.772 65.128 201.46 63.048ZM242.239 33.72C236.103 32.888 230.175 32.576 224.975 32.368L226.847 25.296C227.575 22.696 226.015 19.992 223.415 19.264C220.711 18.64 218.111 20.2 217.383 22.8L214.887 32.368C209.167 32.368 205.423 32.68 205.111 32.68C202.407 32.992 200.431 35.28 200.639 37.984C200.847 40.688 203.239 42.664 205.943 42.456C205.943 42.456 208.335 42.248 212.183 42.144L203.343 75.528C202.719 78.128 204.175 80.832 206.879 81.456C207.295 81.664 207.711 81.664 208.127 81.664C210.207 81.664 212.183 80.208 212.807 78.024L222.375 42.144C227.887 42.248 234.335 42.56 240.991 43.392C241.199 43.392 241.407 43.392 241.615 43.392C244.111 43.392 246.191 41.624 246.503 39.128C246.815 36.424 244.943 34.032 242.239 33.72ZM322.972 0.959995C320.372 0.231998 317.668 1.688 316.836 4.288L314.236 13.128C312.676 12.192 311.22 11.88 310.284 11.776C298.116 10.528 280.748 31.952 276.588 48.904C273.26 62.424 278.98 68.04 282.62 70.224C285.324 71.784 288.34 72.408 291.564 72.408C297.492 72.408 303.836 70.016 307.476 66.48C312.676 61.696 316.524 54.52 317.876 51.608C319.124 49.216 318.084 46.304 315.692 45.056C313.196 43.912 310.284 44.848 309.14 47.344C307.268 51.088 304.044 56.288 300.82 59.408C298.012 62.008 290.94 63.672 287.612 61.8C284.596 60.032 285.116 55.04 286.052 51.192C290.108 34.864 305.396 20.616 309.14 21.344C309.14 21.448 309.972 22.28 310.076 25.712C310.076 26.024 310.076 26.336 310.18 26.648L309.556 28.832C308.724 31.432 310.18 34.136 312.78 34.864C313.3 35.072 313.716 35.072 314.236 35.072C316.316 35.072 318.188 33.72 318.916 31.64L326.196 7.096C327.028 4.496 325.572 1.792 322.972 0.959995ZM356.721 28.208C352.457 25.192 346.633 24.776 340.705 27.064C335.505 29.248 330.513 33.304 326.665 38.608C322.817 43.912 320.529 49.944 320.217 55.56C319.801 61.904 321.985 67.312 326.145 70.328C328.641 72.096 331.553 72.928 334.673 72.928C337.065 72.928 339.561 72.512 342.161 71.472C347.361 69.392 352.353 65.232 356.201 59.928C364.729 48.176 364.937 34.24 356.721 28.208ZM348.297 54.208C345.593 58.056 341.953 60.968 338.521 62.424C335.817 63.464 333.425 63.464 331.969 62.424C330.513 61.384 329.785 59.096 329.889 56.184C330.201 52.44 331.865 48.072 334.569 44.328C337.377 40.584 340.913 37.568 344.345 36.216C345.801 35.592 347.049 35.384 348.193 35.384C349.337 35.384 350.273 35.592 351.001 36.112C354.225 38.504 353.705 46.72 348.297 54.208ZM348.297 77.608C339.977 75.424 317.617 75.736 315.121 75.84C312.417 75.84 310.233 78.024 310.233 80.728C310.337 83.432 312.625 85.72 315.225 85.616C321.673 85.512 339.873 85.512 345.801 87.072C346.217 87.176 346.633 87.28 347.049 87.28C349.233 87.28 351.209 85.824 351.833 83.536C352.457 80.936 350.897 78.232 348.297 77.608ZM381.268 9.69599C378.668 8.968 375.964 10.528 375.236 13.128L357.244 80.104C356.516 82.704 358.076 85.408 360.676 86.136C361.092 86.24 361.508 86.24 361.924 86.24C364.108 86.24 366.084 84.784 366.708 82.6L384.7 15.624C385.428 13.024 383.868 10.424 381.268 9.69599ZM399.297 9.69599C396.697 8.968 393.993 10.528 393.265 13.128L375.273 80.104C374.545 82.704 376.105 85.408 378.705 86.136C379.121 86.24 379.537 86.24 379.953 86.24C382.137 86.24 384.113 84.784 384.737 82.6L402.729 15.624C403.457 13.024 401.897 10.424 399.297 9.69599ZM439.653 28.52C437.053 27.688 434.349 29.04 433.413 31.64L431.437 37.672C429.877 31.016 427.589 24.464 424.157 21.864C422.597 20.72 420.725 20.2 418.853 20.512C410.533 21.76 393.997 59.824 391.813 68.456C391.085 71.056 389.525 77.088 393.581 80.104C394.309 80.728 395.557 81.664 397.845 81.664C401.901 81.664 409.181 78.44 422.493 63.88L418.645 75.216C417.709 77.712 419.061 80.52 421.661 81.352C422.181 81.56 422.701 81.664 423.221 81.664C425.301 81.664 427.173 80.416 427.901 78.336L442.669 34.76C443.605 32.264 442.253 29.456 439.653 28.52ZM401.381 70.12C404.085 60.656 414.173 40.168 419.685 32.368C420.933 35.8 422.389 41.728 423.325 47.864C415.317 57.64 406.477 66.48 401.381 70.12ZM483.804 27.584C482.972 26.44 481.412 25.608 479.956 25.504C478.084 25.296 475.484 25.088 457.076 41.52L468.308 10.632C469.14 8.136 467.892 5.32799 465.292 4.39199C462.796 3.45599 459.988 4.80799 459.052 7.30399L432.636 80.104C431.7 82.6 433.052 85.408 435.548 86.344C436.068 86.552 436.692 86.656 437.212 86.656C439.188 86.656 441.164 85.408 441.788 83.432L446.26 71.16C449.796 76.048 454.06 80.624 458.116 81.456C458.636 81.664 459.156 81.664 459.78 81.664C461.132 81.664 462.588 81.248 463.732 80.416C469.868 76.152 483.284 41 484.636 33.2C484.948 31.432 485.052 29.456 483.804 27.584ZM459.052 71.056C456.972 69.184 453.644 65.024 450.94 60.552C458.116 53.792 466.02 46.616 471.948 41.624C468.308 51.816 462.276 65.96 459.052 71.056ZM524.803 63.048C523.763 57.536 516.899 55.976 506.603 53.48C501.715 52.336 496.619 51.192 492.771 49.632C492.667 49.632 492.563 49.528 492.459 49.528C495.267 46.408 504.523 41.416 510.867 38.192L510.243 44.224C510.035 46.928 512.011 49.32 514.611 49.632C514.819 49.632 515.027 49.632 515.131 49.632C517.627 49.632 519.707 47.76 520.019 45.264L521.891 25.816C522.203 23.112 520.227 20.72 517.523 20.408C514.923 20.2 512.427 22.176 512.219 24.88L512.011 26.96C511.491 27.064 510.971 27.168 510.555 27.376C493.083 36.112 481.643 42.456 481.955 50.464C482.059 52.96 483.411 56.496 489.131 58.68C493.707 60.552 499.427 61.904 504.419 63.048C506.499 63.568 509.203 64.192 511.491 64.816C503.483 68.768 490.275 72.408 485.075 73.552C482.475 74.176 480.811 76.776 481.435 79.48C481.955 81.664 484.035 83.224 486.219 83.224C486.531 83.224 486.947 83.224 487.363 83.12C488.299 82.912 510.763 77.608 520.643 70.848C524.699 68.144 525.115 65.128 524.803 63.048Z" fill="white"/>
</svg>
