<svg width="1920" height="1080" viewBox="0 0 1920 1080" fill="none" xmlns="http://www.w3.org/2000/svg">
<g clip-path="url(#clip0_637_5853)">
<rect width="1920" height="1080" fill="url(#paint0_linear_637_5853)"/>
<g opacity="0.1">
<path d="M553.206 623.114C555.037 622.73 556.137 623.636 556.584 625.771L557.625 630.738L552.046 631.908L551.014 626.984C550.576 624.893 551.332 623.506 553.206 623.114ZM541.749 626.198C543.536 625.823 544.645 626.773 545.083 628.865L545.987 633.178L540.583 634.311L539.679 629.998C539.24 627.906 539.918 626.582 541.749 626.198ZM552.591 614.1C549.104 614.831 546.475 617.702 546.414 621.536C544.956 618.703 542.058 617.036 538.353 617.813C533.254 618.882 531.18 623.319 532.486 629.55L535.573 644.276L566.302 637.834L563.115 622.628C561.736 616.049 557.778 613.013 552.591 614.1Z" fill="white"/>
<path d="M536.631 585.966C538.754 585.714 540.046 586.771 540.324 589.114L540.832 593.402L534.331 594.174L533.823 589.886C533.545 587.543 534.686 586.197 536.631 585.966ZM528.106 603.699L559.284 599.997L558.256 591.333L546.758 592.698L546.648 591.77L557.412 584.215L556.264 574.534L544.936 583.007C542.97 578.534 539.17 576.744 535.101 577.227C529.529 577.888 525.568 582.304 526.486 590.04L528.106 603.699Z" fill="white"/>
<path d="M545.462 554.37L555.433 554.073L555.174 545.307L545.203 545.604L523.466 535.205L523.756 545.039L536.027 550.197L524.082 556.075L524.377 566.042L545.462 554.37Z" fill="white"/>
<path d="M556.387 507.387L556.93 498.188L524.917 507.722L524.324 517.765L554.991 531.029L555.531 521.874L550.519 519.885L551.175 508.775L556.387 507.387ZM544.378 510.561L543.981 517.271L534.042 513.342L544.378 510.561Z" fill="white"/>
<path d="M529.703 466.198L547.279 468.804L527.995 477.691L526.713 486.322L557.768 490.926L559.051 482.295L541.695 479.722L560.758 470.802L562.041 462.171L530.985 457.567L529.703 466.198Z" fill="white"/>
<path d="M570.991 391.685C572.764 392.281 573.254 393.619 572.558 395.687L570.939 400.497L565.537 398.682L567.141 393.914C567.822 391.888 569.176 391.075 570.991 391.685ZM559.551 388.546C561.281 389.127 561.756 390.508 561.075 392.533L559.669 396.711L554.435 394.952L555.841 390.775C556.522 388.749 557.778 387.95 559.551 388.546ZM575.027 383.6C571.65 382.466 567.929 383.611 565.935 386.886C566.112 383.705 564.458 380.801 560.87 379.595C555.932 377.936 551.897 380.714 549.866 386.748L545.068 401.01L574.826 411.009L579.781 396.282C581.924 389.91 580.05 385.288 575.027 383.6Z" fill="white"/>
<path d="M594.478 359.912L598.177 351.471L564.845 349.322L560.806 358.538L584.97 381.607L588.651 373.206L584.64 369.603L589.108 359.408L594.478 359.912ZM582.113 358.728L579.415 364.886L571.455 357.756L582.113 358.728Z" fill="white"/>
<path d="M576.877 324.532L604.408 339.612L613.292 323.41L607.434 320.202L602.746 328.752L581.073 316.88L576.877 324.532Z" fill="white"/>
<path d="M597.543 289.065L623.633 306.519L633.914 291.165L628.363 287.451L622.937 295.554L602.399 281.814L597.543 289.065Z" fill="white"/>
<path d="M650.269 269.595L655.747 262.801L631.303 243.11L625.826 249.904L650.269 269.595Z" fill="white"/>
<path d="M698.949 207.757C701.975 205.129 702.312 200.766 699.713 197.776C697.084 194.752 692.686 194.445 689.66 197.073C686.669 199.673 686.36 204.069 688.989 207.093C691.589 210.083 695.957 210.357 698.949 207.757Z" fill="white"/>
<path d="M757.424 173.895L764.918 169.42L758.616 158.872L766.568 154.123L763.166 148.429L755.213 153.178L752.382 148.44L763.164 142.001L759.601 136.039L741.326 146.954L757.424 173.895Z" fill="white"/>
<path d="M807.312 129.392C803.207 120.895 793.905 118.021 785.844 121.914C777.824 125.788 774.213 134.898 778.318 143.395C782.424 151.893 791.825 154.768 799.846 150.894C807.866 147.021 811.418 137.89 807.312 129.392ZM786.339 139.522C784.189 135.073 785.24 131.105 789.33 129.129C793.38 127.173 797.182 128.797 799.332 133.247C801.443 137.616 800.372 141.643 796.321 143.599C792.231 145.575 788.45 143.891 786.339 139.522Z" fill="white"/>
<path d="M820.553 126.84C823.718 135.209 830.656 137.44 837.738 134.763C844.778 132.101 849.004 125.649 845.839 117.28L839.399 100.25L831.234 103.337L837.674 120.367C838.823 123.406 838.09 125.873 835.007 127.038C831.925 128.204 829.826 126.808 828.676 123.768L822.236 106.739L814.113 109.81L820.553 126.84Z" fill="white"/>
<path d="M868.364 91.7895L873.153 108.893L857.171 94.9235L848.765 97.277L857.227 127.498L865.633 125.145L860.904 108.255L876.826 122.011L885.231 119.657L876.769 89.436L868.364 91.7895Z" fill="white"/>
<path d="M901.31 84.3157L889.096 86.5957L894.853 117.447L907.067 115.167C916.917 113.328 921.961 105.639 920.295 96.712C918.605 87.6536 911.16 82.477 901.31 84.3157ZM902.021 108.274L899.065 92.4332L902.042 91.8775C906.988 90.9541 910.628 93.2183 911.583 98.3382C912.53 103.414 909.944 106.795 904.997 107.719L902.021 108.274Z" fill="white"/>
<path d="M953.719 77.3121L933.727 79.239L936.733 110.478L956.726 108.552L956.056 101.595L944.752 102.684L944.211 97.0566L954.185 96.0953L953.549 89.4929L943.575 90.4542L943.085 85.3584L954.389 84.2689L953.719 77.3121Z" fill="white"/>
<path d="M992.024 86.6724C992.04 88.8091 990.846 89.9757 988.486 89.9937L984.167 90.0266L984.118 83.4828L988.438 83.4499C990.798 83.4319 992.01 84.7137 992.024 86.6724ZM975.336 76.2489L975.568 107.632L984.297 107.566L984.211 95.9917L985.146 95.9846L991.466 107.511L1001.22 107.437L994.048 95.2489C998.713 93.7888 1000.91 90.2105 1000.88 86.1151C1000.84 80.5062 996.889 76.0845 989.096 76.1439L975.336 76.2489Z" fill="white"/>
<path d="M1062.14 106.057C1066.09 106.732 1069.68 104.23 1070.35 100.324C1071.02 96.3752 1068.48 92.7784 1064.53 92.1031C1060.62 91.4353 1057.02 93.9816 1056.34 97.9308C1055.67 101.836 1058.23 105.389 1062.14 106.057Z" fill="white"/>
<path d="M1125.59 113.166C1122.4 122.001 1125.98 130.299 1134.86 133.503C1142.28 136.177 1149.1 133.81 1152.98 127.64L1144.15 124.451C1142.3 126.292 1139.89 126.797 1137.46 125.92C1133.69 124.56 1132.28 120.737 1133.93 116.173C1135.56 111.651 1139.09 109.611 1142.86 110.971C1145.29 111.848 1146.82 113.772 1147.07 116.369L1155.9 119.558C1156.86 112.329 1153.12 106.154 1145.71 103.479C1136.83 100.276 1128.77 104.372 1125.59 113.166Z" fill="white"/>
<path d="M1185.8 132.088C1184.9 134.026 1183.32 134.569 1181.18 133.575L1177.26 131.756L1180.02 125.821L1183.94 127.64C1186.08 128.634 1186.62 130.311 1185.8 132.088ZM1175.18 115.524L1161.95 143.988L1169.87 147.663L1174.75 137.166L1175.59 137.56L1176.37 150.683L1185.21 154.79L1183.95 140.705C1188.79 141.382 1192.31 139.09 1194.04 135.376C1196.41 130.289 1194.73 124.601 1187.66 121.319L1175.18 115.524Z" fill="white"/>
<path d="M1228.8 143.435L1211.4 133.401L1195.71 160.585L1213.1 170.619L1216.6 164.565L1206.76 158.892L1209.59 153.995L1218.27 159.001L1221.59 153.256L1212.91 148.25L1215.47 143.815L1225.3 149.489L1228.8 143.435Z" fill="white"/>
<path d="M1242.3 190.157L1249.85 195.45L1258.56 163.213L1250.32 157.434L1222.91 176.554L1230.42 181.821L1234.75 178.602L1243.86 184.994L1242.3 190.157ZM1245.91 178.275L1240.41 174.414L1248.98 168.024L1245.91 178.275Z" fill="white"/>
<path d="M1275.2 184.531L1281.53 189.867L1265.77 208.554L1272.44 214.178L1288.2 195.49L1294.6 200.884L1299.08 195.574L1279.68 179.221L1275.2 184.531Z" fill="white"/>
<path d="M1294.01 234.43L1300.16 240.621L1322.44 218.506L1316.29 212.315L1294.01 234.43Z" fill="white"/>
<path d="M1327.3 258.013L1340.18 238.052L1334.21 230.862L1317 259.277L1324.14 267.87L1355.21 256.128L1349.26 248.973L1327.3 258.013Z" fill="white"/>
<path d="M1375.43 284.733L1364.01 268.22L1338.19 286.069L1349.61 302.583L1355.36 298.608L1348.9 289.271L1353.55 286.055L1359.25 294.294L1364.71 290.521L1359.01 282.283L1363.23 279.371L1369.68 288.708L1375.43 284.733Z" fill="white"/>
<path d="M1409.42 346.169L1404.26 334.869L1375.69 347.895L1380.85 359.195C1385.01 368.307 1393.68 371.346 1401.95 367.577C1410.34 363.753 1413.57 355.282 1409.42 346.169ZM1386.33 352.637L1400.99 345.948L1402.25 348.702C1404.34 353.279 1403.02 357.356 1398.27 359.517C1393.57 361.661 1389.67 359.967 1387.58 355.391L1386.33 352.637Z" fill="white"/>
<path d="M1428.83 395.325L1422.15 376.394L1392.54 386.845L1399.23 405.777L1405.82 403.449L1402.04 392.745L1407.37 390.863L1410.71 400.307L1416.97 398.098L1413.63 388.654L1418.46 386.949L1422.24 397.653L1428.83 395.325Z" fill="white"/>
<path d="M1415.36 430.448L1435.55 417.921L1433.23 408.865L1405.51 427.182L1408.29 438.005L1441.39 440.689L1439.08 431.677L1415.36 430.448Z" fill="white"/>
<path d="M1447.41 475.199L1444.16 455.387L1413.18 460.464L1416.43 480.277L1423.33 479.146L1421.49 467.944L1427.07 467.029L1428.69 476.913L1435.24 475.84L1433.62 465.956L1438.67 465.128L1440.51 476.33L1447.41 475.199Z" fill="white"/>
<path d="M1449.94 497.29L1418.63 499.61L1420 518.034L1426.66 517.54L1425.94 507.818L1450.59 505.991L1449.94 497.29Z" fill="white"/>
<path d="M1435.96 562.586C1445.4 562.723 1452.14 555.697 1452.27 546.75C1452.4 537.848 1445.87 530.54 1436.43 530.404C1426.99 530.267 1420.2 537.381 1420.07 546.283C1419.94 555.186 1426.52 562.449 1435.96 562.586ZM1436.3 539.306C1441.24 539.378 1444.32 542.094 1444.25 546.634C1444.19 551.13 1441.03 553.8 1436.09 553.728C1431.23 553.658 1428.11 550.897 1428.18 546.401C1428.24 541.861 1431.45 539.236 1436.3 539.306Z" fill="white"/>
<path d="M1435.56 586.509L1442.34 587.209L1441.98 590.663C1441.71 593.275 1440.27 594.201 1438.19 593.986C1436.15 593.775 1434.93 592.575 1435.2 589.963L1435.56 586.509ZM1437.27 602.842C1443.29 603.464 1448.09 599.976 1448.89 592.227L1450.23 579.253L1419 576.026L1418.11 584.705L1428.65 585.795L1428.2 590.09C1427.38 598.016 1431.82 602.279 1437.27 602.842Z" fill="white"/>
<path d="M1441.35 638.462L1445.18 618.752L1414.36 612.779L1410.53 632.489L1417.39 633.819L1419.56 622.675L1425.11 623.751L1423.2 633.584L1429.71 634.846L1431.62 625.013L1436.65 625.988L1434.49 637.132L1441.35 638.462Z" fill="white"/>
<path d="M1421.5 672.527C1419.44 671.936 1418.66 670.461 1419.32 668.194L1420.51 664.044L1426.8 665.852L1425.61 670.002C1424.95 672.269 1423.38 673.068 1421.5 672.527ZM1436.23 659.484L1406.06 650.811L1403.65 659.197L1414.78 662.395L1414.52 663.294L1401.67 666.085L1398.97 675.454L1412.7 672.035C1412.77 676.921 1415.58 680.044 1419.52 681.176C1424.91 682.726 1430.27 680.191 1432.43 672.704L1436.23 659.484Z" fill="white"/>
<path d="M1383 734.237C1381.23 737.833 1382.61 741.985 1386.17 743.733C1389.76 745.501 1393.94 744.079 1395.71 740.484C1397.46 736.928 1396.04 732.757 1392.44 730.989C1388.88 729.241 1384.75 730.682 1383 734.237Z" fill="white"/>
<path d="M579.414 704.831C577.914 701.116 573.898 699.376 570.222 700.859C566.505 702.359 564.781 706.416 566.281 710.131C567.764 713.805 571.821 715.528 575.538 714.028C579.213 712.544 580.897 708.505 579.414 704.831Z" fill="white"/>
</g>
<rect y="340" width="1920" height="740" fill="url(#paint1_linear_637_5853)"/>
</g>
<defs>
<linearGradient id="paint0_linear_637_5853" x1="102.667" y1="-32.4" x2="1775.52" y2="1386.53" gradientUnits="userSpaceOnUse">
<stop stop-color="#3C0E6D"/>
<stop offset="0.578125" stop-color="#C62C85"/>
<stop offset="0.817708" stop-color="#F29565"/>
</linearGradient>
<linearGradient id="paint1_linear_637_5853" x1="960" y1="555.344" x2="960" y2="1080" gradientUnits="userSpaceOnUse">
<stop stop-opacity="0"/>
<stop offset="0.0001" stop-opacity="0"/>
<stop offset="1"/>
</linearGradient>
<clipPath id="clip0_637_5853">
<rect width="1920" height="1080" fill="white"/>
</clipPath>
</defs>
</svg>
