<svg width="1920" height="1080" viewBox="0 0 1920 1080" fill="none" xmlns="http://www.w3.org/2000/svg">
<g clip-path="url(#clip0_533_5264)">
<rect width="1920" height="1080" fill="url(#paint0_linear_533_5264)"/>
<g opacity="0.1">
<path d="M513.509 507.749C515.377 507.852 516.205 509.012 516.085 511.19L515.805 516.257L510.113 515.943L510.39 510.92C510.508 508.787 511.597 507.643 513.509 507.749ZM501.644 507.762C503.468 507.863 504.293 509.068 504.175 511.201L503.932 515.602L498.418 515.297L498.661 510.897C498.779 508.763 499.777 507.659 501.644 507.762ZM515.248 498.883C511.691 498.687 508.408 500.78 507.357 504.466C506.682 501.353 504.314 498.993 500.535 498.785C495.332 498.497 492.181 502.247 491.83 508.603L491 523.626L522.349 525.356L523.206 509.844C523.577 503.133 520.54 499.175 515.248 498.883Z" fill="white"/>
<path d="M507.114 467.577C509.23 467.883 510.204 469.238 509.866 471.573L509.247 475.847L502.768 474.91L503.387 470.636C503.724 468.301 505.175 467.297 507.114 467.577ZM494.29 482.5L525.364 486.993L526.613 478.358L515.153 476.701L515.287 475.775L527.64 471.264L529.036 461.616L515.901 466.868C515.16 462.039 511.953 459.326 507.898 458.74C502.345 457.936 497.376 461.176 496.26 468.886L494.29 482.5Z" fill="white"/>
<path d="M523.822 439.343L533.53 441.637L535.548 433.103L525.84 430.808L507.535 415.138L505.27 424.712L515.788 432.87L502.729 435.456L500.434 445.16L523.822 439.343Z" fill="white"/>
<path d="M546.534 396.789L549.44 388.043L516.05 388.967L512.877 398.515L539.067 419.264L541.958 410.561L537.631 407.342L541.14 396.78L546.534 396.789ZM534.113 396.746L531.993 403.125L523.41 396.758L534.113 396.746Z" fill="white"/>
<path d="M531.42 350.097L547.723 357.163L526.796 360.756L523.323 368.761L552.129 381.246L555.601 373.241L539.503 366.264L560.226 362.582L563.698 354.577L534.893 342.092L531.42 350.097Z" fill="white"/>
<path d="M590.587 288.809C592.145 289.843 592.271 291.263 591.064 293.08L588.256 297.308L583.507 294.156L586.291 289.965C587.473 288.185 588.992 287.75 590.587 288.809ZM580.349 282.815C581.87 283.825 581.971 285.282 580.789 287.062L578.35 290.733L573.749 287.68L576.188 284.008C577.371 282.228 578.79 281.781 580.349 282.815ZM596.577 282.044C593.609 280.074 589.719 280.217 586.945 282.865C587.939 279.838 587.093 276.605 583.94 274.512C579.599 271.631 574.982 273.269 571.46 278.572L563.133 291.107L589.29 308.467L597.887 295.524C601.607 289.924 600.992 284.975 596.577 282.044Z" fill="white"/>
<path d="M621.496 264.197L627.254 257.001L595.614 246.298L589.328 254.155L606.698 282.692L612.428 275.53L609.485 271.012L616.44 262.321L621.496 264.197ZM609.86 259.854L605.659 265.103L599.816 256.156L609.86 259.854Z" fill="white"/>
<path d="M613.652 225.467L636.342 247.159L649.117 233.809L644.289 229.193L637.548 236.239L619.686 219.162L613.652 225.467Z" fill="white"/>
<path d="M642.794 196.558L663.477 220.169L677.382 208L672.981 202.976L665.644 209.398L649.361 190.81L642.794 196.558Z" fill="white"/>
<path d="M698.763 191.398L705.813 186.253L687.298 160.906L680.248 166.052L698.763 191.398Z" fill="white"/>
<path d="M761.789 144.266C765.391 142.51 766.847 138.384 765.109 134.823C763.353 131.222 759.184 129.787 755.582 131.542C752.019 133.279 750.583 137.445 752.34 141.047C754.077 144.608 758.226 146.003 761.789 144.266Z" fill="white"/>
<path d="M827.035 126.692L835.432 124.309L832.074 112.49L840.985 109.961L839.173 103.58L830.262 106.109L828.753 100.8L840.834 97.3702L838.936 90.6899L818.458 96.5027L827.035 126.692Z" fill="white"/>
<path d="M886.742 96.6182C884.975 87.3475 876.734 82.1644 867.941 83.8384C859.191 85.5041 853.345 93.369 855.112 102.64C856.878 111.91 865.215 117.12 873.965 115.455C882.714 113.789 888.508 105.889 886.742 96.6182ZM863.861 100.974C862.936 96.12 864.978 92.5592 869.44 91.7097C873.859 90.8685 877.111 93.4216 878.036 98.2755C878.944 103.042 876.867 106.655 872.448 107.496C867.986 108.346 864.769 105.74 863.861 100.974Z" fill="white"/>
<path d="M900.192 97.5792C901.083 106.482 907.207 110.433 914.741 109.68C922.23 108.931 927.981 103.793 927.09 94.8896L925.277 76.7732L916.592 77.6417L918.405 95.7581C918.729 98.9916 917.381 101.184 914.102 101.512C910.823 101.84 909.157 99.9487 908.833 96.7152L907.02 78.5988L898.379 79.4628L900.192 97.5792Z" fill="white"/>
<path d="M955.445 76.0978L955.645 93.8584L943.823 76.228L935.094 76.3258L935.446 107.707L944.174 107.609L943.978 90.0714L955.797 107.479L964.526 107.381L964.174 76L955.445 76.0978Z" fill="white"/>
<path d="M989.203 77.4057L976.815 76.4468L974.391 107.737L986.779 108.695C996.77 109.469 1003.63 103.347 1004.33 94.2933C1005.04 85.1061 999.194 78.1791 989.203 77.4057ZM983.689 100.732L984.933 84.6655L987.953 84.8992C992.97 85.2876 995.899 88.4165 995.497 93.6093C995.098 98.7577 991.725 101.354 986.708 100.966L983.689 100.732Z" fill="white"/>
<path d="M1041.64 84.2053L1021.83 80.8921L1016.65 111.845L1036.46 115.158L1037.61 108.265L1026.41 106.392L1027.34 100.816L1037.23 102.469L1038.32 95.9271L1028.44 94.2742L1029.28 89.2251L1040.49 91.0984L1041.64 84.2053Z" fill="white"/>
<path d="M1076.22 103.161C1075.68 105.229 1074.22 106.047 1071.94 105.453L1067.76 104.367L1069.41 98.0336L1073.59 99.1198C1075.87 99.7133 1076.71 101.265 1076.22 103.161ZM1062.79 88.773L1054.9 119.147L1063.34 121.342L1066.26 110.14L1067.16 110.375L1070.28 123.145L1079.72 125.597L1075.95 111.969C1080.84 111.766 1083.89 108.879 1084.92 104.915C1086.33 99.4866 1083.66 94.1928 1076.11 92.2332L1062.79 88.773Z" fill="white"/>
<path d="M1138.92 140.031C1142.56 141.706 1146.68 140.218 1148.34 136.619C1150.01 132.979 1148.48 128.846 1144.84 127.171C1141.24 125.515 1137.11 127.043 1135.43 130.683C1133.77 134.282 1135.32 138.375 1138.92 140.031Z" fill="white"/>
<path d="M1198.38 163.321C1193.01 171.029 1194.32 179.972 1202.07 185.365C1208.54 189.867 1215.74 189.346 1221.09 184.392L1213.38 179.024C1211.12 180.324 1208.66 180.188 1206.54 178.713C1203.25 176.423 1202.88 172.365 1205.65 168.383C1208.4 164.438 1212.34 163.382 1215.62 165.671C1217.74 167.147 1218.72 169.402 1218.29 171.974L1226 177.341C1228.79 170.606 1226.78 163.674 1220.32 159.172C1212.57 153.779 1203.72 155.65 1198.38 163.321Z" fill="white"/>
<path d="M1251.63 197.181C1250.26 198.82 1248.6 198.936 1246.79 197.422L1243.47 194.651L1247.67 189.632L1250.99 192.403C1252.8 193.918 1252.89 195.679 1251.63 197.181ZM1245.67 178.434L1225.52 202.503L1232.21 208.102L1239.64 199.226L1240.36 199.826L1237.71 212.702L1245.19 218.958L1247.62 205.027C1252.12 206.934 1256.12 205.631 1258.74 202.49C1262.35 198.189 1262.2 192.261 1256.22 187.262L1245.67 178.434Z" fill="white"/>
<path d="M1290.23 219.271L1276.03 205.077L1253.83 227.272L1268.03 241.466L1272.98 236.523L1264.95 228.498L1268.95 224.5L1276.03 231.581L1280.72 226.89L1273.64 219.809L1277.26 216.188L1285.29 224.214L1290.23 219.271Z" fill="white"/>
<path d="M1291.18 267.896L1297.1 274.961L1313.86 246.077L1307.4 238.363L1275.97 249.738L1281.86 256.769L1286.88 254.78L1294.03 263.313L1291.18 267.896ZM1297.75 257.354L1293.43 252.2L1303.36 248.244L1297.75 257.354Z" fill="white"/>
<path d="M1324.41 270.975L1329.15 277.769L1309.09 291.74L1314.08 298.899L1334.14 284.928L1338.93 291.794L1344.63 287.824L1330.11 267.005L1324.41 270.975Z" fill="white"/>
<path d="M1329.67 324.044L1334.01 331.615L1361.25 316.02L1356.92 308.449L1329.67 324.044Z" fill="white"/>
<path d="M1355.72 355.439L1373.33 339.492L1369.42 331.001L1345.45 353.994L1350.12 364.143L1383.17 360.841L1379.27 352.39L1355.72 355.439Z" fill="white"/>
<path d="M1395.3 393.707L1388.54 374.8L1358.98 385.357L1365.73 404.263L1372.32 401.912L1368.5 391.222L1373.82 389.321L1377.19 398.753L1383.44 396.522L1380.07 387.09L1384.9 385.368L1388.72 396.058L1395.3 393.707Z" fill="white"/>
<path d="M1412.22 461.844L1410.17 449.595L1379.2 454.783L1381.26 467.032C1382.91 476.91 1390.51 482.092 1399.47 480.591C1408.56 479.067 1413.88 471.722 1412.22 461.844ZM1388.25 462.115L1404.15 459.451L1404.65 462.436C1405.48 467.398 1403.15 470.993 1398.01 471.854C1392.91 472.708 1389.58 470.061 1388.75 465.1L1388.25 462.115Z" fill="white"/>
<path d="M1418.26 514.351L1416.7 494.335L1385.4 496.767L1386.95 516.783L1393.92 516.242L1393.04 504.924L1398.68 504.486L1399.46 514.472L1406.08 513.958L1405.3 503.972L1410.41 503.576L1411.29 514.893L1418.26 514.351Z" fill="white"/>
<path d="M1396.15 544.79L1418.9 537.916L1419 528.568L1387.49 539.086L1387.36 550.259L1418.64 561.418L1418.74 552.115L1396.15 544.79Z" fill="white"/>
<path d="M1415.53 596.311L1417.52 576.334L1386.28 573.219L1384.28 593.196L1391.24 593.89L1392.37 582.595L1398 583.156L1397 593.122L1403.61 593.781L1404.6 583.814L1409.7 584.322L1408.57 595.618L1415.53 596.311Z" fill="white"/>
<path d="M1412.26 618.305L1381.41 612.443L1377.96 630.591L1384.52 631.839L1386.35 622.261L1410.63 626.877L1412.26 618.305Z" fill="white"/>
<path d="M1381.85 677.756C1390.93 680.331 1399.26 675.289 1401.7 666.681C1404.13 658.116 1399.72 649.368 1390.63 646.793C1381.55 644.217 1373.16 649.333 1370.72 657.898C1368.29 666.463 1372.76 675.181 1381.85 677.756ZM1388.2 655.358C1392.96 656.707 1395.23 660.127 1393.99 664.495C1392.76 668.82 1389.02 670.582 1384.27 669.234C1379.6 667.91 1377.29 664.435 1378.52 660.109C1379.76 655.741 1383.53 654.034 1388.2 655.358Z" fill="white"/>
<path d="M1375.27 700.76L1381.64 703.191L1380.4 706.435C1379.46 708.888 1377.83 709.41 1375.87 708.663C1373.96 707.932 1373.09 706.458 1374.03 704.004L1375.27 700.76ZM1372.69 716.98C1378.35 719.14 1383.89 717.012 1386.67 709.735L1391.32 697.55L1361.99 686.351L1358.88 694.502L1368.78 698.282L1367.24 702.316C1364.39 709.76 1367.58 715.026 1372.69 716.98Z" fill="white"/>
<path d="M1367.42 752.443L1376.22 734.395L1347.99 720.648L1339.19 738.696L1345.48 741.758L1350.45 731.553L1355.54 734.029L1351.15 743.034L1357.11 745.939L1361.5 736.935L1366.11 739.177L1361.13 749.382L1367.42 752.443Z" fill="white"/>
<path d="M1339.43 780.208C1337.59 779.106 1337.22 777.48 1338.44 775.458L1340.67 771.759L1346.28 775.134L1344.05 778.833C1342.83 780.855 1341.1 781.219 1339.43 780.208ZM1357.04 771.424L1330.14 755.238L1325.63 762.713L1335.56 768.682L1335.07 769.483L1321.94 768.853L1316.91 777.205L1331.05 777.455C1329.86 782.194 1331.76 785.938 1335.27 788.05C1340.08 790.943 1345.92 789.883 1349.94 783.209L1357.04 771.424Z" fill="white"/>
<path d="M1286.27 829.853C1283.63 832.868 1283.89 837.235 1286.87 839.844C1289.89 842.483 1294.29 842.19 1296.93 839.175C1299.54 836.193 1299.24 831.796 1296.23 829.158C1293.24 826.549 1288.88 826.871 1286.27 829.853Z" fill="white"/>
<path d="M1236.66 908.566L1252.34 896.021L1232.72 871.518L1217.04 884.063L1221.41 889.52L1230.28 882.427L1233.81 886.841L1225.99 893.099L1230.13 898.278L1237.96 892.019L1241.16 896.016L1232.29 903.109L1236.66 908.566Z" fill="white"/>
<path d="M1212.82 925.475L1223.17 918.601L1205.8 892.462L1195.45 899.335C1187.1 904.877 1185.47 913.925 1190.5 921.489C1195.6 929.164 1204.48 931.017 1212.82 925.475ZM1202.79 903.704L1211.71 917.127L1209.19 918.802C1205 921.585 1200.76 920.924 1197.88 916.586C1195.02 912.285 1196.08 908.163 1200.27 905.38L1202.79 903.704Z" fill="white"/>
<path d="M1162.48 919.319L1154.82 923.486L1169.81 951.059L1177.48 946.892L1162.48 919.319Z" fill="white"/>
<path d="M1145.5 955.285L1137.9 958.581L1128.17 936.163L1120.16 939.636L1129.89 962.055L1122.21 965.387L1124.98 971.757L1148.27 961.656L1145.5 955.285Z" fill="white"/>
<path d="M1108.03 970.505L1100.17 973.116L1092.46 949.925L1084.17 952.678L1091.89 975.869L1083.94 978.509L1086.13 985.099L1110.22 977.094L1108.03 970.505Z" fill="white"/>
<path d="M1051.93 982.775C1051.43 980.695 1052.34 979.292 1054.63 978.749L1058.84 977.754L1060.34 984.122L1056.14 985.117C1053.84 985.66 1052.38 984.681 1051.93 982.775ZM1070.52 989.216L1063.29 958.677L1054.79 960.687L1057.46 971.949L1056.55 972.165L1047.82 962.338L1038.33 964.583L1048.04 974.865C1043.82 977.328 1042.47 981.306 1043.41 985.292C1044.71 990.75 1049.55 994.179 1057.13 992.385L1070.52 989.216Z" fill="white"/>
<path d="M1009.72 968.955L1000.6 970.277L1016.39 999.701L1026.35 998.258L1033.17 965.558L1024.09 966.873L1023.15 972.182L1012.13 973.779L1009.72 968.955ZM1015.25 980.074L1021.91 979.11L1020.06 989.633L1015.25 980.074Z" fill="white"/>
<path d="M973.141 972.039L962.87 972.609L974.45 987.571L965.277 1003.91L975.193 1003.36L979.783 994.453L986.176 1002.75L996.448 1002.18L985.06 987.473L994.352 970.862L984.436 971.413L979.725 980.546L973.141 972.039Z" fill="white"/>
<path d="M933.681 1003.33L934.268 985.576L945.298 1003.71L954.022 1004L955.06 972.634L946.336 972.345L945.756 989.875L934.718 971.962L925.994 971.673L924.957 1003.04L933.681 1003.33Z" fill="white"/>
<path d="M912.291 970.41L903.626 969.353L902.136 981.548L892.941 980.426L892.137 987.01L901.332 988.132L900.662 993.611L888.196 992.089L887.354 998.983L908.484 1001.56L912.291 970.41Z" fill="white"/>
<path d="M868.822 988.769L860.721 987.042L865.819 963.14L857.282 961.321L852.184 985.223L843.995 983.478L842.547 990.27L867.374 995.56L868.822 988.769Z" fill="white"/>
<path d="M782.788 936.6C775.695 933.71 769.429 938.224 766.538 945.314C762.924 954.177 766.87 962.899 776.851 966.965C789.924 972.291 803.637 966.966 808.932 953.981C812.714 944.706 808.842 936.158 799.109 932.193C795.727 930.815 792.258 930.123 789.049 930.209L788.284 935.859C790.716 935.792 793.533 936.314 796.337 937.457C803.059 940.196 805.364 945.749 802.758 952.139C799.06 961.208 789.098 965.706 779.778 961.909C772.85 959.086 770.206 953.539 772.66 947.52C774.207 943.728 776.9 940.306 779.498 941.365C780.942 941.953 780.694 943.15 779.7 944.764L774.042 953.803L780.393 956.391L781.747 954.25C781.768 956.086 782.89 957.697 785.241 958.654C790.726 960.889 796.756 956.952 799.176 951.016C800.908 946.77 799.483 943.305 795.441 941.659C792.554 940.483 789.634 940.687 787.316 942.242C787.332 939.845 785.799 937.826 782.788 936.6ZM785.238 948.991C786.196 946.641 788.626 945.516 790.482 946.272C791.926 946.86 792.347 948.186 791.725 949.711C790.767 952.061 788.451 953.376 786.472 952.57C785.028 951.982 784.599 950.557 785.238 948.991Z" fill="white"/>
<path d="M706.203 931.947C714.333 937.087 723.163 934.874 728.163 926.974C733.186 919.036 731.365 910.089 723.236 904.949C716.311 900.57 709.494 902.265 705.461 905.14L700.938 912.288L714.713 920.998L718.07 915.694L710.655 911.006C713.199 909.401 715.843 909.387 718.402 911.005C722.768 913.766 723.554 917.686 720.673 922.238C718.102 926.301 714.201 927.469 710.475 925.114C708.443 923.828 707.437 922.087 707.49 920.171L699.548 915.15C697.103 921.346 699.504 927.711 706.203 931.947Z" fill="white"/>
<path d="M704.171 892.737L697.235 887.44L686.635 901.305L692.493 883.818L686.69 879.385L671.465 889.549L681.984 875.79L675.048 870.492L655.984 895.429L664.335 901.807L682.842 890.284L676.72 911.268L685.107 917.673L704.171 892.737Z" fill="white"/>
<path d="M657.451 854.116L650.649 847.896L637.867 878.743L645.292 885.534L674.931 870.102L668.162 863.912L663.456 866.547L655.242 859.035L657.451 854.116ZM652.343 865.434L657.304 869.971L647.986 875.206L652.343 865.434Z" fill="white"/>
<path d="M636.518 832.82L630.624 826.384L607.466 847.576L613.36 854.011L636.518 832.82Z" fill="white"/>
<path d="M591.343 828.389L616.284 809.326L605.058 794.651L599.751 798.706L605.676 806.451L586.041 821.458L591.343 828.389Z" fill="white"/>
<path d="M581.345 766.449C579.2 767.806 578.579 770.57 580.222 773.166C581.889 775.799 584.655 776.42 586.799 775.063C588.944 773.706 589.528 770.965 587.861 768.333C586.217 765.737 583.49 765.092 581.345 766.449Z" fill="white"/>
<path d="M563.319 758.98C571.672 754.677 574.696 746.159 570.371 737.77C566.76 730.766 560.152 727.86 553.104 729.738L557.408 738.087C560.016 737.996 562.123 739.264 563.306 741.559C565.142 745.121 563.575 748.883 559.26 751.105C554.984 753.308 551.009 752.4 549.173 748.839C547.99 746.544 548.179 744.093 549.768 742.023L545.463 733.673C539.843 738.321 538.376 745.386 541.986 752.39C546.311 760.779 555.006 763.262 563.319 758.98Z" fill="white"/>
<path d="M533.529 694.356C524.787 697.921 521.334 707.021 524.715 715.306C528.079 723.55 536.949 727.722 545.691 724.157C554.433 720.593 557.893 711.393 554.529 703.15C551.165 694.906 542.271 690.792 533.529 694.356ZM542.326 715.914C537.749 717.78 533.853 716.484 532.138 712.279C530.439 708.116 532.299 704.425 536.876 702.559C541.371 700.726 545.325 702.047 547.024 706.21C548.74 710.414 546.821 714.081 542.326 715.914Z" fill="white"/>
<path d="M545.829 681.717L543.26 673.379L526.576 678.516L541.503 667.678L539.353 660.701L521.053 660.141L537.609 655.043L535.039 646.705L505.034 655.944L508.128 665.984L529.889 667.341L512.716 680.874L515.824 690.956L545.829 681.717Z" fill="white"/>
<path d="M517.674 593.464C517.187 589.488 513.758 586.768 509.824 587.249C505.845 587.736 503.13 591.208 503.617 595.185C504.099 599.117 507.572 601.832 511.55 601.345C515.484 600.863 518.156 597.397 517.674 593.464Z" fill="white"/>
</g>
<rect y="340" width="1920" height="740" fill="url(#paint1_linear_533_5264)"/>
</g>
<defs>
<linearGradient id="paint0_linear_533_5264" x1="102.667" y1="-32.4" x2="1775.52" y2="1386.53" gradientUnits="userSpaceOnUse">
<stop stop-color="#3C0E6D"/>
<stop offset="0.578125" stop-color="#C62C85"/>
<stop offset="0.817708" stop-color="#F29565"/>
</linearGradient>
<linearGradient id="paint1_linear_533_5264" x1="960" y1="555.344" x2="960" y2="1080" gradientUnits="userSpaceOnUse">
<stop stop-opacity="0"/>
<stop offset="0.0001" stop-opacity="0"/>
<stop offset="1"/>
</linearGradient>
<clipPath id="clip0_533_5264">
<rect width="1920" height="1080" fill="white"/>
</clipPath>
</defs>
</svg>
