<svg width="653" height="120" viewBox="0 0 653 120" fill="none" xmlns="http://www.w3.org/2000/svg">
<path d="M76.4639 19.296C76.4639 17.528 75.6319 15.968 74.2799 14.928C73.0319 13.784 69.9119 11.288 41.6239 15.864L43.0799 11.184C43.8079 8.584 42.3519 5.88 39.7519 5.15199C37.2559 4.32 34.4479 5.776 33.7199 8.376L30.9119 17.736C24.6719 18.88 17.4959 20.232 9.1759 22C6.5759 22.52 4.9119 25.12 5.4319 27.72C5.9519 30.424 8.5519 32.088 11.2559 31.568C16.5599 30.424 22.1759 29.28 27.6879 28.344L15.3119 69.424C11.5679 69.424 8.2399 69.424 5.5359 69.216C2.8319 69.008 0.543904 71.088 0.335904 73.792C0.231904 76.496 2.2079 78.784 4.9119 78.992C5.9519 78.992 8.8639 79.096 12.9199 79.096C26.3359 79.096 51.8159 78.16 57.7439 72.648C59.1999 71.4 59.9279 69.736 59.9279 67.968C59.9279 62.248 47.1359 55.28 36.7359 50.912C40.5839 48.624 45.5759 45.4 52.2319 40.928C76.4639 24.6 76.4639 21.688 76.4639 19.296ZM46.7199 66.824C41.7279 67.864 33.7199 68.696 25.7119 69.112L28.9359 58.192C34.2399 60.272 41.9359 64.016 46.7199 66.824ZM34.0319 41.136L38.5039 26.368C46.9279 24.912 54.6239 23.872 60.2399 23.248C53.1679 28.552 42.3519 36.04 34.0319 41.136ZM91.9152 47.584C92.6432 50.184 95.2432 51.64 97.9472 50.912C100.547 50.184 102.003 47.48 101.275 44.88C98.3632 34.168 94.9312 32.712 92.2272 32.608C83.9072 32.192 64.6672 47.064 61.1312 50.808C60.5072 51.432 58.8432 53.304 59.1552 55.8C59.6752 59.856 62.5872 60.688 76.3152 65.056C76.7312 65.16 77.1472 65.264 77.6672 65.472C77.0432 65.784 76.5232 66.096 76.0032 66.304C58.4272 75.976 54.6832 78.368 54.6832 82.632C54.6832 84.088 55.3072 85.544 56.4512 86.584C57.4912 87.624 59.3632 89.392 75.4832 89.392C80.1632 89.392 86.0912 89.184 93.5792 88.872C96.2832 88.664 98.3632 86.376 98.2592 83.776C98.1552 81.072 95.7632 78.888 93.1632 79.096C86.1952 79.408 78.4992 79.616 72.4672 79.512C75.3792 77.848 78.3952 76.184 80.6832 74.936C92.7472 68.28 94.2032 67.448 93.5792 63.496C92.9552 59.96 91.1872 59.44 79.2272 55.696C77.3552 55.072 74.9632 54.344 72.7792 53.616C77.9792 49.56 85.9872 44.256 90.1472 42.8C90.7712 44.048 91.3952 45.92 91.9152 47.584ZM233.817 2.75999C208.337 0.783995 140.737 8.792 137.825 9.104C135.225 9.41599 133.249 11.808 133.561 14.512C133.873 17.008 135.953 18.88 138.449 18.88C138.657 18.88 138.865 18.776 138.969 18.776C139.281 18.776 149.993 17.528 164.449 16.072L145.105 72.752C144.273 75.352 145.625 78.056 148.121 78.992C148.641 79.2 149.161 79.2 149.681 79.2C151.761 79.2 153.633 77.952 154.361 75.976L175.161 15.032C195.961 13.16 220.401 11.496 232.985 12.536C235.689 12.64 238.081 10.664 238.289 8.06399C238.497 5.36 236.417 2.968 233.817 2.75999ZM204.672 32.712C199.68 31.464 190.632 39.888 181.896 50.288C182.312 48.936 182.728 47.688 183.248 46.336L196.976 7.128C197.912 4.63199 196.56 1.82399 193.96 0.887994C191.464 0.0559981 188.656 1.30399 187.72 3.904C177.944 31.88 163.488 73.064 160.68 80.864C160.576 81.28 160.368 81.592 160.264 81.904C158.6 87 163.176 88.56 163.176 88.56C163.904 88.872 164.528 88.976 165.048 88.976C167.232 88.976 168.48 87.312 169.416 85.336L169.624 85.024C169.624 84.816 169.624 84.712 169.728 84.608C169.832 84.4 169.936 84.192 169.936 83.88C173.576 75.56 188.656 56.528 197.808 47.272C195.312 62.04 191.984 82.632 191.984 82.944C191.568 85.544 193.336 88.04 196.04 88.56C198.64 88.976 201.24 87.104 201.656 84.504C201.656 84.192 206.44 54.24 208.832 40.928C210.08 34.376 205.192 32.92 204.672 32.712ZM242.033 47.584C242.761 50.184 245.361 51.64 248.065 50.912C250.665 50.184 252.121 47.48 251.393 44.88C248.481 34.168 245.049 32.712 242.345 32.608C234.025 32.192 214.785 47.064 211.249 50.808C210.625 51.432 208.961 53.304 209.273 55.8C209.793 59.856 212.705 60.688 226.433 65.056C226.849 65.16 227.265 65.264 227.785 65.472C227.161 65.784 226.641 66.096 226.121 66.304C208.545 75.976 204.801 78.368 204.801 82.632C204.801 84.088 205.425 85.544 206.569 86.584C207.609 87.624 209.481 89.392 225.601 89.392C230.281 89.392 236.209 89.184 243.697 88.872C246.401 88.664 248.481 86.376 248.377 83.776C248.273 81.072 245.881 78.888 243.281 79.096C236.313 79.408 228.617 79.616 222.585 79.512C225.497 77.848 228.513 76.184 230.801 74.936C242.865 68.28 244.321 67.448 243.697 63.496C243.073 59.96 241.305 59.44 229.345 55.696C227.473 55.072 225.081 54.344 222.897 53.616C228.097 49.56 236.105 44.256 240.265 42.8C240.889 44.048 241.513 45.92 242.033 47.584ZM342.126 23.248C319.35 12.224 292.83 20.96 291.79 21.376C289.19 22.208 287.838 25.016 288.67 27.512C289.502 30.112 292.31 31.464 294.91 30.632C295.014 30.632 298.03 29.592 302.606 28.76L282.014 81.28C281.078 83.776 282.326 86.584 284.822 87.624C285.446 87.832 285.966 87.936 286.59 87.936C288.566 87.936 290.438 86.792 291.166 84.816L297.302 69.112C314.254 62.144 348.678 46.336 349.094 33.024C349.198 30.632 348.366 26.264 342.126 23.248ZM302.398 56.216L313.526 27.824C313.526 27.72 313.63 27.616 313.63 27.616C321.118 27.304 329.958 28.24 337.966 32.088C338.694 32.504 339.11 32.816 339.214 32.92C338.174 37.288 322.158 47.272 302.398 56.216ZM361.413 16.696C358.813 15.968 356.109 17.528 355.381 20.128L337.389 87.104C336.661 89.704 338.221 92.408 340.821 93.136C341.237 93.24 341.653 93.24 342.069 93.24C344.253 93.24 346.229 91.784 346.853 89.6L364.845 22.624C365.573 20.024 364.013 17.424 361.413 16.696ZM401.769 35.52C399.169 34.688 396.465 36.04 395.529 38.64L393.553 44.672C391.993 38.016 389.705 31.464 386.273 28.864C384.713 27.72 382.841 27.2 380.969 27.512C372.649 28.76 356.113 66.824 353.929 75.456C353.201 78.056 351.641 84.088 355.697 87.104C356.425 87.728 357.673 88.664 359.961 88.664C364.017 88.664 371.297 85.44 384.609 70.88L380.761 82.216C379.825 84.712 381.177 87.52 383.777 88.352C384.297 88.56 384.817 88.664 385.337 88.664C387.417 88.664 389.289 87.416 390.017 85.336L404.785 41.76C405.721 39.264 404.369 36.456 401.769 35.52ZM363.497 77.12C366.201 67.656 376.289 47.168 381.801 39.368C383.049 42.8 384.505 48.728 385.441 54.864C377.433 64.64 368.593 73.48 363.497 77.12ZM445.225 40.72C439.089 39.888 433.161 39.576 427.961 39.368L429.833 32.296C430.561 29.696 429.001 26.992 426.401 26.264C423.697 25.64 421.097 27.2 420.369 29.8L417.873 39.368C412.153 39.368 408.409 39.68 408.097 39.68C405.393 39.992 403.417 42.28 403.625 44.984C403.833 47.688 406.225 49.664 408.929 49.456C408.929 49.456 411.321 49.248 415.169 49.144L406.329 82.528C405.705 85.128 407.161 87.832 409.865 88.456C410.281 88.664 410.697 88.664 411.113 88.664C413.193 88.664 415.169 87.208 415.793 85.024L425.361 49.144C430.873 49.248 437.321 49.56 443.977 50.392C444.185 50.392 444.393 50.392 444.601 50.392C447.097 50.392 449.177 48.624 449.489 46.128C449.801 43.424 447.929 41.032 445.225 40.72ZM503.307 57.776C496.339 56.944 488.643 57.776 481.155 59.336C483.651 51.64 485.939 44.984 487.603 40.928C492.075 40.2 496.963 39.888 502.579 40.096C505.283 40.2 507.571 38.12 507.675 35.416C507.675 32.712 505.595 30.424 502.891 30.32C475.955 29.28 461.083 39.576 454.739 44.048L454.011 44.568C451.827 46.024 451.307 49.144 452.763 51.328C453.803 52.68 455.259 53.408 456.819 53.408C457.755 53.408 458.795 53.2 459.627 52.576L460.355 52.056C463.579 49.872 468.571 46.336 476.163 43.736C474.291 48.936 472.107 55.384 469.923 62.248C456.715 66.2 446.315 71.296 445.587 71.712C443.195 72.856 442.155 75.768 443.299 78.264C444.235 79.928 445.899 80.968 447.771 80.968C448.499 80.968 449.227 80.76 449.851 80.448C450.059 80.344 456.923 77.016 466.387 73.792C460.355 93.032 454.843 112.064 454.427 113.52C453.699 116.12 455.155 118.824 457.755 119.552C458.275 119.76 458.691 119.76 459.107 119.76C461.291 119.76 463.163 118.408 463.787 116.224C463.891 115.912 470.963 91.784 477.723 70.256C485.939 68.072 494.675 66.616 502.267 67.448C504.867 67.76 507.363 65.784 507.571 63.08C507.883 60.376 505.907 57.984 503.307 57.776ZM546.857 35.208C542.593 32.192 536.769 31.776 530.841 34.064C525.641 36.248 520.649 40.304 516.801 45.608C512.953 50.912 510.665 56.944 510.353 62.56C509.937 68.904 512.121 74.312 516.281 77.328C518.777 79.096 521.689 79.928 524.809 79.928C527.201 79.928 529.697 79.512 532.297 78.472C537.497 76.392 542.489 72.232 546.337 66.928C554.865 55.176 555.073 41.24 546.857 35.208ZM538.433 61.208C535.729 65.056 532.089 67.968 528.657 69.424C525.953 70.464 523.561 70.464 522.105 69.424C520.649 68.384 519.921 66.096 520.025 63.184C520.337 59.44 522.001 55.072 524.705 51.328C527.513 47.584 531.049 44.568 534.481 43.216C535.937 42.592 537.185 42.384 538.329 42.384C539.473 42.384 540.409 42.592 541.137 43.112C544.361 45.504 543.841 53.72 538.433 61.208ZM538.433 84.608C530.113 82.424 507.753 82.736 505.257 82.84C502.553 82.84 500.369 85.024 500.369 87.728C500.473 90.432 502.761 92.72 505.361 92.616C511.809 92.512 530.009 92.512 535.937 94.072C536.353 94.176 536.769 94.28 537.185 94.28C539.369 94.28 541.345 92.824 541.969 90.536C542.593 87.936 541.033 85.232 538.433 84.608ZM571.726 71.088C572.246 71.192 572.766 71.4 573.286 71.4C573.39 71.4 573.494 71.4 573.598 71.4C575.678 71.4 577.55 70.568 579.006 69.216C590.758 57.464 598.766 31.568 594.398 25.536C593.566 24.288 591.902 23.456 590.446 23.352C588.678 23.144 586.078 23.04 571.83 36.976L573.39 31.672C574.118 29.072 572.662 26.368 570.166 25.64C567.566 24.808 564.758 26.264 564.03 28.864L557.062 52.264C556.646 52.888 556.438 53.616 556.438 54.344L545.83 89.496C545.102 92.096 546.558 94.8 549.158 95.528C549.574 95.736 550.094 95.736 550.51 95.736C552.694 95.736 554.566 94.384 555.19 92.304L560.91 73.48L572.454 87C573.39 88.04 574.742 88.664 576.198 88.664C577.342 88.664 578.382 88.248 579.318 87.52C581.398 85.752 581.606 82.632 579.838 80.552L571.726 71.088ZM584.518 38.432C582.646 45.4 578.902 54.864 572.974 61.312C571.518 60.584 568.918 58.504 566.63 56.112C572.766 49.768 579.526 43.112 584.518 38.432ZM649.142 45.92L647.582 44.256H645.294C641.654 44.256 640.406 45.816 629.07 65.264C628.55 66.2 628.03 67.24 627.406 68.176C627.406 66.72 627.406 65.16 627.51 63.808C627.822 40.928 627.614 37.704 625.326 35.416L623.662 33.856H621.686C619.398 33.856 617.63 33.856 605.774 51.328L609.102 38.64C609.83 36.04 608.27 33.44 605.67 32.712C602.966 31.984 600.366 33.544 599.638 36.248L587.574 82.528C586.846 85.128 588.406 87.832 591.006 88.56C591.422 88.664 591.838 88.664 592.254 88.664C594.438 88.664 596.414 87.208 597.038 85.024L597.974 81.28C604.942 70.36 612.534 58.816 617.838 51.224C617.838 55.28 617.734 59.856 617.734 63.6C617.318 83.36 617.526 85.128 619.502 87.208L621.062 88.664H623.142C626.782 88.664 627.822 86.896 637.494 70.152C638.326 68.8 639.262 67.24 640.198 65.576C639.47 74.312 638.222 85.336 636.974 95.736C636.662 98.44 638.534 100.832 641.238 101.144C641.446 101.248 641.654 101.248 641.862 101.248C644.254 101.248 646.438 99.376 646.646 96.88C652.47 49.664 650.806 47.792 649.142 45.92Z" fill="white"/>
</svg>
