<svg width="726" height="61" viewBox="0 0 726 61" fill="none" xmlns="http://www.w3.org/2000/svg">
<path d="M47.51 14.336C47.51 13.248 46.998 12.288 46.166 11.648C45.398 10.944 43.478 9.408 26.07 12.224L26.966 9.344C27.414 7.744 26.518 6.08 24.918 5.632C23.382 5.12 21.654 6.016 21.206 7.616L19.478 13.376C15.638 14.08 11.222 14.912 6.10199 16C4.50199 16.32 3.47799 17.92 3.79799 19.52C4.11799 21.184 5.71799 22.208 7.38199 21.888C10.646 21.184 14.102 20.48 17.494 19.904L9.87799 45.184C7.57399 45.184 5.52599 45.184 3.86199 45.056C2.19799 44.928 0.789985 46.208 0.661985 47.872C0.597985 49.536 1.81399 50.944 3.47799 51.072C4.11799 51.072 5.90999 51.136 8.40599 51.136C16.662 51.136 32.342 50.56 35.99 47.168C36.886 46.4 37.334 45.376 37.334 44.288C37.334 40.768 29.462 36.48 23.062 33.792C25.43 32.384 28.502 30.4 32.598 27.648C47.51 17.6 47.51 15.808 47.51 14.336ZM29.206 43.584C26.134 44.224 21.206 44.736 16.278 44.992L18.262 38.272C21.526 39.552 26.262 41.856 29.206 43.584ZM21.398 27.776L24.15 18.688C29.334 17.792 34.07 17.152 37.526 16.768C33.174 20.032 26.518 24.64 21.398 27.776ZM76.0665 44.608C68.4505 44.992 59.7465 45.184 54.0505 44.992C57.2505 43.328 61.2185 41.472 63.3945 40.384C70.1145 37.184 70.6905 36.928 70.6905 34.88C70.6905 32.896 69.9865 32.512 64.6745 29.44C62.6905 28.352 59.2345 26.368 56.9305 24.832C60.8345 23.104 68.0025 20.672 71.2025 19.712C72.0345 21.056 73.2505 23.552 74.2105 25.92C74.8505 27.456 76.6425 28.224 78.1785 27.584C79.7145 26.944 80.4185 25.216 79.7785 23.616C75.5545 13.376 73.6345 13.376 72.0985 13.376C70.5625 13.376 60.9625 16.832 60.8345 16.832C50.4025 20.608 49.1865 22.08 49.0585 24.256C48.8665 27.072 51.4265 28.8 61.5385 34.624C61.3465 34.752 61.0905 34.88 60.8345 34.944C46.1145 41.984 43.3625 43.84 43.3625 46.784C43.3625 47.68 43.7465 48.576 44.4505 49.216C45.0905 49.856 46.4345 51.136 59.0425 51.136C63.3945 51.136 69.0265 51.008 76.3865 50.624C78.0505 50.496 79.3305 49.088 79.2665 47.424C79.2025 45.76 77.7305 44.48 76.0665 44.608ZM161.967 4.16C146.287 2.944 104.687 7.872 102.895 8.064C101.295 8.256 100.079 9.728 100.271 11.392C100.463 12.928 101.743 14.08 103.279 14.08C103.407 14.08 103.535 14.016 103.599 14.016C103.791 14.016 110.383 13.248 119.279 12.352L107.375 47.232C106.863 48.832 107.695 50.496 109.231 51.072C109.551 51.2 109.871 51.2 110.191 51.2C111.471 51.2 112.623 50.432 113.071 49.216L125.871 11.712C138.671 10.56 153.711 9.536 161.455 10.176C163.119 10.24 164.591 9.024 164.719 7.424C164.847 5.76 163.567 4.288 161.967 4.16ZM141.467 15.808C139.867 15.488 138.331 16.64 138.011 18.24L135.963 30.784L128.859 31.744L132.699 19.648C133.211 18.112 132.379 16.384 130.779 15.872C129.179 15.36 127.515 16.256 127.003 17.856L117.531 47.488C117.019 49.088 117.915 50.752 119.451 51.264C119.771 51.392 120.091 51.392 120.411 51.392C121.691 51.392 122.843 50.624 123.227 49.344L126.811 38.144L134.939 36.992L131.739 56.448C131.483 58.048 132.571 59.584 134.235 59.904C134.427 59.904 134.555 59.904 134.747 59.904C136.155 59.904 137.435 58.88 137.691 57.408L143.963 19.264C144.219 17.6 143.131 16.064 141.467 15.808ZM173.634 44.608C166.018 44.992 157.314 45.184 151.618 44.992C154.818 43.328 158.786 41.472 160.962 40.384C167.682 37.184 168.258 36.928 168.258 34.88C168.258 32.896 167.554 32.512 162.242 29.44C160.258 28.352 156.802 26.368 154.498 24.832C158.402 23.104 165.57 20.672 168.77 19.712C169.602 21.056 170.818 23.552 171.778 25.92C172.418 27.456 174.21 28.224 175.746 27.584C177.282 26.944 177.986 25.216 177.346 23.616C173.122 13.376 171.202 13.376 169.666 13.376C168.13 13.376 158.53 16.832 158.402 16.832C147.97 20.608 146.754 22.08 146.626 24.256C146.434 27.072 148.994 28.8 159.106 34.624C158.914 34.752 158.658 34.88 158.402 34.944C143.682 41.984 140.93 43.84 140.93 46.784C140.93 47.68 141.314 48.576 142.018 49.216C142.658 49.856 144.002 51.136 156.61 51.136C160.962 51.136 166.594 51.008 173.954 50.624C175.618 50.496 176.898 49.088 176.834 47.424C176.77 45.76 175.298 44.48 173.634 44.608ZM236.751 19.264C235.023 12.672 224.527 11.072 202.895 14.08C201.231 14.336 200.079 15.872 200.271 17.472C200.527 19.136 202.063 20.288 203.727 20.096C206.031 19.712 208.143 19.456 210.063 19.264C198.543 47.424 199.823 48.704 201.231 50.176C201.871 50.816 202.703 51.136 203.535 51.136C203.919 51.136 204.367 51.072 204.751 50.88C205.135 50.752 240.015 31.36 236.751 19.264ZM207.759 42.176C209.743 36.416 213.327 27.264 216.847 18.752C229.967 18.112 230.927 20.8 230.927 20.8C232.143 24.768 216.783 36.352 207.759 42.176ZM261.588 17.024C253.908 12.224 243.22 15.552 237.716 24.32C232.212 33.152 234.004 44.224 241.684 49.024C244.052 50.496 246.74 51.2 249.492 51.2C255.508 51.2 261.78 47.744 265.556 41.728C271.06 32.896 269.268 21.824 261.588 17.024ZM260.436 38.528C256.724 44.544 249.684 46.912 244.82 43.904C239.956 40.896 239.06 33.536 242.836 27.52C245.46 23.296 249.748 20.864 253.716 20.864C255.38 20.864 256.98 21.248 258.388 22.144C263.252 25.152 264.148 32.512 260.436 38.528ZM253.588 24.768C251.988 24.192 250.26 25.024 249.748 26.56L246.228 36.416C245.652 37.952 246.484 39.68 248.084 40.256C248.404 40.384 248.724 40.448 249.044 40.448C250.324 40.448 251.476 39.68 251.924 38.4L255.38 28.608C255.956 27.008 255.124 25.28 253.588 24.768ZM249.044 12.032H261.012C262.676 12.032 264.02 10.688 264.02 9.024C264.02 7.36 262.676 6.016 261.012 6.016H249.044C247.38 6.016 246.036 7.36 246.036 9.024C246.036 10.688 247.38 12.032 249.044 12.032ZM306.183 12.544C304.583 12.16 302.919 13.12 302.535 14.72C302.471 14.912 299.399 27.648 296.647 37.376C296.199 31.616 295.943 24.448 295.943 19.392C295.943 15.936 294.215 15.04 293.127 14.784C289.543 13.888 287.239 17.6 278.087 35.328C277.255 36.864 276.487 38.4 275.783 39.808C275.847 33.6 276.615 24.128 277.575 15.808C277.767 14.144 276.551 12.672 274.887 12.48C273.223 12.288 271.751 13.44 271.559 15.104C267.719 49.216 270.727 50.24 272.967 50.944C274.311 51.392 276.359 51.264 278.151 48.064C279.623 45.44 281.479 41.856 283.399 38.08C285.255 34.496 287.815 29.568 289.991 25.728C290.439 50.944 293.447 51.52 295.175 51.84C295.367 51.84 295.559 51.84 295.751 51.84C296.839 51.84 298.439 51.392 299.463 48.704C302.151 41.408 308.103 17.216 308.359 16.192C308.807 14.528 307.783 12.928 306.183 12.544ZM335.99 13.632C335.99 11.968 334.646 10.688 332.982 10.688H332.918C331.254 10.688 329.974 12.032 329.974 13.696C329.974 13.888 330.102 28.928 330.102 40.512C328.502 35.712 326.39 28.8 323.51 18.624C323.062 17.216 321.782 12.864 318.07 12.928C316.086 12.992 310.838 13.184 303.67 47.424C303.35 49.088 304.374 50.688 306.038 51.008C307.638 51.328 309.238 50.304 309.558 48.704C311.862 37.824 315.318 25.408 317.814 20.608C327.03 53.184 329.398 56.128 331.894 56.128C332.214 56.128 332.47 56.128 332.726 56.064C334.774 55.808 335.862 54.208 335.926 51.264C336.31 42.24 335.99 14.784 335.99 13.632ZM359.156 44.48C358.772 42.88 357.172 41.856 355.572 42.24C351.412 43.136 346.612 44.16 343.604 44.736C344.884 39.68 348.468 29.248 351.86 20.288C352.5 18.752 351.732 16.96 350.132 16.384C348.596 15.808 346.868 16.576 346.292 18.112C335.668 45.888 336.884 48.192 337.524 49.408C337.972 50.24 338.804 50.816 339.7 51.072C339.828 51.072 340.084 51.136 340.532 51.136C341.876 51.136 345.46 50.688 356.916 48.064C358.516 47.744 359.54 46.08 359.156 44.48ZM386.218 17.024C378.538 12.224 367.85 15.552 362.346 24.32C356.842 33.152 358.634 44.224 366.314 49.024C368.682 50.496 371.37 51.2 374.122 51.2C380.138 51.2 386.41 47.744 390.186 41.728C395.69 32.896 393.898 21.824 386.218 17.024ZM385.066 38.528C381.354 44.544 374.314 46.912 369.45 43.904C364.586 40.896 363.69 33.536 367.466 27.52C370.09 23.296 374.378 20.864 378.346 20.864C380.01 20.864 381.61 21.248 383.018 22.144C387.882 25.152 388.778 32.512 385.066 38.528ZM378.218 24.768C376.618 24.192 374.89 25.024 374.378 26.56L370.858 36.416C370.282 37.952 371.114 39.68 372.714 40.256C373.034 40.384 373.354 40.448 373.674 40.448C374.954 40.448 376.106 39.68 376.554 38.4L380.01 28.608C380.586 27.008 379.754 25.28 378.218 24.768ZM373.674 12.032H385.642C387.306 12.032 388.65 10.688 388.65 9.024C388.65 7.36 387.306 6.016 385.642 6.016H373.674C372.01 6.016 370.666 7.36 370.666 9.024C370.666 10.688 372.01 12.032 373.674 12.032ZM425.885 32.256C424.669 32.192 423.517 32.128 422.365 32.064C422.365 25.024 422.173 20.032 421.725 17.984C421.469 16.768 420.637 13.184 417.437 12.928C413.469 12.608 411.677 17.28 407.197 28.544C406.685 29.824 406.173 31.168 405.597 32.576C398.301 33.216 394.269 34.368 393.949 34.432C392.349 34.88 391.453 36.544 391.901 38.144C392.285 39.488 393.501 40.32 394.781 40.32C395.037 40.32 395.357 40.32 395.613 40.192C395.677 40.192 398.237 39.488 402.973 38.912C400.925 43.52 398.749 48 396.381 51.392C395.485 52.736 395.805 54.592 397.213 55.552C398.557 56.512 400.413 56.192 401.373 54.784C404.509 50.24 407.325 44.16 409.757 38.272C411.805 38.144 413.981 38.08 416.349 38.016C416.349 40.448 416.349 42.88 416.349 45.12C416.285 48.192 416.285 51.072 416.285 53.568C416.285 55.232 417.629 56.576 419.293 56.576C420.957 56.576 422.301 55.232 422.301 53.568C422.301 51.072 422.301 48.192 422.365 45.12C422.365 42.688 422.365 40.32 422.365 38.144C423.389 38.144 424.477 38.208 425.565 38.272C427.165 38.336 428.637 37.056 428.701 35.392C428.765 33.728 427.549 32.32 425.885 32.256ZM412.253 32.128C412.445 31.68 412.637 31.168 412.829 30.784C413.917 28.032 415.133 24.96 416.157 22.592C416.285 24.96 416.349 28.352 416.349 32C414.941 32.064 413.597 32.064 412.253 32.128ZM463.853 19.264C462.125 12.672 451.629 11.072 429.997 14.08C428.333 14.336 427.181 15.872 427.373 17.472C427.629 19.136 429.165 20.288 430.829 20.096C433.133 19.712 435.245 19.456 437.165 19.264C425.645 47.424 426.925 48.704 428.333 50.176C428.973 50.816 429.805 51.136 430.637 51.136C431.021 51.136 431.469 51.072 431.853 50.88C432.237 50.752 467.117 31.36 463.853 19.264ZM434.861 42.176C436.845 36.416 440.429 27.264 443.949 18.752C457.069 18.112 458.029 20.8 458.029 20.8C459.245 24.768 443.885 36.352 434.861 42.176ZM517.037 16.768C503.021 9.984 486.701 15.36 486.061 15.616C484.461 16.128 483.629 17.856 484.141 19.392C484.653 20.992 486.381 21.824 487.981 21.312C488.045 21.312 489.901 20.672 492.717 20.16L480.045 52.48C479.469 54.016 480.237 55.744 481.773 56.384C482.157 56.512 482.477 56.576 482.861 56.576C484.077 56.576 485.229 55.872 485.677 54.656L489.453 44.992C499.885 40.704 521.069 30.976 521.325 22.784C521.389 21.312 520.877 18.624 517.037 16.768ZM492.589 37.056L499.437 19.584C499.437 19.52 499.501 19.456 499.501 19.456C504.109 19.264 509.549 19.84 514.477 22.208C514.925 22.464 515.181 22.656 515.245 22.72C514.605 25.408 504.749 31.552 492.589 37.056ZM538.038 44.48C537.654 42.88 536.054 41.856 534.454 42.24C530.294 43.136 525.494 44.16 522.486 44.736C523.766 39.68 527.35 29.248 530.742 20.288C531.382 18.752 530.614 16.96 529.014 16.384C527.478 15.808 525.75 16.576 525.174 18.112C514.55 45.888 515.766 48.192 516.406 49.408C516.854 50.24 517.686 50.816 518.582 51.072C518.71 51.072 518.966 51.136 519.414 51.136C520.758 51.136 524.342 50.688 535.798 48.064C537.398 47.744 538.422 46.08 538.038 44.48ZM565.986 32.256C564.77 32.192 563.618 32.128 562.466 32.064C562.466 25.024 562.274 20.032 561.826 17.984C561.57 16.768 560.738 13.184 557.538 12.928C553.57 12.608 551.778 17.28 547.298 28.544C546.786 29.824 546.274 31.168 545.698 32.576C538.402 33.216 534.37 34.368 534.05 34.432C532.45 34.88 531.554 36.544 532.002 38.144C532.386 39.488 533.602 40.32 534.882 40.32C535.138 40.32 535.458 40.32 535.714 40.192C535.778 40.192 538.338 39.488 543.074 38.912C541.026 43.52 538.85 48 536.482 51.392C535.586 52.736 535.906 54.592 537.314 55.552C538.658 56.512 540.514 56.192 541.474 54.784C544.61 50.24 547.426 44.16 549.858 38.272C551.906 38.144 554.082 38.08 556.45 38.016C556.45 40.448 556.45 42.88 556.45 45.12C556.386 48.192 556.386 51.072 556.386 53.568C556.386 55.232 557.73 56.576 559.394 56.576C561.058 56.576 562.402 55.232 562.402 53.568C562.402 51.072 562.402 48.192 562.466 45.12C562.466 42.688 562.466 40.32 562.466 38.144C563.49 38.144 564.578 38.208 565.666 38.272C567.266 38.336 568.738 37.056 568.802 35.392C568.866 33.728 567.65 32.32 565.986 32.256ZM552.354 32.128C552.546 31.68 552.738 31.168 552.93 30.784C554.018 28.032 555.234 24.96 556.258 22.592C556.386 24.96 556.45 28.352 556.45 32C555.042 32.064 553.698 32.064 552.354 32.128ZM620.612 4.16C604.932 2.944 563.332 7.872 561.54 8.064C559.94 8.256 558.724 9.728 558.916 11.392C559.108 12.928 560.388 14.08 561.924 14.08C562.052 14.08 562.18 14.016 562.244 14.016C562.436 14.016 569.028 13.248 577.924 12.352L566.02 47.232C565.508 48.832 566.34 50.496 567.876 51.072C568.196 51.2 568.516 51.2 568.836 51.2C570.116 51.2 571.268 50.432 571.716 49.216L584.516 11.712C597.316 10.56 612.356 9.536 620.1 10.176C621.764 10.24 623.236 9.024 623.364 7.424C623.492 5.76 622.212 4.288 620.612 4.16ZM629.813 1.088C616.629 0.127998 587.317 4.864 586.101 5.056C584.437 5.312 583.285 6.848 583.605 8.512C583.797 9.984 585.077 11.008 586.549 11.008C586.741 11.008 586.869 11.008 587.061 11.008C587.125 11.008 589.941 10.496 594.101 9.92L589.301 22.784L583.733 24.128C582.069 24.512 581.109 26.112 581.429 27.712C581.749 29.12 583.029 30.016 584.373 30.016C584.629 30.016 584.821 30.016 585.077 29.952L586.741 29.568L580.149 47.296C579.509 48.832 580.341 50.56 581.877 51.136C582.261 51.328 582.581 51.392 582.965 51.392C584.181 51.392 585.333 50.624 585.781 49.408L593.781 27.968L601.589 26.112C603.253 25.792 604.213 24.128 603.893 22.528C603.509 20.928 601.845 19.904 600.245 20.288L596.341 21.184L600.885 9.024C610.357 7.808 622.453 6.592 629.365 7.104C631.029 7.168 632.437 5.952 632.565 4.288C632.693 2.624 631.477 1.216 629.813 1.088ZM628.76 17.024C621.08 12.224 610.392 15.552 604.888 24.32C599.384 33.152 601.176 44.224 608.856 49.024C611.224 50.496 613.912 51.2 616.664 51.2C622.68 51.2 628.952 47.744 632.728 41.728C638.232 32.896 636.44 21.824 628.76 17.024ZM627.608 38.528C623.896 44.544 616.856 46.912 611.992 43.904C607.128 40.896 606.232 33.536 610.008 27.52C612.632 23.296 616.92 20.864 620.888 20.864C622.552 20.864 624.152 21.248 625.56 22.144C630.424 25.152 631.32 32.512 627.608 38.528ZM620.76 24.768C619.16 24.192 617.432 25.024 616.92 26.56L613.4 36.416C612.824 37.952 613.656 39.68 615.256 40.256C615.576 40.384 615.896 40.448 616.216 40.448C617.496 40.448 618.648 39.68 619.096 38.4L622.552 28.608C623.128 27.008 622.296 25.28 620.76 24.768ZM616.216 12.032H628.184C629.848 12.032 631.192 10.688 631.192 9.024C631.192 7.36 629.848 6.016 628.184 6.016H616.216C614.552 6.016 613.208 7.36 613.208 9.024C613.208 10.688 614.552 12.032 616.216 12.032ZM673.42 17.344C673.484 15.872 672.972 13.184 669.196 11.328C655.116 4.544 638.86 9.92 638.156 10.112C636.62 10.688 635.724 12.352 636.3 13.952C636.812 15.552 638.54 16.384 640.076 15.872C640.14 15.808 642.06 15.232 645.068 14.656L638.796 34.176C638.604 34.24 638.348 34.368 638.156 34.432C636.62 35.072 635.852 36.8 636.492 38.336C636.62 38.72 636.876 39.04 637.132 39.296L634.572 47.168C634.06 48.768 634.956 50.496 636.556 50.944C636.876 51.072 637.132 51.136 637.452 51.136C638.732 51.136 639.948 50.304 640.332 49.024L643.34 39.744L655.18 59.2C655.756 60.16 656.716 60.672 657.74 60.672C658.252 60.672 658.828 60.544 659.276 60.224C660.748 59.392 661.196 57.536 660.3 56.128L648.46 36.544C659.276 31.616 673.228 24 673.42 17.344ZM646.156 30.976L651.596 13.952C656.268 13.824 661.644 14.4 666.572 16.768C667.02 16.96 667.276 17.152 667.404 17.28C666.764 19.84 657.676 25.6 646.156 30.976ZM710.293 21.12C710.101 19.2 708.757 18.24 707.669 17.984C704.597 17.344 702.997 19.264 693.141 35.328C692.309 36.736 691.413 38.144 690.581 39.488C690.453 34.496 690.581 27.584 690.645 23.104C690.773 17.664 690.837 13.376 690.645 11.392C690.453 9.344 689.045 8.32 687.893 8.128C685.397 7.68 683.093 7.232 663.765 46.784C663.061 48.32 663.637 50.112 665.173 50.816C665.557 51.008 666.005 51.136 666.453 51.136C667.605 51.136 668.629 50.496 669.141 49.408C674.517 38.464 680.661 26.688 684.693 19.712C684.693 20.736 684.629 21.824 684.629 22.976C684.245 46.272 684.821 48.704 687.637 49.856C688.981 50.368 690.453 50.048 691.477 48.896C692.693 47.616 694.741 44.224 698.325 38.464C699.989 35.776 702.229 32.064 704.213 28.992C703.893 34.688 703.317 42.368 702.869 47.872C702.677 49.536 703.893 50.944 705.557 51.136C707.221 51.264 708.693 50.048 708.821 48.384C709.013 46.08 710.805 25.92 710.293 21.12ZM713.904 48.896C712.304 48.32 710.64 49.152 710.064 50.752L709.872 51.392C709.36 52.928 710.192 54.656 711.728 55.168C712.048 55.296 712.368 55.36 712.688 55.36C713.968 55.36 715.12 54.592 715.568 53.312L715.76 52.672C716.336 51.136 715.504 49.408 713.904 48.896ZM722.672 17.6C721.072 17.088 719.344 18.048 718.896 19.584L711.984 42.816C711.472 44.352 712.368 46.08 713.968 46.528C714.288 46.592 714.544 46.656 714.864 46.656C716.144 46.656 717.36 45.824 717.744 44.544L724.656 21.312C725.168 19.776 724.272 18.048 722.672 17.6Z" fill="white"/>
</svg>
