<svg width="493" height="94" viewBox="0 0 493 94" fill="none" xmlns="http://www.w3.org/2000/svg">
<path d="M76.5607 19.296C76.5607 17.528 75.7287 15.968 74.3767 14.928C73.1287 13.784 70.0087 11.288 41.7207 15.864L43.1767 11.184C43.9047 8.584 42.4487 5.88 39.8487 5.15199C37.3527 4.32 34.5447 5.776 33.8167 8.376L31.0087 17.736C24.7687 18.88 17.5927 20.232 9.27271 22C6.67271 22.52 5.00871 25.12 5.52871 27.72C6.04871 30.424 8.64871 32.088 11.3527 31.568C16.6567 30.424 22.2727 29.28 27.7847 28.344L15.4087 69.424C11.6647 69.424 8.33671 69.424 5.63271 69.216C2.92871 69.008 0.640706 71.088 0.432706 73.792C0.328706 76.496 2.30471 78.784 5.00871 78.992C6.04871 78.992 8.96071 79.096 13.0167 79.096C26.4327 79.096 51.9127 78.16 57.8407 72.648C59.2967 71.4 60.0247 69.736 60.0247 67.968C60.0247 62.248 47.2327 55.28 36.8327 50.912C40.6807 48.624 45.6727 45.4 52.3287 40.928C76.5607 24.6 76.5607 21.688 76.5607 19.296ZM46.8167 66.824C41.8247 67.864 33.8167 68.696 25.8087 69.112L29.0327 58.192C34.3367 60.272 42.0327 64.016 46.8167 66.824ZM34.1287 41.136L38.6007 26.368C47.0247 24.912 54.7207 23.872 60.3367 23.248C53.2647 28.552 42.4487 36.04 34.1287 41.136ZM92.012 47.584C92.74 50.184 95.34 51.64 98.044 50.912C100.644 50.184 102.1 47.48 101.372 44.88C98.46 34.168 95.028 32.712 92.324 32.608C84.004 32.192 64.764 47.064 61.228 50.808C60.604 51.432 58.94 53.304 59.252 55.8C59.772 59.856 62.684 60.688 76.412 65.056C76.828 65.16 77.244 65.264 77.764 65.472C77.14 65.784 76.62 66.096 76.1 66.304C58.524 75.976 54.78 78.368 54.78 82.632C54.78 84.088 55.404 85.544 56.548 86.584C57.588 87.624 59.46 89.392 75.58 89.392C80.26 89.392 86.188 89.184 93.676 88.872C96.38 88.664 98.46 86.376 98.356 83.776C98.252 81.072 95.86 78.888 93.26 79.096C86.292 79.408 78.596 79.616 72.564 79.512C75.476 77.848 78.492 76.184 80.78 74.936C92.844 68.28 94.3 67.448 93.676 63.496C93.052 59.96 91.284 59.44 79.324 55.696C77.452 55.072 75.06 54.344 72.876 53.616C78.076 49.56 86.084 44.256 90.244 42.8C90.868 44.048 91.492 45.92 92.012 47.584ZM144.274 40.72C138.138 39.888 132.21 39.576 127.01 39.368L128.882 32.296C129.61 29.696 128.05 26.992 125.45 26.264C122.746 25.64 120.146 27.2 119.418 29.8L116.922 39.368C111.202 39.368 107.458 39.68 107.146 39.68C104.442 39.992 102.466 42.28 102.674 44.984C102.882 47.688 105.274 49.664 107.978 49.456C107.978 49.456 110.37 49.248 114.218 49.144L105.378 82.528C104.754 85.128 106.21 87.832 108.914 88.456C109.33 88.664 109.746 88.664 110.162 88.664C112.242 88.664 114.218 87.208 114.842 85.024L124.41 49.144C129.922 49.248 136.37 49.56 143.026 50.392C143.234 50.392 143.442 50.392 143.65 50.392C146.146 50.392 148.226 48.624 148.538 46.128C148.85 43.424 146.978 41.032 144.274 40.72ZM187.557 35.52C184.957 34.688 182.253 36.04 181.317 38.64L179.341 44.672C177.781 38.016 175.493 31.464 172.061 28.864C170.501 27.72 168.629 27.2 166.757 27.512C158.437 28.76 141.901 66.824 139.717 75.456C138.989 78.056 137.429 84.088 141.485 87.104C142.213 87.728 143.461 88.664 145.749 88.664C149.805 88.664 157.085 85.44 170.397 70.88L166.549 82.216C165.613 84.712 166.965 87.52 169.565 88.352C170.085 88.56 170.605 88.664 171.125 88.664C173.205 88.664 175.077 87.416 175.805 85.336L190.573 41.76C191.509 39.264 190.157 36.456 187.557 35.52ZM149.285 77.12C151.989 67.656 162.077 47.168 167.589 39.368C168.837 42.8 170.293 48.728 171.229 54.864C163.221 64.64 154.381 73.48 149.285 77.12ZM255.028 68.28C254.404 65.68 251.804 64.016 249.204 64.64C242.444 66.096 234.644 67.76 229.756 68.696C231.836 60.48 237.66 43.528 243.172 28.968C244.212 26.472 242.964 23.56 240.364 22.624C237.868 21.688 235.06 22.936 234.124 25.432C216.86 70.568 218.836 74.312 219.876 76.288C220.604 77.64 221.956 78.576 223.412 78.992C223.62 78.992 224.036 79.096 224.764 79.096C226.948 79.096 232.772 78.368 251.388 74.104C253.988 73.584 255.652 70.88 255.028 68.28ZM301.262 35.52C298.662 34.688 295.958 36.04 295.022 38.64L293.046 44.672C291.486 38.016 289.198 31.464 285.766 28.864C284.206 27.72 282.334 27.2 280.462 27.512C272.142 28.76 255.606 66.824 253.422 75.456C252.694 78.056 251.134 84.088 255.19 87.104C255.918 87.728 257.166 88.664 259.454 88.664C263.51 88.664 270.79 85.44 284.102 70.88L280.254 82.216C279.318 84.712 280.67 87.52 283.27 88.352C283.79 88.56 284.31 88.664 284.83 88.664C286.91 88.664 288.782 87.416 289.51 85.336L304.278 41.76C305.214 39.264 303.862 36.456 301.262 35.52ZM262.99 77.12C265.694 67.656 275.782 47.168 281.294 39.368C282.542 42.8 283.998 48.728 284.934 54.864C276.926 64.64 268.086 73.48 262.99 77.12ZM356.606 29.904C354.11 28.968 351.302 30.216 350.366 32.712C350.262 32.712 350.262 32.816 350.262 33.024C349.846 33.232 349.43 33.648 349.118 34.064C334.35 53.928 315.63 75.976 308.038 81.176C307.518 74.104 314.486 54.136 324.47 35.104C325.718 32.712 324.782 29.8 322.39 28.552C319.998 27.304 317.086 28.24 315.838 30.632C308.246 44.984 291.71 79.616 301.694 90.224L302.526 90.952C303.358 91.472 304.398 92.2 306.062 92.2C310.43 92.2 318.958 87.416 338.822 63.184C335.39 72.752 332.27 81.8 331.23 85.96C330.606 88.56 332.166 91.264 334.766 91.888C335.182 91.992 335.598 91.992 335.91 91.992C338.198 91.992 340.174 90.536 340.694 88.352C343.086 78.576 359.31 36.664 359.414 36.248C360.454 33.752 359.206 30.84 356.606 29.904ZM394.503 29.176C391.799 28.76 389.407 30.736 388.991 33.336C388.159 40.096 386.495 53.304 385.039 64.328C383.271 58.088 381.191 50.08 378.695 40.408C378.071 38.016 377.655 36.248 377.343 35.208C376.511 32.088 374.015 31.048 372.143 31.048C367.983 31.048 365.279 31.048 351.343 87.416C350.615 90.12 352.279 92.72 354.879 93.344C355.295 93.448 355.711 93.552 356.023 93.552C358.207 93.552 360.287 91.992 360.807 89.808C364.239 75.976 368.295 61 371.311 50.912C381.191 88.768 382.439 88.768 386.911 88.664C388.783 88.664 391.175 87.52 391.903 84.4C393.359 78.368 398.247 39.056 398.767 34.584C399.079 31.88 397.207 29.488 394.503 29.176ZM431.96 56.528C432.376 56.736 432.896 56.84 433.416 56.84C435.496 56.84 437.368 55.488 438.096 53.512L446.52 27.928C447.352 25.432 446 22.624 443.4 21.792C440.904 20.96 438.096 22.312 437.264 24.912L435.08 31.36C434.664 31.256 434.144 31.256 433.624 31.36C424.368 32.608 411.68 44.256 404.296 54.552C399.512 61.104 394.208 70.88 395.872 79.824C396.6 83.776 398.784 86.792 402.32 88.56C404.712 89.808 407.624 90.224 410.744 90.224C422.496 90.224 437.472 83.36 441.008 81.592C443.4 80.448 444.44 77.536 443.296 75.144C442.048 72.648 439.136 71.608 436.744 72.856C427.696 77.224 411.888 82.424 406.688 79.824C406.064 79.512 405.648 79.096 405.44 78.056C404.712 73.792 407.104 67.344 412.2 60.272C418.024 52.056 426.032 45.192 431.44 42.384L428.84 50.392C428.008 52.992 429.36 55.696 431.96 56.528ZM486.616 32.712C481.624 31.464 472.576 39.888 463.84 50.288C464.256 48.936 464.672 47.688 465.192 46.336L478.92 7.128C479.856 4.63199 478.504 1.82399 475.904 0.887993C473.408 0.0559974 470.6 1.30399 469.664 3.904C459.888 31.88 445.432 73.064 442.624 80.864C442.52 81.28 442.312 81.592 442.208 81.904C440.544 87 445.12 88.56 445.12 88.56C445.848 88.872 446.472 88.976 446.992 88.976C449.176 88.976 450.424 87.312 451.36 85.336L451.568 85.024C451.568 84.816 451.568 84.712 451.672 84.608C451.776 84.4 451.88 84.192 451.88 83.88C455.52 75.56 470.6 56.528 479.752 47.272C477.256 62.04 473.928 82.632 473.928 82.944C473.512 85.544 475.28 88.04 477.984 88.56C480.584 88.976 483.184 87.104 483.6 84.504C483.6 84.192 488.384 54.24 490.776 40.928C492.024 34.376 487.136 32.92 486.616 32.712Z" fill="white"/>
</svg>
