<svg width="651" height="123" viewBox="0 0 651 123" fill="none" xmlns="http://www.w3.org/2000/svg">
<path d="M76.665 23.296C76.665 21.528 75.833 19.968 74.481 18.928C73.233 17.784 70.113 15.288 41.825 19.864L43.281 15.184C44.009 12.584 42.553 9.88 39.953 9.15199C37.457 8.32 34.649 9.776 33.921 12.376L31.113 21.736C24.873 22.88 17.697 24.232 9.37701 26C6.77701 26.52 5.11301 29.12 5.63301 31.72C6.15301 34.424 8.75301 36.088 11.457 35.568C16.761 34.424 22.377 33.28 27.889 32.344L15.513 73.424C11.769 73.424 8.44101 73.424 5.73701 73.216C3.03301 73.008 0.745015 75.088 0.537015 77.792C0.433015 80.496 2.40901 82.784 5.11301 82.992C6.15301 82.992 9.06501 83.096 13.121 83.096C26.537 83.096 52.017 82.16 57.945 76.648C59.401 75.4 60.129 73.736 60.129 71.968C60.129 66.248 47.337 59.28 36.937 54.912C40.785 52.624 45.777 49.4 52.433 44.928C76.665 28.6 76.665 25.688 76.665 23.296ZM46.921 70.824C41.929 71.864 33.921 72.696 25.913 73.112L29.137 62.192C34.441 64.272 42.137 68.016 46.921 70.824ZM34.233 45.136L38.705 30.368C47.129 28.912 54.825 27.872 60.441 27.248C53.369 32.552 42.553 40.04 34.233 45.136ZM123.235 40.456C123.235 40.248 123.235 40.144 123.131 39.936C123.131 39.832 123.131 39.624 123.027 39.52C123.027 39.312 122.923 39.208 122.923 39.104C122.819 38.896 122.715 38.792 122.715 38.688C122.611 38.48 122.507 38.376 122.403 38.272C122.299 38.064 122.299 37.96 122.195 37.856C122.091 37.752 121.987 37.648 121.883 37.544C121.675 37.44 121.571 37.232 121.467 37.128C121.363 37.128 121.363 37.128 121.259 37.024C121.259 37.024 121.155 36.92 121.051 36.92C120.947 36.816 120.843 36.712 120.635 36.608C120.531 36.608 120.323 36.504 120.219 36.4C120.115 36.4 120.011 36.4 119.907 36.296H119.803C119.595 36.192 119.387 36.192 119.283 36.192C119.075 36.192 118.971 36.088 118.763 36.088C118.659 36.088 118.451 36.088 118.347 36.088C118.139 36.088 118.035 36.088 117.827 36.088C117.723 36.192 117.515 36.192 117.411 36.192C117.203 36.192 117.099 36.296 116.891 36.296C116.787 36.4 116.683 36.4 116.475 36.504C116.371 36.504 116.267 36.608 116.059 36.712C115.955 36.712 115.851 36.816 115.643 36.92C115.539 37.024 115.435 37.128 115.331 37.232C115.123 37.336 115.019 37.44 114.915 37.544C114.811 37.648 114.707 37.752 114.603 37.856C114.603 37.96 114.499 37.96 114.499 38.064C99.7311 57.928 81.0111 79.976 73.4191 85.176C72.8991 78.104 79.8671 58.136 89.8511 39.208C91.0991 36.816 90.1631 33.8 87.7711 32.552C85.3791 31.304 82.4671 32.24 81.2191 34.632C73.6271 48.984 57.0911 83.616 67.0751 94.224L67.9071 94.952C68.7391 95.472 69.7791 96.2 71.4431 96.2C75.8111 96.2 84.4431 91.416 104.515 66.872L89.4351 111.8L78.9311 108.784L84.3391 104.104C86.3151 102.232 86.5231 99.216 84.7551 97.136C82.9871 95.16 79.8671 94.952 77.7871 96.72L67.2831 106.08C65.8271 107.432 65.0991 109.512 65.5151 111.592C65.8271 113.568 67.1791 115.232 69.0511 116.064L89.3311 121.992C89.9551 122.096 90.4751 122.2 91.0991 122.2C94.0111 122.2 96.7151 120.328 97.8591 117.312L123.027 42.536C123.027 42.432 123.027 42.432 123.131 42.328C123.131 42.12 123.131 42.016 123.235 41.808C123.235 41.704 123.235 41.496 123.235 41.392C123.235 41.184 123.235 41.08 123.235 40.872C123.235 40.768 123.235 40.56 123.235 40.456ZM215.58 31.304C212.772 20.592 195.716 17.992 160.564 22.88C157.86 23.296 155.988 25.792 156.3 28.392C156.716 31.096 159.212 32.968 161.916 32.656C165.66 32.032 169.092 31.616 172.212 31.304C153.492 77.064 155.572 79.144 157.86 81.536C158.9 82.576 160.252 83.096 161.604 83.096C162.228 83.096 162.956 82.992 163.58 82.68C164.204 82.472 220.884 50.96 215.58 31.304ZM168.468 68.536C171.692 59.176 177.516 44.304 183.236 30.472C204.556 29.432 206.116 33.8 206.116 33.8C208.092 40.248 183.132 59.072 168.468 68.536ZM259.788 29.64C258.228 28.184 253.444 23.4 220.684 33.592C218.084 34.32 216.628 37.128 217.46 39.728C218.292 42.224 220.996 43.68 223.596 42.952C234.308 39.624 245.54 37.232 250.948 36.92C245.956 49.192 229.004 82.056 221.204 89.96C217.876 81.64 219.748 71.864 219.748 71.76C220.268 69.056 218.5 66.456 215.9 65.936C213.3 65.416 210.7 67.184 210.18 69.784C210.076 70.512 207.164 85.488 213.924 97.448C215.276 99.736 217.46 101.088 219.956 101.088C220.268 101.088 220.476 101.088 220.788 101.088C234.412 99.424 260.62 39.416 261.452 36.504C262.18 34.008 261.556 31.512 259.788 29.64ZM265.461 61.672C265.253 61.672 264.941 61.672 264.733 61.672C269.621 55.744 286.469 43.784 297.701 37.44C296.245 40.872 294.061 45.344 291.669 49.4C290.317 51.688 291.149 54.704 293.437 56.056C295.829 57.408 298.845 56.68 300.197 54.288C312.677 32.864 308.933 28.808 307.373 27.04C306.125 25.688 303.213 23.816 298.013 26.312C297.493 26.52 250.693 51.48 253.917 65.104C254.853 69.368 258.701 71.448 265.565 71.448C275.133 71.344 281.685 72.072 285.845 72.8C277.421 75.712 263.693 78.832 257.765 78C255.165 77.688 252.669 79.56 252.253 82.264C251.941 84.864 253.813 87.36 256.517 87.672C257.453 87.88 258.597 87.88 259.845 87.88C271.285 87.88 290.629 82.264 296.453 78.936C301.445 76.128 300.821 72.072 300.405 70.928C298.741 64.584 286.989 61.464 265.461 61.672ZM311.032 84.344C311.032 84.24 310.928 84.032 310.928 83.928C310.928 83.928 310.928 83.928 310.928 83.824C311.344 82.16 310.304 80.392 308.64 79.872L304.896 78.832C303.128 78.416 301.36 79.456 300.944 81.224C300.424 82.888 301.464 84.76 303.232 85.176L304.48 85.488C304.376 86.944 303.752 89.96 301.36 92.456C300.008 93.704 300.008 95.784 301.36 97.032C301.984 97.656 302.816 97.968 303.648 97.968C304.48 97.968 305.312 97.656 305.936 97.032C311.344 91.624 311.032 84.656 311.032 84.344Z" fill="#E5986E"/>
<path d="M428.945 1.768C407.521 0.207998 359.889 7.904 357.913 8.21599C355.209 8.63199 353.337 11.128 353.857 13.832C354.169 16.224 356.249 17.888 358.641 17.888C358.953 17.888 359.161 17.888 359.473 17.888C359.577 17.888 364.153 17.056 370.913 16.12L363.113 37.024L354.065 39.208C351.361 39.832 349.801 42.432 350.321 45.032C350.841 47.32 352.921 48.776 355.105 48.776C355.521 48.776 355.833 48.776 356.249 48.672L358.953 48.048L348.241 76.856C347.201 79.352 348.553 82.16 351.049 83.096C351.673 83.408 352.193 83.512 352.817 83.512C354.793 83.512 356.665 82.264 357.393 80.288L370.393 45.448L383.081 42.432C385.785 41.912 387.345 39.208 386.825 36.608C386.201 34.008 383.497 32.344 380.897 32.968L374.553 34.424L381.937 14.664C397.329 12.688 416.985 10.712 428.217 11.544C430.921 11.648 433.209 9.67199 433.417 6.968C433.625 4.264 431.649 1.97599 428.945 1.768ZM413.751 39.208C409.487 36.192 403.663 35.776 397.735 38.064C392.535 40.248 387.543 44.304 383.695 49.608C379.847 54.912 377.559 60.944 377.247 66.56C376.831 72.904 379.015 78.312 383.175 81.328C385.671 83.096 388.583 83.928 391.703 83.928C394.095 83.928 396.591 83.512 399.191 82.472C404.391 80.392 409.383 76.232 413.231 70.928C421.759 59.176 421.967 45.24 413.751 39.208ZM405.327 65.208C402.623 69.056 398.983 71.968 395.551 73.424C392.847 74.464 390.455 74.464 388.999 73.424C387.543 72.384 386.815 70.096 386.919 67.184C387.231 63.44 388.895 59.072 391.599 55.328C394.407 51.584 397.943 48.568 401.375 47.216C402.831 46.592 404.079 46.384 405.223 46.384C406.367 46.384 407.303 46.592 408.031 47.112C411.255 49.504 410.735 57.72 405.327 65.208ZM405.327 88.608C397.007 86.424 374.647 86.736 372.151 86.84C369.447 86.84 367.263 89.024 367.263 91.728C367.367 94.432 369.655 96.72 372.255 96.616C378.703 96.512 396.903 96.512 402.831 98.072C403.247 98.176 403.663 98.28 404.079 98.28C406.263 98.28 408.239 96.824 408.863 94.536C409.487 91.936 407.927 89.232 405.327 88.608ZM438.62 75.088C439.14 75.192 439.66 75.4 440.18 75.4C440.284 75.4 440.388 75.4 440.492 75.4C442.572 75.4 444.444 74.568 445.9 73.216C457.652 61.464 465.66 35.568 461.292 29.536C460.46 28.288 458.796 27.456 457.34 27.352C455.572 27.144 452.972 27.04 438.724 40.976L440.284 35.672C441.012 33.072 439.556 30.368 437.06 29.64C434.46 28.808 431.652 30.264 430.924 32.864L423.956 56.264C423.54 56.888 423.332 57.616 423.332 58.344L412.724 93.496C411.996 96.096 413.452 98.8 416.052 99.528C416.468 99.736 416.988 99.736 417.404 99.736C419.588 99.736 421.46 98.384 422.084 96.304L427.804 77.48L439.348 91C440.284 92.04 441.636 92.664 443.092 92.664C444.236 92.664 445.276 92.248 446.212 91.52C448.292 89.752 448.5 86.632 446.732 84.552L438.62 75.088ZM451.412 42.432C449.54 49.4 445.796 58.864 439.868 65.312C438.412 64.584 435.812 62.504 433.524 60.112C439.66 53.768 446.42 47.112 451.412 42.432ZM554.055 31.304C551.247 20.592 534.191 17.992 499.039 22.88C496.335 23.296 494.463 25.792 494.775 28.392C495.191 31.096 497.687 32.968 500.391 32.656C504.135 32.032 507.567 31.616 510.687 31.304C491.967 77.064 494.047 79.144 496.335 81.536C497.375 82.576 498.727 83.096 500.079 83.096C500.703 83.096 501.431 82.992 502.055 82.68C502.679 82.472 559.359 50.96 554.055 31.304ZM506.943 68.536C510.167 59.176 515.991 44.304 521.711 30.472C543.031 29.432 544.591 33.8 544.591 33.8C546.567 40.248 521.607 59.072 506.943 68.536ZM612.129 33.28C611.505 30.68 608.905 29.016 606.305 29.536L558.569 39.312C555.865 39.936 554.201 42.432 554.721 45.136C555.241 47.424 557.217 48.984 559.505 48.984C559.817 48.984 560.129 48.984 560.545 48.88L578.641 45.136C574.689 58.552 566.161 86.216 557.945 105.04C556.905 97.656 556.489 85.28 556.801 74.568C556.801 71.864 554.721 69.576 552.017 69.576C549.313 69.472 547.025 71.656 547.025 74.36C545.985 117.312 552.433 118.768 555.553 119.392C556.073 119.496 556.593 119.6 557.009 119.6C562.209 119.6 565.121 113.048 566.369 110.136C576.249 87.776 586.545 53.144 589.561 42.952L608.281 39.104C610.881 38.584 612.649 35.984 612.129 33.28ZM641.856 74.048C640.816 68.536 633.952 66.976 623.656 64.48C618.768 63.336 613.672 62.192 609.824 60.632C609.72 60.632 609.616 60.528 609.512 60.528C612.32 57.408 621.576 52.416 627.92 49.192L627.296 55.224C627.088 57.928 629.064 60.32 631.664 60.632C631.872 60.632 632.08 60.632 632.184 60.632C634.68 60.632 636.76 58.76 637.072 56.264L638.944 36.816C639.256 34.112 637.28 31.72 634.576 31.408C631.976 31.2 629.48 33.176 629.272 35.88L629.064 37.96C628.544 38.064 628.024 38.168 627.608 38.376C610.136 47.112 598.696 53.456 599.008 61.464C599.112 63.96 600.464 67.496 606.184 69.68C610.76 71.552 616.48 72.904 621.472 74.048C623.552 74.568 626.256 75.192 628.544 75.816C620.536 79.768 607.328 83.408 602.128 84.552C599.528 85.176 597.864 87.776 598.488 90.48C599.008 92.664 601.088 94.224 603.272 94.224C603.584 94.224 604 94.224 604.416 94.12C605.352 93.912 627.816 88.608 637.696 81.848C641.752 79.144 642.168 76.128 641.856 74.048ZM650.422 84.344C650.422 84.24 650.318 84.032 650.318 83.928C650.318 83.928 650.318 83.928 650.318 83.824C650.734 82.16 649.694 80.392 648.03 79.872L644.286 78.832C642.518 78.416 640.75 79.456 640.334 81.224C639.814 82.888 640.854 84.76 642.622 85.176L643.87 85.488C643.766 86.944 643.142 89.96 640.75 92.456C639.398 93.704 639.398 95.784 640.75 97.032C641.374 97.656 642.206 97.968 643.038 97.968C643.87 97.968 644.702 97.656 645.326 97.032C650.734 91.624 650.422 84.656 650.422 84.344Z" fill="white"/>
</svg>
