<svg width="632" height="123" viewBox="0 0 632 123" fill="none" xmlns="http://www.w3.org/2000/svg">
<path d="M76.6973 23.296C76.6973 21.528 75.8653 19.968 74.5133 18.928C73.2653 17.784 70.1453 15.288 41.8573 19.864L43.3133 15.184C44.0413 12.584 42.5853 9.88 39.9853 9.15199C37.4893 8.32 34.6813 9.776 33.9533 12.376L31.1453 21.736C24.9053 22.88 17.7293 24.232 9.40933 26C6.80933 26.52 5.14533 29.12 5.66533 31.72C6.18533 34.424 8.78533 36.088 11.4893 35.568C16.7933 34.424 22.4093 33.28 27.9213 32.344L15.5453 73.424C11.8013 73.424 8.47333 73.424 5.76933 73.216C3.06533 73.008 0.777333 75.088 0.569333 77.792C0.465333 80.496 2.44133 82.784 5.14533 82.992C6.18533 82.992 9.09733 83.096 13.1533 83.096C26.5693 83.096 52.0493 82.16 57.9773 76.648C59.4333 75.4 60.1613 73.736 60.1613 71.968C60.1613 66.248 47.3693 59.28 36.9693 54.912C40.8173 52.624 45.8093 49.4 52.4653 44.928C76.6973 28.6 76.6973 25.688 76.6973 23.296ZM46.9533 70.824C41.9613 71.864 33.9533 72.696 25.9453 73.112L29.1693 62.192C34.4733 64.272 42.1693 68.016 46.9533 70.824ZM34.2653 45.136L38.7373 30.368C47.1613 28.912 54.8573 27.872 60.4733 27.248C53.4013 32.552 42.5853 40.04 34.2653 45.136ZM123.267 40.456C123.267 40.248 123.267 40.144 123.163 39.936C123.163 39.832 123.163 39.624 123.059 39.52C123.059 39.312 122.955 39.208 122.955 39.104C122.851 38.896 122.747 38.792 122.747 38.688C122.643 38.48 122.539 38.376 122.435 38.272C122.331 38.064 122.331 37.96 122.227 37.856C122.123 37.752 122.019 37.648 121.915 37.544C121.707 37.44 121.603 37.232 121.499 37.128C121.395 37.128 121.395 37.128 121.291 37.024C121.291 37.024 121.187 36.92 121.083 36.92C120.979 36.816 120.875 36.712 120.667 36.608C120.563 36.608 120.355 36.504 120.251 36.4C120.147 36.4 120.043 36.4 119.939 36.296H119.835C119.627 36.192 119.419 36.192 119.315 36.192C119.107 36.192 119.003 36.088 118.795 36.088C118.691 36.088 118.483 36.088 118.379 36.088C118.171 36.088 118.067 36.088 117.859 36.088C117.755 36.192 117.547 36.192 117.443 36.192C117.235 36.192 117.131 36.296 116.923 36.296C116.819 36.4 116.715 36.4 116.507 36.504C116.403 36.504 116.299 36.608 116.091 36.712C115.987 36.712 115.883 36.816 115.675 36.92C115.571 37.024 115.467 37.128 115.363 37.232C115.155 37.336 115.051 37.44 114.947 37.544C114.843 37.648 114.739 37.752 114.635 37.856C114.635 37.96 114.531 37.96 114.531 38.064C99.7634 57.928 81.0434 79.976 73.4514 85.176C72.9314 78.104 79.8994 58.136 89.8834 39.208C91.1314 36.816 90.1954 33.8 87.8034 32.552C85.4114 31.304 82.4994 32.24 81.2514 34.632C73.6594 48.984 57.1234 83.616 67.1074 94.224L67.9394 94.952C68.7714 95.472 69.8114 96.2 71.4754 96.2C75.8434 96.2 84.4754 91.416 104.547 66.872L89.4674 111.8L78.9634 108.784L84.3714 104.104C86.3474 102.232 86.5554 99.216 84.7874 97.136C83.0194 95.16 79.8994 94.952 77.8194 96.72L67.3154 106.08C65.8594 107.432 65.1314 109.512 65.5474 111.592C65.8594 113.568 67.2114 115.232 69.0834 116.064L89.3634 121.992C89.9874 122.096 90.5074 122.2 91.1314 122.2C94.0434 122.2 96.7474 120.328 97.8914 117.312L123.059 42.536C123.059 42.432 123.059 42.432 123.163 42.328C123.163 42.12 123.163 42.016 123.267 41.808C123.267 41.704 123.267 41.496 123.267 41.392C123.267 41.184 123.267 41.08 123.267 40.872C123.267 40.768 123.267 40.56 123.267 40.456ZM215.612 31.304C212.804 20.592 195.748 17.992 160.596 22.88C157.892 23.296 156.02 25.792 156.332 28.392C156.748 31.096 159.244 32.968 161.948 32.656C165.692 32.032 169.124 31.616 172.244 31.304C153.524 77.064 155.604 79.144 157.892 81.536C158.932 82.576 160.284 83.096 161.636 83.096C162.26 83.096 162.988 82.992 163.612 82.68C164.236 82.472 220.916 50.96 215.612 31.304ZM168.5 68.536C171.724 59.176 177.548 44.304 183.268 30.472C204.588 29.432 206.148 33.8 206.148 33.8C208.124 40.248 183.164 59.072 168.5 68.536ZM273.686 33.28C273.062 30.68 270.462 29.016 267.862 29.536L220.126 39.312C217.422 39.936 215.758 42.432 216.278 45.136C216.798 47.424 218.774 48.984 221.062 48.984C221.374 48.984 221.686 48.984 222.102 48.88L240.198 45.136C236.246 58.552 227.718 86.216 219.502 105.04C218.462 97.656 218.046 85.28 218.358 74.568C218.358 71.864 216.278 69.576 213.574 69.576C210.87 69.472 208.582 71.656 208.582 74.36C207.542 117.312 213.99 118.768 217.11 119.392C217.63 119.496 218.15 119.6 218.566 119.6C223.766 119.6 226.678 113.048 227.926 110.136C237.806 87.776 248.102 53.144 251.118 42.952L269.838 39.104C272.438 38.584 274.206 35.984 273.686 33.28ZM303.413 74.048C302.373 68.536 295.509 66.976 285.213 64.48C280.325 63.336 275.229 62.192 271.381 60.632C271.277 60.632 271.173 60.528 271.069 60.528C273.877 57.408 283.133 52.416 289.477 49.192L288.853 55.224C288.645 57.928 290.621 60.32 293.221 60.632C293.429 60.632 293.637 60.632 293.741 60.632C296.237 60.632 298.317 58.76 298.629 56.264L300.501 36.816C300.813 34.112 298.837 31.72 296.133 31.408C293.533 31.2 291.037 33.176 290.829 35.88L290.621 37.96C290.101 38.064 289.581 38.168 289.165 38.376C271.693 47.112 260.253 53.456 260.565 61.464C260.669 63.96 262.021 67.496 267.741 69.68C272.317 71.552 278.037 72.904 283.029 74.048C285.109 74.568 287.813 75.192 290.101 75.816C282.093 79.768 268.885 83.408 263.685 84.552C261.085 85.176 259.421 87.776 260.045 90.48C260.565 92.664 262.645 94.224 264.829 94.224C265.141 94.224 265.557 94.224 265.973 94.12C266.909 93.912 289.373 88.608 299.253 81.848C303.309 79.144 303.725 76.128 303.413 74.048Z" fill="#F29565"/>
<path d="M418.362 1.768C396.938 0.207997 349.306 7.904 347.33 8.21599C344.626 8.63199 342.754 11.128 343.274 13.832C343.586 16.224 345.666 17.888 348.058 17.888C348.37 17.888 348.578 17.888 348.89 17.888C348.994 17.888 353.57 17.056 360.33 16.12L352.53 37.024L343.482 39.208C340.778 39.832 339.218 42.432 339.738 45.032C340.258 47.32 342.338 48.776 344.522 48.776C344.938 48.776 345.25 48.776 345.666 48.672L348.37 48.048L337.658 76.856C336.618 79.352 337.97 82.16 340.466 83.096C341.09 83.408 341.61 83.512 342.234 83.512C344.21 83.512 346.082 82.264 346.81 80.288L359.81 45.448L372.498 42.432C375.202 41.912 376.762 39.208 376.242 36.608C375.618 34.008 372.914 32.344 370.314 32.968L363.97 34.424L371.354 14.664C386.746 12.688 406.402 10.712 417.634 11.544C420.338 11.648 422.626 9.67199 422.834 6.968C423.042 4.26399 421.066 1.97599 418.362 1.768ZM403.168 39.208C398.904 36.192 393.08 35.776 387.152 38.064C381.952 40.248 376.96 44.304 373.112 49.608C369.264 54.912 366.976 60.944 366.664 66.56C366.248 72.904 368.432 78.312 372.592 81.328C375.088 83.096 378 83.928 381.12 83.928C383.512 83.928 386.008 83.512 388.608 82.472C393.808 80.392 398.8 76.232 402.648 70.928C411.176 59.176 411.384 45.24 403.168 39.208ZM394.744 65.208C392.04 69.056 388.4 71.968 384.968 73.424C382.264 74.464 379.872 74.464 378.416 73.424C376.96 72.384 376.232 70.096 376.336 67.184C376.648 63.44 378.312 59.072 381.016 55.328C383.824 51.584 387.36 48.568 390.792 47.216C392.248 46.592 393.496 46.384 394.64 46.384C395.784 46.384 396.72 46.592 397.448 47.112C400.672 49.504 400.152 57.72 394.744 65.208ZM394.744 88.608C386.424 86.424 364.064 86.736 361.568 86.84C358.864 86.84 356.68 89.024 356.68 91.728C356.784 94.432 359.072 96.72 361.672 96.616C368.12 96.512 386.32 96.512 392.248 98.072C392.664 98.176 393.08 98.28 393.496 98.28C395.68 98.28 397.656 96.824 398.28 94.536C398.904 91.936 397.344 89.232 394.744 88.608ZM428.037 75.088C428.557 75.192 429.077 75.4 429.597 75.4C429.701 75.4 429.805 75.4 429.909 75.4C431.989 75.4 433.861 74.568 435.317 73.216C447.069 61.464 455.077 35.568 450.709 29.536C449.877 28.288 448.213 27.456 446.757 27.352C444.989 27.144 442.389 27.04 428.141 40.976L429.701 35.672C430.429 33.072 428.973 30.368 426.477 29.64C423.877 28.808 421.069 30.264 420.341 32.864L413.373 56.264C412.957 56.888 412.749 57.616 412.749 58.344L402.141 93.496C401.413 96.096 402.869 98.8 405.469 99.528C405.885 99.736 406.405 99.736 406.821 99.736C409.005 99.736 410.877 98.384 411.501 96.304L417.221 77.48L428.765 91C429.701 92.04 431.053 92.664 432.509 92.664C433.653 92.664 434.693 92.248 435.629 91.52C437.709 89.752 437.917 86.632 436.149 84.552L428.037 75.088ZM440.829 42.432C438.957 49.4 435.213 58.864 429.285 65.312C427.829 64.584 425.229 62.504 422.941 60.112C429.077 53.768 435.837 47.112 440.829 42.432ZM543.472 31.304C540.664 20.592 523.608 17.992 488.456 22.88C485.752 23.296 483.88 25.792 484.192 28.392C484.608 31.096 487.104 32.968 489.808 32.656C493.552 32.032 496.984 31.616 500.104 31.304C481.384 77.064 483.464 79.144 485.752 81.536C486.792 82.576 488.144 83.096 489.496 83.096C490.12 83.096 490.848 82.992 491.472 82.68C492.096 82.472 548.776 50.96 543.472 31.304ZM496.36 68.536C499.584 59.176 505.408 44.304 511.128 30.472C532.448 29.432 534.008 33.8 534.008 33.8C535.984 40.248 511.024 59.072 496.36 68.536ZM601.546 33.28C600.922 30.68 598.322 29.016 595.722 29.536L547.986 39.312C545.282 39.936 543.618 42.432 544.138 45.136C544.658 47.424 546.634 48.984 548.922 48.984C549.234 48.984 549.546 48.984 549.962 48.88L568.058 45.136C564.106 58.552 555.578 86.216 547.362 105.04C546.322 97.656 545.906 85.28 546.218 74.568C546.218 71.864 544.138 69.576 541.434 69.576C538.73 69.472 536.442 71.656 536.442 74.36C535.402 117.312 541.85 118.768 544.97 119.392C545.49 119.496 546.01 119.6 546.426 119.6C551.626 119.6 554.538 113.048 555.786 110.136C565.666 87.776 575.962 53.144 578.978 42.952L597.698 39.104C600.298 38.584 602.066 35.984 601.546 33.28ZM631.273 74.048C630.233 68.536 623.369 66.976 613.073 64.48C608.185 63.336 603.089 62.192 599.241 60.632C599.137 60.632 599.033 60.528 598.929 60.528C601.737 57.408 610.993 52.416 617.337 49.192L616.713 55.224C616.505 57.928 618.481 60.32 621.081 60.632C621.289 60.632 621.497 60.632 621.601 60.632C624.097 60.632 626.177 58.76 626.489 56.264L628.361 36.816C628.673 34.112 626.697 31.72 623.993 31.408C621.393 31.2 618.897 33.176 618.689 35.88L618.481 37.96C617.961 38.064 617.441 38.168 617.025 38.376C599.553 47.112 588.113 53.456 588.425 61.464C588.529 63.96 589.881 67.496 595.601 69.68C600.177 71.552 605.897 72.904 610.889 74.048C612.969 74.568 615.673 75.192 617.961 75.816C609.953 79.768 596.745 83.408 591.545 84.552C588.945 85.176 587.281 87.776 587.905 90.48C588.425 92.664 590.505 94.224 592.689 94.224C593.001 94.224 593.417 94.224 593.833 94.12C594.769 93.912 617.233 88.608 627.113 81.848C631.169 79.144 631.585 76.128 631.273 74.048Z" fill="white"/>
</svg>
