<svg width="642" height="123" viewBox="0 0 642 123" fill="none" xmlns="http://www.w3.org/2000/svg">
<path d="M76.4297 23.296C76.4297 21.528 75.5977 19.968 74.2457 18.928C72.9977 17.784 69.8777 15.288 41.5897 19.864L43.0457 15.184C43.7737 12.584 42.3177 9.88 39.7177 9.15199C37.2217 8.32 34.4137 9.776 33.6857 12.376L30.8777 21.736C24.6377 22.88 17.4617 24.232 9.14169 26C6.54169 26.52 4.87769 29.12 5.39769 31.72C5.91769 34.424 8.51769 36.088 11.2217 35.568C16.5257 34.424 22.1417 33.28 27.6537 32.344L15.2777 73.424C11.5337 73.424 8.20569 73.424 5.50169 73.216C2.79769 73.008 0.509694 75.088 0.301694 77.792C0.197694 80.496 2.17369 82.784 4.87769 82.992C5.91769 82.992 8.82969 83.096 12.8857 83.096C26.3017 83.096 51.7817 82.16 57.7097 76.648C59.1657 75.4 59.8937 73.736 59.8937 71.968C59.8937 66.248 47.1017 59.28 36.7017 54.912C40.5497 52.624 45.5417 49.4 52.1977 44.928C76.4297 28.6 76.4297 25.688 76.4297 23.296ZM46.6857 70.824C41.6937 71.864 33.6857 72.696 25.6777 73.112L28.9017 62.192C34.2057 64.272 41.9017 68.016 46.6857 70.824ZM33.9977 45.136L38.4697 30.368C46.8937 28.912 54.5897 27.872 60.2057 27.248C53.1337 32.552 42.3177 40.04 33.9977 45.136ZM123 40.456C123 40.248 123 40.144 122.896 39.936C122.896 39.832 122.896 39.624 122.792 39.52C122.792 39.312 122.688 39.208 122.688 39.104C122.584 38.896 122.48 38.792 122.48 38.688C122.376 38.48 122.272 38.376 122.168 38.272C122.064 38.064 122.064 37.96 121.96 37.856C121.856 37.752 121.752 37.648 121.648 37.544C121.44 37.44 121.336 37.232 121.232 37.128C121.128 37.128 121.128 37.128 121.024 37.024C121.024 37.024 120.92 36.92 120.816 36.92C120.712 36.816 120.608 36.712 120.4 36.608C120.296 36.608 120.088 36.504 119.984 36.4C119.88 36.4 119.776 36.4 119.672 36.296H119.568C119.36 36.192 119.152 36.192 119.048 36.192C118.84 36.192 118.736 36.088 118.528 36.088C118.424 36.088 118.216 36.088 118.112 36.088C117.904 36.088 117.8 36.088 117.592 36.088C117.488 36.192 117.28 36.192 117.176 36.192C116.968 36.192 116.864 36.296 116.656 36.296C116.552 36.4 116.448 36.4 116.24 36.504C116.136 36.504 116.032 36.608 115.824 36.712C115.72 36.712 115.616 36.816 115.408 36.92C115.304 37.024 115.2 37.128 115.096 37.232C114.888 37.336 114.784 37.44 114.68 37.544C114.576 37.648 114.472 37.752 114.368 37.856C114.368 37.96 114.264 37.96 114.264 38.064C99.4957 57.928 80.7758 79.976 73.1838 85.176C72.6638 78.104 79.6318 58.136 89.6157 39.208C90.8637 36.816 89.9278 33.8 87.5358 32.552C85.1438 31.304 82.2318 32.24 80.9837 34.632C73.3918 48.984 56.8558 83.616 66.8398 94.224L67.6718 94.952C68.5038 95.472 69.5438 96.2 71.2078 96.2C75.5758 96.2 84.2077 91.416 104.28 66.872L89.1998 111.8L78.6957 108.784L84.1037 104.104C86.0798 102.232 86.2878 99.216 84.5198 97.136C82.7518 95.16 79.6318 94.952 77.5518 96.72L67.0478 106.08C65.5918 107.432 64.8638 109.512 65.2798 111.592C65.5918 113.568 66.9438 115.232 68.8158 116.064L89.0958 121.992C89.7197 122.096 90.2398 122.2 90.8637 122.2C93.7758 122.2 96.4798 120.328 97.6238 117.312L122.792 42.536C122.792 42.432 122.792 42.432 122.896 42.328C122.896 42.12 122.896 42.016 123 41.808C123 41.704 123 41.496 123 41.392C123 41.184 123 41.08 123 40.872C123 40.768 123 40.56 123 40.456ZM215.344 31.304C212.536 20.592 195.48 17.992 160.328 22.88C157.624 23.296 155.752 25.792 156.064 28.392C156.48 31.096 158.976 32.968 161.68 32.656C165.424 32.032 168.856 31.616 171.976 31.304C153.256 77.064 155.336 79.144 157.624 81.536C158.664 82.576 160.016 83.096 161.368 83.096C161.992 83.096 162.72 82.992 163.344 82.68C163.968 82.472 220.648 50.96 215.344 31.304ZM168.232 68.536C171.456 59.176 177.28 44.304 183 30.472C204.32 29.432 205.88 33.8 205.88 33.8C207.856 40.248 182.896 59.072 168.232 68.536ZM259.553 29.64C257.993 28.184 253.209 23.4 220.449 33.592C217.849 34.32 216.393 37.128 217.225 39.728C218.057 42.224 220.761 43.68 223.361 42.952C234.073 39.624 245.305 37.232 250.713 36.92C245.721 49.192 228.769 82.056 220.969 89.96C217.641 81.64 219.513 71.864 219.513 71.76C220.033 69.056 218.265 66.456 215.665 65.936C213.065 65.416 210.465 67.184 209.945 69.784C209.841 70.512 206.929 85.488 213.689 97.448C215.041 99.736 217.225 101.088 219.721 101.088C220.033 101.088 220.241 101.088 220.553 101.088C234.177 99.424 260.385 39.416 261.217 36.504C261.945 34.008 261.321 31.512 259.553 29.64ZM265.225 61.672C265.017 61.672 264.705 61.672 264.497 61.672C269.385 55.744 286.233 43.784 297.465 37.44C296.009 40.872 293.825 45.344 291.433 49.4C290.081 51.688 290.913 54.704 293.201 56.056C295.593 57.408 298.609 56.68 299.961 54.288C312.441 32.864 308.697 28.808 307.137 27.04C305.889 25.688 302.977 23.816 297.777 26.312C297.257 26.52 250.457 51.48 253.681 65.104C254.617 69.368 258.465 71.448 265.329 71.448C274.897 71.344 281.449 72.072 285.609 72.8C277.185 75.712 263.457 78.832 257.529 78C254.929 77.688 252.433 79.56 252.017 82.264C251.705 84.864 253.577 87.36 256.281 87.672C257.217 87.88 258.361 87.88 259.609 87.88C271.049 87.88 290.393 82.264 296.217 78.936C301.209 76.128 300.585 72.072 300.169 70.928C298.505 64.584 286.753 61.464 265.225 61.672ZM310.797 84.344C310.797 84.24 310.693 84.032 310.693 83.928C310.693 83.928 310.693 83.928 310.693 83.824C311.109 82.16 310.069 80.392 308.405 79.872L304.661 78.832C302.893 78.416 301.125 79.456 300.709 81.224C300.189 82.888 301.229 84.76 302.997 85.176L304.245 85.488C304.141 86.944 303.517 89.96 301.125 92.456C299.773 93.704 299.773 95.784 301.125 97.032C301.749 97.656 302.581 97.968 303.413 97.968C304.245 97.968 305.077 97.656 305.701 97.032C311.109 91.624 310.797 84.656 310.797 84.344Z" fill="#E5986E"/>
<path d="M428.709 1.768C407.285 0.207998 359.653 7.904 357.677 8.21599C354.973 8.63199 353.101 11.128 353.621 13.832C353.933 16.224 356.013 17.888 358.405 17.888C358.717 17.888 358.925 17.888 359.237 17.888C359.341 17.888 363.917 17.056 370.677 16.12L362.877 37.024L353.829 39.208C351.125 39.832 349.565 42.432 350.085 45.032C350.605 47.32 352.685 48.776 354.869 48.776C355.285 48.776 355.597 48.776 356.013 48.672L358.717 48.048L348.005 76.856C346.965 79.352 348.317 82.16 350.813 83.096C351.437 83.408 351.957 83.512 352.581 83.512C354.557 83.512 356.429 82.264 357.157 80.288L370.157 45.448L382.845 42.432C385.549 41.912 387.109 39.208 386.589 36.608C385.965 34.008 383.261 32.344 380.661 32.968L374.317 34.424L381.701 14.664C397.093 12.688 416.749 10.712 427.981 11.544C430.685 11.648 432.973 9.67199 433.181 6.968C433.389 4.264 431.413 1.97599 428.709 1.768ZM413.516 39.208C409.252 36.192 403.428 35.776 397.5 38.064C392.3 40.248 387.308 44.304 383.46 49.608C379.612 54.912 377.324 60.944 377.012 66.56C376.596 72.904 378.78 78.312 382.94 81.328C385.436 83.096 388.348 83.928 391.468 83.928C393.86 83.928 396.356 83.512 398.956 82.472C404.156 80.392 409.148 76.232 412.996 70.928C421.524 59.176 421.732 45.24 413.516 39.208ZM405.092 65.208C402.388 69.056 398.748 71.968 395.316 73.424C392.612 74.464 390.22 74.464 388.764 73.424C387.308 72.384 386.58 70.096 386.684 67.184C386.996 63.44 388.66 59.072 391.364 55.328C394.172 51.584 397.708 48.568 401.14 47.216C402.596 46.592 403.844 46.384 404.988 46.384C406.132 46.384 407.068 46.592 407.796 47.112C411.02 49.504 410.5 57.72 405.092 65.208ZM405.092 88.608C396.772 86.424 374.412 86.736 371.916 86.84C369.212 86.84 367.028 89.024 367.028 91.728C367.132 94.432 369.42 96.72 372.02 96.616C378.468 96.512 396.668 96.512 402.596 98.072C403.012 98.176 403.428 98.28 403.844 98.28C406.028 98.28 408.004 96.824 408.628 94.536C409.252 91.936 407.692 89.232 405.092 88.608ZM438.385 75.088C438.905 75.192 439.425 75.4 439.945 75.4C440.049 75.4 440.153 75.4 440.257 75.4C442.337 75.4 444.209 74.568 445.665 73.216C457.417 61.464 465.425 35.568 461.057 29.536C460.225 28.288 458.561 27.456 457.105 27.352C455.337 27.144 452.737 27.04 438.489 40.976L440.049 35.672C440.777 33.072 439.321 30.368 436.825 29.64C434.225 28.808 431.417 30.264 430.689 32.864L423.721 56.264C423.305 56.888 423.097 57.616 423.097 58.344L412.489 93.496C411.761 96.096 413.217 98.8 415.817 99.528C416.233 99.736 416.753 99.736 417.169 99.736C419.353 99.736 421.225 98.384 421.849 96.304L427.569 77.48L439.113 91C440.049 92.04 441.401 92.664 442.857 92.664C444.001 92.664 445.041 92.248 445.977 91.52C448.057 89.752 448.265 86.632 446.497 84.552L438.385 75.088ZM451.177 42.432C449.305 49.4 445.561 58.864 439.633 65.312C438.177 64.584 435.577 62.504 433.289 60.112C439.425 53.768 446.185 47.112 451.177 42.432ZM553.82 31.304C551.012 20.592 533.956 17.992 498.804 22.88C496.1 23.296 494.228 25.792 494.54 28.392C494.956 31.096 497.452 32.968 500.156 32.656C503.9 32.032 507.332 31.616 510.452 31.304C491.732 77.064 493.812 79.144 496.1 81.536C497.14 82.576 498.492 83.096 499.844 83.096C500.468 83.096 501.196 82.992 501.82 82.68C502.444 82.472 559.124 50.96 553.82 31.304ZM506.708 68.536C509.932 59.176 515.756 44.304 521.476 30.472C542.796 29.432 544.356 33.8 544.356 33.8C546.332 40.248 521.372 59.072 506.708 68.536ZM611.894 33.28C611.27 30.68 608.67 29.016 606.07 29.536L558.334 39.312C555.63 39.936 553.966 42.432 554.486 45.136C555.006 47.424 556.982 48.984 559.27 48.984C559.582 48.984 559.894 48.984 560.31 48.88L578.406 45.136C574.454 58.552 565.926 86.216 557.71 105.04C556.67 97.656 556.254 85.28 556.566 74.568C556.566 71.864 554.486 69.576 551.782 69.576C549.078 69.472 546.79 71.656 546.79 74.36C545.75 117.312 552.198 118.768 555.318 119.392C555.838 119.496 556.358 119.6 556.774 119.6C561.974 119.6 564.886 113.048 566.134 110.136C576.014 87.776 586.31 53.144 589.326 42.952L608.046 39.104C610.646 38.584 612.414 35.984 611.894 33.28ZM641.621 74.048C640.581 68.536 633.717 66.976 623.421 64.48C618.533 63.336 613.437 62.192 609.589 60.632C609.485 60.632 609.381 60.528 609.277 60.528C612.085 57.408 621.341 52.416 627.685 49.192L627.061 55.224C626.853 57.928 628.829 60.32 631.429 60.632C631.637 60.632 631.845 60.632 631.949 60.632C634.445 60.632 636.525 58.76 636.837 56.264L638.709 36.816C639.021 34.112 637.045 31.72 634.341 31.408C631.741 31.2 629.245 33.176 629.037 35.88L628.829 37.96C628.309 38.064 627.789 38.168 627.373 38.376C609.901 47.112 598.461 53.456 598.773 61.464C598.877 63.96 600.229 67.496 605.949 69.68C610.525 71.552 616.245 72.904 621.237 74.048C623.317 74.568 626.021 75.192 628.309 75.816C620.301 79.768 607.093 83.408 601.893 84.552C599.293 85.176 597.629 87.776 598.253 90.48C598.773 92.664 600.853 94.224 603.037 94.224C603.349 94.224 603.765 94.224 604.181 94.12C605.117 93.912 627.581 88.608 637.461 81.848C641.517 79.144 641.933 76.128 641.621 74.048Z" fill="white"/>
</svg>
