<svg width="928" height="701" viewBox="0 0 928 701" fill="none" xmlns="http://www.w3.org/2000/svg">
<rect width="928" height="73" fill="#C4C4C4"/>
<rect x="0.5" y="1.5" width="927" height="699" stroke="white"/>
<line x1="4.37114e-08" y1="74.5" x2="928" y2="74.5001" stroke="white"/>
<path d="M31.2451 122.7C31.2451 124.65 30.1201 126.05 27.5451 126.05H24.1951V119.45H27.5451C30.1451 119.45 31.2451 120.725 31.2451 122.7ZM21.9201 117.575V135H24.1951V127.875H26.9451L31.0951 135H33.8201L29.4451 127.7C32.3701 127.05 33.5951 124.925 33.5951 122.7C33.5951 119.85 31.6451 117.575 27.5451 117.575H21.9201ZM42.9551 123C45.3051 123 47.3051 124.475 47.2801 127.15H38.6301C38.8801 124.475 40.7301 123 42.9551 123ZM49.3551 130.775H46.9051C46.4051 132.25 45.1051 133.3 43.0551 133.3C40.7301 133.3 38.7801 131.775 38.6051 129H49.5551C49.6051 128.525 49.6301 128.125 49.6301 127.625C49.6301 123.875 47.0301 121.075 43.0551 121.075C39.0551 121.075 36.2801 123.8 36.2801 128.125C36.2801 132.475 39.1551 135.225 43.0551 135.225C46.4551 135.225 48.6551 133.275 49.3551 130.775ZM51.783 128.1C51.783 132.35 54.608 135.225 58.258 135.225C60.783 135.225 62.558 133.925 63.383 132.45V135H65.683V121.3H63.383V123.8C62.583 122.375 60.833 121.075 58.283 121.075C54.608 121.075 51.783 123.825 51.783 128.1ZM63.383 128.125C63.383 131.35 61.233 133.225 58.733 133.225C56.233 133.225 54.108 131.325 54.108 128.1C54.108 124.875 56.233 123.05 58.733 123.05C61.233 123.05 63.383 124.95 63.383 128.125ZM69.5275 135H71.8025V116.5H69.5275V135ZM75.2049 126.8H85.1799V124.875H75.2049V126.8ZM88.3744 119.425H93.1494V135H95.4244V119.425H100.174V117.575H88.3744V119.425ZM102.975 135H105.25V121.3H102.975V135ZM104.15 119.075C104.975 119.075 105.65 118.4 105.65 117.525C105.65 116.65 104.975 115.975 104.15 115.975C103.275 115.975 102.6 116.65 102.6 117.525C102.6 118.4 103.275 119.075 104.15 119.075ZM128.902 135H131.152V126.925C131.152 123 128.727 121.05 125.602 121.05C123.502 121.05 121.552 122.125 120.752 124.1C119.852 122.05 117.977 121.05 115.727 121.05C113.927 121.05 112.302 121.825 111.402 123.275V121.3H109.127V135H111.402V127.45C111.402 124.5 112.977 123.025 115.277 123.025C117.527 123.025 119.027 124.45 119.027 127.25V135H121.277V127.45C121.277 124.5 122.852 123.025 125.152 123.025C127.402 123.025 128.902 124.45 128.902 127.25V135ZM140.709 123C143.059 123 145.059 124.475 145.034 127.15H136.384C136.634 124.475 138.484 123 140.709 123ZM147.109 130.775H144.659C144.159 132.25 142.859 133.3 140.809 133.3C138.484 133.3 136.534 131.775 136.359 129H147.309C147.359 128.525 147.384 128.125 147.384 127.625C147.384 123.875 144.784 121.075 140.809 121.075C136.809 121.075 134.034 123.8 134.034 128.125C134.034 132.475 136.909 135.225 140.809 135.225C144.209 135.225 146.409 133.275 147.109 130.775ZM162.477 117.575H157.052V135H162.477C168.202 135 171.727 131.725 171.727 126.325C171.727 120.925 168.202 117.575 162.477 117.575ZM159.327 133.125V119.425H162.477C167.027 119.425 169.402 122.075 169.402 126.325C169.402 130.575 167.027 133.125 162.477 133.125H159.327ZM174.728 135H177.003V121.3H174.728V135ZM175.903 119.075C176.728 119.075 177.403 118.4 177.403 117.525C177.403 116.65 176.728 115.975 175.903 115.975C175.028 115.975 174.353 116.65 174.353 117.525C174.353 118.4 175.028 119.075 175.903 119.075ZM183.155 127.55C183.155 124.375 184.805 123.4 186.98 123.4H187.58V121.05C185.405 121.05 183.93 122 183.155 123.525V121.3H180.88V135H183.155V127.55ZM196.031 123C198.381 123 200.381 124.475 200.356 127.15H191.706C191.956 124.475 193.806 123 196.031 123ZM202.431 130.775H199.981C199.481 132.25 198.181 133.3 196.131 133.3C193.806 133.3 191.856 131.775 191.681 129H202.631C202.681 128.525 202.706 128.125 202.706 127.625C202.706 123.875 200.106 121.075 196.131 121.075C192.131 121.075 189.356 123.8 189.356 128.125C189.356 132.475 192.231 135.225 196.131 135.225C199.531 135.225 201.731 133.275 202.431 130.775ZM204.859 128.125C204.859 132.475 207.634 135.225 211.534 135.225C214.934 135.225 217.159 133.325 217.859 130.6H215.409C214.909 132.325 213.559 133.3 211.534 133.3C209.034 133.3 207.184 131.525 207.184 128.125C207.184 124.775 209.034 123 211.534 123C213.559 123 214.934 124.05 215.409 125.7H217.859C217.159 122.825 214.934 121.075 211.534 121.075C207.634 121.075 204.859 123.825 204.859 128.125ZM221.395 131.25C221.395 134 222.77 135 225.195 135H227.245V133.075H225.57C224.17 133.075 223.67 132.6 223.67 131.25V123.175H227.245V121.3H223.67V117.85H221.395V121.3H219.62V123.175H221.395V131.25ZM237.166 131.25C237.166 134 238.541 135 240.966 135H243.016V133.075H241.341C239.941 133.075 239.441 132.6 239.441 131.25V123.175H243.016V121.3H239.441V117.85H237.166V121.3H235.391V123.175H237.166V131.25ZM258.773 128.125C258.773 123.8 255.748 121.075 251.848 121.075C247.973 121.075 244.923 123.8 244.923 128.125C244.923 132.475 247.873 135.225 251.748 135.225C255.648 135.225 258.773 132.475 258.773 128.125ZM247.248 128.125C247.248 124.675 249.423 123.05 251.823 123.05C254.173 123.05 256.448 124.675 256.448 128.125C256.448 131.6 254.123 133.225 251.748 133.225C249.373 133.225 247.248 131.6 247.248 128.125ZM280.129 135H282.529L276.254 117.675H273.629L267.329 135H269.729L271.129 131.125H278.729L280.129 135ZM278.079 129.275H271.779L274.929 120.475L278.079 129.275ZM287.55 127.55C287.55 124.375 289.2 123.4 291.375 123.4H291.975V121.05C289.8 121.05 288.325 122 287.55 123.525V121.3H285.275V135H287.55V127.55ZM295.101 131.25C295.101 134 296.476 135 298.901 135H300.951V133.075H299.276C297.876 133.075 297.376 132.6 297.376 131.25V123.175H300.951V121.3H297.376V117.85H295.101V121.3H293.326V123.175H295.101V131.25ZM303.707 135H305.982V121.3H303.707V135ZM304.882 119.075C305.707 119.075 306.382 118.4 306.382 117.525C306.382 116.65 305.707 115.975 304.882 115.975C304.007 115.975 303.332 116.65 303.332 117.525C303.332 118.4 304.007 119.075 304.882 119.075ZM319.71 131.275C319.61 126.375 311.66 128.15 311.66 124.9C311.66 123.8 312.66 123 314.335 123C316.16 123 317.21 124 317.31 125.375H319.585C319.435 122.7 317.435 121.075 314.41 121.075C311.36 121.075 309.385 122.8 309.385 124.9C309.385 130 317.485 128.225 317.485 131.275C317.485 132.4 316.485 133.3 314.685 133.3C312.76 133.3 311.585 132.3 311.46 130.975H309.11C309.26 133.475 311.51 135.225 314.71 135.225C317.735 135.225 319.71 133.525 319.71 131.275ZM323.421 131.25C323.421 134 324.796 135 327.221 135H329.271V133.075H327.596C326.196 133.075 325.696 132.6 325.696 131.25V123.175H329.271V121.3H325.696V117.85H323.421V121.3H321.646V123.175H323.421V131.25ZM340.968 125.85V119.45H344.318C346.918 119.45 348.018 120.65 348.018 122.675C348.018 124.625 346.918 125.85 344.318 125.85H340.968ZM350.343 122.675C350.343 119.825 348.418 117.575 344.318 117.575H338.693V135H340.968V127.725H344.318C348.643 127.725 350.343 125.325 350.343 122.675ZM352.32 128.1C352.32 132.35 355.145 135.225 358.795 135.225C361.32 135.225 363.095 133.925 363.92 132.45V135H366.22V121.3H363.92V123.8C363.12 122.375 361.37 121.075 358.82 121.075C355.145 121.075 352.32 123.825 352.32 128.1ZM363.92 128.125C363.92 131.35 361.77 133.225 359.27 133.225C356.77 133.225 354.645 131.325 354.645 128.1C354.645 124.875 356.77 123.05 359.27 123.05C361.77 123.05 363.92 124.95 363.92 128.125ZM375.265 132.4L370.965 121.3H368.44L373.965 134.85L371.265 141.45H373.615L381.865 121.3H379.515L375.265 132.4ZM397.152 128.125C397.152 123.8 394.127 121.075 390.227 121.075C386.352 121.075 383.302 123.8 383.302 128.125C383.302 132.475 386.252 135.225 390.127 135.225C394.027 135.225 397.152 132.475 397.152 128.125ZM385.627 128.125C385.627 124.675 387.802 123.05 390.202 123.05C392.552 123.05 394.827 124.675 394.827 128.125C394.827 131.6 392.502 133.225 390.127 133.225C387.752 133.225 385.627 131.6 385.627 128.125ZM412.293 121.3H410.018V128.825C410.018 131.775 408.443 133.225 406.093 133.225C403.793 133.225 402.268 131.8 402.268 129.025V121.3H400.018V129.325C400.018 133.25 402.493 135.2 405.643 135.2C407.468 135.2 409.143 134.4 410.018 132.975V135H412.293V121.3ZM416.634 131.25C416.634 134 418.009 135 420.434 135H422.484V133.075H420.809C419.409 133.075 418.909 132.6 418.909 131.25V123.175H422.484V121.3H418.909V117.85H416.634V121.3H414.859V123.175H416.634V131.25ZM435.09 131.275C434.99 126.375 427.04 128.15 427.04 124.9C427.04 123.8 428.04 123 429.715 123C431.54 123 432.59 124 432.69 125.375H434.965C434.815 122.7 432.815 121.075 429.79 121.075C426.74 121.075 424.765 122.8 424.765 124.9C424.765 130 432.865 128.225 432.865 131.275C432.865 132.4 431.865 133.3 430.065 133.3C428.14 133.3 426.965 132.3 426.84 130.975H424.49C424.64 133.475 426.89 135.225 430.09 135.225C433.115 135.225 435.09 133.525 435.09 131.275Z" fill="#B1B1B1"/>
<line x1="4.37114e-08" y1="176.5" x2="928" y2="176.5" stroke="white"/>
<path d="M28.4451 234.6L22.9701 219.575H20.5451L27.1201 237H29.7451L36.3201 219.575H33.9201L28.4451 234.6ZM44.6396 225C46.9896 225 48.9896 226.475 48.9646 229.15H40.3146C40.5646 226.475 42.4146 225 44.6396 225ZM51.0396 232.775H48.5896C48.0896 234.25 46.7896 235.3 44.7396 235.3C42.4146 235.3 40.4646 233.775 40.2896 231H51.2396C51.2896 230.525 51.3146 230.125 51.3146 229.625C51.3146 225.875 48.7146 223.075 44.7396 223.075C40.7396 223.075 37.9646 225.8 37.9646 230.125C37.9646 234.475 40.8396 237.225 44.7396 237.225C48.1396 237.225 50.3396 235.275 51.0396 232.775ZM56.5926 229.55C56.5926 226.375 58.2426 225.4 60.4176 225.4H61.0176V223.05C58.8426 223.05 57.3676 224 56.5926 225.525V223.3H54.3176V237H56.5926V229.55ZM63.6438 237H65.9188V223.3H63.6438V237ZM64.8188 221.075C65.6438 221.075 66.3188 220.4 66.3188 219.525C66.3188 218.65 65.6438 217.975 64.8188 217.975C63.9438 217.975 63.2688 218.65 63.2688 219.525C63.2688 220.4 63.9438 221.075 64.8188 221.075ZM70.2211 237H72.4961V225.175H75.3711V223.3H72.4961V222.325C72.4961 220.55 73.1711 219.8 75.2211 219.8V217.9C71.7211 217.9 70.2211 219.275 70.2211 222.325V223.3H68.4461V225.175H70.2211V237ZM78.0236 237H80.2986V223.3H78.0236V237ZM79.1986 221.075C80.0236 221.075 80.6986 220.4 80.6986 219.525C80.6986 218.65 80.0236 217.975 79.1986 217.975C78.3236 217.975 77.6486 218.65 77.6486 219.525C77.6486 220.4 78.3236 221.075 79.1986 221.075ZM83.326 230.1C83.326 234.35 86.151 237.225 89.801 237.225C92.326 237.225 94.101 235.925 94.926 234.45V237H97.226V223.3H94.926V225.8C94.126 224.375 92.376 223.075 89.826 223.075C86.151 223.075 83.326 225.825 83.326 230.1ZM94.926 230.125C94.926 233.35 92.776 235.225 90.276 235.225C87.776 235.225 85.651 233.325 85.651 230.1C85.651 226.875 87.776 225.05 90.276 225.05C92.776 225.05 94.926 226.95 94.926 230.125ZM103.346 225.85V218.5H101.071V237H103.346V234.475C104.196 235.975 105.971 237.225 108.471 237.225C112.146 237.225 114.971 234.35 114.971 230.1C114.971 225.825 112.171 223.075 108.471 223.075C106.046 223.075 104.221 224.325 103.346 225.85ZM112.646 230.1C112.646 233.325 110.521 235.225 107.996 235.225C105.521 235.225 103.346 233.35 103.346 230.125C103.346 226.95 105.521 225.05 107.996 225.05C110.521 225.05 112.646 226.875 112.646 230.1ZM117.965 237H120.24V218.5H117.965V237ZM129.317 234.4L125.017 223.3H122.492L128.017 236.85L125.317 243.45H127.667L135.917 223.3H133.567L129.317 234.4ZM156.194 232.25C156.194 225.8 146.794 228.6 146.794 224.1C146.794 222.225 148.269 221.25 150.144 221.3C152.269 221.325 153.369 222.65 153.519 223.825H156.019C155.744 221.175 153.569 219.35 150.244 219.35C146.794 219.35 144.469 221.3 144.469 224.175C144.469 230.65 153.894 227.65 153.894 232.35C153.894 234 152.594 235.25 150.394 235.25C147.969 235.25 146.944 233.8 146.794 232.35H144.369C144.419 235.225 146.894 237.175 150.394 237.175C154.169 237.175 156.194 234.725 156.194 232.25ZM158.692 230.125C158.692 234.475 161.467 237.225 165.367 237.225C168.767 237.225 170.992 235.325 171.692 232.6H169.242C168.742 234.325 167.392 235.3 165.367 235.3C162.867 235.3 161.017 233.525 161.017 230.125C161.017 226.775 162.867 225 165.367 225C167.392 225 168.767 226.05 169.242 227.7H171.692C170.992 224.825 168.767 223.075 165.367 223.075C161.467 223.075 158.692 225.825 158.692 230.125ZM173.878 230.1C173.878 234.35 176.703 237.225 180.353 237.225C182.878 237.225 184.653 235.925 185.478 234.45V237H187.778V223.3H185.478V225.8C184.678 224.375 182.928 223.075 180.378 223.075C176.703 223.075 173.878 225.825 173.878 230.1ZM185.478 230.125C185.478 233.35 183.328 235.225 180.828 235.225C178.328 235.225 176.203 233.325 176.203 230.1C176.203 226.875 178.328 225.05 180.828 225.05C183.328 225.05 185.478 226.95 185.478 230.125ZM193.897 229.55C193.897 226.375 195.547 225.4 197.722 225.4H198.322V223.05C196.147 223.05 194.672 224 193.897 225.525V223.3H191.622V237H193.897V229.55ZM200.098 230.125C200.098 234.475 202.873 237.225 206.773 237.225C210.173 237.225 212.398 235.325 213.098 232.6H210.648C210.148 234.325 208.798 235.3 206.773 235.3C204.273 235.3 202.423 233.525 202.423 230.125C202.423 226.775 204.273 225 206.773 225C208.798 225 210.173 226.05 210.648 227.7H213.098C212.398 224.825 210.173 223.075 206.773 223.075C202.873 223.075 200.098 225.825 200.098 230.125ZM221.959 225C224.309 225 226.309 226.475 226.284 229.15H217.634C217.884 226.475 219.734 225 221.959 225ZM228.359 232.775H225.909C225.409 234.25 224.109 235.3 222.059 235.3C219.734 235.3 217.784 233.775 217.609 231H228.559C228.609 230.525 228.634 230.125 228.634 229.625C228.634 225.875 226.034 223.075 222.059 223.075C218.059 223.075 215.284 225.8 215.284 230.125C215.284 234.475 218.159 237.225 222.059 237.225C225.459 237.225 227.659 235.275 228.359 232.775ZM238.302 237H240.577V224.075L246.352 237H247.952L253.702 224.1V237H255.977V219.7H253.552L247.152 234L240.752 219.7H238.302V237ZM265.66 225C268.01 225 270.01 226.475 269.985 229.15H261.335C261.585 226.475 263.435 225 265.66 225ZM272.06 232.775H269.61C269.11 234.25 267.81 235.3 265.76 235.3C263.435 235.3 261.485 233.775 261.31 231H272.26C272.31 230.525 272.335 230.125 272.335 229.625C272.335 225.875 269.735 223.075 265.76 223.075C261.76 223.075 258.985 225.8 258.985 230.125C258.985 234.475 261.86 237.225 265.76 237.225C269.16 237.225 271.36 235.275 272.06 232.775ZM274.488 230.1C274.488 234.35 277.313 237.225 280.988 237.225C283.488 237.225 285.263 235.95 286.088 234.425V237H288.388V218.5H286.088V225.75C285.138 224.175 283.163 223.075 281.013 223.075C277.313 223.075 274.488 225.825 274.488 230.1ZM286.088 230.125C286.088 233.35 283.938 235.225 281.438 235.225C278.938 235.225 276.813 233.325 276.813 230.1C276.813 226.875 278.938 225.05 281.438 225.05C283.938 225.05 286.088 226.95 286.088 230.125ZM292.233 237H294.508V223.3H292.233V237ZM293.408 221.075C294.233 221.075 294.908 220.4 294.908 219.525C294.908 218.65 294.233 217.975 293.408 217.975C292.533 217.975 291.858 218.65 291.858 219.525C291.858 220.4 292.533 221.075 293.408 221.075ZM297.535 230.1C297.535 234.35 300.36 237.225 304.01 237.225C306.535 237.225 308.31 235.925 309.135 234.45V237H311.435V223.3H309.135V225.8C308.335 224.375 306.585 223.075 304.035 223.075C300.36 223.075 297.535 225.825 297.535 230.1ZM309.135 230.125C309.135 233.35 306.985 235.225 304.485 235.225C301.985 235.225 299.86 233.325 299.86 230.1C299.86 226.875 301.985 225.05 304.485 225.05C306.985 225.05 309.135 226.95 309.135 230.125Z" fill="#B1B1B1"/>
<line x1="4.37114e-08" y1="278.5" x2="928" y2="278.5" stroke="white"/>
<path d="M21.0701 330.275C21.0701 335.5 24.8951 339.15 29.7701 339.15C33.5451 339.15 36.5451 337.275 37.8451 333.925H35.1201C34.1701 336 32.3201 337.175 29.7701 337.175C26.1201 337.175 23.3951 334.525 23.3951 330.275C23.3951 326 26.1201 323.35 29.7701 323.35C32.3201 323.35 34.1701 324.525 35.1201 326.625H37.8451C36.5451 323.25 33.5451 321.35 29.7701 321.35C24.8951 321.35 21.0701 325.05 21.0701 330.275ZM54.2316 332.125C54.2316 327.8 51.2066 325.075 47.3066 325.075C43.4316 325.075 40.3816 327.8 40.3816 332.125C40.3816 336.475 43.3316 339.225 47.2066 339.225C51.1066 339.225 54.2316 336.475 54.2316 332.125ZM42.7066 332.125C42.7066 328.675 44.8816 327.05 47.2816 327.05C49.6316 327.05 51.9066 328.675 51.9066 332.125C51.9066 335.6 49.5816 337.225 47.2066 337.225C44.8316 337.225 42.7066 335.6 42.7066 332.125ZM57.2229 339H59.4979V320.5H57.2229V339ZM63.3752 339H65.6502V320.5H63.3752V339ZM75.3525 327C77.7025 327 79.7025 328.475 79.6775 331.15H71.0275C71.2775 328.475 73.1275 327 75.3525 327ZM81.7525 334.775H79.3025C78.8025 336.25 77.5025 337.3 75.4525 337.3C73.1275 337.3 71.1775 335.775 71.0025 333H81.9525C82.0025 332.525 82.0275 332.125 82.0275 331.625C82.0275 327.875 79.4275 325.075 75.4525 325.075C71.4525 325.075 68.6775 327.8 68.6775 332.125C68.6775 336.475 71.5525 339.225 75.4525 339.225C78.8525 339.225 81.0525 337.275 81.7525 334.775ZM84.1805 332.125C84.1805 336.475 86.9555 339.225 90.8555 339.225C94.2555 339.225 96.4805 337.325 97.1805 334.6H94.7305C94.2305 336.325 92.8805 337.3 90.8555 337.3C88.3555 337.3 86.5055 335.525 86.5055 332.125C86.5055 328.775 88.3555 327 90.8555 327C92.8805 327 94.2555 328.05 94.7305 329.7H97.1805C96.4805 326.825 94.2555 325.075 90.8555 325.075C86.9555 325.075 84.1805 327.825 84.1805 332.125ZM100.716 335.25C100.716 338 102.091 339 104.516 339H106.566V337.075H104.891C103.491 337.075 102.991 336.6 102.991 335.25V327.175H106.566V325.3H102.991V321.85H100.716V325.3H98.941V327.175H100.716V335.25ZM126.488 325.3C126.613 322.975 124.938 321.225 122.188 321.225C119.363 321.225 117.588 322.875 117.588 325.1C117.588 326.375 118.013 327.35 119.088 328.6C116.363 329.675 114.988 331.6 114.988 334C114.988 337.225 117.463 339.3 121.088 339.3C123.538 339.3 125.413 338.45 127.088 336.7L129.363 339H132.338L128.413 335.075C128.762 334.575 129.088 334.075 129.413 333.5L131.463 329.95H129.013L127.313 332.8C127.163 333.05 127.013 333.275 126.863 333.5L121.663 328.275C120.438 326.975 119.863 326.125 119.863 325.1C119.863 323.95 120.738 323.1 122.088 323.1C123.313 323.1 124.263 323.875 124.213 325.3H126.488ZM121.088 337.35C118.813 337.35 117.263 335.875 117.263 333.925C117.263 332.175 118.288 330.875 120.463 330.05L125.588 335.2C124.288 336.65 122.888 337.35 121.088 337.35ZM150.459 326.7C150.459 328.65 149.334 330.05 146.759 330.05H143.409V323.45H146.759C149.359 323.45 150.459 324.725 150.459 326.7ZM141.134 321.575V339H143.409V331.875H146.159L150.309 339H153.034L148.659 331.7C151.584 331.05 152.809 328.925 152.809 326.7C152.809 323.85 150.859 321.575 146.759 321.575H141.134ZM162.169 327C164.519 327 166.519 328.475 166.494 331.15H157.844C158.094 328.475 159.944 327 162.169 327ZM168.569 334.775H166.119C165.619 336.25 164.319 337.3 162.269 337.3C159.944 337.3 157.994 335.775 157.819 333H168.769C168.819 332.525 168.844 332.125 168.844 331.625C168.844 327.875 166.244 325.075 162.269 325.075C158.269 325.075 155.494 327.8 155.494 332.125C155.494 336.475 158.369 339.225 162.269 339.225C165.669 339.225 167.869 337.275 168.569 334.775ZM181.697 335.275C181.597 330.375 173.647 332.15 173.647 328.9C173.647 327.8 174.647 327 176.322 327C178.147 327 179.197 328 179.297 329.375H181.572C181.422 326.7 179.422 325.075 176.397 325.075C173.347 325.075 171.372 326.8 171.372 328.9C171.372 334 179.472 332.225 179.472 335.275C179.472 336.4 178.472 337.3 176.672 337.3C174.747 337.3 173.572 336.3 173.447 334.975H171.097C171.247 337.475 173.497 339.225 176.697 339.225C179.722 339.225 181.697 337.525 181.697 335.275ZM190.733 327C193.083 327 195.083 328.475 195.058 331.15H186.408C186.658 328.475 188.508 327 190.733 327ZM197.133 334.775H194.683C194.183 336.25 192.883 337.3 190.833 337.3C188.508 337.3 186.558 335.775 186.383 333H197.333C197.383 332.525 197.408 332.125 197.408 331.625C197.408 327.875 194.808 325.075 190.833 325.075C186.833 325.075 184.058 327.8 184.058 332.125C184.058 336.475 186.933 339.225 190.833 339.225C194.233 339.225 196.433 337.275 197.133 334.775ZM200.411 339H202.686V320.5H200.411V339ZM206.564 339H208.839V320.5H206.564V339ZM219.381 339H221.656V321.575H219.381V339ZM235.558 339H237.808V330.925C237.808 327 235.383 325.05 232.208 325.05C230.358 325.05 228.708 325.825 227.808 327.25V325.3H225.533V339H227.808V331.425C227.808 328.475 229.408 327.025 231.733 327.025C234.033 327.025 235.558 328.45 235.558 331.25V339ZM259.515 334.25C259.515 327.8 250.115 330.6 250.115 326.1C250.115 324.225 251.59 323.25 253.465 323.3C255.59 323.325 256.69 324.65 256.84 325.825H259.34C259.065 323.175 256.89 321.35 253.565 321.35C250.115 321.35 247.79 323.3 247.79 326.175C247.79 332.65 257.215 329.65 257.215 334.35C257.215 336 255.915 337.25 253.715 337.25C251.29 337.25 250.265 335.8 250.115 334.35H247.69C247.74 337.225 250.215 339.175 253.715 339.175C257.49 339.175 259.515 336.725 259.515 334.25ZM268.688 327C271.038 327 273.038 328.475 273.013 331.15H264.363C264.612 328.475 266.463 327 268.688 327ZM275.088 334.775H272.638C272.138 336.25 270.838 337.3 268.788 337.3C266.463 337.3 264.513 335.775 264.338 333H275.288C275.338 332.525 275.363 332.125 275.363 331.625C275.363 327.875 272.763 325.075 268.788 325.075C264.788 325.075 262.013 327.8 262.013 332.125C262.013 336.475 264.888 339.225 268.788 339.225C272.188 339.225 274.388 337.275 275.088 334.775ZM277.515 332.125C277.515 336.475 280.29 339.225 284.19 339.225C287.59 339.225 289.815 337.325 290.515 334.6H288.065C287.565 336.325 286.215 337.3 284.19 337.3C281.69 337.3 279.84 335.525 279.84 332.125C279.84 328.775 281.69 327 284.19 327C286.215 327 287.59 328.05 288.065 329.7H290.515C289.815 326.825 287.59 325.075 284.19 325.075C280.29 325.075 277.515 327.825 277.515 332.125ZM306.551 332.125C306.551 327.8 303.526 325.075 299.626 325.075C295.751 325.075 292.701 327.8 292.701 332.125C292.701 336.475 295.651 339.225 299.526 339.225C303.426 339.225 306.551 336.475 306.551 332.125ZM295.026 332.125C295.026 328.675 297.201 327.05 299.601 327.05C301.951 327.05 304.226 328.675 304.226 332.125C304.226 335.6 301.901 337.225 299.526 337.225C297.151 337.225 295.026 335.6 295.026 332.125ZM319.567 339H321.817V330.925C321.817 327 319.392 325.05 316.217 325.05C314.367 325.05 312.717 325.825 311.817 327.25V325.3H309.542V339H311.817V331.425C311.817 328.475 313.417 327.025 315.742 327.025C318.042 327.025 319.567 328.45 319.567 331.25V339ZM324.683 332.1C324.683 336.35 327.508 339.225 331.183 339.225C333.683 339.225 335.458 337.95 336.283 336.425V339H338.583V320.5H336.283V327.75C335.333 326.175 333.358 325.075 331.208 325.075C327.508 325.075 324.683 327.825 324.683 332.1ZM336.283 332.125C336.283 335.35 334.133 337.225 331.633 337.225C329.133 337.225 327.008 335.325 327.008 332.1C327.008 328.875 329.133 327.05 331.633 327.05C334.133 327.05 336.283 328.95 336.283 332.125ZM341.578 332.1C341.578 336.35 344.403 339.225 348.053 339.225C350.578 339.225 352.353 337.925 353.178 336.45V339H355.478V325.3H353.178V327.8C352.378 326.375 350.628 325.075 348.078 325.075C344.403 325.075 341.578 327.825 341.578 332.1ZM353.178 332.125C353.178 335.35 351.028 337.225 348.528 337.225C346.028 337.225 343.903 335.325 343.903 332.1C343.903 328.875 346.028 327.05 348.528 327.05C351.028 327.05 353.178 328.95 353.178 332.125ZM361.597 331.55C361.597 328.375 363.247 327.4 365.422 327.4H366.022V325.05C363.847 325.05 362.372 326 361.597 327.525V325.3H359.322V339H361.597V331.55ZM373.849 336.4L369.549 325.3H367.024L372.549 338.85L369.849 345.45H372.199L380.449 325.3H378.099L373.849 336.4ZM389.401 339H391.676V326.075L397.451 339H399.051L404.801 326.1V339H407.076V321.7H404.651L398.251 336L391.851 321.7H389.401V339ZM410.084 332.1C410.084 336.35 412.909 339.225 416.559 339.225C419.084 339.225 420.859 337.925 421.684 336.45V339H423.984V325.3H421.684V327.8C420.884 326.375 419.134 325.075 416.584 325.075C412.909 325.075 410.084 327.825 410.084 332.1ZM421.684 332.125C421.684 335.35 419.534 337.225 417.034 337.225C414.534 337.225 412.409 335.325 412.409 332.1C412.409 328.875 414.534 327.05 417.034 327.05C419.534 327.05 421.684 328.95 421.684 332.125ZM430.103 331.55C430.103 328.375 431.753 327.4 433.928 327.4H434.528V325.05C432.353 325.05 430.878 326 430.103 327.525V325.3H427.828V339H430.103V331.55ZM437.154 339H439.429V332.95L444.804 339H447.904L441.429 332.125L447.879 325.3H444.704L439.429 331.375V320.5H437.154V339ZM455.846 327C458.196 327 460.196 328.475 460.171 331.15H451.521C451.771 328.475 453.621 327 455.846 327ZM462.246 334.775H459.796C459.296 336.25 457.996 337.3 455.946 337.3C453.621 337.3 451.671 335.775 451.496 333H462.446C462.496 332.525 462.521 332.125 462.521 331.625C462.521 327.875 459.921 325.075 455.946 325.075C451.946 325.075 449.171 327.8 449.171 332.125C449.171 336.475 452.046 339.225 455.946 339.225C459.346 339.225 461.546 337.275 462.246 334.775ZM466.024 335.25C466.024 338 467.399 339 469.824 339H471.874V337.075H470.199C468.799 337.075 468.299 336.6 468.299 335.25V327.175H471.874V325.3H468.299V321.85H466.024V325.3H464.249V327.175H466.024V335.25ZM484.48 335.275C484.38 330.375 476.43 332.15 476.43 328.9C476.43 327.8 477.43 327 479.105 327C480.93 327 481.98 328 482.08 329.375H484.355C484.205 326.7 482.205 325.075 479.18 325.075C476.13 325.075 474.155 326.8 474.155 328.9C474.155 334 482.255 332.225 482.255 335.275C482.255 336.4 481.255 337.3 479.455 337.3C477.53 337.3 476.355 336.3 476.23 334.975H473.88C474.03 337.475 476.28 339.225 479.48 339.225C482.505 339.225 484.48 337.525 484.48 335.275Z" fill="#B1B1B1"/>
<line x1="4.37114e-08" y1="380.5" x2="928" y2="380.5" stroke="white"/>
<path d="M33.6201 441H36.0201L29.7451 423.675H27.1201L20.8201 441H23.2201L24.6201 437.125H32.2201L33.6201 441ZM31.5701 435.275H25.2701L28.4201 426.475L31.5701 435.275ZM41.0408 433.55C41.0408 430.375 42.6908 429.4 44.8658 429.4H45.4658V427.05C43.2908 427.05 41.8158 428 41.0408 429.525V427.3H38.7658V441H41.0408V433.55ZM48.592 437.25C48.592 440 49.967 441 52.392 441H54.442V439.075H52.767C51.367 439.075 50.867 438.6 50.867 437.25V429.175H54.442V427.3H50.867V423.85H48.592V427.3H46.817V429.175H48.592V437.25ZM57.1984 441H59.4734V427.3H57.1984V441ZM58.3734 425.075C59.1984 425.075 59.8734 424.4 59.8734 423.525C59.8734 422.65 59.1984 421.975 58.3734 421.975C57.4984 421.975 56.8234 422.65 56.8234 423.525C56.8234 424.4 57.4984 425.075 58.3734 425.075ZM73.2008 437.275C73.1008 432.375 65.1508 434.15 65.1508 430.9C65.1508 429.8 66.1508 429 67.8258 429C69.6508 429 70.7008 430 70.8008 431.375H73.0758C72.9258 428.7 70.9258 427.075 67.9008 427.075C64.8508 427.075 62.8758 428.8 62.8758 430.9C62.8758 436 70.9758 434.225 70.9758 437.275C70.9758 438.4 69.9758 439.3 68.1758 439.3C66.2508 439.3 65.0758 438.3 64.9508 436.975H62.6008C62.7508 439.475 65.0008 441.225 68.2008 441.225C71.2258 441.225 73.2008 439.525 73.2008 437.275ZM76.9123 437.25C76.9123 440 78.2873 441 80.7123 441H82.7623V439.075H81.0873C79.6873 439.075 79.1873 438.6 79.1873 437.25V429.175H82.7623V427.3H79.1873V423.85H76.9123V427.3H75.1373V429.175H76.9123V437.25ZM95.3688 437.275C95.2688 432.375 87.3188 434.15 87.3188 430.9C87.3188 429.8 88.3188 429 89.9938 429C91.8188 429 92.8688 430 92.9688 431.375H95.2438C95.0938 428.7 93.0938 427.075 90.0688 427.075C87.0188 427.075 85.0438 428.8 85.0438 430.9C85.0438 436 93.1438 434.225 93.1438 437.275C93.1438 438.4 92.1438 439.3 90.3438 439.3C88.4188 439.3 87.2438 438.3 87.1188 436.975H84.7688C84.9188 439.475 87.1688 441.225 90.3688 441.225C93.3938 441.225 95.3688 439.525 95.3688 437.275ZM113.145 423.375C108.245 423.375 104.395 427.05 104.395 432.275C104.395 437.5 108.245 441.15 113.145 441.15C117.87 441.15 121.295 437.675 121.695 433.35V431.6H112.32V433.45H119.27C118.92 436.9 116.57 439.1 113.145 439.1C109.47 439.1 106.72 436.45 106.72 432.275C106.72 428.075 109.47 425.425 113.145 425.425C115.595 425.425 117.495 426.6 118.445 428.625H121.17C119.87 425.275 116.82 423.375 113.145 423.375ZM130.528 429C132.878 429 134.878 430.475 134.853 433.15H126.203C126.453 430.475 128.303 429 130.528 429ZM136.928 436.775H134.478C133.978 438.25 132.678 439.3 130.628 439.3C128.303 439.3 126.353 437.775 126.178 435H137.128C137.178 434.525 137.203 434.125 137.203 433.625C137.203 429.875 134.603 427.075 130.628 427.075C126.628 427.075 123.853 429.8 123.853 434.125C123.853 438.475 126.728 441.225 130.628 441.225C134.028 441.225 136.228 439.275 136.928 436.775ZM140.706 437.25C140.706 440 142.081 441 144.506 441H146.556V439.075H144.881C143.481 439.075 142.981 438.6 142.981 437.25V429.175H146.556V427.3H142.981V423.85H140.706V427.3H138.931V429.175H140.706V437.25ZM158.253 431.85V425.45H161.603C164.203 425.45 165.303 426.65 165.303 428.675C165.303 430.625 164.203 431.85 161.603 431.85H158.253ZM167.628 428.675C167.628 425.825 165.703 423.575 161.603 423.575H155.978V441H158.253V433.725H161.603C165.928 433.725 167.628 431.325 167.628 428.675ZM169.605 434.1C169.605 438.35 172.43 441.225 176.08 441.225C178.605 441.225 180.38 439.925 181.205 438.45V441H183.505V427.3H181.205V429.8C180.405 428.375 178.655 427.075 176.105 427.075C172.43 427.075 169.605 429.825 169.605 434.1ZM181.205 434.125C181.205 437.35 179.055 439.225 176.555 439.225C174.055 439.225 171.93 437.325 171.93 434.1C171.93 430.875 174.055 429.05 176.555 429.05C179.055 429.05 181.205 430.95 181.205 434.125ZM187.35 441H189.625V427.3H187.35V441ZM188.525 425.075C189.35 425.075 190.025 424.4 190.025 423.525C190.025 422.65 189.35 421.975 188.525 421.975C187.65 421.975 186.975 422.65 186.975 423.525C186.975 424.4 187.65 425.075 188.525 425.075ZM192.652 434.1C192.652 438.35 195.477 441.225 199.152 441.225C201.652 441.225 203.427 439.95 204.252 438.425V441H206.552V422.5H204.252V429.75C203.302 428.175 201.327 427.075 199.177 427.075C195.477 427.075 192.652 429.825 192.652 434.1ZM204.252 434.125C204.252 437.35 202.102 439.225 199.602 439.225C197.102 439.225 194.977 437.325 194.977 434.1C194.977 430.875 197.102 429.05 199.602 429.05C202.102 429.05 204.252 430.95 204.252 434.125ZM233.712 432.275C233.712 427.05 229.887 423.375 224.962 423.375C220.062 423.375 216.212 427.05 216.212 432.275C216.212 437.5 220.062 441.175 224.962 441.175C229.887 441.175 233.712 437.5 233.712 432.275ZM218.537 432.275C218.537 428 221.287 425.35 224.962 425.35C228.637 425.35 231.387 428 231.387 432.275C231.387 436.525 228.637 439.2 224.962 439.2C221.287 439.2 218.537 436.525 218.537 432.275ZM237.14 441H239.415V429.175H242.29V427.3H239.415V426.325C239.415 424.55 240.09 423.8 242.14 423.8V421.9C238.64 421.9 237.14 423.275 237.14 426.325V427.3H235.365V429.175H237.14V441ZM245.368 441H247.643V429.175H250.518V427.3H247.643V426.325C247.643 424.55 248.318 423.8 250.368 423.8V421.9C246.868 421.9 245.368 423.275 245.368 426.325V427.3H243.593V429.175H245.368V441ZM269.16 428.7C269.16 430.65 268.035 432.05 265.46 432.05H262.11V425.45H265.46C268.06 425.45 269.16 426.725 269.16 428.7ZM259.835 423.575V441H262.11V433.875H264.86L269.01 441H271.735L267.36 433.7C270.285 433.05 271.51 430.925 271.51 428.7C271.51 425.85 269.56 423.575 265.46 423.575H259.835ZM280.87 429C283.22 429 285.22 430.475 285.195 433.15H276.545C276.795 430.475 278.645 429 280.87 429ZM287.27 436.775H284.82C284.32 438.25 283.02 439.3 280.97 439.3C278.645 439.3 276.695 437.775 276.52 435H287.47C287.52 434.525 287.545 434.125 287.545 433.625C287.545 429.875 284.945 427.075 280.97 427.075C276.97 427.075 274.195 429.8 274.195 434.125C274.195 438.475 277.07 441.225 280.97 441.225C284.37 441.225 286.57 439.275 287.27 436.775ZM300.398 437.275C300.298 432.375 292.348 434.15 292.348 430.9C292.348 429.8 293.348 429 295.023 429C296.848 429 297.898 430 297.998 431.375H300.273C300.123 428.7 298.123 427.075 295.098 427.075C292.048 427.075 290.073 428.8 290.073 430.9C290.073 436 298.173 434.225 298.173 437.275C298.173 438.4 297.173 439.3 295.373 439.3C293.448 439.3 292.273 438.3 292.148 436.975H289.798C289.948 439.475 292.198 441.225 295.398 441.225C298.423 441.225 300.398 439.525 300.398 437.275ZM302.76 434.1C302.76 438.35 305.585 441.225 309.235 441.225C311.76 441.225 313.535 439.925 314.36 438.45V441H316.66V427.3H314.36V429.8C313.56 428.375 311.81 427.075 309.26 427.075C305.585 427.075 302.76 429.825 302.76 434.1ZM314.36 434.125C314.36 437.35 312.21 439.225 309.71 439.225C307.21 439.225 305.085 437.325 305.085 434.1C305.085 430.875 307.21 429.05 309.71 429.05C312.21 429.05 314.36 430.95 314.36 434.125ZM320.504 441H322.779V422.5H320.504V441ZM332.481 429C334.831 429 336.831 430.475 336.806 433.15H328.156C328.406 430.475 330.256 429 332.481 429ZM338.881 436.775H336.431C335.931 438.25 334.631 439.3 332.581 439.3C330.256 439.3 328.306 437.775 328.131 435H339.081C339.131 434.525 339.156 434.125 339.156 433.625C339.156 429.875 336.556 427.075 332.581 427.075C328.581 427.075 325.806 429.8 325.806 434.125C325.806 438.475 328.681 441.225 332.581 441.225C335.981 441.225 338.181 439.275 338.881 436.775ZM352.009 437.275C351.909 432.375 343.959 434.15 343.959 430.9C343.959 429.8 344.959 429 346.634 429C348.459 429 349.509 430 349.609 431.375H351.884C351.734 428.7 349.734 427.075 346.709 427.075C343.659 427.075 341.684 428.8 341.684 430.9C341.684 436 349.784 434.225 349.784 437.275C349.784 438.4 348.784 439.3 346.984 439.3C345.059 439.3 343.884 438.3 343.759 436.975H341.409C341.559 439.475 343.809 441.225 347.009 441.225C350.034 441.225 352.009 439.525 352.009 437.275Z" fill="#B1B1B1"/>
<line x1="4.37114e-08" y1="482.5" x2="928" y2="482.5" stroke="white"/>
<path d="M21.8701 536.575C21.8701 541.1 24.8201 543.175 28.4201 543.175C32.0201 543.175 34.9951 541.1 34.9951 536.575V525.575H32.7201V536.6C32.7201 539.8 31.0201 541.175 28.4451 541.175C25.8701 541.175 24.1451 539.8 24.1451 536.6V525.575H21.8701V536.575ZM48.8152 543H51.0652V534.925C51.0652 531 48.6402 529.05 45.4652 529.05C43.6152 529.05 41.9652 529.825 41.0652 531.25V529.3H38.7902V543H41.0652V535.425C41.0652 532.475 42.6652 531.025 44.9902 531.025C47.2902 531.025 48.8152 532.45 48.8152 535.25V543ZM54.7814 543H57.0564V524.5H54.7814V543ZM60.9338 543H63.2088V529.3H60.9338V543ZM62.1088 527.075C62.9338 527.075 63.6088 526.4 63.6088 525.525C63.6088 524.65 62.9338 523.975 62.1088 523.975C61.2338 523.975 60.5588 524.65 60.5588 525.525C60.5588 526.4 61.2338 527.075 62.1088 527.075ZM86.8611 543H89.1111V534.925C89.1111 531 86.6861 529.05 83.5611 529.05C81.4611 529.05 79.5111 530.125 78.7111 532.1C77.8111 530.05 75.9361 529.05 73.6861 529.05C71.8861 529.05 70.2611 529.825 69.3611 531.275V529.3H67.0861V543H69.3611V535.45C69.3611 532.5 70.9361 531.025 73.2361 531.025C75.4861 531.025 76.9861 532.45 76.9861 535.25V543H79.2361V535.45C79.2361 532.5 80.8111 531.025 83.1111 531.025C85.3611 531.025 86.8611 532.45 86.8611 535.25V543ZM92.843 543H95.118V529.3H92.843V543ZM94.018 527.075C94.843 527.075 95.518 526.4 95.518 525.525C95.518 524.65 94.843 523.975 94.018 523.975C93.143 523.975 92.468 524.65 92.468 525.525C92.468 526.4 93.143 527.075 94.018 527.075ZM99.4953 539.25C99.4953 542 100.87 543 103.295 543H105.345V541.075H103.67C102.27 541.075 101.77 540.6 101.77 539.25V531.175H105.345V529.3H101.77V525.85H99.4953V529.3H97.7203V531.175H99.4953V539.25ZM113.927 531C116.277 531 118.277 532.475 118.252 535.15H109.602C109.852 532.475 111.702 531 113.927 531ZM120.327 538.775H117.877C117.377 540.25 116.077 541.3 114.027 541.3C111.702 541.3 109.752 539.775 109.577 537H120.527C120.577 536.525 120.602 536.125 120.602 535.625C120.602 531.875 118.002 529.075 114.027 529.075C110.027 529.075 107.252 531.8 107.252 536.125C107.252 540.475 110.127 543.225 114.027 543.225C117.427 543.225 119.627 541.275 120.327 538.775ZM122.755 536.1C122.755 540.35 125.58 543.225 129.255 543.225C131.755 543.225 133.53 541.95 134.355 540.425V543H136.655V524.5H134.355V531.75C133.405 530.175 131.43 529.075 129.28 529.075C125.58 529.075 122.755 531.825 122.755 536.1ZM134.355 536.125C134.355 539.35 132.205 541.225 129.705 541.225C127.205 541.225 125.08 539.325 125.08 536.1C125.08 532.875 127.205 531.05 129.705 531.05C132.205 531.05 134.355 532.95 134.355 536.125ZM147.164 543H149.439V525.575H147.164V543ZM173.092 543H175.342V534.925C175.342 531 172.917 529.05 169.792 529.05C167.692 529.05 165.742 530.125 164.942 532.1C164.042 530.05 162.167 529.05 159.917 529.05C158.117 529.05 156.492 529.825 155.592 531.275V529.3H153.317V543H155.592V535.45C155.592 532.5 157.167 531.025 159.467 531.025C161.717 531.025 163.217 532.45 163.217 535.25V543H165.467V535.45C165.467 532.5 167.042 531.025 169.342 531.025C171.592 531.025 173.092 532.45 173.092 535.25V543ZM198.848 543H201.098V534.925C201.098 531 198.673 529.05 195.548 529.05C193.448 529.05 191.498 530.125 190.698 532.1C189.798 530.05 187.923 529.05 185.673 529.05C183.873 529.05 182.248 529.825 181.348 531.275V529.3H179.073V543H181.348V535.45C181.348 532.5 182.923 531.025 185.223 531.025C187.473 531.025 188.973 532.45 188.973 535.25V543H191.223V535.45C191.223 532.5 192.798 531.025 195.098 531.025C197.348 531.025 198.848 532.45 198.848 535.25V543ZM210.655 531C213.005 531 215.005 532.475 214.98 535.15H206.33C206.58 532.475 208.43 531 210.655 531ZM217.055 538.775H214.605C214.105 540.25 212.805 541.3 210.755 541.3C208.43 541.3 206.48 539.775 206.305 537H217.255C217.305 536.525 217.33 536.125 217.33 535.625C217.33 531.875 214.73 529.075 210.755 529.075C206.755 529.075 203.98 531.8 203.98 536.125C203.98 540.475 206.855 543.225 210.755 543.225C214.155 543.225 216.355 541.275 217.055 538.775ZM219.483 536.1C219.483 540.35 222.308 543.225 225.983 543.225C228.483 543.225 230.258 541.95 231.083 540.425V543H233.383V524.5H231.083V531.75C230.133 530.175 228.158 529.075 226.008 529.075C222.308 529.075 219.483 531.825 219.483 536.1ZM231.083 536.125C231.083 539.35 228.933 541.225 226.433 541.225C223.933 541.225 221.808 539.325 221.808 536.1C221.808 532.875 223.933 531.05 226.433 531.05C228.933 531.05 231.083 532.95 231.083 536.125ZM237.228 543H239.503V529.3H237.228V543ZM238.403 527.075C239.228 527.075 239.903 526.4 239.903 525.525C239.903 524.65 239.228 523.975 238.403 523.975C237.528 523.975 236.853 524.65 236.853 525.525C236.853 526.4 237.528 527.075 238.403 527.075ZM242.53 536.1C242.53 540.35 245.355 543.225 249.005 543.225C251.53 543.225 253.305 541.925 254.13 540.45V543H256.43V529.3H254.13V531.8C253.33 530.375 251.58 529.075 249.03 529.075C245.355 529.075 242.53 531.825 242.53 536.1ZM254.13 536.125C254.13 539.35 251.98 541.225 249.48 541.225C246.98 541.225 244.855 539.325 244.855 536.1C244.855 532.875 246.98 531.05 249.48 531.05C251.98 531.05 254.13 532.95 254.13 536.125ZM260.775 539.25C260.775 542 262.15 543 264.575 543H266.625V541.075H264.95C263.55 541.075 263.05 540.6 263.05 539.25V531.175H266.625V529.3H263.05V525.85H260.775V529.3H259V531.175H260.775V539.25ZM275.206 531C277.556 531 279.556 532.475 279.531 535.15H270.881C271.131 532.475 272.981 531 275.206 531ZM281.606 538.775H279.156C278.656 540.25 277.356 541.3 275.306 541.3C272.981 541.3 271.031 539.775 270.856 537H281.806C281.856 536.525 281.881 536.125 281.881 535.625C281.881 531.875 279.281 529.075 275.306 529.075C271.306 529.075 268.531 531.8 268.531 536.125C268.531 540.475 271.406 543.225 275.306 543.225C278.706 543.225 280.906 541.275 281.606 538.775ZM296.974 525.575H291.549V543H296.974C302.699 543 306.224 539.725 306.224 534.325C306.224 528.925 302.699 525.575 296.974 525.575ZM293.824 541.125V527.425H296.974C301.524 527.425 303.899 530.075 303.899 534.325C303.899 538.575 301.524 541.125 296.974 541.125H293.824ZM322.225 536.125C322.225 531.8 319.2 529.075 315.3 529.075C311.425 529.075 308.375 531.8 308.375 536.125C308.375 540.475 311.325 543.225 315.2 543.225C319.1 543.225 322.225 540.475 322.225 536.125ZM310.7 536.125C310.7 532.675 312.875 531.05 315.275 531.05C317.625 531.05 319.9 532.675 319.9 536.125C319.9 539.6 317.575 541.225 315.2 541.225C312.825 541.225 310.7 539.6 310.7 536.125ZM327.891 543H330.241L333.541 532.125L336.841 543H339.191L343.466 529.3H341.216L338.116 540.825L334.791 529.3H332.466L329.066 540.8L325.916 529.3H323.591L327.891 543ZM355.749 543H357.999V534.925C357.999 531 355.574 529.05 352.399 529.05C350.549 529.05 348.899 529.825 347.999 531.25V529.3H345.724V543H347.999V535.425C347.999 532.475 349.599 531.025 351.924 531.025C354.224 531.025 355.749 532.45 355.749 535.25V543ZM361.715 543H363.99V524.5H361.715V543ZM380.867 536.125C380.867 531.8 377.842 529.075 373.942 529.075C370.067 529.075 367.017 531.8 367.017 536.125C367.017 540.475 369.967 543.225 373.842 543.225C377.742 543.225 380.867 540.475 380.867 536.125ZM369.342 536.125C369.342 532.675 371.517 531.05 373.917 531.05C376.267 531.05 378.542 532.675 378.542 536.125C378.542 539.6 376.217 541.225 373.842 541.225C371.467 541.225 369.342 539.6 369.342 536.125ZM383.009 536.1C383.009 540.35 385.834 543.225 389.484 543.225C392.009 543.225 393.784 541.925 394.609 540.45V543H396.909V529.3H394.609V531.8C393.809 530.375 392.059 529.075 389.509 529.075C385.834 529.075 383.009 531.825 383.009 536.1ZM394.609 536.125C394.609 539.35 392.459 541.225 389.959 541.225C387.459 541.225 385.334 539.325 385.334 536.1C385.334 532.875 387.459 531.05 389.959 531.05C392.459 531.05 394.609 532.95 394.609 536.125ZM399.903 536.1C399.903 540.35 402.728 543.225 406.403 543.225C408.903 543.225 410.678 541.95 411.503 540.425V543H413.803V524.5H411.503V531.75C410.553 530.175 408.578 529.075 406.428 529.075C402.728 529.075 399.903 531.825 399.903 536.1ZM411.503 536.125C411.503 539.35 409.353 541.225 406.853 541.225C404.353 541.225 402.228 539.325 402.228 536.1C402.228 532.875 404.353 531.05 406.853 531.05C409.353 531.05 411.503 532.95 411.503 536.125ZM427.498 539.275C427.398 534.375 419.448 536.15 419.448 532.9C419.448 531.8 420.448 531 422.123 531C423.948 531 424.998 532 425.098 533.375H427.373C427.223 530.7 425.223 529.075 422.198 529.075C419.148 529.075 417.173 530.8 417.173 532.9C417.173 538 425.273 536.225 425.273 539.275C425.273 540.4 424.273 541.3 422.473 541.3C420.548 541.3 419.373 540.3 419.248 538.975H416.898C417.048 541.475 419.298 543.225 422.498 543.225C425.523 543.225 427.498 541.525 427.498 539.275Z" fill="#B1B1B1"/>
<line x1="4.37114e-08" y1="584.5" x2="928" y2="584.5" stroke="white"/>
<path d="M21.8701 632.575C21.8701 637.1 24.8201 639.175 28.4201 639.175C32.0201 639.175 34.9951 637.1 34.9951 632.575V621.575H32.7201V632.6C32.7201 635.8 31.0201 637.175 28.4451 637.175C25.8701 637.175 24.1451 635.8 24.1451 632.6V621.575H21.8701V632.575ZM48.8152 639H51.0652V630.925C51.0652 627 48.6402 625.05 45.4652 625.05C43.6152 625.05 41.9652 625.825 41.0652 627.25V625.3H38.7902V639H41.0652V631.425C41.0652 628.475 42.6652 627.025 44.9902 627.025C47.2902 627.025 48.8152 628.45 48.8152 631.25V639ZM54.7814 639H57.0564V620.5H54.7814V639ZM60.9338 639H63.2088V625.3H60.9338V639ZM62.1088 623.075C62.9338 623.075 63.6088 622.4 63.6088 621.525C63.6088 620.65 62.9338 619.975 62.1088 619.975C61.2338 619.975 60.5588 620.65 60.5588 621.525C60.5588 622.4 61.2338 623.075 62.1088 623.075ZM86.8611 639H89.1111V630.925C89.1111 627 86.6861 625.05 83.5611 625.05C81.4611 625.05 79.5111 626.125 78.7111 628.1C77.8111 626.05 75.9361 625.05 73.6861 625.05C71.8861 625.05 70.2611 625.825 69.3611 627.275V625.3H67.0861V639H69.3611V631.45C69.3611 628.5 70.9361 627.025 73.2361 627.025C75.4861 627.025 76.9861 628.45 76.9861 631.25V639H79.2361V631.45C79.2361 628.5 80.8111 627.025 83.1111 627.025C85.3611 627.025 86.8611 628.45 86.8611 631.25V639ZM92.843 639H95.118V625.3H92.843V639ZM94.018 623.075C94.843 623.075 95.518 622.4 95.518 621.525C95.518 620.65 94.843 619.975 94.018 619.975C93.143 619.975 92.468 620.65 92.468 621.525C92.468 622.4 93.143 623.075 94.018 623.075ZM99.4953 635.25C99.4953 638 100.87 639 103.295 639H105.345V637.075H103.67C102.27 637.075 101.77 636.6 101.77 635.25V627.175H105.345V625.3H101.77V621.85H99.4953V625.3H97.7203V627.175H99.4953V635.25ZM113.927 627C116.277 627 118.277 628.475 118.252 631.15H109.602C109.852 628.475 111.702 627 113.927 627ZM120.327 634.775H117.877C117.377 636.25 116.077 637.3 114.027 637.3C111.702 637.3 109.752 635.775 109.577 633H120.527C120.577 632.525 120.602 632.125 120.602 631.625C120.602 627.875 118.002 625.075 114.027 625.075C110.027 625.075 107.252 627.8 107.252 632.125C107.252 636.475 110.127 639.225 114.027 639.225C117.427 639.225 119.627 637.275 120.327 634.775ZM122.755 632.1C122.755 636.35 125.58 639.225 129.255 639.225C131.755 639.225 133.53 637.95 134.355 636.425V639H136.655V620.5H134.355V627.75C133.405 626.175 131.43 625.075 129.28 625.075C125.58 625.075 122.755 627.825 122.755 632.1ZM134.355 632.125C134.355 635.35 132.205 637.225 129.705 637.225C127.205 637.225 125.08 635.325 125.08 632.1C125.08 628.875 127.205 627.05 129.705 627.05C132.205 627.05 134.355 628.95 134.355 632.125ZM156.539 621.55H147.164V639H156.539V637.125H149.439V631.125H155.789V629.25H149.439V623.425H156.539V621.55ZM159.132 632.1C159.132 636.35 161.957 639.225 165.632 639.225C168.132 639.225 169.907 637.95 170.732 636.425V639H173.032V620.5H170.732V627.75C169.782 626.175 167.807 625.075 165.657 625.075C161.957 625.075 159.132 627.825 159.132 632.1ZM170.732 632.125C170.732 635.35 168.582 637.225 166.082 637.225C163.582 637.225 161.457 635.325 161.457 632.1C161.457 628.875 163.582 627.05 166.082 627.05C168.582 627.05 170.732 628.95 170.732 632.125ZM176.876 639H179.151V625.3H176.876V639ZM178.051 623.075C178.876 623.075 179.551 622.4 179.551 621.525C179.551 620.65 178.876 619.975 178.051 619.975C177.176 619.975 176.501 620.65 176.501 621.525C176.501 622.4 177.176 623.075 178.051 623.075ZM183.529 635.25C183.529 638 184.904 639 187.329 639H189.379V637.075H187.704C186.304 637.075 185.804 636.6 185.804 635.25V627.175H189.379V625.3H185.804V621.85H183.529V625.3H181.754V627.175H183.529V635.25ZM201.985 635.275C201.885 630.375 193.935 632.15 193.935 628.9C193.935 627.8 194.935 627 196.61 627C198.435 627 199.485 628 199.585 629.375H201.86C201.71 626.7 199.71 625.075 196.685 625.075C193.635 625.075 191.66 626.8 191.66 628.9C191.66 634 199.76 632.225 199.76 635.275C199.76 636.4 198.76 637.3 196.96 637.3C195.035 637.3 193.86 636.3 193.735 634.975H191.385C191.535 637.475 193.785 639.225 196.985 639.225C200.01 639.225 201.985 637.525 201.985 635.275ZM228.512 630.275C228.512 625.05 224.687 621.375 219.762 621.375C214.862 621.375 211.012 625.05 211.012 630.275C211.012 635.5 214.862 639.175 219.762 639.175C224.687 639.175 228.512 635.5 228.512 630.275ZM213.337 630.275C213.337 626 216.087 623.35 219.762 623.35C223.437 623.35 226.187 626 226.187 630.275C226.187 634.525 223.437 637.2 219.762 637.2C216.087 637.2 213.337 634.525 213.337 630.275ZM231.94 639H234.215V627.175H237.09V625.3H234.215V624.325C234.215 622.55 234.89 621.8 236.94 621.8V619.9C233.44 619.9 231.94 621.275 231.94 624.325V625.3H230.165V627.175H231.94V639ZM245.332 623.425H250.107V639H252.382V623.425H257.132V621.575H245.332V623.425ZM259.933 639H262.208V631.425C262.208 628.475 263.808 627.025 266.133 627.025C268.433 627.025 269.958 628.45 269.958 631.25V639H272.208V630.925C272.208 627 269.783 625.05 266.733 625.05C264.808 625.05 263.108 625.825 262.208 627.275V620.5H259.933V639ZM281.749 627C284.099 627 286.099 628.475 286.074 631.15H277.424C277.674 628.475 279.524 627 281.749 627ZM288.149 634.775H285.699C285.199 636.25 283.899 637.3 281.849 637.3C279.524 637.3 277.574 635.775 277.399 633H288.349C288.399 632.525 288.424 632.125 288.424 631.625C288.424 627.875 285.824 625.075 281.849 625.075C277.849 625.075 275.074 627.8 275.074 632.125C275.074 636.475 277.949 639.225 281.849 639.225C285.249 639.225 287.449 637.275 288.149 634.775ZM309.417 634.25C309.417 627.8 300.017 630.6 300.017 626.1C300.017 624.225 301.492 623.25 303.367 623.3C305.492 623.325 306.592 624.65 306.742 625.825H309.242C308.967 623.175 306.792 621.35 303.467 621.35C300.017 621.35 297.692 623.3 297.692 626.175C297.692 632.65 307.117 629.65 307.117 634.35C307.117 636 305.817 637.25 303.617 637.25C301.192 637.25 300.167 635.8 300.017 634.35H297.592C297.642 637.225 300.117 639.175 303.617 639.175C307.392 639.175 309.417 636.725 309.417 634.25ZM311.915 632.1C311.915 636.35 314.74 639.225 318.39 639.225C320.915 639.225 322.69 637.925 323.515 636.45V639H325.815V625.3H323.515V627.8C322.715 626.375 320.965 625.075 318.415 625.075C314.74 625.075 311.915 627.825 311.915 632.1ZM323.515 632.125C323.515 635.35 321.365 637.225 318.865 637.225C316.365 637.225 314.24 635.325 314.24 632.1C314.24 628.875 316.365 627.05 318.865 627.05C321.365 627.05 323.515 628.95 323.515 632.125ZM349.434 639H351.684V630.925C351.684 627 349.259 625.05 346.134 625.05C344.034 625.05 342.084 626.125 341.284 628.1C340.384 626.05 338.509 625.05 336.259 625.05C334.459 625.05 332.834 625.825 331.934 627.275V625.3H329.659V639H331.934V631.45C331.934 628.5 333.509 627.025 335.809 627.025C338.059 627.025 339.559 628.45 339.559 631.25V639H341.809V631.45C341.809 628.5 343.384 627.025 345.684 627.025C347.934 627.025 349.434 628.45 349.434 631.25V639ZM361.241 627C363.591 627 365.591 628.475 365.566 631.15H356.916C357.166 628.475 359.016 627 361.241 627ZM367.641 634.775H365.191C364.691 636.25 363.391 637.3 361.341 637.3C359.016 637.3 357.066 635.775 356.891 633H367.841C367.891 632.525 367.916 632.125 367.916 631.625C367.916 627.875 365.316 625.075 361.341 625.075C357.341 625.075 354.566 627.8 354.566 632.125C354.566 636.475 357.441 639.225 361.341 639.225C364.741 639.225 366.941 637.275 367.641 634.775ZM20.8451 652.425H25.6201V668H27.8951V652.425H32.6451V650.575H20.8451V652.425ZM37.7205 660.55C37.7205 657.375 39.3705 656.4 41.5455 656.4H42.1455V654.05C39.9705 654.05 38.4955 655 37.7205 656.525V654.3H35.4455V668H37.7205V660.55ZM43.9217 661.1C43.9217 665.35 46.7467 668.225 50.3967 668.225C52.9217 668.225 54.6967 666.925 55.5217 665.45V668H57.8217V654.3H55.5217V656.8C54.7217 655.375 52.9717 654.075 50.4217 654.075C46.7467 654.075 43.9217 656.825 43.9217 661.1ZM55.5217 661.125C55.5217 664.35 53.3717 666.225 50.8717 666.225C48.3717 666.225 46.2467 664.325 46.2467 661.1C46.2467 657.875 48.3717 656.05 50.8717 656.05C53.3717 656.05 55.5217 657.95 55.5217 661.125ZM60.8162 661.125C60.8162 665.475 63.5912 668.225 67.4912 668.225C70.8912 668.225 73.1162 666.325 73.8162 663.6H71.3662C70.8662 665.325 69.5162 666.3 67.4912 666.3C64.9912 666.3 63.1412 664.525 63.1412 661.125C63.1412 657.775 64.9912 656 67.4912 656C69.5162 656 70.8912 657.05 71.3662 658.7H73.8162C73.1162 655.825 70.8912 654.075 67.4912 654.075C63.5912 654.075 60.8162 656.825 60.8162 661.125ZM76.8518 668H79.1268V661.95L84.5018 668H87.6018L81.1268 661.125L87.5768 654.3H84.4018L79.1268 660.375V649.5H76.8518V668ZM100.633 661.425V668H102.908V661.425L108.583 650.575H106.058L101.758 659.4L97.458 650.575H94.933L100.633 661.425ZM123.983 661.125C123.983 656.8 120.958 654.075 117.058 654.075C113.183 654.075 110.133 656.8 110.133 661.125C110.133 665.475 113.083 668.225 116.958 668.225C120.858 668.225 123.983 665.475 123.983 661.125ZM112.458 661.125C112.458 657.675 114.633 656.05 117.033 656.05C119.383 656.05 121.658 657.675 121.658 661.125C121.658 664.6 119.333 666.225 116.958 666.225C114.583 666.225 112.458 664.6 112.458 661.125ZM139.124 654.3H136.849V661.825C136.849 664.775 135.274 666.225 132.924 666.225C130.624 666.225 129.099 664.8 129.099 662.025V654.3H126.849V662.325C126.849 666.25 129.324 668.2 132.474 668.2C134.299 668.2 135.974 667.4 136.849 665.975V668H139.124V654.3ZM157.53 650.375C152.63 650.375 148.78 654.05 148.78 659.275C148.78 664.5 152.63 668.15 157.53 668.15C162.255 668.15 165.68 664.675 166.08 660.35V658.6H156.705V660.45H163.655C163.305 663.9 160.955 666.1 157.53 666.1C153.855 666.1 151.105 663.45 151.105 659.275C151.105 655.075 153.855 652.425 157.53 652.425C159.98 652.425 161.88 653.6 162.83 655.625H165.555C164.255 652.275 161.205 650.375 157.53 650.375ZM174.913 656C177.263 656 179.263 657.475 179.238 660.15H170.588C170.838 657.475 172.688 656 174.913 656ZM181.313 663.775H178.863C178.363 665.25 177.063 666.3 175.013 666.3C172.688 666.3 170.738 664.775 170.563 662H181.513C181.563 661.525 181.588 661.125 181.588 660.625C181.588 656.875 178.988 654.075 175.013 654.075C171.013 654.075 168.238 656.8 168.238 661.125C168.238 665.475 171.113 668.225 175.013 668.225C178.413 668.225 180.613 666.275 181.313 663.775ZM185.091 664.25C185.091 667 186.466 668 188.891 668H190.941V666.075H189.266C187.866 666.075 187.366 665.6 187.366 664.25V656.175H190.941V654.3H187.366V650.85H185.091V654.3H183.316V656.175H185.091V664.25ZM209.738 650.55H200.363V668H209.738V666.125H202.638V660.125H208.988V658.25H202.638V652.425H209.738V650.55ZM211.555 654.3L216.93 668H219.58L224.955 654.3H222.53L218.28 665.9L214.005 654.3H211.555ZM233.019 656C235.369 656 237.369 657.475 237.344 660.15H228.694C228.944 657.475 230.794 656 233.019 656ZM239.419 663.775H236.969C236.469 665.25 235.169 666.3 233.119 666.3C230.794 666.3 228.844 664.775 228.669 662H239.619C239.669 661.525 239.694 661.125 239.694 660.625C239.694 656.875 237.094 654.075 233.119 654.075C229.119 654.075 226.344 656.8 226.344 661.125C226.344 665.475 229.219 668.225 233.119 668.225C236.519 668.225 238.719 666.275 239.419 663.775ZM244.971 660.55C244.971 657.375 246.621 656.4 248.796 656.4H249.396V654.05C247.221 654.05 245.746 655 244.971 656.525V654.3H242.696V668H244.971V660.55ZM257.223 665.4L252.923 654.3H250.398L255.923 667.85L253.223 674.45H255.573L263.823 654.3H261.473L257.223 665.4ZM268.785 668H271.135L274.435 657.125L277.735 668H280.085L284.36 654.3H282.11L279.01 665.825L275.685 654.3H273.36L269.96 665.8L266.81 654.3H264.485L268.785 668ZM286.617 668H288.892V660.425C288.892 657.475 290.492 656.025 292.817 656.025C295.117 656.025 296.642 657.45 296.642 660.25V668H298.892V659.925C298.892 656 296.467 654.05 293.417 654.05C291.492 654.05 289.792 654.825 288.892 656.275V649.5H286.617V668ZM308.434 656C310.784 656 312.784 657.475 312.759 660.15H304.109C304.359 657.475 306.209 656 308.434 656ZM314.834 663.775H312.384C311.884 665.25 310.584 666.3 308.534 666.3C306.209 666.3 304.259 664.775 304.084 662H315.034C315.084 661.525 315.109 661.125 315.109 660.625C315.109 656.875 312.509 654.075 308.534 654.075C304.534 654.075 301.759 656.8 301.759 661.125C301.759 665.475 304.634 668.225 308.534 668.225C311.934 668.225 314.134 666.275 314.834 663.775ZM320.387 660.55C320.387 657.375 322.037 656.4 324.212 656.4H324.812V654.05C322.637 654.05 321.162 655 320.387 656.525V654.3H318.112V668H320.387V660.55ZM333.263 656C335.613 656 337.613 657.475 337.588 660.15H328.938C329.188 657.475 331.038 656 333.263 656ZM339.663 663.775H337.213C336.713 665.25 335.413 666.3 333.363 666.3C331.038 666.3 329.088 664.775 328.913 662H339.863C339.913 661.525 339.938 661.125 339.938 660.625C339.938 656.875 337.338 654.075 333.363 654.075C329.363 654.075 326.588 656.8 326.588 661.125C326.588 665.475 329.463 668.225 333.363 668.225C336.763 668.225 338.963 666.275 339.663 663.775ZM355.431 656C357.781 656 359.781 657.475 359.756 660.15H351.106C351.356 657.475 353.206 656 355.431 656ZM361.831 663.775H359.381C358.881 665.25 357.581 666.3 355.531 666.3C353.206 666.3 351.256 664.775 351.081 662H362.031C362.081 661.525 362.106 661.125 362.106 660.625C362.106 656.875 359.506 654.075 355.531 654.075C351.531 654.075 348.756 656.8 348.756 661.125C348.756 665.475 351.631 668.225 355.531 668.225C358.931 668.225 361.131 666.275 361.831 663.775ZM365.109 668H367.384V649.5H365.109V668ZM381.111 664.275C381.011 659.375 373.061 661.15 373.061 657.9C373.061 656.8 374.061 656 375.736 656C377.561 656 378.611 657 378.711 658.375H380.986C380.836 655.7 378.836 654.075 375.811 654.075C372.761 654.075 370.786 655.8 370.786 657.9C370.786 663 378.886 661.225 378.886 664.275C378.886 665.4 377.886 666.3 376.086 666.3C374.161 666.3 372.986 665.3 372.861 663.975H370.511C370.661 666.475 372.911 668.225 376.111 668.225C379.136 668.225 381.111 666.525 381.111 664.275ZM390.147 656C392.497 656 394.497 657.475 394.472 660.15H385.822C386.072 657.475 387.922 656 390.147 656ZM396.547 663.775H394.097C393.597 665.25 392.297 666.3 390.247 666.3C387.922 666.3 385.972 664.775 385.797 662H396.747C396.797 661.525 396.822 661.125 396.822 660.625C396.822 656.875 394.222 654.075 390.247 654.075C386.247 654.075 383.472 656.8 383.472 661.125C383.472 665.475 386.347 668.225 390.247 668.225C393.647 668.225 395.847 666.275 396.547 663.775Z" fill="#B1B1B1"/>
<path d="M562.35 44.1L558.35 31.375H553.1L559.2 49H565.475L571.55 31.375H566.325L562.35 44.1ZM573.077 49H577.977V31.375H573.077V49ZM592.192 31.375V41.35L585.667 31.375H580.767V49H585.667V39.15L592.192 49H597.092V31.375H592.192ZM604.783 43.4V49H609.708V43.4L615.908 31.375H610.383L607.283 38.175L604.183 31.375H598.583L604.783 43.4ZM617.413 31.375V49H627.788V45.25H622.313V31.375H617.413Z" fill="#671875"/>
<path d="M705.375 31.375H698.4V49H705.375C711 49 714.575 45.275 714.575 40.175C714.575 35 711 31.375 705.375 31.375ZM703.3 44.675V35.625H705C707.825 35.625 709.6 37.25 709.6 40.175C709.6 43.075 707.825 44.675 705 44.675H703.3ZM730.009 43.65C730.009 38 721.534 38.85 721.534 36.225C721.534 35.375 722.109 34.95 722.834 34.975C723.734 34.975 724.409 35.475 724.459 36.575H729.784C729.609 33.075 726.959 31.1 722.909 31.1C719.184 31.1 716.309 32.95 716.309 36.4C716.234 42.525 724.784 41.2 724.809 44.025C724.809 44.85 724.134 45.3 723.259 45.3C722.359 45.3 721.584 44.85 721.484 43.525H716.259C716.459 47.3 719.509 49.175 723.434 49.175C727.609 49.175 730.009 46.75 730.009 43.65ZM737.187 39.15V35.325H739.137C740.612 35.325 741.212 36.075 741.212 37.25C741.212 38.4 740.612 39.15 739.137 39.15H737.187ZM746.212 37.25C746.212 33.85 743.987 31.375 739.612 31.375H732.287V49H737.187V43.05H739.612C744.087 43.05 746.212 40.325 746.212 37.25Z" fill="#671875"/>
<path d="M838.879 41.592C834.595 41.808 829.699 41.916 826.495 41.808C828.295 40.872 830.527 39.828 831.751 39.216C835.531 37.416 835.855 37.272 835.855 36.12C835.855 35.004 835.459 34.788 832.471 33.06C831.355 32.448 829.411 31.332 828.115 30.468C830.311 29.496 834.343 28.128 836.143 27.588C836.611 28.344 837.295 29.748 837.835 31.08C838.195 31.944 839.203 32.376 840.067 32.016C840.931 31.656 841.327 30.684 840.967 29.784C838.591 24.024 837.511 24.024 836.647 24.024C835.783 24.024 830.383 25.968 830.311 25.968C824.443 28.092 823.759 28.92 823.687 30.144C823.579 31.728 825.019 32.7 830.707 35.976C830.599 36.048 830.455 36.12 830.311 36.156C822.031 40.116 820.483 41.16 820.483 42.816C820.483 43.32 820.699 43.824 821.095 44.184C821.455 44.544 822.211 45.264 829.303 45.264C831.751 45.264 834.919 45.192 839.059 44.976C839.995 44.904 840.715 44.112 840.679 43.176C840.643 42.24 839.815 41.52 838.879 41.592ZM871.623 18.84C862.803 18.156 839.403 20.928 838.395 21.036C837.495 21.144 836.811 21.972 836.919 22.908C837.027 23.772 837.747 24.42 838.611 24.42C838.683 24.42 838.755 24.384 838.791 24.384C838.899 24.384 842.607 23.952 847.611 23.448L840.915 43.068C840.627 43.968 841.095 44.904 841.959 45.228C842.139 45.3 842.319 45.3 842.499 45.3C843.219 45.3 843.867 44.868 844.119 44.184L851.319 23.088C858.519 22.44 866.979 21.864 871.335 22.224C872.271 22.26 873.099 21.576 873.171 20.676C873.243 19.74 872.523 18.912 871.623 18.84ZM867.531 30.45V41.325L860.381 30.45H856.106V48H860.381V37.175L867.531 48H871.806V30.45H867.531ZM874.904 48H879.179V40.9H884.529V37.575H879.179V33.875H886.329V30.45H874.904V48ZM887.626 33.875H892.276V48H896.551V33.875H901.201V30.45H887.626V33.875Z" fill="#671875"/>
<line x1="656.5" y1="73" x2="656.5" y2="701" stroke="white"/>
<line x1="520.5" y1="73" x2="520.5" y2="701" stroke="white"/>
<line x1="792.5" y1="73" x2="792.5" y2="701" stroke="white"/>
<path d="M604.298 108.6C602.538 107.4 600.218 107.88 599.018 109.64L591.578 120.68L583.818 103.96C582.938 102.04 580.698 101.24 578.778 102.12C576.938 103 576.058 105.24 576.938 107.08L586.698 128.04L570.697 151.88C569.577 153.64 569.977 155.96 571.737 157.08C572.377 157.56 573.098 157.72 573.818 157.72C575.018 157.72 576.218 157.16 576.938 156.04L590.458 135.96L596.218 148.52C596.858 149.88 598.218 150.68 599.658 150.68C600.218 150.68 600.778 150.6 601.258 150.36C603.098 149.48 603.978 147.24 603.098 145.32L595.338 128.68L605.338 113.8C606.458 112.04 605.978 109.72 604.298 108.6Z" fill="#E56E6E"/>
<path d="M734.298 108.6C732.538 107.4 730.218 107.88 729.018 109.64L721.578 120.68L713.818 103.96C712.938 102.04 710.698 101.24 708.778 102.12C706.938 103 706.058 105.24 706.938 107.08L716.698 128.04L700.697 151.88C699.577 153.64 699.977 155.96 701.737 157.08C702.377 157.56 703.098 157.72 703.818 157.72C705.018 157.72 706.218 157.16 706.938 156.04L720.458 135.96L726.218 148.52C726.858 149.88 728.218 150.68 729.658 150.68C730.218 150.68 730.778 150.6 731.258 150.36C733.098 149.48 733.978 147.24 733.098 145.32L725.338 128.68L735.338 113.8C736.458 112.04 735.978 109.72 734.298 108.6Z" fill="#E56E6E"/>
<path d="M734.298 313.6C732.538 312.4 730.218 312.88 729.018 314.64L721.578 325.68L713.818 308.96C712.938 307.04 710.698 306.24 708.778 307.12C706.938 308 706.058 310.24 706.938 312.08L716.698 333.04L700.697 356.88C699.577 358.64 699.977 360.96 701.737 362.08C702.377 362.56 703.098 362.72 703.818 362.72C705.018 362.72 706.218 362.16 706.938 361.04L720.458 340.96L726.218 353.52C726.858 354.88 728.218 355.68 729.658 355.68C730.218 355.68 730.778 355.6 731.258 355.36C733.098 354.48 733.978 352.24 733.098 350.32L725.338 333.68L735.338 318.8C736.458 317.04 735.978 314.72 734.298 313.6Z" fill="#E56E6E"/>
<path d="M734.298 209.6C732.538 208.4 730.218 208.88 729.018 210.64L721.578 221.68L713.818 204.96C712.938 203.04 710.698 202.24 708.778 203.12C706.938 204 706.058 206.24 706.938 208.08L716.698 229.04L700.697 252.88C699.577 254.64 699.977 256.96 701.737 258.08C702.377 258.56 703.098 258.72 703.818 258.72C705.018 258.72 706.218 258.16 706.938 257.04L720.458 236.96L726.218 249.52C726.858 250.88 728.218 251.68 729.658 251.68C730.218 251.68 730.778 251.6 731.258 251.36C733.098 250.48 733.978 248.24 733.098 246.32L725.338 229.68L735.338 214.8C736.458 213.04 735.978 210.72 734.298 209.6Z" fill="#E56E6E"/>
<path d="M873.968 115.28C864.368 109.28 851.008 113.44 844.128 124.4C837.248 135.44 839.488 149.28 849.088 155.28C852.048 157.12 855.408 158 858.848 158C866.368 158 874.208 153.68 878.928 146.16C885.808 135.12 883.568 121.28 873.968 115.28ZM872.528 142.16C867.888 149.68 859.088 152.64 853.008 148.88C846.928 145.12 845.808 135.92 850.528 128.4C853.808 123.12 859.168 120.08 864.128 120.08C866.208 120.08 868.208 120.56 869.968 121.68C876.048 125.44 877.168 134.64 872.528 142.16ZM863.968 124.96C861.968 124.24 859.808 125.28 859.168 127.2L854.768 139.52C854.048 141.44 855.088 143.6 857.088 144.32C857.488 144.48 857.888 144.56 858.288 144.56C859.888 144.56 861.328 143.6 861.888 142L866.208 129.76C866.928 127.76 865.888 125.6 863.968 124.96ZM858.288 109.04H873.248C875.328 109.04 877.008 107.36 877.008 105.28C877.008 103.2 875.328 101.52 873.248 101.52H858.288C856.208 101.52 854.528 103.2 854.528 105.28C854.528 107.36 856.208 109.04 858.288 109.04Z" fill="#6EE596"/>
<path d="M604.298 421.6C602.538 420.4 600.218 420.88 599.018 422.64L591.578 433.68L583.818 416.96C582.938 415.04 580.698 414.24 578.778 415.12C576.938 416 576.058 418.24 576.938 420.08L586.698 441.04L570.697 464.88C569.577 466.64 569.977 468.96 571.737 470.08C572.377 470.56 573.098 470.72 573.818 470.72C575.018 470.72 576.218 470.16 576.938 469.04L590.458 448.96L596.218 461.52C596.858 462.88 598.218 463.68 599.658 463.68C600.218 463.68 600.778 463.6 601.258 463.36C603.098 462.48 603.978 460.24 603.098 458.32L595.338 441.68L605.338 426.8C606.458 425.04 605.978 422.72 604.298 421.6Z" fill="#E56E6E"/>
<path d="M734.298 421.6C732.538 420.4 730.218 420.88 729.018 422.64L721.578 433.68L713.818 416.96C712.938 415.04 710.698 414.24 708.778 415.12C706.938 416 706.058 418.24 706.938 420.08L716.698 441.04L700.697 464.88C699.577 466.64 699.977 468.96 701.737 470.08C702.377 470.56 703.098 470.72 703.818 470.72C705.018 470.72 706.218 470.16 706.938 469.04L720.458 448.96L726.218 461.52C726.858 462.88 728.218 463.68 729.658 463.68C730.218 463.68 730.778 463.6 731.258 463.36C733.098 462.48 733.978 460.24 733.098 458.32L725.338 441.68L735.338 426.8C736.458 425.04 735.978 422.72 734.298 421.6Z" fill="#E56E6E"/>
<path d="M873.968 428.28C864.368 422.28 851.008 426.44 844.128 437.4C837.248 448.44 839.488 462.28 849.088 468.28C852.048 470.12 855.408 471 858.848 471C866.368 471 874.208 466.68 878.928 459.16C885.808 448.12 883.568 434.28 873.968 428.28ZM872.528 455.16C867.888 462.68 859.088 465.64 853.008 461.88C846.928 458.12 845.808 448.92 850.528 441.4C853.808 436.12 859.168 433.08 864.128 433.08C866.208 433.08 868.208 433.56 869.968 434.68C876.048 438.44 877.168 447.64 872.528 455.16ZM863.968 437.96C861.968 437.24 859.808 438.28 859.168 440.2L854.768 452.52C854.048 454.44 855.088 456.6 857.088 457.32C857.488 457.48 857.888 457.56 858.288 457.56C859.888 457.56 861.328 456.6 861.888 455L866.208 442.76C866.928 440.76 865.888 438.6 863.968 437.96ZM858.288 422.04H873.248C875.328 422.04 877.008 420.36 877.008 418.28C877.008 416.2 875.328 414.52 873.248 414.52H858.288C856.208 414.52 854.528 416.2 854.528 418.28C854.528 420.36 856.208 422.04 858.288 422.04Z" fill="#6EE596"/>
<path d="M604.298 522.6C602.538 521.4 600.218 521.88 599.018 523.64L591.578 534.68L583.818 517.96C582.938 516.04 580.698 515.24 578.778 516.12C576.938 517 576.058 519.24 576.938 521.08L586.698 542.04L570.697 565.88C569.577 567.64 569.977 569.96 571.737 571.08C572.377 571.56 573.098 571.72 573.818 571.72C575.018 571.72 576.218 571.16 576.938 570.04L590.458 549.96L596.218 562.52C596.858 563.88 598.218 564.68 599.658 564.68C600.218 564.68 600.778 564.6 601.258 564.36C603.098 563.48 603.978 561.24 603.098 559.32L595.338 542.68L605.338 527.8C606.458 526.04 605.978 523.72 604.298 522.6Z" fill="#E56E6E"/>
<path d="M734.298 522.6C732.538 521.4 730.218 521.88 729.018 523.64L721.578 534.68L713.818 517.96C712.938 516.04 710.698 515.24 708.778 516.12C706.938 517 706.058 519.24 706.938 521.08L716.698 542.04L700.697 565.88C699.577 567.64 699.977 569.96 701.737 571.08C702.377 571.56 703.098 571.72 703.818 571.72C705.018 571.72 706.218 571.16 706.938 570.04L720.458 549.96L726.218 562.52C726.858 563.88 728.218 564.68 729.658 564.68C730.218 564.68 730.778 564.6 731.258 564.36C733.098 563.48 733.978 561.24 733.098 559.32L725.338 542.68L735.338 527.8C736.458 526.04 735.978 523.72 734.298 522.6Z" fill="#E56E6E"/>
<path d="M873.968 529.28C864.368 523.28 851.008 527.44 844.128 538.4C837.248 549.44 839.488 563.28 849.088 569.28C852.048 571.12 855.408 572 858.848 572C866.368 572 874.208 567.68 878.928 560.16C885.808 549.12 883.568 535.28 873.968 529.28ZM872.528 556.16C867.888 563.68 859.088 566.64 853.008 562.88C846.928 559.12 845.808 549.92 850.528 542.4C853.808 537.12 859.168 534.08 864.128 534.08C866.208 534.08 868.208 534.56 869.968 535.68C876.048 539.44 877.168 548.64 872.528 556.16ZM863.968 538.96C861.968 538.24 859.808 539.28 859.168 541.2L854.768 553.52C854.048 555.44 855.088 557.6 857.088 558.32C857.488 558.48 857.888 558.56 858.288 558.56C859.888 558.56 861.328 557.6 861.888 556L866.208 543.76C866.928 541.76 865.888 539.6 863.968 538.96ZM858.288 523.04H873.248C875.328 523.04 877.008 521.36 877.008 519.28C877.008 517.2 875.328 515.52 873.248 515.52H858.288C856.208 515.52 854.528 517.2 854.528 519.28C854.528 521.36 856.208 523.04 858.288 523.04Z" fill="#6EE596"/>
<path d="M604.298 626.6C602.538 625.4 600.218 625.88 599.018 627.64L591.578 638.68L583.818 621.96C582.938 620.04 580.698 619.24 578.778 620.12C576.938 621 576.058 623.24 576.938 625.08L586.698 646.04L570.697 669.88C569.577 671.64 569.977 673.96 571.737 675.08C572.377 675.56 573.098 675.72 573.818 675.72C575.018 675.72 576.218 675.16 576.938 674.04L590.458 653.96L596.218 666.52C596.858 667.88 598.218 668.68 599.658 668.68C600.218 668.68 600.778 668.6 601.258 668.36C603.098 667.48 603.978 665.24 603.098 663.32L595.338 646.68L605.338 631.8C606.458 630.04 605.978 627.72 604.298 626.6Z" fill="#E56E6E"/>
<path d="M734.298 626.6C732.538 625.4 730.218 625.88 729.018 627.64L721.578 638.68L713.818 621.96C712.938 620.04 710.698 619.24 708.778 620.12C706.938 621 706.058 623.24 706.938 625.08L716.698 646.04L700.697 669.88C699.577 671.64 699.977 673.96 701.737 675.08C702.377 675.56 703.098 675.72 703.818 675.72C705.018 675.72 706.218 675.16 706.938 674.04L720.458 653.96L726.218 666.52C726.858 667.88 728.218 668.68 729.658 668.68C730.218 668.68 730.778 668.6 731.258 668.36C733.098 667.48 733.978 665.24 733.098 663.32L725.338 646.68L735.338 631.8C736.458 630.04 735.978 627.72 734.298 626.6Z" fill="#E56E6E"/>
<path d="M873.968 633.28C864.368 627.28 851.008 631.44 844.128 642.4C837.248 653.44 839.488 667.28 849.088 673.28C852.048 675.12 855.408 676 858.848 676C866.368 676 874.208 671.68 878.928 664.16C885.808 653.12 883.568 639.28 873.968 633.28ZM872.528 660.16C867.888 667.68 859.088 670.64 853.008 666.88C846.928 663.12 845.808 653.92 850.528 646.4C853.808 641.12 859.168 638.08 864.128 638.08C866.208 638.08 868.208 638.56 869.968 639.68C876.048 643.44 877.168 652.64 872.528 660.16ZM863.968 642.96C861.968 642.24 859.808 643.28 859.168 645.2L854.768 657.52C854.048 659.44 855.088 661.6 857.088 662.32C857.488 662.48 857.888 662.56 858.288 662.56C859.888 662.56 861.328 661.6 861.888 660L866.208 647.76C866.928 645.76 865.888 643.6 863.968 642.96ZM858.288 627.04H873.248C875.328 627.04 877.008 625.36 877.008 623.28C877.008 621.2 875.328 619.52 873.248 619.52H858.288C856.208 619.52 854.528 621.2 854.528 623.28C854.528 625.36 856.208 627.04 858.288 627.04Z" fill="#6EE596"/>
<path d="M873.968 213.28C864.368 207.28 851.008 211.44 844.128 222.4C837.248 233.44 839.488 247.28 849.088 253.28C852.048 255.12 855.408 256 858.848 256C866.368 256 874.208 251.68 878.928 244.16C885.808 233.12 883.568 219.28 873.968 213.28ZM872.528 240.16C867.888 247.68 859.088 250.64 853.008 246.88C846.928 243.12 845.808 233.92 850.528 226.4C853.808 221.12 859.168 218.08 864.128 218.08C866.208 218.08 868.208 218.56 869.968 219.68C876.048 223.44 877.168 232.64 872.528 240.16ZM863.968 222.96C861.968 222.24 859.808 223.28 859.168 225.2L854.768 237.52C854.048 239.44 855.088 241.6 857.088 242.32C857.488 242.48 857.888 242.56 858.288 242.56C859.888 242.56 861.328 241.6 861.888 240L866.208 227.76C866.928 225.76 865.888 223.6 863.968 222.96ZM858.288 207.04H873.248C875.328 207.04 877.008 205.36 877.008 203.28C877.008 201.2 875.328 199.52 873.248 199.52H858.288C856.208 199.52 854.528 201.2 854.528 203.28C854.528 205.36 856.208 207.04 858.288 207.04Z" fill="#6EE596"/>
<path d="M873.968 320.28C864.368 314.28 851.008 318.44 844.128 329.4C837.248 340.44 839.488 354.28 849.088 360.28C852.048 362.12 855.408 363 858.848 363C866.368 363 874.208 358.68 878.928 351.16C885.808 340.12 883.568 326.28 873.968 320.28ZM872.528 347.16C867.888 354.68 859.088 357.64 853.008 353.88C846.928 350.12 845.808 340.92 850.528 333.4C853.808 328.12 859.168 325.08 864.128 325.08C866.208 325.08 868.208 325.56 869.968 326.68C876.048 330.44 877.168 339.64 872.528 347.16ZM863.968 329.96C861.968 329.24 859.808 330.28 859.168 332.2L854.768 344.52C854.048 346.44 855.088 348.6 857.088 349.32C857.488 349.48 857.888 349.56 858.288 349.56C859.888 349.56 861.328 348.6 861.888 347L866.208 334.76C866.928 332.76 865.888 330.6 863.968 329.96ZM858.288 314.04H873.248C875.328 314.04 877.008 312.36 877.008 310.28C877.008 308.2 875.328 306.52 873.248 306.52H858.288C856.208 306.52 854.528 308.2 854.528 310.28C854.528 312.36 856.208 314.04 858.288 314.04Z" fill="#6EE596"/>
<path d="M592.968 213.28C583.368 207.28 570.008 211.44 563.128 222.4C556.248 233.44 558.488 247.28 568.088 253.28C571.048 255.12 574.408 256 577.848 256C585.368 256 593.208 251.68 597.928 244.16C604.808 233.12 602.568 219.28 592.968 213.28ZM591.528 240.16C586.888 247.68 578.088 250.64 572.008 246.88C565.928 243.12 564.808 233.92 569.528 226.4C572.808 221.12 578.168 218.08 583.128 218.08C585.208 218.08 587.208 218.56 588.968 219.68C595.048 223.44 596.168 232.64 591.528 240.16ZM582.968 222.96C580.968 222.24 578.808 223.28 578.168 225.2L573.768 237.52C573.048 239.44 574.088 241.6 576.088 242.32C576.488 242.48 576.888 242.56 577.288 242.56C578.888 242.56 580.328 241.6 580.888 240L585.208 227.76C585.928 225.76 584.888 223.6 582.968 222.96ZM577.288 207.04H592.248C594.328 207.04 596.008 205.36 596.008 203.28C596.008 201.2 594.328 199.52 592.248 199.52H577.288C575.208 199.52 573.528 201.2 573.528 203.28C573.528 205.36 575.208 207.04 577.288 207.04Z" fill="#6EE596"/>
<path d="M592.968 320.28C583.368 314.28 570.008 318.44 563.128 329.4C556.248 340.44 558.488 354.28 568.088 360.28C571.048 362.12 574.408 363 577.848 363C585.368 363 593.208 358.68 597.928 351.16C604.808 340.12 602.568 326.28 592.968 320.28ZM591.528 347.16C586.888 354.68 578.088 357.64 572.008 353.88C565.928 350.12 564.808 340.92 569.528 333.4C572.808 328.12 578.168 325.08 583.128 325.08C585.208 325.08 587.208 325.56 588.968 326.68C595.048 330.44 596.168 339.64 591.528 347.16ZM582.968 329.96C580.968 329.24 578.808 330.28 578.168 332.2L573.768 344.52C573.048 346.44 574.088 348.6 576.088 349.32C576.488 349.48 576.888 349.56 577.288 349.56C578.888 349.56 580.328 348.6 580.888 347L585.208 334.76C585.928 332.76 584.888 330.6 582.968 329.96ZM577.288 314.04H592.248C594.328 314.04 596.008 312.36 596.008 310.28C596.008 308.2 594.328 306.52 592.248 306.52H577.288C575.208 306.52 573.528 308.2 573.528 310.28C573.528 312.36 575.208 314.04 577.288 314.04Z" fill="#6EE596"/>
<path d="M23.8 40.15C23.8 45.425 27.275 49.125 32.575 49.125C37 49.125 40.15 46.575 41.025 42.575H35.75C35.125 43.9 33.95 44.625 32.5 44.625C30.25 44.625 28.775 42.875 28.775 40.15C28.775 37.45 30.25 35.7 32.5 35.7C33.95 35.7 35.125 36.425 35.75 37.75H41.025C40.15 33.75 37 31.2 32.575 31.2C27.275 31.2 23.8 34.9 23.8 40.15ZM54.2203 49H59.1203V31.375H54.2203V38H48.2453V31.375H43.3453V49H48.2453V41.925H54.2203V49ZM74.0244 49H79.1994L72.7994 31.375H67.1494L60.7244 49H65.8744L66.8244 46.125H73.0744L74.0244 49ZM71.8494 42.375H68.0744L69.9494 36.675L71.8494 42.375ZM92.2215 31.375V41.35L85.6965 31.375H80.7965V49H85.6965V39.15L92.2215 49H97.1215V31.375H92.2215ZM111.338 31.375V41.35L104.813 31.375H99.9127V49H104.813V39.15L111.338 49H116.238V31.375H111.338ZM130.304 31.375H119.029V49H130.304V45.075H123.929V41.9H129.554V38.175H123.929V35.3H130.304V31.375ZM132.725 31.375V49H143.1V45.25H137.625V31.375H132.725ZM158.23 43.65C158.23 38 149.755 38.85 149.755 36.225C149.755 35.375 150.33 34.95 151.055 34.975C151.955 34.975 152.63 35.475 152.68 36.575H158.005C157.83 33.075 155.18 31.1 151.13 31.1C147.405 31.1 144.53 32.95 144.53 36.4C144.455 42.525 153.005 41.2 153.03 44.025C153.03 44.85 152.355 45.3 151.48 45.3C150.58 45.3 149.805 44.85 149.705 43.525H144.48C144.68 47.3 147.73 49.175 151.655 49.175C155.83 49.175 158.23 46.75 158.23 43.65Z" fill="#671875"/>
<path d="M170.604 49H172.879V41.15H179.029V39.3H172.879V33.425H180.454V31.575H170.604V49ZM189.026 37C191.376 37 193.376 38.475 193.351 41.15H184.701C184.951 38.475 186.801 37 189.026 37ZM195.426 44.775H192.976C192.476 46.25 191.176 47.3 189.126 47.3C186.801 47.3 184.851 45.775 184.676 43H195.626C195.676 42.525 195.701 42.125 195.701 41.625C195.701 37.875 193.101 35.075 189.126 35.075C185.126 35.075 182.351 37.8 182.351 42.125C182.351 46.475 185.226 49.225 189.126 49.225C192.526 49.225 194.726 47.275 195.426 44.775ZM197.854 42.1C197.854 46.35 200.679 49.225 204.329 49.225C206.854 49.225 208.629 47.925 209.454 46.45V49H211.754V35.3H209.454V37.8C208.654 36.375 206.904 35.075 204.354 35.075C200.679 35.075 197.854 37.825 197.854 42.1ZM209.454 42.125C209.454 45.35 207.304 47.225 204.804 47.225C202.304 47.225 200.179 45.325 200.179 42.1C200.179 38.875 202.304 37.05 204.804 37.05C207.304 37.05 209.454 38.95 209.454 42.125ZM216.099 45.25C216.099 48 217.474 49 219.899 49H221.949V47.075H220.274C218.874 47.075 218.374 46.6 218.374 45.25V37.175H221.949V35.3H218.374V31.85H216.099V35.3H214.324V37.175H216.099V45.25ZM236.855 35.3H234.58V42.825C234.58 45.775 233.005 47.225 230.655 47.225C228.355 47.225 226.83 45.8 226.83 43.025V35.3H224.58V43.325C224.58 47.25 227.055 49.2 230.205 49.2C232.03 49.2 233.705 48.4 234.58 46.975V49H236.855V35.3ZM242.971 41.55C242.971 38.375 244.621 37.4 246.796 37.4H247.396V35.05C245.221 35.05 243.746 36 242.971 37.525V35.3H240.696V49H242.971V41.55ZM255.848 37C258.198 37 260.198 38.475 260.173 41.15H251.523C251.773 38.475 253.623 37 255.848 37ZM262.248 44.775H259.798C259.298 46.25 257.998 47.3 255.948 47.3C253.623 47.3 251.673 45.775 251.498 43H262.448C262.498 42.525 262.523 42.125 262.523 41.625C262.523 37.875 259.923 35.075 255.948 35.075C251.948 35.075 249.173 37.8 249.173 42.125C249.173 46.475 252.048 49.225 255.948 49.225C259.348 49.225 261.548 47.275 262.248 44.775ZM275.376 45.275C275.276 40.375 267.326 42.15 267.326 38.9C267.326 37.8 268.326 37 270.001 37C271.826 37 272.876 38 272.976 39.375H275.251C275.101 36.7 273.101 35.075 270.076 35.075C267.026 35.075 265.051 36.8 265.051 38.9C265.051 44 273.151 42.225 273.151 45.275C273.151 46.4 272.151 47.3 270.351 47.3C268.426 47.3 267.251 46.3 267.126 44.975H264.776C264.926 47.475 267.176 49.225 270.376 49.225C273.401 49.225 275.376 47.525 275.376 45.275Z" fill="#6C6C6C"/>
</svg>
