<svg width="928" height="700" viewBox="0 0 928 700" fill="none" xmlns="http://www.w3.org/2000/svg">
<rect x="0.5" y="0.5" width="927" height="699" fill="#1A1A1A" stroke="white"/>
<line x1="4.37114e-08" y1="73.5" x2="928" y2="73.5001" stroke="white"/>
<path d="M21.8701 128.575C21.8701 133.1 24.8201 135.175 28.4201 135.175C32.0201 135.175 34.9951 133.1 34.9951 128.575V117.575H32.7201V128.6C32.7201 131.8 31.0201 133.175 28.4451 133.175C25.8701 133.175 24.1451 131.8 24.1451 128.6V117.575H21.8701V128.575ZM48.8152 135H51.0652V126.925C51.0652 123 48.6402 121.05 45.4652 121.05C43.6152 121.05 41.9652 121.825 41.0652 123.25V121.3H38.7902V135H41.0652V127.425C41.0652 124.475 42.6652 123.025 44.9902 123.025C47.2902 123.025 48.8152 124.45 48.8152 127.25V135ZM54.7814 135H57.0564V116.5H54.7814V135ZM60.9338 135H63.2088V121.3H60.9338V135ZM62.1088 119.075C62.9338 119.075 63.6088 118.4 63.6088 117.525C63.6088 116.65 62.9338 115.975 62.1088 115.975C61.2338 115.975 60.5588 116.65 60.5588 117.525C60.5588 118.4 61.2338 119.075 62.1088 119.075ZM86.8611 135H89.1111V126.925C89.1111 123 86.6861 121.05 83.5611 121.05C81.4611 121.05 79.5111 122.125 78.7111 124.1C77.8111 122.05 75.9361 121.05 73.6861 121.05C71.8861 121.05 70.2611 121.825 69.3611 123.275V121.3H67.0861V135H69.3611V127.45C69.3611 124.5 70.9361 123.025 73.2361 123.025C75.4861 123.025 76.9861 124.45 76.9861 127.25V135H79.2361V127.45C79.2361 124.5 80.8111 123.025 83.1111 123.025C85.3611 123.025 86.8611 124.45 86.8611 127.25V135ZM92.843 135H95.118V121.3H92.843V135ZM94.018 119.075C94.843 119.075 95.518 118.4 95.518 117.525C95.518 116.65 94.843 115.975 94.018 115.975C93.143 115.975 92.468 116.65 92.468 117.525C92.468 118.4 93.143 119.075 94.018 119.075ZM99.4953 131.25C99.4953 134 100.87 135 103.295 135H105.345V133.075H103.67C102.27 133.075 101.77 132.6 101.77 131.25V123.175H105.345V121.3H101.77V117.85H99.4953V121.3H97.7203V123.175H99.4953V131.25ZM113.927 123C116.277 123 118.277 124.475 118.252 127.15H109.602C109.852 124.475 111.702 123 113.927 123ZM120.327 130.775H117.877C117.377 132.25 116.077 133.3 114.027 133.3C111.702 133.3 109.752 131.775 109.577 129H120.527C120.577 128.525 120.602 128.125 120.602 127.625C120.602 123.875 118.002 121.075 114.027 121.075C110.027 121.075 107.252 123.8 107.252 128.125C107.252 132.475 110.127 135.225 114.027 135.225C117.427 135.225 119.627 133.275 120.327 130.775ZM122.755 128.1C122.755 132.35 125.58 135.225 129.255 135.225C131.755 135.225 133.53 133.95 134.355 132.425V135H136.655V116.5H134.355V123.75C133.405 122.175 131.43 121.075 129.28 121.075C125.58 121.075 122.755 123.825 122.755 128.1ZM134.355 128.125C134.355 131.35 132.205 133.225 129.705 133.225C127.205 133.225 125.08 131.325 125.08 128.1C125.08 124.875 127.205 123.05 129.705 123.05C132.205 123.05 134.355 124.95 134.355 128.125ZM152.589 117.575H147.164V135H152.589C158.314 135 161.839 131.725 161.839 126.325C161.839 120.925 158.314 117.575 152.589 117.575ZM149.439 133.125V119.425H152.589C157.139 119.425 159.514 122.075 159.514 126.325C159.514 130.575 157.139 133.125 152.589 133.125H149.439ZM177.84 128.125C177.84 123.8 174.815 121.075 170.915 121.075C167.04 121.075 163.99 123.8 163.99 128.125C163.99 132.475 166.94 135.225 170.815 135.225C174.715 135.225 177.84 132.475 177.84 128.125ZM166.315 128.125C166.315 124.675 168.49 123.05 170.89 123.05C173.24 123.05 175.515 124.675 175.515 128.125C175.515 131.6 173.19 133.225 170.815 133.225C168.44 133.225 166.315 131.6 166.315 128.125ZM183.506 135H185.856L189.156 124.125L192.456 135H194.806L199.081 121.3H196.831L193.731 132.825L190.406 121.3H188.081L184.681 132.8L181.531 121.3H179.206L183.506 135ZM211.364 135H213.614V126.925C213.614 123 211.189 121.05 208.014 121.05C206.164 121.05 204.514 121.825 203.614 123.25V121.3H201.339V135H203.614V127.425C203.614 124.475 205.214 123.025 207.539 123.025C209.839 123.025 211.364 124.45 211.364 127.25V135ZM217.33 135H219.605V116.5H217.33V135ZM236.483 128.125C236.483 123.8 233.458 121.075 229.558 121.075C225.683 121.075 222.633 123.8 222.633 128.125C222.633 132.475 225.583 135.225 229.458 135.225C233.358 135.225 236.483 132.475 236.483 128.125ZM224.958 128.125C224.958 124.675 227.133 123.05 229.533 123.05C231.883 123.05 234.158 124.675 234.158 128.125C234.158 131.6 231.833 133.225 229.458 133.225C227.083 133.225 224.958 131.6 224.958 128.125ZM238.624 128.1C238.624 132.35 241.449 135.225 245.099 135.225C247.624 135.225 249.399 133.925 250.224 132.45V135H252.524V121.3H250.224V123.8C249.424 122.375 247.674 121.075 245.124 121.075C241.449 121.075 238.624 123.825 238.624 128.1ZM250.224 128.125C250.224 131.35 248.074 133.225 245.574 133.225C243.074 133.225 240.949 131.325 240.949 128.1C240.949 124.875 243.074 123.05 245.574 123.05C248.074 123.05 250.224 124.95 250.224 128.125ZM255.518 128.1C255.518 132.35 258.343 135.225 262.018 135.225C264.518 135.225 266.293 133.95 267.118 132.425V135H269.418V116.5H267.118V123.75C266.168 122.175 264.193 121.075 262.043 121.075C258.343 121.075 255.518 123.825 255.518 128.1ZM267.118 128.125C267.118 131.35 264.968 133.225 262.468 133.225C259.968 133.225 257.843 131.325 257.843 128.1C257.843 124.875 259.968 123.05 262.468 123.05C264.968 123.05 267.118 124.95 267.118 128.125ZM283.113 131.275C283.013 126.375 275.063 128.15 275.063 124.9C275.063 123.8 276.063 123 277.738 123C279.563 123 280.613 124 280.713 125.375H282.988C282.838 122.7 280.838 121.075 277.813 121.075C274.763 121.075 272.788 122.8 272.788 124.9C272.788 130 280.888 128.225 280.888 131.275C280.888 132.4 279.888 133.3 278.088 133.3C276.163 133.3 274.988 132.3 274.863 130.975H272.513C272.663 133.475 274.913 135.225 278.113 135.225C281.138 135.225 283.113 133.525 283.113 131.275Z" fill="#B1B1B1"/>
<line x1="4.37114e-08" y1="177.5" x2="928" y2="177.5" stroke="white"/>
<path d="M21.0701 230.275C21.0701 235.5 24.8951 239.15 29.7701 239.15C33.5451 239.15 36.5451 237.275 37.8451 233.925H35.1201C34.1701 236 32.3201 237.175 29.7701 237.175C26.1201 237.175 23.3951 234.525 23.3951 230.275C23.3951 226 26.1201 223.35 29.7701 223.35C32.3201 223.35 34.1701 224.525 35.1201 226.625H37.8451C36.5451 223.25 33.5451 221.35 29.7701 221.35C24.8951 221.35 21.0701 225.05 21.0701 230.275ZM54.2316 232.125C54.2316 227.8 51.2066 225.075 47.3066 225.075C43.4316 225.075 40.3816 227.8 40.3816 232.125C40.3816 236.475 43.3316 239.225 47.2066 239.225C51.1066 239.225 54.2316 236.475 54.2316 232.125ZM42.7066 232.125C42.7066 228.675 44.8816 227.05 47.2816 227.05C49.6316 227.05 51.9066 228.675 51.9066 232.125C51.9066 235.6 49.5816 237.225 47.2066 237.225C44.8316 237.225 42.7066 235.6 42.7066 232.125ZM57.2229 239H59.4979V220.5H57.2229V239ZM63.3752 239H65.6502V220.5H63.3752V239ZM75.3525 227C77.7025 227 79.7025 228.475 79.6775 231.15H71.0275C71.2775 228.475 73.1275 227 75.3525 227ZM81.7525 234.775H79.3025C78.8025 236.25 77.5025 237.3 75.4525 237.3C73.1275 237.3 71.1775 235.775 71.0025 233H81.9525C82.0025 232.525 82.0275 232.125 82.0275 231.625C82.0275 227.875 79.4275 225.075 75.4525 225.075C71.4525 225.075 68.6775 227.8 68.6775 232.125C68.6775 236.475 71.5525 239.225 75.4525 239.225C78.8525 239.225 81.0525 237.275 81.7525 234.775ZM84.1805 232.125C84.1805 236.475 86.9555 239.225 90.8555 239.225C94.2555 239.225 96.4805 237.325 97.1805 234.6H94.7305C94.2305 236.325 92.8805 237.3 90.8555 237.3C88.3555 237.3 86.5055 235.525 86.5055 232.125C86.5055 228.775 88.3555 227 90.8555 227C92.8805 227 94.2555 228.05 94.7305 229.7H97.1805C96.4805 226.825 94.2555 225.075 90.8555 225.075C86.9555 225.075 84.1805 227.825 84.1805 232.125ZM100.716 235.25C100.716 238 102.091 239 104.516 239H106.566V237.075H104.891C103.491 237.075 102.991 236.6 102.991 235.25V227.175H106.566V225.3H102.991V221.85H100.716V225.3H98.941V227.175H100.716V235.25ZM109.322 239H111.597V225.3H109.322V239ZM110.497 223.075C111.322 223.075 111.997 222.4 111.997 221.525C111.997 220.65 111.322 219.975 110.497 219.975C109.622 219.975 108.947 220.65 108.947 221.525C108.947 222.4 109.622 223.075 110.497 223.075ZM117.75 227.85V220.5H115.475V239H117.75V236.475C118.6 237.975 120.375 239.225 122.875 239.225C126.55 239.225 129.375 236.35 129.375 232.1C129.375 227.825 126.575 225.075 122.875 225.075C120.45 225.075 118.625 226.325 117.75 227.85ZM127.05 232.1C127.05 235.325 124.925 237.225 122.4 237.225C119.925 237.225 117.75 235.35 117.75 232.125C117.75 228.95 119.925 227.05 122.4 227.05C124.925 227.05 127.05 228.875 127.05 232.1ZM132.369 239H134.644V220.5H132.369V239ZM144.347 227C146.697 227 148.697 228.475 148.672 231.15H140.022C140.272 228.475 142.122 227 144.347 227ZM150.747 234.775H148.297C147.797 236.25 146.497 237.3 144.447 237.3C142.122 237.3 140.172 235.775 139.997 233H150.947C150.997 232.525 151.022 232.125 151.022 231.625C151.022 227.875 148.422 225.075 144.447 225.075C140.447 225.075 137.672 227.8 137.672 232.125C137.672 236.475 140.547 239.225 144.447 239.225C147.847 239.225 150.047 237.275 150.747 234.775ZM160.64 232.575C160.64 237.1 163.59 239.175 167.19 239.175C170.79 239.175 173.765 237.1 173.765 232.575V221.575H171.49V232.6C171.49 235.8 169.79 237.175 167.215 237.175C164.64 237.175 162.915 235.8 162.915 232.6V221.575H160.64V232.575ZM178.06 235.25C178.06 238 179.435 239 181.86 239H183.91V237.075H182.235C180.835 237.075 180.335 236.6 180.335 235.25V227.175H183.91V225.3H180.335V221.85H178.06V225.3H176.285V227.175H178.06V235.25ZM186.666 239H188.941V225.3H186.666V239ZM187.841 223.075C188.666 223.075 189.341 222.4 189.341 221.525C189.341 220.65 188.666 219.975 187.841 219.975C186.966 219.975 186.291 220.65 186.291 221.525C186.291 222.4 186.966 223.075 187.841 223.075ZM192.819 239H195.094V220.5H192.819V239ZM198.971 239H201.246V225.3H198.971V239ZM200.146 223.075C200.971 223.075 201.646 222.4 201.646 221.525C201.646 220.65 200.971 219.975 200.146 219.975C199.271 219.975 198.596 220.65 198.596 221.525C198.596 222.4 199.271 223.075 200.146 223.075ZM205.623 235.25C205.623 238 206.998 239 209.423 239H211.473V237.075H209.798C208.398 237.075 207.898 236.6 207.898 235.25V227.175H211.473V225.3H207.898V221.85H205.623V225.3H203.848V227.175H205.623V235.25ZM219.43 236.4L215.13 225.3H212.605L218.13 238.85L215.43 245.45H217.78L226.03 225.3H223.68L219.43 236.4Z" fill="#B1B1B1"/>
<line x1="4.37114e-08" y1="281.5" x2="928" y2="281.5" stroke="white"/>
<path d="M31.8201 338.1C31.8201 340 30.4701 341.125 28.2201 341.125H24.1951V334.975H28.1451C30.3701 334.975 31.8201 336.175 31.8201 338.1ZM31.3701 330.275C31.3701 332.05 30.1451 333.1 28.0201 333.1H24.1951V327.45H27.9701C30.1951 327.45 31.3701 328.55 31.3701 330.275ZM34.0951 338.325C34.0951 336.175 32.5451 334.35 30.6451 334.025C32.3201 333.475 33.6951 332.2 33.6951 330C33.6951 327.575 31.8451 325.575 28.1701 325.575H21.9201V343H28.4201C32.0201 343 34.0951 340.95 34.0951 338.325ZM49.4021 329.3H47.1271V336.825C47.1271 339.775 45.5521 341.225 43.2021 341.225C40.9021 341.225 39.3771 339.8 39.3771 337.025V329.3H37.1271V337.325C37.1271 341.25 39.6021 343.2 42.7521 343.2C44.5771 343.2 46.2521 342.4 47.1271 340.975V343H49.4021V329.3ZM58.4434 340.4L54.1434 329.3H51.6184L57.1434 342.85L54.4434 349.45H56.7934L65.0434 329.3H62.6934L58.4434 340.4ZM84.4953 329.3C84.6203 326.975 82.9453 325.225 80.1953 325.225C77.3703 325.225 75.5953 326.875 75.5953 329.1C75.5953 330.375 76.0203 331.35 77.0953 332.6C74.3703 333.675 72.9953 335.6 72.9953 338C72.9953 341.225 75.4703 343.3 79.0953 343.3C81.5453 343.3 83.4203 342.45 85.0953 340.7L87.3703 343H90.3453L86.4203 339.075C86.7703 338.575 87.0953 338.075 87.4203 337.5L89.4703 333.95H87.0203L85.3203 336.8C85.1703 337.05 85.0203 337.275 84.8703 337.5L79.6703 332.275C78.4453 330.975 77.8703 330.125 77.8703 329.1C77.8703 327.95 78.7453 327.1 80.0953 327.1C81.3203 327.1 82.2703 327.875 82.2203 329.3H84.4953ZM79.0953 341.35C76.8203 341.35 75.2703 339.875 75.2703 337.925C75.2703 336.175 76.2953 334.875 78.4703 334.05L83.5953 339.2C82.2953 340.65 80.8953 341.35 79.0953 341.35ZM110.467 338.25C110.467 331.8 101.067 334.6 101.067 330.1C101.067 328.225 102.542 327.25 104.417 327.3C106.542 327.325 107.642 328.65 107.792 329.825H110.292C110.017 327.175 107.842 325.35 104.517 325.35C101.067 325.35 98.7418 327.3 98.7418 330.175C98.7418 336.65 108.167 333.65 108.167 338.35C108.167 340 106.867 341.25 104.667 341.25C102.242 341.25 101.217 339.8 101.067 338.35H98.6418C98.6918 341.225 101.167 343.175 104.667 343.175C108.442 343.175 110.467 340.725 110.467 338.25ZM119.64 331C121.99 331 123.99 332.475 123.965 335.15H115.315C115.565 332.475 117.415 331 119.64 331ZM126.04 338.775H123.59C123.09 340.25 121.79 341.3 119.74 341.3C117.415 341.3 115.465 339.775 115.29 337H126.24C126.29 336.525 126.315 336.125 126.315 335.625C126.315 331.875 123.715 329.075 119.74 329.075C115.74 329.075 112.965 331.8 112.965 336.125C112.965 340.475 115.84 343.225 119.74 343.225C123.14 343.225 125.34 341.275 126.04 338.775ZM129.318 343H131.593V324.5H129.318V343ZM135.47 343H137.745V324.5H135.47V343Z" fill="#B1B1B1"/>
<line x1="4.37114e-08" y1="385.5" x2="928" y2="385.5" stroke="white"/>
<path d="M27.3451 429.575H21.9201V447H27.3451C33.0701 447 36.5951 443.725 36.5951 438.325C36.5951 432.925 33.0701 429.575 27.3451 429.575ZM24.1951 445.125V431.425H27.3451C31.8951 431.425 34.2701 434.075 34.2701 438.325C34.2701 442.575 31.8951 445.125 27.3451 445.125H24.1951ZM39.5959 447H41.8709V433.3H39.5959V447ZM40.7709 431.075C41.5959 431.075 42.2709 430.4 42.2709 429.525C42.2709 428.65 41.5959 427.975 40.7709 427.975C39.8959 427.975 39.2209 428.65 39.2209 429.525C39.2209 430.4 39.8959 431.075 40.7709 431.075ZM48.0232 439.55C48.0232 436.375 49.6732 435.4 51.8482 435.4H52.4482V433.05C50.2732 433.05 48.7982 434 48.0232 435.525V433.3H45.7482V447H48.0232V439.55ZM60.8994 435C63.2494 435 65.2494 436.475 65.2244 439.15H56.5744C56.8244 436.475 58.6744 435 60.8994 435ZM67.2994 442.775H64.8494C64.3494 444.25 63.0494 445.3 60.9994 445.3C58.6744 445.3 56.7244 443.775 56.5494 441H67.4994C67.5494 440.525 67.5744 440.125 67.5744 439.625C67.5744 435.875 64.9744 433.075 60.9994 433.075C56.9994 433.075 54.2244 435.8 54.2244 440.125C54.2244 444.475 57.0994 447.225 60.9994 447.225C64.3994 447.225 66.5994 445.275 67.2994 442.775ZM69.7273 440.125C69.7273 444.475 72.5023 447.225 76.4023 447.225C79.8023 447.225 82.0273 445.325 82.7273 442.6H80.2773C79.7773 444.325 78.4273 445.3 76.4023 445.3C73.9023 445.3 72.0523 443.525 72.0523 440.125C72.0523 436.775 73.9023 435 76.4023 435C78.4273 435 79.8023 436.05 80.2773 437.7H82.7273C82.0273 434.825 79.8023 433.075 76.4023 433.075C72.5023 433.075 69.7273 435.825 69.7273 440.125ZM86.2629 443.25C86.2629 446 87.6379 447 90.0629 447H92.1129V445.075H90.4379C89.0379 445.075 88.5379 444.6 88.5379 443.25V435.175H92.1129V433.3H88.5379V429.85H86.2629V433.3H84.4879V435.175H86.2629V443.25ZM94.8693 447H97.1443V428.5H94.8693V447ZM106.222 444.4L101.922 433.3H99.3967L104.922 446.85L102.222 453.45H104.572L112.822 433.3H110.472L106.222 444.4ZM131.674 442.1C131.674 444 130.324 445.125 128.074 445.125H124.049V438.975H127.999C130.224 438.975 131.674 440.175 131.674 442.1ZM131.224 434.275C131.224 436.05 129.999 437.1 127.874 437.1H124.049V431.45H127.824C130.049 431.45 131.224 432.55 131.224 434.275ZM133.949 442.325C133.949 440.175 132.399 438.35 130.499 438.025C132.174 437.475 133.549 436.2 133.549 434C133.549 431.575 131.699 429.575 128.024 429.575H121.774V447H128.274C131.874 447 133.949 444.95 133.949 442.325ZM142.931 435C145.281 435 147.281 436.475 147.256 439.15H138.606C138.856 436.475 140.706 435 142.931 435ZM149.331 442.775H146.881C146.381 444.25 145.081 445.3 143.031 445.3C140.706 445.3 138.756 443.775 138.581 441H149.531C149.581 440.525 149.606 440.125 149.606 439.625C149.606 435.875 147.006 433.075 143.031 433.075C139.031 433.075 136.256 435.8 136.256 440.125C136.256 444.475 139.131 447.225 143.031 447.225C146.431 447.225 148.631 445.275 149.331 442.775ZM162.634 447H164.884V438.925C164.884 435 162.459 433.05 159.284 433.05C157.434 433.05 155.784 433.825 154.884 435.25V433.3H152.609V447H154.884V439.425C154.884 436.475 156.484 435.025 158.809 435.025C161.109 435.025 162.634 436.45 162.634 439.25V447ZM174.425 435C176.775 435 178.775 436.475 178.75 439.15H170.1C170.35 436.475 172.2 435 174.425 435ZM180.825 442.775H178.375C177.875 444.25 176.575 445.3 174.525 445.3C172.2 445.3 170.25 443.775 170.075 441H181.025C181.075 440.525 181.1 440.125 181.1 439.625C181.1 435.875 178.5 433.075 174.525 433.075C170.525 433.075 167.75 435.8 167.75 440.125C167.75 444.475 170.625 447.225 174.525 447.225C177.925 447.225 180.125 445.275 180.825 442.775ZM184.528 447H186.803V435.175H189.678V433.3H186.803V432.325C186.803 430.55 187.478 429.8 189.528 429.8V427.9C186.028 427.9 184.528 429.275 184.528 432.325V433.3H182.753V435.175H184.528V447ZM192.33 447H194.605V433.3H192.33V447ZM193.505 431.075C194.33 431.075 195.005 430.4 195.005 429.525C195.005 428.65 194.33 427.975 193.505 427.975C192.63 427.975 191.955 428.65 191.955 429.525C191.955 430.4 192.63 431.075 193.505 431.075ZM198.983 443.25C198.983 446 200.358 447 202.783 447H204.833V445.075H203.158C201.758 445.075 201.258 444.6 201.258 443.25V435.175H204.833V433.3H201.258V429.85H198.983V433.3H197.208V435.175H198.983V443.25ZM217.439 443.275C217.339 438.375 209.389 440.15 209.389 436.9C209.389 435.8 210.389 435 212.064 435C213.889 435 214.939 436 215.039 437.375H217.314C217.164 434.7 215.164 433.075 212.139 433.075C209.089 433.075 207.114 434.8 207.114 436.9C207.114 442 215.214 440.225 215.214 443.275C215.214 444.4 214.214 445.3 212.414 445.3C210.489 445.3 209.314 444.3 209.189 442.975H206.839C206.989 445.475 209.239 447.225 212.439 447.225C215.464 447.225 217.439 445.525 217.439 443.275ZM239.016 447H241.416L235.141 429.675H232.516L226.216 447H228.616L230.016 443.125H237.616L239.016 447ZM236.966 441.275H230.666L233.816 432.475L236.966 441.275ZM246.436 439.55C246.436 436.375 248.086 435.4 250.261 435.4H250.861V433.05C248.686 433.05 247.211 434 246.436 435.525V433.3H244.161V447H246.436V439.55ZM253.988 443.25C253.988 446 255.363 447 257.788 447H259.838V445.075H258.162C256.763 445.075 256.263 444.6 256.263 443.25V435.175H259.838V433.3H256.263V429.85H253.988V433.3H252.213V435.175H253.988V443.25ZM262.594 447H264.869V433.3H262.594V447ZM263.769 431.075C264.594 431.075 265.269 430.4 265.269 429.525C265.269 428.65 264.594 427.975 263.769 427.975C262.894 427.975 262.219 428.65 262.219 429.525C262.219 430.4 262.894 431.075 263.769 431.075ZM278.596 443.275C278.496 438.375 270.546 440.15 270.546 436.9C270.546 435.8 271.546 435 273.221 435C275.046 435 276.096 436 276.196 437.375H278.471C278.321 434.7 276.321 433.075 273.296 433.075C270.246 433.075 268.271 434.8 268.271 436.9C268.271 442 276.371 440.225 276.371 443.275C276.371 444.4 275.371 445.3 273.571 445.3C271.646 445.3 270.471 444.3 270.346 442.975H267.996C268.146 445.475 270.396 447.225 273.596 447.225C276.621 447.225 278.596 445.525 278.596 443.275ZM282.308 443.25C282.308 446 283.683 447 286.108 447H288.158V445.075H286.483C285.083 445.075 284.583 444.6 284.583 443.25V435.175H288.158V433.3H284.583V429.85H282.308V433.3H280.533V435.175H282.308V443.25ZM300.764 443.275C300.664 438.375 292.714 440.15 292.714 436.9C292.714 435.8 293.714 435 295.389 435C297.214 435 298.264 436 298.364 437.375H300.639C300.489 434.7 298.489 433.075 295.464 433.075C292.414 433.075 290.439 434.8 290.439 436.9C290.439 442 298.539 440.225 298.539 443.275C298.539 444.4 297.539 445.3 295.739 445.3C293.814 445.3 292.639 444.3 292.514 442.975H290.164C290.314 445.475 292.564 447.225 295.764 447.225C298.789 447.225 300.764 445.525 300.764 443.275Z" fill="#B1B1B1"/>
<line x1="4.37114e-08" y1="489.5" x2="928" y2="489.5" stroke="white"/>
<path d="M33.6201 551H36.0201L29.7451 533.675H27.1201L20.8201 551H23.2201L24.6201 547.125H32.2201L33.6201 551ZM31.5701 545.275H25.2701L28.4201 536.475L31.5701 545.275ZM37.9158 544.125C37.9158 548.475 40.6908 551.225 44.5908 551.225C47.9908 551.225 50.2158 549.325 50.9158 546.6H48.4658C47.9658 548.325 46.6158 549.3 44.5908 549.3C42.0908 549.3 40.2408 547.525 40.2408 544.125C40.2408 540.775 42.0908 539 44.5908 539C46.6158 539 47.9908 540.05 48.4658 541.7H50.9158C50.2158 538.825 47.9908 537.075 44.5908 537.075C40.6908 537.075 37.9158 539.825 37.9158 544.125ZM53.1014 544.125C53.1014 548.475 55.8764 551.225 59.7764 551.225C63.1764 551.225 65.4014 549.325 66.1014 546.6H63.6514C63.1514 548.325 61.8014 549.3 59.7764 549.3C57.2764 549.3 55.4264 547.525 55.4264 544.125C55.4264 540.775 57.2764 539 59.7764 539C61.8014 539 63.1764 540.05 63.6514 541.7H66.1014C65.4014 538.825 63.1764 537.075 59.7764 537.075C55.8764 537.075 53.1014 539.825 53.1014 544.125ZM74.9619 539C77.3119 539 79.3119 540.475 79.2869 543.15H70.6369C70.8869 540.475 72.7369 539 74.9619 539ZM81.3619 546.775H78.9119C78.4119 548.25 77.1119 549.3 75.0619 549.3C72.7369 549.3 70.7869 547.775 70.6119 545H81.5619C81.6119 544.525 81.6369 544.125 81.6369 543.625C81.6369 539.875 79.0369 537.075 75.0619 537.075C71.0619 537.075 68.2869 539.8 68.2869 544.125C68.2869 548.475 71.1619 551.225 75.0619 551.225C78.4619 551.225 80.6619 549.275 81.3619 546.775ZM94.4898 547.275C94.3898 542.375 86.4398 544.15 86.4398 540.9C86.4398 539.8 87.4398 539 89.1148 539C90.9398 539 91.9898 540 92.0898 541.375H94.3648C94.2148 538.7 92.2148 537.075 89.1898 537.075C86.1398 537.075 84.1648 538.8 84.1648 540.9C84.1648 546 92.2648 544.225 92.2648 547.275C92.2648 548.4 91.2648 549.3 89.4648 549.3C87.5398 549.3 86.3648 548.3 86.2398 546.975H83.8898C84.0398 549.475 86.2898 551.225 89.4898 551.225C92.5148 551.225 94.4898 549.525 94.4898 547.275ZM107.551 547.275C107.451 542.375 99.5014 544.15 99.5014 540.9C99.5014 539.8 100.501 539 102.176 539C104.001 539 105.051 540 105.151 541.375H107.426C107.276 538.7 105.276 537.075 102.251 537.075C99.2014 537.075 97.2264 538.8 97.2264 540.9C97.2264 546 105.326 544.225 105.326 547.275C105.326 548.4 104.326 549.3 102.526 549.3C100.601 549.3 99.4264 548.3 99.3014 546.975H96.9514C97.1014 549.475 99.3514 551.225 102.551 551.225C105.576 551.225 107.551 549.525 107.551 547.275ZM110.763 551H113.038V537.3H110.763V551ZM111.938 535.075C112.763 535.075 113.438 534.4 113.438 533.525C113.438 532.65 112.763 531.975 111.938 531.975C111.063 531.975 110.388 532.65 110.388 533.525C110.388 534.4 111.063 535.075 111.938 535.075ZM119.19 539.85V532.5H116.915V551H119.19V548.475C120.04 549.975 121.815 551.225 124.315 551.225C127.99 551.225 130.815 548.35 130.815 544.1C130.815 539.825 128.015 537.075 124.315 537.075C121.89 537.075 120.065 538.325 119.19 539.85ZM128.49 544.1C128.49 547.325 126.365 549.225 123.84 549.225C121.365 549.225 119.19 547.35 119.19 544.125C119.19 540.95 121.365 539.05 123.84 539.05C126.365 539.05 128.49 540.875 128.49 544.1ZM133.81 551H136.085V532.5H133.81V551ZM145.787 539C148.137 539 150.137 540.475 150.112 543.15H141.462C141.712 540.475 143.562 539 145.787 539ZM152.187 546.775H149.737C149.237 548.25 147.937 549.3 145.887 549.3C143.562 549.3 141.612 547.775 141.437 545H152.387C152.437 544.525 152.462 544.125 152.462 543.625C152.462 539.875 149.862 537.075 145.887 537.075C141.887 537.075 139.112 539.8 139.112 544.125C139.112 548.475 141.987 551.225 145.887 551.225C149.287 551.225 151.487 549.275 152.187 546.775ZM162.13 551H164.405V543.15H170.555V541.3H164.405V535.425H171.98V533.575H162.13V551ZM187.728 544.125C187.728 539.8 184.703 537.075 180.803 537.075C176.928 537.075 173.878 539.8 173.878 544.125C173.878 548.475 176.828 551.225 180.703 551.225C184.603 551.225 187.728 548.475 187.728 544.125ZM176.203 544.125C176.203 540.675 178.378 539.05 180.778 539.05C183.128 539.05 185.403 540.675 185.403 544.125C185.403 547.6 183.078 549.225 180.703 549.225C178.328 549.225 176.203 547.6 176.203 544.125ZM192.994 543.55C192.994 540.375 194.644 539.4 196.819 539.4H197.419V537.05C195.244 537.05 193.769 538 192.994 539.525V537.3H190.719V551H192.994V543.55ZM218.41 551H220.81L214.535 533.675H211.91L205.61 551H208.01L209.41 547.125H217.01L218.41 551ZM216.36 545.275H210.06L213.21 536.475L216.36 545.275ZM230.221 533.575V551H238.596V549.15H232.496V533.575H230.221ZM241.012 551H243.287V537.3H241.012V551ZM242.187 535.075C243.012 535.075 243.687 534.4 243.687 533.525C243.687 532.65 243.012 531.975 242.187 531.975C241.312 531.975 240.637 532.65 240.637 533.525C240.637 534.4 241.312 535.075 242.187 535.075ZM247.589 551H249.864V539.175H252.739V537.3H249.864V536.325C249.864 534.55 250.539 533.8 252.589 533.8V531.9C249.089 531.9 247.589 533.275 247.589 536.325V537.3H245.814V539.175H247.589V551ZM261.217 539C263.567 539 265.567 540.475 265.542 543.15H256.892C257.142 540.475 258.992 539 261.217 539ZM267.617 546.775H265.167C264.667 548.25 263.367 549.3 261.317 549.3C258.992 549.3 257.042 547.775 256.867 545H267.817C267.867 544.525 267.892 544.125 267.892 543.625C267.892 539.875 265.292 537.075 261.317 537.075C257.317 537.075 254.542 539.8 254.542 544.125C254.542 548.475 257.417 551.225 261.317 551.225C264.717 551.225 266.917 549.275 267.617 546.775ZM271.395 547.25C271.395 550 272.77 551 275.195 551H277.245V549.075H275.57C274.17 549.075 273.67 548.6 273.67 547.25V539.175H277.245V537.3H273.67V533.85H271.395V537.3H269.62V539.175H271.395V547.25ZM280.001 551H282.276V537.3H280.001V551ZM281.176 535.075C282.001 535.075 282.676 534.4 282.676 533.525C282.676 532.65 282.001 531.975 281.176 531.975C280.301 531.975 279.626 532.65 279.626 533.525C279.626 534.4 280.301 535.075 281.176 535.075ZM305.929 551H308.179V542.925C308.179 539 305.754 537.05 302.629 537.05C300.529 537.05 298.579 538.125 297.779 540.1C296.879 538.05 295.004 537.05 292.754 537.05C290.954 537.05 289.329 537.825 288.429 539.275V537.3H286.154V551H288.429V543.45C288.429 540.5 290.004 539.025 292.304 539.025C294.554 539.025 296.054 540.45 296.054 543.25V551H298.304V543.45C298.304 540.5 299.879 539.025 302.179 539.025C304.429 539.025 305.929 540.45 305.929 543.25V551ZM317.735 539C320.085 539 322.085 540.475 322.06 543.15H313.41C313.66 540.475 315.51 539 317.735 539ZM324.135 546.775H321.685C321.185 548.25 319.885 549.3 317.835 549.3C315.51 549.3 313.56 547.775 313.385 545H324.335C324.385 544.525 324.41 544.125 324.41 543.625C324.41 539.875 321.81 537.075 317.835 537.075C313.835 537.075 311.06 539.8 311.06 544.125C311.06 548.475 313.935 551.225 317.835 551.225C321.235 551.225 323.435 549.275 324.135 546.775Z" fill="#B1B1B1"/>
<line x1="4.37114e-08" y1="593.5" x2="928" y2="593.5" stroke="white"/>
<path d="M33.6201 655H36.0201L29.7451 637.675H27.1201L20.8201 655H23.2201L24.6201 651.125H32.2201L33.6201 655ZM31.5701 649.275H25.2701L28.4201 640.475L31.5701 649.275ZM37.9158 648.125C37.9158 652.475 40.6908 655.225 44.5908 655.225C47.9908 655.225 50.2158 653.325 50.9158 650.6H48.4658C47.9658 652.325 46.6158 653.3 44.5908 653.3C42.0908 653.3 40.2408 651.525 40.2408 648.125C40.2408 644.775 42.0908 643 44.5908 643C46.6158 643 47.9908 644.05 48.4658 645.7H50.9158C50.2158 642.825 47.9908 641.075 44.5908 641.075C40.6908 641.075 37.9158 643.825 37.9158 648.125ZM53.1014 648.125C53.1014 652.475 55.8764 655.225 59.7764 655.225C63.1764 655.225 65.4014 653.325 66.1014 650.6H63.6514C63.1514 652.325 61.8014 653.3 59.7764 653.3C57.2764 653.3 55.4264 651.525 55.4264 648.125C55.4264 644.775 57.2764 643 59.7764 643C61.8014 643 63.1764 644.05 63.6514 645.7H66.1014C65.4014 642.825 63.1764 641.075 59.7764 641.075C55.8764 641.075 53.1014 643.825 53.1014 648.125ZM74.9619 643C77.3119 643 79.3119 644.475 79.2869 647.15H70.6369C70.8869 644.475 72.7369 643 74.9619 643ZM81.3619 650.775H78.9119C78.4119 652.25 77.1119 653.3 75.0619 653.3C72.7369 653.3 70.7869 651.775 70.6119 649H81.5619C81.6119 648.525 81.6369 648.125 81.6369 647.625C81.6369 643.875 79.0369 641.075 75.0619 641.075C71.0619 641.075 68.2869 643.8 68.2869 648.125C68.2869 652.475 71.1619 655.225 75.0619 655.225C78.4619 655.225 80.6619 653.275 81.3619 650.775ZM94.4898 651.275C94.3898 646.375 86.4398 648.15 86.4398 644.9C86.4398 643.8 87.4398 643 89.1148 643C90.9398 643 91.9898 644 92.0898 645.375H94.3648C94.2148 642.7 92.2148 641.075 89.1898 641.075C86.1398 641.075 84.1648 642.8 84.1648 644.9C84.1648 650 92.2648 648.225 92.2648 651.275C92.2648 652.4 91.2648 653.3 89.4648 653.3C87.5398 653.3 86.3648 652.3 86.2398 650.975H83.8898C84.0398 653.475 86.2898 655.225 89.4898 655.225C92.5148 655.225 94.4898 653.525 94.4898 651.275ZM107.551 651.275C107.451 646.375 99.5014 648.15 99.5014 644.9C99.5014 643.8 100.501 643 102.176 643C104.001 643 105.051 644 105.151 645.375H107.426C107.276 642.7 105.276 641.075 102.251 641.075C99.2014 641.075 97.2264 642.8 97.2264 644.9C97.2264 650 105.326 648.225 105.326 651.275C105.326 652.4 104.326 653.3 102.526 653.3C100.601 653.3 99.4264 652.3 99.3014 650.975H96.9514C97.1014 653.475 99.3514 655.225 102.551 655.225C105.576 655.225 107.551 653.525 107.551 651.275ZM110.763 655H113.038V641.3H110.763V655ZM111.938 639.075C112.763 639.075 113.438 638.4 113.438 637.525C113.438 636.65 112.763 635.975 111.938 635.975C111.063 635.975 110.388 636.65 110.388 637.525C110.388 638.4 111.063 639.075 111.938 639.075ZM119.19 643.85V636.5H116.915V655H119.19V652.475C120.04 653.975 121.815 655.225 124.315 655.225C127.99 655.225 130.815 652.35 130.815 648.1C130.815 643.825 128.015 641.075 124.315 641.075C121.89 641.075 120.065 642.325 119.19 643.85ZM128.49 648.1C128.49 651.325 126.365 653.225 123.84 653.225C121.365 653.225 119.19 651.35 119.19 648.125C119.19 644.95 121.365 643.05 123.84 643.05C126.365 643.05 128.49 644.875 128.49 648.1ZM133.81 655H136.085V636.5H133.81V655ZM145.787 643C148.137 643 150.137 644.475 150.112 647.15H141.462C141.712 644.475 143.562 643 145.787 643ZM152.187 650.775H149.737C149.237 652.25 147.937 653.3 145.887 653.3C143.562 653.3 141.612 651.775 141.437 649H152.387C152.437 648.525 152.462 648.125 152.462 647.625C152.462 643.875 149.862 641.075 145.887 641.075C141.887 641.075 139.112 643.8 139.112 648.125C139.112 652.475 141.987 655.225 145.887 655.225C149.287 655.225 151.487 653.275 152.187 650.775ZM162.13 655H164.405V647.15H170.555V645.3H164.405V639.425H171.98V637.575H162.13V655ZM187.728 648.125C187.728 643.8 184.703 641.075 180.803 641.075C176.928 641.075 173.878 643.8 173.878 648.125C173.878 652.475 176.828 655.225 180.703 655.225C184.603 655.225 187.728 652.475 187.728 648.125ZM176.203 648.125C176.203 644.675 178.378 643.05 180.778 643.05C183.128 643.05 185.403 644.675 185.403 648.125C185.403 651.6 183.078 653.225 180.703 653.225C178.328 653.225 176.203 651.6 176.203 648.125ZM192.994 647.55C192.994 644.375 194.644 643.4 196.819 643.4H197.419V641.05C195.244 641.05 193.769 642 192.994 643.525V641.3H190.719V655H192.994V647.55ZM218.41 655H220.81L214.535 637.675H211.91L205.61 655H208.01L209.41 651.125H217.01L218.41 655ZM216.36 649.275H210.06L213.21 640.475L216.36 649.275ZM230.221 637.575V655H238.596V653.15H232.496V637.575H230.221ZM241.012 655H243.287V641.3H241.012V655ZM242.187 639.075C243.012 639.075 243.687 638.4 243.687 637.525C243.687 636.65 243.012 635.975 242.187 635.975C241.312 635.975 240.637 636.65 240.637 637.525C240.637 638.4 241.312 639.075 242.187 639.075ZM247.589 655H249.864V643.175H252.739V641.3H249.864V640.325C249.864 638.55 250.539 637.8 252.589 637.8V635.9C249.089 635.9 247.589 637.275 247.589 640.325V641.3H245.814V643.175H247.589V655ZM261.217 643C263.567 643 265.567 644.475 265.542 647.15H256.892C257.142 644.475 258.992 643 261.217 643ZM267.617 650.775H265.167C264.667 652.25 263.367 653.3 261.317 653.3C258.992 653.3 257.042 651.775 256.867 649H267.817C267.867 648.525 267.892 648.125 267.892 647.625C267.892 643.875 265.292 641.075 261.317 641.075C257.317 641.075 254.542 643.8 254.542 648.125C254.542 652.475 257.417 655.225 261.317 655.225C264.717 655.225 266.917 653.275 267.617 650.775ZM271.395 651.25C271.395 654 272.77 655 275.195 655H277.245V653.075H275.57C274.17 653.075 273.67 652.6 273.67 651.25V643.175H277.245V641.3H273.67V637.85H271.395V641.3H269.62V643.175H271.395V651.25ZM280.001 655H282.276V641.3H280.001V655ZM281.176 639.075C282.001 639.075 282.676 638.4 282.676 637.525C282.676 636.65 282.001 635.975 281.176 635.975C280.301 635.975 279.626 636.65 279.626 637.525C279.626 638.4 280.301 639.075 281.176 639.075ZM305.929 655H308.179V646.925C308.179 643 305.754 641.05 302.629 641.05C300.529 641.05 298.579 642.125 297.779 644.1C296.879 642.05 295.004 641.05 292.754 641.05C290.954 641.05 289.329 641.825 288.429 643.275V641.3H286.154V655H288.429V647.45C288.429 644.5 290.004 643.025 292.304 643.025C294.554 643.025 296.054 644.45 296.054 647.25V655H298.304V647.45C298.304 644.5 299.879 643.025 302.179 643.025C304.429 643.025 305.929 644.45 305.929 647.25V655ZM317.735 643C320.085 643 322.085 644.475 322.06 647.15H313.41C313.66 644.475 315.51 643 317.735 643ZM324.135 650.775H321.685C321.185 652.25 319.885 653.3 317.835 653.3C315.51 653.3 313.56 651.775 313.385 649H324.335C324.385 648.525 324.41 648.125 324.41 647.625C324.41 643.875 321.81 641.075 317.835 641.075C313.835 641.075 311.06 643.8 311.06 648.125C311.06 652.475 313.935 655.225 317.835 655.225C321.235 655.225 323.435 653.275 324.135 650.775Z" fill="#B1B1B1"/>
<path d="M566.35 43.1L562.35 30.375H557.1L563.2 48H569.475L575.55 30.375H570.325L566.35 43.1ZM577.077 48H581.977V33.975H577.077V48ZM579.552 32.675C581.277 32.675 582.402 31.575 582.402 30.175C582.402 28.75 581.277 27.625 579.552 27.625C577.802 27.625 576.677 28.75 576.677 30.175C576.677 31.575 577.802 32.675 579.552 32.675ZM594.317 48H599.217V39.825C599.217 36.15 597.192 33.85 593.942 33.85C591.967 33.85 590.492 34.775 589.667 35.975V33.975H584.767V48H589.667V40.475C589.667 38.85 590.567 37.9 592.017 37.9C593.417 37.9 594.317 38.85 594.317 40.475V48ZM608.781 41.925L605.831 33.975H600.381L606.131 47.4L602.781 54.675H608.106L617.006 33.975H611.631L608.781 41.925ZM618.288 48H623.188V29.5H618.288V48Z" fill="#B1B1B1"/>
<path d="M709.375 30.375H702.4V48H709.375C715 48 718.575 44.275 718.575 39.175C718.575 34 715 30.375 709.375 30.375ZM707.3 43.675V34.625H709C711.825 34.625 713.6 36.25 713.6 39.175C713.6 42.075 711.825 43.675 709 43.675H707.3ZM734.009 42.65C734.009 37 725.534 37.85 725.534 35.225C725.534 34.375 726.109 33.95 726.834 33.975C727.734 33.975 728.409 34.475 728.459 35.575H733.784C733.609 32.075 730.959 30.1 726.909 30.1C723.184 30.1 720.309 31.95 720.309 35.4C720.234 41.525 728.784 40.2 728.809 43.025C728.809 43.85 728.134 44.3 727.259 44.3C726.359 44.3 725.584 43.85 725.484 42.525H720.259C720.459 46.3 723.509 48.175 727.434 48.175C731.609 48.175 734.009 45.75 734.009 42.65ZM741.187 38.15V34.325H743.137C744.612 34.325 745.212 35.075 745.212 36.25C745.212 37.4 744.612 38.15 743.137 38.15H741.187ZM750.212 36.25C750.212 32.85 747.987 30.375 743.612 30.375H736.287V48H741.187V42.05H743.612C748.087 42.05 750.212 39.325 750.212 36.25Z" fill="#B1B1B1"/>
<path d="M820.3 30.45H809.55V48H820.3V44.575H813.825V40.725H819.55V37.425H813.825V33.875H820.3V30.45ZM822.225 41C822.225 45.4 824.95 48.2 828.375 48.2C830.425 48.2 831.9 47.275 832.675 46V48H836.95V29.5H832.675V35.975C831.825 34.7 830.225 33.85 828.375 33.85C824.95 33.85 822.225 36.6 822.225 41ZM832.675 41.025C832.675 43.25 831.25 44.475 829.625 44.475C828.025 44.475 826.575 43.225 826.575 41C826.575 38.775 828.025 37.575 829.625 37.575C831.25 37.575 832.675 38.8 832.675 41.025ZM840.043 48H844.318V34.05H840.043V48ZM842.193 32.6C843.693 32.6 844.718 31.575 844.718 30.3C844.718 29 843.693 27.975 842.193 27.975C840.668 27.975 839.643 29 839.643 30.3C839.643 31.575 840.668 32.6 842.193 32.6ZM848.091 43.15C848.091 46.775 850.116 48 853.016 48H855.191V44.375H853.666C852.716 44.375 852.366 44.025 852.366 43.2V37.6H855.166V34.05H852.366V30.65H848.091V34.05H846.391V37.6H848.091V43.15ZM856.622 33.875H861.272V48H865.547V33.875H870.197V30.45H856.622V33.875ZM876.618 41.525C876.618 39.125 877.793 38.425 879.818 38.425H880.993V33.9C879.118 33.9 877.593 34.9 876.618 36.375V34.05H872.343V48H876.618V41.525ZM882.186 41C882.186 45.4 884.911 48.2 888.311 48.2C890.386 48.2 891.861 47.25 892.636 46.025V48H896.911V34.05H892.636V36.025C891.886 34.8 890.411 33.85 888.336 33.85C884.911 33.85 882.186 36.6 882.186 41ZM892.636 41.025C892.636 43.25 891.211 44.475 889.586 44.475C887.986 44.475 886.536 43.225 886.536 41C886.536 38.775 887.986 37.575 889.586 37.575C891.211 37.575 892.636 38.8 892.636 41.025ZM908.254 48H913.054L908.254 41.075L912.929 34.05H908.304L906.054 37.9L903.379 34.05H898.579L903.304 40.875L898.704 48H903.329L905.579 44.125L908.254 48Z" fill="#B1B1B1"/>
<line x1="656.5" y1="72" x2="656.5" y2="700" stroke="white"/>
<line x1="520.5" y1="72" x2="520.5" y2="700" stroke="white"/>
<line x1="792.5" y1="72" x2="792.5" y2="700" stroke="white"/>
</svg>
