<svg width="928" height="701" viewBox="0 0 928 701" fill="none" xmlns="http://www.w3.org/2000/svg">
<rect width="928" height="73" fill="#C4C4C4"/>
<rect x="0.5" y="1.5" width="927" height="699" stroke="white"/>
<line x1="4.37114e-08" y1="74.5" x2="928" y2="74.5001" stroke="white"/>
<path d="M31.2451 123.7C31.2451 125.65 30.1201 127.05 27.5451 127.05H24.1951V120.45H27.5451C30.1451 120.45 31.2451 121.725 31.2451 123.7ZM21.9201 118.575V136H24.1951V128.875H26.9451L31.0951 136H33.8201L29.4451 128.7C32.3701 128.05 33.5951 125.925 33.5951 123.7C33.5951 120.85 31.6451 118.575 27.5451 118.575H21.9201ZM42.9551 124C45.3051 124 47.3051 125.475 47.2801 128.15H38.6301C38.8801 125.475 40.7301 124 42.9551 124ZM49.3551 131.775H46.9051C46.4051 133.25 45.1051 134.3 43.0551 134.3C40.7301 134.3 38.7801 132.775 38.6051 130H49.5551C49.6051 129.525 49.6301 129.125 49.6301 128.625C49.6301 124.875 47.0301 122.075 43.0551 122.075C39.0551 122.075 36.2801 124.8 36.2801 129.125C36.2801 133.475 39.1551 136.225 43.0551 136.225C46.4551 136.225 48.6551 134.275 49.3551 131.775ZM51.783 129.1C51.783 133.35 54.608 136.225 58.258 136.225C60.783 136.225 62.558 134.925 63.383 133.45V136H65.683V122.3H63.383V124.8C62.583 123.375 60.833 122.075 58.283 122.075C54.608 122.075 51.783 124.825 51.783 129.1ZM63.383 129.125C63.383 132.35 61.233 134.225 58.733 134.225C56.233 134.225 54.108 132.325 54.108 129.1C54.108 125.875 56.233 124.05 58.733 124.05C61.233 124.05 63.383 125.95 63.383 129.125ZM69.5275 136H71.8025V117.5H69.5275V136ZM75.2049 127.8H85.1799V125.875H75.2049V127.8ZM88.3744 120.425H93.1494V136H95.4244V120.425H100.174V118.575H88.3744V120.425ZM102.975 136H105.25V122.3H102.975V136ZM104.15 120.075C104.975 120.075 105.65 119.4 105.65 118.525C105.65 117.65 104.975 116.975 104.15 116.975C103.275 116.975 102.6 117.65 102.6 118.525C102.6 119.4 103.275 120.075 104.15 120.075ZM128.902 136H131.152V127.925C131.152 124 128.727 122.05 125.602 122.05C123.502 122.05 121.552 123.125 120.752 125.1C119.852 123.05 117.977 122.05 115.727 122.05C113.927 122.05 112.302 122.825 111.402 124.275V122.3H109.127V136H111.402V128.45C111.402 125.5 112.977 124.025 115.277 124.025C117.527 124.025 119.027 125.45 119.027 128.25V136H121.277V128.45C121.277 125.5 122.852 124.025 125.152 124.025C127.402 124.025 128.902 125.45 128.902 128.25V136ZM140.709 124C143.059 124 145.059 125.475 145.034 128.15H136.384C136.634 125.475 138.484 124 140.709 124ZM147.109 131.775H144.659C144.159 133.25 142.859 134.3 140.809 134.3C138.484 134.3 136.534 132.775 136.359 130H147.309C147.359 129.525 147.384 129.125 147.384 128.625C147.384 124.875 144.784 122.075 140.809 122.075C136.809 122.075 134.034 124.8 134.034 129.125C134.034 133.475 136.909 136.225 140.809 136.225C144.209 136.225 146.409 134.275 147.109 131.775ZM162.477 118.575H157.052V136H162.477C168.202 136 171.727 132.725 171.727 127.325C171.727 121.925 168.202 118.575 162.477 118.575ZM159.327 134.125V120.425H162.477C167.027 120.425 169.402 123.075 169.402 127.325C169.402 131.575 167.027 134.125 162.477 134.125H159.327ZM174.728 136H177.003V122.3H174.728V136ZM175.903 120.075C176.728 120.075 177.403 119.4 177.403 118.525C177.403 117.65 176.728 116.975 175.903 116.975C175.028 116.975 174.353 117.65 174.353 118.525C174.353 119.4 175.028 120.075 175.903 120.075ZM183.155 128.55C183.155 125.375 184.805 124.4 186.98 124.4H187.58V122.05C185.405 122.05 183.93 123 183.155 124.525V122.3H180.88V136H183.155V128.55ZM196.031 124C198.381 124 200.381 125.475 200.356 128.15H191.706C191.956 125.475 193.806 124 196.031 124ZM202.431 131.775H199.981C199.481 133.25 198.181 134.3 196.131 134.3C193.806 134.3 191.856 132.775 191.681 130H202.631C202.681 129.525 202.706 129.125 202.706 128.625C202.706 124.875 200.106 122.075 196.131 122.075C192.131 122.075 189.356 124.8 189.356 129.125C189.356 133.475 192.231 136.225 196.131 136.225C199.531 136.225 201.731 134.275 202.431 131.775ZM204.859 129.125C204.859 133.475 207.634 136.225 211.534 136.225C214.934 136.225 217.159 134.325 217.859 131.6H215.409C214.909 133.325 213.559 134.3 211.534 134.3C209.034 134.3 207.184 132.525 207.184 129.125C207.184 125.775 209.034 124 211.534 124C213.559 124 214.934 125.05 215.409 126.7H217.859C217.159 123.825 214.934 122.075 211.534 122.075C207.634 122.075 204.859 124.825 204.859 129.125ZM221.395 132.25C221.395 135 222.77 136 225.195 136H227.245V134.075H225.57C224.17 134.075 223.67 133.6 223.67 132.25V124.175H227.245V122.3H223.67V118.85H221.395V122.3H219.62V124.175H221.395V132.25ZM237.166 132.25C237.166 135 238.541 136 240.966 136H243.016V134.075H241.341C239.941 134.075 239.441 133.6 239.441 132.25V124.175H243.016V122.3H239.441V118.85H237.166V122.3H235.391V124.175H237.166V132.25ZM258.773 129.125C258.773 124.8 255.748 122.075 251.848 122.075C247.973 122.075 244.923 124.8 244.923 129.125C244.923 133.475 247.873 136.225 251.748 136.225C255.648 136.225 258.773 133.475 258.773 129.125ZM247.248 129.125C247.248 125.675 249.423 124.05 251.823 124.05C254.173 124.05 256.448 125.675 256.448 129.125C256.448 132.6 254.123 134.225 251.748 134.225C249.373 134.225 247.248 132.6 247.248 129.125ZM280.129 136H282.529L276.254 118.675H273.629L267.329 136H269.729L271.129 132.125H278.729L280.129 136ZM278.079 130.275H271.779L274.929 121.475L278.079 130.275ZM287.55 128.55C287.55 125.375 289.2 124.4 291.375 124.4H291.975V122.05C289.8 122.05 288.325 123 287.55 124.525V122.3H285.275V136H287.55V128.55ZM295.101 132.25C295.101 135 296.476 136 298.901 136H300.951V134.075H299.276C297.876 134.075 297.376 133.6 297.376 132.25V124.175H300.951V122.3H297.376V118.85H295.101V122.3H293.326V124.175H295.101V132.25ZM303.707 136H305.982V122.3H303.707V136ZM304.882 120.075C305.707 120.075 306.382 119.4 306.382 118.525C306.382 117.65 305.707 116.975 304.882 116.975C304.007 116.975 303.332 117.65 303.332 118.525C303.332 119.4 304.007 120.075 304.882 120.075ZM319.71 132.275C319.61 127.375 311.66 129.15 311.66 125.9C311.66 124.8 312.66 124 314.335 124C316.16 124 317.21 125 317.31 126.375H319.585C319.435 123.7 317.435 122.075 314.41 122.075C311.36 122.075 309.385 123.8 309.385 125.9C309.385 131 317.485 129.225 317.485 132.275C317.485 133.4 316.485 134.3 314.685 134.3C312.76 134.3 311.585 133.3 311.46 131.975H309.11C309.26 134.475 311.51 136.225 314.71 136.225C317.735 136.225 319.71 134.525 319.71 132.275ZM323.421 132.25C323.421 135 324.796 136 327.221 136H329.271V134.075H327.596C326.196 134.075 325.696 133.6 325.696 132.25V124.175H329.271V122.3H325.696V118.85H323.421V122.3H321.646V124.175H323.421V132.25ZM340.968 126.85V120.45H344.318C346.918 120.45 348.018 121.65 348.018 123.675C348.018 125.625 346.918 126.85 344.318 126.85H340.968ZM350.343 123.675C350.343 120.825 348.418 118.575 344.318 118.575H338.693V136H340.968V128.725H344.318C348.643 128.725 350.343 126.325 350.343 123.675ZM352.32 129.1C352.32 133.35 355.145 136.225 358.795 136.225C361.32 136.225 363.095 134.925 363.92 133.45V136H366.22V122.3H363.92V124.8C363.12 123.375 361.37 122.075 358.82 122.075C355.145 122.075 352.32 124.825 352.32 129.1ZM363.92 129.125C363.92 132.35 361.77 134.225 359.27 134.225C356.77 134.225 354.645 132.325 354.645 129.1C354.645 125.875 356.77 124.05 359.27 124.05C361.77 124.05 363.92 125.95 363.92 129.125ZM375.265 133.4L370.965 122.3H368.44L373.965 135.85L371.265 142.45H373.615L381.865 122.3H379.515L375.265 133.4ZM397.152 129.125C397.152 124.8 394.127 122.075 390.227 122.075C386.352 122.075 383.302 124.8 383.302 129.125C383.302 133.475 386.252 136.225 390.127 136.225C394.027 136.225 397.152 133.475 397.152 129.125ZM385.627 129.125C385.627 125.675 387.802 124.05 390.202 124.05C392.552 124.05 394.827 125.675 394.827 129.125C394.827 132.6 392.502 134.225 390.127 134.225C387.752 134.225 385.627 132.6 385.627 129.125ZM412.293 122.3H410.018V129.825C410.018 132.775 408.443 134.225 406.093 134.225C403.793 134.225 402.268 132.8 402.268 130.025V122.3H400.018V130.325C400.018 134.25 402.493 136.2 405.643 136.2C407.468 136.2 409.143 135.4 410.018 133.975V136H412.293V122.3ZM416.634 132.25C416.634 135 418.009 136 420.434 136H422.484V134.075H420.809C419.409 134.075 418.909 133.6 418.909 132.25V124.175H422.484V122.3H418.909V118.85H416.634V122.3H414.859V124.175H416.634V132.25ZM435.09 132.275C434.99 127.375 427.04 129.15 427.04 125.9C427.04 124.8 428.04 124 429.715 124C431.54 124 432.59 125 432.69 126.375H434.965C434.815 123.7 432.815 122.075 429.79 122.075C426.74 122.075 424.765 123.8 424.765 125.9C424.765 131 432.865 129.225 432.865 132.275C432.865 133.4 431.865 134.3 430.065 134.3C428.14 134.3 426.965 133.3 426.84 131.975H424.49C424.64 134.475 426.89 136.225 430.09 136.225C433.115 136.225 435.09 134.525 435.09 132.275Z" fill="#B1B1B1"/>
<line x1="4.37114e-08" y1="178.5" x2="928" y2="178.5" stroke="white"/>
<path d="M28.4451 237.6L22.9701 222.575H20.5451L27.1201 240H29.7451L36.3201 222.575H33.9201L28.4451 237.6ZM44.6396 228C46.9896 228 48.9896 229.475 48.9646 232.15H40.3146C40.5646 229.475 42.4146 228 44.6396 228ZM51.0396 235.775H48.5896C48.0896 237.25 46.7896 238.3 44.7396 238.3C42.4146 238.3 40.4646 236.775 40.2896 234H51.2396C51.2896 233.525 51.3146 233.125 51.3146 232.625C51.3146 228.875 48.7146 226.075 44.7396 226.075C40.7396 226.075 37.9646 228.8 37.9646 233.125C37.9646 237.475 40.8396 240.225 44.7396 240.225C48.1396 240.225 50.3396 238.275 51.0396 235.775ZM56.5926 232.55C56.5926 229.375 58.2426 228.4 60.4176 228.4H61.0176V226.05C58.8426 226.05 57.3676 227 56.5926 228.525V226.3H54.3176V240H56.5926V232.55ZM63.6438 240H65.9188V226.3H63.6438V240ZM64.8188 224.075C65.6438 224.075 66.3188 223.4 66.3188 222.525C66.3188 221.65 65.6438 220.975 64.8188 220.975C63.9438 220.975 63.2688 221.65 63.2688 222.525C63.2688 223.4 63.9438 224.075 64.8188 224.075ZM70.2211 240H72.4961V228.175H75.3711V226.3H72.4961V225.325C72.4961 223.55 73.1711 222.8 75.2211 222.8V220.9C71.7211 220.9 70.2211 222.275 70.2211 225.325V226.3H68.4461V228.175H70.2211V240ZM78.0236 240H80.2986V226.3H78.0236V240ZM79.1986 224.075C80.0236 224.075 80.6986 223.4 80.6986 222.525C80.6986 221.65 80.0236 220.975 79.1986 220.975C78.3236 220.975 77.6486 221.65 77.6486 222.525C77.6486 223.4 78.3236 224.075 79.1986 224.075ZM83.326 233.1C83.326 237.35 86.151 240.225 89.801 240.225C92.326 240.225 94.101 238.925 94.926 237.45V240H97.226V226.3H94.926V228.8C94.126 227.375 92.376 226.075 89.826 226.075C86.151 226.075 83.326 228.825 83.326 233.1ZM94.926 233.125C94.926 236.35 92.776 238.225 90.276 238.225C87.776 238.225 85.651 236.325 85.651 233.1C85.651 229.875 87.776 228.05 90.276 228.05C92.776 228.05 94.926 229.95 94.926 233.125ZM103.346 228.85V221.5H101.071V240H103.346V237.475C104.196 238.975 105.971 240.225 108.471 240.225C112.146 240.225 114.971 237.35 114.971 233.1C114.971 228.825 112.171 226.075 108.471 226.075C106.046 226.075 104.221 227.325 103.346 228.85ZM112.646 233.1C112.646 236.325 110.521 238.225 107.996 238.225C105.521 238.225 103.346 236.35 103.346 233.125C103.346 229.95 105.521 228.05 107.996 228.05C110.521 228.05 112.646 229.875 112.646 233.1ZM117.965 240H120.24V221.5H117.965V240ZM129.317 237.4L125.017 226.3H122.492L128.017 239.85L125.317 246.45H127.667L135.917 226.3H133.567L129.317 237.4ZM156.194 235.25C156.194 228.8 146.794 231.6 146.794 227.1C146.794 225.225 148.269 224.25 150.144 224.3C152.269 224.325 153.369 225.65 153.519 226.825H156.019C155.744 224.175 153.569 222.35 150.244 222.35C146.794 222.35 144.469 224.3 144.469 227.175C144.469 233.65 153.894 230.65 153.894 235.35C153.894 237 152.594 238.25 150.394 238.25C147.969 238.25 146.944 236.8 146.794 235.35H144.369C144.419 238.225 146.894 240.175 150.394 240.175C154.169 240.175 156.194 237.725 156.194 235.25ZM158.692 233.125C158.692 237.475 161.467 240.225 165.367 240.225C168.767 240.225 170.992 238.325 171.692 235.6H169.242C168.742 237.325 167.392 238.3 165.367 238.3C162.867 238.3 161.017 236.525 161.017 233.125C161.017 229.775 162.867 228 165.367 228C167.392 228 168.767 229.05 169.242 230.7H171.692C170.992 227.825 168.767 226.075 165.367 226.075C161.467 226.075 158.692 228.825 158.692 233.125ZM173.878 233.1C173.878 237.35 176.703 240.225 180.353 240.225C182.878 240.225 184.653 238.925 185.478 237.45V240H187.778V226.3H185.478V228.8C184.678 227.375 182.928 226.075 180.378 226.075C176.703 226.075 173.878 228.825 173.878 233.1ZM185.478 233.125C185.478 236.35 183.328 238.225 180.828 238.225C178.328 238.225 176.203 236.325 176.203 233.1C176.203 229.875 178.328 228.05 180.828 228.05C183.328 228.05 185.478 229.95 185.478 233.125ZM193.897 232.55C193.897 229.375 195.547 228.4 197.722 228.4H198.322V226.05C196.147 226.05 194.672 227 193.897 228.525V226.3H191.622V240H193.897V232.55ZM200.098 233.125C200.098 237.475 202.873 240.225 206.773 240.225C210.173 240.225 212.398 238.325 213.098 235.6H210.648C210.148 237.325 208.798 238.3 206.773 238.3C204.273 238.3 202.423 236.525 202.423 233.125C202.423 229.775 204.273 228 206.773 228C208.798 228 210.173 229.05 210.648 230.7H213.098C212.398 227.825 210.173 226.075 206.773 226.075C202.873 226.075 200.098 228.825 200.098 233.125ZM221.959 228C224.309 228 226.309 229.475 226.284 232.15H217.634C217.884 229.475 219.734 228 221.959 228ZM228.359 235.775H225.909C225.409 237.25 224.109 238.3 222.059 238.3C219.734 238.3 217.784 236.775 217.609 234H228.559C228.609 233.525 228.634 233.125 228.634 232.625C228.634 228.875 226.034 226.075 222.059 226.075C218.059 226.075 215.284 228.8 215.284 233.125C215.284 237.475 218.159 240.225 222.059 240.225C225.459 240.225 227.659 238.275 228.359 235.775ZM238.302 240H240.577V227.075L246.352 240H247.952L253.702 227.1V240H255.977V222.7H253.552L247.152 237L240.752 222.7H238.302V240ZM265.66 228C268.01 228 270.01 229.475 269.985 232.15H261.335C261.585 229.475 263.435 228 265.66 228ZM272.06 235.775H269.61C269.11 237.25 267.81 238.3 265.76 238.3C263.435 238.3 261.485 236.775 261.31 234H272.26C272.31 233.525 272.335 233.125 272.335 232.625C272.335 228.875 269.735 226.075 265.76 226.075C261.76 226.075 258.985 228.8 258.985 233.125C258.985 237.475 261.86 240.225 265.76 240.225C269.16 240.225 271.36 238.275 272.06 235.775ZM274.488 233.1C274.488 237.35 277.313 240.225 280.988 240.225C283.488 240.225 285.263 238.95 286.088 237.425V240H288.388V221.5H286.088V228.75C285.138 227.175 283.163 226.075 281.013 226.075C277.313 226.075 274.488 228.825 274.488 233.1ZM286.088 233.125C286.088 236.35 283.938 238.225 281.438 238.225C278.938 238.225 276.813 236.325 276.813 233.1C276.813 229.875 278.938 228.05 281.438 228.05C283.938 228.05 286.088 229.95 286.088 233.125ZM292.233 240H294.508V226.3H292.233V240ZM293.408 224.075C294.233 224.075 294.908 223.4 294.908 222.525C294.908 221.65 294.233 220.975 293.408 220.975C292.533 220.975 291.858 221.65 291.858 222.525C291.858 223.4 292.533 224.075 293.408 224.075ZM297.535 233.1C297.535 237.35 300.36 240.225 304.01 240.225C306.535 240.225 308.31 238.925 309.135 237.45V240H311.435V226.3H309.135V228.8C308.335 227.375 306.585 226.075 304.035 226.075C300.36 226.075 297.535 228.825 297.535 233.1ZM309.135 233.125C309.135 236.35 306.985 238.225 304.485 238.225C301.985 238.225 299.86 236.325 299.86 233.1C299.86 229.875 301.985 228.05 304.485 228.05C306.985 228.05 309.135 229.95 309.135 233.125Z" fill="#B1B1B1"/>
<line x1="4.37114e-08" y1="282.5" x2="928" y2="282.5" stroke="white"/>
<path d="M21.0701 335.275C21.0701 340.5 24.8951 344.15 29.7701 344.15C33.5451 344.15 36.5451 342.275 37.8451 338.925H35.1201C34.1701 341 32.3201 342.175 29.7701 342.175C26.1201 342.175 23.3951 339.525 23.3951 335.275C23.3951 331 26.1201 328.35 29.7701 328.35C32.3201 328.35 34.1701 329.525 35.1201 331.625H37.8451C36.5451 328.25 33.5451 326.35 29.7701 326.35C24.8951 326.35 21.0701 330.05 21.0701 335.275ZM54.2316 337.125C54.2316 332.8 51.2066 330.075 47.3066 330.075C43.4316 330.075 40.3816 332.8 40.3816 337.125C40.3816 341.475 43.3316 344.225 47.2066 344.225C51.1066 344.225 54.2316 341.475 54.2316 337.125ZM42.7066 337.125C42.7066 333.675 44.8816 332.05 47.2816 332.05C49.6316 332.05 51.9066 333.675 51.9066 337.125C51.9066 340.6 49.5816 342.225 47.2066 342.225C44.8316 342.225 42.7066 340.6 42.7066 337.125ZM57.2229 344H59.4979V325.5H57.2229V344ZM63.3752 344H65.6502V325.5H63.3752V344ZM75.3525 332C77.7025 332 79.7025 333.475 79.6775 336.15H71.0275C71.2775 333.475 73.1275 332 75.3525 332ZM81.7525 339.775H79.3025C78.8025 341.25 77.5025 342.3 75.4525 342.3C73.1275 342.3 71.1775 340.775 71.0025 338H81.9525C82.0025 337.525 82.0275 337.125 82.0275 336.625C82.0275 332.875 79.4275 330.075 75.4525 330.075C71.4525 330.075 68.6775 332.8 68.6775 337.125C68.6775 341.475 71.5525 344.225 75.4525 344.225C78.8525 344.225 81.0525 342.275 81.7525 339.775ZM84.1805 337.125C84.1805 341.475 86.9555 344.225 90.8555 344.225C94.2555 344.225 96.4805 342.325 97.1805 339.6H94.7305C94.2305 341.325 92.8805 342.3 90.8555 342.3C88.3555 342.3 86.5055 340.525 86.5055 337.125C86.5055 333.775 88.3555 332 90.8555 332C92.8805 332 94.2555 333.05 94.7305 334.7H97.1805C96.4805 331.825 94.2555 330.075 90.8555 330.075C86.9555 330.075 84.1805 332.825 84.1805 337.125ZM100.716 340.25C100.716 343 102.091 344 104.516 344H106.566V342.075H104.891C103.491 342.075 102.991 341.6 102.991 340.25V332.175H106.566V330.3H102.991V326.85H100.716V330.3H98.941V332.175H100.716V340.25ZM126.488 330.3C126.613 327.975 124.938 326.225 122.188 326.225C119.363 326.225 117.588 327.875 117.588 330.1C117.588 331.375 118.013 332.35 119.088 333.6C116.363 334.675 114.988 336.6 114.988 339C114.988 342.225 117.463 344.3 121.088 344.3C123.538 344.3 125.413 343.45 127.088 341.7L129.363 344H132.338L128.413 340.075C128.762 339.575 129.088 339.075 129.413 338.5L131.463 334.95H129.013L127.313 337.8C127.163 338.05 127.013 338.275 126.863 338.5L121.663 333.275C120.438 331.975 119.863 331.125 119.863 330.1C119.863 328.95 120.738 328.1 122.088 328.1C123.313 328.1 124.263 328.875 124.213 330.3H126.488ZM121.088 342.35C118.813 342.35 117.263 340.875 117.263 338.925C117.263 337.175 118.288 335.875 120.463 335.05L125.588 340.2C124.288 341.65 122.888 342.35 121.088 342.35ZM150.459 331.7C150.459 333.65 149.334 335.05 146.759 335.05H143.409V328.45H146.759C149.359 328.45 150.459 329.725 150.459 331.7ZM141.134 326.575V344H143.409V336.875H146.159L150.309 344H153.034L148.659 336.7C151.584 336.05 152.809 333.925 152.809 331.7C152.809 328.85 150.859 326.575 146.759 326.575H141.134ZM162.169 332C164.519 332 166.519 333.475 166.494 336.15H157.844C158.094 333.475 159.944 332 162.169 332ZM168.569 339.775H166.119C165.619 341.25 164.319 342.3 162.269 342.3C159.944 342.3 157.994 340.775 157.819 338H168.769C168.819 337.525 168.844 337.125 168.844 336.625C168.844 332.875 166.244 330.075 162.269 330.075C158.269 330.075 155.494 332.8 155.494 337.125C155.494 341.475 158.369 344.225 162.269 344.225C165.669 344.225 167.869 342.275 168.569 339.775ZM181.697 340.275C181.597 335.375 173.647 337.15 173.647 333.9C173.647 332.8 174.647 332 176.322 332C178.147 332 179.197 333 179.297 334.375H181.572C181.422 331.7 179.422 330.075 176.397 330.075C173.347 330.075 171.372 331.8 171.372 333.9C171.372 339 179.472 337.225 179.472 340.275C179.472 341.4 178.472 342.3 176.672 342.3C174.747 342.3 173.572 341.3 173.447 339.975H171.097C171.247 342.475 173.497 344.225 176.697 344.225C179.722 344.225 181.697 342.525 181.697 340.275ZM190.733 332C193.083 332 195.083 333.475 195.058 336.15H186.408C186.658 333.475 188.508 332 190.733 332ZM197.133 339.775H194.683C194.183 341.25 192.883 342.3 190.833 342.3C188.508 342.3 186.558 340.775 186.383 338H197.333C197.383 337.525 197.408 337.125 197.408 336.625C197.408 332.875 194.808 330.075 190.833 330.075C186.833 330.075 184.058 332.8 184.058 337.125C184.058 341.475 186.933 344.225 190.833 344.225C194.233 344.225 196.433 342.275 197.133 339.775ZM200.411 344H202.686V325.5H200.411V344ZM206.564 344H208.839V325.5H206.564V344ZM219.381 344H221.656V326.575H219.381V344ZM235.558 344H237.808V335.925C237.808 332 235.383 330.05 232.208 330.05C230.358 330.05 228.708 330.825 227.808 332.25V330.3H225.533V344H227.808V336.425C227.808 333.475 229.408 332.025 231.733 332.025C234.033 332.025 235.558 333.45 235.558 336.25V344ZM259.515 339.25C259.515 332.8 250.115 335.6 250.115 331.1C250.115 329.225 251.59 328.25 253.465 328.3C255.59 328.325 256.69 329.65 256.84 330.825H259.34C259.065 328.175 256.89 326.35 253.565 326.35C250.115 326.35 247.79 328.3 247.79 331.175C247.79 337.65 257.215 334.65 257.215 339.35C257.215 341 255.915 342.25 253.715 342.25C251.29 342.25 250.265 340.8 250.115 339.35H247.69C247.74 342.225 250.215 344.175 253.715 344.175C257.49 344.175 259.515 341.725 259.515 339.25ZM268.688 332C271.038 332 273.038 333.475 273.013 336.15H264.363C264.612 333.475 266.463 332 268.688 332ZM275.088 339.775H272.638C272.138 341.25 270.838 342.3 268.788 342.3C266.463 342.3 264.513 340.775 264.338 338H275.288C275.338 337.525 275.363 337.125 275.363 336.625C275.363 332.875 272.763 330.075 268.788 330.075C264.788 330.075 262.013 332.8 262.013 337.125C262.013 341.475 264.888 344.225 268.788 344.225C272.188 344.225 274.388 342.275 275.088 339.775ZM277.515 337.125C277.515 341.475 280.29 344.225 284.19 344.225C287.59 344.225 289.815 342.325 290.515 339.6H288.065C287.565 341.325 286.215 342.3 284.19 342.3C281.69 342.3 279.84 340.525 279.84 337.125C279.84 333.775 281.69 332 284.19 332C286.215 332 287.59 333.05 288.065 334.7H290.515C289.815 331.825 287.59 330.075 284.19 330.075C280.29 330.075 277.515 332.825 277.515 337.125ZM306.551 337.125C306.551 332.8 303.526 330.075 299.626 330.075C295.751 330.075 292.701 332.8 292.701 337.125C292.701 341.475 295.651 344.225 299.526 344.225C303.426 344.225 306.551 341.475 306.551 337.125ZM295.026 337.125C295.026 333.675 297.201 332.05 299.601 332.05C301.951 332.05 304.226 333.675 304.226 337.125C304.226 340.6 301.901 342.225 299.526 342.225C297.151 342.225 295.026 340.6 295.026 337.125ZM319.567 344H321.817V335.925C321.817 332 319.392 330.05 316.217 330.05C314.367 330.05 312.717 330.825 311.817 332.25V330.3H309.542V344H311.817V336.425C311.817 333.475 313.417 332.025 315.742 332.025C318.042 332.025 319.567 333.45 319.567 336.25V344ZM324.683 337.1C324.683 341.35 327.508 344.225 331.183 344.225C333.683 344.225 335.458 342.95 336.283 341.425V344H338.583V325.5H336.283V332.75C335.333 331.175 333.358 330.075 331.208 330.075C327.508 330.075 324.683 332.825 324.683 337.1ZM336.283 337.125C336.283 340.35 334.133 342.225 331.633 342.225C329.133 342.225 327.008 340.325 327.008 337.1C327.008 333.875 329.133 332.05 331.633 332.05C334.133 332.05 336.283 333.95 336.283 337.125ZM341.578 337.1C341.578 341.35 344.403 344.225 348.053 344.225C350.578 344.225 352.353 342.925 353.178 341.45V344H355.478V330.3H353.178V332.8C352.378 331.375 350.628 330.075 348.078 330.075C344.403 330.075 341.578 332.825 341.578 337.1ZM353.178 337.125C353.178 340.35 351.028 342.225 348.528 342.225C346.028 342.225 343.903 340.325 343.903 337.1C343.903 333.875 346.028 332.05 348.528 332.05C351.028 332.05 353.178 333.95 353.178 337.125ZM361.597 336.55C361.597 333.375 363.247 332.4 365.422 332.4H366.022V330.05C363.847 330.05 362.372 331 361.597 332.525V330.3H359.322V344H361.597V336.55ZM373.849 341.4L369.549 330.3H367.024L372.549 343.85L369.849 350.45H372.199L380.449 330.3H378.099L373.849 341.4ZM389.401 344H391.676V331.075L397.451 344H399.051L404.801 331.1V344H407.076V326.7H404.651L398.251 341L391.851 326.7H389.401V344ZM410.084 337.1C410.084 341.35 412.909 344.225 416.559 344.225C419.084 344.225 420.859 342.925 421.684 341.45V344H423.984V330.3H421.684V332.8C420.884 331.375 419.134 330.075 416.584 330.075C412.909 330.075 410.084 332.825 410.084 337.1ZM421.684 337.125C421.684 340.35 419.534 342.225 417.034 342.225C414.534 342.225 412.409 340.325 412.409 337.1C412.409 333.875 414.534 332.05 417.034 332.05C419.534 332.05 421.684 333.95 421.684 337.125ZM430.103 336.55C430.103 333.375 431.753 332.4 433.928 332.4H434.528V330.05C432.353 330.05 430.878 331 430.103 332.525V330.3H427.828V344H430.103V336.55ZM437.154 344H439.429V337.95L444.804 344H447.904L441.429 337.125L447.879 330.3H444.704L439.429 336.375V325.5H437.154V344ZM455.846 332C458.196 332 460.196 333.475 460.171 336.15H451.521C451.771 333.475 453.621 332 455.846 332ZM462.246 339.775H459.796C459.296 341.25 457.996 342.3 455.946 342.3C453.621 342.3 451.671 340.775 451.496 338H462.446C462.496 337.525 462.521 337.125 462.521 336.625C462.521 332.875 459.921 330.075 455.946 330.075C451.946 330.075 449.171 332.8 449.171 337.125C449.171 341.475 452.046 344.225 455.946 344.225C459.346 344.225 461.546 342.275 462.246 339.775ZM466.024 340.25C466.024 343 467.399 344 469.824 344H471.874V342.075H470.199C468.799 342.075 468.299 341.6 468.299 340.25V332.175H471.874V330.3H468.299V326.85H466.024V330.3H464.249V332.175H466.024V340.25ZM484.48 340.275C484.38 335.375 476.43 337.15 476.43 333.9C476.43 332.8 477.43 332 479.105 332C480.93 332 481.98 333 482.08 334.375H484.355C484.205 331.7 482.205 330.075 479.18 330.075C476.13 330.075 474.155 331.8 474.155 333.9C474.155 339 482.255 337.225 482.255 340.275C482.255 341.4 481.255 342.3 479.455 342.3C477.53 342.3 476.355 341.3 476.23 339.975H473.88C474.03 342.475 476.28 344.225 479.48 344.225C482.505 344.225 484.48 342.525 484.48 340.275Z" fill="#B1B1B1"/>
<line x1="4.37114e-08" y1="386.5" x2="928" y2="386.5" stroke="white"/>
<path d="M33.6201 448H36.0201L29.7451 430.675H27.1201L20.8201 448H23.2201L24.6201 444.125H32.2201L33.6201 448ZM31.5701 442.275H25.2701L28.4201 433.475L31.5701 442.275ZM41.0408 440.55C41.0408 437.375 42.6908 436.4 44.8658 436.4H45.4658V434.05C43.2908 434.05 41.8158 435 41.0408 436.525V434.3H38.7658V448H41.0408V440.55ZM48.592 444.25C48.592 447 49.967 448 52.392 448H54.442V446.075H52.767C51.367 446.075 50.867 445.6 50.867 444.25V436.175H54.442V434.3H50.867V430.85H48.592V434.3H46.817V436.175H48.592V444.25ZM57.1984 448H59.4734V434.3H57.1984V448ZM58.3734 432.075C59.1984 432.075 59.8734 431.4 59.8734 430.525C59.8734 429.65 59.1984 428.975 58.3734 428.975C57.4984 428.975 56.8234 429.65 56.8234 430.525C56.8234 431.4 57.4984 432.075 58.3734 432.075ZM73.2008 444.275C73.1008 439.375 65.1508 441.15 65.1508 437.9C65.1508 436.8 66.1508 436 67.8258 436C69.6508 436 70.7008 437 70.8008 438.375H73.0758C72.9258 435.7 70.9258 434.075 67.9008 434.075C64.8508 434.075 62.8758 435.8 62.8758 437.9C62.8758 443 70.9758 441.225 70.9758 444.275C70.9758 445.4 69.9758 446.3 68.1758 446.3C66.2508 446.3 65.0758 445.3 64.9508 443.975H62.6008C62.7508 446.475 65.0008 448.225 68.2008 448.225C71.2258 448.225 73.2008 446.525 73.2008 444.275ZM76.9123 444.25C76.9123 447 78.2873 448 80.7123 448H82.7623V446.075H81.0873C79.6873 446.075 79.1873 445.6 79.1873 444.25V436.175H82.7623V434.3H79.1873V430.85H76.9123V434.3H75.1373V436.175H76.9123V444.25ZM95.3688 444.275C95.2688 439.375 87.3188 441.15 87.3188 437.9C87.3188 436.8 88.3188 436 89.9938 436C91.8188 436 92.8688 437 92.9688 438.375H95.2438C95.0938 435.7 93.0938 434.075 90.0688 434.075C87.0188 434.075 85.0438 435.8 85.0438 437.9C85.0438 443 93.1438 441.225 93.1438 444.275C93.1438 445.4 92.1438 446.3 90.3438 446.3C88.4188 446.3 87.2438 445.3 87.1188 443.975H84.7688C84.9188 446.475 87.1688 448.225 90.3688 448.225C93.3938 448.225 95.3688 446.525 95.3688 444.275ZM113.145 430.375C108.245 430.375 104.395 434.05 104.395 439.275C104.395 444.5 108.245 448.15 113.145 448.15C117.87 448.15 121.295 444.675 121.695 440.35V438.6H112.32V440.45H119.27C118.92 443.9 116.57 446.1 113.145 446.1C109.47 446.1 106.72 443.45 106.72 439.275C106.72 435.075 109.47 432.425 113.145 432.425C115.595 432.425 117.495 433.6 118.445 435.625H121.17C119.87 432.275 116.82 430.375 113.145 430.375ZM130.528 436C132.878 436 134.878 437.475 134.853 440.15H126.203C126.453 437.475 128.303 436 130.528 436ZM136.928 443.775H134.478C133.978 445.25 132.678 446.3 130.628 446.3C128.303 446.3 126.353 444.775 126.178 442H137.128C137.178 441.525 137.203 441.125 137.203 440.625C137.203 436.875 134.603 434.075 130.628 434.075C126.628 434.075 123.853 436.8 123.853 441.125C123.853 445.475 126.728 448.225 130.628 448.225C134.028 448.225 136.228 446.275 136.928 443.775ZM140.706 444.25C140.706 447 142.081 448 144.506 448H146.556V446.075H144.881C143.481 446.075 142.981 445.6 142.981 444.25V436.175H146.556V434.3H142.981V430.85H140.706V434.3H138.931V436.175H140.706V444.25ZM158.253 438.85V432.45H161.603C164.203 432.45 165.303 433.65 165.303 435.675C165.303 437.625 164.203 438.85 161.603 438.85H158.253ZM167.628 435.675C167.628 432.825 165.703 430.575 161.603 430.575H155.978V448H158.253V440.725H161.603C165.928 440.725 167.628 438.325 167.628 435.675ZM169.605 441.1C169.605 445.35 172.43 448.225 176.08 448.225C178.605 448.225 180.38 446.925 181.205 445.45V448H183.505V434.3H181.205V436.8C180.405 435.375 178.655 434.075 176.105 434.075C172.43 434.075 169.605 436.825 169.605 441.1ZM181.205 441.125C181.205 444.35 179.055 446.225 176.555 446.225C174.055 446.225 171.93 444.325 171.93 441.1C171.93 437.875 174.055 436.05 176.555 436.05C179.055 436.05 181.205 437.95 181.205 441.125ZM187.35 448H189.625V434.3H187.35V448ZM188.525 432.075C189.35 432.075 190.025 431.4 190.025 430.525C190.025 429.65 189.35 428.975 188.525 428.975C187.65 428.975 186.975 429.65 186.975 430.525C186.975 431.4 187.65 432.075 188.525 432.075ZM192.652 441.1C192.652 445.35 195.477 448.225 199.152 448.225C201.652 448.225 203.427 446.95 204.252 445.425V448H206.552V429.5H204.252V436.75C203.302 435.175 201.327 434.075 199.177 434.075C195.477 434.075 192.652 436.825 192.652 441.1ZM204.252 441.125C204.252 444.35 202.102 446.225 199.602 446.225C197.102 446.225 194.977 444.325 194.977 441.1C194.977 437.875 197.102 436.05 199.602 436.05C202.102 436.05 204.252 437.95 204.252 441.125ZM233.712 439.275C233.712 434.05 229.887 430.375 224.962 430.375C220.062 430.375 216.212 434.05 216.212 439.275C216.212 444.5 220.062 448.175 224.962 448.175C229.887 448.175 233.712 444.5 233.712 439.275ZM218.537 439.275C218.537 435 221.287 432.35 224.962 432.35C228.637 432.35 231.387 435 231.387 439.275C231.387 443.525 228.637 446.2 224.962 446.2C221.287 446.2 218.537 443.525 218.537 439.275ZM237.14 448H239.415V436.175H242.29V434.3H239.415V433.325C239.415 431.55 240.09 430.8 242.14 430.8V428.9C238.64 428.9 237.14 430.275 237.14 433.325V434.3H235.365V436.175H237.14V448ZM245.368 448H247.643V436.175H250.518V434.3H247.643V433.325C247.643 431.55 248.318 430.8 250.368 430.8V428.9C246.868 428.9 245.368 430.275 245.368 433.325V434.3H243.593V436.175H245.368V448ZM269.16 435.7C269.16 437.65 268.035 439.05 265.46 439.05H262.11V432.45H265.46C268.06 432.45 269.16 433.725 269.16 435.7ZM259.835 430.575V448H262.11V440.875H264.86L269.01 448H271.735L267.36 440.7C270.285 440.05 271.51 437.925 271.51 435.7C271.51 432.85 269.56 430.575 265.46 430.575H259.835ZM280.87 436C283.22 436 285.22 437.475 285.195 440.15H276.545C276.795 437.475 278.645 436 280.87 436ZM287.27 443.775H284.82C284.32 445.25 283.02 446.3 280.97 446.3C278.645 446.3 276.695 444.775 276.52 442H287.47C287.52 441.525 287.545 441.125 287.545 440.625C287.545 436.875 284.945 434.075 280.97 434.075C276.97 434.075 274.195 436.8 274.195 441.125C274.195 445.475 277.07 448.225 280.97 448.225C284.37 448.225 286.57 446.275 287.27 443.775ZM300.398 444.275C300.298 439.375 292.348 441.15 292.348 437.9C292.348 436.8 293.348 436 295.023 436C296.848 436 297.898 437 297.998 438.375H300.273C300.123 435.7 298.123 434.075 295.098 434.075C292.048 434.075 290.073 435.8 290.073 437.9C290.073 443 298.173 441.225 298.173 444.275C298.173 445.4 297.173 446.3 295.373 446.3C293.448 446.3 292.273 445.3 292.148 443.975H289.798C289.948 446.475 292.198 448.225 295.398 448.225C298.423 448.225 300.398 446.525 300.398 444.275ZM302.76 441.1C302.76 445.35 305.585 448.225 309.235 448.225C311.76 448.225 313.535 446.925 314.36 445.45V448H316.66V434.3H314.36V436.8C313.56 435.375 311.81 434.075 309.26 434.075C305.585 434.075 302.76 436.825 302.76 441.1ZM314.36 441.125C314.36 444.35 312.21 446.225 309.71 446.225C307.21 446.225 305.085 444.325 305.085 441.1C305.085 437.875 307.21 436.05 309.71 436.05C312.21 436.05 314.36 437.95 314.36 441.125ZM320.504 448H322.779V429.5H320.504V448ZM332.481 436C334.831 436 336.831 437.475 336.806 440.15H328.156C328.406 437.475 330.256 436 332.481 436ZM338.881 443.775H336.431C335.931 445.25 334.631 446.3 332.581 446.3C330.256 446.3 328.306 444.775 328.131 442H339.081C339.131 441.525 339.156 441.125 339.156 440.625C339.156 436.875 336.556 434.075 332.581 434.075C328.581 434.075 325.806 436.8 325.806 441.125C325.806 445.475 328.681 448.225 332.581 448.225C335.981 448.225 338.181 446.275 338.881 443.775ZM352.009 444.275C351.909 439.375 343.959 441.15 343.959 437.9C343.959 436.8 344.959 436 346.634 436C348.459 436 349.509 437 349.609 438.375H351.884C351.734 435.7 349.734 434.075 346.709 434.075C343.659 434.075 341.684 435.8 341.684 437.9C341.684 443 349.784 441.225 349.784 444.275C349.784 445.4 348.784 446.3 346.984 446.3C345.059 446.3 343.884 445.3 343.759 443.975H341.409C341.559 446.475 343.809 448.225 347.009 448.225C350.034 448.225 352.009 446.525 352.009 444.275Z" fill="#B1B1B1"/>
<line x1="4.37114e-08" y1="490.5" x2="928" y2="490.5" stroke="white"/>
<path d="M21.8701 545.575C21.8701 550.1 24.8201 552.175 28.4201 552.175C32.0201 552.175 34.9951 550.1 34.9951 545.575V534.575H32.7201V545.6C32.7201 548.8 31.0201 550.175 28.4451 550.175C25.8701 550.175 24.1451 548.8 24.1451 545.6V534.575H21.8701V545.575ZM48.8152 552H51.0652V543.925C51.0652 540 48.6402 538.05 45.4652 538.05C43.6152 538.05 41.9652 538.825 41.0652 540.25V538.3H38.7902V552H41.0652V544.425C41.0652 541.475 42.6652 540.025 44.9902 540.025C47.2902 540.025 48.8152 541.45 48.8152 544.25V552ZM54.7814 552H57.0564V533.5H54.7814V552ZM60.9338 552H63.2088V538.3H60.9338V552ZM62.1088 536.075C62.9338 536.075 63.6088 535.4 63.6088 534.525C63.6088 533.65 62.9338 532.975 62.1088 532.975C61.2338 532.975 60.5588 533.65 60.5588 534.525C60.5588 535.4 61.2338 536.075 62.1088 536.075ZM86.8611 552H89.1111V543.925C89.1111 540 86.6861 538.05 83.5611 538.05C81.4611 538.05 79.5111 539.125 78.7111 541.1C77.8111 539.05 75.9361 538.05 73.6861 538.05C71.8861 538.05 70.2611 538.825 69.3611 540.275V538.3H67.0861V552H69.3611V544.45C69.3611 541.5 70.9361 540.025 73.2361 540.025C75.4861 540.025 76.9861 541.45 76.9861 544.25V552H79.2361V544.45C79.2361 541.5 80.8111 540.025 83.1111 540.025C85.3611 540.025 86.8611 541.45 86.8611 544.25V552ZM92.843 552H95.118V538.3H92.843V552ZM94.018 536.075C94.843 536.075 95.518 535.4 95.518 534.525C95.518 533.65 94.843 532.975 94.018 532.975C93.143 532.975 92.468 533.65 92.468 534.525C92.468 535.4 93.143 536.075 94.018 536.075ZM99.4953 548.25C99.4953 551 100.87 552 103.295 552H105.345V550.075H103.67C102.27 550.075 101.77 549.6 101.77 548.25V540.175H105.345V538.3H101.77V534.85H99.4953V538.3H97.7203V540.175H99.4953V548.25ZM113.927 540C116.277 540 118.277 541.475 118.252 544.15H109.602C109.852 541.475 111.702 540 113.927 540ZM120.327 547.775H117.877C117.377 549.25 116.077 550.3 114.027 550.3C111.702 550.3 109.752 548.775 109.577 546H120.527C120.577 545.525 120.602 545.125 120.602 544.625C120.602 540.875 118.002 538.075 114.027 538.075C110.027 538.075 107.252 540.8 107.252 545.125C107.252 549.475 110.127 552.225 114.027 552.225C117.427 552.225 119.627 550.275 120.327 547.775ZM122.755 545.1C122.755 549.35 125.58 552.225 129.255 552.225C131.755 552.225 133.53 550.95 134.355 549.425V552H136.655V533.5H134.355V540.75C133.405 539.175 131.43 538.075 129.28 538.075C125.58 538.075 122.755 540.825 122.755 545.1ZM134.355 545.125C134.355 548.35 132.205 550.225 129.705 550.225C127.205 550.225 125.08 548.325 125.08 545.1C125.08 541.875 127.205 540.05 129.705 540.05C132.205 540.05 134.355 541.95 134.355 545.125ZM152.589 534.575H147.164V552H152.589C158.314 552 161.839 548.725 161.839 543.325C161.839 537.925 158.314 534.575 152.589 534.575ZM149.439 550.125V536.425H152.589C157.139 536.425 159.514 539.075 159.514 543.325C159.514 547.575 157.139 550.125 152.589 550.125H149.439ZM177.84 545.125C177.84 540.8 174.815 538.075 170.915 538.075C167.04 538.075 163.99 540.8 163.99 545.125C163.99 549.475 166.94 552.225 170.815 552.225C174.715 552.225 177.84 549.475 177.84 545.125ZM166.315 545.125C166.315 541.675 168.49 540.05 170.89 540.05C173.24 540.05 175.515 541.675 175.515 545.125C175.515 548.6 173.19 550.225 170.815 550.225C168.44 550.225 166.315 548.6 166.315 545.125ZM183.506 552H185.856L189.156 541.125L192.456 552H194.806L199.081 538.3H196.831L193.731 549.825L190.406 538.3H188.081L184.681 549.8L181.531 538.3H179.206L183.506 552ZM211.364 552H213.614V543.925C213.614 540 211.189 538.05 208.014 538.05C206.164 538.05 204.514 538.825 203.614 540.25V538.3H201.339V552H203.614V544.425C203.614 541.475 205.214 540.025 207.539 540.025C209.839 540.025 211.364 541.45 211.364 544.25V552ZM217.33 552H219.605V533.5H217.33V552ZM236.483 545.125C236.483 540.8 233.458 538.075 229.558 538.075C225.683 538.075 222.633 540.8 222.633 545.125C222.633 549.475 225.583 552.225 229.458 552.225C233.358 552.225 236.483 549.475 236.483 545.125ZM224.958 545.125C224.958 541.675 227.133 540.05 229.533 540.05C231.883 540.05 234.158 541.675 234.158 545.125C234.158 548.6 231.833 550.225 229.458 550.225C227.083 550.225 224.958 548.6 224.958 545.125ZM238.624 545.1C238.624 549.35 241.449 552.225 245.099 552.225C247.624 552.225 249.399 550.925 250.224 549.45V552H252.524V538.3H250.224V540.8C249.424 539.375 247.674 538.075 245.124 538.075C241.449 538.075 238.624 540.825 238.624 545.1ZM250.224 545.125C250.224 548.35 248.074 550.225 245.574 550.225C243.074 550.225 240.949 548.325 240.949 545.1C240.949 541.875 243.074 540.05 245.574 540.05C248.074 540.05 250.224 541.95 250.224 545.125ZM255.518 545.1C255.518 549.35 258.343 552.225 262.018 552.225C264.518 552.225 266.293 550.95 267.118 549.425V552H269.418V533.5H267.118V540.75C266.168 539.175 264.193 538.075 262.043 538.075C258.343 538.075 255.518 540.825 255.518 545.1ZM267.118 545.125C267.118 548.35 264.968 550.225 262.468 550.225C259.968 550.225 257.843 548.325 257.843 545.1C257.843 541.875 259.968 540.05 262.468 540.05C264.968 540.05 267.118 541.95 267.118 545.125ZM291.628 552H294.028L287.753 534.675H285.128L278.828 552H281.228L282.628 548.125H290.228L291.628 552ZM289.578 546.275H283.278L286.428 537.475L289.578 546.275ZM295.924 545.125C295.924 549.475 298.699 552.225 302.599 552.225C305.999 552.225 308.224 550.325 308.924 547.6H306.474C305.974 549.325 304.624 550.3 302.599 550.3C300.099 550.3 298.249 548.525 298.249 545.125C298.249 541.775 300.099 540 302.599 540C304.624 540 305.999 541.05 306.474 542.7H308.924C308.224 539.825 305.999 538.075 302.599 538.075C298.699 538.075 295.924 540.825 295.924 545.125ZM311.109 545.125C311.109 549.475 313.884 552.225 317.784 552.225C321.184 552.225 323.409 550.325 324.109 547.6H321.659C321.159 549.325 319.809 550.3 317.784 550.3C315.284 550.3 313.434 548.525 313.434 545.125C313.434 541.775 315.284 540 317.784 540C319.809 540 321.184 541.05 321.659 542.7H324.109C323.409 539.825 321.184 538.075 317.784 538.075C313.884 538.075 311.109 540.825 311.109 545.125ZM332.97 540C335.32 540 337.32 541.475 337.295 544.15H328.645C328.895 541.475 330.745 540 332.97 540ZM339.37 547.775H336.92C336.42 549.25 335.12 550.3 333.07 550.3C330.745 550.3 328.795 548.775 328.62 546H339.57C339.62 545.525 339.645 545.125 339.645 544.625C339.645 540.875 337.045 538.075 333.07 538.075C329.07 538.075 326.295 540.8 326.295 545.125C326.295 549.475 329.17 552.225 333.07 552.225C336.47 552.225 338.67 550.275 339.37 547.775ZM352.498 548.275C352.398 543.375 344.448 545.15 344.448 541.9C344.448 540.8 345.448 540 347.123 540C348.948 540 349.998 541 350.098 542.375H352.373C352.223 539.7 350.223 538.075 347.198 538.075C344.148 538.075 342.173 539.8 342.173 541.9C342.173 547 350.273 545.225 350.273 548.275C350.273 549.4 349.273 550.3 347.473 550.3C345.548 550.3 344.373 549.3 344.248 547.975H341.898C342.048 550.475 344.298 552.225 347.498 552.225C350.523 552.225 352.498 550.525 352.498 548.275ZM365.559 548.275C365.459 543.375 357.509 545.15 357.509 541.9C357.509 540.8 358.509 540 360.184 540C362.009 540 363.059 541 363.159 542.375H365.434C365.284 539.7 363.284 538.075 360.259 538.075C357.209 538.075 355.234 539.8 355.234 541.9C355.234 547 363.334 545.225 363.334 548.275C363.334 549.4 362.334 550.3 360.534 550.3C358.609 550.3 357.434 549.3 357.309 547.975H354.959C355.109 550.475 357.359 552.225 360.559 552.225C363.584 552.225 365.559 550.525 365.559 548.275Z" fill="#B1B1B1"/>
<line x1="4.37114e-08" y1="594.5" x2="928" y2="594.5" stroke="white"/>
<path d="M21.8701 649.575C21.8701 654.1 24.8201 656.175 28.4201 656.175C32.0201 656.175 34.9951 654.1 34.9951 649.575V638.575H32.7201V649.6C32.7201 652.8 31.0201 654.175 28.4451 654.175C25.8701 654.175 24.1451 652.8 24.1451 649.6V638.575H21.8701V649.575ZM48.8152 656H51.0652V647.925C51.0652 644 48.6402 642.05 45.4652 642.05C43.6152 642.05 41.9652 642.825 41.0652 644.25V642.3H38.7902V656H41.0652V648.425C41.0652 645.475 42.6652 644.025 44.9902 644.025C47.2902 644.025 48.8152 645.45 48.8152 648.25V656ZM54.7814 656H57.0564V637.5H54.7814V656ZM60.9338 656H63.2088V642.3H60.9338V656ZM62.1088 640.075C62.9338 640.075 63.6088 639.4 63.6088 638.525C63.6088 637.65 62.9338 636.975 62.1088 636.975C61.2338 636.975 60.5588 637.65 60.5588 638.525C60.5588 639.4 61.2338 640.075 62.1088 640.075ZM86.8611 656H89.1111V647.925C89.1111 644 86.6861 642.05 83.5611 642.05C81.4611 642.05 79.5111 643.125 78.7111 645.1C77.8111 643.05 75.9361 642.05 73.6861 642.05C71.8861 642.05 70.2611 642.825 69.3611 644.275V642.3H67.0861V656H69.3611V648.45C69.3611 645.5 70.9361 644.025 73.2361 644.025C75.4861 644.025 76.9861 645.45 76.9861 648.25V656H79.2361V648.45C79.2361 645.5 80.8111 644.025 83.1111 644.025C85.3611 644.025 86.8611 645.45 86.8611 648.25V656ZM92.843 656H95.118V642.3H92.843V656ZM94.018 640.075C94.843 640.075 95.518 639.4 95.518 638.525C95.518 637.65 94.843 636.975 94.018 636.975C93.143 636.975 92.468 637.65 92.468 638.525C92.468 639.4 93.143 640.075 94.018 640.075ZM99.4953 652.25C99.4953 655 100.87 656 103.295 656H105.345V654.075H103.67C102.27 654.075 101.77 653.6 101.77 652.25V644.175H105.345V642.3H101.77V638.85H99.4953V642.3H97.7203V644.175H99.4953V652.25ZM113.927 644C116.277 644 118.277 645.475 118.252 648.15H109.602C109.852 645.475 111.702 644 113.927 644ZM120.327 651.775H117.877C117.377 653.25 116.077 654.3 114.027 654.3C111.702 654.3 109.752 652.775 109.577 650H120.527C120.577 649.525 120.602 649.125 120.602 648.625C120.602 644.875 118.002 642.075 114.027 642.075C110.027 642.075 107.252 644.8 107.252 649.125C107.252 653.475 110.127 656.225 114.027 656.225C117.427 656.225 119.627 654.275 120.327 651.775ZM122.755 649.1C122.755 653.35 125.58 656.225 129.255 656.225C131.755 656.225 133.53 654.95 134.355 653.425V656H136.655V637.5H134.355V644.75C133.405 643.175 131.43 642.075 129.28 642.075C125.58 642.075 122.755 644.825 122.755 649.1ZM134.355 649.125C134.355 652.35 132.205 654.225 129.705 654.225C127.205 654.225 125.08 652.325 125.08 649.1C125.08 645.875 127.205 644.05 129.705 644.05C132.205 644.05 134.355 645.95 134.355 649.125ZM146.089 640.425H150.864V656H153.139V640.425H157.889V638.575H146.089V640.425ZM162.965 648.55C162.965 645.375 164.615 644.4 166.79 644.4H167.39V642.05C165.215 642.05 163.74 643 162.965 644.525V642.3H160.69V656H162.965V648.55ZM169.166 649.1C169.166 653.35 171.991 656.225 175.641 656.225C178.166 656.225 179.941 654.925 180.766 653.45V656H183.066V642.3H180.766V644.8C179.966 643.375 178.216 642.075 175.666 642.075C171.991 642.075 169.166 644.825 169.166 649.1ZM180.766 649.125C180.766 652.35 178.616 654.225 176.116 654.225C173.616 654.225 171.491 652.325 171.491 649.1C171.491 645.875 173.616 644.05 176.116 644.05C178.616 644.05 180.766 645.95 180.766 649.125ZM186.06 649.125C186.06 653.475 188.835 656.225 192.735 656.225C196.135 656.225 198.36 654.325 199.06 651.6H196.61C196.11 653.325 194.76 654.3 192.735 654.3C190.235 654.3 188.385 652.525 188.385 649.125C188.385 645.775 190.235 644 192.735 644C194.76 644 196.135 645.05 196.61 646.7H199.06C198.36 643.825 196.135 642.075 192.735 642.075C188.835 642.075 186.06 644.825 186.06 649.125ZM202.096 656H204.371V649.95L209.746 656H212.846L206.371 649.125L212.821 642.3H209.646L204.371 648.375V637.5H202.096V656ZM233.327 656H235.727L229.452 638.675H226.827L220.527 656H222.927L224.327 652.125H231.927L233.327 656ZM231.277 650.275H224.977L228.127 641.475L231.277 650.275ZM240.748 648.55C240.748 645.375 242.398 644.4 244.573 644.4H245.173V642.05C242.998 642.05 241.523 643 240.748 644.525V642.3H238.473V656H240.748V648.55ZM250.074 648.55C250.074 645.375 251.724 644.4 253.899 644.4H254.499V642.05C252.324 642.05 250.849 643 250.074 644.525V642.3H247.799V656H250.074V648.55ZM256.275 649.1C256.275 653.35 259.1 656.225 262.75 656.225C265.275 656.225 267.05 654.925 267.875 653.45V656H270.175V642.3H267.875V644.8C267.075 643.375 265.325 642.075 262.775 642.075C259.1 642.075 256.275 644.825 256.275 649.1ZM267.875 649.125C267.875 652.35 265.725 654.225 263.225 654.225C260.725 654.225 258.6 652.325 258.6 649.1C258.6 645.875 260.725 644.05 263.225 644.05C265.725 644.05 267.875 645.95 267.875 649.125ZM284.045 656H286.295V647.925C286.295 644 283.87 642.05 280.695 642.05C278.845 642.05 277.195 642.825 276.295 644.25V642.3H274.02V656H276.295V648.425C276.295 645.475 277.895 644.025 280.22 644.025C282.52 644.025 284.045 645.45 284.045 648.25V656ZM289.161 649.1C289.161 653.35 291.986 656.225 295.661 656.225C298.161 656.225 299.936 654.9 300.761 653.425V656.3C300.761 659.225 298.936 660.775 296.511 660.775C294.261 660.775 292.636 659.65 292.136 658H289.886C290.336 660.925 292.911 662.75 296.511 662.75C300.536 662.75 303.061 660.075 303.061 656.3V642.3H300.761V644.8C299.961 643.325 298.161 642.075 295.661 642.075C291.986 642.075 289.161 644.825 289.161 649.1ZM300.761 649.125C300.761 652.35 298.611 654.225 296.111 654.225C293.611 654.225 291.486 652.325 291.486 649.1C291.486 645.875 293.611 644.05 296.111 644.05C298.611 644.05 300.761 645.95 300.761 649.125ZM312.73 644C315.08 644 317.08 645.475 317.055 648.15H308.405C308.655 645.475 310.505 644 312.73 644ZM319.13 651.775H316.68C316.18 653.25 314.88 654.3 312.83 654.3C310.505 654.3 308.555 652.775 308.38 650H319.33C319.38 649.525 319.405 649.125 319.405 648.625C319.405 644.875 316.805 642.075 312.83 642.075C308.83 642.075 306.055 644.8 306.055 649.125C306.055 653.475 308.93 656.225 312.83 656.225C316.23 656.225 318.43 654.275 319.13 651.775ZM342.183 656H344.433V647.925C344.433 644 342.008 642.05 338.883 642.05C336.783 642.05 334.833 643.125 334.033 645.1C333.133 643.05 331.258 642.05 329.008 642.05C327.208 642.05 325.583 642.825 324.683 644.275V642.3H322.408V656H324.683V648.45C324.683 645.5 326.258 644.025 328.558 644.025C330.808 644.025 332.308 645.45 332.308 648.25V656H334.558V648.45C334.558 645.5 336.133 644.025 338.433 644.025C340.683 644.025 342.183 645.45 342.183 648.25V656ZM353.99 644C356.34 644 358.34 645.475 358.315 648.15H349.665C349.915 645.475 351.765 644 353.99 644ZM360.39 651.775H357.94C357.44 653.25 356.14 654.3 354.09 654.3C351.765 654.3 349.815 652.775 349.64 650H360.59C360.64 649.525 360.665 649.125 360.665 648.625C360.665 644.875 358.065 642.075 354.09 642.075C350.09 642.075 347.315 644.8 347.315 649.125C347.315 653.475 350.19 656.225 354.09 656.225C357.49 656.225 359.69 654.275 360.39 651.775ZM373.693 656H375.943V647.925C375.943 644 373.518 642.05 370.343 642.05C368.493 642.05 366.843 642.825 365.943 644.25V642.3H363.668V656H365.943V648.425C365.943 645.475 367.543 644.025 369.868 644.025C372.168 644.025 373.693 645.45 373.693 648.25V656ZM380.159 652.25C380.159 655 381.534 656 383.959 656H386.009V654.075H384.334C382.934 654.075 382.434 653.6 382.434 652.25V644.175H386.009V642.3H382.434V638.85H380.159V642.3H378.384V644.175H380.159V652.25ZM398.616 652.275C398.516 647.375 390.566 649.15 390.566 645.9C390.566 644.8 391.566 644 393.241 644C395.066 644 396.116 645 396.216 646.375H398.491C398.341 643.7 396.341 642.075 393.316 642.075C390.266 642.075 388.291 643.8 388.291 645.9C388.291 651 396.391 649.225 396.391 652.275C396.391 653.4 395.391 654.3 393.591 654.3C391.666 654.3 390.491 653.3 390.366 651.975H388.016C388.166 654.475 390.416 656.225 393.616 656.225C396.641 656.225 398.616 654.525 398.616 652.275Z" fill="#B1B1B1"/>
<path d="M562.35 44.1L558.35 31.375H553.1L559.2 49H565.475L571.55 31.375H566.325L562.35 44.1ZM573.077 49H577.977V31.375H573.077V49ZM592.192 31.375V41.35L585.667 31.375H580.767V49H585.667V39.15L592.192 49H597.092V31.375H592.192ZM604.783 43.4V49H609.708V43.4L615.908 31.375H610.383L607.283 38.175L604.183 31.375H598.583L604.783 43.4ZM617.413 31.375V49H627.788V45.25H622.313V31.375H617.413Z" fill="#671875"/>
<path d="M705.375 31.375H698.4V49H705.375C711 49 714.575 45.275 714.575 40.175C714.575 35 711 31.375 705.375 31.375ZM703.3 44.675V35.625H705C707.825 35.625 709.6 37.25 709.6 40.175C709.6 43.075 707.825 44.675 705 44.675H703.3ZM730.009 43.65C730.009 38 721.534 38.85 721.534 36.225C721.534 35.375 722.109 34.95 722.834 34.975C723.734 34.975 724.409 35.475 724.459 36.575H729.784C729.609 33.075 726.959 31.1 722.909 31.1C719.184 31.1 716.309 32.95 716.309 36.4C716.234 42.525 724.784 41.2 724.809 44.025C724.809 44.85 724.134 45.3 723.259 45.3C722.359 45.3 721.584 44.85 721.484 43.525H716.259C716.459 47.3 719.509 49.175 723.434 49.175C727.609 49.175 730.009 46.75 730.009 43.65ZM737.187 39.15V35.325H739.137C740.612 35.325 741.212 36.075 741.212 37.25C741.212 38.4 740.612 39.15 739.137 39.15H737.187ZM746.212 37.25C746.212 33.85 743.987 31.375 739.612 31.375H732.287V49H737.187V43.05H739.612C744.087 43.05 746.212 40.325 746.212 37.25Z" fill="#671875"/>
<path d="M838.879 41.592C834.595 41.808 829.699 41.916 826.495 41.808C828.295 40.872 830.527 39.828 831.751 39.216C835.531 37.416 835.855 37.272 835.855 36.12C835.855 35.004 835.459 34.788 832.471 33.06C831.355 32.448 829.411 31.332 828.115 30.468C830.311 29.496 834.343 28.128 836.143 27.588C836.611 28.344 837.295 29.748 837.835 31.08C838.195 31.944 839.203 32.376 840.067 32.016C840.931 31.656 841.327 30.684 840.967 29.784C838.591 24.024 837.511 24.024 836.647 24.024C835.783 24.024 830.383 25.968 830.311 25.968C824.443 28.092 823.759 28.92 823.687 30.144C823.579 31.728 825.019 32.7 830.707 35.976C830.599 36.048 830.455 36.12 830.311 36.156C822.031 40.116 820.483 41.16 820.483 42.816C820.483 43.32 820.699 43.824 821.095 44.184C821.455 44.544 822.211 45.264 829.303 45.264C831.751 45.264 834.919 45.192 839.059 44.976C839.995 44.904 840.715 44.112 840.679 43.176C840.643 42.24 839.815 41.52 838.879 41.592ZM871.623 18.84C862.803 18.156 839.403 20.928 838.395 21.036C837.495 21.144 836.811 21.972 836.919 22.908C837.027 23.772 837.747 24.42 838.611 24.42C838.683 24.42 838.755 24.384 838.791 24.384C838.899 24.384 842.607 23.952 847.611 23.448L840.915 43.068C840.627 43.968 841.095 44.904 841.959 45.228C842.139 45.3 842.319 45.3 842.499 45.3C843.219 45.3 843.867 44.868 844.119 44.184L851.319 23.088C858.519 22.44 866.979 21.864 871.335 22.224C872.271 22.26 873.099 21.576 873.171 20.676C873.243 19.74 872.523 18.912 871.623 18.84ZM867.531 30.45V41.325L860.381 30.45H856.106V48H860.381V37.175L867.531 48H871.806V30.45H867.531ZM874.904 48H879.179V40.9H884.529V37.575H879.179V33.875H886.329V30.45H874.904V48ZM887.626 33.875H892.276V48H896.551V33.875H901.201V30.45H887.626V33.875Z" fill="#671875"/>
<line x1="656.5" y1="73" x2="656.5" y2="701" stroke="white"/>
<line x1="520.5" y1="73" x2="520.5" y2="701" stroke="white"/>
<line x1="792.5" y1="73" x2="792.5" y2="701" stroke="white"/>
<path d="M604.298 108.6C602.538 107.4 600.218 107.88 599.018 109.64L591.578 120.68L583.818 103.96C582.938 102.04 580.698 101.24 578.778 102.12C576.938 103 576.058 105.24 576.938 107.08L586.698 128.04L570.697 151.88C569.577 153.64 569.977 155.96 571.737 157.08C572.377 157.56 573.098 157.72 573.818 157.72C575.018 157.72 576.218 157.16 576.938 156.04L590.458 135.96L596.218 148.52C596.858 149.88 598.218 150.68 599.658 150.68C600.218 150.68 600.778 150.6 601.258 150.36C603.098 149.48 603.978 147.24 603.098 145.32L595.338 128.68L605.338 113.8C606.458 112.04 605.978 109.72 604.298 108.6Z" fill="#E56E6E"/>
<path d="M734.298 108.6C732.538 107.4 730.218 107.88 729.018 109.64L721.578 120.68L713.818 103.96C712.938 102.04 710.698 101.24 708.778 102.12C706.938 103 706.058 105.24 706.938 107.08L716.698 128.04L700.697 151.88C699.577 153.64 699.977 155.96 701.737 157.08C702.377 157.56 703.098 157.72 703.818 157.72C705.018 157.72 706.218 157.16 706.938 156.04L720.458 135.96L726.218 148.52C726.858 149.88 728.218 150.68 729.658 150.68C730.218 150.68 730.778 150.6 731.258 150.36C733.098 149.48 733.978 147.24 733.098 145.32L725.338 128.68L735.338 113.8C736.458 112.04 735.978 109.72 734.298 108.6Z" fill="#E56E6E"/>
<path d="M734.298 313.6C732.538 312.4 730.218 312.88 729.018 314.64L721.578 325.68L713.818 308.96C712.938 307.04 710.698 306.24 708.778 307.12C706.938 308 706.058 310.24 706.938 312.08L716.698 333.04L700.697 356.88C699.577 358.64 699.977 360.96 701.737 362.08C702.377 362.56 703.098 362.72 703.818 362.72C705.018 362.72 706.218 362.16 706.938 361.04L720.458 340.96L726.218 353.52C726.858 354.88 728.218 355.68 729.658 355.68C730.218 355.68 730.778 355.6 731.258 355.36C733.098 354.48 733.978 352.24 733.098 350.32L725.338 333.68L735.338 318.8C736.458 317.04 735.978 314.72 734.298 313.6Z" fill="#E56E6E"/>
<path d="M734.298 209.6C732.538 208.4 730.218 208.88 729.018 210.64L721.578 221.68L713.818 204.96C712.938 203.04 710.698 202.24 708.778 203.12C706.938 204 706.058 206.24 706.938 208.08L716.698 229.04L700.697 252.88C699.577 254.64 699.977 256.96 701.737 258.08C702.377 258.56 703.098 258.72 703.818 258.72C705.018 258.72 706.218 258.16 706.938 257.04L720.458 236.96L726.218 249.52C726.858 250.88 728.218 251.68 729.658 251.68C730.218 251.68 730.778 251.6 731.258 251.36C733.098 250.48 733.978 248.24 733.098 246.32L725.338 229.68L735.338 214.8C736.458 213.04 735.978 210.72 734.298 209.6Z" fill="#E56E6E"/>
<path d="M873.968 115.28C864.368 109.28 851.008 113.44 844.128 124.4C837.248 135.44 839.488 149.28 849.088 155.28C852.048 157.12 855.408 158 858.848 158C866.368 158 874.208 153.68 878.928 146.16C885.808 135.12 883.568 121.28 873.968 115.28ZM872.528 142.16C867.888 149.68 859.088 152.64 853.008 148.88C846.928 145.12 845.808 135.92 850.528 128.4C853.808 123.12 859.168 120.08 864.128 120.08C866.208 120.08 868.208 120.56 869.968 121.68C876.048 125.44 877.168 134.64 872.528 142.16ZM863.968 124.96C861.968 124.24 859.808 125.28 859.168 127.2L854.768 139.52C854.048 141.44 855.088 143.6 857.088 144.32C857.488 144.48 857.888 144.56 858.288 144.56C859.888 144.56 861.328 143.6 861.888 142L866.208 129.76C866.928 127.76 865.888 125.6 863.968 124.96ZM858.288 109.04H873.248C875.328 109.04 877.008 107.36 877.008 105.28C877.008 103.2 875.328 101.52 873.248 101.52H858.288C856.208 101.52 854.528 103.2 854.528 105.28C854.528 107.36 856.208 109.04 858.288 109.04Z" fill="#6EE596"/>
<path d="M604.298 421.6C602.538 420.4 600.218 420.88 599.018 422.64L591.578 433.68L583.818 416.96C582.938 415.04 580.698 414.24 578.778 415.12C576.938 416 576.058 418.24 576.938 420.08L586.698 441.04L570.697 464.88C569.577 466.64 569.977 468.96 571.737 470.08C572.377 470.56 573.098 470.72 573.818 470.72C575.018 470.72 576.218 470.16 576.938 469.04L590.458 448.96L596.218 461.52C596.858 462.88 598.218 463.68 599.658 463.68C600.218 463.68 600.778 463.6 601.258 463.36C603.098 462.48 603.978 460.24 603.098 458.32L595.338 441.68L605.338 426.8C606.458 425.04 605.978 422.72 604.298 421.6Z" fill="#E56E6E"/>
<path d="M734.298 421.6C732.538 420.4 730.218 420.88 729.018 422.64L721.578 433.68L713.818 416.96C712.938 415.04 710.698 414.24 708.778 415.12C706.938 416 706.058 418.24 706.938 420.08L716.698 441.04L700.697 464.88C699.577 466.64 699.977 468.96 701.737 470.08C702.377 470.56 703.098 470.72 703.818 470.72C705.018 470.72 706.218 470.16 706.938 469.04L720.458 448.96L726.218 461.52C726.858 462.88 728.218 463.68 729.658 463.68C730.218 463.68 730.778 463.6 731.258 463.36C733.098 462.48 733.978 460.24 733.098 458.32L725.338 441.68L735.338 426.8C736.458 425.04 735.978 422.72 734.298 421.6Z" fill="#E56E6E"/>
<path d="M873.968 428.28C864.368 422.28 851.008 426.44 844.128 437.4C837.248 448.44 839.488 462.28 849.088 468.28C852.048 470.12 855.408 471 858.848 471C866.368 471 874.208 466.68 878.928 459.16C885.808 448.12 883.568 434.28 873.968 428.28ZM872.528 455.16C867.888 462.68 859.088 465.64 853.008 461.88C846.928 458.12 845.808 448.92 850.528 441.4C853.808 436.12 859.168 433.08 864.128 433.08C866.208 433.08 868.208 433.56 869.968 434.68C876.048 438.44 877.168 447.64 872.528 455.16ZM863.968 437.96C861.968 437.24 859.808 438.28 859.168 440.2L854.768 452.52C854.048 454.44 855.088 456.6 857.088 457.32C857.488 457.48 857.888 457.56 858.288 457.56C859.888 457.56 861.328 456.6 861.888 455L866.208 442.76C866.928 440.76 865.888 438.6 863.968 437.96ZM858.288 422.04H873.248C875.328 422.04 877.008 420.36 877.008 418.28C877.008 416.2 875.328 414.52 873.248 414.52H858.288C856.208 414.52 854.528 416.2 854.528 418.28C854.528 420.36 856.208 422.04 858.288 422.04Z" fill="#6EE596"/>
<path d="M604.298 522.6C602.538 521.4 600.218 521.88 599.018 523.64L591.578 534.68L583.818 517.96C582.938 516.04 580.698 515.24 578.778 516.12C576.938 517 576.058 519.24 576.938 521.08L586.698 542.04L570.697 565.88C569.577 567.64 569.977 569.96 571.737 571.08C572.377 571.56 573.098 571.72 573.818 571.72C575.018 571.72 576.218 571.16 576.938 570.04L590.458 549.96L596.218 562.52C596.858 563.88 598.218 564.68 599.658 564.68C600.218 564.68 600.778 564.6 601.258 564.36C603.098 563.48 603.978 561.24 603.098 559.32L595.338 542.68L605.338 527.8C606.458 526.04 605.978 523.72 604.298 522.6Z" fill="#E56E6E"/>
<path d="M734.298 522.6C732.538 521.4 730.218 521.88 729.018 523.64L721.578 534.68L713.818 517.96C712.938 516.04 710.698 515.24 708.778 516.12C706.938 517 706.058 519.24 706.938 521.08L716.698 542.04L700.697 565.88C699.577 567.64 699.977 569.96 701.737 571.08C702.377 571.56 703.098 571.72 703.818 571.72C705.018 571.72 706.218 571.16 706.938 570.04L720.458 549.96L726.218 562.52C726.858 563.88 728.218 564.68 729.658 564.68C730.218 564.68 730.778 564.6 731.258 564.36C733.098 563.48 733.978 561.24 733.098 559.32L725.338 542.68L735.338 527.8C736.458 526.04 735.978 523.72 734.298 522.6Z" fill="#E56E6E"/>
<path d="M873.968 529.28C864.368 523.28 851.008 527.44 844.128 538.4C837.248 549.44 839.488 563.28 849.088 569.28C852.048 571.12 855.408 572 858.848 572C866.368 572 874.208 567.68 878.928 560.16C885.808 549.12 883.568 535.28 873.968 529.28ZM872.528 556.16C867.888 563.68 859.088 566.64 853.008 562.88C846.928 559.12 845.808 549.92 850.528 542.4C853.808 537.12 859.168 534.08 864.128 534.08C866.208 534.08 868.208 534.56 869.968 535.68C876.048 539.44 877.168 548.64 872.528 556.16ZM863.968 538.96C861.968 538.24 859.808 539.28 859.168 541.2L854.768 553.52C854.048 555.44 855.088 557.6 857.088 558.32C857.488 558.48 857.888 558.56 858.288 558.56C859.888 558.56 861.328 557.6 861.888 556L866.208 543.76C866.928 541.76 865.888 539.6 863.968 538.96ZM858.288 523.04H873.248C875.328 523.04 877.008 521.36 877.008 519.28C877.008 517.2 875.328 515.52 873.248 515.52H858.288C856.208 515.52 854.528 517.2 854.528 519.28C854.528 521.36 856.208 523.04 858.288 523.04Z" fill="#6EE596"/>
<path d="M604.298 626.6C602.538 625.4 600.218 625.88 599.018 627.64L591.578 638.68L583.818 621.96C582.938 620.04 580.698 619.24 578.778 620.12C576.938 621 576.058 623.24 576.938 625.08L586.698 646.04L570.697 669.88C569.577 671.64 569.977 673.96 571.737 675.08C572.377 675.56 573.098 675.72 573.818 675.72C575.018 675.72 576.218 675.16 576.938 674.04L590.458 653.96L596.218 666.52C596.858 667.88 598.218 668.68 599.658 668.68C600.218 668.68 600.778 668.6 601.258 668.36C603.098 667.48 603.978 665.24 603.098 663.32L595.338 646.68L605.338 631.8C606.458 630.04 605.978 627.72 604.298 626.6Z" fill="#E56E6E"/>
<path d="M734.298 626.6C732.538 625.4 730.218 625.88 729.018 627.64L721.578 638.68L713.818 621.96C712.938 620.04 710.698 619.24 708.778 620.12C706.938 621 706.058 623.24 706.938 625.08L716.698 646.04L700.697 669.88C699.577 671.64 699.977 673.96 701.737 675.08C702.377 675.56 703.098 675.72 703.818 675.72C705.018 675.72 706.218 675.16 706.938 674.04L720.458 653.96L726.218 666.52C726.858 667.88 728.218 668.68 729.658 668.68C730.218 668.68 730.778 668.6 731.258 668.36C733.098 667.48 733.978 665.24 733.098 663.32L725.338 646.68L735.338 631.8C736.458 630.04 735.978 627.72 734.298 626.6Z" fill="#E56E6E"/>
<path d="M873.968 633.28C864.368 627.28 851.008 631.44 844.128 642.4C837.248 653.44 839.488 667.28 849.088 673.28C852.048 675.12 855.408 676 858.848 676C866.368 676 874.208 671.68 878.928 664.16C885.808 653.12 883.568 639.28 873.968 633.28ZM872.528 660.16C867.888 667.68 859.088 670.64 853.008 666.88C846.928 663.12 845.808 653.92 850.528 646.4C853.808 641.12 859.168 638.08 864.128 638.08C866.208 638.08 868.208 638.56 869.968 639.68C876.048 643.44 877.168 652.64 872.528 660.16ZM863.968 642.96C861.968 642.24 859.808 643.28 859.168 645.2L854.768 657.52C854.048 659.44 855.088 661.6 857.088 662.32C857.488 662.48 857.888 662.56 858.288 662.56C859.888 662.56 861.328 661.6 861.888 660L866.208 647.76C866.928 645.76 865.888 643.6 863.968 642.96ZM858.288 627.04H873.248C875.328 627.04 877.008 625.36 877.008 623.28C877.008 621.2 875.328 619.52 873.248 619.52H858.288C856.208 619.52 854.528 621.2 854.528 623.28C854.528 625.36 856.208 627.04 858.288 627.04Z" fill="#6EE596"/>
<path d="M873.968 213.28C864.368 207.28 851.008 211.44 844.128 222.4C837.248 233.44 839.488 247.28 849.088 253.28C852.048 255.12 855.408 256 858.848 256C866.368 256 874.208 251.68 878.928 244.16C885.808 233.12 883.568 219.28 873.968 213.28ZM872.528 240.16C867.888 247.68 859.088 250.64 853.008 246.88C846.928 243.12 845.808 233.92 850.528 226.4C853.808 221.12 859.168 218.08 864.128 218.08C866.208 218.08 868.208 218.56 869.968 219.68C876.048 223.44 877.168 232.64 872.528 240.16ZM863.968 222.96C861.968 222.24 859.808 223.28 859.168 225.2L854.768 237.52C854.048 239.44 855.088 241.6 857.088 242.32C857.488 242.48 857.888 242.56 858.288 242.56C859.888 242.56 861.328 241.6 861.888 240L866.208 227.76C866.928 225.76 865.888 223.6 863.968 222.96ZM858.288 207.04H873.248C875.328 207.04 877.008 205.36 877.008 203.28C877.008 201.2 875.328 199.52 873.248 199.52H858.288C856.208 199.52 854.528 201.2 854.528 203.28C854.528 205.36 856.208 207.04 858.288 207.04Z" fill="#6EE596"/>
<path d="M873.968 320.28C864.368 314.28 851.008 318.44 844.128 329.4C837.248 340.44 839.488 354.28 849.088 360.28C852.048 362.12 855.408 363 858.848 363C866.368 363 874.208 358.68 878.928 351.16C885.808 340.12 883.568 326.28 873.968 320.28ZM872.528 347.16C867.888 354.68 859.088 357.64 853.008 353.88C846.928 350.12 845.808 340.92 850.528 333.4C853.808 328.12 859.168 325.08 864.128 325.08C866.208 325.08 868.208 325.56 869.968 326.68C876.048 330.44 877.168 339.64 872.528 347.16ZM863.968 329.96C861.968 329.24 859.808 330.28 859.168 332.2L854.768 344.52C854.048 346.44 855.088 348.6 857.088 349.32C857.488 349.48 857.888 349.56 858.288 349.56C859.888 349.56 861.328 348.6 861.888 347L866.208 334.76C866.928 332.76 865.888 330.6 863.968 329.96ZM858.288 314.04H873.248C875.328 314.04 877.008 312.36 877.008 310.28C877.008 308.2 875.328 306.52 873.248 306.52H858.288C856.208 306.52 854.528 308.2 854.528 310.28C854.528 312.36 856.208 314.04 858.288 314.04Z" fill="#6EE596"/>
<path d="M592.968 213.28C583.368 207.28 570.008 211.44 563.128 222.4C556.248 233.44 558.488 247.28 568.088 253.28C571.048 255.12 574.408 256 577.848 256C585.368 256 593.208 251.68 597.928 244.16C604.808 233.12 602.568 219.28 592.968 213.28ZM591.528 240.16C586.888 247.68 578.088 250.64 572.008 246.88C565.928 243.12 564.808 233.92 569.528 226.4C572.808 221.12 578.168 218.08 583.128 218.08C585.208 218.08 587.208 218.56 588.968 219.68C595.048 223.44 596.168 232.64 591.528 240.16ZM582.968 222.96C580.968 222.24 578.808 223.28 578.168 225.2L573.768 237.52C573.048 239.44 574.088 241.6 576.088 242.32C576.488 242.48 576.888 242.56 577.288 242.56C578.888 242.56 580.328 241.6 580.888 240L585.208 227.76C585.928 225.76 584.888 223.6 582.968 222.96ZM577.288 207.04H592.248C594.328 207.04 596.008 205.36 596.008 203.28C596.008 201.2 594.328 199.52 592.248 199.52H577.288C575.208 199.52 573.528 201.2 573.528 203.28C573.528 205.36 575.208 207.04 577.288 207.04Z" fill="#6EE596"/>
<path d="M592.968 320.28C583.368 314.28 570.008 318.44 563.128 329.4C556.248 340.44 558.488 354.28 568.088 360.28C571.048 362.12 574.408 363 577.848 363C585.368 363 593.208 358.68 597.928 351.16C604.808 340.12 602.568 326.28 592.968 320.28ZM591.528 347.16C586.888 354.68 578.088 357.64 572.008 353.88C565.928 350.12 564.808 340.92 569.528 333.4C572.808 328.12 578.168 325.08 583.128 325.08C585.208 325.08 587.208 325.56 588.968 326.68C595.048 330.44 596.168 339.64 591.528 347.16ZM582.968 329.96C580.968 329.24 578.808 330.28 578.168 332.2L573.768 344.52C573.048 346.44 574.088 348.6 576.088 349.32C576.488 349.48 576.888 349.56 577.288 349.56C578.888 349.56 580.328 348.6 580.888 347L585.208 334.76C585.928 332.76 584.888 330.6 582.968 329.96ZM577.288 314.04H592.248C594.328 314.04 596.008 312.36 596.008 310.28C596.008 308.2 594.328 306.52 592.248 306.52H577.288C575.208 306.52 573.528 308.2 573.528 310.28C573.528 312.36 575.208 314.04 577.288 314.04Z" fill="#6EE596"/>
<path d="M31.375 31.375H24.4V49H31.375C37 49 40.575 45.275 40.575 40.175C40.575 35 37 31.375 31.375 31.375ZM29.3 44.675V35.625H31C33.825 35.625 35.6 37.25 35.6 40.175C35.6 43.075 33.825 44.675 31 44.675H29.3ZM42.7838 49H47.6838V31.375H42.7838V49ZM63.6992 43.65C63.6992 38 55.2242 38.85 55.2242 36.225C55.2242 35.375 55.7992 34.95 56.5242 34.975C57.4242 34.975 58.0992 35.475 58.1492 36.575H63.4742C63.2992 33.075 60.6492 31.1 56.5992 31.1C52.8742 31.1 49.9992 32.95 49.9992 36.4C49.9242 42.525 58.4742 41.2 58.4992 44.025C58.4992 44.85 57.8242 45.3 56.9492 45.3C56.0492 45.3 55.2742 44.85 55.1742 43.525H49.9492C50.1492 47.3 53.1992 49.175 57.1242 49.175C61.2992 49.175 63.6992 46.75 63.6992 43.65ZM65.0021 35.275H69.6521V49H74.5521V35.275H79.2521V31.375H65.0021V35.275ZM90.39 37.3C90.39 38.5 89.715 39.15 88.39 39.15H85.965V35.475H88.39C89.715 35.475 90.39 36.2 90.39 37.3ZM81.065 31.375V49H85.965V42.5H86.49L89.99 49H95.465L91.49 42.125C94.115 41.325 95.365 39.325 95.365 37.025C95.365 33.875 93.165 31.375 88.79 31.375H81.065ZM97.5934 49H102.493V31.375H97.5934V49ZM114.884 43.5C114.884 44.55 114.259 45.05 113.034 45.05H110.184V41.85H113.009C114.209 41.85 114.884 42.425 114.884 43.5ZM114.509 36.85C114.509 37.875 113.859 38.375 112.659 38.375H110.184V35.275H112.659C113.859 35.275 114.509 35.8 114.509 36.85ZM119.909 44.2C119.909 42.2 118.634 40.425 116.534 39.95C118.259 39.475 119.509 38.075 119.509 35.95C119.509 33.025 117.309 31.375 113.734 31.375H105.284V49H114.009C117.784 49 119.909 47.175 119.909 44.2ZM121.981 41.6C121.981 46.625 125.181 49.175 129.431 49.175C133.656 49.175 137.156 46.625 137.156 41.6V31.375H132.256V41.6C132.256 43.425 131.381 44.575 129.531 44.575C127.681 44.575 126.856 43.425 126.856 41.6V31.375H121.981V41.6ZM138.879 35.275H143.529V49H148.429V35.275H153.129V31.375H138.879V35.275ZM154.942 49H159.842V31.375H154.942V49ZM180.107 40.125C180.107 34.825 176.107 31.1 171.082 31.1C166.082 31.1 162.032 34.825 162.032 40.125C162.032 45.425 166.082 49.175 171.082 49.175C176.082 49.175 180.107 45.425 180.107 40.125ZM167.032 40.125C167.032 37.35 168.532 35.6 171.082 35.6C173.607 35.6 175.132 37.35 175.132 40.125C175.132 42.85 173.607 44.625 171.082 44.625C168.532 44.625 167.032 42.85 167.032 40.125ZM193.735 31.375V41.35L187.21 31.375H182.31V49H187.21V39.15L193.735 49H198.635V31.375H193.735ZM205.612 40.15C205.612 45.425 209.087 49.125 214.387 49.125C218.812 49.125 221.962 46.575 222.837 42.575H217.562C216.937 43.9 215.762 44.625 214.312 44.625C212.062 44.625 210.587 42.875 210.587 40.15C210.587 37.45 212.062 35.7 214.312 35.7C215.762 35.7 216.937 36.425 217.562 37.75H222.837C221.962 33.75 218.812 31.2 214.387 31.2C209.087 31.2 205.612 34.9 205.612 40.15ZM236.032 49H240.932V31.375H236.032V38H230.057V31.375H225.157V49H230.057V41.925H236.032V49ZM255.836 49H261.011L254.611 31.375H248.961L242.536 49H247.686L248.636 46.125H254.886L255.836 49ZM253.661 42.375H249.886L251.761 36.675L253.661 42.375ZM274.033 31.375V41.35L267.508 31.375H262.608V49H267.508V39.15L274.033 49H278.933V31.375H274.033ZM293.149 31.375V41.35L286.624 31.375H281.724V49H286.624V39.15L293.149 49H298.049V31.375H293.149ZM312.115 31.375H300.84V49H312.115V45.075H305.74V41.9H311.365V38.175H305.74V35.3H312.115V31.375ZM314.537 31.375V49H324.912V45.25H319.437V31.375H314.537ZM340.042 43.65C340.042 38 331.567 38.85 331.567 36.225C331.567 35.375 332.142 34.95 332.867 34.975C333.767 34.975 334.442 35.475 334.492 36.575H339.817C339.642 33.075 336.992 31.1 332.942 31.1C329.217 31.1 326.342 32.95 326.342 36.4C326.267 42.525 334.817 41.2 334.842 44.025C334.842 44.85 334.167 45.3 333.292 45.3C332.392 45.3 331.617 44.85 331.517 43.525H326.292C326.492 47.3 329.542 49.175 333.467 49.175C337.642 49.175 340.042 46.75 340.042 43.65Z" fill="#671875"/>
</svg>
