<svg width="825" height="826" viewBox="0 0 825 826" fill="none" xmlns="http://www.w3.org/2000/svg">
<g opacity="0.5">
<path d="M150.791 297.522C152.177 298.096 152.519 299.309 151.864 300.889L150.418 304.381L146.122 302.602L147.545 299.165C148.2 297.585 149.405 296.948 150.791 297.522ZM142.918 294.813C144.249 295.364 144.586 296.51 143.943 298.062L142.657 301.167L138.583 299.479L139.869 296.375C140.512 294.823 141.588 294.262 142.918 294.813ZM153.415 292.991C151.197 292.073 148.593 292.715 147.181 294.793C147.407 292.678 146.468 290.633 144.112 289.658C141.036 288.383 138.092 289.924 136.45 293.887L132.822 302.646L152.279 310.705L156.033 301.642C157.733 297.54 156.63 294.323 153.415 292.991Z" fill="white"/>
<path d="M169.959 275.711L172.527 270.926L150.366 267.684L147.558 272.918L162.513 289.589L165.052 284.858L162.37 281.989L166.086 275.062L169.959 275.711ZM161.972 274.353L159.519 278.927L153.944 273.008L161.972 274.353Z" fill="white"/>
<path d="M181.538 256.945L184.401 252.688L166.927 240.933L164.064 245.19L181.538 256.945Z" fill="white"/>
<path d="M188.711 232.876L197.133 222.711L193.853 219.994L185.431 230.158L188.711 232.876Z" fill="white"/>
<path d="M207.088 194.22L197.909 203.285L212.708 218.269L221.886 209.205L218.998 206.281L213.47 211.74L210.223 208.453L215.111 203.626L212.329 200.808L207.441 205.636L204.447 202.605L209.976 197.145L207.088 194.22Z" fill="white"/>
<path d="M229.768 174.841L219.732 182.946L232.965 199.33L243.001 191.224L240.418 188.027L234.374 192.909L231.471 189.315L236.815 184.998L234.327 181.918L228.982 186.234L226.306 182.92L232.35 178.038L229.768 174.841Z" fill="white"/>
<path d="M278.507 154.887L276.069 150.203L278.543 148.915C280.353 147.973 281.596 148.476 282.344 149.913C283.092 151.35 282.791 152.656 280.981 153.598L278.507 154.887ZM286.974 147.503C285.187 144.07 281.555 142.68 276.978 145.063L269.607 148.9L279.331 167.58L283.881 165.212L280.391 158.506L283.211 157.037C287.975 154.558 288.581 150.59 286.974 147.503Z" fill="white"/>
<path d="M308.968 138.349C309.58 139.881 309.112 141.135 307.329 141.847L304.376 143.027L302.439 138.18L305.392 137C307.175 136.287 308.389 136.901 308.968 138.349ZM296.094 136.128L303.91 155.684L308.674 153.78L305.723 146.398L306.866 145.942L313.883 151.698L319.26 149.55L311.652 143.609C314.304 141.515 314.717 138.668 313.737 136.217C312.379 132.818 308.881 131.018 304.089 132.933L296.094 136.128Z" fill="white"/>
<path d="M336.147 122.434L323.751 126.005L329.581 146.242L341.977 142.671L340.839 138.722L333.373 140.873L332.094 136.433L338.695 134.531L337.599 130.726L330.998 132.628L329.818 128.534L337.285 126.384L336.147 122.434Z" fill="white"/>
<path d="M369.257 130.579C367.99 123.644 358.046 127.139 357.388 123.538C357.151 122.24 357.952 121.453 359.168 121.261C360.53 121.043 361.62 121.667 361.952 122.979L367.411 121.981C366.482 118.064 363.032 116.377 358.517 117.202C354.179 117.995 351.361 120.767 352.079 124.692C353.363 132.051 363.344 128.092 364.045 131.928C364.266 133.138 363.456 134.049 361.981 134.318C360.564 134.577 359.421 133.993 358.982 132.427L353.611 133.408C354.524 137.572 358.411 139.149 362.867 138.334C367.707 137.45 369.893 134.062 369.257 130.579Z" fill="white"/>
<path d="M394.989 113.026L382.131 114.07L383.835 135.061L396.693 134.017L396.36 129.92L388.616 130.549L388.242 125.944L395.09 125.388L394.769 121.441L387.922 121.997L387.577 117.751L395.321 117.122L394.989 113.026Z" fill="white"/>
<path d="M422.466 112.714L422.221 125.762L413.887 112.554L408.758 112.458L408.364 133.514L413.493 133.61L413.736 120.623L422.072 133.771L427.201 133.867L427.595 112.81L422.466 112.714Z" fill="white"/>
<path d="M439.359 117.797L444.9 118.456L442.897 135.288L447.991 135.894L449.994 119.063L455.535 119.722L456.021 115.641L439.845 113.716L439.359 117.797Z" fill="white"/>
<path d="M481.876 135.83C483.402 128.947 472.882 128.305 473.674 124.732C473.96 123.443 475.004 123.029 476.198 123.325C477.539 123.653 478.301 124.651 478.097 125.989L483.515 127.19C484.18 123.22 481.657 120.325 477.176 119.332C472.87 118.377 469.197 119.837 468.334 123.732C466.658 131.012 477.393 131.241 476.549 135.049C476.283 136.25 475.183 136.774 473.719 136.449C472.313 136.138 471.486 135.155 471.69 133.541L466.359 132.359C465.584 136.551 468.553 139.514 472.976 140.494C477.779 141.559 481.11 139.286 481.876 135.83Z" fill="white"/>
<path d="M539.997 140.991L528.206 135.759L519.664 155.009L531.455 160.241L533.122 156.484L526.02 153.333L527.894 149.11L534.173 151.897L535.779 148.277L529.5 145.49L531.228 141.597L538.33 144.748L539.997 140.991Z" fill="white"/>
<path d="M559.55 151.169L552.692 147.266L542.276 165.57L549.133 169.473C554.974 172.796 560.85 171.204 563.937 165.781C567.038 160.332 565.39 154.493 559.55 151.169ZM548.931 164.249L554.984 153.611L557.096 154.812C560.46 156.727 561.314 159.836 559.4 163.199C557.486 166.563 554.406 167.365 551.043 165.45L548.931 164.249Z" fill="white"/>
<path d="M573.095 184.641L577.279 187.609L589.466 170.434L585.282 167.465L573.095 184.641Z" fill="white"/>
<path d="M600.295 183.961L604.502 187.627L593.366 200.405L597.233 203.775L608.369 190.997L612.576 194.663L615.276 191.565L602.996 180.862L600.295 183.961Z" fill="white"/>
<path d="M641.709 225.672L645.106 230.099L631.659 240.418L634.781 244.488L648.229 234.169L651.626 238.596L654.886 236.094L644.97 223.171L641.709 225.672Z" fill="white"/>
<path d="M663.834 262.237C662.432 263.107 661.116 262.863 660.105 261.231L658.43 258.528L662.867 255.778L664.542 258.481C665.553 260.113 665.16 261.416 663.834 262.237ZM663.786 249.174L645.884 260.267L648.587 264.627L655.344 260.44L655.992 261.485L651.542 269.396L654.591 274.318L659.121 265.794C661.643 268.042 664.518 267.955 666.762 266.564C669.874 264.636 671.039 260.879 668.321 256.492L663.786 249.174Z" fill="white"/>
<path d="M664.662 294.171L667.049 299.048L682.617 282.948L680.006 277.613L657.74 280.023L660.1 284.847L663.996 284.344L667.45 291.404L664.662 294.171ZM670.427 288.478L668.146 283.816L676.205 282.745L670.427 288.478Z" fill="white"/>
<path d="M675.436 320.715L677.512 326.312L684.879 316.155L697.163 318.733L695.139 313.276L687.882 312.001L692.373 305.823L690.296 300.226L682.993 310.295L670.604 307.692L672.628 313.149L679.99 314.449L675.436 320.715Z" fill="white"/>
<path d="M693.057 369.748C693.452 372.267 695.716 373.916 698.205 373.525C700.724 373.129 702.373 370.866 701.977 368.347C701.586 365.858 699.323 364.209 696.804 364.605C694.314 364.996 692.666 367.259 693.057 369.748Z" fill="white"/>
<path d="M711.512 423.655L711.857 415.773L690.817 414.854L690.472 422.736C690.179 429.45 694.277 433.953 700.511 434.225C706.775 434.499 711.219 430.369 711.512 423.655ZM695.029 420.173L707.257 420.707L707.151 423.134C706.982 427.001 704.605 429.179 700.739 429.01C696.872 428.841 694.754 426.467 694.923 422.6L695.029 420.173Z" fill="white"/>
<path d="M707.728 461.074L709.571 448.306L688.727 445.297L686.884 458.065L690.952 458.652L692.062 450.962L696.635 451.622L695.653 458.421L699.572 458.987L700.554 452.188L704.77 452.796L703.66 460.486L707.728 461.074Z" fill="white"/>
<path d="M695.27 471.11C689.156 469.593 683.821 472.783 682.326 478.81C681.12 483.673 682.918 488.013 687.055 490.276L688.413 484.802C686.875 483.524 686.384 481.764 686.854 479.871C687.612 476.814 690.403 475.281 694.014 476.176C697.625 477.072 699.376 479.731 698.617 482.789C698.148 484.681 696.892 486.008 694.935 486.419L693.578 491.893C698.292 491.826 701.939 488.836 703.145 483.974C704.64 477.946 701.385 472.626 695.27 471.11Z" fill="white"/>
<path d="M692.102 518.578L696.439 506.429L676.605 499.349L672.268 511.498L676.139 512.88L678.751 505.562L683.102 507.115L680.793 513.586L684.522 514.917L686.832 508.447L690.844 509.879L688.232 517.196L692.102 518.578Z" fill="white"/>
<path d="M681.084 543.751L669.292 538.162L684.759 535.998L686.956 531.362L667.925 522.343L665.728 526.979L677.467 532.542L662.054 534.732L659.857 539.368L678.887 548.387L681.084 543.751Z" fill="white"/>
<path d="M669.504 557.06L666.624 561.839L652.106 553.091L649.459 557.485L663.977 566.233L661.097 571.012L664.617 573.134L673.024 559.181L669.504 557.06Z" fill="white"/>
<path d="M643.55 591.014C642.229 590.026 641.975 588.712 643.125 587.175L645.029 584.628L649.209 587.754L647.305 590.3C646.155 591.838 644.799 591.948 643.55 591.014ZM655.693 586.196L638.827 573.585L635.755 577.693L642.122 582.454L641.385 583.439L632.395 582.186L628.928 586.823L638.518 587.925C637.346 591.095 638.478 593.739 640.592 595.32C643.524 597.512 647.447 597.224 650.537 593.092L655.693 586.196Z" fill="white"/>
<path d="M614.127 603.451L610.458 607.455L631.133 616.065L635.146 611.685L624.767 591.839L621.14 595.798L623.031 599.241L617.721 605.036L614.127 603.451ZM621.532 606.738L625.038 602.911L628.98 610.022L621.532 606.738Z" fill="white"/>
<path d="M614.34 632.666L600.307 616.963L591.471 624.859L594.11 627.812L599.121 623.334L610.515 636.085L614.34 632.666Z" fill="white"/>
<path d="M576.74 636.239L572.593 639.26L584.993 656.282L589.14 653.262L576.74 636.239Z" fill="white"/>
<path d="M557.349 673.663L570.188 666.143L568.066 662.519L560.3 667.068L561.516 651.336L559.545 647.971L546.705 655.491L548.828 659.115L556.646 654.536L555.378 670.298L557.349 673.663Z" fill="white"/>
<path d="M531.278 686.443L543.003 681.064L534.222 661.922L522.497 667.301L524.21 671.036L531.273 667.797L533.199 671.996L526.955 674.86L528.606 678.46L534.85 675.595L536.626 679.467L529.564 682.707L531.278 686.443Z" fill="white"/>
<path d="M510.709 694.368L518.173 691.809L511.341 671.888L503.878 674.447C497.521 676.627 494.826 682.086 496.85 687.989C498.884 693.92 504.353 696.548 510.709 694.368ZM507.929 677.752L511.899 689.33L509.601 690.118C505.94 691.373 503.044 689.956 501.788 686.296C500.533 682.635 501.969 679.795 505.63 678.54L507.929 677.752Z" fill="white"/>
<path d="M458.651 686.192L453.565 686.862L455.217 699.414L448.866 687.481L444.761 688.021L441.74 701.158L440.091 688.636L435.005 689.305L437.754 710.185L443.732 709.398L447.629 694.179L455.392 707.863L461.4 707.072L458.651 686.192Z" fill="white"/>
<path d="M430.309 697.935C430.127 692.117 426.229 689.357 421.342 689.51C416.484 689.661 412.496 692.667 412.677 698.484L413.069 711.048L418.196 710.888L417.804 698.294C417.726 695.805 418.971 694.326 421.4 694.25C423.828 694.175 425.103 695.576 425.18 698.064L425.573 710.658L430.7 710.498L430.309 697.935Z" fill="white"/>
<path d="M385.179 694.916C384.696 701.949 395.195 701.016 394.944 704.668C394.854 705.985 393.883 706.549 392.658 706.435C391.283 706.311 390.381 705.437 390.383 704.084L384.846 703.704C384.78 707.729 387.707 710.215 392.286 710.529C396.686 710.832 400.1 708.841 400.374 704.86C400.945 697.412 390.296 698.785 390.563 694.895C390.648 693.668 391.657 692.985 393.153 693.088C394.59 693.187 395.554 694.035 395.593 695.661L401.04 696.035C401.182 691.775 397.805 689.288 393.285 688.977C388.377 688.64 385.422 691.384 385.179 694.916Z" fill="white"/>
<path d="M366.497 686.014L361.44 685.155L357.912 705.917L362.969 706.777L366.497 686.014Z" fill="white"/>
<path d="M346.19 692.874C347.858 686.799 344.803 681.386 338.814 679.742C333.983 678.415 329.599 680.104 327.234 684.184L332.673 685.677C333.989 684.172 335.76 683.725 337.641 684.242C340.678 685.076 342.141 687.904 341.156 691.492C340.171 695.079 337.468 696.763 334.431 695.929C332.55 695.412 331.256 694.123 330.893 692.157L325.455 690.664C325.404 695.379 328.302 699.099 333.133 700.426C339.122 702.071 344.521 698.949 346.19 692.874Z" fill="white"/>
<path d="M278.779 679.333L285.823 682.889L295.314 664.089L288.27 660.533C282.272 657.504 276.482 659.387 273.67 664.958C270.844 670.555 272.781 676.305 278.779 679.333ZM288.733 665.74L283.217 676.667L281.048 675.572C277.593 673.828 276.585 670.765 278.329 667.31C280.074 663.855 283.109 662.901 286.564 664.645L288.733 665.74Z" fill="white"/>
<path d="M263.582 646.578L259.256 643.822L247.94 661.583L252.266 664.34L263.582 646.578Z" fill="white"/>
<path d="M230.427 630.278C226.066 635.817 235.266 640.961 233.002 643.836C232.185 644.874 231.065 644.793 230.117 644.009C229.051 643.132 228.798 641.901 229.563 640.785L225.202 637.352C222.88 640.64 223.897 644.343 227.504 647.182C230.969 649.91 234.911 650.189 237.38 647.054C242.048 641.222 232.475 636.358 234.888 633.294C235.649 632.327 236.867 632.332 238.045 633.26C239.177 634.151 239.496 635.395 238.611 636.76L242.901 640.138C245.419 636.698 244.029 632.74 240.47 629.938C236.604 626.894 232.617 627.497 230.427 630.278Z" fill="white"/>
<path d="M213.741 629.899L209.722 626.028L221.482 613.82L217.787 610.261L206.028 622.469L202.009 618.598L199.158 621.558L210.89 632.859L213.741 629.899Z" fill="white"/>
<path d="M186.413 597.04C187.671 595.972 189.008 596.017 190.251 597.48L192.31 599.903L188.333 603.283L186.273 600.86C185.03 599.397 185.225 598.051 186.413 597.04ZM188.408 609.951L204.457 596.314L201.135 592.404L195.077 597.552L194.28 596.615L197.502 588.129L193.753 583.717L190.544 592.821C187.715 590.974 184.885 591.489 182.873 593.199C180.084 595.569 179.492 599.458 182.833 603.39L188.408 609.951Z" fill="white"/>
<path d="M184.067 570.263L181.15 566.043L163.824 578.014L166.74 582.235L184.067 570.263Z" fill="white"/>
<path d="M160.827 544.449C162.14 543.724 163.302 544.213 164.129 545.71L165.957 549.018L161.887 551.267L160.088 548.011C159.261 546.515 159.514 545.175 160.827 544.449ZM153.801 548.915C155.061 548.219 156.167 548.67 156.98 550.14L158.605 553.081L154.746 555.214L153.12 552.274C152.308 550.803 152.54 549.612 153.801 548.915ZM158.921 539.573C156.82 540.734 155.699 543.171 156.442 545.57C154.93 544.075 152.746 543.534 150.514 544.768C147.6 546.378 146.969 549.64 149.044 553.395L153.63 561.692L172.062 551.505L167.317 542.919C165.169 539.033 161.967 537.89 158.921 539.573Z" fill="white"/>
<path d="M152.654 532.809C158.003 530.515 159.148 525.878 157.221 521.384C155.305 516.918 151.05 514.303 145.701 516.597L134.149 521.552L136.171 526.266L147.751 521.3C150.039 520.319 151.871 520.937 152.829 523.17C153.787 525.403 152.948 527.101 150.66 528.083L139.08 533.049L141.102 537.764L152.654 532.809Z" fill="white"/>
<path d="M133.624 508.238L131.946 502.917L148.112 497.82L146.569 492.927L130.404 498.024L128.726 492.702L124.806 493.938L129.704 509.474L133.624 508.238Z" fill="white"/>
<path d="M140.438 469.054L139.39 464.032L118.774 468.333L119.822 473.355L140.438 469.054Z" fill="white"/>
<path d="M124.141 429.506C117.847 430.175 113.936 435.388 114.571 441.355C115.202 447.291 120.131 451.654 126.426 450.985C132.72 450.315 136.651 445.01 136.02 439.073C135.388 433.137 130.436 428.836 124.141 429.506ZM125.87 445.764C122.141 446.161 119.556 444.264 119.195 440.863C118.839 437.522 120.964 435.093 124.693 434.697C128.363 434.306 131.011 436.227 131.366 439.568C131.728 442.969 129.54 445.374 125.87 445.764Z" fill="white"/>
<path d="M113.39 409.321L126.439 409.24L113.443 417.901L113.475 423.031L134.535 422.9L134.503 417.77L121.513 417.851L134.449 409.19L134.417 404.06L113.358 404.191L113.39 409.321Z" fill="white"/>
<path d="M134.651 355.289C135.141 352.787 133.578 350.463 131.105 349.979C128.602 349.49 126.279 351.053 125.789 353.555C125.305 356.028 126.868 358.352 129.37 358.841C131.844 359.325 134.167 357.762 134.651 355.289Z" fill="white"/>
</g>
</svg>
