<svg width="889" height="889" viewBox="0 0 889 889" fill="none" xmlns="http://www.w3.org/2000/svg">
<g opacity="0.05">
<path d="M21.5635 413.604C23.3526 413.703 24.1458 414.814 24.0305 416.901L23.7624 421.755L18.3098 421.454L18.5756 416.642C18.6885 414.598 19.7318 413.503 21.5635 413.604ZM10.197 413.617C11.9436 413.714 12.7344 414.868 12.6215 416.912L12.3886 421.127L7.1064 420.835L7.33927 416.62C7.45218 414.576 8.40791 413.518 10.197 413.617ZM23.2291 405.111C19.8212 404.923 16.6767 406.928 15.6698 410.46C15.0227 407.477 12.7548 405.216 9.13396 405.017C4.14995 404.742 1.13146 408.333 0.795078 414.422L0 428.814L30.0318 430.472L30.8528 415.612C31.208 409.182 28.2983 405.391 23.2291 405.111Z" fill="white"/>
<path d="M15.437 375.121C17.4637 375.414 18.3966 376.712 18.0729 378.949L17.4804 383.043L11.2735 382.145L11.866 378.051C12.1897 375.814 13.5791 374.852 15.437 375.121ZM3.15168 389.416L32.9194 393.72L34.1166 385.448L23.1384 383.861L23.2667 382.975L35.1 378.653L36.4376 369.41L23.8549 374.442C23.1451 369.815 20.0726 367.216 16.188 366.655C10.8678 365.885 6.10793 368.989 5.03904 376.375L3.15168 389.416Z" fill="white"/>
<path d="M31.4423 348.073L40.7425 350.271L42.6762 342.095L33.376 339.897L15.8398 324.886L13.6705 334.057L23.7465 341.872L11.2362 344.35L9.03749 353.646L31.4423 348.073Z" fill="white"/>
<path d="M53.2004 307.307L55.9839 298.93L23.9969 299.814L20.958 308.961L46.0467 328.838L48.8167 320.501L44.6715 317.417L48.0332 307.299L53.2004 307.307ZM41.301 307.266L39.2705 313.377L31.0476 307.277L41.301 307.266Z" fill="white"/>
<path d="M38.7214 262.577L54.339 269.347L34.2915 272.789L30.9649 280.457L58.5599 292.418L61.8865 284.749L46.4647 278.065L66.3164 274.538L69.643 266.869L42.048 254.909L38.7214 262.577Z" fill="white"/>
<path d="M95.4018 203.865C96.8946 204.856 97.0154 206.216 95.8591 207.957L93.1688 212.007L88.6194 208.988L91.2861 204.973C92.4188 203.268 93.8735 202.851 95.4018 203.865ZM85.5936 198.124C87.0508 199.091 87.1481 200.486 86.0154 202.192L83.679 205.709L79.2718 202.784L81.6081 199.267C82.7409 197.561 84.1009 197.133 85.5936 198.124ZM101.14 197.385C98.297 195.498 94.57 195.635 91.9124 198.171C92.8654 195.272 92.055 192.174 89.0339 190.169C84.8755 187.409 80.453 188.979 77.0783 194.059L69.1019 206.067L94.159 222.697L102.395 210.298C105.959 204.934 105.37 200.192 101.14 197.385Z" fill="white"/>
<path d="M125.012 180.288L130.528 173.395L100.218 163.141L94.1952 170.668L110.835 198.005L116.325 191.145L113.506 186.816L120.168 178.491L125.012 180.288ZM113.865 176.127L109.841 181.156L104.243 172.585L113.865 176.127Z" fill="white"/>
<path d="M117.498 143.186L139.234 163.966L151.472 151.176L146.847 146.755L140.389 153.504L123.278 137.146L117.498 143.186Z" fill="white"/>
<path d="M145.415 115.491L165.229 138.111L178.549 126.452L174.333 121.64L167.304 127.792L151.706 109.985L145.415 115.491Z" fill="white"/>
<path d="M199.031 110.548L205.785 105.619L188.048 81.3382L181.295 86.267L199.031 110.548Z" fill="white"/>
<path d="M259.409 65.3974C262.86 63.7153 264.254 59.7621 262.59 56.3507C260.907 52.9009 256.914 51.5261 253.462 53.2082C250.049 54.8717 248.674 58.8632 250.357 62.3129C252.021 65.7244 255.996 67.0608 259.409 65.3974Z" fill="white"/>
<path d="M321.913 48.562L329.957 46.2787L326.74 34.9565L335.277 32.5334L333.54 26.421L325.004 28.8441L323.559 23.7573L335.132 20.4721L333.314 14.0726L313.697 19.6411L321.913 48.562Z" fill="white"/>
<path d="M379.11 19.7517C377.418 10.8707 369.523 5.90533 361.099 7.50898C352.717 9.10465 347.117 16.639 348.809 25.5201C350.502 34.4011 358.488 39.3924 366.87 37.7967C375.252 36.201 380.802 28.6327 379.11 19.7517ZM357.191 23.9244C356.305 19.2744 358.261 15.8633 362.536 15.0495C366.769 14.2437 369.884 16.6894 370.77 21.3394C371.64 25.9056 369.65 29.3666 365.418 30.1724C361.143 30.9862 358.061 28.4906 357.191 23.9244Z" fill="white"/>
<path d="M391.995 20.6723C392.849 29.2014 398.716 32.9862 405.933 32.2646C413.107 31.5472 418.617 26.6248 417.763 18.0958L416.026 0.740705L407.706 1.57268L409.443 18.9277C409.753 22.0253 408.462 24.1258 405.321 24.4399C402.18 24.7541 400.583 22.9422 400.273 19.8446L398.537 2.48954L390.259 3.31727L391.995 20.6723Z" fill="white"/>
<path d="M444.927 0.0936719L445.117 17.1078L433.792 0.218408L425.431 0.31208L425.768 30.3747L434.129 30.281L433.941 13.4801L445.264 30.1563L453.625 30.0626L453.288 0L444.927 0.0936719Z" fill="white"/>
<path d="M477.266 1.34667L465.398 0.428017L463.076 30.4028L474.944 31.3214C484.514 32.0623 491.088 26.198 491.76 17.5245C492.441 8.72339 486.836 2.08752 477.266 1.34667ZM471.983 23.6926L473.175 8.30134L476.068 8.52524C480.874 8.89731 483.68 11.8947 483.295 16.8693C482.913 21.8013 479.682 24.2886 474.875 23.9165L471.983 23.6926Z" fill="white"/>
<path d="M527.498 7.86042L508.521 4.68652L503.557 34.3388L522.535 37.5127L523.64 30.9093L512.91 29.1148L513.804 23.7731L523.272 25.3566L524.321 19.0896L514.853 17.5062L515.663 12.6693L526.393 14.4638L527.498 7.86042Z" fill="white"/>
<path d="M560.622 26.0193C560.107 28.0004 558.713 28.7839 556.525 28.2153L552.52 27.1748L554.097 21.1076L558.103 22.1482C560.291 22.7167 561.095 24.2033 560.622 26.0193ZM547.764 12.2362L540.198 41.334L548.291 43.4366L551.082 32.7055L551.949 32.9307L554.939 45.1636L563.982 47.5129L560.368 34.4571C565.047 34.2627 567.97 31.4972 568.957 27.7C570.31 22.4995 567.749 17.4282 560.523 15.5509L547.764 12.2362Z" fill="white"/>
<path d="M620.692 61.3398C624.18 62.9442 628.124 61.519 629.711 58.0711C631.316 54.5845 629.851 50.6249 626.363 49.0205C622.914 47.4339 618.952 48.8979 617.347 52.3845C615.76 55.8323 617.243 59.7532 620.692 61.3398Z" fill="white"/>
<path d="M677.648 83.6515C672.504 91.0357 673.763 99.6024 681.185 104.769C687.382 109.082 694.28 108.583 699.406 103.836L692.019 98.6945C689.852 99.9401 687.499 99.8096 685.469 98.3962C682.317 96.203 681.958 92.3155 684.616 88.501C687.249 84.7214 691.021 83.7094 694.172 85.9026C696.203 87.316 697.141 89.4763 696.724 91.9403L704.112 97.0821C706.787 90.6298 704.862 83.9898 698.665 79.6764C691.243 74.5102 682.768 76.3024 677.648 83.6515Z" fill="white"/>
<path d="M728.667 116.088C727.353 117.658 725.758 117.77 724.024 116.319L720.85 113.665L724.874 108.857L728.048 111.512C729.782 112.962 729.872 114.649 728.667 116.088ZM722.951 98.1294L703.65 121.187L710.063 126.551L717.181 118.047L717.868 118.622L715.33 130.957L722.496 136.95L724.823 123.605C729.134 125.432 732.961 124.183 735.479 121.175C738.929 117.054 738.788 111.375 733.062 106.586L722.951 98.1294Z" fill="white"/>
<path d="M765.644 137.25L752.036 123.652L730.771 144.914L744.379 158.512L749.114 153.777L741.421 146.089L745.251 142.259L752.04 149.042L756.534 144.549L749.746 137.765L753.214 134.297L760.908 141.985L765.644 137.25Z" fill="white"/>
<path d="M766.556 183.832L772.225 190.6L788.276 162.929L782.086 155.54L751.986 166.436L757.628 173.172L762.43 171.266L769.277 179.441L766.556 183.832ZM772.842 173.732L768.706 168.795L778.219 165.005L772.842 173.732Z" fill="white"/>
<path d="M798.389 186.781L802.925 193.289L783.708 206.674L788.488 213.531L807.706 200.147L812.291 206.725L817.752 202.922L803.85 182.978L798.389 186.781Z" fill="white"/>
<path d="M803.424 237.62L807.58 244.873L833.681 229.933L829.525 222.68L803.424 237.62Z" fill="white"/>
<path d="M828.382 267.695L845.251 252.418L841.503 244.284L818.538 266.311L823.017 276.033L854.673 272.87L850.944 264.775L828.382 267.695Z" fill="white"/>
<path d="M866.296 304.355L859.824 286.243L831.499 296.356L837.971 314.468L844.279 312.216L840.62 301.975L845.722 300.153L848.951 309.189L854.937 307.052L851.708 298.016L856.329 296.366L859.988 306.607L866.296 304.355Z" fill="white"/>
<path d="M882.508 369.629L880.54 357.894L850.876 362.864L852.844 374.599C854.431 384.062 861.709 389.026 870.292 387.587C879.002 386.128 884.095 379.092 882.508 369.629ZM859.538 369.888L874.77 367.336L875.249 370.196C876.046 374.949 873.812 378.393 868.889 379.218C864.008 380.036 860.814 377.501 860.017 372.748L859.538 369.888Z" fill="white"/>
<path d="M888.288 419.929L886.797 400.754L856.81 403.084L858.301 422.259L864.979 421.74L864.136 410.899L869.538 410.479L870.281 420.045L876.619 419.553L875.875 409.986L880.767 409.606L881.61 420.448L888.288 419.929Z" fill="white"/>
<path d="M867.113 449.089L888.902 442.503L889 433.548L858.811 443.625L858.694 454.328L888.656 465.018L888.754 456.106L867.113 449.089Z" fill="white"/>
<path d="M885.673 498.445L887.582 479.307L857.653 476.323L855.743 495.461L862.409 496.125L863.488 485.305L868.88 485.842L867.927 495.39L874.252 496.02L875.205 486.473L880.087 486.959L879.007 497.78L885.673 498.445Z" fill="white"/>
<path d="M882.541 519.514L852.993 513.898L849.685 531.284L855.972 532.479L857.717 523.304L880.979 527.726L882.541 519.514Z" fill="white"/>
<path d="M853.408 576.467C862.109 578.934 870.088 574.104 872.428 565.857C874.756 557.652 870.527 549.272 861.826 546.805C853.124 544.338 845.082 549.238 842.753 557.443C840.425 565.649 844.707 574 853.408 576.467ZM859.497 555.01C864.053 556.302 866.228 559.578 865.04 563.763C863.864 567.906 860.281 569.594 855.725 568.303C851.251 567.034 849.047 563.705 850.223 559.562C851.411 555.377 855.023 553.742 859.497 555.01Z" fill="white"/>
<path d="M847.108 598.504L853.206 600.833L852.018 603.94C851.12 606.29 849.559 606.79 847.686 606.075C845.852 605.375 845.022 603.962 845.92 601.612L847.108 598.504ZM844.641 614.042C850.061 616.112 855.361 614.073 858.026 607.101L862.486 595.429L834.389 584.7L831.405 592.509L840.891 596.13L839.414 599.995C836.689 607.125 839.739 612.17 844.641 614.042Z" fill="white"/>
<path d="M839.587 648.015L848.015 630.725L820.976 617.556L812.548 634.846L818.57 637.779L823.335 628.003L828.206 630.375L824.001 639.001L829.716 641.784L833.92 633.158L838.331 635.306L833.566 645.082L839.587 648.015Z" fill="white"/>
<path d="M812.77 674.613C811.015 673.558 810.659 671.999 811.825 670.063L813.96 666.519L819.333 669.752L817.198 673.296C816.032 675.232 814.378 675.581 812.77 674.613ZM829.64 666.198L803.871 650.692L799.559 657.853L809.062 663.572L808.6 664.339L796.016 663.735L791.197 671.737L804.747 671.976C803.607 676.516 805.43 680.102 808.793 682.126C813.399 684.897 818.99 683.881 822.841 677.488L829.64 666.198Z" fill="white"/>
<path d="M761.846 722.171C759.318 725.059 759.566 729.244 762.424 731.743C765.313 734.271 769.527 733.99 772.056 731.102C774.557 728.245 774.276 724.033 771.386 721.506C768.529 719.006 764.347 719.315 761.846 722.171Z" fill="white"/>
<path d="M714.323 797.576L729.346 785.559L710.552 762.086L695.53 774.103L699.715 779.331L708.209 772.536L711.595 776.764L704.1 782.76L708.072 787.721L715.566 781.725L718.632 785.554L710.138 792.349L714.323 797.576Z" fill="white"/>
<path d="M691.488 813.775L701.402 807.19L684.758 782.149L674.843 788.733C666.848 794.043 665.284 802.71 670.101 809.956C674.988 817.309 683.493 819.084 691.488 813.775ZM681.877 792.919L690.424 805.778L688.007 807.382C683.992 810.049 679.934 809.416 677.172 805.26C674.433 801.14 675.445 797.191 679.461 794.524L681.877 792.919Z" fill="white"/>
<path d="M643.265 807.878L635.918 811.87L650.284 838.284L657.63 834.292L643.265 807.878Z" fill="white"/>
<path d="M626.994 842.333L619.714 845.49L610.39 824.013L602.719 827.341L612.043 848.818L604.686 852.009L607.335 858.112L629.643 848.435L626.994 842.333Z" fill="white"/>
<path d="M591.099 856.912L583.569 859.414L576.18 837.198L568.245 839.835L575.634 862.051L568.023 864.58L570.123 870.893L593.199 863.225L591.099 856.912Z" fill="white"/>
<path d="M537.352 868.667C536.88 866.675 537.745 865.331 539.946 864.81L543.973 863.857L545.418 869.957L541.391 870.91C539.19 871.431 537.784 870.493 537.352 868.667ZM555.166 874.837L548.238 845.581L540.101 847.507L542.656 858.296L541.784 858.503L533.417 849.088L524.325 851.24L533.628 861.09C529.584 863.449 528.294 867.26 529.198 871.078C530.437 876.307 535.073 879.592 542.338 877.873L555.166 874.837Z" fill="white"/>
<path d="M496.924 855.428L488.184 856.694L503.307 884.882L512.849 883.499L519.386 852.173L510.688 853.434L509.787 858.52L499.232 860.049L496.924 855.428ZM502.219 866.08L508.594 865.156L506.823 875.237L502.219 866.08Z" fill="white"/>
<path d="M461.879 858.382L452.039 858.928L463.133 873.262L454.345 888.911L463.844 888.384L468.242 879.854L474.366 887.8L484.206 887.254L473.297 873.167L482.198 857.255L472.699 857.782L468.186 866.532L461.879 858.382Z" fill="white"/>
<path d="M424.077 888.356L424.639 871.35L435.206 888.724L443.563 889L444.557 858.952L436.2 858.676L435.644 875.469L425.071 858.308L416.713 858.032L415.72 888.08L424.077 888.356Z" fill="white"/>
<path d="M403.586 856.822L395.285 855.809L393.858 867.492L385.049 866.416L384.278 872.724L393.087 873.799L392.446 879.048L380.503 877.59L379.696 884.193L399.939 886.665L403.586 856.822Z" fill="white"/>
<path d="M361.944 874.409L354.183 872.755L359.066 849.857L350.888 848.115L346.005 871.012L338.16 869.341L336.773 875.847L360.557 880.915L361.944 874.409Z" fill="white"/>
<path d="M279.525 824.432C272.73 821.664 266.728 825.988 263.959 832.781C260.497 841.271 264.277 849.627 273.837 853.522C286.361 858.624 299.499 853.523 304.571 841.083C308.194 832.198 304.484 824.009 295.16 820.21C291.921 818.891 288.597 818.227 285.523 818.31L284.791 823.722C287.12 823.658 289.818 824.159 292.505 825.253C298.945 827.877 301.152 833.197 298.656 839.318C295.114 848.006 285.571 852.315 276.642 848.678C270.005 845.974 267.472 840.659 269.823 834.894C271.305 831.261 273.885 827.983 276.374 828.997C277.757 829.56 277.52 830.707 276.567 832.253L271.147 840.913L277.231 843.392L278.528 841.341C278.548 843.099 279.623 844.643 281.875 845.56C287.13 847.701 292.906 843.929 295.225 838.243C296.883 834.175 295.519 830.856 291.647 829.279C288.881 828.152 286.083 828.347 283.863 829.838C283.878 827.541 282.409 825.607 279.525 824.432ZM281.872 836.303C282.79 834.052 285.118 832.974 286.896 833.698C288.279 834.262 288.683 835.531 288.087 836.992C287.169 839.243 284.95 840.504 283.054 839.731C281.671 839.168 281.26 837.803 281.872 836.303Z" fill="white"/>
<path d="M206.159 819.975C213.947 824.899 222.407 822.779 227.196 815.211C232.008 807.607 230.264 799.036 222.476 794.111C215.842 789.917 209.312 791.54 205.448 794.295L201.115 801.143L214.311 809.486L217.527 804.405L210.424 799.914C212.861 798.376 215.393 798.363 217.845 799.913C222.028 802.558 222.781 806.314 220.021 810.674C217.558 814.567 213.821 815.686 210.251 813.429C208.304 812.198 207.341 810.529 207.392 808.694L199.784 803.884C197.441 809.82 199.741 815.917 206.159 819.975Z" fill="white"/>
<path d="M204.212 782.413L197.568 777.338L187.413 790.621L193.025 773.868L187.466 769.622L172.881 779.359L182.957 766.178L176.313 761.103L158.051 784.991L166.051 791.102L183.779 780.063L177.915 800.165L185.949 806.301L204.212 782.413Z" fill="white"/>
<path d="M159.455 745.415L152.94 739.456L140.695 769.007L147.808 775.513L176.201 760.73L169.717 754.8L165.209 757.324L157.34 750.127L159.455 745.415ZM154.562 756.257L159.315 760.604L150.388 765.619L154.562 756.257Z" fill="white"/>
<path d="M139.403 725.014L133.756 718.849L111.571 739.15L117.218 745.315L139.403 725.014Z" fill="white"/>
<path d="M96.1259 720.769L120.019 702.507L109.265 688.449L104.181 692.334L109.856 699.753L91.0467 714.129L96.1259 720.769Z" fill="white"/>
<path d="M86.5482 661.432C84.4934 662.733 83.898 665.38 85.4724 667.867C87.0696 670.389 89.7186 670.984 91.7734 669.684C93.8282 668.384 94.3875 665.759 92.7903 663.237C91.2159 660.75 88.603 660.132 86.5482 661.432Z" fill="white"/>
<path d="M69.2798 654.277C77.2818 650.155 80.1783 641.995 76.0353 633.959C72.5763 627.249 66.2457 624.465 59.4938 626.264L63.6173 634.262C66.1158 634.175 68.1341 635.39 69.2675 637.589C71.0263 641 69.5246 644.604 65.3909 646.733C61.2951 648.843 57.4874 647.974 55.7286 644.562C54.5951 642.364 54.7764 640.015 56.2979 638.032L52.1745 630.034C46.7905 634.486 45.3846 641.255 48.8436 647.965C52.9865 656.001 61.3157 658.379 69.2798 654.277Z" fill="white"/>
<path d="M40.7417 592.369C32.3671 595.784 29.0593 604.502 32.2983 612.438C35.5211 620.336 44.0175 624.332 52.3921 620.918C60.7668 617.503 64.0818 608.69 60.859 600.793C57.6362 592.896 49.1164 588.955 40.7417 592.369ZM49.1693 613.021C44.7845 614.808 41.0524 613.567 39.4088 609.539C37.7813 605.551 39.5636 602.015 43.9484 600.227C48.2542 598.471 52.0419 599.737 53.6694 603.725C55.313 607.752 53.4752 611.265 49.1693 613.021Z" fill="white"/>
<path d="M52.5252 580.261L50.0635 572.273L34.0806 577.195L48.3805 566.812L46.3207 560.129L28.7897 559.592L44.6503 554.708L42.1886 546.72L13.4438 555.571L16.4079 565.189L37.2546 566.49L20.8038 579.453L23.7804 589.112L52.5252 580.261Z" fill="white"/>
<path d="M25.553 495.718C25.0864 491.908 21.8015 489.303 18.0326 489.764C14.2214 490.23 11.62 493.556 12.0867 497.366C12.5481 501.133 15.8753 503.733 19.6865 503.267C23.4554 502.805 26.0145 499.485 25.553 495.718Z" fill="white"/>
</g>
</svg>
