<svg width="512" height="166" viewBox="0 0 512 166" fill="none" xmlns="http://www.w3.org/2000/svg">
<path d="M49.7052 71.2204C47.0239 70.9036 44.5778 72.7606 44.1583 75.458L42.9578 84.5939C41.2718 83.9107 39.785 83.8278 38.8442 83.8699C26.6297 84.5203 12.787 108.374 11.3009 125.766C10.1056 139.638 16.6259 144.301 20.5601 145.895C23.473 147.018 26.5492 147.168 29.7344 146.669C35.5909 145.751 41.4882 142.406 44.5371 138.349C48.9339 132.818 51.6249 125.133 52.5099 122.047C53.3726 119.49 51.8944 116.775 49.3381 115.912C46.6951 115.168 43.9631 116.543 43.2192 119.186C41.9492 123.175 39.5689 128.811 36.8667 132.393C34.495 135.396 27.7657 138.135 24.1881 136.8C20.9348 135.52 20.6759 130.508 21.005 126.562C22.4849 109.802 35.3834 93.3599 39.1949 93.4997C39.211 93.6024 40.1618 94.2956 40.7957 97.6702C40.844 97.9784 40.8923 98.2866 41.0433 98.5788L40.7649 100.833C40.3453 103.53 42.2023 105.977 44.8837 106.293C45.4296 106.418 45.8406 106.354 46.3543 106.273C48.4092 105.952 50.0494 104.326 50.4467 102.158L53.8401 76.7835C54.2596 74.086 52.4027 71.64 49.7052 71.2204ZM87.2647 92.9164C82.5853 90.5968 76.7671 91.0872 71.2647 94.2652C66.4654 97.2277 62.1613 102.007 59.1806 107.843C56.2 113.679 54.8732 119.992 55.4342 125.589C56.0051 131.921 58.9998 136.926 63.5765 139.261C66.3161 140.622 69.3218 140.993 72.4042 140.51C74.7673 140.14 77.1689 139.343 79.5766 137.913C84.392 135.053 88.6799 130.17 91.6606 124.335C98.2669 111.404 96.3154 97.6041 87.2647 92.9164ZM82.9665 119.907C80.8907 124.127 77.7453 127.567 74.58 129.537C72.0695 130.983 69.7064 131.353 68.1069 130.551C66.5075 129.749 65.4342 127.601 65.0862 124.708C64.8149 120.961 65.7828 116.388 67.8747 112.271C70.0694 108.137 73.096 104.61 76.2774 102.743C77.6192 101.902 78.82 101.503 79.9502 101.326C81.0804 101.149 82.0373 101.209 82.837 101.611C86.3924 103.475 87.1504 111.672 82.9665 119.907ZM86.5883 143.025C78.0306 142.155 55.9883 145.924 53.5385 146.413C50.8671 146.832 49.0474 149.327 49.466 151.999C49.9872 154.654 52.6018 156.561 55.1544 156.055C61.5086 154.955 79.4892 152.138 85.5872 152.761C86.0143 152.8 86.4414 152.838 86.8524 152.774C89.0101 152.436 90.7369 150.691 90.9993 148.334C91.2133 145.669 89.2536 143.239 86.5883 143.025ZM108.651 70.8281C105.97 70.5113 103.54 72.4711 103.223 75.1524L95.8141 144.106C95.4973 146.787 97.457 149.217 100.138 149.534C100.565 149.573 100.976 149.508 101.387 149.444C103.545 149.106 105.272 147.361 105.55 145.107L112.959 76.1535C113.276 73.4721 111.332 71.1449 108.651 70.8281ZM126.463 68.0376C123.782 67.7208 121.352 69.6805 121.035 72.3618L113.626 141.315C113.309 143.997 115.269 146.427 117.95 146.744C118.378 146.782 118.789 146.718 119.2 146.653C121.357 146.315 123.084 144.571 123.362 142.317L130.771 73.3629C131.088 70.6816 129.144 68.3544 126.463 68.0376ZM169.246 80.3884C166.549 79.9689 164.087 81.7231 163.564 84.4367L162.546 90.7018C159.974 84.3675 156.7 78.2486 152.907 76.2111C151.189 75.3223 149.259 75.0984 147.457 75.6964C139.431 78.2171 128.986 118.382 128.164 127.248C127.847 129.929 127.24 136.13 131.714 138.482C132.529 138.986 133.907 139.717 136.168 139.363C140.175 138.735 146.868 134.423 157.766 117.978L155.719 129.773C155.181 132.384 156.951 134.949 159.648 135.369C160.194 135.494 160.724 135.516 161.238 135.435C163.293 135.113 164.949 133.591 165.346 131.423L173.192 86.0864C173.73 83.4756 171.96 80.9107 169.246 80.3884ZM137.874 127.411C139.081 117.642 145.876 95.8398 150.115 87.2807C151.879 90.4782 154.235 96.1094 156.109 102.027C149.711 112.924 142.346 123.026 137.874 127.411ZM212.72 72.6302C211.721 71.6287 210.051 71.0482 208.596 71.1708C206.715 71.2551 204.114 71.452 188.471 90.5352L194.787 58.2809C195.222 55.6862 193.555 53.1052 190.841 52.5829C188.23 52.0445 185.666 53.8148 185.127 56.4256L170.297 132.437C169.759 135.048 171.529 137.613 174.14 138.151C174.686 138.276 175.319 138.282 175.832 138.202C177.785 137.896 179.544 136.357 179.854 134.308L182.373 121.492C186.623 125.774 191.544 129.635 195.68 129.829C196.226 129.954 196.739 129.873 197.356 129.777C198.691 129.568 200.066 128.931 201.067 127.932C206.469 122.77 214.283 85.965 214.411 78.0497C214.446 76.2547 214.243 74.2864 212.72 72.6302ZM194.995 119.409C192.65 117.882 188.718 114.287 185.355 110.288C191.398 102.498 198.096 94.1854 203.18 88.336C201.161 98.9686 197.391 113.876 194.995 119.409ZM247.967 67.7397C243.288 65.42 237.469 65.9105 231.967 69.0884C227.168 72.051 222.864 76.8307 219.883 82.6664C216.902 88.5021 215.575 94.8155 216.136 100.412C216.707 106.744 219.702 111.749 224.279 114.085C227.018 115.445 230.024 115.816 233.106 115.333C235.47 114.963 237.871 114.166 240.279 112.736C245.094 109.876 249.382 104.994 252.363 99.1579C258.969 86.2276 257.018 72.4273 247.967 67.7397ZM243.669 94.7302C241.593 98.9504 238.448 102.391 235.282 104.36C232.772 105.806 230.409 106.177 228.809 105.374C227.21 104.572 226.136 102.425 225.788 99.5316C225.517 95.7844 226.485 91.2115 228.577 87.0941C230.772 82.9606 233.798 79.4337 236.98 77.5667C238.321 76.7249 239.522 76.3262 240.652 76.1492C241.783 75.9721 242.74 76.0327 243.539 76.4338C247.095 78.298 247.853 86.4954 243.669 94.7302ZM247.291 117.848C238.733 116.978 216.691 120.747 214.241 121.237C211.569 121.655 209.75 124.151 210.168 126.822C210.689 129.477 213.304 131.384 215.857 130.879C222.211 129.778 240.192 126.961 246.29 127.585C246.717 127.623 247.144 127.661 247.555 127.597C249.712 127.259 251.439 125.515 251.702 123.158C251.916 120.492 249.956 118.062 247.291 117.848ZM278.09 99.3381C278.62 99.3604 279.166 99.4854 279.679 99.4049C279.782 99.3888 279.885 99.3727 279.988 99.3566C282.042 99.0347 283.763 97.923 284.992 96.3619C294.784 82.9325 298.687 56.1091 293.438 50.8259C292.423 49.7217 290.65 49.1573 289.196 49.2799C287.417 49.3481 284.832 49.6478 272.913 65.6211L273.633 60.1396C273.95 57.4582 272.093 55.0122 269.514 54.6793C266.817 54.2597 264.268 56.1328 263.951 58.8141L260.689 83.0106C260.375 83.6915 260.282 84.4429 260.394 85.1622L255.355 121.532C255.038 124.214 256.895 126.66 259.577 126.977C260.02 127.118 260.533 127.037 260.944 126.973C263.102 126.635 264.742 125.009 265.037 122.858L267.774 103.375L281.272 114.946C282.358 115.828 283.79 116.235 285.228 116.01C286.359 115.833 287.322 115.261 288.134 114.397C289.915 112.328 289.637 109.214 287.569 107.433L278.09 99.3381ZM285.673 65.0957C284.902 72.2695 282.668 82.1989 277.81 89.4868C276.258 88.9929 273.368 87.3404 270.737 85.3313C275.817 78.1141 281.466 70.492 285.673 65.0957ZM333.91 54.5911C331.212 54.1715 328.75 55.9258 328.228 58.6393L327.209 64.9045C324.638 58.5701 321.364 52.4512 317.57 50.4138C315.852 49.525 313.922 49.301 312.121 49.899C304.095 52.4197 293.649 92.5844 292.828 101.45C292.511 104.132 291.903 110.333 296.377 112.684C297.193 113.188 298.571 113.92 300.831 113.566C304.838 112.938 311.532 108.626 322.43 92.181L320.383 103.976C319.844 106.587 321.615 109.152 324.312 109.571C324.858 109.696 325.388 109.718 325.902 109.638C327.956 109.316 329.613 107.793 330.01 105.626L337.855 60.2891C338.394 57.6783 336.623 55.1134 333.91 54.5911ZM302.538 101.613C303.745 91.845 310.54 70.0425 314.778 61.4833C316.542 64.6808 318.898 70.312 320.773 76.2292C314.374 87.1269 307.009 97.2286 302.538 101.613ZM377.647 53.0024C371.456 53.1301 365.551 53.7394 360.382 54.3388L361.136 47.0623C361.453 44.3809 359.494 41.951 356.812 41.6342C354.044 41.4362 351.717 43.3798 351.4 46.0612L350.415 55.9002C344.764 56.7855 341.114 57.6733 340.805 57.7216C338.182 58.4483 336.584 61.0146 337.208 63.6538C337.832 66.293 340.501 67.875 343.14 67.251C343.14 67.251 345.471 66.6752 349.257 65.9769L345.691 100.327C345.477 102.992 347.334 105.438 350.102 105.636C350.545 105.777 350.956 105.713 351.367 105.648C353.422 105.326 355.148 103.582 355.427 101.328L359.326 64.3994C364.788 63.649 371.206 62.9592 377.911 62.751C378.116 62.7188 378.322 62.6866 378.527 62.6544C380.993 62.2681 382.775 60.1994 382.697 57.6852C382.586 54.9655 380.367 52.8921 377.647 53.0024ZM415.239 41.5336C410.56 39.214 404.742 39.7044 399.239 42.8824C394.44 45.8449 390.136 50.6247 387.155 56.4603C384.175 62.296 382.848 68.6095 383.409 74.2061C383.98 80.538 386.975 85.5428 391.551 87.8786C394.291 89.2389 397.296 89.6102 400.379 89.1273C402.742 88.7571 405.144 87.9597 407.551 86.5298C412.367 83.6701 416.655 78.7875 419.635 72.9519C426.242 60.0215 424.29 46.2213 415.239 41.5336ZM410.941 68.5242C408.865 72.7443 405.72 76.1846 402.555 78.1543C400.044 79.6003 397.681 79.9705 396.082 79.1684C394.482 78.3663 393.409 76.2185 393.061 73.3255C392.79 69.5784 393.758 65.0054 395.849 60.888C398.044 56.7545 401.071 53.2276 404.252 51.3607C405.594 50.5188 406.795 50.1202 407.925 49.9431C409.055 49.766 410.012 49.8267 410.812 50.2277C414.367 52.0919 415.125 60.2894 410.941 68.5242ZM414.563 91.6422C406.005 90.7723 383.963 94.5414 381.513 95.0304C378.842 95.449 377.022 97.9447 377.441 100.616C377.962 103.271 380.576 105.178 383.129 104.673C389.483 103.572 407.464 100.755 413.562 101.378C413.989 101.417 414.416 101.455 414.827 101.391C416.985 101.053 418.712 99.3085 418.974 96.9514C419.188 94.2862 417.228 91.8562 414.563 91.6422ZM445.362 73.1321C445.892 73.1543 446.438 73.2793 446.952 73.1988C447.054 73.1827 447.157 73.1666 447.26 73.1505C449.315 72.8286 451.036 71.7169 452.265 70.1558C462.056 56.7265 465.959 29.9031 460.71 24.6198C459.695 23.5157 457.923 22.9512 456.468 23.0739C454.689 23.142 452.104 23.4417 440.185 39.415L440.905 33.9335C441.222 31.2522 439.365 28.8061 436.787 28.4732C434.089 28.0536 431.54 29.9267 431.224 32.6081L427.961 56.8046C427.647 57.4854 427.554 58.2369 427.667 58.9561L422.627 95.3264C422.311 98.0077 424.168 100.454 426.849 100.771C427.292 100.912 427.806 100.831 428.217 100.767C430.375 100.429 432.015 98.8033 432.309 96.6518L435.047 77.1693L448.544 88.7396C449.63 89.6222 451.062 90.0294 452.501 89.8041C453.631 89.627 454.594 89.0551 455.406 88.191C457.187 86.1223 456.91 83.0077 454.841 81.2264L445.362 73.1321ZM452.946 38.8897C452.175 46.0634 449.941 55.9929 445.082 63.2807C443.531 62.7868 440.64 61.1343 438.01 59.1253C443.09 51.908 448.738 44.2859 452.946 38.8897ZM507.264 62.3814C505.384 57.0967 498.361 56.618 487.803 55.7456C482.797 55.372 477.585 55.0305 473.542 54.0849C473.439 54.101 473.32 54.0144 473.217 54.0305C475.509 50.5134 483.881 44.149 489.649 39.9819L489.966 46.0378C490.179 48.7414 492.502 50.7987 495.119 50.7045C495.324 50.6723 495.53 50.6401 495.632 50.624C498.098 50.2377 499.863 48.0663 499.785 45.5521L498.625 26.0487C498.514 23.329 496.192 21.2717 493.472 21.382C490.871 21.5789 488.711 23.9174 488.924 26.6211L489.041 28.7082C488.543 28.8914 488.046 29.0746 487.667 29.3445C471.757 40.6795 461.437 48.7178 462.985 56.581C463.474 59.0308 465.357 62.3149 471.346 63.5873C476.157 64.7284 482.017 65.1788 487.126 65.5364C489.261 65.7282 492.029 65.9261 494.386 66.1885C487.087 71.3323 474.601 76.9728 469.641 78.9078C467.169 79.9267 465.927 82.753 466.962 85.3278C467.814 87.405 470.11 88.6242 472.268 88.2862C472.576 88.2379 472.987 88.1735 473.382 88.0064C474.275 87.656 495.647 78.939 504.362 70.7312C507.95 67.432 507.894 64.388 507.264 62.3814Z" fill="white"/>
</svg>
