<svg width="439" height="109" viewBox="0 0 439 109" fill="none" xmlns="http://www.w3.org/2000/svg">
<path d="M64.3374 5.15999C60.9874 4.222 57.5034 6.098 56.4314 9.44799L53.0814 20.838C51.0714 19.632 49.1954 19.23 47.9894 19.096C32.3114 17.488 9.93335 45.092 4.57335 66.934C0.285353 84.354 7.65535 91.59 12.3454 94.404C15.8294 96.414 19.7154 97.218 23.8694 97.218C31.5074 97.218 39.6814 94.136 44.3714 89.58C51.0714 83.416 56.0294 74.17 57.7714 70.418C59.3794 67.336 58.0394 63.584 54.9574 61.976C51.7414 60.502 47.9894 61.708 46.5154 64.924C44.1034 69.748 39.9494 76.448 35.7954 80.468C32.1774 83.818 23.0654 85.962 18.7774 83.55C14.8914 81.272 15.5614 74.84 16.7674 69.882C21.9934 48.844 41.6914 30.486 46.5154 31.424C46.5154 31.558 47.5874 32.63 47.7214 37.052C47.7214 37.454 47.7214 37.856 47.8554 38.258L47.0514 41.072C45.9794 44.422 47.8554 47.906 51.2054 48.844C51.8754 49.112 52.4114 49.112 53.0814 49.112C55.7614 49.112 58.1734 47.37 59.1114 44.69L68.4914 13.066C69.5634 9.716 67.6874 6.232 64.3374 5.15999ZM116.951 25.394C100.871 15.344 78.4932 22.312 66.9692 40.67C55.4452 59.162 59.1972 82.344 75.2772 92.394C80.2352 95.476 85.8632 96.95 91.6252 96.95C104.221 96.95 117.353 89.714 125.259 77.118C136.783 58.626 133.031 35.444 116.951 25.394ZM114.539 70.418C106.767 83.014 92.0272 87.972 81.8432 81.674C71.6592 75.376 69.7832 59.966 77.6892 47.37C83.1832 38.526 92.1612 33.434 100.469 33.434C103.953 33.434 107.303 34.238 110.251 36.114C120.435 42.412 122.311 57.822 114.539 70.418ZM100.201 41.608C96.8512 40.402 93.2332 42.144 92.1612 45.36L84.7912 65.996C83.5852 69.212 85.3272 72.83 88.6772 74.036C89.3472 74.304 90.0172 74.438 90.6872 74.438C93.3672 74.438 95.7792 72.83 96.7172 70.15L103.953 49.648C105.159 46.298 103.417 42.68 100.201 41.608ZM90.6872 14.942H115.745C119.229 14.942 122.043 12.128 122.043 8.644C122.043 5.15999 119.229 2.346 115.745 2.346H90.6872C87.2032 2.346 84.3892 5.15999 84.3892 8.644C84.3892 12.128 87.2032 14.942 90.6872 14.942ZM174.143 82.88C173.339 79.53 169.989 77.386 166.639 78.19C157.929 80.066 147.879 82.21 141.581 83.416C144.261 72.83 151.765 50.988 158.867 32.228C160.207 29.012 158.599 25.26 155.249 24.054C152.033 22.848 148.415 24.456 147.209 27.672C124.965 85.828 127.511 90.652 128.851 93.198C129.789 94.94 131.531 96.146 133.407 96.682C133.675 96.682 134.211 96.816 135.149 96.816C137.963 96.816 145.467 95.878 169.453 90.384C172.803 89.714 174.947 86.23 174.143 82.88ZM218.572 82.88C217.768 79.53 214.418 77.386 211.068 78.19C202.358 80.066 192.308 82.21 186.01 83.416C188.69 72.83 196.194 50.988 203.296 32.228C204.636 29.012 203.028 25.26 199.678 24.054C196.462 22.848 192.844 24.456 191.638 27.672C169.394 85.828 171.94 90.652 173.28 93.198C174.218 94.94 175.96 96.146 177.836 96.682C178.104 96.682 178.64 96.816 179.578 96.816C182.392 96.816 189.896 95.878 213.882 90.384C217.232 89.714 219.376 86.23 218.572 82.88ZM277.086 57.286C274.54 57.152 272.128 57.018 269.716 56.884C269.716 42.144 269.314 31.692 268.376 27.404C267.84 24.858 266.098 17.354 259.398 16.818C251.09 16.148 247.338 25.93 237.958 49.514C236.886 52.194 235.814 55.008 234.608 57.956C219.332 59.296 210.89 61.708 210.22 61.842C206.87 62.78 204.994 66.264 205.932 69.614C206.736 72.428 209.282 74.17 211.962 74.17C212.498 74.17 213.168 74.17 213.704 73.902C213.838 73.902 219.198 72.428 229.114 71.222C224.826 80.87 220.27 90.25 215.312 97.352C213.436 100.166 214.106 104.052 217.054 106.062C219.868 108.072 223.754 107.402 225.764 104.454C232.33 94.94 238.226 82.21 243.318 69.882C247.606 69.614 252.162 69.48 257.12 69.346C257.12 74.438 257.12 79.53 257.12 84.22C256.986 90.652 256.986 96.682 256.986 101.908C256.986 105.392 259.8 108.206 263.284 108.206C266.768 108.206 269.582 105.392 269.582 101.908C269.582 96.682 269.582 90.652 269.716 84.22C269.716 79.128 269.716 74.17 269.716 69.614C271.86 69.614 274.138 69.748 276.416 69.882C279.766 70.016 282.848 67.336 282.982 63.852C283.116 60.368 280.57 57.42 277.086 57.286ZM248.544 57.018C248.946 56.08 249.348 55.008 249.75 54.204C252.028 48.442 254.574 42.01 256.718 37.052C256.986 42.01 257.12 49.112 257.12 56.75C254.172 56.884 251.358 56.884 248.544 57.018ZM371.602 19.766C371.602 17.488 370.53 15.478 368.789 14.138C367.18 12.664 363.161 9.44799 326.712 15.344L328.588 9.314C329.526 5.964 327.65 2.48 324.3 1.54199C321.084 0.469999 317.466 2.346 316.528 5.69599L312.91 17.756C304.87 19.23 295.624 20.972 284.904 23.25C281.554 23.92 279.41 27.27 280.08 30.62C280.75 34.104 284.1 36.248 287.584 35.578C294.418 34.104 301.654 32.63 308.756 31.424L292.81 84.354C287.986 84.354 283.698 84.354 280.214 84.086C276.73 83.818 273.782 86.498 273.514 89.982C273.38 93.466 275.926 96.414 279.41 96.682C280.75 96.682 284.502 96.816 289.728 96.816C307.014 96.816 339.844 95.61 347.482 88.508C349.358 86.9 350.296 84.756 350.296 82.478C350.296 75.108 333.814 66.13 320.414 60.502C325.372 57.554 331.804 53.4 340.38 47.638C371.602 26.6 371.602 22.848 371.602 19.766ZM333.278 81.004C326.846 82.344 316.528 83.416 306.21 83.952L310.364 69.882C317.198 72.562 327.114 77.386 333.278 81.004ZM316.93 47.906L322.692 28.878C333.546 27.002 343.463 25.662 350.698 24.858C341.587 31.692 327.65 41.34 316.93 47.906ZM377.6 69.212C377.332 69.212 376.93 69.212 376.662 69.212C382.96 61.574 404.668 46.164 419.14 37.99C417.264 42.412 414.45 48.174 411.368 53.4C409.626 56.348 410.698 60.234 413.646 61.976C416.728 63.718 420.614 62.78 422.356 59.698C438.436 32.094 433.612 26.868 431.602 24.59C429.994 22.848 426.242 20.436 419.542 23.652C418.872 23.92 358.572 56.08 362.726 73.634C363.932 79.128 368.89 81.808 377.734 81.808C390.062 81.674 398.504 82.612 403.864 83.55C393.01 87.302 375.322 91.322 367.684 90.25C364.334 89.848 361.118 92.26 360.582 95.744C360.18 99.094 362.592 102.31 366.076 102.712C367.282 102.98 368.756 102.98 370.364 102.98C385.104 102.98 410.028 95.744 417.532 91.456C423.964 87.838 423.16 82.612 422.624 81.138C420.48 72.964 405.338 68.944 377.6 69.212Z" fill="#E5986E"/>
</svg>
