<svg width="617" height="253" viewBox="0 0 617 253" fill="none" xmlns="http://www.w3.org/2000/svg">
<path d="M64.4969 10.16C61.1469 9.222 57.6629 11.098 56.5909 14.448L53.2409 25.838C51.2309 24.632 49.3549 24.23 48.1489 24.096C32.4709 22.488 10.0929 50.092 4.73285 71.934C0.444853 89.354 7.81485 96.59 12.5049 99.404C15.9889 101.414 19.8749 102.218 24.0289 102.218C31.6669 102.218 39.8409 99.136 44.5309 94.58C51.2309 88.416 56.1889 79.17 57.9309 75.418C59.5389 72.336 58.1989 68.584 55.1169 66.976C51.9009 65.502 48.1489 66.708 46.6749 69.924C44.2629 74.748 40.1089 81.448 35.9549 85.468C32.3369 88.818 23.2249 90.962 18.9369 88.55C15.0509 86.272 15.7209 79.84 16.9269 74.882C22.1529 53.844 41.8509 35.486 46.6749 36.424C46.6749 36.558 47.7469 37.63 47.8809 42.052C47.8809 42.454 47.8809 42.856 48.0149 43.258L47.2109 46.072C46.1389 49.422 48.0149 52.906 51.3649 53.844C52.0349 54.112 52.5709 54.112 53.2409 54.112C55.9209 54.112 58.3329 52.37 59.2709 49.69L68.6509 18.066C69.7229 14.716 67.8469 11.232 64.4969 10.16ZM117.111 30.394C101.031 20.344 78.6527 27.312 67.1287 45.67C55.6047 64.162 59.3567 87.344 75.4367 97.394C80.3947 100.476 86.0227 101.95 91.7847 101.95C104.381 101.95 117.513 94.714 125.419 82.118C136.943 63.626 133.191 40.444 117.111 30.394ZM114.699 75.418C106.927 88.014 92.1867 92.972 82.0027 86.674C71.8187 80.376 69.9427 64.966 77.8487 52.37C83.3427 43.526 92.3207 38.434 100.629 38.434C104.113 38.434 107.463 39.238 110.411 41.114C120.595 47.412 122.471 62.822 114.699 75.418ZM100.361 46.608C97.0107 45.402 93.3927 47.144 92.3207 50.36L84.9507 70.996C83.7447 74.212 85.4867 77.83 88.8367 79.036C89.5067 79.304 90.1767 79.438 90.8467 79.438C93.5267 79.438 95.9387 77.83 96.8767 75.15L104.113 54.648C105.319 51.298 103.577 47.68 100.361 46.608ZM90.8467 19.942H115.905C119.389 19.942 122.203 17.128 122.203 13.644C122.203 10.16 119.389 7.346 115.905 7.346H90.8467C87.3627 7.346 84.5487 10.16 84.5487 13.644C84.5487 17.128 87.3627 19.942 90.8467 19.942ZM222.583 38.97C222.181 34.95 219.367 32.94 217.089 32.404C210.657 31.064 207.307 35.084 186.671 68.718C184.929 71.666 183.053 74.614 181.311 77.428C181.043 66.976 181.311 52.504 181.445 43.124C181.713 31.734 181.847 22.756 181.445 18.602C181.043 14.314 178.095 12.17 175.683 11.768C170.457 10.83 165.633 9.892 125.165 92.704C123.691 95.92 124.897 99.672 128.113 101.146C128.917 101.548 129.855 101.816 130.793 101.816C133.205 101.816 135.349 100.476 136.421 98.198C147.677 75.284 160.541 50.628 168.983 36.022C168.983 38.166 168.849 40.444 168.849 42.856C168.045 91.632 169.251 96.724 175.147 99.136C177.961 100.208 181.043 99.538 183.187 97.126C185.733 94.446 190.021 87.344 197.525 75.284C201.009 69.656 205.699 61.884 209.853 55.452C209.183 67.378 207.977 83.458 207.039 94.982C206.637 98.466 209.183 101.414 212.667 101.816C216.151 102.084 219.233 99.538 219.501 96.054C219.903 91.23 223.655 49.02 222.583 38.97ZM318.048 38.97C317.646 34.95 314.832 32.94 312.554 32.404C306.122 31.064 302.772 35.084 282.136 68.718C280.394 71.666 278.518 74.614 276.776 77.428C276.508 66.976 276.776 52.504 276.91 43.124C277.178 31.734 277.312 22.756 276.91 18.602C276.508 14.314 273.56 12.17 271.148 11.768C265.922 10.83 261.098 9.892 220.63 92.704C219.156 95.92 220.362 99.672 223.578 101.146C224.382 101.548 225.32 101.816 226.258 101.816C228.67 101.816 230.814 100.476 231.886 98.198C243.142 75.284 256.006 50.628 264.448 36.022C264.448 38.166 264.314 40.444 264.314 42.856C263.51 91.632 264.716 96.724 270.612 99.136C273.426 100.208 276.508 99.538 278.652 97.126C281.198 94.446 285.486 87.344 292.99 75.284C296.474 69.656 301.164 61.884 305.318 55.452C304.648 67.378 303.442 83.458 302.504 94.982C302.102 98.466 304.648 101.414 308.132 101.816C311.616 102.084 314.698 99.538 314.966 96.054C315.368 91.23 319.12 49.02 318.048 38.97ZM392.608 30.796L390.598 27.848H387.114C382.692 27.848 380.28 30.93 370.096 44.464C360.046 57.73 342.224 81.582 329.896 87.746C333.246 76.758 349.058 49.958 364.2 27.848C366.21 25.034 365.406 21.014 362.592 19.138C359.778 17.128 355.758 17.798 353.882 20.746C309.528 85.066 316.228 94.714 318.372 97.93C319.444 99.404 322.794 103.022 329.628 101.28C341.822 98.332 355.222 83.994 369.158 66.306C363.932 79.17 357.5 94.044 351.202 108.248C349.862 111.464 351.202 115.082 354.418 116.556C355.222 116.958 356.16 117.092 356.964 117.092C359.376 117.092 361.654 115.618 362.726 113.34C396.628 36.826 394.752 34.012 392.608 30.796ZM451.256 23.292C451.256 19.808 448.442 17.128 444.958 17.128H444.824C441.34 17.128 438.66 19.942 438.66 23.426C438.66 23.828 438.928 55.318 438.928 79.572C435.578 69.522 431.156 55.05 425.126 33.744C424.188 30.796 421.508 21.684 413.736 21.818C409.582 21.952 398.594 22.354 383.586 94.044C382.916 97.528 385.06 100.878 388.544 101.548C391.894 102.218 395.244 100.074 395.914 96.724C400.738 73.944 407.974 47.948 413.2 37.898C432.496 106.104 437.454 112.268 442.68 112.268C443.35 112.268 443.886 112.268 444.422 112.134C448.71 111.598 450.988 108.248 451.122 102.084C451.926 83.19 451.256 25.704 451.256 23.292ZM503.378 19.004L478.722 21.014C475.238 21.282 472.558 24.364 472.96 27.848C473.228 31.064 475.908 33.61 479.124 33.61C479.392 33.61 479.526 33.61 479.66 33.61L482.876 33.342L463.982 89.756H457.148C453.664 89.756 450.85 92.57 450.85 96.054C450.85 99.538 453.664 102.352 457.148 102.352H483.144C486.628 102.352 489.442 99.404 489.442 96.054C489.442 92.57 486.628 89.756 483.144 89.756H477.248L496.544 32.27L504.45 31.6C507.934 31.332 510.48 28.25 510.212 24.766C509.944 21.416 506.862 18.736 503.378 19.004ZM610.031 3.45999C577.201 0.913994 490.101 11.232 486.349 11.634C482.999 12.036 480.453 15.118 480.855 18.602C481.257 21.818 483.937 24.23 487.153 24.23C487.421 24.23 487.689 24.096 487.823 24.096C488.225 24.096 502.027 22.488 520.653 20.612L495.729 93.642C494.657 96.992 496.399 100.476 499.615 101.682C500.285 101.95 500.955 101.95 501.625 101.95C504.305 101.95 506.717 100.342 507.655 97.796L534.455 19.272C561.255 16.86 592.745 14.716 608.959 16.056C612.443 16.19 615.525 13.644 615.793 10.294C616.061 6.81 613.381 3.728 610.031 3.45999ZM585.42 35.218C582.338 33.61 578.586 34.548 576.71 37.496C566.794 52.236 547.096 78.366 533.428 87.344C534.232 77.428 542.004 53.71 550.312 33.878C551.652 30.662 550.044 27.044 546.828 25.704C543.612 24.364 539.994 25.838 538.654 29.054C513.596 89.354 521.77 96.858 524.45 99.27C526.326 101.012 530.346 103.29 536.912 99.94C544.148 96.054 552.456 88.282 560.228 79.572L554.198 94.178C513.06 121.514 511.988 122.586 511.586 123.122C509.308 125.266 508.638 128.482 509.71 131.296C511.184 135.048 515.338 137.728 518.822 138.264L537.448 144.026L538.788 144.294C539.056 144.294 539.324 144.428 539.592 144.428C544.148 144.428 548.302 141.614 550.044 137.326L565.052 100.878C565.052 100.744 565.052 100.744 565.186 100.61L588.502 43.794C589.842 40.578 588.502 36.826 585.42 35.218ZM538.922 131.296L526.862 127.678C531.82 124.328 538.654 119.772 545.622 115.082L538.922 131.296Z" fill="#E5986E"/>
<path d="M250.317 128.46C217.487 125.914 130.387 136.232 126.635 136.634C123.285 137.036 120.739 140.118 121.141 143.602C121.543 146.818 124.223 149.23 127.439 149.23C127.707 149.23 127.975 149.096 128.109 149.096C128.511 149.096 142.313 147.488 160.939 145.612L136.015 218.642C134.943 221.992 136.685 225.476 139.901 226.682C140.571 226.95 141.241 226.95 141.911 226.95C144.591 226.95 147.003 225.342 147.941 222.796L174.741 144.272C201.541 141.86 233.031 139.716 249.245 141.056C252.729 141.19 255.811 138.644 256.079 135.294C256.347 131.81 253.667 128.728 250.317 128.46ZM207.395 152.848C204.045 152.178 200.829 154.59 200.159 157.94L195.871 184.204L180.997 186.214L189.037 160.888C190.109 157.672 188.367 154.054 185.017 152.982C181.667 151.91 178.183 153.786 177.111 157.136L157.279 219.178C156.207 222.528 158.083 226.012 161.299 227.084C161.969 227.352 162.639 227.352 163.309 227.352C165.989 227.352 168.401 225.744 169.205 223.064L176.709 199.614L193.727 197.202L187.027 237.938C186.491 241.288 188.769 244.504 192.253 245.174C192.655 245.174 192.923 245.174 193.325 245.174C196.273 245.174 198.953 243.03 199.489 239.948L212.621 160.084C213.157 156.6 210.879 153.384 207.395 152.848ZM279.567 187.286C277.021 187.152 274.609 187.018 272.197 186.884C272.197 172.144 271.795 161.692 270.857 157.404C270.321 154.858 268.579 147.354 261.879 146.818C253.571 146.148 249.819 155.93 240.439 179.514C239.367 182.194 238.295 185.008 237.089 187.956C221.813 189.296 213.371 191.708 212.701 191.842C209.351 192.78 207.475 196.264 208.413 199.614C209.217 202.428 211.763 204.17 214.443 204.17C214.979 204.17 215.649 204.17 216.185 203.902C216.319 203.902 221.679 202.428 231.595 201.222C227.307 210.87 222.751 220.25 217.793 227.352C215.917 230.166 216.587 234.052 219.535 236.062C222.349 238.072 226.235 237.402 228.245 234.454C234.811 224.94 240.707 212.21 245.799 199.882C250.087 199.614 254.643 199.48 259.601 199.346C259.601 204.438 259.601 209.53 259.601 214.22C259.467 220.652 259.467 226.682 259.467 231.908C259.467 235.392 262.281 238.206 265.765 238.206C269.249 238.206 272.063 235.392 272.063 231.908C272.063 226.682 272.063 220.652 272.197 214.22C272.197 209.128 272.197 204.17 272.197 199.614C274.341 199.614 276.619 199.748 278.897 199.882C282.247 200.016 285.329 197.336 285.463 193.852C285.597 190.368 283.051 187.42 279.567 187.286ZM251.025 187.018C251.427 186.08 251.829 185.008 252.231 184.204C254.509 178.442 257.055 172.01 259.199 167.052C259.467 172.01 259.601 179.112 259.601 186.75C256.653 186.884 253.839 186.884 251.025 187.018ZM349.152 148.292C349.152 144.808 346.338 142.128 342.854 142.128H342.72C339.236 142.128 336.556 144.942 336.556 148.426C336.556 148.828 336.824 180.318 336.824 204.572C333.474 194.522 329.052 180.05 323.022 158.744C322.084 155.796 319.404 146.684 311.632 146.818C307.478 146.952 296.49 147.354 281.482 219.044C280.812 222.528 282.956 225.878 286.44 226.548C289.79 227.218 293.14 225.074 293.81 221.724C298.634 198.944 305.87 172.948 311.096 162.898C330.392 231.104 335.35 237.268 340.576 237.268C341.246 237.268 341.782 237.268 342.318 237.134C346.606 236.598 348.884 233.248 349.018 227.084C349.822 208.19 349.152 150.704 349.152 148.292ZM410.386 148.024C408.108 145.478 404.088 145.344 401.542 147.756L379.7 168.526L386.534 146.014C387.606 142.664 385.73 139.046 382.38 138.108C379.03 137.036 375.546 138.912 374.474 142.262L351.024 219.446C350.086 222.796 351.962 226.414 355.178 227.352C355.848 227.62 356.518 227.62 357.054 227.62C359.734 227.62 362.28 225.878 363.084 223.198L373.134 190.368L382.782 196.13L377.958 245.844C377.556 249.328 380.102 252.41 383.586 252.812C383.72 252.812 383.988 252.812 384.122 252.812C387.338 252.812 390.152 250.4 390.42 247.05L395.512 196.13C395.78 190.77 392.564 186.08 387.74 184.472L383.854 182.06L410.252 156.868C412.798 154.456 412.798 150.436 410.386 148.024ZM414.827 199.212C414.559 199.212 414.157 199.212 413.889 199.212C420.187 191.574 441.895 176.164 456.367 167.99C454.491 172.412 451.677 178.174 448.595 183.4C446.853 186.348 447.925 190.234 450.873 191.976C453.955 193.718 457.841 192.78 459.583 189.698C475.663 162.094 470.839 156.868 468.829 154.59C467.221 152.848 463.469 150.436 456.769 153.652C456.099 153.92 395.799 186.08 399.953 203.634C401.159 209.128 406.117 211.808 414.961 211.808C427.289 211.674 435.731 212.612 441.091 213.55C430.237 217.302 412.549 221.322 404.911 220.25C401.561 219.848 398.345 222.26 397.809 225.744C397.407 229.094 399.819 232.31 403.303 232.712C404.509 232.98 405.983 232.98 407.591 232.98C422.331 232.98 447.255 225.744 454.759 221.456C461.191 217.838 460.387 212.612 459.851 211.138C457.707 202.964 442.565 198.944 414.827 199.212Z" fill="white"/>
</svg>
