<svg width="320" height="135" viewBox="0 0 320 135" fill="none" xmlns="http://www.w3.org/2000/svg">
<path d="M49.239 41.3987C46.5577 41.0819 44.1116 42.9389 43.6921 45.6364L42.4917 54.7723C40.8056 54.089 39.3189 54.0061 38.378 54.0482C26.1635 54.6986 12.3208 78.5527 10.8347 95.9442C9.63946 109.816 16.1598 114.479 20.0939 116.074C23.0068 117.196 26.083 117.346 29.2682 116.847C35.1248 115.929 41.0221 112.584 44.0709 108.528C48.4678 102.996 51.1587 95.3113 52.0437 92.2251C52.9064 89.6688 51.4283 86.9529 48.8719 86.0901C46.2289 85.3463 43.4969 86.7217 42.753 89.3647C41.4831 93.3533 39.1028 98.9896 36.4005 102.571C34.0288 105.574 27.2996 108.313 23.7219 106.979C20.4686 105.699 20.2097 100.686 20.5388 96.7398C22.0187 79.9808 34.9172 63.5383 38.7288 63.678C38.7448 63.7807 39.6956 64.4739 40.3295 67.8485C40.3778 68.1567 40.4261 68.465 40.5772 68.7571L40.2987 71.0114C39.8792 73.7088 41.7362 76.1549 44.4175 76.4717C44.9634 76.5967 45.3744 76.5323 45.8881 76.4518C47.9431 76.1299 49.5833 74.5044 49.9805 72.3368L53.3739 46.9618C53.7935 44.2643 51.9365 41.8183 49.239 41.3987ZM86.7986 63.0948C82.1191 60.7751 76.3009 61.2655 70.7985 64.4435C65.9992 67.406 61.6952 72.1858 58.7145 78.0215C55.7338 83.8572 54.407 90.1706 54.968 95.7672C55.5389 102.099 58.5337 107.104 63.1103 109.44C65.8499 110.8 68.8556 111.171 71.938 110.688C74.3012 110.318 76.7027 109.521 79.1104 108.091C83.9258 105.231 88.2137 100.349 91.1944 94.513C97.8007 81.5827 95.8492 67.7824 86.7986 63.0948ZM82.5003 90.0853C80.4245 94.3055 77.2791 97.7458 74.1138 99.7154C71.6034 101.161 69.2402 101.532 67.6408 100.73C66.0414 99.9274 64.968 97.7797 64.62 94.8867C64.3488 91.1395 65.3166 86.5666 67.4086 82.4492C69.6032 78.3157 72.6298 74.7887 75.8112 72.9218C77.1531 72.08 78.3538 71.6813 79.484 71.5043C80.6143 71.3272 81.5712 71.3878 82.3709 71.7889C85.9263 73.653 86.6842 81.8505 82.5003 90.0853ZM86.1222 113.203C77.5644 112.333 55.5221 116.102 53.0723 116.592C50.4009 117.01 48.5813 119.506 48.9998 122.177C49.5211 124.833 52.1356 126.739 54.6882 126.234C61.0424 125.133 79.0231 122.316 85.1211 122.94C85.5482 122.978 85.9752 123.016 86.3862 122.952C88.5439 122.614 90.2707 120.87 90.5331 118.513C90.7471 115.847 88.7874 113.417 86.1222 113.203ZM131.072 50.053C128.336 50.0606 126.279 52.383 126.27 55.016C126.495 61.8233 126.895 75.1297 127.163 86.2462C124.45 80.3551 121.156 72.7655 117.193 63.5964C116.206 61.3298 115.522 59.6475 115.052 58.6683C113.747 55.7147 111.121 55.0736 109.271 55.3633C105.161 56.0072 102.49 56.4257 97.4463 114.271C97.1456 117.056 99.192 119.367 101.857 119.581C102.284 119.619 102.711 119.657 103.02 119.609C105.177 119.271 106.991 117.408 107.167 115.17C108.416 100.973 110.105 85.55 111.524 75.1167C127.144 110.987 128.377 110.794 132.779 109.999C134.628 109.709 136.814 108.209 137.051 105.014C137.556 98.8293 136.3 59.2345 136.122 54.7359C136.011 52.0162 133.792 49.9427 131.072 50.053ZM178.599 54.292C172.408 54.4197 166.503 55.029 161.333 55.6284L162.088 48.3518C162.405 45.6705 160.445 43.2405 157.764 42.9237C154.996 42.7258 152.669 44.6694 152.352 47.3508L151.367 57.1898C145.716 58.0751 142.065 58.9629 141.757 59.0111C139.134 59.7379 137.536 62.3042 138.16 64.9434C138.784 67.5826 141.453 69.1646 144.092 68.5406C144.092 68.5406 146.423 67.9648 150.209 67.2665L146.642 101.616C146.428 104.282 148.285 106.728 151.053 106.926C151.496 107.067 151.907 107.002 152.318 106.938C154.373 106.616 156.1 104.872 156.379 102.618L160.278 65.689C165.74 64.9386 172.158 64.2488 178.863 64.0406C179.068 64.0084 179.274 63.9762 179.479 63.944C181.945 63.5577 183.726 61.489 183.648 58.9748C183.538 56.2551 181.318 54.1817 178.599 54.292ZM220.555 42.4554C217.857 42.0358 215.395 43.7901 214.873 46.5036L213.854 52.7688C211.283 46.4344 208.008 40.3155 204.215 38.2781C202.497 37.3893 200.567 37.1653 198.766 37.7633C190.739 40.284 180.294 80.4487 179.473 89.3148C179.156 91.9961 178.548 98.1969 183.022 100.549C183.838 101.053 185.216 101.784 187.476 101.43C191.483 100.802 198.177 96.4902 209.075 80.0453L207.028 91.8403C206.489 94.4511 208.259 97.016 210.957 97.4355C211.503 97.5605 212.033 97.5828 212.546 97.5023C214.601 97.1803 216.258 95.6576 216.655 93.49L224.5 48.1534C225.039 45.5426 223.268 42.9777 220.555 42.4554ZM189.183 89.4778C190.389 79.7093 197.185 57.9068 201.423 49.3476C203.187 52.5451 205.543 58.1763 207.418 64.0935C201.019 74.9912 193.654 85.0929 189.183 89.4778ZM256.5 58.0882C256.943 58.2293 257.473 58.2516 257.987 58.1711C260.042 57.8492 261.682 56.2237 262.095 54.1588L266.458 27.5793C266.893 24.9846 265.123 22.4197 262.426 22.0002C259.831 21.5645 257.266 23.3348 256.847 26.0323L255.687 32.7406C255.26 32.7023 254.746 32.7827 254.248 32.966C245.297 35.6316 234.565 49.103 228.863 60.4178C225.151 67.6314 221.424 78.1105 224.453 86.6892C225.784 90.4808 228.408 93.1225 232.175 94.3219C234.731 95.1846 237.673 95.1449 240.755 94.662C252.365 92.843 266.099 83.7437 269.318 81.4497C271.504 79.9493 272.081 76.9114 270.581 74.7253C268.961 72.4526 265.924 71.8758 263.754 73.479C255.491 79.1948 240.678 86.7789 235.138 85.0151C234.473 84.8034 233.998 84.4568 233.632 83.4615C232.252 79.3616 233.618 72.6211 237.558 64.8455C242.04 55.8271 248.889 47.8064 253.797 44.1952L252.468 52.5091C252.048 55.2065 253.803 57.6687 256.5 58.0882ZM307.189 34.1462C300.998 34.2739 295.093 34.8832 289.923 35.4826L290.678 28.2061C290.995 25.5247 289.035 23.0947 286.354 22.7779C283.586 22.58 281.259 24.5236 280.942 27.205L279.957 37.044C274.306 37.9293 270.655 38.8171 270.347 38.8653C267.724 39.5921 266.126 42.1584 266.75 44.7976C267.374 47.4368 270.043 49.0188 272.682 48.3948C272.682 48.3948 275.013 47.819 278.799 47.1207L275.232 81.4706C275.018 84.1359 276.875 86.5819 279.643 86.7799C280.086 86.921 280.497 86.8566 280.908 86.7922C282.963 86.4703 284.69 84.726 284.969 82.4717L288.868 45.5432C294.329 44.7928 300.748 44.103 307.453 43.8948C307.658 43.8626 307.864 43.8304 308.069 43.7982C310.535 43.4119 312.316 41.3432 312.238 38.829C312.128 36.1093 309.908 34.0359 307.189 34.1462Z" fill="white"/>
</svg>
