<svg width="831" height="120" viewBox="0 0 831 120" fill="none" xmlns="http://www.w3.org/2000/svg">
<path d="M49.8354 7.95999C47.2354 7.232 44.5314 8.688 43.6994 11.288L41.0994 20.128C39.5394 19.192 38.0834 18.88 37.1474 18.776C24.9794 17.528 7.61141 38.952 3.45141 55.904C0.123407 69.424 5.84341 75.04 9.48341 77.224C12.1874 78.784 15.2034 79.408 18.4274 79.408C24.3554 79.408 30.6994 77.016 34.3394 73.48C39.5394 68.696 43.3874 61.52 44.7394 58.608C45.9874 56.216 44.9474 53.304 42.5554 52.056C40.0594 50.912 37.1474 51.848 36.0034 54.344C34.1314 58.088 30.9074 63.288 27.6834 66.408C24.8754 69.008 17.8034 70.672 14.4754 68.8C11.4594 67.032 11.9794 62.04 12.9154 58.192C16.9714 41.864 32.2594 27.616 36.0034 28.344C36.0034 28.448 36.8354 29.28 36.9394 32.712C36.9394 33.024 36.9394 33.336 37.0434 33.648L36.4194 35.832C35.5874 38.432 37.0434 41.136 39.6434 41.864C40.1634 42.072 40.5794 42.072 41.0994 42.072C43.1794 42.072 45.0514 40.72 45.7794 38.64L53.0594 14.096C53.8914 11.496 52.4354 8.792 49.8354 7.95999ZM100.891 29.904C98.3953 28.968 95.5873 30.216 94.6513 32.712C94.5473 32.712 94.5473 32.816 94.5473 33.024C94.1313 33.232 93.7153 33.648 93.4033 34.064C78.6353 53.928 59.9153 75.976 52.3233 81.176C51.8033 74.104 58.7713 54.136 68.7553 35.104C70.0033 32.712 69.0673 29.8 66.6753 28.552C64.2833 27.304 61.3713 28.24 60.1233 30.632C52.5313 44.984 35.9953 79.616 45.9793 90.224L46.8113 90.952C47.6433 91.472 48.6833 92.2 50.3473 92.2C54.7153 92.2 63.2433 87.416 83.1073 63.184C79.6753 72.752 76.5553 81.8 75.5153 85.96C74.8913 88.56 76.4513 91.264 79.0513 91.888C79.4673 91.992 79.8833 91.992 80.1953 91.992C82.4833 91.992 84.4593 90.536 84.9793 88.352C87.3713 78.576 103.595 36.664 103.699 36.248C104.739 33.752 103.491 30.84 100.891 29.904ZM142.986 40.72C136.85 39.888 130.922 39.576 125.722 39.368L127.594 32.296C128.322 29.696 126.762 26.992 124.162 26.264C121.458 25.64 118.858 27.2 118.13 29.8L115.634 39.368C109.914 39.368 106.17 39.68 105.858 39.68C103.154 39.992 101.178 42.28 101.386 44.984C101.594 47.688 103.986 49.664 106.69 49.456C106.69 49.456 109.082 49.248 112.93 49.144L104.09 82.528C103.466 85.128 104.922 87.832 107.626 88.456C108.042 88.664 108.458 88.664 108.874 88.664C110.954 88.664 112.93 87.208 113.554 85.024L123.122 49.144C128.634 49.248 135.082 49.56 141.738 50.392C141.946 50.392 142.154 50.392 142.362 50.392C144.858 50.392 146.938 48.624 147.25 46.128C147.562 43.424 145.69 41.032 142.986 40.72ZM243.188 2.75999C217.708 0.783994 150.108 8.792 147.196 9.104C144.596 9.41599 142.62 11.808 142.932 14.512C143.244 17.008 145.324 18.88 147.82 18.88C148.028 18.88 148.236 18.776 148.34 18.776C148.652 18.776 159.364 17.528 173.82 16.072L154.476 72.752C153.644 75.352 154.996 78.056 157.492 78.992C158.012 79.2 158.532 79.2 159.052 79.2C161.132 79.2 163.004 77.952 163.732 75.976L184.532 15.032C205.332 13.16 229.772 11.496 242.356 12.536C245.06 12.64 247.452 10.664 247.66 8.06399C247.868 5.36 245.788 2.968 243.188 2.75999ZM209.875 21.688C207.275 21.168 204.779 23.04 204.259 25.64L200.931 46.024L189.387 47.584L195.627 27.928C196.459 25.432 195.107 22.624 192.507 21.792C189.907 20.96 187.203 22.416 186.371 25.016L170.979 73.168C170.147 75.768 171.603 78.472 174.099 79.304C174.619 79.512 175.139 79.512 175.659 79.512C177.739 79.512 179.611 78.264 180.235 76.184L186.059 57.984L199.267 56.112L194.067 87.728C193.651 90.328 195.419 92.824 198.123 93.344C198.435 93.344 198.643 93.344 198.955 93.344C201.243 93.344 203.323 91.68 203.739 89.288L213.931 27.304C214.347 24.6 212.579 22.104 209.875 21.688ZM232.416 71.088C232.936 71.192 233.456 71.4 233.976 71.4C234.08 71.4 234.184 71.4 234.288 71.4C236.368 71.4 238.24 70.568 239.696 69.216C251.448 57.464 259.456 31.568 255.088 25.536C254.256 24.288 252.592 23.456 251.136 23.352C249.368 23.144 246.768 23.04 232.52 36.976L234.08 31.672C234.808 29.072 233.352 26.368 230.856 25.64C228.256 24.808 225.448 26.264 224.72 28.864L217.752 52.264C217.336 52.888 217.128 53.616 217.128 54.344L206.52 89.496C205.792 92.096 207.248 94.8 209.848 95.528C210.264 95.736 210.784 95.736 211.2 95.736C213.384 95.736 215.256 94.384 215.88 92.304L221.6 73.48L233.144 87C234.08 88.04 235.432 88.664 236.888 88.664C238.032 88.664 239.072 88.248 240.008 87.52C242.088 85.752 242.296 82.632 240.528 80.552L232.416 71.088ZM245.208 38.432C243.336 45.4 239.592 54.864 233.664 61.312C232.208 60.584 229.608 58.504 227.32 56.112C233.456 49.768 240.216 43.112 245.208 38.432ZM290.223 35.208C285.959 32.192 280.135 31.776 274.207 34.064C269.007 36.248 264.015 40.304 260.167 45.608C256.319 50.912 254.031 56.944 253.719 62.56C253.303 68.904 255.487 74.312 259.647 77.328C262.143 79.096 265.055 79.928 268.175 79.928C270.567 79.928 273.063 79.512 275.663 78.472C280.863 76.392 285.855 72.232 289.703 66.928C298.231 55.176 298.439 41.24 290.223 35.208ZM281.799 61.208C279.095 65.056 275.455 67.968 272.023 69.424C269.319 70.464 266.927 70.464 265.471 69.424C264.015 68.384 263.287 66.096 263.391 63.184C263.703 59.44 265.367 55.072 268.071 51.328C270.879 47.584 274.415 44.568 277.847 43.216C279.303 42.592 280.551 42.384 281.695 42.384C282.839 42.384 283.775 42.592 284.503 43.112C287.727 45.504 287.207 53.72 281.799 61.208ZM281.799 84.608C273.479 82.424 251.119 82.736 248.623 82.84C245.919 82.84 243.735 85.024 243.735 87.728C243.839 90.432 246.127 92.72 248.727 92.616C255.175 92.512 273.375 92.512 279.303 94.072C279.719 94.176 280.135 94.28 280.551 94.28C282.735 94.28 284.711 92.824 285.335 90.536C285.959 87.936 284.399 85.232 281.799 84.608ZM351.255 29.904C348.759 28.968 345.951 30.216 345.015 32.712C344.911 32.712 344.911 32.816 344.911 33.024C344.495 33.232 344.079 33.648 343.767 34.064C328.999 53.928 310.279 75.976 302.687 81.176C302.167 74.104 309.135 54.136 319.119 35.104C320.367 32.712 319.431 29.8 317.039 28.552C314.647 27.304 311.735 28.24 310.487 30.632C302.895 44.984 286.359 79.616 296.343 90.224L297.175 90.952C298.007 91.472 299.047 92.2 300.711 92.2C305.079 92.2 313.607 87.416 333.471 63.184C330.039 72.752 326.919 81.8 325.879 85.96C325.255 88.56 326.815 91.264 329.415 91.888C329.831 91.992 330.247 91.992 330.559 91.992C332.847 91.992 334.823 90.536 335.343 88.352C337.735 78.576 353.959 36.664 354.063 36.248C355.103 33.752 353.855 30.84 351.255 29.904ZM395.293 37.184L391.965 36.04C388.533 34.896 387.597 35.624 380.941 44.36C379.485 37.912 377.197 31.36 373.765 28.864C372.205 27.72 370.333 27.2 368.461 27.512C359.205 28.968 347.037 70.256 346.933 70.672C344.541 79.824 344.853 84.608 348.181 87.104C349.533 88.248 351.301 88.664 353.173 88.456C358.477 87.728 365.549 80.448 376.989 65.784L362.949 107.8L352.445 104.784L357.853 100C359.933 98.232 360.141 95.216 358.269 93.136C356.501 91.16 353.381 90.952 351.405 92.72L340.797 102.08C339.341 103.432 338.717 105.512 339.029 107.488C339.445 109.568 340.693 111.232 342.565 112.064L362.949 117.888C363.469 118.096 364.093 118.096 364.613 118.096C367.525 118.096 370.333 116.328 371.373 113.312L395.397 41.656L395.293 37.184ZM355.669 75.664C357.749 66.096 364.925 47.688 369.397 39.784C370.749 43.32 372.101 49.04 373.037 54.968C367.629 62.04 360.453 70.984 355.669 75.664ZM431.142 32.712C426.15 31.464 417.102 39.888 408.366 50.288C408.782 48.936 409.198 47.688 409.718 46.336L423.446 7.128C424.382 4.63199 423.03 1.82399 420.43 0.887993C417.934 0.0559974 415.126 1.30399 414.19 3.904C404.414 31.88 389.958 73.064 387.15 80.864C387.046 81.28 386.838 81.592 386.734 81.904C385.07 87 389.646 88.56 389.646 88.56C390.374 88.872 390.998 88.976 391.518 88.976C393.702 88.976 394.95 87.312 395.886 85.336L396.094 85.024C396.094 84.816 396.094 84.712 396.198 84.608C396.302 84.4 396.406 84.192 396.406 83.88C400.046 75.56 415.126 56.528 424.278 47.272C421.782 62.04 418.454 82.632 418.454 82.944C418.038 85.544 419.806 88.04 422.51 88.56C425.11 88.976 427.71 87.104 428.126 84.504C428.126 84.192 432.91 54.24 435.302 40.928C436.55 34.376 431.662 32.92 431.142 32.712ZM518.207 18.152C518.207 15.448 516.023 13.368 513.319 13.368H513.215C510.511 13.368 508.431 15.552 508.431 18.256C508.431 18.568 508.639 43.008 508.639 61.832C506.039 54.032 502.607 42.8 497.927 26.264C497.199 23.976 495.119 16.904 489.087 17.008C485.863 17.112 477.335 17.424 465.687 73.064C465.167 75.768 466.831 78.368 469.535 78.888C472.135 79.408 474.735 77.744 475.255 75.144C478.999 57.464 484.615 37.288 488.671 29.488C503.647 82.424 507.495 87.208 511.551 87.208C512.071 87.208 512.487 87.208 512.903 87.104C516.231 86.688 517.999 84.088 518.103 79.304C518.727 64.64 518.207 20.024 518.207 18.152ZM579.355 57.776C572.387 56.944 564.691 57.776 557.203 59.336C559.699 51.64 561.987 44.984 563.651 40.928C568.123 40.2 573.011 39.888 578.627 40.096C581.331 40.2 583.619 38.12 583.723 35.416C583.723 32.712 581.643 30.424 578.939 30.32C552.003 29.28 537.131 39.576 530.787 44.048L530.059 44.568C527.875 46.024 527.355 49.144 528.811 51.328C529.851 52.68 531.307 53.408 532.867 53.408C533.803 53.408 534.843 53.2 535.675 52.576L536.403 52.056C539.627 49.872 544.619 46.336 552.211 43.736C550.339 48.936 548.155 55.384 545.971 62.248C532.763 66.2 522.363 71.296 521.635 71.712C519.243 72.856 518.203 75.768 519.347 78.264C520.283 79.928 521.947 80.968 523.819 80.968C524.547 80.968 525.275 80.76 525.899 80.448C526.107 80.344 532.971 77.016 542.435 73.792C536.403 93.032 530.891 112.064 530.475 113.52C529.747 116.12 531.203 118.824 533.803 119.552C534.323 119.76 534.739 119.76 535.155 119.76C537.339 119.76 539.211 118.408 539.835 116.224C539.939 115.912 547.011 91.784 553.771 70.256C561.987 68.072 570.723 66.616 578.315 67.448C580.915 67.76 583.411 65.784 583.619 63.08C583.931 60.376 581.955 57.984 579.355 57.776ZM682.974 2.75999C657.494 0.783994 589.894 8.792 586.982 9.104C584.382 9.41599 582.406 11.808 582.718 14.512C583.03 17.008 585.11 18.88 587.606 18.88C587.814 18.88 588.022 18.776 588.126 18.776C588.438 18.776 599.15 17.528 613.606 16.072L594.262 72.752C593.43 75.352 594.782 78.056 597.278 78.992C597.798 79.2 598.318 79.2 598.838 79.2C600.918 79.2 602.79 77.952 603.518 75.976L624.318 15.032C645.118 13.16 669.558 11.496 682.142 12.536C684.846 12.64 687.238 10.664 687.446 8.06399C687.654 5.36 685.574 2.968 682.974 2.75999ZM686.683 21.688C684.083 21.168 681.587 23.04 681.067 25.64L677.739 46.024L666.195 47.584L672.435 27.928C673.267 25.432 671.915 22.624 669.315 21.792C666.715 20.96 664.011 22.416 663.179 25.016L647.787 73.168C646.955 75.768 648.411 78.472 650.907 79.304C651.427 79.512 651.947 79.512 652.467 79.512C654.547 79.512 656.419 78.264 657.043 76.184L662.867 57.984L676.075 56.112L670.875 87.728C670.459 90.328 672.227 92.824 674.931 93.344C675.243 93.344 675.451 93.344 675.763 93.344C678.051 93.344 680.131 91.68 680.547 89.288L690.739 27.304C691.155 24.6 689.387 22.104 686.683 21.688ZM746.025 36.456C746.025 36.248 746.025 36.144 745.921 35.936C745.921 35.832 745.921 35.624 745.817 35.52C745.817 35.312 745.713 35.208 745.713 35.104C745.609 34.896 745.505 34.792 745.505 34.688C745.401 34.48 745.297 34.376 745.193 34.272C745.089 34.064 745.089 33.96 744.985 33.856C744.881 33.752 744.777 33.648 744.673 33.544C744.465 33.44 744.361 33.232 744.257 33.128C744.153 33.128 744.153 33.128 744.049 33.024C744.049 33.024 743.945 32.92 743.841 32.92C743.737 32.816 743.633 32.712 743.425 32.608C743.321 32.608 743.113 32.504 743.009 32.4C742.905 32.4 742.801 32.4 742.697 32.296H742.593C742.385 32.192 742.177 32.192 742.073 32.192C741.865 32.192 741.761 32.088 741.553 32.088C741.449 32.088 741.241 32.088 741.137 32.088C740.929 32.088 740.825 32.088 740.617 32.088C740.513 32.192 740.305 32.192 740.201 32.192C739.993 32.192 739.889 32.296 739.681 32.296C739.577 32.4 739.473 32.4 739.265 32.504C739.161 32.504 739.057 32.608 738.849 32.712C738.745 32.712 738.641 32.816 738.433 32.92C738.329 33.024 738.225 33.128 738.121 33.232C737.913 33.336 737.809 33.44 737.705 33.544C737.601 33.648 737.497 33.752 737.393 33.856C737.393 33.96 737.289 33.96 737.289 34.064C722.521 53.928 703.801 75.976 696.209 81.176C695.689 74.104 702.657 54.136 712.641 35.208C713.889 32.816 712.953 29.8 710.561 28.552C708.169 27.304 705.257 28.24 704.009 30.632C696.417 44.984 679.881 79.616 689.865 90.224L690.697 90.952C691.529 91.472 692.569 92.2 694.233 92.2C698.601 92.2 707.233 87.416 727.305 62.872L712.225 107.8L701.721 104.784L707.129 100.104C709.105 98.232 709.313 95.216 707.545 93.136C705.777 91.16 702.657 90.952 700.577 92.72L690.073 102.08C688.617 103.432 687.889 105.512 688.305 107.592C688.617 109.568 689.969 111.232 691.841 112.064L712.121 117.992C712.745 118.096 713.265 118.2 713.889 118.2C716.801 118.2 719.505 116.328 720.649 113.312L745.817 38.536C745.817 38.432 745.817 38.432 745.921 38.328C745.921 38.12 745.921 38.016 746.025 37.808C746.025 37.704 746.025 37.496 746.025 37.392C746.025 37.184 746.025 37.08 746.025 36.872C746.025 36.768 746.025 36.56 746.025 36.456ZM787.913 34.584C787.081 33.44 785.625 32.608 784.169 32.504C782.089 32.296 779.177 31.984 756.817 52.576C758.689 46.752 760.457 42.072 761.705 39.264C762.849 36.768 761.705 33.856 759.209 32.816C756.713 31.672 753.905 32.816 752.761 35.208C746.313 49.872 728.529 110.92 727.801 113.52C727.073 116.12 728.529 118.824 731.129 119.552C731.649 119.76 732.065 119.76 732.481 119.76C734.665 119.76 736.537 118.408 737.161 116.224C737.265 115.912 742.985 96.152 749.121 76.392C752.865 81.8 757.753 87.52 762.225 88.456C762.849 88.664 763.369 88.664 763.889 88.664C765.345 88.664 766.697 88.248 767.841 87.416C774.081 83.152 787.393 48 788.745 40.2C789.057 38.432 789.265 36.456 787.913 34.584ZM763.161 78.056C761.185 76.184 757.857 72.024 755.049 67.552C762.329 60.792 770.129 53.616 776.057 48.624C772.417 58.816 766.489 72.96 763.161 78.056ZM819.926 47.584C820.654 50.184 823.254 51.64 825.958 50.912C828.558 50.184 830.014 47.48 829.286 44.88C826.374 34.168 822.942 32.712 820.238 32.608C811.918 32.192 792.678 47.064 789.142 50.808C788.518 51.432 786.854 53.304 787.166 55.8C787.686 59.856 790.598 60.688 804.326 65.056C804.742 65.16 805.158 65.264 805.678 65.472C805.054 65.784 804.534 66.096 804.014 66.304C786.438 75.976 782.694 78.368 782.694 82.632C782.694 84.088 783.318 85.544 784.462 86.584C785.502 87.624 787.374 89.392 803.494 89.392C808.174 89.392 814.102 89.184 821.59 88.872C824.294 88.664 826.374 86.376 826.27 83.776C826.166 81.072 823.774 78.888 821.174 79.096C814.206 79.408 806.51 79.616 800.478 79.512C803.39 77.848 806.406 76.184 808.694 74.936C820.758 68.28 822.214 67.448 821.59 63.496C820.966 59.96 819.198 59.44 807.238 55.696C805.366 55.072 802.974 54.344 800.79 53.616C805.99 49.56 813.998 44.256 818.158 42.8C818.782 44.048 819.406 45.92 819.926 47.584Z" fill="white"/>
</svg>
