<svg width="220" height="119" viewBox="0 0 220 119" fill="none" xmlns="http://www.w3.org/2000/svg">
<path d="M63.839 35.9459C59.4068 25.7976 42.1539 25.8689 8.18209 36.1388C5.57507 36.9683 4.11195 39.724 4.82262 42.2443C5.65213 44.8514 8.4078 46.3145 11.0309 45.5877C14.6332 44.3917 17.9595 43.4495 20.9936 42.6584C9.58186 90.7644 11.9587 92.4974 14.5894 94.5064C15.7778 95.3729 17.194 95.6774 18.5297 95.4682C19.1462 95.3716 19.8493 95.1561 20.4175 94.7513C21.0018 94.4492 72.1214 54.5441 63.839 35.9459ZM23.0574 80.0212C24.7938 70.275 28.2458 54.6808 31.756 40.1301C52.6581 35.8028 54.8753 39.8767 54.8753 39.8767C57.8255 45.9411 36.0799 68.4016 23.0574 80.0212ZM90.8504 52.2415C91.9721 54.6975 94.7661 55.7335 97.3248 54.5958C99.7808 53.4741 100.801 50.5773 99.6791 48.1214C95.1442 37.9892 91.5282 37.0819 88.8407 37.3977C80.5566 38.2745 63.8503 55.9452 60.9364 60.1914C60.4165 60.9044 59.0623 63.0114 59.7569 65.4291C60.8984 69.3557 63.9041 69.727 78.1427 71.9175C78.5698 71.9559 78.9969 71.9942 79.5428 72.1192C78.9746 72.5241 78.5092 72.9128 78.0276 73.1988C62.1605 85.4746 58.8318 88.4173 59.4918 92.6299C59.7172 94.0683 60.559 95.4102 61.8502 96.2606C63.0386 97.1271 65.1617 98.5841 81.0875 96.089C85.7111 95.3646 91.5354 94.2416 98.8849 92.7744C101.524 92.1504 103.225 89.568 102.72 87.0154C102.198 84.3601 99.4973 82.5727 96.9608 83.1806C90.125 84.5673 82.554 85.964 76.5786 86.7949C79.1979 84.7002 81.92 82.5895 83.9873 81.0024C94.8757 72.5593 96.1854 71.512 94.9572 67.7042C93.7934 64.3074 91.9663 64.0673 79.5709 62.2196C77.6249 61.8929 75.149 61.5439 72.8787 61.1627C77.3882 56.3507 84.4788 49.8711 88.3633 47.7888C89.1729 48.9252 90.0791 50.678 90.8504 52.2415ZM158.151 40.0134L156.352 38.6109L154.092 38.965C150.496 39.5284 149.504 41.2628 141.315 62.231C140.946 63.2362 140.594 64.3442 140.122 65.3655C139.897 63.927 139.655 62.3858 139.549 61.034C136.316 38.3814 135.611 35.2285 132.996 33.3222L131.111 32.0385L129.159 32.3444C126.898 32.6985 125.152 32.9722 116.143 52.0687L117.467 39.0185C117.784 36.3371 115.84 34.0099 113.159 33.6931C110.375 33.3924 108.047 35.336 107.747 38.1201L102.991 85.7097C102.675 88.391 104.634 90.821 107.316 91.1378C107.743 91.1761 108.154 91.1117 108.565 91.0474C110.722 90.7093 112.449 88.965 112.728 86.7108L113.073 82.867C118.267 71.0001 123.98 58.4201 128.045 50.0987C128.673 54.1058 129.279 58.6428 129.858 62.3416C132.506 81.9279 132.985 83.6424 135.259 85.3915L137.026 86.5885L139.08 86.2665C142.677 85.7032 143.43 83.7955 150.394 65.7562C151.007 64.2918 151.69 62.6057 152.357 60.8169C152.99 69.5603 153.464 80.6446 153.84 91.1124C153.951 93.8321 156.17 95.9056 158.89 95.7953C159.112 95.8658 159.317 95.8336 159.523 95.8014C161.886 95.4312 163.754 93.2437 163.573 90.7456C162.019 43.1972 160.085 41.6053 158.151 40.0134ZM200.787 22.4912C196.107 20.1715 190.289 20.6619 184.787 23.8399C179.987 26.8024 175.683 31.5822 172.703 37.4179C169.722 43.2535 168.395 49.567 168.956 55.1636C169.527 61.4955 172.522 66.5003 177.098 68.8361C179.838 70.1965 182.844 70.5677 185.926 70.0848C188.289 69.7146 190.691 68.9173 193.099 67.4874C197.914 64.6276 202.202 59.7451 205.183 53.9094C211.789 40.9791 209.837 27.1788 200.787 22.4912ZM196.488 49.4817C194.413 53.7018 191.267 57.1421 188.102 59.1118C185.592 60.5578 183.228 60.928 181.629 60.1259C180.029 59.3238 178.956 57.1761 178.608 54.2831C178.337 50.5359 179.305 45.963 181.397 41.8456C183.591 37.7121 186.618 34.1851 189.799 32.3182C191.141 31.4764 192.342 31.0777 193.472 30.9006C194.602 30.7236 195.559 30.7842 196.359 31.1852C199.914 33.0494 200.672 41.2469 196.488 49.4817ZM200.11 72.5997C191.553 71.7298 169.51 75.4989 167.06 75.988C164.389 76.4065 162.569 78.9022 162.988 81.5736C163.509 84.2289 166.124 86.1352 168.676 85.6301C175.031 84.5293 193.011 81.7123 199.109 82.336C199.536 82.3743 199.963 82.4127 200.374 82.3483C202.532 82.0103 204.259 80.266 204.521 77.909C204.735 75.2437 202.776 72.8138 200.11 72.5997Z" fill="white"/>
</svg>
