<svg width="1091" height="423" viewBox="0 0 1091 423" fill="none" xmlns="http://www.w3.org/2000/svg">
<g filter="url(#filter0_d_657_5416)">
<path d="M116.149 81.96H77.7992V174H116.149C145.529 174 163.989 153.98 163.989 127.72C163.989 101.2 145.529 81.96 116.149 81.96ZM106.659 148.26V107.18H113.549C126.289 107.18 134.739 114.33 134.739 127.72C134.739 141.11 126.289 148.26 113.549 148.26H106.659ZM171.811 174H200.671V81.96H171.811V174ZM255.045 81.05C226.185 81.05 208.505 100.42 208.505 127.85C208.505 155.28 226.315 174.65 255.305 174.65C279.095 174.65 292.095 160.74 298.465 149.69V120.83H251.535V141.24H274.545C270.255 146.96 264.925 149.3 258.425 149.3C244.255 149.3 237.755 142.15 237.755 127.85C237.755 115.63 243.995 107.7 255.175 107.7C261.155 107.7 265.315 109.91 267.525 113.42H297.945C295.215 93.79 279.485 81.05 255.045 81.05ZM306.259 174H335.119V81.96H306.259V174ZM340.354 104.84H364.534V174H393.394V104.84H417.834V81.96H340.354V104.84ZM486.631 174H517.051L483.511 81.96H450.231L416.561 174H446.851L451.401 160.09H482.081L486.631 174ZM475.061 138.38H458.421L466.741 112.77L475.061 138.38ZM521.008 81.96V174H577.688V152.16H549.868V81.96H521.008ZM667.229 174H697.649L664.109 81.96H630.829L597.159 174H627.449L631.999 160.09H662.679L667.229 174ZM655.659 138.38H639.019L647.339 112.77L655.659 138.38ZM701.086 133.83C701.086 161 717.986 174.91 740.996 174.91C764.006 174.91 782.596 161 782.596 133.83V81.96H753.866V133.83C753.866 141.76 750.356 147.61 741.646 147.61C732.936 147.61 729.816 141.76 729.816 133.83V81.96H701.086V133.83ZM830.794 81.96H792.444V174H830.794C860.174 174 878.634 153.98 878.634 127.72C878.634 101.2 860.174 81.96 830.794 81.96ZM821.304 148.26V107.18H828.194C840.934 107.18 849.384 114.33 849.384 127.72C849.384 141.11 840.934 148.26 828.194 148.26H821.304ZM886.455 174H915.315V81.96H886.455V174ZM1017.79 127.59C1017.79 99.9 996.86 80.4 970.6 80.4C944.47 80.4 923.15 99.9 923.15 127.59C923.15 155.28 944.47 174.91 970.6 174.91C996.6 174.91 1017.79 155.28 1017.79 127.59ZM952.53 127.59C952.53 115.11 958.77 107.05 970.6 107.05C982.17 107.05 988.54 115.11 988.54 127.59C988.54 139.81 982.17 148 970.6 148C958.77 148 952.53 139.81 952.53 127.59ZM98.6551 347.85C98.6551 375.28 115.945 394.65 144.155 394.65C168.465 394.65 184.975 380.09 188.745 358.38H158.325C155.595 364.49 150.135 368 143.635 368C133.885 368 127.905 360.07 127.905 347.85C127.905 335.63 133.885 327.7 143.635 327.7C150.135 327.7 155.595 331.21 158.325 337.32H188.745C184.975 315.61 168.465 301.05 144.155 301.05C115.945 301.05 98.6551 320.42 98.6551 347.85ZM288.576 347.59C288.576 319.9 267.646 300.4 241.386 300.4C215.256 300.4 193.936 319.9 193.936 347.59C193.936 375.28 215.256 394.91 241.386 394.91C267.386 394.91 288.576 375.28 288.576 347.59ZM223.316 347.59C223.316 335.11 229.556 327.05 241.386 327.05C252.956 327.05 259.326 335.11 259.326 347.59C259.326 359.81 252.956 368 241.386 368C229.556 368 223.316 359.81 223.316 347.59ZM296.387 301.96V394H353.067V372.16H325.247V301.96H296.387ZM359.549 301.96V394H416.229V372.16H388.409V301.96H359.549ZM484.071 301.96H422.711V394H484.071V370.99H451.571V357.99H480.171V336.28H451.571V324.97H484.071V301.96ZM489.747 347.85C489.747 375.28 507.037 394.65 535.247 394.65C559.557 394.65 576.067 380.09 579.837 358.38H549.417C546.687 364.49 541.227 368 534.727 368C524.977 368 518.997 360.07 518.997 347.85C518.997 335.63 524.977 327.7 534.727 327.7C541.227 327.7 546.687 331.21 549.417 337.32H579.837C576.067 315.61 559.557 301.05 535.247 301.05C507.037 301.05 489.747 320.42 489.747 347.85ZM582.428 324.84H606.608V394H635.468V324.84H659.908V301.96H582.428V324.84ZM665.135 394H693.995V301.96H665.135V394ZM754.09 364.49C754.09 369.04 751.62 370.86 746.42 370.86H733.29V357.86H746.42C751.62 357.86 754.09 360.07 754.09 364.49ZM752.14 331.47C752.14 335.89 749.67 337.84 744.47 337.84H733.29V324.84H744.47C749.67 324.84 752.14 326.92 752.14 331.47ZM783.6 368.78C783.6 358.51 777.36 349.54 766.05 346.81C775.15 344.47 781.52 336.93 781.52 325.88C781.52 309.89 769.69 301.96 751.36 301.96H704.43V394H752.66C772.68 394 783.6 384.9 783.6 368.78ZM790.697 301.96V394H847.377V372.16H819.557V301.96H790.697ZM915.219 301.96H853.859V394H915.219V370.99H882.719V357.99H911.319V336.28H882.719V324.97H915.219V301.96ZM994.605 365.53C994.605 337.19 951.835 339.14 951.835 327.57C951.835 324.45 953.655 322.89 955.995 322.89C959.115 322.89 962.105 324.58 962.365 330.17H993.435C992.655 311.06 978.355 300.4 956.125 300.4C936.495 300.4 920.895 310.02 920.895 328.48C920.375 359.94 963.795 355.39 963.925 367.87C963.925 371.12 961.195 372.42 958.335 372.42C955.475 372.42 951.835 371.25 951.315 364.49H920.635C921.935 385.16 938.445 394.91 959.505 394.91C981.735 394.91 994.605 382.43 994.605 365.53Z" fill="#E5986E"/>
<path d="M75.3145 284H111.194L121.854 231.74L132.514 284H168.394L189.454 191.96H158.384L150.064 249.94L137.584 191.96H106.124L93.6445 249.94L85.3245 191.96H54.2545L75.3145 284ZM289.244 237.59C289.244 209.9 268.314 190.4 242.054 190.4C215.924 190.4 194.604 209.9 194.604 237.59C194.604 265.28 215.924 284.91 242.054 284.91C268.054 284.91 289.244 265.28 289.244 237.59ZM223.984 237.59C223.984 225.11 230.224 217.05 242.054 217.05C253.624 217.05 259.994 225.11 259.994 237.59C259.994 249.81 253.624 258 242.054 258C230.224 258 223.984 249.81 223.984 237.59ZM345.675 223.94C345.675 229.4 342.815 231.74 337.355 231.74H325.915V216.14H337.355C342.815 216.14 345.675 219.26 345.675 223.94ZM297.055 191.96V284H325.915V250.98H326.045L343.335 284H375.055L355.035 248.77C368.165 244.48 374.925 234.21 374.925 222.12C374.925 205.22 363.095 191.96 339.955 191.96H297.055ZM437.185 284H471.505L437.705 236.03L469.425 191.96H436.795L410.405 230.7V191.96H381.545V284H410.405V244.09L437.185 284ZM548.189 255.53C548.189 227.19 505.419 229.14 505.419 217.57C505.419 214.45 507.239 212.89 509.579 212.89C512.699 212.89 515.689 214.58 515.949 220.17H547.019C546.24 201.06 531.94 190.4 509.71 190.4C490.079 190.4 474.479 200.02 474.479 218.48C473.959 249.94 517.38 245.39 517.51 257.87C517.51 261.12 514.779 262.42 511.92 262.42C509.059 262.42 505.419 261.25 504.899 254.49H474.219C475.519 275.16 492.029 284.91 513.09 284.91C535.32 284.91 548.189 272.43 548.189 255.53ZM550.529 214.84H574.709V284H603.569V214.84H628.009V191.96H550.529V214.84ZM696.807 284H727.227L693.687 191.96H660.407L626.737 284H657.027L661.577 270.09H692.257L696.807 284ZM685.237 248.38H668.597L676.917 222.77L685.237 248.38ZM725.984 214.84H750.164V284H779.024V214.84H803.464V191.96H725.984V214.84ZM808.691 284H837.551V191.96H808.691V284ZM940.026 237.59C940.026 209.9 919.096 190.4 892.836 190.4C866.706 190.4 845.386 209.9 845.386 237.59C845.386 265.28 866.706 284.91 892.836 284.91C918.836 284.91 940.026 265.28 940.026 237.59ZM874.766 237.59C874.766 225.11 881.006 217.05 892.836 217.05C904.406 217.05 910.776 225.11 910.776 237.59C910.776 249.81 904.406 258 892.836 258C881.006 258 874.766 249.81 874.766 237.59ZM1007.25 191.96V239.02L976.697 191.96H947.837V284H976.697V237.72L1007.25 284H1036.11V191.96H1007.25Z" fill="white"/>
</g>
<defs>
<filter id="filter0_d_657_5416" x="0.253906" y="0.400391" width="1089.85" height="422.51" filterUnits="userSpaceOnUse" color-interpolation-filters="sRGB">
<feFlood flood-opacity="0" result="BackgroundImageFix"/>
<feColorMatrix in="SourceAlpha" type="matrix" values="0 0 0 0 0 0 0 0 0 0 0 0 0 0 0 0 0 0 127 0" result="hardAlpha"/>
<feOffset dy="-26"/>
<feGaussianBlur stdDeviation="27"/>
<feComposite in2="hardAlpha" operator="out"/>
<feColorMatrix type="matrix" values="0 0 0 0 0 0 0 0 0 0 0 0 0 0 0 0 0 0 0.3 0"/>
<feBlend mode="normal" in2="BackgroundImageFix" result="effect1_dropShadow_657_5416"/>
<feBlend mode="normal" in="SourceGraphic" in2="effect1_dropShadow_657_5416" result="shape"/>
</filter>
</defs>
</svg>
