<svg width="300" height="250" viewBox="0 0 300 250" fill="none" xmlns="http://www.w3.org/2000/svg">
<g clip-path="url(#clip0_752_5690)">
<path opacity="0.2" d="M19 136.004V126.996C19 126.235 19.7507 125.756 20.3575 126.13L27.5369 130.555C28.149 130.932 28.1557 131.893 27.5489 132.28L20.3695 136.863C19.7626 137.25 19 136.772 19 136.004Z" fill="white"/>
<g opacity="0.5">
<path opacity="0.5" d="M59.5703 127.382V135.881H64.799V133.865H62.2327V127.382H59.5703Z" fill="white"/>
<path opacity="0.5" d="M72.4254 132.496C72.4254 130.335 70.8899 129.027 68.8514 129.027C66.8124 129.027 65.2773 130.335 65.2773 132.496C65.2773 134.657 66.8124 135.965 68.8514 135.965C70.8899 135.965 72.4254 134.657 72.4254 132.496ZM67.976 132.496C67.976 131.692 68.3837 131.331 68.8514 131.331C69.3191 131.331 69.7268 131.692 69.7268 132.496C69.7268 133.3 69.3191 133.66 68.8514 133.66C68.3713 133.66 67.976 133.3 67.976 132.496Z" fill="white"/>
<path opacity="0.5" d="M80.0504 132.496C80.0504 130.335 78.5153 129.027 76.4764 129.027C74.4374 129.027 72.9023 130.335 72.9023 132.496C72.9023 134.657 74.4374 135.965 76.4764 135.965C78.5153 135.965 80.0504 134.657 80.0504 132.496ZM75.601 132.496C75.601 131.692 76.0087 131.331 76.4764 131.331C76.9441 131.331 77.3518 131.692 77.3518 132.496C77.3518 133.3 76.9441 133.66 76.4764 133.66C75.9967 133.66 75.601 133.3 75.601 132.496Z" fill="white"/>
<path opacity="0.5" d="M83.5496 130.035V129.111H80.8867V139.123H83.5496V134.957C83.873 135.569 84.5088 135.965 85.4085 135.965C86.9674 135.965 88.2029 134.681 88.2029 132.496C88.2029 130.311 86.9674 129.027 85.4085 129.027C84.5088 129.027 83.873 129.423 83.5496 130.035ZM85.5043 132.496C85.5043 133.24 85.0727 133.636 84.5208 133.636C83.9692 133.636 83.5372 133.24 83.5372 132.496C83.5372 131.752 83.9692 131.356 84.5208 131.356C85.0727 131.356 85.5043 131.752 85.5043 132.496Z" fill="white"/>
<path opacity="0.5" d="M90.8135 135.761H97.0138V133.613H94.2675C95.6588 132.736 96.9781 131.284 96.9781 129.543C96.9781 128.15 96.1984 126.914 94.0156 126.914C92.3724 126.914 90.8612 127.814 90.7773 130.143H93.3559C93.3078 129.435 93.5479 129.147 93.8356 129.147C94.1113 129.147 94.2914 129.363 94.2914 129.747C94.2914 131.007 92.5043 132.484 90.8135 133.757V135.761Z" fill="white"/>
</g>
<g opacity="0.5">
<path opacity="0.5" d="M114.574 131.388C114.574 133.127 115.096 134.425 116.776 134.425C118.457 134.425 118.979 133.127 118.979 131.388C118.979 129.666 118.457 128.375 116.776 128.375C115.096 128.375 114.574 129.666 114.574 131.388ZM117.853 131.388C117.853 132.45 117.739 133.364 116.776 133.364C115.814 133.364 115.7 132.45 115.7 131.388C115.7 130.368 115.814 129.437 116.776 129.437C117.739 129.437 117.853 130.368 117.853 131.388Z" fill="white"/>
<path opacity="0.5" d="M119.844 131.388C119.844 133.127 120.366 134.425 122.046 134.425C123.726 134.425 124.249 133.127 124.249 131.388C124.249 129.666 123.726 128.375 122.046 128.375C120.366 128.375 119.844 129.666 119.844 131.388ZM123.123 131.388C123.123 132.45 123.008 133.364 122.046 133.364C121.083 133.364 120.969 132.45 120.969 131.388C120.969 130.368 121.083 129.437 122.046 129.437C123.008 129.437 123.123 130.368 123.123 131.388Z" fill="white"/>
<path opacity="0.5" d="M126.446 133.829C126.446 133.454 126.152 133.16 125.753 133.16C125.337 133.16 125.043 133.454 125.043 133.829C125.043 134.205 125.337 134.499 125.753 134.499C126.152 134.499 126.446 134.205 126.446 133.829ZM126.446 130.449C126.446 130.074 126.152 129.779 125.753 129.779C125.337 129.779 125.043 130.074 125.043 130.449C125.043 130.825 125.337 131.119 125.753 131.119C126.152 131.119 126.446 130.825 126.446 130.449Z" fill="white"/>
<path opacity="0.5" d="M127.258 131.388C127.258 133.127 127.78 134.425 129.46 134.425C131.141 134.425 131.663 133.127 131.663 131.388C131.663 129.666 131.141 128.375 129.46 128.375C127.78 128.375 127.258 129.666 127.258 131.388ZM130.537 131.388C130.537 132.45 130.423 133.364 129.46 133.364C128.498 133.364 128.384 132.45 128.384 131.388C128.384 130.368 128.498 129.437 129.46 129.437C130.423 129.437 130.537 130.368 130.537 131.388Z" fill="white"/>
<path opacity="0.5" d="M132.84 128.473V131.968H133.933C134.055 131.6 134.357 131.339 134.83 131.339C135.475 131.339 135.809 131.706 135.809 132.376C135.809 133.005 135.507 133.478 134.838 133.478C134.284 133.478 133.949 133.176 133.851 132.76H132.742C132.84 133.731 133.574 134.442 134.855 134.442C136.209 134.442 136.91 133.576 136.91 132.36C136.91 131.437 136.437 130.392 135.05 130.392C134.553 130.392 134.104 130.604 133.884 130.874V129.477H136.527V128.473H132.84Z" fill="white"/>
<path opacity="0.5" d="M139.114 133.829C139.114 133.454 138.82 133.16 138.421 133.16C138.004 133.16 137.711 133.454 137.711 133.829C137.711 134.205 138.004 134.499 138.421 134.499C138.82 134.499 139.114 134.205 139.114 133.829ZM139.114 130.449C139.114 130.074 138.82 129.779 138.421 129.779C138.004 129.779 137.711 130.074 137.711 130.449C137.711 130.825 138.004 131.119 138.421 131.119C138.82 131.119 139.114 130.825 139.114 130.449Z" fill="white"/>
<path opacity="0.5" d="M139.926 131.388C139.926 133.127 140.448 134.425 142.128 134.425C143.808 134.425 144.331 133.127 144.331 131.388C144.331 129.666 143.808 128.375 142.128 128.375C140.448 128.375 139.926 129.666 139.926 131.388ZM143.205 131.388C143.205 132.45 143.091 133.364 142.128 133.364C141.166 133.364 141.052 132.45 141.052 131.388C141.052 130.368 141.166 129.437 142.128 129.437C143.091 129.437 143.205 130.368 143.205 131.388Z" fill="white"/>
<path opacity="0.5" d="M145.195 131.388C145.195 133.127 145.717 134.425 147.398 134.425C149.078 134.425 149.6 133.127 149.6 131.388C149.6 129.666 149.078 128.375 147.398 128.375C145.717 128.375 145.195 129.666 145.195 131.388ZM148.475 131.388C148.475 132.45 148.36 133.364 147.398 133.364C146.435 133.364 146.321 132.45 146.321 131.388C146.321 130.368 146.435 129.437 147.398 129.437C148.36 129.437 148.475 130.368 148.475 131.388Z" fill="white"/>
</g>
<path opacity="0.2" d="M275.094 125H266.906C266.214 125 265.778 124.249 266.118 123.642L270.141 116.463C270.483 115.851 271.357 115.844 271.709 116.451L275.875 123.631C276.227 124.237 275.792 125 275.094 125Z" fill="white"/>
<path opacity="0.2" d="M266.906 137H275.094C275.787 137 276.222 137.751 275.882 138.358L271.859 145.537C271.517 146.149 270.643 146.156 270.291 145.549L266.125 138.37C265.773 137.763 266.208 137 266.906 137Z" fill="white"/>
<path opacity="0.5" d="M234.251 128H237V120H233V122.277H234.251V128Z" fill="white"/>
<g opacity="0.5">
<path opacity="0.5" d="M228.727 135.701V139.724H230.857V139.084H229.532V135.701H228.727Z" fill="white"/>
<path opacity="0.5" d="M234.45 138.127C234.45 137.119 233.73 136.479 232.809 136.479C231.888 136.479 231.168 137.119 231.168 138.127C231.168 139.13 231.865 139.775 232.786 139.775C233.713 139.775 234.45 139.13 234.45 138.127ZM231.986 138.127C231.986 137.488 232.371 137.182 232.798 137.182C233.224 137.182 233.621 137.488 233.621 138.127C233.621 138.761 233.212 139.072 232.786 139.072C232.354 139.072 231.986 138.761 231.986 138.127Z" fill="white"/>
<path opacity="0.5" d="M238.122 138.127C238.122 137.119 237.402 136.479 236.481 136.479C235.56 136.479 234.84 137.119 234.84 138.127C234.84 139.13 235.537 139.775 236.458 139.775C237.385 139.775 238.122 139.13 238.122 138.127ZM235.658 138.127C235.658 137.488 236.043 137.182 236.47 137.182C236.895 137.182 237.293 137.488 237.293 138.127C237.293 138.761 236.884 139.072 236.458 139.072C236.026 139.072 235.658 138.761 235.658 138.127Z" fill="white"/>
<path opacity="0.5" d="M239.517 136.992V136.531H238.711V141.245H239.517V139.268C239.713 139.527 240.07 139.775 240.571 139.775C241.388 139.775 242.027 139.113 242.027 138.116C242.027 137.119 241.388 136.479 240.571 136.479C240.075 136.479 239.707 136.721 239.517 136.992ZM241.204 138.116C241.204 138.721 240.795 139.066 240.357 139.066C239.926 139.066 239.517 138.732 239.517 138.127C239.517 137.522 239.926 137.188 240.357 137.188C240.795 137.188 241.204 137.51 241.204 138.116Z" fill="white"/>
</g>
<path d="M281.065 130H268.935C268.216 130 267.767 129.232 268.127 128.618L274.086 118.46C274.442 117.852 275.328 117.845 275.694 118.447L281.866 128.605C282.239 129.219 281.791 130 281.065 130Z" fill="#4C4F53"/>
<path d="M268.935 134H281.065C281.784 134 282.233 134.832 281.873 135.498L275.914 146.502C275.558 147.16 274.672 147.167 274.306 146.515L268.134 135.511C267.761 134.846 268.209 134 268.935 134Z" fill="#4C4F53"/>
<path opacity="0.5" d="M11 141V123L27 131.842L11 141Z" fill="#4B4F53"/>
<path d="M73.9102 73.4094H147.686V54.7755H73.9102V73.4094Z" fill="white"/>
<path fill-rule="evenodd" clip-rule="evenodd" d="M74.3898 72.9293H147.207V55.2557H74.3898V72.9293ZM73.9102 73.4094V54.7755H147.686V73.4094H73.9102Z" fill="black"/>
<path opacity="0.5" d="M73.7188 54.75H145.999V73.45H73.7188V54.75Z" fill="#57FFEC"/>
<path d="M147 73.4094H220.776V54.7755H147V73.4094Z" fill="white"/>
<path fill-rule="evenodd" clip-rule="evenodd" d="M147.48 72.9293H220.297V55.2557H147.48V72.9293ZM147 73.4094V54.7755H220.776V73.4094H147Z" fill="black"/>
<path d="M106.203 64.2285C106.203 64.7621 106.114 65.2523 105.935 65.6988C105.757 66.1453 105.506 66.53 105.182 66.8525C104.859 67.1744 104.47 67.4248 104.015 67.6028C103.56 67.7804 103.055 67.8696 102.499 67.8696H99.7148V60.5874H102.499C103.055 60.5874 103.56 60.678 104.015 60.8591C104.47 61.0371 104.859 61.2875 105.182 61.6095C105.506 61.9283 105.757 62.3113 105.935 62.7578C106.114 63.2043 106.203 63.6946 106.203 64.2285ZM104.809 64.2285C104.809 63.8288 104.755 63.4715 104.647 63.1557C104.542 62.8368 104.389 62.5683 104.187 62.3501C103.988 62.1284 103.746 61.9588 103.459 61.8413C103.176 61.7238 102.856 61.6651 102.499 61.6651H101.079V66.7919H102.499C102.856 66.7919 103.176 66.7332 103.459 66.6157C103.746 66.4982 103.988 66.33 104.187 66.1118C104.389 65.8905 104.542 65.622 104.647 65.3062C104.755 64.9873 104.809 64.6278 104.809 64.2285ZM110.344 66.7769C110.607 66.7769 110.841 66.7332 111.046 66.6458C111.255 66.5583 111.431 66.436 111.572 66.2783C111.713 66.1202 111.821 65.9289 111.895 65.7041C111.973 65.4789 112.012 65.2271 112.012 64.9484V60.5874H113.371V64.9484C113.371 65.3817 113.3 65.7827 113.158 66.1524C113.02 66.5181 112.82 66.8357 112.558 67.1042C112.298 67.3692 111.981 67.5777 111.608 67.7287C111.233 67.8762 110.812 67.95 110.344 67.95C109.873 67.95 109.449 67.8762 109.076 67.7287C108.702 67.5777 108.383 67.3692 108.121 67.1042C107.861 66.8357 107.661 66.5181 107.519 66.1524C107.381 65.7827 107.312 65.3817 107.312 64.9484V60.5874H108.672V64.9436C108.672 65.2223 108.709 65.474 108.783 65.6988C108.86 65.9241 108.97 66.1171 109.111 66.2783C109.256 66.436 109.431 66.5583 109.637 66.6458C109.846 66.7332 110.081 66.7769 110.344 66.7769ZM117.637 66.8118C117.89 66.8118 118.103 66.7818 118.274 66.7213C118.446 66.6608 118.583 66.5804 118.684 66.4797C118.788 66.379 118.862 66.2615 118.906 66.1272C118.953 65.9925 118.977 65.8499 118.977 65.6988C118.977 65.5412 118.952 65.4003 118.901 65.2762C118.85 65.1485 118.771 65.0407 118.663 64.9537C118.556 64.8632 118.416 64.7943 118.244 64.747C118.076 64.7002 117.872 64.6768 117.633 64.6768H116.263V66.8118H117.637ZM116.263 61.6346V63.74H117.345C117.81 63.74 118.16 63.6561 118.396 63.4883C118.635 63.3205 118.754 63.0533 118.754 62.6876C118.754 62.3082 118.647 62.0379 118.431 61.8767C118.216 61.7155 117.878 61.6346 117.42 61.6346H116.263ZM117.42 60.5874C117.899 60.5874 118.308 60.6325 118.648 60.723C118.989 60.814 119.267 60.943 119.482 61.1108C119.701 61.2791 119.861 61.4823 119.962 61.7203C120.063 61.9588 120.114 62.2273 120.114 62.5264C120.114 62.6973 120.089 62.862 120.038 63.0197C119.988 63.1743 119.908 63.3205 119.8 63.4578C119.696 63.5921 119.561 63.7149 119.396 63.8257C119.234 63.9361 119.041 64.0302 118.815 64.1075C119.819 64.3323 120.321 64.8729 120.321 65.7293C120.321 66.038 120.262 66.3233 120.144 66.5852C120.026 66.8472 119.854 67.0737 119.629 67.2654C119.403 67.4531 119.125 67.6011 118.795 67.7084C118.465 67.8157 118.088 67.8696 117.663 67.8696H114.904V60.5874H117.42Z" fill="black"/>
<path d="M220 73.4094H293.776V54.7755H220V73.4094Z" fill="white"/>
<path fill-rule="evenodd" clip-rule="evenodd" d="M220.48 72.9293H293.297V55.2557H220.48V72.9293ZM220 73.4094V54.7755H293.776V73.4094H220Z" fill="black"/>
<path d="M0 73.4094H74.2429V54.7755H0V73.4094Z" fill="black"/>
<path d="M31.4419 64.2285C31.4419 64.7621 31.3521 65.2576 31.1724 65.7143C30.9961 66.1674 30.7452 66.5601 30.4198 66.8926C30.0943 67.2248 29.7028 67.4854 29.2451 67.6731C28.7875 67.8577 28.2789 67.95 27.7196 67.95C27.1636 67.95 26.6568 67.8577 26.1991 67.6731C25.7415 67.4854 25.3482 67.2248 25.0194 66.8926C24.6939 66.5601 24.4414 66.1674 24.2617 65.7143C24.082 65.2576 23.9922 64.7621 23.9922 64.2285C23.9922 63.6946 24.082 63.2012 24.2617 62.7476C24.4414 62.2909 24.6939 61.8965 25.0194 61.5644C25.3482 61.2318 25.7415 60.9735 26.1991 60.7888C26.6568 60.6007 27.1636 60.5066 27.7196 60.5066C28.0925 60.5066 28.4434 60.5503 28.7722 60.6378C29.1011 60.7217 29.4028 60.8423 29.6774 61.0004C29.952 61.1545 30.1978 61.3445 30.4147 61.5693C30.6351 61.791 30.8215 62.0392 30.9741 62.3148C31.1267 62.5899 31.2419 62.889 31.3199 63.2109C31.4012 63.5333 31.4419 63.8725 31.4419 64.2285ZM30.0435 64.2285C30.0435 63.8288 29.9893 63.4715 29.8808 63.1557C29.7723 62.8368 29.6181 62.5665 29.418 62.3448C29.218 62.1231 28.9739 61.9535 28.6858 61.836C28.401 61.7185 28.079 61.6598 27.7196 61.6598C27.3603 61.6598 27.0365 61.7185 26.7483 61.836C26.4636 61.9535 26.2195 62.1231 26.0161 62.3448C25.8161 62.5665 25.6618 62.8368 25.5533 63.1557C25.4449 63.4715 25.3906 63.8288 25.3906 64.2285C25.3906 64.6278 25.4449 64.9873 25.5533 65.3062C25.6618 65.622 25.8161 65.8905 26.0161 66.1118C26.2195 66.33 26.4636 66.4982 26.7483 66.6157C27.0365 66.7332 27.3603 66.7919 27.7196 66.7919C28.079 66.7919 28.401 66.7332 28.6858 66.6157C28.9739 66.4982 29.218 66.33 29.418 66.1118C29.6181 65.8905 29.7723 65.622 29.8808 65.3062C29.9893 64.9873 30.0435 64.6278 30.0435 64.2285ZM34.8654 64.0523C35.123 64.0523 35.3468 64.0201 35.5367 63.9565C35.7299 63.8929 35.8876 63.8054 36.0096 63.6946C36.135 63.5806 36.2282 63.4463 36.2893 63.2918C36.3503 63.1372 36.3808 62.9676 36.3808 62.783C36.3808 62.4137 36.2571 62.1302 36.0096 61.9319C35.7655 61.734 35.3909 61.6346 34.8858 61.6346H34.0111V64.0523H34.8654ZM38.3844 67.8696H37.1487C36.9148 67.8696 36.7452 67.7791 36.6401 67.5975L35.0943 65.266C35.0366 65.1785 34.9722 65.1163 34.901 65.0796C34.8332 65.0425 34.7315 65.024 34.5959 65.024H34.0111V67.8696H32.6432V60.5874H34.8858C35.3841 60.5874 35.8113 60.6391 36.1672 60.7434C36.5266 60.8441 36.8198 60.9867 37.047 61.1713C37.2775 61.3559 37.4469 61.5777 37.5555 61.836C37.6639 62.0913 37.7182 62.3735 37.7182 62.6823C37.7182 62.9274 37.6809 63.1593 37.6063 63.3774C37.5352 63.5956 37.43 63.7935 37.2911 63.9715C37.1554 64.1495 36.9859 64.3058 36.7825 64.4401C36.5825 64.5743 36.3536 64.6799 36.0961 64.7572C36.1842 64.8075 36.2655 64.8681 36.3401 64.9387C36.4147 65.0059 36.4825 65.0862 36.5436 65.1803L38.3844 67.8696ZM40.5514 67.8696H39.1784V60.5874H40.5514V67.8696ZM48.2591 64.2184V67.1647C47.8862 67.4363 47.4878 67.6364 47.0642 67.7636C46.6437 67.8882 46.1928 67.95 45.7114 67.95C45.1113 67.95 44.5672 67.8577 44.0792 67.6731C43.5943 67.4884 43.1791 67.2318 42.8332 66.9028C42.4908 66.5738 42.2265 66.1807 42.0401 65.724C41.8536 65.2673 41.7604 64.7691 41.7604 64.2285C41.7604 63.6813 41.8502 63.1791 42.0299 62.7225C42.2097 62.2658 42.4639 61.8731 42.7926 61.5441C43.1248 61.2151 43.5268 60.9598 43.998 60.7787C44.4693 60.5972 44.9979 60.5066 45.5843 60.5066C45.8826 60.5066 46.1606 60.53 46.4182 60.5773C46.6795 60.6241 46.9199 60.6895 47.1405 60.7734C47.3643 60.8542 47.5677 60.9531 47.7508 61.0706C47.9339 61.1881 48.1016 61.3175 48.2542 61.4584L47.8624 62.0728C47.8015 62.1704 47.7221 62.2309 47.6237 62.2543C47.5253 62.2746 47.4185 62.249 47.3034 62.1788C47.1913 62.1147 47.0797 62.0511 46.9676 61.9875C46.8555 61.9235 46.7302 61.8683 46.5912 61.821C46.4557 61.7742 46.3013 61.7353 46.1283 61.7053C45.9589 61.6753 45.7626 61.6598 45.5389 61.6598C45.1757 61.6598 44.847 61.7203 44.5522 61.8413C44.2606 61.9623 44.0113 62.135 43.8048 62.3598C43.5978 62.5851 43.4386 62.8554 43.3265 63.1707C43.2149 63.4865 43.1588 63.839 43.1588 64.2285C43.1588 64.6446 43.2179 65.0173 43.3366 65.3464C43.4589 65.6723 43.6283 65.9492 43.8454 66.1776C44.0656 66.4024 44.3303 66.5751 44.6387 66.6961C44.9472 66.8136 45.2913 66.8723 45.6708 66.8723C45.9421 66.8723 46.1844 66.8441 46.3979 66.7866C46.6115 66.7297 46.8202 66.6524 47.0236 66.5552V65.2355H46.0979C46.0101 65.2355 45.9404 65.2121 45.8896 65.1653C45.842 65.1149 45.8182 65.0544 45.8182 64.9838V64.2184H48.2591Z" fill="white"/>
<path d="M77.957 18.1345C77.957 21.6807 80.2912 24.1681 83.8506 24.1681C86.8228 24.1681 88.9381 22.4538 89.5258 19.7647H85.9831C85.5635 20.6555 84.7742 21.1429 83.8003 21.1429C82.2891 21.1429 81.2985 19.9664 81.2985 18.1345C81.2985 16.3193 82.2891 15.1429 83.8003 15.1429C84.7742 15.1429 85.5635 15.6303 85.9831 16.5211H89.5258C88.9381 13.8319 86.8228 12.1177 83.8506 12.1177C80.2912 12.1177 77.957 14.6051 77.957 18.1345Z" fill="black"/>
<path d="M96.3411 16.2185C96.3411 17.0253 95.8875 17.4622 94.9975 17.4622H93.3689V14.9916H94.9975C95.8875 14.9916 96.3411 15.479 96.3411 16.2185ZM90.0781 12.2353V24.0841H93.3689V19.7143H93.7214L96.0723 24.0841H99.7492L97.0797 19.4622C98.8429 18.9244 99.6821 17.5799 99.6821 16.0336C99.6821 13.916 98.2049 12.2353 95.2662 12.2353H90.0781Z" fill="black"/>
<path d="M107.74 12.2353H100.168V24.0841H107.74V21.4454H103.459V19.311H107.237V16.8068H103.459V14.874H107.74V12.2353Z" fill="black"/>
<path d="M116.487 24.0841H119.963L115.664 12.2353H111.87L107.555 24.0841H111.014L111.652 22.1513H115.849L116.487 24.0841ZM115.026 19.6303H112.491L113.75 15.7984L115.026 19.6303Z" fill="black"/>
<path d="M119.375 14.8572H122.498V24.0841H125.789V14.8572H128.945V12.2353H119.375V14.8572Z" fill="black"/>
<path d="M136.725 12.2353H129.152V24.0841H136.725V21.4454H132.444V19.311H136.221V16.8068H132.444V14.874H136.725V12.2353Z" fill="black"/>
<path d="M148.336 15.2101C148.37 13.563 147.11 12 144.558 12C142.056 12 140.68 13.4454 140.68 15.1765C140.68 15.8992 140.898 16.521 141.469 17.2437C139.941 18 139.219 19.2437 139.219 20.6387C139.219 22.8068 140.982 24.2689 143.803 24.2689C145.297 24.2689 146.556 23.8992 147.614 23.1765L148.571 24.0841H152.282L149.461 21.3278C149.965 20.6387 150.401 19.8152 150.788 18.8908L151.274 17.9496H148.017L147.681 18.5546C147.581 18.8068 147.48 19.042 147.362 19.2773L144.592 16.5714C144.038 16.0168 143.752 15.563 143.752 15.1429C143.752 14.6891 144.105 14.4202 144.541 14.4202C144.944 14.4202 145.297 14.6723 145.297 15.2101H148.336ZM144.021 21.6303C142.98 21.6303 142.392 21.0421 142.392 20.353C142.392 19.8656 142.678 19.3782 143.265 19.0252L145.599 21.2437C145.146 21.4958 144.625 21.6303 144.021 21.6303Z" fill="black"/>
<path d="M159.11 12.2353L154.426 12.2353V24.0841H159.11C162.888 24.0841 165.289 21.5799 165.289 18.1513C165.289 14.6723 162.888 12.2353 159.11 12.2353ZM157.717 21.1765V15.0924H158.858C160.756 15.0924 161.948 16.1849 161.948 18.1513C161.948 20.1009 160.756 21.1765 158.858 21.1765H157.717Z" fill="black"/>
<path d="M177.503 18.1177C177.503 14.5546 174.816 12.0504 171.441 12.0504C168.084 12.0504 165.363 14.5546 165.363 18.1177C165.363 21.6807 168.084 24.2017 171.441 24.2017C174.8 24.2017 177.503 21.6807 177.503 18.1177ZM168.722 18.1177C168.722 16.2521 169.729 15.0757 171.441 15.0757C173.137 15.0757 174.162 16.2521 174.162 18.1177C174.162 19.9496 173.137 21.1429 171.441 21.1429C169.729 21.1429 168.722 19.9496 168.722 18.1177Z" fill="black"/>
<path d="M180.359 24.0841H184.406L186.068 16.8235L187.697 24.0841H191.743L194.648 12.2353H191.089L189.712 20.2689L187.898 12.2353H184.288L182.424 20.3361L181.048 12.2353H177.488L180.359 24.0841Z" fill="black"/>
<path d="M202.708 12.2353V18.9412L198.326 12.2353H195.035V24.0841H198.326V17.4622L202.708 24.0841H205.999V12.2353H202.708Z" fill="black"/>
<path d="M206.871 12.2353V24.0841H213.839V21.563H210.162V12.2353H206.871Z" fill="black"/>
<path d="M225.843 18.1177C225.843 14.5546 223.156 12.0504 219.781 12.0504C216.423 12.0504 213.703 14.5546 213.703 18.1177C213.703 21.6807 216.423 24.2017 219.781 24.2017C223.139 24.2017 225.843 21.6807 225.843 18.1177ZM217.061 18.1177C217.061 16.2521 218.069 15.0756 219.781 15.0756C221.477 15.0756 222.501 16.2521 222.501 18.1177C222.501 19.9496 221.477 21.1429 219.781 21.1429C218.069 21.1429 217.061 19.9496 217.061 18.1177Z" fill="black"/>
<path d="M234.444 24.0841H237.92L233.621 12.2353H229.827L225.512 24.0841H228.971L229.609 22.1513H233.806L234.444 24.0841ZM232.983 19.6303H230.448L231.707 15.7983L232.983 19.6303Z" fill="black"/>
<path d="M242.673 12.2353H237.988V24.0841H242.673C246.451 24.0841 248.852 21.5799 248.852 18.1513C248.852 14.6723 246.451 12.2353 242.673 12.2353ZM241.279 21.1765V15.0924H242.421C244.318 15.0924 245.51 16.1849 245.51 18.1513C245.51 20.1009 244.318 21.1765 242.421 21.1765H241.279Z" fill="black"/>
<path d="M259.104 12.2353H251.531V24.0841H259.104V21.4454H254.822V19.311H258.6V16.8067H254.822V14.874H259.104V12.2353Z" fill="black"/>
<path d="M264.407 12.2353H259.723V24.0841H264.407C268.185 24.0841 270.586 21.5799 270.586 18.1513C270.586 14.6723 268.185 12.2353 264.407 12.2353ZM263.013 21.1765V15.0924H264.155C266.053 15.0924 267.245 16.1849 267.245 18.1513C267.245 20.1009 266.053 21.1765 264.155 21.1765H263.013Z" fill="black"/>
<path d="M271.059 24.0841H274.35V12.2353H271.059V24.0841Z" fill="black"/>
<path d="M274.566 14.8571H277.689V24.0841H280.98V14.8571H284.137V12.2353H274.566V14.8571Z" fill="black"/>
<path d="M293.227 20.4874C293.227 16.6891 287.535 17.2605 287.535 15.4958C287.535 14.9244 287.921 14.6386 288.408 14.6555C289.013 14.6555 289.466 14.9916 289.5 15.7311H293.076C292.959 13.3781 291.179 12.0504 288.459 12.0504C285.957 12.0504 284.026 13.2941 284.026 15.6134C283.975 19.7311 289.718 18.8403 289.735 20.7395C289.735 21.2941 289.281 21.5966 288.694 21.5966C288.089 21.5966 287.569 21.2941 287.502 20.4034H283.992C284.127 22.9412 286.175 24.2017 288.811 24.2017C291.615 24.2017 293.227 22.5714 293.227 20.4874Z" fill="black"/>
<path d="M0 109H295V151H0V109Z" fill="white"/>
<path fill-rule="evenodd" clip-rule="evenodd" d="M294.52 109.483H0.479676V150.517H294.52V109.483ZM0 109V151H295V109H0Z" fill="black"/>
<path opacity="0.5" d="M234.251 126H237V118H233V120.277H234.251V126Z" fill="#A5A5A5"/>
<path opacity="0.5" d="M228.727 133.3V137.323H230.857V136.683H229.532V133.3H228.727Z" fill="#A5A7A9"/>
<path opacity="0.5" d="M234.45 135.726C234.45 134.717 233.73 134.078 232.809 134.078C231.888 134.078 231.168 134.717 231.168 135.726C231.168 136.729 231.865 137.374 232.786 137.374C233.713 137.374 234.45 136.729 234.45 135.726ZM231.986 135.726C231.986 135.086 232.371 134.781 232.798 134.781C233.224 134.781 233.621 135.086 233.621 135.726C233.621 136.36 233.212 136.671 232.786 136.671C232.354 136.671 231.986 136.36 231.986 135.726Z" fill="#A5A7A9"/>
<path opacity="0.5" d="M238.122 135.726C238.122 134.717 237.402 134.078 236.481 134.078C235.56 134.078 234.84 134.717 234.84 135.726C234.84 136.729 235.537 137.374 236.458 137.374C237.385 137.374 238.122 136.729 238.122 135.726ZM235.658 135.726C235.658 135.086 236.043 134.781 236.469 134.781C236.896 134.781 237.293 135.086 237.293 135.726C237.293 136.36 236.884 136.671 236.458 136.671C236.026 136.671 235.658 136.36 235.658 135.726Z" fill="#A5A7A9"/>
<path opacity="0.5" d="M239.517 134.591V134.13H238.711V138.844H239.517V136.867C239.713 137.127 240.07 137.374 240.571 137.374C241.388 137.374 242.027 136.712 242.027 135.715C242.027 134.717 241.388 134.078 240.571 134.078C240.075 134.078 239.707 134.32 239.517 134.591ZM241.204 135.715C241.204 136.32 240.795 136.665 240.357 136.665C239.926 136.665 239.517 136.331 239.517 135.726C239.517 135.121 239.926 134.787 240.357 134.787C240.795 134.787 241.204 135.11 241.204 135.715Z" fill="#A5A7A9"/>
<path d="M13 137V121L26 128.86L13 137Z" fill="#4C4F53"/>
<path d="M281.065 128H268.935C268.216 128 267.767 127.232 268.127 126.618L274.086 116.459C274.442 115.852 275.328 115.846 275.694 116.447L281.866 126.606C282.239 127.219 281.791 128 281.065 128Z" fill="#4C4F53"/>
<path d="M268.935 133H281.065C281.784 133 282.233 133.769 281.873 134.382L275.914 144.54C275.557 145.148 274.672 145.155 274.306 144.553L268.134 134.395C267.761 133.781 268.209 133 268.935 133Z" fill="#4C4F53"/>
<path d="M0 185H295V227H0V185Z" fill="white"/>
<path fill-rule="evenodd" clip-rule="evenodd" d="M294.52 185.483H0.479676V226.517H294.52V185.483ZM0 185V227H295V185H0Z" fill="black"/>
<path d="M281.065 205H268.935C268.216 205 267.767 204.168 268.127 203.502L274.086 192.498C274.442 191.84 275.328 191.833 275.694 192.485L281.866 203.49C282.239 204.154 281.791 205 281.065 205Z" fill="#4C4F53"/>
<path d="M268.935 210H281.065C281.784 210 282.233 210.769 281.873 211.382L275.914 221.54C275.557 222.148 274.672 222.154 274.306 221.553L268.134 211.395C267.761 210.781 268.209 210 268.935 210Z" fill="#4C4F53"/>
<path d="M34 223H3V191H34V223Z" fill="#4B4F53"/>
<path d="M34 222H4L4.00004 191H34V222Z" fill="#4B4F53"/>
<path fill-rule="evenodd" clip-rule="evenodd" d="M4.48464 221.499H33.5154V191.501H4.48464V221.499ZM34 222V191H4.00004L4 222H34Z" fill="#4B4F53"/>
<path d="M14 215V199L27 206.86L14 215Z" fill="white"/>
<path opacity="0.5" d="M234.251 204H237V195H233V197.561H234.251V204Z" fill="#A5A5A5"/>
<path opacity="0.5" d="M228.727 211.091V215.114H230.857V214.474H229.532V211.091H228.727Z" fill="#A5A7A9"/>
<path opacity="0.5" d="M234.45 213.517C234.45 212.509 233.73 211.869 232.809 211.869C231.888 211.869 231.168 212.509 231.168 213.517C231.168 214.52 231.865 215.166 232.786 215.166C233.713 215.166 234.45 214.52 234.45 213.517ZM231.986 213.517C231.986 212.878 232.371 212.572 232.798 212.572C233.224 212.572 233.621 212.878 233.621 213.517C233.621 214.151 233.212 214.463 232.786 214.463C232.354 214.463 231.986 214.151 231.986 213.517Z" fill="#A5A7A9"/>
<path opacity="0.5" d="M238.122 213.517C238.122 212.509 237.402 211.869 236.481 211.869C235.56 211.869 234.84 212.509 234.84 213.517C234.84 214.52 235.537 215.166 236.458 215.166C237.385 215.166 238.122 214.52 238.122 213.517ZM235.658 213.517C235.658 212.878 236.043 212.572 236.469 212.572C236.896 212.572 237.293 212.878 237.293 213.517C237.293 214.151 236.884 214.463 236.458 214.463C236.026 214.463 235.658 214.151 235.658 213.517Z" fill="#A5A7A9"/>
<path opacity="0.5" d="M239.517 212.382V211.921H238.711V216.635H239.517V214.658C239.713 214.918 240.07 215.166 240.571 215.166C241.388 215.166 242.027 214.503 242.027 213.506C242.027 212.509 241.388 211.869 240.571 211.869C240.075 211.869 239.707 212.111 239.517 212.382ZM241.204 213.506C241.204 214.111 240.795 214.457 240.357 214.457C239.926 214.457 239.517 214.123 239.517 213.517C239.517 212.912 239.926 212.578 240.357 212.578C240.795 212.578 241.204 212.901 241.204 213.506Z" fill="#A5A7A9"/>
<path fill-rule="evenodd" clip-rule="evenodd" d="M42.5007 221.499H72.4989V191.501H42.5007V221.499ZM73 222V191H42V222H73Z" fill="#4B4F53"/>
<rect x="73" y="222" width="31" height="31" transform="rotate(-180 73 222)" fill="#4B4F53"/>
<rect x="71.7617" y="220.661" width="28.5238" height="28.5238" transform="rotate(-180 71.7617 220.661)" fill="#4B4F53" stroke="#4B4F53"/>
<rect x="43.9062" y="192.908" width="27.1846" height="27.1846" fill="white"/>
<g clip-path="url(#clip1_752_5690)">
<path d="M62.7881 204.235V202.055C62.7881 199.263 60.5251 197 57.7333 197C54.9416 197 52.6786 199.263 52.6786 202.055V204.235H50.875V215.123H64.5917V204.235H62.7881ZM58.3735 210.226L58.5641 212.194H56.9025L57.093 210.226C56.5294 209.979 56.1357 209.416 56.1356 208.762C56.1356 207.879 56.8509 207.164 57.7334 207.164C58.6158 207.164 59.3311 207.879 59.3312 208.762C59.3311 209.417 58.9372 209.979 58.3735 210.226ZM60.0457 204.235H55.4211V202.055C55.4211 200.78 56.4584 199.742 57.7333 199.742C59.0084 199.742 60.0457 200.78 60.0457 202.055V204.235Z" fill="#4B4F53"/>
<rect x="52.5234" y="205.787" width="7.68858" height="7.68858" fill="#4B4F53"/>
<path d="M55.8203 206.336H59.6646V209.631H55.8203V206.336Z" fill="white"/>
<path d="M61.8589 209.631H53.6211L57.6287 213.476L61.8589 209.631Z" fill="white"/>
</g>
<rect opacity="0.5" x="257" y="185" width="38" height="42" fill="#DEA462"/>
<rect opacity="0.5" x="257" y="109" width="38" height="42" fill="#6294E1"/>
<rect opacity="0.5" y="109" width="35" height="42" fill="#FF0000"/>
<rect opacity="0.5" x="220" y="54.75" width="73.78" height="18.7" fill="#FFF500"/>
<path opacity="0.5" d="M146 54.75H220V73.45H146V54.75Z" fill="#57FFEC"/>
<rect opacity="0.5" y="185" width="39" height="42" fill="#30A729"/>
<rect opacity="0.5" x="39" y="185" width="39" height="42" fill="#FF0099"/>
<rect x="86" y="241" width="6" height="7" fill="#FF0099"/>
<rect y="240" width="7" height="8" fill="#3D7B3E"/>
<rect y="163" width="7" height="7" fill="#FF0000"/>
<rect y="88" width="7" height="7" fill="#57FFEC"/>
<rect x="192" y="88" width="7" height="7" fill="#FFF500"/>
<rect x="217" y="163" width="7" height="7" fill="#0064FF"/>
<path d="M84.6685 37.8863C84.6685 38.6342 84.2343 38.9904 83.3834 38.9904H81.4037V36.711H83.366C84.1996 36.711 84.6685 37.1205 84.6685 37.8863ZM84.408 33.1493C84.408 33.8795 83.9565 34.2356 83.1229 34.2356H81.4037V32.0274H83.1229C83.9565 32.0274 84.408 32.4014 84.408 33.1493ZM88.159 38.3849C88.159 36.9603 87.2733 35.6959 85.8146 35.3575C87.0128 35.0192 87.8811 34.0219 87.8811 32.5082C87.8811 30.4247 86.3529 29.2493 83.8696 29.2493H78V41.8041H84.0607C86.6829 41.8041 88.159 40.5041 88.159 38.3849Z" fill="black"/>
<path d="M92.0124 37.8151V41.8041H95.4335V37.8151L99.7402 29.2493H95.9023L93.749 34.0932L91.5956 29.2493H87.7057L92.0124 37.8151Z" fill="black"/>
<path d="M108.503 33.4699C108.503 34.3247 108.034 34.7877 107.113 34.7877H105.429V32.1699H107.113C108.034 32.1699 108.503 32.6863 108.503 33.4699ZM102.025 29.2493V41.8041H105.429V37.174H105.794L108.225 41.8041H112.028L109.267 36.9068C111.09 36.337 111.958 34.9123 111.958 33.274C111.958 31.0301 110.43 29.2493 107.391 29.2493H102.025Z" fill="black"/>
<path d="M120.296 29.2493H112.464V41.8041H120.296V39.0082H115.868V36.7466H119.775V34.0932H115.868V32.0452H120.296V29.2493Z" fill="black"/>
<path d="M124.34 34.7877V32.063H125.694C126.719 32.063 127.136 32.5973 127.136 33.4342C127.136 34.2534 126.719 34.7877 125.694 34.7877H124.34ZM130.609 33.4342C130.609 31.0123 129.063 29.2493 126.024 29.2493H120.936V41.8041H124.34V37.5658H126.024C129.133 37.5658 130.609 35.6247 130.609 33.4342Z" fill="black"/>
<path d="M138.766 29.2493H130.934V41.8041H138.766V39.0082H134.338V36.7466H138.245V34.0932H134.338V32.0452H138.766V29.2493Z" fill="black"/>
<path d="M147.811 41.8041H151.406L146.96 29.2493H143.036L138.573 41.8041H142.15L142.81 39.7562H147.151L147.811 41.8041ZM146.301 37.0849H143.678L144.981 33.0247L146.301 37.0849Z" fill="black"/>
<path d="M150.796 32.0274H154.026V41.8041H157.43V32.0274H160.695V29.2493H150.796V32.0274Z" fill="black"/>
<path d="M160.912 41.8041H164.316V29.2493H160.912V41.8041Z" fill="black"/>
<path d="M173.148 29.2493V36.3548L168.616 29.2493H165.212V41.8041H168.616V34.7877L173.148 41.8041H176.552V29.2493H173.148Z" fill="black"/>
<path d="M183.232 29.1247C179.481 29.1247 177.032 31.7603 177.032 35.5C177.032 39.2575 179.498 41.8931 183.249 41.8931C186.444 41.8931 188.337 39.863 189.067 38.0288V34.6452H182.711V37.1562H186.132C185.628 38.2425 184.76 38.8123 183.579 38.8123C181.565 38.8123 180.488 37.6548 180.488 35.5C180.488 33.5767 181.53 32.3479 183.249 32.3479C184.187 32.3479 184.881 32.7219 185.264 33.3808H188.928C188.441 30.763 186.323 29.1247 183.232 29.1247Z" fill="black"/>
<path d="M191.832 29.2493V41.8041H199.039V39.1329H195.236V29.2493H191.832Z" fill="black"/>
<path d="M211.459 35.4822C211.459 31.7068 208.68 29.0534 205.19 29.0534C201.717 29.0534 198.904 31.7068 198.904 35.4822C198.904 39.2575 201.717 41.9288 205.19 41.9288C208.663 41.9288 211.459 39.2575 211.459 35.4822ZM202.377 35.4822C202.377 33.5055 203.419 32.2589 205.19 32.2589C206.944 32.2589 208.003 33.5055 208.003 35.4822C208.003 37.4233 206.944 38.6877 205.19 38.6877C203.419 38.6877 202.377 37.4233 202.377 35.4822Z" fill="black"/>
<path d="M224.086 35.4822C224.086 31.7068 221.307 29.0534 217.817 29.0534C214.344 29.0534 211.53 31.7068 211.53 35.4822C211.53 39.2575 214.344 41.9288 217.817 41.9288C221.29 41.9288 224.086 39.2575 224.086 35.4822ZM215.003 35.4822C215.003 33.5055 216.045 32.2589 217.817 32.2589C219.571 32.2589 220.63 33.5055 220.63 35.4822C220.63 37.4233 219.571 38.6877 217.817 38.6877C216.045 38.6877 215.003 37.4233 215.003 35.4822Z" fill="black"/>
<path d="M227.978 34.7877V32.063H229.332C230.357 32.063 230.773 32.5973 230.773 33.4342C230.773 34.2534 230.357 34.7877 229.332 34.7877H227.978ZM234.247 33.4342C234.247 31.0123 232.701 29.2493 229.662 29.2493H224.574V41.8041H227.978V37.5658H229.662C232.771 37.5658 234.247 35.6247 234.247 33.4342Z" fill="black"/>
<path d="M243.759 37.9932C243.759 33.9685 237.872 34.574 237.872 32.7041C237.872 32.0986 238.271 31.7959 238.775 31.8137C239.4 31.8137 239.869 32.1699 239.903 32.9534H243.602C243.481 30.4603 241.64 29.0534 238.827 29.0534C236.239 29.0534 234.242 30.3712 234.242 32.8288C234.19 37.1918 240.129 36.2479 240.147 38.2603C240.147 38.8479 239.678 39.1685 239.07 39.1685C238.445 39.1685 237.906 38.8479 237.837 37.9041H234.207C234.346 40.5932 236.465 41.9288 239.191 41.9288C242.092 41.9288 243.759 40.2014 243.759 37.9932Z" fill="black"/>
<path d="M273.919 32.4014C273.954 30.6562 272.651 29 270.012 29C267.424 29 266 30.5315 266 32.3658C266 33.1315 266.226 33.7904 266.816 34.5562C265.236 35.3575 264.489 36.6753 264.489 38.1534C264.489 40.4507 266.313 42 269.23 42C270.776 42 272.078 41.6082 273.172 40.8425L274.162 41.8041H278L275.083 38.8836C275.604 38.1534 276.055 37.2808 276.454 36.3014L276.958 35.3041H273.589L273.242 35.9452C273.138 36.2123 273.033 36.4616 272.912 36.711L270.046 33.8438C269.473 33.2562 269.178 32.7753 269.178 32.3301C269.178 31.8493 269.543 31.5644 269.994 31.5644C270.411 31.5644 270.776 31.8315 270.776 32.4014H273.919ZM269.456 39.2041C268.379 39.2041 267.772 38.5808 267.772 37.8507C267.772 37.3342 268.067 36.8178 268.675 36.4438L271.088 38.7945C270.62 39.0616 270.081 39.2041 269.456 39.2041Z" fill="black"/>
<rect x="224" y="241" width="7" height="7" fill="#F88500"/>
<rect x="248" y="29" width="13" height="13" fill="#0064FF"/>
<rect x="281" y="29" width="13" height="13" fill="#FF0099"/>
<path d="M12.89 91.25V88.98H14.15C15.04 88.98 15.44 89.4 15.44 90.12C15.44 90.82 15.04 91.25 14.15 91.25H12.89ZM16.61 90.12C16.61 88.99 15.8 88.05 14.15 88.05H11.75V95H12.89V92.18H14.15C15.96 92.18 16.61 91.11 16.61 90.12ZM21.3873 90.13C21.3873 90.82 20.9873 91.31 20.0973 91.31H18.8373V88.98H20.0973C20.9873 88.98 21.3873 89.43 21.3873 90.13ZM17.6973 88.05V95H18.8373V92.22H19.7073L21.3073 95H22.6673L20.9473 92.12C22.1173 91.83 22.5573 90.95 22.5573 90.13C22.5573 89 21.7473 88.05 20.0973 88.05H17.6973ZM27.8556 88.04H24.0156V95H27.8556V94.07H25.1556V91.94H27.5556V91.01H25.1556V88.97H27.8556V88.04ZM33.9498 93.03C33.9498 90.49 30.2698 91.47 30.2698 89.9C30.2698 89.23 30.7798 88.91 31.4398 88.93C32.1598 88.95 32.5698 89.38 32.6098 89.85H33.8698C33.7698 88.66 32.8298 87.96 31.4998 87.96C30.0798 87.96 29.1098 88.72 29.1098 89.94C29.1098 92.5 32.7998 91.41 32.7998 93.09C32.7998 93.68 32.3498 94.11 31.5498 94.11C30.7598 94.11 30.3598 93.65 30.3098 93.08H29.0898C29.0898 94.31 30.1598 95.07 31.5498 95.07C33.0998 95.07 33.9498 94.07 33.9498 93.03ZM39.1349 88.04H35.2949V95H39.1349V94.07H36.4349V91.94H38.8349V91.01H36.4349V88.97H39.1349V88.04ZM40.1791 88.98H42.0391V95H43.1791V88.98H45.0291V88.05H40.1791V88.98ZM52.6213 88.04H48.7813V95H52.6213V94.07H49.9213V91.94H52.3213V91.01H49.9213V88.97H52.6213V88.04ZM56.2954 88.05H54.0254V95H56.2954C58.5254 95 59.9854 93.69 59.9854 91.55C59.9854 89.4 58.5254 88.05 56.2954 88.05ZM55.1654 94.07V88.98H56.2954C57.9354 88.98 58.8154 89.96 58.8154 91.55C58.8154 93.13 57.9354 94.07 56.2954 94.07H55.1654ZM61.1152 95H62.2552V88.05H61.1152V95ZM63.392 88.98H65.252V95H66.392V88.98H68.242V88.05H63.392V88.98ZM74.0865 93.03C74.0865 90.49 70.4065 91.47 70.4065 89.9C70.4065 89.23 70.9165 88.91 71.5765 88.93C72.2965 88.95 72.7065 89.38 72.7465 89.85H74.0065C73.9065 88.66 72.9665 87.96 71.6365 87.96C70.2165 87.96 69.2465 88.72 69.2465 89.94C69.2465 92.5 72.9365 91.41 72.9365 93.09C72.9365 93.68 72.4865 94.11 71.6865 94.11C70.8965 94.11 70.4965 93.65 70.4465 93.08H69.2265C69.2265 94.31 70.2965 95.07 71.6865 95.07C73.2365 95.07 74.0865 94.07 74.0865 93.03ZM77.8893 96.75H79.0093L81.7293 85.56H80.5993L77.8893 96.75ZM90.4537 93.03C90.4537 90.49 86.7737 91.47 86.7737 89.9C86.7737 89.23 87.2837 88.91 87.9437 88.93C88.6637 88.95 89.0737 89.38 89.1137 89.85H90.3737C90.2737 88.66 89.3337 87.96 88.0037 87.96C86.5837 87.96 85.6137 88.72 85.6137 89.94C85.6137 92.5 89.3037 91.41 89.3037 93.09C89.3037 93.68 88.8537 94.11 88.0537 94.11C87.2637 94.11 86.8637 93.65 86.8137 93.08H85.5937C85.5937 94.31 86.6637 95.07 88.0537 95.07C89.6037 95.07 90.4537 94.07 90.4537 93.03ZM91.4388 88.98H93.2988V95H94.4388V88.98H96.2888V88.05H91.4388V88.98ZM102.133 95H103.333L100.843 88.04H99.5234L97.0334 95H98.2234L98.7234 93.58H101.633L102.133 95ZM101.313 92.65H99.0434L100.183 89.42L101.313 92.65ZM108.106 90.13C108.106 90.82 107.706 91.31 106.816 91.31H105.556V88.98H106.816C107.706 88.98 108.106 89.43 108.106 90.13ZM104.416 88.05V95H105.556V92.22H106.426L108.026 95H109.386L107.666 92.12C108.836 91.83 109.276 90.95 109.276 90.13C109.276 89 108.466 88.05 106.816 88.05H104.416ZM110.374 88.98H112.234V95H113.374V88.98H115.224V88.05H110.374V88.98ZM120.117 91.25V88.98H121.377C122.267 88.98 122.667 89.4 122.667 90.12C122.667 90.82 122.267 91.25 121.377 91.25H120.117ZM123.837 90.12C123.837 88.99 123.027 88.05 121.377 88.05H118.977V95H120.117V92.18H121.377C123.187 92.18 123.837 91.11 123.837 90.12ZM131.644 91.51C131.644 89.43 130.074 87.96 128.094 87.96C126.134 87.96 124.544 89.43 124.544 91.51C124.544 93.6 126.134 95.07 128.094 95.07C130.074 95.07 131.644 93.6 131.644 91.51ZM125.714 91.51C125.714 89.94 126.714 88.96 128.094 88.96C129.474 88.96 130.474 89.94 130.474 91.51C130.474 93.08 129.474 94.08 128.094 94.08C126.714 94.08 125.714 93.08 125.714 91.51ZM132.766 95H133.906V88.05H132.766V95ZM139.972 88.04V93.22L136.542 88.04H135.402V95H136.542V89.81L139.972 95H141.112V88.04H139.972ZM142.249 88.98H144.109V95H145.249V88.98H147.099V88.05H142.249V88.98ZM152.944 93.03C152.944 90.49 149.264 91.47 149.264 89.9C149.264 89.23 149.774 88.91 150.434 88.93C151.154 88.95 151.564 89.38 151.604 89.85H152.864C152.764 88.66 151.824 87.96 150.494 87.96C149.074 87.96 148.104 88.72 148.104 89.94C148.104 92.5 151.794 91.41 151.794 93.09C151.794 93.68 151.344 94.11 150.544 94.11C149.754 94.11 149.354 93.65 149.304 93.08H148.084C148.084 94.31 149.154 95.07 150.544 95.07C152.094 95.07 152.944 94.07 152.944 93.03Z" fill="black"/>
<path d="M12.89 166.25V163.98H14.15C15.04 163.98 15.44 164.4 15.44 165.12C15.44 165.82 15.04 166.25 14.15 166.25H12.89ZM16.61 165.12C16.61 163.99 15.8 163.05 14.15 163.05H11.75V170H12.89V167.18H14.15C15.96 167.18 16.61 166.11 16.61 165.12ZM17.6973 163.05V170H21.1873V169.08H18.8373V163.05H17.6973ZM26.8306 170H28.0306L25.5406 163.04H24.2206L21.7306 170H22.9206L23.4206 168.58H26.3306L26.8306 170ZM26.0106 167.65H23.7406L24.8806 164.42L26.0106 167.65ZM30.8233 167.48V170H31.9633V167.48L34.2633 163.05H33.0033L31.3933 166.46L29.7833 163.05H28.5133L30.8233 167.48ZM37.7656 163.05V170H41.2556V169.08H38.9056V163.05H37.7656ZM48.929 166.51C48.929 164.43 47.359 162.96 45.379 162.96C43.419 162.96 41.829 164.43 41.829 166.51C41.829 168.6 43.419 170.07 45.379 170.07C47.359 170.07 48.929 168.6 48.929 166.51ZM42.999 166.51C42.999 164.94 43.999 163.96 45.379 163.96C46.759 163.96 47.759 164.94 47.759 166.51C47.759 168.08 46.759 169.08 45.379 169.08C43.999 169.08 42.999 168.08 42.999 166.51ZM56.7708 166.51C56.7708 164.43 55.2008 162.96 53.2208 162.96C51.2608 162.96 49.6708 164.43 49.6708 166.51C49.6708 168.6 51.2608 170.07 53.2208 170.07C55.2008 170.07 56.7708 168.6 56.7708 166.51ZM50.8408 166.51C50.8408 164.94 51.8408 163.96 53.2208 163.96C54.6008 163.96 55.6008 164.94 55.6008 166.51C55.6008 168.08 54.6008 169.08 53.2208 169.08C51.8408 169.08 50.8408 168.08 50.8408 166.51ZM59.0326 166.25V163.98H60.2926C61.1826 163.98 61.5826 164.4 61.5826 165.12C61.5826 165.82 61.1826 166.25 60.2926 166.25H59.0326ZM62.7526 165.12C62.7526 163.99 61.9426 163.05 60.2926 163.05H57.8926V170H59.0326V167.18H60.2926C62.1026 167.18 62.7526 166.11 62.7526 165.12Z" fill="black"/>
<path d="M12.89 244.25V241.98H14.15C15.04 241.98 15.44 242.4 15.44 243.12C15.44 243.82 15.04 244.25 14.15 244.25H12.89ZM16.61 243.12C16.61 241.99 15.8 241.05 14.15 241.05H11.75V248H12.89V245.18H14.15C15.96 245.18 16.61 244.11 16.61 243.12ZM17.6973 241.05V248H21.1873V247.08H18.8373V241.05H17.6973ZM26.8306 248H28.0306L25.5406 241.04H24.2206L21.7306 248H22.9206L23.4206 246.58H26.3306L26.8306 248ZM26.0106 245.65H23.7406L24.8806 242.42L26.0106 245.65ZM30.8233 245.48V248H31.9633V245.48L34.2633 241.05H33.0033L31.3933 244.46L29.7833 241.05H28.5133L30.8233 245.48ZM41.6056 241.04H37.7656V248H41.6056V247.07H38.9056V244.94H41.3056V244.01H38.9056V241.97H41.6056V241.04ZM45.2798 241.05H43.0098V248H45.2798C47.5098 248 48.9698 246.69 48.9698 244.55C48.9698 242.4 47.5098 241.05 45.2798 241.05ZM44.1498 247.07V241.98H45.2798C46.9198 241.98 47.7998 242.96 47.7998 244.55C47.7998 246.13 46.9198 247.07 45.2798 247.07H44.1498ZM50.0996 248H51.2396V241.05H50.0996V248ZM52.3763 241.98H54.2363V248H55.3763V241.98H57.2263V241.05H52.3763V241.98Z" fill="black"/>
<path d="M99.02 241.05H96.75V248H99.02C101.25 248 102.71 246.69 102.71 244.55C102.71 242.4 101.25 241.05 99.02 241.05ZM97.89 247.07V241.98H99.02C100.66 241.98 101.54 242.96 101.54 244.55C101.54 246.13 100.66 247.07 99.02 247.07H97.89ZM110.56 244.51C110.56 242.43 108.99 240.96 107.01 240.96C105.05 240.96 103.46 242.43 103.46 244.51C103.46 246.6 105.05 248.07 107.01 248.07C108.99 248.07 110.56 246.6 110.56 244.51ZM104.63 244.51C104.63 242.94 105.63 241.96 107.01 241.96C108.39 241.96 109.39 242.94 109.39 244.51C109.39 246.08 108.39 247.08 107.01 247.08C105.63 247.08 104.63 246.08 104.63 244.51ZM113.092 248.01L114.372 248L115.922 242.74L117.382 248H118.672L120.732 241.05H119.512L118.062 246.68L116.612 241.05H115.332L113.772 246.71L112.332 241.05H111.122L113.092 248.01ZM126.242 241.04V246.22L122.812 241.04H121.672V248H122.812V242.81L126.242 248H127.382V241.04H126.242ZM128.879 241.05V248H132.369V247.08H130.019V241.05H128.879ZM140.042 244.51C140.042 242.43 138.472 240.96 136.492 240.96C134.532 240.96 132.942 242.43 132.942 244.51C132.942 246.6 134.532 248.07 136.492 248.07C138.472 248.07 140.042 246.6 140.042 244.51ZM134.112 244.51C134.112 242.94 135.112 241.96 136.492 241.96C137.872 241.96 138.872 242.94 138.872 244.51C138.872 246.08 137.872 247.08 136.492 247.08C135.112 247.08 134.112 246.08 134.112 244.51ZM145.854 248H147.054L144.564 241.04H143.244L140.754 248H141.944L142.444 246.58H145.354L145.854 248ZM145.034 245.65H142.764L143.904 242.42L145.034 245.65ZM150.407 241.05H148.137V248H150.407C152.637 248 154.097 246.69 154.097 244.55C154.097 242.4 152.637 241.05 150.407 241.05ZM149.277 247.07V241.98H150.407C152.047 241.98 152.927 242.96 152.927 244.55C152.927 246.13 152.047 247.07 150.407 247.07H149.277ZM159.004 247.34C159.004 246.93 158.684 246.61 158.284 246.61C157.874 246.61 157.554 246.93 157.554 247.34C157.554 247.75 157.874 248.07 158.284 248.07C158.684 248.07 159.004 247.75 159.004 247.34ZM161.646 248.01L162.926 248L164.476 242.74L165.936 248H167.226L169.286 241.05H168.066L166.616 246.68L165.166 241.05H163.886L162.326 246.71L160.886 241.05H159.676L161.646 248.01ZM174.917 248H176.117L173.627 241.04H172.307L169.817 248H171.007L171.507 246.58H174.417L174.917 248ZM174.097 245.65H171.827L172.967 242.42L174.097 245.65ZM179.919 246.83L177.859 241.05H176.639L179.259 248H180.579L183.189 241.05H181.989L179.919 246.83Z" fill="black"/>
<path d="M239.44 243.13C239.44 243.82 239.04 244.31 238.15 244.31H236.89V241.98H238.15C239.04 241.98 239.44 242.43 239.44 243.13ZM235.75 241.05V248H236.89V245.22H237.76L239.36 248H240.72L239 245.12C240.17 244.83 240.61 243.95 240.61 243.13C240.61 242 239.8 241.05 238.15 241.05H235.75ZM245.908 241.04H242.068V248H245.908V247.07H243.208V244.94H245.608V244.01H243.208V241.97H245.908V241.04ZM248.453 244.25V241.98H249.713C250.603 241.98 251.003 242.4 251.003 243.12C251.003 243.82 250.603 244.25 249.713 244.25H248.453ZM252.173 243.12C252.173 241.99 251.363 241.05 249.713 241.05H247.313V248H248.453V245.18H249.713C251.523 245.18 252.173 244.11 252.173 243.12ZM257.1 241.04H253.26V248H257.1V247.07H254.4V244.94H256.8V244.01H254.4V241.97H257.1V241.04ZM263.194 248H264.394L261.904 241.04H260.584L258.094 248H259.284L259.784 246.58H262.694L263.194 248ZM262.374 245.65H260.104L261.244 242.42L262.374 245.65ZM265.117 241.98H266.977V248H268.117V241.98H269.967V241.05H265.117V241.98ZM277.559 241.04H273.719V248H277.559V247.07H274.859V244.94H277.259V244.01H274.859V241.97H277.559V241.04ZM281.233 241.05H278.963V248H281.233C283.463 248 284.923 246.69 284.923 244.55C284.923 242.4 283.463 241.05 281.233 241.05ZM280.103 247.07V241.98H281.233C282.873 241.98 283.753 242.96 283.753 244.55C283.753 246.13 282.873 247.07 281.233 247.07H280.103ZM286.053 248H287.193V241.05H286.053V248ZM288.329 241.98H290.189V248H291.329V241.98H293.179V241.05H288.329V241.98Z" fill="black"/>
<path d="M232.44 165.13C232.44 165.82 232.04 166.31 231.15 166.31H229.89V163.98H231.15C232.04 163.98 232.44 164.43 232.44 165.13ZM228.75 163.05V170H229.89V167.22H230.76L232.36 170H233.72L232 167.12C233.17 166.83 233.61 165.95 233.61 165.13C233.61 164 232.8 163.05 231.15 163.05H228.75ZM238.908 163.04H235.068V170H238.908V169.07H236.208V166.94H238.608V166.01H236.208V163.97H238.908V163.04ZM241.453 166.25V163.98H242.713C243.603 163.98 244.003 164.4 244.003 165.12C244.003 165.82 243.603 166.25 242.713 166.25H241.453ZM245.173 165.12C245.173 163.99 244.363 163.05 242.713 163.05H240.313V170H241.453V167.18H242.713C244.523 167.18 245.173 166.11 245.173 165.12ZM250.1 163.04H246.26V170H250.1V169.07H247.4V166.94H249.8V166.01H247.4V163.97H250.1V163.04ZM256.194 170H257.394L254.904 163.04H253.584L251.094 170H252.284L252.784 168.58H255.694L256.194 170ZM255.374 167.65H253.104L254.244 164.42L255.374 167.65ZM258.117 163.98H259.977V170H261.117V163.98H262.967V163.05H258.117V163.98ZM266.719 163.05V170H270.209V169.08H267.859V163.05H266.719ZM277.882 166.51C277.882 164.43 276.312 162.96 274.332 162.96C272.372 162.96 270.782 164.43 270.782 166.51C270.782 168.6 272.372 170.07 274.332 170.07C276.312 170.07 277.882 168.6 277.882 166.51ZM271.952 166.51C271.952 164.94 272.952 163.96 274.332 163.96C275.712 163.96 276.712 164.94 276.712 166.51C276.712 168.08 275.712 169.08 274.332 169.08C272.952 169.08 271.952 168.08 271.952 166.51ZM285.724 166.51C285.724 164.43 284.154 162.96 282.174 162.96C280.214 162.96 278.624 164.43 278.624 166.51C278.624 168.6 280.214 170.07 282.174 170.07C284.154 170.07 285.724 168.6 285.724 166.51ZM279.794 166.51C279.794 164.94 280.794 163.96 282.174 163.96C283.554 163.96 284.554 164.94 284.554 166.51C284.554 168.08 283.554 169.08 282.174 169.08C280.794 169.08 279.794 168.08 279.794 166.51ZM287.986 166.25V163.98H289.246C290.136 163.98 290.536 164.4 290.536 165.12C290.536 165.82 290.136 166.25 289.246 166.25H287.986ZM291.706 165.12C291.706 163.99 290.896 163.05 289.246 163.05H286.846V170H287.986V167.18H289.246C291.056 167.18 291.706 166.11 291.706 165.12Z" fill="black"/>
<path d="M245.884 62.643C245.884 63.402 245.444 63.941 244.465 63.941H243.079V61.378H244.465C245.444 61.378 245.884 61.873 245.884 62.643ZM241.825 60.355V68H243.079V64.942H244.036L245.796 68H247.292L245.4 64.832C246.687 64.513 247.171 63.545 247.171 62.643C247.171 61.4 246.28 60.355 244.465 60.355H241.825ZM252.999 60.344H248.775V68H252.999V66.977H250.029V64.634H252.669V63.611H250.029V61.367H252.999V60.344ZM259.703 65.833C259.703 63.039 255.655 64.117 255.655 62.39C255.655 61.653 256.216 61.301 256.942 61.323C257.734 61.345 258.185 61.818 258.229 62.335H259.615C259.505 61.026 258.471 60.256 257.008 60.256C255.446 60.256 254.379 61.092 254.379 62.434C254.379 65.25 258.438 64.051 258.438 65.899C258.438 66.548 257.943 67.021 257.063 67.021C256.194 67.021 255.754 66.515 255.699 65.888H254.357C254.357 67.241 255.534 68.077 257.063 68.077C258.768 68.077 259.703 66.977 259.703 65.833ZM265.406 60.344H261.182V68H265.406V66.977H262.436V64.634H265.076V63.611H262.436V61.367H265.406V60.344ZM266.555 61.378H268.601V68H269.855V61.378H271.89V60.355H266.555V61.378Z" fill="black"/>
<path d="M170.884 62.643C170.884 63.402 170.444 63.941 169.465 63.941H168.079V61.378H169.465C170.444 61.378 170.884 61.873 170.884 62.643ZM166.825 60.355V68H168.079V64.942H169.036L170.796 68H172.292L170.4 64.832C171.687 64.513 172.171 63.545 172.171 62.643C172.171 61.4 171.28 60.355 169.465 60.355H166.825ZM178.934 68H180.254L177.515 60.344H176.063L173.324 68H174.633L175.183 66.438H178.384L178.934 68ZM178.032 65.415H175.535L176.789 61.862L178.032 65.415ZM183.942 60.355H181.445V68H183.942C186.395 68 188.001 66.559 188.001 64.205C188.001 61.84 186.395 60.355 183.942 60.355ZM182.699 66.977V61.378H183.942C185.746 61.378 186.714 62.456 186.714 64.205C186.714 65.943 185.746 66.977 183.942 66.977H182.699ZM189.244 68H190.498V60.355H189.244V68ZM199.536 64.161C199.536 61.873 197.809 60.256 195.631 60.256C193.475 60.256 191.726 61.873 191.726 64.161C191.726 66.46 193.475 68.077 195.631 68.077C197.809 68.077 199.536 66.46 199.536 64.161ZM193.013 64.161C193.013 62.434 194.113 61.356 195.631 61.356C197.149 61.356 198.249 62.434 198.249 64.161C198.249 65.888 197.149 66.988 195.631 66.988C194.113 66.988 193.013 65.888 193.013 64.161Z" fill="black"/>
<path d="M208.08 88.05H203.5V89.04H206.72L203.5 94.11V95H208.08V94.01H204.85L208.08 88.94V88.05ZM212.566 88.04H208.726V95H212.566V94.07H209.866V91.94H212.266V91.01H209.866V88.97H212.566V88.04ZM217.06 90.13C217.06 90.82 216.66 91.31 215.77 91.31H214.51V88.98H215.77C216.66 88.98 217.06 89.43 217.06 90.13ZM213.37 88.05V95H214.51V92.22H215.38L216.98 95H218.34L216.62 92.12C217.79 91.83 218.23 90.95 218.23 90.13C218.23 89 217.42 88.05 215.77 88.05H213.37ZM225.809 91.51C225.809 89.43 224.239 87.96 222.259 87.96C220.299 87.96 218.709 89.43 218.709 91.51C218.709 93.6 220.299 95.07 222.259 95.07C224.239 95.07 225.809 93.6 225.809 91.51ZM219.879 91.51C219.879 89.94 220.879 88.96 222.259 88.96C223.639 88.96 224.639 89.94 224.639 91.51C224.639 93.08 223.639 94.08 222.259 94.08C220.879 94.08 219.879 93.08 219.879 91.51ZM235.048 91.51C235.048 89.43 233.478 87.96 231.498 87.96C229.538 87.96 227.948 89.43 227.948 91.51C227.948 93.6 229.538 95.07 231.498 95.07C233.478 95.07 235.048 93.6 235.048 91.51ZM229.118 91.51C229.118 89.94 230.118 88.96 231.498 88.96C232.878 88.96 233.878 89.94 233.878 91.51C233.878 93.08 232.878 94.08 231.498 94.08C230.118 94.08 229.118 93.08 229.118 91.51ZM235.56 92.46C235.56 94.23 236.8 95.07 238.26 95.07C239.71 95.07 240.99 94.23 240.99 92.46V88.05H239.85V92.48C239.85 93.56 239.24 94.07 238.27 94.07C237.31 94.07 236.7 93.56 236.7 92.48V88.05H235.56V92.46ZM241.514 88.98H243.374V95H244.514V88.98H246.364V88.05H241.514V88.98ZM253.606 95H254.806L252.316 88.04H250.996L248.506 95H249.696L250.196 93.58H253.106L253.606 95ZM252.786 92.65H250.516L251.656 89.42L252.786 92.65ZM255.289 88.05V95H258.779V94.08H256.429V88.05H255.289ZM259.132 88.05V95H262.622V94.08H260.272V88.05H259.132ZM264.973 88.05V95H268.463V94.08H266.113V88.05H264.973ZM275.537 91.51C275.537 89.43 273.967 87.96 271.987 87.96C270.027 87.96 268.437 89.43 268.437 91.51C268.437 93.6 270.027 95.07 271.987 95.07C273.967 95.07 275.537 93.6 275.537 91.51ZM269.607 91.51C269.607 89.94 270.607 88.96 271.987 88.96C273.367 88.96 274.367 89.94 274.367 91.51C274.367 93.08 273.367 94.08 271.987 94.08C270.607 94.08 269.607 93.08 269.607 91.51ZM282.779 91.51C282.779 89.43 281.209 87.96 279.229 87.96C277.269 87.96 275.679 89.43 275.679 91.51C275.679 93.6 277.269 95.07 279.229 95.07C281.209 95.07 282.779 93.6 282.779 91.51ZM276.849 91.51C276.849 89.94 277.849 88.96 279.229 88.96C280.609 88.96 281.609 89.94 281.609 91.51C281.609 93.08 280.609 94.08 279.229 94.08C277.849 94.08 276.849 93.08 276.849 91.51ZM284.44 91.25V88.98H285.7C286.59 88.98 286.99 89.4 286.99 90.12C286.99 90.82 286.59 91.25 285.7 91.25H284.44ZM288.16 90.12C288.16 88.99 287.35 88.05 285.7 88.05H283.3V95H284.44V92.18H285.7C287.51 92.18 288.16 91.11 288.16 90.12ZM293.338 93.03C293.338 90.49 289.658 91.47 289.658 89.9C289.658 89.23 290.168 88.91 290.828 88.93C291.548 88.95 291.958 89.38 291.998 89.85H293.258C293.158 88.66 292.218 87.96 290.888 87.96C289.468 87.96 288.498 88.72 288.498 89.94C288.498 92.5 292.188 91.41 292.188 93.09C292.188 93.68 291.738 94.11 290.938 94.11C290.148 94.11 289.748 93.65 289.698 93.08H288.478C288.478 94.31 289.548 95.07 290.938 95.07C292.488 95.07 293.338 94.07 293.338 93.03Z" fill="black"/>
<path d="M28.9623 6.42957H28.2808C18.4952 6.42957 10.5625 14.3623 10.5625 24.1478C10.5625 33.9334 18.4952 41.8661 28.2808 41.8661H28.9623C38.7478 41.8661 46.6805 33.9334 46.6805 24.1478C46.6805 14.3623 38.7478 6.42957 28.9623 6.42957Z" fill="#515151" fill-opacity="0.1"/>
<path d="M9.38807 35.022C7.20085 35.6541 4.68427 36.3048 3.01572 36.6383C3.83202 35.9359 4.85839 35.1254 5.41648 34.6604C7.15083 33.2711 7.30072 33.1574 7.16078 32.5621C7.02516 31.9855 6.79431 31.922 5.04051 31.3922C4.38953 31.2116 3.24954 30.8712 2.47494 30.5823C3.49146 29.8132 5.40851 28.6165 6.27296 28.1188C6.6066 28.4526 7.13059 29.0949 7.57143 29.7175C7.86242 30.1202 8.43571 30.2209 8.83839 29.9299C9.24107 29.639 9.32759 29.0886 9.03224 28.6673C7.10476 25.9799 6.54674 26.1111 6.10034 26.2161C5.65391 26.3211 3.10002 27.9816 3.06281 27.9904C0.289014 29.8008 0.0361883 30.3117 0.147711 30.9528C0.284346 31.7844 1.14648 32.1116 4.48338 33.1132C4.43635 33.1635 4.37069 33.2182 4.30067 33.2543C0.503679 36.3064 -0.169309 37.0339 0.031896 37.8895C0.0931263 38.1499 0.26598 38.3841 0.514308 38.522C0.744067 38.6642 1.22216 38.9444 4.88647 38.0827C6.15128 37.7853 7.77938 37.3632 9.89222 36.7486C10.3671 36.5977 10.6429 36.101 10.5105 35.6217C10.3782 35.1425 9.86292 34.8711 9.38807 35.022Z" fill="black"/>
<path d="M18.3657 21.1727C17.8658 21.1332 17.4389 21.4888 17.3765 21.9745L16.7202 28.7831C16.1655 27.6769 15.481 26.6013 14.7576 26.2806C14.4305 26.1416 14.0737 26.1273 13.7521 26.2619C12.3166 26.835 10.9601 34.3382 10.9325 35.974C10.9117 36.4696 10.8863 37.614 11.7387 37.9829C11.8951 38.0639 12.1575 38.1788 12.5667 38.0825C13.2921 37.912 14.4588 37.0291 16.2272 33.8652L16.0156 36.0545C15.9532 36.5403 16.3131 36.9856 16.8133 37.0251C16.9148 37.0404 17.0123 37.0372 17.1053 37.0153C17.4774 36.9278 17.7595 36.6259 17.8024 36.2232L19.1674 22.1619C19.2257 21.6575 18.8471 21.2165 18.3657 21.1727ZM12.7135 35.8691C12.7994 34.0628 13.7419 29.9742 14.3995 28.3474C14.7671 28.9087 15.2769 29.9077 15.7025 30.9657C14.6813 33.051 13.472 35.0038 12.7135 35.8691Z" fill="black"/>
<path d="M20.5415 28.6497C20.0417 28.6103 19.6236 29.003 19.6028 29.4987C19.5905 29.6978 19.3943 34.455 19.3677 35.3445C19.3513 35.8587 19.7398 36.2581 20.2539 36.2746C20.3142 36.2801 20.3885 36.2626 20.4628 36.2451C20.8536 36.1532 21.1456 35.8097 21.1654 35.3929C21.1732 34.5077 21.3992 29.6258 21.409 29.5843C21.4298 29.0886 21.0373 28.6706 20.5415 28.6497ZM20.9317 23.9648C20.4318 23.9253 19.9865 24.2853 19.9425 24.7667L19.7531 26.7153C19.6948 27.2196 20.0549 27.665 20.5548 27.7044C20.6567 27.7198 20.7541 27.7165 20.8468 27.6946C21.2189 27.6072 21.5014 27.3052 21.544 26.9026L21.7334 24.954C21.7729 24.454 21.4176 24.0272 20.9317 23.9648Z" fill="black"/>
<path d="M29.441 25.0654C28.3084 25.1746 27.2351 25.3681 26.2963 25.5496L26.3338 24.2061C26.3546 23.7104 25.9617 23.2924 25.4663 23.2716C24.9562 23.2737 24.5569 23.662 24.5361 24.1577L24.4921 25.9739C23.4689 26.2145 22.8127 26.4277 22.7568 26.4409C22.2862 26.6104 22.029 27.1027 22.1799 27.5776C22.3308 28.0524 22.842 28.3052 23.3166 28.1543C23.3166 28.1543 23.7357 28.0165 24.4196 27.8361L24.2427 34.1786C24.2403 34.6699 24.6145 35.0923 25.1242 35.0902C25.2073 35.1099 25.282 35.0923 25.3562 35.0749C25.7283 34.9874 26.0203 34.6439 26.0401 34.227L26.2425 27.4074C27.2327 27.1942 28.399 26.9788 29.6243 26.8477C29.6618 26.8389 29.6989 26.8302 29.7361 26.8215C30.1824 26.7165 30.4802 26.3128 30.4308 25.8533C30.3729 25.3565 29.9378 25.0074 29.441 25.0654Z" fill="black"/>
<path d="M43.6265 14.5655C38.986 15.2837 27.2326 19.559 26.7249 19.7373C26.2731 19.9025 26.0203 20.4134 26.1896 20.8838C26.3505 21.3172 26.8013 21.5645 27.2476 21.4595C27.2848 21.4508 27.3175 21.4234 27.3362 21.419C27.3921 21.4059 29.2552 20.7322 31.7797 19.8638L30.7037 30.8146C30.6642 31.3147 31.0199 31.7414 31.5055 31.8038C31.6073 31.8192 31.7004 31.7973 31.7934 31.7754C32.1655 31.6879 32.4476 31.386 32.495 31.002L33.6518 19.2273C37.2932 18.0177 41.5943 16.6922 43.8888 16.3489C44.3768 16.2538 44.7212 15.7998 44.6494 15.326C44.5727 14.8337 44.1001 14.4933 43.6265 14.5655Z" fill="black"/>
<path d="M37.8892 28.8111C37.9867 28.8078 38.0885 28.8231 38.1816 28.8013C38.2 28.7969 38.2187 28.7925 38.2374 28.7882C38.6092 28.7007 38.909 28.4731 39.1128 28.1701C40.7204 25.574 41.0635 20.6056 40.0284 19.7105C39.8273 19.5223 39.4944 19.4435 39.2297 19.4861C38.9049 19.5233 38.4354 19.614 36.4735 22.7057L36.5293 21.6915C36.5501 21.1959 36.176 20.7735 35.699 20.7483C35.1988 20.7088 34.7578 21.0873 34.7371 21.5829L34.475 26.0611C34.427 26.1902 34.4202 26.3292 34.4508 26.4594L34.0321 33.1925C34.0113 33.6881 34.3854 34.1105 34.8809 34.1314C34.964 34.1511 35.057 34.1292 35.1316 34.1117C35.5221 34.0199 35.8002 33.6993 35.824 33.3011L36.0554 29.6938L44.1536 38.5887C44.3646 38.7354 44.6327 38.7901 44.893 38.7289C45.0978 38.6807 45.2661 38.5626 45.4031 38.393C45.7006 37.9894 45.6065 37.4226 45.2031 37.1249L37.8892 28.8111ZM38.8037 22.4325C38.7622 23.7575 38.4906 25.6076 37.7015 27.0102C37.4105 26.9412 36.8578 26.6785 36.3481 26.3469C37.1788 24.9543 38.1076 23.4795 38.8037 22.4325Z" fill="black"/>
<path d="M47.8639 19.7516C47.364 19.7121 46.9371 20.0677 46.8792 20.5721L46.7793 21.734C46.2205 20.6092 45.5357 19.5336 44.8126 19.2129C44.4855 19.0739 44.1288 19.0596 43.8071 19.1942C42.3716 19.7673 41.0148 27.2705 40.9872 28.9062C40.9664 29.4019 40.9412 30.5463 41.7934 30.9151C41.9498 30.9961 42.2125 31.111 42.6217 31.0148C43.3471 30.8442 44.5135 29.9614 46.2819 26.7975L46.0706 28.9868C46.0083 29.4726 46.3681 29.9179 46.8679 29.9574C46.9698 29.9727 47.0673 29.9694 47.1603 29.9475C47.532 29.8601 47.8145 29.5582 47.8571 29.1555L48.6657 20.7408C48.7284 20.255 48.3682 19.8097 47.8639 19.7516ZM42.7685 28.8014C42.8541 26.9951 43.7965 22.9065 44.4545 21.2796C44.8222 21.841 45.3319 22.8399 45.7571 23.898C44.7363 25.9833 43.527 27.9361 42.7685 28.8014Z" fill="black"/>
<path d="M55.3996 16.9786C54.9577 16.7685 54.4169 16.9741 54.2111 17.4347L52.4601 21.3404L50.7571 18.5218C50.4988 18.0917 49.9396 17.968 49.5284 18.2218C49.0984 18.48 48.9515 19.0248 49.2098 19.4548L51.5748 23.3349L49.5171 27.9408C49.3069 28.3828 49.5127 28.9233 49.9734 29.1291C50.1482 29.2057 50.3475 29.2178 50.5335 29.1741C50.7939 29.1128 51.028 28.94 51.1428 28.6774L52.7023 25.2092L54.3379 27.9065C54.5369 28.2522 54.9427 28.3923 55.3148 28.3049C55.3894 28.2874 55.4824 28.2655 55.5666 28.2064C55.9966 27.9483 56.1247 27.4078 55.8664 26.9778L53.5879 23.2148L55.8555 18.1669C56.0613 17.7063 55.8599 17.1843 55.3996 16.9786Z" fill="black"/>
<path d="M47.2946 34.7944C47.2946 34.525 47.0819 34.312 46.7432 34.312C46.4001 34.312 46.1875 34.525 46.1875 34.7944C46.1875 35.0595 46.4001 35.2681 46.7432 35.2681C47.0819 35.2681 47.2946 35.0595 47.2946 34.7944Z" fill="black"/>
<path d="M49.6325 32.1565V33.7297L48.6124 32.1565H47.6484V35.2334H48.6124V33.6862L49.6325 35.2334H50.5965V32.1565H49.6325Z" fill="black"/>
<path d="M51.0312 35.2334H51.9952V34.073H52.8634V33.3472H51.9952V32.9214H53.2021V32.1565H51.0312V35.2334Z" fill="black"/>
<path d="M53.3594 32.9214H54.1669V35.2334H55.1309V32.9214H55.9473V32.1565H53.3594V32.9214Z" fill="black"/>
</g>
<defs>
<clipPath id="clip0_752_5690">
<rect width="300" height="250" fill="white"/>
</clipPath>
<clipPath id="clip1_752_5690">
<rect width="18.1231" height="18.1231" fill="white" transform="translate(48.6797 197)"/>
</clipPath>
</defs>
</svg>
