<svg width="418" height="91" viewBox="0 0 418 91" fill="none" xmlns="http://www.w3.org/2000/svg">
<path d="M66.0882 17.86C63.1182 6.52999 45.0782 3.78 7.89824 8.95C5.03824 9.39 3.05824 12.03 3.38824 14.78C3.82824 17.64 6.46824 19.62 9.32824 19.29C13.2882 18.63 16.9182 18.19 20.2182 17.86C0.418236 66.26 2.61824 68.46 5.03824 70.99C6.13824 72.09 7.56824 72.64 8.99824 72.64C9.65824 72.64 10.4282 72.53 11.0882 72.2C11.7482 71.98 71.6982 38.65 66.0882 17.86ZM16.2582 57.24C19.6682 47.34 25.8282 31.61 31.8782 16.98C54.4282 15.88 56.0782 20.5 56.0782 20.5C58.1682 27.32 31.7682 47.23 16.2582 57.24ZM69.61 40.41C66.86 39.53 64 41.18 63.23 43.93C62.9 45.03 55.53 71.43 54.21 76.38C53.44 79.24 55.09 81.99 57.95 82.76C58.28 82.87 58.72 82.87 59.16 82.87C61.47 82.87 63.56 81.33 64.22 79.02C65.43 74.07 73.13 47.01 73.24 46.79C74.01 44.04 72.36 41.18 69.61 40.41ZM77.97 14.67C75.2199 13.79 72.25 15.22 71.37 17.86L67.74 28.53C66.75 31.28 68.18 34.25 70.9299 35.13C71.48 35.35 72.03 35.46 72.5799 35.46C74.78 35.46 76.7599 34.14 77.5299 31.94L81.16 21.27C82.04 18.52 80.61 15.66 77.97 14.67ZM121.142 63.07C120.042 57.24 112.782 55.59 101.892 52.95C96.7224 51.74 91.3324 50.53 87.2624 48.88C87.1524 48.88 87.0424 48.77 86.9324 48.77C89.9024 45.47 99.6924 40.19 106.402 36.78L105.742 43.16C105.522 46.02 107.612 48.55 110.362 48.88C110.582 48.88 110.802 48.88 110.912 48.88C113.552 48.88 115.752 46.9 116.082 44.26L118.062 23.69C118.392 20.83 116.302 18.3 113.442 17.97C110.692 17.75 108.052 19.84 107.832 22.7L107.612 24.9C107.062 25.01 106.512 25.12 106.072 25.34C87.5924 34.58 75.4924 41.29 75.8224 49.76C75.9324 52.4 77.3624 56.14 83.4124 58.45C88.2524 60.43 94.3024 61.86 99.5824 63.07C101.782 63.62 104.642 64.28 107.062 64.94C98.5924 69.12 84.6224 72.97 79.1224 74.18C76.3724 74.84 74.6124 77.59 75.2724 80.45C75.8224 82.76 78.0224 84.41 80.3324 84.41C80.6624 84.41 81.1024 84.41 81.5424 84.3C82.5324 84.08 106.292 78.47 116.742 71.32C121.032 68.46 121.472 65.27 121.142 63.07ZM164.274 32.05C157.784 31.17 151.514 30.84 146.014 30.62L147.994 23.14C148.764 20.39 147.114 17.53 144.364 16.76C141.504 16.1 138.754 17.75 137.984 20.5L135.344 30.62C129.294 30.62 125.334 30.95 125.004 30.95C122.144 31.28 120.054 33.7 120.274 36.56C120.494 39.42 123.024 41.51 125.884 41.29C125.884 41.29 128.414 41.07 132.484 40.96L123.134 76.27C122.474 79.02 124.014 81.88 126.874 82.54C127.314 82.76 127.754 82.76 128.194 82.76C130.394 82.76 132.484 81.22 133.144 78.91L143.264 40.96C149.094 41.07 155.914 41.4 162.954 42.28C163.174 42.28 163.394 42.28 163.614 42.28C166.254 42.28 168.454 40.41 168.784 37.77C169.114 34.91 167.134 32.38 164.274 32.05ZM185.491 64.17C186.041 64.28 186.591 64.5 187.141 64.5C187.251 64.5 187.361 64.5 187.471 64.5C189.671 64.5 191.651 63.62 193.191 62.19C205.621 49.76 214.091 22.37 209.471 15.99C208.591 14.67 206.831 13.79 205.291 13.68C203.421 13.46 200.671 13.35 185.601 28.09L187.251 22.48C188.021 19.73 186.481 16.87 183.841 16.1C181.091 15.22 178.121 16.76 177.351 19.51L169.981 44.26C169.541 44.92 169.321 45.69 169.321 46.46L158.101 83.64C157.331 86.39 158.871 89.25 161.621 90.02C162.061 90.24 162.611 90.24 163.051 90.24C165.361 90.24 167.341 88.81 168.001 86.61L174.051 66.7L186.261 81C187.251 82.1 188.681 82.76 190.221 82.76C191.431 82.76 192.531 82.32 193.521 81.55C195.721 79.68 195.941 76.38 194.071 74.18L185.491 64.17ZM199.021 29.63C197.041 37 193.081 47.01 186.811 53.83C185.271 53.06 182.521 50.86 180.101 48.33C186.591 41.62 193.741 34.58 199.021 29.63ZM216.357 40.41C213.607 39.53 210.747 41.18 209.977 43.93C209.647 45.03 202.277 71.43 200.957 76.38C200.187 79.24 201.837 81.99 204.697 82.76C205.027 82.87 205.467 82.87 205.907 82.87C208.217 82.87 210.307 81.33 210.967 79.02C212.177 74.07 219.877 47.01 219.987 46.79C220.757 44.04 219.107 41.18 216.357 40.41ZM224.717 14.67C221.967 13.79 218.997 15.22 218.117 17.86L214.487 28.53C213.497 31.28 214.927 34.25 217.677 35.13C218.227 35.35 218.777 35.46 219.327 35.46C221.527 35.46 223.507 34.14 224.277 31.94L227.907 21.27C228.787 18.52 227.357 15.66 224.717 14.67ZM269.161 25.56C268.281 24.35 266.631 23.47 265.091 23.36C263.111 23.14 260.361 22.92 240.891 40.3L252.771 7.62999C253.651 4.99 252.331 2.01999 249.581 1.02999C246.941 0.0399936 243.971 1.46999 242.981 4.10999L215.041 81.11C214.051 83.75 215.481 86.72 218.121 87.71C218.671 87.93 219.331 88.04 219.881 88.04C221.971 88.04 224.061 86.72 224.721 84.63L229.451 71.65C233.191 76.82 237.701 81.66 241.991 82.54C242.541 82.76 243.091 82.76 243.751 82.76C245.181 82.76 246.721 82.32 247.931 81.44C254.421 76.93 268.611 39.75 270.041 31.5C270.371 29.63 270.481 27.54 269.161 25.56ZM242.981 71.54C240.781 69.56 237.261 65.16 234.401 60.43C241.991 53.28 250.351 45.69 256.621 40.41C252.771 51.19 246.391 66.15 242.981 71.54ZM324.991 20.61C322.351 19.62 319.381 20.94 318.391 23.58C318.281 23.58 318.281 23.69 318.281 23.91C317.841 24.13 317.401 24.57 317.071 25.01C301.451 46.02 281.651 69.34 273.621 74.84C273.071 67.36 280.441 46.24 291.001 26.11C292.321 23.58 291.331 20.5 288.801 19.18C286.271 17.86 283.191 18.85 281.871 21.38C273.841 36.56 256.351 73.19 266.911 84.41L267.791 85.18C268.671 85.73 269.771 86.5 271.531 86.5C276.151 86.5 285.171 81.44 306.181 55.81C302.551 65.93 299.251 75.5 298.151 79.9C297.491 82.65 299.141 85.51 301.891 86.17C302.331 86.28 302.771 86.28 303.101 86.28C305.521 86.28 307.611 84.74 308.161 82.43C310.691 72.09 327.851 27.76 327.961 27.32C329.061 24.68 327.741 21.6 324.991 20.61ZM369.515 32.05C363.025 31.17 356.755 30.84 351.255 30.62L353.235 23.14C354.005 20.39 352.355 17.53 349.605 16.76C346.745 16.1 343.995 17.75 343.225 20.5L340.585 30.62C334.535 30.62 330.575 30.95 330.245 30.95C327.385 31.28 325.295 33.7 325.515 36.56C325.735 39.42 328.265 41.51 331.125 41.29C331.125 41.29 333.655 41.07 337.725 40.96L328.375 76.27C327.715 79.02 329.255 81.88 332.115 82.54C332.555 82.76 332.995 82.76 333.435 82.76C335.635 82.76 337.725 81.22 338.385 78.91L348.505 40.96C354.335 41.07 361.155 41.4 368.195 42.28C368.415 42.28 368.635 42.28 368.855 42.28C371.495 42.28 373.695 40.41 374.025 37.77C374.355 34.91 372.375 32.38 369.515 32.05ZM406.624 39.31C407.394 42.06 410.144 43.6 413.004 42.83C415.754 42.06 417.294 39.2 416.524 36.45C413.444 25.12 409.814 23.58 406.954 23.47C398.154 23.03 377.804 38.76 374.064 42.72C373.404 43.38 371.644 45.36 371.974 48C372.524 52.29 375.604 53.17 390.124 57.79C390.564 57.9 391.004 58.01 391.554 58.23C390.894 58.56 390.344 58.89 389.794 59.11C371.204 69.34 367.244 71.87 367.244 76.38C367.244 77.92 367.904 79.46 369.114 80.56C370.214 81.66 372.194 83.53 389.244 83.53C394.194 83.53 400.464 83.31 408.384 82.98C411.244 82.76 413.444 80.34 413.334 77.59C413.224 74.73 410.694 72.42 407.944 72.64C400.574 72.97 392.434 73.19 386.054 73.08C389.134 71.32 392.324 69.56 394.744 68.24C407.504 61.2 409.044 60.32 408.384 56.14C407.724 52.4 405.854 51.85 393.204 47.89C391.224 47.23 388.694 46.46 386.384 45.69C391.884 41.4 400.354 35.79 404.754 34.25C405.414 35.57 406.074 37.55 406.624 39.31Z" fill="white"/>
</svg>
