<svg width="168" height="106" viewBox="0 0 168 106" fill="none" xmlns="http://www.w3.org/2000/svg">
<path d="M33.0123 69.8014C27.2156 71.4766 20.5462 73.201 16.124 74.0848C18.2875 72.2235 21.0076 70.0752 22.4866 68.8431C27.0831 65.1611 27.4804 64.8596 27.1095 63.2821C26.7501 61.7539 26.1383 61.5857 21.4903 60.1816C19.7651 59.7029 16.7437 58.8007 14.6909 58.0349C17.3849 55.9968 22.4656 52.8253 24.7565 51.5062C25.6408 52.3907 27.0295 54.093 28.1978 55.7431C28.969 56.8103 30.4884 57.0773 31.5556 56.3061C32.6228 55.5349 32.852 54.0764 32.0693 52.9599C26.961 45.8376 25.4821 46.1854 24.299 46.4636C23.1159 46.7418 16.3475 51.1426 16.2489 51.1658C8.89758 55.9638 8.22757 57.3178 8.52311 59.0171C8.88527 61.2209 11.1701 62.0882 20.0138 64.7426C19.8891 64.876 19.7151 65.0209 19.5295 65.1166C9.46651 73.2053 7.68294 75.1334 8.21618 77.401C8.37847 78.0911 8.83654 78.7117 9.49471 79.0772C10.1036 79.4542 11.3707 80.1967 21.082 77.9131C24.4341 77.1248 28.749 76.0061 34.3485 74.3772C35.607 73.9772 36.3379 72.6609 35.9872 71.3908C35.6365 70.1207 34.2708 69.4014 33.0123 69.8014Z" fill="white"/>
<path d="M56.8059 33.0971C55.4808 32.9926 54.3498 33.9348 54.1843 35.2222L52.445 53.2667C50.9753 50.3349 49.1604 47.4843 47.2439 46.6344C46.3769 46.266 45.4316 46.2282 44.5791 46.5848C40.7745 48.1037 37.1791 67.9892 37.1061 72.3242C37.0508 73.6377 36.9837 76.6708 39.2424 77.6483C39.657 77.8629 40.3529 78.1675 41.4374 77.9124C43.36 77.4603 46.4514 75.1207 51.1383 66.7355L50.5779 72.5377C50.4125 73.8251 51.3663 75.0054 52.6915 75.11C52.9611 75.1506 53.2192 75.1419 53.4657 75.084C54.4516 74.8521 55.1998 74.0519 55.313 72.9848L58.931 35.7187C59.0849 34.382 58.0818 33.2133 56.8059 33.0971ZM41.8268 72.0464C42.0536 67.2591 44.5517 56.4234 46.295 52.1118C47.269 53.5994 48.6199 56.247 49.7475 59.0512C47.0414 64.5776 43.8366 69.7531 41.8268 72.0464Z" fill="white"/>
<path d="M62.5757 52.9133C61.2505 52.8087 60.1427 53.8495 60.0874 55.1631C60.0555 55.6908 59.5348 68.2985 59.4648 70.656C59.4212 72.0188 60.4504 73.0773 61.8133 73.121C61.9727 73.1355 62.1699 73.0892 62.3671 73.0428C63.4023 72.7994 64.1767 71.889 64.229 70.7842C64.2496 68.4384 64.8487 55.5001 64.8748 55.3899C64.93 54.0764 63.8892 52.9685 62.5757 52.9133ZM63.6096 40.497C62.2845 40.3924 61.1042 41.3463 60.988 42.6221L60.4857 47.7864C60.3318 49.1231 61.2857 50.3034 62.6108 50.408C62.8805 50.4486 63.1385 50.4399 63.385 50.382C64.3709 50.1501 65.1192 49.3499 65.2324 48.2829L65.7347 43.1186C65.8393 41.7935 64.8971 40.6625 63.6096 40.497Z" fill="white"/>
<path d="M86.1598 43.4137C83.1585 43.7033 80.3139 44.2162 77.8259 44.6972L77.925 41.1364C77.9803 39.8229 76.9394 38.715 75.6259 38.6598C74.2746 38.6654 73.2161 39.6946 73.1608 41.0082L73.0442 45.8216C70.3329 46.4592 68.593 47.0244 68.4452 47.0592C67.1982 47.5084 66.5166 48.8132 66.9166 50.0717C67.3166 51.3302 68.6707 52.0002 69.9292 51.6003C69.9292 51.6003 71.0398 51.235 72.8522 50.7568L72.3831 67.5662C72.3771 68.8681 73.3686 69.9876 74.7199 69.9819C74.9402 70.0342 75.1374 69.9878 75.3346 69.9414C76.3205 69.7096 77.0949 68.7992 77.1472 67.6944L77.6832 49.6208C80.3075 49.0557 83.3986 48.4849 86.6463 48.1374C86.7449 48.1142 86.8434 48.091 86.942 48.0678C88.1251 47.7896 88.914 46.7197 88.7837 45.5019C88.6302 44.1854 87.4762 43.2602 86.1598 43.4137Z" fill="white"/>
<path d="M123.749 15.5864C111.452 17.4899 80.3018 28.8205 78.9563 29.293C77.7587 29.7307 77.0886 31.0847 77.5379 32.3317C77.964 33.48 79.1586 34.1355 80.3417 33.8573C80.4403 33.8341 80.5273 33.7616 80.5766 33.75C80.7245 33.7152 85.6629 31.9297 92.3527 29.6283L89.5014 58.6507C89.3968 59.9758 90.339 61.1069 91.6265 61.2723C91.8961 61.3129 92.1426 61.255 92.3891 61.197C93.375 60.9652 94.1232 60.165 94.2481 59.1472L97.3143 27.9413C106.965 24.7356 118.364 21.2227 124.445 20.313C125.738 20.0609 126.652 18.8577 126.46 17.6021C126.258 16.2972 125.005 15.3952 123.749 15.5864Z" fill="white"/>
<path d="M108.542 53.3409C108.8 53.3322 109.07 53.3728 109.316 53.3149C109.366 53.3033 109.415 53.2917 109.464 53.2801C110.45 53.0483 111.245 52.4452 111.784 51.6421C116.045 44.7617 116.954 31.5944 114.211 29.2221C113.678 28.7233 112.796 28.5144 112.095 28.6274C111.233 28.7259 109.989 28.9664 104.789 37.1602L104.937 34.4722C104.993 33.1587 104.001 32.0393 102.737 31.9724C101.412 31.8678 100.243 32.871 100.188 34.1845L99.4932 46.0528C99.3656 46.3949 99.3481 46.7632 99.4293 47.1083L98.3192 64.9527C98.2639 66.2663 99.2555 67.3857 100.569 67.4409C100.789 67.4932 101.036 67.4352 101.233 67.3888C102.268 67.1454 103.005 66.2959 103.069 65.2404L103.682 55.6803L125.144 79.254C125.703 79.6426 126.414 79.7877 127.104 79.6254C127.646 79.4979 128.093 79.1848 128.455 78.7354C129.244 77.6655 128.995 76.1635 127.925 75.3746L108.542 53.3409ZM110.966 36.4361C110.855 39.9476 110.135 44.8508 108.044 48.5679C107.273 48.3852 105.808 47.689 104.457 46.8103C106.659 43.1193 109.121 39.2108 110.966 36.4361Z" fill="white"/>
<path d="M134.986 29.331C133.661 29.2264 132.53 30.1686 132.376 31.5054L132.112 34.5848C130.631 31.6037 128.816 28.7531 126.899 27.9032C126.032 27.5349 125.087 27.497 124.235 27.8536C120.43 29.3725 116.835 49.258 116.762 53.593C116.706 54.9065 116.639 57.9396 118.898 58.9171C119.312 59.1317 120.008 59.4363 121.093 59.1812C123.015 58.7291 126.107 56.3895 130.794 48.0043L130.233 53.8065C130.068 55.0939 131.022 56.2742 132.347 56.3788C132.617 56.4194 132.875 56.4107 133.121 56.3528C134.107 56.1209 134.855 55.3207 134.968 54.2537L137.111 31.9525C137.277 30.6651 136.323 29.4848 134.986 29.331ZM121.482 53.3152C121.709 48.5279 124.207 37.6922 125.95 33.3806C126.924 34.8683 128.275 37.5158 129.403 40.32C126.697 45.8464 123.492 51.0219 121.482 53.3152Z" fill="white"/>
<path d="M154.957 21.9818C153.785 21.4249 152.353 21.9698 151.807 23.1905L147.167 33.5417L142.653 26.0716C141.969 24.9319 140.487 24.604 139.396 25.2766C138.257 25.9608 137.868 27.4048 138.552 28.5444L144.82 38.8275L139.367 51.0344C138.81 52.2058 139.355 53.6383 140.576 54.1836C141.04 54.3867 141.567 54.4186 142.06 54.3027C142.75 54.1404 143.371 53.6824 143.676 52.9865L147.809 43.7951L152.143 50.9433C152.671 51.8597 153.746 52.231 154.732 51.9992C154.929 51.9528 155.176 51.8948 155.399 51.7383C156.539 51.0541 156.878 49.6217 156.194 48.4821L150.155 38.5093L156.165 25.131C156.711 23.9103 156.177 22.5271 154.957 21.9818Z" fill="white"/>
<path d="M133.465 69.1944C133.465 68.4803 132.902 67.9159 132.004 67.9159C131.095 67.9159 130.531 68.4803 130.531 69.1944C130.531 69.897 131.095 70.4498 132.004 70.4498C132.902 70.4498 133.465 69.897 133.465 69.1944Z" fill="white"/>
<path d="M139.671 62.2031V66.3725L136.967 62.2031H134.413V70.3577H136.967V66.2574L139.671 70.3577H142.226V62.2031H139.671Z" fill="white"/>
<path d="M143.38 70.3577H145.934V67.2824H148.235V65.359H145.934V64.2302H149.133V62.2031H143.38V70.3577Z" fill="white"/>
<path d="M149.538 64.2302H151.678V70.3577H154.233V64.2302H156.396V62.2031H149.538V64.2302Z" fill="white"/>
<rect x="36.8887" width="93.9491" height="93.9491" rx="46.9746" fill="white" fill-opacity="0.1"/>
</svg>
