<svg width="72" height="50" viewBox="0 0 72 50" fill="none" xmlns="http://www.w3.org/2000/svg">
<path d="M13.9603 34.247C11.4743 34.9655 8.61394 35.705 6.71742 36.084C7.64524 35.2858 8.81184 34.3644 9.44614 33.836C11.4174 32.2569 11.5878 32.1276 11.4287 31.4511C11.2746 30.7957 11.0122 30.7235 9.01885 30.1214C8.27894 29.9161 6.98318 29.5292 6.10277 29.2007C7.25818 28.3267 9.43711 26.9665 10.4196 26.4008C10.7989 26.7801 11.3944 27.5102 11.8955 28.2178C12.2262 28.6755 12.8779 28.79 13.3355 28.4593C13.7932 28.1286 13.8915 27.503 13.5558 27.0242C11.3651 23.9697 10.7308 24.1188 10.2234 24.2382C9.71603 24.3575 6.81325 26.2448 6.77097 26.2548C3.61822 28.3125 3.33087 28.8932 3.45762 29.622C3.61294 30.5671 4.59283 30.9391 8.3856 32.0774C8.33212 32.1346 8.2575 32.1968 8.1779 32.2378C3.86221 35.7068 3.0973 36.5337 3.32598 37.5062C3.39559 37.8022 3.59204 38.0684 3.87431 38.2251C4.13544 38.3868 4.67884 38.7052 8.84373 37.7259C10.2814 37.3878 12.1319 36.908 14.5333 36.2094C15.073 36.0379 15.3865 35.4734 15.2361 34.9286C15.0857 34.3839 14.5 34.0755 13.9603 34.247Z" fill="white"/>
<path d="M24.1646 18.5057C23.5963 18.4608 23.1113 18.8649 23.0403 19.4171L22.2944 27.1558C21.664 25.8984 20.8857 24.6759 20.0638 24.3114C19.692 24.1534 19.2865 24.1372 18.9209 24.2901C17.2892 24.9415 15.7473 33.4698 15.716 35.329C15.6923 35.8923 15.6635 37.1931 16.6322 37.6123C16.81 37.7043 17.1084 37.835 17.5736 37.7256C18.3981 37.5317 19.7239 36.5283 21.734 32.9321L21.4936 35.4205C21.4227 35.9726 21.8317 36.4788 22.4001 36.5237C22.5157 36.5411 22.6264 36.5374 22.7321 36.5125C23.1549 36.4131 23.4758 36.0699 23.5244 35.6123L25.076 19.63C25.142 19.0567 24.7118 18.5555 24.1646 18.5057ZM17.7405 35.2098C17.8378 33.1567 18.9092 28.5096 19.6568 26.6605C20.0746 27.2985 20.6539 28.434 21.1375 29.6366C19.9769 32.0067 18.6025 34.2263 17.7405 35.2098Z" fill="white"/>
<path d="M26.6391 27.0042C26.0708 26.9594 25.5957 27.4058 25.572 27.9691C25.5583 28.1954 25.3349 33.6025 25.305 34.6135C25.2862 35.198 25.7276 35.652 26.3121 35.6707C26.3805 35.6769 26.4651 35.657 26.5496 35.6371C26.9936 35.5327 27.3257 35.1423 27.3482 34.6685C27.357 33.6624 27.6139 28.1136 27.6251 28.0664C27.6488 27.503 27.2024 27.0279 26.6391 27.0042ZM27.0825 21.6793C26.5142 21.6344 26.008 22.0435 25.9582 22.5907L25.7428 24.8054C25.6768 25.3787 26.0859 25.8849 26.6542 25.9298C26.7698 25.9472 26.8805 25.9435 26.9862 25.9186C27.409 25.8192 27.7299 25.476 27.7785 25.0184L27.9939 22.8036C28.0388 22.2353 27.6347 21.7502 27.0825 21.6793Z" fill="white"/>
<path d="M36.7536 22.9302C35.4665 23.0543 34.2465 23.2743 33.1795 23.4806L33.2219 21.9535C33.2456 21.3901 32.7993 20.915 32.2359 20.8913C31.6564 20.8937 31.2024 21.3351 31.1787 21.8985L31.1287 23.9628C29.9659 24.2363 29.2198 24.4787 29.1563 24.4936C28.6216 24.6862 28.3292 25.2458 28.5008 25.7856C28.6723 26.3253 29.253 26.6126 29.7928 26.4411C29.7928 26.4411 30.2691 26.2845 31.0464 26.0794L30.8452 33.2884C30.8426 33.8468 31.2679 34.3268 31.8474 34.3244C31.9419 34.3468 32.0264 34.3269 32.111 34.3071C32.5338 34.2076 32.8659 33.8172 32.8884 33.3434L33.1182 25.5922C34.2437 25.3498 35.5694 25.105 36.9622 24.956C37.0045 24.946 37.0468 24.9361 37.0891 24.9262C37.5965 24.8068 37.9348 24.348 37.8789 23.8257C37.8131 23.2611 37.3182 22.8643 36.7536 22.9302Z" fill="white"/>
<path d="M52.8746 10.9959C47.6005 11.8122 34.2413 16.6716 33.6642 16.8742C33.1506 17.0619 32.8633 17.6426 33.0559 18.1774C33.2387 18.6699 33.751 18.951 34.2584 18.8317C34.3007 18.8217 34.338 18.7907 34.3591 18.7857C34.4226 18.7708 36.5405 18.005 39.4096 17.018L38.1867 29.4648C38.1419 30.0331 38.5459 30.5182 39.0981 30.5891C39.2137 30.6066 39.3194 30.5817 39.4252 30.5569C39.848 30.4574 40.1689 30.1142 40.2224 29.6777L41.5374 16.2945C45.6762 14.9197 50.565 13.4131 53.1728 13.023C53.7275 12.9148 54.1193 12.3988 54.0372 11.8603C53.9503 11.3007 53.4131 10.9139 52.8746 10.9959Z" fill="white"/>
<path d="M46.3527 27.1876C46.4634 27.1839 46.579 27.2013 46.6847 27.1765C46.7059 27.1715 46.727 27.1665 46.7481 27.1615C47.171 27.0621 47.5117 26.8035 47.7431 26.459C49.5703 23.5083 49.9603 17.8612 48.784 16.8438C48.5552 16.6299 48.1772 16.5403 47.8762 16.5888C47.5069 16.631 46.9734 16.7341 44.7432 20.2482L44.8068 19.0954C44.8305 18.5321 44.4052 18.052 43.863 18.0233C43.2947 17.9785 42.7935 18.4087 42.7698 18.972L42.4719 24.062C42.4171 24.2087 42.4097 24.3666 42.4445 24.5146L41.9684 32.1676C41.9447 32.7309 42.3699 33.211 42.9333 33.2347C43.0278 33.2571 43.1335 33.2322 43.2181 33.2123C43.662 33.1079 43.9779 32.7436 44.0054 32.2909L44.2683 28.1909L53.4726 38.3009C53.7126 38.4676 54.0172 38.5298 54.3132 38.4602C54.5458 38.4055 54.7373 38.2713 54.8928 38.0785C55.2311 37.6197 55.1242 36.9755 54.6654 36.6372L46.3527 27.1876ZM47.392 19.9377C47.3446 21.4436 47.0359 23.5465 46.1391 25.1406C45.8083 25.0622 45.1803 24.7637 44.6009 24.3868C45.5449 22.8039 46.601 21.1277 47.392 19.9377Z" fill="white"/>
<path d="M57.6938 16.8905C57.1255 16.8456 56.6404 17.2497 56.5744 17.823L56.4611 19.1437C55.8258 17.8652 55.0475 16.6427 54.2255 16.2782C53.8537 16.1202 53.4483 16.104 53.0827 16.2569C51.451 16.9083 49.9091 25.4366 49.8777 27.2957C49.854 27.8591 49.8253 29.1598 50.7939 29.5791C50.9718 29.6711 51.2702 29.8017 51.7353 29.6923C52.5598 29.4985 53.8856 28.4951 55.8957 24.8989L55.6554 27.3873C55.5844 27.9394 55.9935 28.4456 56.5618 28.4905C56.6775 28.5079 56.7881 28.5042 56.8939 28.4793C57.3167 28.3799 57.6376 28.0367 57.6861 27.5791L58.6052 18.0148C58.6761 17.4627 58.2671 16.9565 57.6938 16.8905ZM51.9023 27.1766C51.9996 25.1235 53.0709 20.4764 53.8186 18.6272C54.2363 19.2653 54.8157 20.4007 55.2993 21.6033C54.1387 23.9734 52.7642 26.1931 51.9023 27.1766Z" fill="white"/>
<path d="M66.2584 13.7386C65.756 13.4998 65.1417 13.7335 64.9078 14.257L62.9175 18.6964L60.9817 15.4926C60.6882 15.0039 60.0528 14.8633 59.5852 15.1517C59.0964 15.4451 58.9297 16.0644 59.2231 16.5532L61.9111 20.9633L59.5725 26.1984C59.3337 26.7008 59.5674 27.3152 60.0909 27.549C60.2899 27.6361 60.5162 27.6498 60.7276 27.6001C61.0236 27.5305 61.2897 27.3341 61.4203 27.0356L63.193 23.0937L65.0517 26.1594C65.278 26.5524 65.7393 26.7116 66.1622 26.6122C66.2467 26.5923 66.3525 26.5674 66.4482 26.5003C66.937 26.2069 67.0826 25.5926 66.7891 25.1038L64.1993 20.8268L66.7768 15.0892C67.0107 14.5657 66.7819 13.9725 66.2584 13.7386Z" fill="white"/>
<path d="M13.9603 34.247C11.4743 34.9655 8.61394 35.705 6.71742 36.084C7.64524 35.2858 8.81184 34.3644 9.44614 33.836C11.4174 32.2569 11.5878 32.1276 11.4287 31.4511C11.2746 30.7957 11.0122 30.7235 9.01885 30.1214C8.27894 29.9161 6.98318 29.5292 6.10277 29.2007C7.25818 28.3267 9.43711 26.9665 10.4196 26.4008C10.7989 26.7801 11.3944 27.5102 11.8955 28.2178C12.2262 28.6755 12.8779 28.79 13.3355 28.4593C13.7932 28.1286 13.8915 27.503 13.5558 27.0242C11.3651 23.9697 10.7308 24.1188 10.2234 24.2382C9.71603 24.3575 6.81325 26.2448 6.77097 26.2548C3.61822 28.3125 3.33087 28.8932 3.45762 29.622C3.61294 30.5671 4.59283 30.9391 8.3856 32.0774C8.33212 32.1346 8.2575 32.1968 8.1779 32.2378C3.86221 35.7068 3.0973 36.5337 3.32598 37.5062C3.39559 37.8022 3.59204 38.0684 3.87431 38.2251C4.13544 38.3868 4.67884 38.7052 8.84373 37.7259C10.2814 37.3878 12.1319 36.908 14.5333 36.2094C15.073 36.0379 15.3865 35.4734 15.2361 34.9286C15.0857 34.3839 14.5 34.0755 13.9603 34.247Z" fill="white"/>
<path d="M24.1646 18.5057C23.5963 18.4608 23.1113 18.8649 23.0403 19.4171L22.2944 27.1558C21.664 25.8984 20.8857 24.6759 20.0638 24.3114C19.692 24.1534 19.2865 24.1372 18.9209 24.2901C17.2892 24.9415 15.7473 33.4698 15.716 35.329C15.6923 35.8923 15.6635 37.1931 16.6322 37.6123C16.81 37.7043 17.1084 37.835 17.5736 37.7256C18.3981 37.5317 19.7239 36.5283 21.734 32.9321L21.4936 35.4205C21.4227 35.9726 21.8317 36.4788 22.4001 36.5237C22.5157 36.5411 22.6264 36.5374 22.7321 36.5125C23.1549 36.4131 23.4758 36.0699 23.5244 35.6123L25.076 19.63C25.142 19.0567 24.7118 18.5555 24.1646 18.5057ZM17.7405 35.2098C17.8378 33.1567 18.9092 28.5096 19.6568 26.6605C20.0746 27.2985 20.6539 28.434 21.1375 29.6366C19.9769 32.0067 18.6025 34.2263 17.7405 35.2098Z" fill="white"/>
<path d="M26.6391 27.0042C26.0708 26.9594 25.5957 27.4058 25.572 27.9691C25.5583 28.1954 25.3349 33.6025 25.305 34.6135C25.2862 35.198 25.7276 35.652 26.3121 35.6707C26.3805 35.6769 26.4651 35.657 26.5496 35.6371C26.9936 35.5327 27.3257 35.1423 27.3482 34.6685C27.357 33.6624 27.6139 28.1136 27.6251 28.0664C27.6488 27.503 27.2024 27.0279 26.6391 27.0042ZM27.0825 21.6793C26.5142 21.6344 26.008 22.0435 25.9582 22.5907L25.7428 24.8054C25.6768 25.3787 26.0859 25.8849 26.6542 25.9298C26.7698 25.9472 26.8805 25.9435 26.9862 25.9186C27.409 25.8192 27.7299 25.476 27.7785 25.0184L27.9939 22.8036C28.0388 22.2353 27.6347 21.7502 27.0825 21.6793Z" fill="white"/>
<path d="M36.7536 22.9302C35.4665 23.0543 34.2465 23.2743 33.1795 23.4806L33.2219 21.9535C33.2456 21.3901 32.7993 20.915 32.2359 20.8913C31.6564 20.8937 31.2024 21.3351 31.1787 21.8985L31.1287 23.9628C29.9659 24.2363 29.2198 24.4787 29.1563 24.4936C28.6216 24.6862 28.3292 25.2458 28.5008 25.7856C28.6723 26.3253 29.253 26.6126 29.7928 26.4411C29.7928 26.4411 30.2691 26.2845 31.0464 26.0794L30.8452 33.2884C30.8426 33.8468 31.2679 34.3268 31.8474 34.3244C31.9419 34.3468 32.0264 34.3269 32.111 34.3071C32.5338 34.2076 32.8659 33.8172 32.8884 33.3434L33.1182 25.5922C34.2437 25.3498 35.5694 25.105 36.9622 24.956C37.0045 24.946 37.0468 24.9361 37.0891 24.9262C37.5965 24.8068 37.9348 24.348 37.8789 23.8257C37.8131 23.2611 37.3182 22.8643 36.7536 22.9302Z" fill="white"/>
<path d="M52.8746 10.9959C47.6005 11.8122 34.2413 16.6716 33.6642 16.8742C33.1506 17.0619 32.8633 17.6426 33.0559 18.1774C33.2387 18.6699 33.751 18.951 34.2584 18.8317C34.3007 18.8217 34.338 18.7907 34.3591 18.7857C34.4226 18.7708 36.5405 18.005 39.4096 17.018L38.1867 29.4648C38.1419 30.0331 38.5459 30.5182 39.0981 30.5891C39.2137 30.6066 39.3194 30.5817 39.4252 30.5569C39.848 30.4574 40.1689 30.1142 40.2224 29.6777L41.5374 16.2945C45.6762 14.9197 50.565 13.4131 53.1728 13.023C53.7275 12.9148 54.1193 12.3988 54.0372 11.8603C53.9503 11.3007 53.4131 10.9139 52.8746 10.9959Z" fill="white"/>
<path d="M46.3527 27.1876C46.4634 27.1839 46.579 27.2013 46.6847 27.1765C46.7059 27.1715 46.727 27.1665 46.7481 27.1615C47.171 27.0621 47.5117 26.8035 47.7431 26.459C49.5703 23.5083 49.9603 17.8612 48.784 16.8438C48.5552 16.6299 48.1772 16.5403 47.8762 16.5888C47.5069 16.631 46.9734 16.7341 44.7432 20.2482L44.8068 19.0954C44.8305 18.5321 44.4052 18.052 43.863 18.0233C43.2947 17.9785 42.7935 18.4087 42.7698 18.972L42.4719 24.062C42.4171 24.2087 42.4097 24.3666 42.4445 24.5146L41.9684 32.1676C41.9447 32.7309 42.3699 33.211 42.9333 33.2347C43.0278 33.2571 43.1335 33.2322 43.2181 33.2123C43.662 33.1079 43.9779 32.7436 44.0054 32.2909L44.2683 28.1909L53.4726 38.3009C53.7126 38.4676 54.0172 38.5298 54.3132 38.4602C54.5458 38.4055 54.7373 38.2713 54.8928 38.0785C55.2311 37.6197 55.1242 36.9755 54.6654 36.6372L46.3527 27.1876ZM47.392 19.9377C47.3446 21.4436 47.0359 23.5465 46.1391 25.1406C45.8083 25.0622 45.1803 24.7637 44.6009 24.3868C45.5449 22.8039 46.601 21.1277 47.392 19.9377Z" fill="white"/>
<path d="M57.6938 16.8905C57.1255 16.8456 56.6404 17.2497 56.5744 17.823L56.4611 19.1437C55.8258 17.8652 55.0475 16.6427 54.2255 16.2782C53.8537 16.1202 53.4483 16.104 53.0827 16.2569C51.451 16.9083 49.9091 25.4366 49.8777 27.2957C49.854 27.8591 49.8253 29.1598 50.7939 29.5791C50.9718 29.6711 51.2702 29.8017 51.7353 29.6923C52.5598 29.4985 53.8856 28.4951 55.8957 24.8989L55.6554 27.3873C55.5844 27.9394 55.9935 28.4456 56.5618 28.4905C56.6775 28.5079 56.7881 28.5042 56.8939 28.4793C57.3167 28.3799 57.6376 28.0367 57.6861 27.5791L58.6052 18.0148C58.6761 17.4627 58.2671 16.9565 57.6938 16.8905ZM51.9023 27.1766C51.9996 25.1235 53.0709 20.4764 53.8186 18.6272C54.2363 19.2653 54.8157 20.4007 55.2993 21.6033C54.1387 23.9734 52.7642 26.1931 51.9023 27.1766Z" fill="white"/>
<path d="M66.2584 13.7386C65.756 13.4998 65.1417 13.7335 64.9078 14.257L62.9175 18.6964L60.9817 15.4926C60.6882 15.0039 60.0528 14.8633 59.5852 15.1517C59.0964 15.4451 58.9297 16.0644 59.2231 16.5532L61.9111 20.9633L59.5725 26.1984C59.3337 26.7008 59.5674 27.3152 60.0909 27.549C60.2899 27.6361 60.5162 27.6498 60.7276 27.6001C61.0236 27.5305 61.2897 27.3341 61.4203 27.0356L63.193 23.0937L65.0517 26.1594C65.278 26.5524 65.7393 26.7116 66.1622 26.6122C66.2467 26.5923 66.3525 26.5674 66.4482 26.5003C66.937 26.2069 67.0826 25.5926 66.7891 25.1038L64.1993 20.8268L66.7768 15.0892C67.0107 14.5657 66.7819 13.9725 66.2584 13.7386Z" fill="white"/>
<path d="M56.7869 34.3911C56.7869 34.0447 56.5471 33.7709 56.1654 33.7709C55.7788 33.7709 55.5391 34.0447 55.5391 34.3911C55.5391 34.7318 55.7788 35 56.1654 35C56.5471 35 56.7869 34.7318 56.7869 34.3911Z" fill="white"/>
<path d="M59.4262 31V33.0223L58.2762 31H57.1899V34.9553H58.2762V32.9665L59.4262 34.9553H60.5126V31H59.4262Z" fill="white"/>
<path d="M61.0034 34.9553H62.0898V33.4637H63.0685V32.5307H62.0898V31.9832H63.4502V31H61.0034V34.9553Z" fill="white"/>
<path d="M63.6225 31.9832H64.5327V34.9553H65.6191V31.9832H66.5391V31H63.6225V31.9832Z" fill="white"/>
</svg>
