<svg width="150" height="76" viewBox="0 0 150 76" fill="none" xmlns="http://www.w3.org/2000/svg">
<path d="M123.012 56.1028C123.012 55.4315 122.434 54.9009 121.512 54.9009C120.579 54.9009 120 55.4315 120 56.1028C120 56.7633 120.579 57.2831 121.512 57.2831C122.434 57.2831 123.012 56.7633 123.012 56.1028Z" fill="white"/>
<path d="M129.384 49.5303V53.45L126.608 49.5303H123.985V57.1964H126.608V53.3417L129.384 57.1964H132.007V49.5303H129.384Z" fill="white"/>
<path d="M133.192 57.1964H135.814V54.3054H138.177V52.4971H135.814V51.436H139.098V49.5303H133.192V57.1964Z" fill="white"/>
<path d="M139.514 51.436H141.712V57.1964H144.334V51.436H146.555V49.5303H139.514V51.436Z" fill="white"/>
<ellipse opacity="0.1" cx="75" cy="38" rx="40" ry="38" fill="#C4C4C4"/>
<path d="M23.5 43.5778C22 41.2888 18 37.626 18 37.626C18 37.626 7 42.6621 3 47.2404L18 51.8187L3 64.1802C6.5 65.5537 23 61.0669 27 59.6019" stroke="white" stroke-width="4.5" stroke-linecap="round" stroke-linejoin="round"/>
<path d="M45.9994 48.1558C44.1661 43.4249 40.1007 35.5196 38.5007 38.0835C36.5007 41.2883 31.9976 54.5652 32.9988 61.8905C33.4803 65.4136 38.6016 61.698 42.5 54.1074C46.7073 45.9155 49.721 33.3612 50.4994 24.8063C51.1645 17.4972 48.1664 44.9508 46.4998 60.517" stroke="white" stroke-width="4.5" stroke-linecap="round" stroke-linejoin="round"/>
<path d="M93.5 23.8916L92.7647 35.3374M91.5 55.0242L92.7647 35.3374M92.7647 35.3374C95.6765 29.996 101.9 19.7711 103.5 21.6025C105.5 23.8916 105.029 46.325 92.7647 41.2889L118.5 66.4696" stroke="white" stroke-width="4.5" stroke-linecap="round" stroke-linejoin="round"/>
<path d="M54.776 61.0763L55.5 44.5M55.8237 38.1596L56.2242 33.1148" stroke="white" stroke-width="4.5" stroke-linecap="round" stroke-linejoin="round"/>
<path d="M68.5 31.3008L68 58.3128M61.5 40.9152C64 39.847 67.4 37.5273 77 36.7948" stroke="white" stroke-width="4.5" stroke-linecap="round" stroke-linejoin="round"/>
<path d="M86.5004 16.5655C85.0004 26.18 82.1004 46.1414 82.5004 49.0716M69.5 22.9752C78.5 19.1599 100.3 11.0716 115.5 9.24023" stroke="white" stroke-width="4.5" stroke-linecap="round" stroke-linejoin="round"/>
<path d="M132 17.4814L147.5 40.8308" stroke="white" stroke-width="4.5" stroke-linecap="round" stroke-linejoin="round"/>
<path d="M131 43.1199L144.5 14.7344" stroke="white" stroke-width="4.5" stroke-linecap="round" stroke-linejoin="round"/>
<path d="M125.5 31.2161C123.5 26.943 118.1 19.3127 116.5 21.144C114.5 23.4332 107.838 44.8772 111 46.3249C116 48.6141 126.5 24.8071 126.5 21.602C126.5 19.0379 125.334 34.8792 124.5 44.0358" stroke="white" stroke-width="4.5" stroke-linecap="round" stroke-linejoin="round"/>
</svg>
