<svg width="135" height="83" viewBox="0 0 135 83" fill="none" xmlns="http://www.w3.org/2000/svg">
<path id="1" d="M124.514 55.0812H126.712V61.3723H129.334V55.0812H131.555V53H124.514V55.0812Z" fill="white"/>
<circle opacity="0.1" cx="66.5" cy="41.5" r="41.5" fill="#C4C4C4"/>
<path id="10" d="M22.5 46.5C21 44.0002 17 40 17 40C17 40 6 45.5 2 50.5L17 55.5L2 69C5.5 70.5 22 65.6 26 64" stroke="white" stroke-width="4" stroke-linecap="round" stroke-linejoin="round"/>
<path id="2" d="M39.9994 51.5002C38.1661 46.3335 34.1007 37.7002 32.5007 40.5002C30.5007 44.0002 25.9976 58.5 26.9988 66.5C27.4803 70.3476 32.6016 66.2897 36.5 58C40.7073 49.0535 43.721 35.3429 44.4994 26.0001C45.1645 18.0177 42.1664 48 40.4998 65" stroke="white" stroke-width="4" stroke-linecap="round" stroke-linejoin="round"/>
<path id="3" d="M82.5 25.0004L81.7647 37.5004M80.5 59.0004L81.7647 37.5004M81.7647 37.5004C84.6765 31.667 90.9 20.5004 92.5 22.5004C94.5 25.0004 94.0294 49.5 81.7647 44L107.5 71.5" stroke="white" stroke-width="4" stroke-linecap="round" stroke-linejoin="round"/>
<path id="4" d="M48.5 64.4997L49.5 44.9997M50 39.4997L50.5 34" stroke="white" stroke-width="4" stroke-linecap="round" stroke-linejoin="round"/>
<path id="5" d="M60.5 32L60 61.5M53.5 42.5C56 41.3333 63.4 38.8 73 38" stroke="white" stroke-width="4" stroke-linecap="round" stroke-linejoin="round"/>
<path id="6" d="M77.5004 17C76.0004 27.5 73.1004 49.3 73.5004 52.5M60.5 24C69.5 19.8333 91.3 11 106.5 9" stroke="white" stroke-width="4" stroke-linecap="round" stroke-linejoin="round"/>
<path id="7" d="M117 18L132.5 43.5" stroke="white" stroke-width="4" stroke-linecap="round" stroke-linejoin="round"/>
<path id="8" d="M116 46L129.5 15" stroke="white" stroke-width="4" stroke-linecap="round" stroke-linejoin="round"/>
<path id="9" d="M111.5 32.9996C109.5 28.3329 104.1 19.9998 102.5 21.9998C100.5 24.4998 93.8379 47.9189 97.0002 49.5C102 52 112.5 26.0003 112.5 22.4999C112.5 19.6996 111.334 37 110.5 47" stroke="white" stroke-width="4" stroke-linecap="round" stroke-linejoin="round"/>
</svg>
