<svg width="164" height="108" viewBox="0 0 164 108" fill="none" xmlns="http://www.w3.org/2000/svg">
<path d="M82.0442 1.768C60.6202 0.207999 12.9882 7.904 11.0122 8.21599C8.30822 8.632 6.43622 11.128 6.95622 13.832C7.26822 16.224 9.34822 17.888 11.7402 17.888C12.0522 17.888 12.2602 17.888 12.5722 17.888C12.6762 17.888 17.2522 17.056 24.0122 16.12L16.2122 37.024L7.16422 39.208C4.46022 39.832 2.90022 42.432 3.42022 45.032C3.94022 47.32 6.02022 48.776 8.20422 48.776C8.62022 48.776 8.93222 48.776 9.34822 48.672L12.0522 48.048L1.34022 76.856C0.300221 79.352 1.65222 82.16 4.14822 83.096C4.77222 83.408 5.29222 83.512 5.91622 83.512C7.89222 83.512 9.76422 82.264 10.4922 80.288L23.4922 45.448L36.1802 42.432C38.8842 41.912 40.4442 39.208 39.9242 36.608C39.3002 34.008 36.5962 32.344 33.9962 32.968L27.6522 34.424L35.0362 14.664C50.4282 12.688 70.0842 10.712 81.3162 11.544C84.0202 11.648 86.3082 9.67199 86.5162 6.968C86.7242 4.264 84.7482 1.97599 82.0442 1.768ZM157.533 87.672C144.845 90.064 135.797 92.456 127.893 94.432C125.917 94.952 124.045 95.368 122.173 95.888C123.941 94.224 125.813 92.56 127.165 91.416C130.909 88.088 134.029 85.28 135.797 83.304C137.877 80.912 137.877 78.52 137.045 76.856C140.165 74.36 142.973 71.344 145.261 67.808C154.205 53.456 151.293 35.464 138.813 27.664C126.333 19.864 108.965 25.272 100.021 39.52C91.0768 53.872 93.9888 71.864 106.365 79.664C102.413 80.912 97.9408 82.472 92.7408 84.24C90.1408 85.176 88.7888 87.88 89.7248 90.48C90.6608 93.08 93.3648 94.328 95.9648 93.496C103.245 90.896 111.461 88.296 118.117 86.32C107.717 95.68 103.661 99.944 106.053 104.728C107.197 106.912 109.173 107.952 111.981 107.952C113.021 107.952 114.165 107.848 115.309 107.536C120.509 106.392 125.293 105.248 130.285 103.896C138.501 101.816 146.925 99.632 159.405 97.24C162.005 96.824 163.773 94.224 163.253 91.52C162.733 88.92 160.237 87.152 157.533 87.672ZM111.565 71.344C103.765 66.456 102.205 54.496 108.341 44.72C112.605 37.856 119.573 33.904 126.021 33.904C128.725 33.904 131.325 34.528 133.717 35.984C141.517 40.872 143.077 52.832 136.941 62.608C130.909 72.384 119.469 76.232 111.565 71.344ZM125.813 40.248C123.213 39.312 120.405 40.664 119.573 43.16L113.853 59.176C113.021 61.672 114.269 64.48 116.869 65.416C117.389 65.624 117.909 65.728 118.533 65.728C120.509 65.728 122.381 64.48 123.109 62.4L128.725 46.488C129.661 43.888 128.309 41.08 125.813 40.248Z" fill="white"/>
<path d="M89.6947 52.416C87.7187 52.312 85.8467 52.208 83.9747 52.104C83.9747 40.664 83.6627 32.552 82.9347 29.224C82.5187 27.248 81.1667 21.424 75.9667 21.008C69.5187 20.488 66.6067 28.08 59.3267 46.384C58.4947 48.464 57.6627 50.648 56.7267 52.936C44.8707 53.976 38.3187 55.848 37.7987 55.952C35.1987 56.68 33.7427 59.384 34.4707 61.984C35.0947 64.168 37.0707 65.52 39.1507 65.52C39.5667 65.52 40.0867 65.52 40.5027 65.312C40.6067 65.312 44.7667 64.168 52.4627 63.232C49.1347 70.72 45.5987 78 41.7507 83.512C40.2947 85.696 40.8147 88.712 43.1027 90.272C45.2867 91.832 48.3027 91.312 49.8627 89.024C54.9587 81.64 59.5347 71.76 63.4867 62.192C66.8147 61.984 70.3507 61.88 74.1987 61.776C74.1987 65.728 74.1987 69.68 74.1987 73.32C74.0947 78.312 74.0947 82.992 74.0947 87.048C74.0947 89.752 76.2787 91.936 78.9827 91.936C81.6867 91.936 83.8707 89.752 83.8707 87.048C83.8707 82.992 83.8707 78.312 83.9747 73.32C83.9747 69.368 83.9747 65.52 83.9747 61.984C85.6387 61.984 87.4067 62.088 89.1747 62.192C91.7747 62.296 94.1667 60.216 94.2707 57.512C94.3747 54.808 92.3987 52.52 89.6947 52.416ZM67.5427 52.208C67.8547 51.48 68.1667 50.648 68.4787 50.024C70.2467 45.552 72.2227 40.56 73.8867 36.712C74.0947 40.56 74.1987 46.072 74.1987 52C71.9107 52.104 69.7267 52.104 67.5427 52.208Z" fill="#E5986E"/>
</svg>
