<svg width="520" height="368" viewBox="0 0 520 368" fill="none" xmlns="http://www.w3.org/2000/svg">
<path d="M148.167 24C147.867 22.75 146.617 21.95 145.367 22.25C142.117 22.95 138.367 23.75 136.017 24.2C137.017 20.25 139.817 12.1 142.467 5.1C142.967 3.9 142.367 2.5 141.117 2.05C139.917 1.6 138.567 2.2 138.117 3.4C129.817 25.1 130.767 26.9 131.267 27.85C131.617 28.5 132.267 28.95 132.967 29.15C133.067 29.15 133.267 29.2 133.617 29.2C134.667 29.2 137.467 28.85 146.417 26.8C147.667 26.55 148.467 25.25 148.167 24ZM152.277 28.25C153.477 29.1 154.877 29.5 156.377 29.5C157.527 29.5 158.727 29.3 159.977 28.8C162.477 27.8 164.877 25.8 166.727 23.25C170.827 17.6 170.927 10.85 166.977 8C162.977 5.1 156.627 7.3 152.527 13C150.677 15.55 149.577 18.45 149.377 21.15C149.227 24.2 150.277 26.8 152.277 28.25ZM156.327 15.75C158.377 12.95 161.077 11.45 162.877 11.45C163.427 11.45 163.877 11.55 164.227 11.8C165.777 12.95 165.527 16.9 162.927 20.5C161.627 22.35 159.877 23.75 158.227 24.4C156.927 24.95 155.777 24.95 155.077 24.45C154.377 23.95 154.027 22.85 154.077 21.45C154.227 19.65 155.027 17.55 156.327 15.75ZM189.527 31.75C185.577 30.75 153.377 30.85 146.977 30.85C145.677 30.9 144.627 31.95 144.627 33.25C144.627 34.55 145.677 35.6 146.977 35.6C165.327 35.5 186.027 35.7 188.327 36.3C188.527 36.35 188.727 36.4 188.927 36.4C189.977 36.4 190.927 35.65 191.177 34.6C191.527 33.35 190.777 32.05 189.527 31.75ZM174.827 28.25C175.977 29.1 177.377 29.55 178.877 29.55C182.377 29.55 186.327 27.25 189.227 23.25C193.327 17.6 193.477 10.85 189.477 8C185.477 5.1 179.177 7.3 175.027 13C173.177 15.55 172.077 18.45 171.927 21.15C171.727 24.2 172.777 26.8 174.827 28.25ZM178.877 15.75C180.877 12.95 183.577 11.45 185.427 11.45C185.927 11.45 186.377 11.55 186.727 11.8C188.277 12.95 188.027 16.9 185.427 20.5C182.827 24.15 179.127 25.6 177.577 24.45C176.877 23.95 176.527 22.85 176.627 21.45C176.727 19.65 177.527 17.55 178.877 15.75ZM215.909 7.8C215.509 7.25 214.809 6.85 214.109 6.8C213.109 6.7 211.709 6.55 200.959 16.45C201.859 13.65 202.709 11.4 203.309 10.05C203.859 8.85 203.309 7.45 202.109 6.95C200.909 6.4 199.559 6.95 199.009 8.1C195.909 15.15 187.359 44.5 187.009 45.75C186.659 47 187.359 48.3 188.609 48.65C188.859 48.75 189.059 48.75 189.259 48.75C190.309 48.75 191.209 48.1 191.509 47.05C191.559 46.9 194.309 37.4 197.259 27.9C199.059 30.5 201.409 33.25 203.559 33.7C203.859 33.8 204.109 33.8 204.359 33.8C205.059 33.8 205.709 33.6 206.259 33.2C209.259 31.15 215.659 14.25 216.309 10.5C216.459 9.65 216.559 8.7 215.909 7.8ZM204.009 28.7C203.059 27.8 201.459 25.8 200.109 23.65C203.609 20.4 207.359 16.95 210.209 14.55C208.459 19.45 205.609 26.25 204.009 28.7ZM236.095 18.9C235.995 18.9 235.845 18.9 235.745 18.9C238.095 16.05 246.195 10.3 251.595 7.25C250.895 8.9 249.845 11.05 248.695 13C248.045 14.1 248.445 15.55 249.545 16.2C250.695 16.85 252.145 16.5 252.795 15.35C258.795 5.05 256.995 3.1 256.245 2.25C255.645 1.6 254.245 0.699999 251.745 1.9C251.495 2 228.995 14 230.545 20.55C230.995 22.6 232.845 23.6 236.145 23.6C240.745 23.55 243.895 23.9 245.895 24.25C241.845 25.65 235.245 27.15 232.395 26.75C231.145 26.6 229.945 27.5 229.745 28.8C229.595 30.05 230.495 31.25 231.795 31.4C232.245 31.5 232.795 31.5 233.395 31.5C238.895 31.5 248.195 28.8 250.995 27.2C253.395 25.85 253.095 23.9 252.895 23.35C252.095 20.3 246.445 18.8 236.095 18.9ZM269.973 14.05C270.323 15.3 271.573 16 272.873 15.65C274.123 15.3 274.823 14 274.473 12.75C273.073 7.6 271.423 6.9 270.123 6.85C266.123 6.65 256.873 13.8 255.173 15.6C254.873 15.9 254.073 16.8 254.223 18C254.473 19.95 255.873 20.35 262.473 22.45C262.673 22.5 262.873 22.55 263.123 22.65C262.823 22.8 262.573 22.95 262.323 23.05C253.873 27.7 252.073 28.85 252.073 30.9C252.073 31.6 252.373 32.3 252.923 32.8C253.423 33.3 254.323 34.15 262.073 34.15C264.323 34.15 267.173 34.05 270.773 33.9C272.073 33.8 273.073 32.7 273.023 31.45C272.973 30.15 271.823 29.1 270.573 29.2C267.223 29.35 263.523 29.45 260.623 29.4C262.023 28.6 263.473 27.8 264.573 27.2C270.373 24 271.073 23.6 270.773 21.7C270.473 20 269.623 19.75 263.873 17.95C262.973 17.65 261.823 17.3 260.773 16.95C263.273 15 267.123 12.45 269.123 11.75C269.423 12.35 269.723 13.25 269.973 14.05ZM290.85 18.35C291.05 18.45 291.3 18.5 291.55 18.5C292.55 18.5 293.45 17.85 293.8 16.9L297.85 4.6C298.25 3.4 297.6 2.05 296.35 1.65C295.15 1.25 293.8 1.9 293.4 3.15L292.35 6.25C292.15 6.2 291.9 6.2 291.65 6.25C287.2 6.85 281.1 12.45 277.55 17.4C275.25 20.55 272.7 25.25 273.5 29.55C273.85 31.45 274.9 32.9 276.6 33.75C277.75 34.35 279.15 34.55 280.65 34.55C286.3 34.55 293.5 31.25 295.2 30.4C296.35 29.85 296.85 28.45 296.3 27.3C295.7 26.1 294.3 25.6 293.15 26.2C288.8 28.3 281.2 30.8 278.7 29.55C278.4 29.4 278.2 29.2 278.1 28.7C277.75 26.65 278.9 23.55 281.35 20.15C284.15 16.2 288 12.9 290.6 11.55L289.35 15.4C288.95 16.65 289.6 17.95 290.85 18.35ZM316.707 10.75C313.757 10.35 310.907 10.2 308.407 10.1L309.307 6.7C309.657 5.45 308.907 4.15 307.657 3.8C306.357 3.5 305.107 4.25 304.757 5.5L303.557 10.1C300.807 10.1 299.007 10.25 298.857 10.25C297.557 10.4 296.607 11.5 296.707 12.8C296.807 14.1 297.957 15.05 299.257 14.95C299.257 14.95 300.407 14.85 302.257 14.8L298.007 30.85C297.707 32.1 298.407 33.4 299.707 33.7C299.907 33.8 300.107 33.8 300.307 33.8C301.307 33.8 302.257 33.1 302.557 32.05L307.157 14.8C309.807 14.85 312.907 15 316.107 15.4C316.207 15.4 316.307 15.4 316.407 15.4C317.607 15.4 318.607 14.55 318.757 13.35C318.907 12.05 318.007 10.9 316.707 10.75ZM321.996 14.55C320.746 14.15 319.446 14.9 319.096 16.15C318.946 16.65 315.596 28.65 314.996 30.9C314.646 32.2 315.396 33.45 316.696 33.8C316.846 33.85 317.046 33.85 317.246 33.85C318.296 33.85 319.246 33.15 319.546 32.1C320.096 29.85 323.596 17.55 323.646 17.45C323.996 16.2 323.246 14.9 321.996 14.55ZM325.796 2.85C324.546 2.45 323.196 3.1 322.796 4.3L321.146 9.15C320.696 10.4 321.346 11.75 322.596 12.15C322.846 12.25 323.096 12.3 323.346 12.3C324.346 12.3 325.246 11.7 325.596 10.7L327.246 5.85C327.646 4.6 326.996 3.3 325.796 2.85ZM343.107 8.1C341.057 6.65 338.257 6.45 335.407 7.55C332.907 8.6 330.507 10.55 328.657 13.1C326.807 15.65 325.707 18.55 325.557 21.25C325.357 24.3 326.407 26.9 328.407 28.35C329.607 29.2 331.007 29.6 332.507 29.6C333.657 29.6 334.857 29.4 336.107 28.9C338.607 27.9 341.007 25.9 342.857 23.35C346.957 17.7 347.057 11 343.107 8.1ZM339.057 20.6C337.757 22.45 336.007 23.85 334.357 24.55C333.057 25.05 331.907 25.05 331.207 24.55C330.507 24.05 330.157 22.95 330.207 21.55C330.357 19.75 331.157 17.65 332.457 15.85C333.807 14.05 335.507 12.6 337.157 11.95C337.857 11.65 338.457 11.55 339.007 11.55C339.557 11.55 340.007 11.65 340.357 11.9C341.907 13.05 341.657 17 339.057 20.6ZM339.057 31.85C335.057 30.8 324.307 30.95 323.107 31C321.807 31 320.757 32.05 320.757 33.35C320.807 34.65 321.907 35.75 323.157 35.7C326.257 35.65 335.007 35.65 337.857 36.4C338.057 36.45 338.257 36.5 338.457 36.5C339.507 36.5 340.457 35.8 340.757 34.7C341.057 33.45 340.307 32.15 339.057 31.85ZM365.107 5.2C363.807 5 362.657 5.95 362.457 7.2C362.057 10.45 361.257 16.8 360.557 22.1C359.707 19.1 358.707 15.25 357.507 10.6C357.207 9.45 357.007 8.6 356.857 8.1C356.457 6.6 355.257 6.1 354.357 6.1C352.357 6.1 351.057 6.1 344.357 33.2C344.007 34.5 344.807 35.75 346.057 36.05C346.257 36.1 346.457 36.15 346.607 36.15C347.657 36.15 348.657 35.4 348.907 34.35C350.557 27.7 352.507 20.5 353.957 15.65C358.707 33.85 359.307 33.85 361.457 33.8C362.357 33.8 363.507 33.25 363.857 31.75C364.557 28.85 366.907 9.95 367.157 7.8C367.307 6.5 366.407 5.35 365.107 5.2ZM387.365 24.85C386.865 22.2 383.565 21.45 378.615 20.25C376.265 19.7 373.815 19.15 371.965 18.4C371.915 18.4 371.865 18.35 371.815 18.35C373.165 16.85 377.615 14.45 380.665 12.9L380.365 15.8C380.265 17.1 381.215 18.25 382.465 18.4C382.565 18.4 382.665 18.4 382.715 18.4C383.915 18.4 384.915 17.5 385.065 16.3L385.965 6.95C386.115 5.65 385.165 4.5 383.865 4.35C382.615 4.25 381.415 5.2 381.315 6.5L381.215 7.5C380.965 7.55 380.715 7.6 380.515 7.7C372.115 11.9 366.615 14.95 366.765 18.8C366.815 20 367.465 21.7 370.215 22.75C372.415 23.65 375.165 24.3 377.565 24.85C378.565 25.1 379.865 25.4 380.965 25.7C377.115 27.6 370.765 29.35 368.265 29.9C367.015 30.2 366.215 31.45 366.515 32.75C366.765 33.8 367.765 34.55 368.815 34.55C368.965 34.55 369.165 34.55 369.365 34.5C369.815 34.4 380.615 31.85 385.365 28.6C387.315 27.3 387.515 25.85 387.365 24.85ZM162.592 75C161.342 74.65 160.042 75.35 159.642 76.6L158.392 80.85C157.642 80.4 156.942 80.25 156.492 80.2C150.642 79.6 142.292 89.9 140.292 98.05C138.692 104.55 141.442 107.25 143.192 108.3C144.492 109.05 145.942 109.35 147.492 109.35C150.342 109.35 153.392 108.2 155.142 106.5C157.642 104.2 159.492 100.75 160.142 99.35C160.742 98.2 160.242 96.8 159.092 96.2C157.892 95.65 156.492 96.1 155.942 97.3C155.042 99.1 153.492 101.6 151.942 103.1C150.592 104.35 147.192 105.15 145.592 104.25C144.142 103.4 144.392 101 144.842 99.15C146.792 91.3 154.142 84.45 155.942 84.8C155.942 84.85 156.342 85.25 156.392 86.9C156.392 87.05 156.392 87.2 156.442 87.35L156.142 88.4C155.742 89.65 156.442 90.95 157.692 91.3C157.942 91.4 158.142 91.4 158.392 91.4C159.392 91.4 160.292 90.75 160.642 89.75L164.142 77.95C164.542 76.7 163.842 75.4 162.592 75ZM169.459 105.35C169.709 105.4 169.959 105.5 170.209 105.5C170.259 105.5 170.309 105.5 170.359 105.5C171.359 105.5 172.259 105.1 172.959 104.45C178.609 98.8 182.459 86.35 180.359 83.45C179.959 82.85 179.159 82.45 178.459 82.4C177.609 82.3 176.359 82.25 169.509 88.95L170.259 86.4C170.609 85.15 169.909 83.85 168.709 83.5C167.459 83.1 166.109 83.8 165.759 85.05L162.409 96.3C162.209 96.6 162.109 96.95 162.109 97.3L157.009 114.2C156.659 115.45 157.359 116.75 158.609 117.1C158.809 117.2 159.059 117.2 159.259 117.2C160.309 117.2 161.209 116.55 161.509 115.55L164.259 106.5L169.809 113C170.259 113.5 170.909 113.8 171.609 113.8C172.159 113.8 172.659 113.6 173.109 113.25C174.109 112.4 174.209 110.9 173.359 109.9L169.459 105.35ZM175.609 89.65C174.709 93 172.909 97.55 170.059 100.65C169.359 100.3 168.109 99.3 167.009 98.15C169.959 95.1 173.209 91.9 175.609 89.65ZM195.068 94.05C195.418 95.3 196.668 96 197.968 95.65C199.218 95.3 199.918 94 199.568 92.75C198.168 87.6 196.518 86.9 195.218 86.85C191.218 86.65 181.968 93.8 180.268 95.6C179.968 95.9 179.168 96.8 179.318 98C179.568 99.95 180.968 100.35 187.568 102.45C187.768 102.5 187.968 102.55 188.218 102.65C187.918 102.8 187.668 102.95 187.418 103.05C178.968 107.7 177.168 108.85 177.168 110.9C177.168 111.6 177.468 112.3 178.018 112.8C178.518 113.3 179.418 114.15 187.168 114.15C189.418 114.15 192.268 114.05 195.868 113.9C197.168 113.8 198.168 112.7 198.118 111.45C198.068 110.15 196.918 109.1 195.668 109.2C192.318 109.35 188.618 109.45 185.718 109.4C187.118 108.6 188.568 107.8 189.668 107.2C195.468 104 196.168 103.6 195.868 101.7C195.568 100 194.718 99.75 188.968 97.95C188.068 97.65 186.918 97.3 185.868 96.95C188.368 95 192.218 92.45 194.218 91.75C194.518 92.35 194.818 93.25 195.068 94.05ZM221.544 88.25C220.294 87.85 218.994 88.5 218.544 89.75L217.594 92.65C216.844 89.45 215.744 86.3 214.094 85.05C213.344 84.5 212.444 84.25 211.544 84.4C207.544 85 199.594 103.3 198.544 107.45C198.194 108.7 197.444 111.6 199.394 113.05C199.744 113.35 200.344 113.8 201.444 113.8C203.394 113.8 206.894 112.25 213.294 105.25L211.444 110.7C210.994 111.9 211.644 113.25 212.894 113.65C213.144 113.75 213.394 113.8 213.644 113.8C214.644 113.8 215.544 113.2 215.894 112.2L222.994 91.25C223.444 90.05 222.794 88.7 221.544 88.25ZM203.144 108.25C204.444 103.7 209.294 93.85 211.944 90.1C212.544 91.75 213.244 94.6 213.694 97.55C209.844 102.25 205.594 106.5 203.144 108.25ZM242.437 90.75C239.487 90.35 236.637 90.2 234.137 90.1L235.037 86.7C235.387 85.45 234.637 84.15 233.387 83.8C232.087 83.5 230.837 84.25 230.487 85.5L229.287 90.1C226.537 90.1 224.737 90.25 224.587 90.25C223.287 90.4 222.337 91.5 222.437 92.8C222.537 94.1 223.687 95.05 224.987 94.95C224.987 94.95 226.137 94.85 227.987 94.8L223.737 110.85C223.437 112.1 224.137 113.4 225.437 113.7C225.637 113.8 225.837 113.8 226.037 113.8C227.037 113.8 227.987 113.1 228.287 112.05L232.887 94.8C235.537 94.85 238.637 95 241.837 95.4C241.937 95.4 242.037 95.4 242.137 95.4C243.337 95.4 244.337 94.55 244.487 93.35C244.637 92.05 243.737 90.9 242.437 90.75ZM259.304 94.05C259.654 95.3 260.904 96 262.204 95.65C263.454 95.3 264.154 94 263.804 92.75C262.404 87.6 260.754 86.9 259.454 86.85C255.454 86.65 246.204 93.8 244.504 95.6C244.204 95.9 243.404 96.8 243.554 98C243.804 99.95 245.204 100.35 251.804 102.45C252.004 102.5 252.204 102.55 252.454 102.65C252.154 102.8 251.904 102.95 251.654 103.05C243.204 107.7 241.404 108.85 241.404 110.9C241.404 111.6 241.704 112.3 242.254 112.8C242.754 113.3 243.654 114.15 251.404 114.15C253.654 114.15 256.504 114.05 260.104 113.9C261.404 113.8 262.404 112.7 262.354 111.45C262.304 110.15 261.154 109.1 259.904 109.2C256.554 109.35 252.854 109.45 249.954 109.4C251.354 108.6 252.804 107.8 253.904 107.2C259.704 104 260.404 103.6 260.104 101.7C259.804 100 258.954 99.75 253.204 97.95C252.304 97.65 251.154 97.3 250.104 96.95C252.604 95 256.454 92.45 258.454 91.75C258.754 92.35 259.054 93.25 259.304 94.05ZM303.826 104.1C297.876 104.4 291.076 104.55 286.626 104.4C289.126 103.1 292.226 101.65 293.926 100.8C299.176 98.3 299.626 98.1 299.626 96.5C299.626 94.95 299.076 94.65 294.926 92.25C293.376 91.4 290.676 89.85 288.876 88.65C291.926 87.3 297.526 85.4 300.026 84.65C300.676 85.7 301.626 87.65 302.376 89.5C302.876 90.7 304.276 91.3 305.476 90.8C306.676 90.3 307.226 88.95 306.726 87.7C303.426 79.7 301.926 79.7 300.726 79.7C299.526 79.7 292.026 82.4 291.926 82.4C283.776 85.35 282.826 86.5 282.726 88.2C282.576 90.4 284.576 91.75 292.476 96.3C292.326 96.4 292.126 96.5 291.926 96.55C280.426 102.05 278.276 103.5 278.276 105.8C278.276 106.5 278.576 107.2 279.126 107.7C279.626 108.2 280.676 109.2 290.526 109.2C293.926 109.2 298.326 109.1 304.076 108.8C305.376 108.7 306.376 107.6 306.326 106.3C306.276 105 305.126 104 303.826 104.1ZM333.991 74.2C332.741 73.8 331.441 74.45 330.991 75.65L325.241 92.6C324.491 89.45 323.391 86.3 321.741 85.05C320.991 84.5 320.091 84.25 319.191 84.4C315.191 85 307.241 103.3 306.191 107.45C305.841 108.7 305.091 111.6 307.041 113.05C307.391 113.35 307.991 113.8 309.091 113.8C311.041 113.8 314.541 112.25 320.941 105.25L319.091 110.7C318.641 111.9 319.291 113.25 320.541 113.65C320.791 113.75 321.041 113.8 321.291 113.8C322.291 113.8 323.191 113.2 323.541 112.2L335.441 77.2C335.891 75.95 335.191 74.6 333.991 74.2ZM310.791 108.25C312.091 103.7 316.941 93.85 319.591 90.1C320.191 91.75 320.891 94.6 321.341 97.55C317.491 102.25 313.241 106.5 310.791 108.25ZM334.058 94.55C332.808 94.15 331.508 94.9 331.158 96.15C331.008 96.65 327.658 108.65 327.058 110.9C326.708 112.2 327.458 113.45 328.758 113.8C328.908 113.85 329.108 113.85 329.308 113.85C330.358 113.85 331.308 113.15 331.608 112.1C332.158 109.85 335.658 97.55 335.708 97.45C336.058 96.2 335.308 94.9 334.058 94.55ZM337.858 82.85C336.608 82.45 335.258 83.1 334.858 84.3L333.208 89.15C332.758 90.4 333.408 91.75 334.658 92.15C334.908 92.25 335.158 92.3 335.408 92.3C336.408 92.3 337.308 91.7 337.658 90.7L339.308 85.85C339.708 84.6 339.058 83.3 337.858 82.85ZM357.872 90.75C354.922 90.35 352.072 90.2 349.572 90.1L350.472 86.7C350.822 85.45 350.072 84.15 348.822 83.8C347.522 83.5 346.272 84.25 345.922 85.5L344.722 90.1C341.972 90.1 340.172 90.25 340.022 90.25C338.722 90.4 337.772 91.5 337.872 92.8C337.972 94.1 339.122 95.05 340.422 94.95C340.422 94.95 341.572 94.85 343.422 94.8L339.172 110.85C338.872 112.1 339.572 113.4 340.872 113.7C341.072 113.8 341.272 113.8 341.472 113.8C342.472 113.8 343.422 113.1 343.722 112.05L348.322 94.8C350.972 94.85 354.072 95 357.272 95.4C357.372 95.4 357.472 95.4 357.572 95.4C358.772 95.4 359.772 94.55 359.922 93.35C360.072 92.05 359.172 90.9 357.872 90.75ZM379.04 104.85C378.54 102.2 375.24 101.45 370.29 100.25C367.94 99.7 365.49 99.15 363.64 98.4C363.59 98.4 363.54 98.35 363.49 98.35C364.84 96.85 369.29 94.45 372.34 92.9L372.04 95.8C371.94 97.1 372.89 98.25 374.14 98.4C374.24 98.4 374.34 98.4 374.39 98.4C375.59 98.4 376.59 97.5 376.74 96.3L377.64 86.95C377.79 85.65 376.84 84.5 375.54 84.35C374.29 84.25 373.09 85.2 372.99 86.5L372.89 87.5C372.64 87.55 372.39 87.6 372.19 87.7C363.79 91.9 358.29 94.95 358.44 98.8C358.49 100 359.14 101.7 361.89 102.75C364.09 103.65 366.84 104.3 369.24 104.85C370.24 105.1 371.54 105.4 372.64 105.7C368.79 107.6 362.44 109.35 359.94 109.9C358.69 110.2 357.89 111.45 358.19 112.75C358.44 113.8 359.44 114.55 360.49 114.55C360.64 114.55 360.84 114.55 361.04 114.5C361.49 114.4 372.29 111.85 377.04 108.6C378.99 107.3 379.19 105.85 379.04 104.85ZM125.104 162.7L124.354 161.6H123.054C121.404 161.6 120.504 162.75 116.704 167.8C112.954 172.75 106.304 181.65 101.704 183.95C102.954 179.85 108.854 169.85 114.504 161.6C115.254 160.55 114.954 159.05 113.904 158.35C112.854 157.6 111.354 157.85 110.654 158.95C94.1037 182.95 96.6037 186.55 97.4037 187.75C97.8037 188.3 99.0537 189.65 101.604 189C106.154 187.9 111.154 182.55 116.354 175.95C114.404 180.75 112.004 186.3 109.654 191.6C109.154 192.8 109.654 194.15 110.854 194.7C111.154 194.85 111.504 194.9 111.804 194.9C112.704 194.9 113.554 194.35 113.954 193.5C126.604 164.95 125.904 163.9 125.104 162.7ZM141.268 165.2C139.968 165 138.818 165.95 138.618 167.2C138.218 170.45 137.418 176.8 136.718 182.1C135.868 179.1 134.868 175.25 133.668 170.6C133.368 169.45 133.168 168.6 133.018 168.1C132.618 166.6 131.418 166.1 130.518 166.1C128.518 166.1 127.218 166.1 120.518 193.2C120.168 194.5 120.968 195.75 122.218 196.05C122.418 196.1 122.618 196.15 122.768 196.15C123.818 196.15 124.818 195.4 125.068 194.35C126.718 187.7 128.668 180.5 130.118 175.65C134.868 193.85 135.468 193.85 137.618 193.8C138.518 193.8 139.668 193.25 140.018 191.75C140.718 188.85 143.068 169.95 143.318 167.8C143.468 166.5 142.568 165.35 141.268 165.2ZM152.726 159.2C151.476 158.85 150.176 159.6 149.826 160.85L141.176 193.05C140.826 194.3 141.576 195.6 142.826 195.95C143.026 196 143.226 196 143.426 196C144.476 196 145.426 195.3 145.726 194.25L154.376 162.05C154.726 160.8 153.976 159.55 152.726 159.2ZM169.735 168.1C167.685 166.65 164.885 166.45 162.035 167.55C159.535 168.6 157.135 170.55 155.285 173.1C153.435 175.65 152.335 178.55 152.185 181.25C151.985 184.3 153.035 186.9 155.035 188.35C156.235 189.2 157.635 189.6 159.135 189.6C160.285 189.6 161.485 189.4 162.735 188.9C165.235 187.9 167.635 185.9 169.485 183.35C173.585 177.7 173.685 171 169.735 168.1ZM165.685 180.6C164.385 182.45 162.635 183.85 160.985 184.55C159.685 185.05 158.535 185.05 157.835 184.55C157.135 184.05 156.785 182.95 156.835 181.55C156.985 179.75 157.785 177.65 159.085 175.85C160.435 174.05 162.135 172.6 163.785 171.95C164.485 171.65 165.085 171.55 165.635 171.55C166.185 171.55 166.635 171.65 166.985 171.9C168.535 173.05 168.285 177 165.685 180.6ZM165.685 191.85C161.685 190.8 150.935 190.95 149.735 191C148.435 191 147.385 192.05 147.385 193.35C147.435 194.65 148.535 195.75 149.785 195.7C152.885 195.65 161.635 195.65 164.485 196.4C164.685 196.45 164.885 196.5 165.085 196.5C166.135 196.5 167.085 195.8 167.385 194.7C167.685 193.45 166.935 192.15 165.685 191.85ZM188.478 178.35C188.678 178.45 188.928 178.5 189.178 178.5C190.178 178.5 191.078 177.85 191.428 176.9L195.478 164.6C195.878 163.4 195.228 162.05 193.978 161.65C192.778 161.25 191.428 161.9 191.028 163.15L189.978 166.25C189.778 166.2 189.528 166.2 189.278 166.25C184.828 166.85 178.728 172.45 175.178 177.4C172.878 180.55 170.328 185.25 171.128 189.55C171.478 191.45 172.528 192.9 174.228 193.75C175.378 194.35 176.778 194.55 178.278 194.55C183.928 194.55 191.128 191.25 192.828 190.4C193.978 189.85 194.478 188.45 193.928 187.3C193.328 186.1 191.928 185.6 190.778 186.2C186.428 188.3 178.828 190.8 176.328 189.55C176.028 189.4 175.828 189.2 175.728 188.7C175.378 186.65 176.528 183.55 178.978 180.15C181.778 176.2 185.628 172.9 188.228 171.55L186.978 175.4C186.578 176.65 187.228 177.95 188.478 178.35ZM219.454 163.85C218.554 162.9 217.054 162.85 216.104 163.7L203.354 175.3L207.204 162.55C207.604 161.3 206.904 160 205.654 159.65C204.404 159.25 203.104 159.95 202.704 161.2L192.304 195.5C191.954 196.75 192.654 198.1 193.904 198.45C194.104 198.5 194.354 198.55 194.554 198.55C195.554 198.55 196.504 197.9 196.804 196.9L200.054 186.2L212.254 194.65C212.654 194.95 213.104 195.05 213.604 195.05C214.354 195.05 215.054 194.7 215.504 194.05C216.254 193 216.004 191.55 214.954 190.8L202.654 182.25L219.254 167.2C220.254 166.3 220.304 164.8 219.454 163.85ZM263.338 164.3C261.988 159.15 253.788 157.9 236.888 160.25C235.588 160.45 234.688 161.65 234.838 162.9C235.038 164.2 236.238 165.1 237.538 164.95C239.338 164.65 240.988 164.45 242.488 164.3C233.488 186.3 234.488 187.3 235.588 188.45C236.088 188.95 236.738 189.2 237.388 189.2C237.688 189.2 238.038 189.15 238.338 189C238.638 188.9 265.888 173.75 263.338 164.3ZM240.688 182.2C242.238 177.7 245.038 170.55 247.788 163.9C258.038 163.4 258.788 165.5 258.788 165.5C259.738 168.6 247.738 177.65 240.688 182.2ZM276.405 168.1C274.355 166.65 271.555 166.45 268.705 167.55C266.205 168.6 263.805 170.55 261.955 173.1C260.105 175.65 259.005 178.55 258.855 181.25C258.655 184.3 259.705 186.9 261.705 188.35C262.905 189.2 264.305 189.6 265.805 189.6C266.955 189.6 268.155 189.4 269.405 188.9C271.905 187.9 274.305 185.9 276.155 183.35C280.255 177.7 280.355 171 276.405 168.1ZM272.355 180.6C271.055 182.45 269.305 183.85 267.655 184.55C266.355 185.05 265.205 185.05 264.505 184.55C263.805 184.05 263.455 182.95 263.505 181.55C263.655 179.75 264.455 177.65 265.755 175.85C267.105 174.05 268.805 172.6 270.455 171.95C271.155 171.65 271.755 171.55 272.305 171.55C272.855 171.55 273.305 171.65 273.655 171.9C275.205 173.05 274.955 177 272.355 180.6ZM272.355 191.85C268.355 190.8 257.605 190.95 256.405 191C255.105 191 254.055 192.05 254.055 193.35C254.105 194.65 255.205 195.75 256.455 195.7C259.555 195.65 268.305 195.65 271.155 196.4C271.355 196.45 271.555 196.5 271.755 196.5C272.805 196.5 273.755 195.8 274.055 194.7C274.355 193.45 273.605 192.15 272.355 191.85ZM308.447 164.65C307.247 164.2 305.897 164.9 305.497 166.1C305.297 166.7 302.097 176.4 299.797 183.5C299.297 180.9 298.797 178.2 298.547 176.85C298.397 175.85 298.247 175.05 298.147 174.65C297.897 173.45 297.047 172.6 295.947 172.5C293.747 172.2 292.797 173.2 286.897 185.8C286.247 180.9 285.597 173.5 285.147 166.7C285.047 165.4 283.897 164.4 282.597 164.5C281.347 164.6 280.347 165.75 280.447 167C282.297 194.25 283.747 194.55 285.647 194.9C285.797 194.95 285.947 194.95 286.147 194.95C286.947 194.95 287.947 194.55 288.547 193.4C288.897 192.65 289.497 191.35 290.247 189.8C291.247 187.65 292.997 183.85 294.497 180.85C296.747 192.9 297.397 193.8 299.547 193.85C300.497 193.9 301.747 193.35 302.147 191.75C302.747 189.45 307.547 174.95 309.947 167.6C310.347 166.35 309.697 165.05 308.447 164.65ZM326.75 165.2C325.45 165 324.3 165.95 324.1 167.2C323.7 170.45 322.9 176.8 322.2 182.1C321.35 179.1 320.35 175.25 319.15 170.6C318.85 169.45 318.65 168.6 318.5 168.1C318.1 166.6 316.9 166.1 316 166.1C314 166.1 312.7 166.1 306 193.2C305.65 194.5 306.45 195.75 307.7 196.05C307.9 196.1 308.1 196.15 308.25 196.15C309.3 196.15 310.3 195.4 310.55 194.35C312.2 187.7 314.15 180.5 315.6 175.65C320.35 193.85 320.95 193.85 323.1 193.8C324 193.8 325.15 193.25 325.5 191.75C326.2 188.85 328.55 169.95 328.8 167.8C328.95 166.5 328.05 165.35 326.75 165.2ZM338.209 159.2C336.959 158.85 335.659 159.6 335.309 160.85L326.659 193.05C326.309 194.3 327.059 195.6 328.309 195.95C328.509 196 328.709 196 328.909 196C329.959 196 330.909 195.3 331.209 194.25L339.859 162.05C340.209 160.8 339.459 159.55 338.209 159.2ZM355.218 168.1C353.168 166.65 350.368 166.45 347.518 167.55C345.018 168.6 342.618 170.55 340.768 173.1C338.918 175.65 337.818 178.55 337.668 181.25C337.468 184.3 338.518 186.9 340.518 188.35C341.718 189.2 343.118 189.6 344.618 189.6C345.768 189.6 346.968 189.4 348.218 188.9C350.718 187.9 353.118 185.9 354.968 183.35C359.068 177.7 359.168 171 355.218 168.1ZM351.168 180.6C349.868 182.45 348.118 183.85 346.468 184.55C345.168 185.05 344.018 185.05 343.318 184.55C342.618 184.05 342.268 182.95 342.318 181.55C342.468 179.75 343.268 177.65 344.568 175.85C345.918 174.05 347.618 172.6 349.268 171.95C349.968 171.65 350.568 171.55 351.118 171.55C351.668 171.55 352.118 171.65 352.468 171.9C354.018 173.05 353.768 177 351.168 180.6ZM351.168 191.85C347.168 190.8 336.418 190.95 335.218 191C333.918 191 332.868 192.05 332.868 193.35C332.918 194.65 334.018 195.75 335.268 195.7C338.368 195.65 347.118 195.65 349.968 196.4C350.168 196.45 350.368 196.5 350.568 196.5C351.618 196.5 352.568 195.8 352.868 194.7C353.168 193.45 352.418 192.15 351.168 191.85ZM379.023 168.25C377.773 167.85 376.473 168.5 376.023 169.75L375.073 172.65C374.323 169.45 373.223 166.3 371.573 165.05C370.823 164.5 369.923 164.25 369.023 164.4C365.023 165 357.073 183.3 356.023 187.45C355.673 188.7 354.923 191.6 356.873 193.05C357.223 193.35 357.823 193.8 358.923 193.8C360.873 193.8 364.373 192.25 370.773 185.25L368.923 190.7C368.473 191.9 369.123 193.25 370.373 193.65C370.623 193.75 370.873 193.8 371.123 193.8C372.123 193.8 373.023 193.2 373.373 192.2L380.473 171.25C380.923 170.05 380.273 168.7 379.023 168.25ZM360.623 188.25C361.923 183.7 366.773 173.85 369.423 170.1C370.023 171.75 370.723 174.6 371.173 177.55C367.323 182.25 363.073 186.5 360.623 188.25ZM404.942 154.2C403.692 153.8 402.392 154.45 401.942 155.65L396.192 172.6C395.442 169.45 394.342 166.3 392.692 165.05C391.942 164.5 391.042 164.25 390.142 164.4C386.142 165 378.192 183.3 377.142 187.45C376.792 188.7 376.042 191.6 377.992 193.05C378.342 193.35 378.942 193.8 380.042 193.8C381.992 193.8 385.492 192.25 391.892 185.25L390.042 190.7C389.592 191.9 390.242 193.25 391.492 193.65C391.742 193.75 391.992 193.8 392.242 193.8C393.242 193.8 394.142 193.2 394.492 192.2L406.392 157.2C406.842 155.95 406.142 154.6 404.942 154.2ZM381.742 188.25C383.042 183.7 387.892 173.85 390.542 170.1C391.142 171.75 391.842 174.6 392.292 177.55C388.442 182.25 384.192 186.5 381.742 188.25ZM421.278 184.85C420.778 182.2 417.478 181.45 412.528 180.25C410.178 179.7 407.728 179.15 405.878 178.4C405.828 178.4 405.778 178.35 405.728 178.35C407.078 176.85 411.528 174.45 414.578 172.9L414.278 175.8C414.178 177.1 415.128 178.25 416.378 178.4C416.478 178.4 416.578 178.4 416.628 178.4C417.828 178.4 418.828 177.5 418.978 176.3L419.878 166.95C420.028 165.65 419.078 164.5 417.778 164.35C416.528 164.25 415.328 165.2 415.228 166.5L415.128 167.5C414.878 167.55 414.628 167.6 414.428 167.7C406.028 171.9 400.528 174.95 400.678 178.8C400.728 180 401.378 181.7 404.128 182.75C406.328 183.65 409.078 184.3 411.478 184.85C412.478 185.1 413.778 185.4 414.878 185.7C411.028 187.6 404.678 189.35 402.178 189.9C400.928 190.2 400.128 191.45 400.428 192.75C400.678 193.8 401.678 194.55 402.728 194.55C402.878 194.55 403.078 194.55 403.278 194.5C403.728 194.4 414.528 191.85 419.278 188.6C421.228 187.3 421.428 185.85 421.278 184.85ZM59.2615 244.3C57.9115 239.15 49.7115 237.9 32.8115 240.25C31.5115 240.45 30.6115 241.65 30.7615 242.9C30.9615 244.2 32.1615 245.1 33.4615 244.95C35.2615 244.65 36.9115 244.45 38.4115 244.3C29.4115 266.3 30.4115 267.3 31.5115 268.45C32.0115 268.95 32.6615 269.2 33.3115 269.2C33.6115 269.2 33.9615 269.15 34.2615 269C34.5615 268.9 61.8115 253.75 59.2615 244.3ZM36.6115 262.2C38.1615 257.7 40.9615 250.55 43.7115 243.9C53.9615 243.4 54.7115 245.5 54.7115 245.5C55.6615 248.6 43.6615 257.65 36.6115 262.2ZM72.3291 248.1C70.2791 246.65 67.4791 246.45 64.6291 247.55C62.1291 248.6 59.7291 250.55 57.8791 253.1C56.0291 255.65 54.9291 258.55 54.7791 261.25C54.5791 264.3 55.6291 266.9 57.6291 268.35C58.8291 269.2 60.2291 269.6 61.7291 269.6C62.8791 269.6 64.0791 269.4 65.3291 268.9C67.8291 267.9 70.2291 265.9 72.0791 263.35C76.1791 257.7 76.2791 251 72.3291 248.1ZM68.2791 260.6C66.9791 262.45 65.2291 263.85 63.5791 264.55C62.2791 265.05 61.1291 265.05 60.4291 264.55C59.7291 264.05 59.3791 262.95 59.4291 261.55C59.5791 259.75 60.3791 257.65 61.6791 255.85C63.0291 254.05 64.7291 252.6 66.3791 251.95C67.0791 251.65 67.6791 251.55 68.2291 251.55C68.7791 251.55 69.2291 251.65 69.5791 251.9C71.1291 253.05 70.8791 257 68.2791 260.6ZM68.2791 271.85C64.2791 270.8 53.5291 270.95 52.3291 271C51.0291 271 49.9791 272.05 49.9791 273.35C50.0291 274.65 51.1291 275.75 52.3791 275.7C55.4791 275.65 64.2291 275.65 67.0791 276.4C67.2791 276.45 67.4791 276.5 67.6791 276.5C68.7291 276.5 69.6791 275.8 69.9791 274.7C70.2791 273.45 69.5291 272.15 68.2791 271.85ZM104.371 244.65C103.171 244.2 101.821 244.9 101.421 246.1C101.221 246.7 98.0213 256.4 95.7213 263.5C95.2213 260.9 94.7213 258.2 94.4713 256.85C94.3213 255.85 94.1713 255.05 94.0713 254.65C93.8213 253.45 92.9713 252.6 91.8713 252.5C89.6713 252.2 88.7213 253.2 82.8213 265.8C82.1713 260.9 81.5213 253.5 81.0713 246.7C80.9713 245.4 79.8213 244.4 78.5213 244.5C77.2713 244.6 76.2713 245.75 76.3713 247C78.2213 274.25 79.6713 274.55 81.5713 274.9C81.7213 274.95 81.8713 274.95 82.0713 274.95C82.8713 274.95 83.8713 274.55 84.4713 273.4C84.8213 272.65 85.4213 271.35 86.1713 269.8C87.1713 267.65 88.9213 263.85 90.4213 260.85C92.6713 272.9 93.3213 273.8 95.4713 273.85C96.4213 273.9 97.6713 273.35 98.0713 271.75C98.6713 269.45 103.471 254.95 105.871 247.6C106.271 246.35 105.621 245.05 104.371 244.65ZM122.674 245.2C121.374 245 120.224 245.95 120.024 247.2C119.624 250.45 118.824 256.8 118.124 262.1C117.274 259.1 116.274 255.25 115.074 250.6C114.774 249.45 114.574 248.6 114.424 248.1C114.024 246.6 112.824 246.1 111.924 246.1C109.924 246.1 108.624 246.1 101.924 273.2C101.574 274.5 102.374 275.75 103.624 276.05C103.824 276.1 104.024 276.15 104.174 276.15C105.224 276.15 106.224 275.4 106.474 274.35C108.124 267.7 110.074 260.5 111.524 255.65C116.274 273.85 116.874 273.85 119.024 273.8C119.924 273.8 121.074 273.25 121.424 271.75C122.124 268.85 124.474 249.95 124.724 247.8C124.874 246.5 123.974 245.35 122.674 245.2ZM134.133 239.2C132.883 238.85 131.583 239.6 131.233 240.85L122.583 273.05C122.233 274.3 122.983 275.6 124.233 275.95C124.433 276 124.633 276 124.833 276C125.883 276 126.833 275.3 127.133 274.25L135.783 242.05C136.133 240.8 135.383 239.55 134.133 239.2ZM151.142 248.1C149.092 246.65 146.292 246.45 143.442 247.55C140.942 248.6 138.542 250.55 136.692 253.1C134.842 255.65 133.742 258.55 133.592 261.25C133.392 264.3 134.442 266.9 136.442 268.35C137.642 269.2 139.042 269.6 140.542 269.6C141.692 269.6 142.892 269.4 144.142 268.9C146.642 267.9 149.042 265.9 150.892 263.35C154.992 257.7 155.092 251 151.142 248.1ZM147.092 260.6C145.792 262.45 144.042 263.85 142.392 264.55C141.092 265.05 139.942 265.05 139.242 264.55C138.542 264.05 138.192 262.95 138.242 261.55C138.392 259.75 139.192 257.65 140.492 255.85C141.842 254.05 143.542 252.6 145.192 251.95C145.892 251.65 146.492 251.55 147.042 251.55C147.592 251.55 148.042 251.65 148.392 251.9C149.942 253.05 149.692 257 147.092 260.6ZM147.092 271.85C143.092 270.8 132.342 270.95 131.142 271C129.842 271 128.792 272.05 128.792 273.35C128.842 274.65 129.942 275.75 131.192 275.7C134.292 275.65 143.042 275.65 145.892 276.4C146.092 276.45 146.292 276.5 146.492 276.5C147.542 276.5 148.492 275.8 148.792 274.7C149.092 273.45 148.342 272.15 147.092 271.85ZM174.947 248.25C173.697 247.85 172.397 248.5 171.947 249.75L170.997 252.65C170.247 249.45 169.147 246.3 167.497 245.05C166.747 244.5 165.847 244.25 164.947 244.4C160.947 245 152.997 263.3 151.947 267.45C151.597 268.7 150.847 271.6 152.797 273.05C153.147 273.35 153.747 273.8 154.847 273.8C156.797 273.8 160.297 272.25 166.697 265.25L164.847 270.7C164.397 271.9 165.047 273.25 166.297 273.65C166.547 273.75 166.797 273.8 167.047 273.8C168.047 273.8 168.947 273.2 169.297 272.2L176.397 251.25C176.847 250.05 176.197 248.7 174.947 248.25ZM156.547 268.25C157.847 263.7 162.697 253.85 165.347 250.1C165.947 251.75 166.647 254.6 167.097 257.55C163.247 262.25 158.997 266.5 156.547 268.25ZM200.866 234.2C199.616 233.8 198.316 234.45 197.866 235.65L192.116 252.6C191.366 249.45 190.266 246.3 188.616 245.05C187.866 244.5 186.966 244.25 186.066 244.4C182.066 245 174.116 263.3 173.066 267.45C172.716 268.7 171.966 271.6 173.916 273.05C174.266 273.35 174.866 273.8 175.966 273.8C177.916 273.8 181.416 272.25 187.816 265.25L185.966 270.7C185.516 271.9 186.166 273.25 187.416 273.65C187.666 273.75 187.916 273.8 188.166 273.8C189.166 273.8 190.066 273.2 190.416 272.2L202.316 237.2C202.766 235.95 202.066 234.6 200.866 234.2ZM177.666 268.25C178.966 263.7 183.816 253.85 186.466 250.1C187.066 251.75 187.766 254.6 188.216 257.55C184.366 262.25 180.116 266.5 177.666 268.25ZM251.933 230.1C241.633 229.35 218.733 233.05 217.783 233.2C216.483 233.4 215.583 234.6 215.833 235.9C215.983 237.05 216.983 237.85 218.133 237.85C218.283 237.85 218.383 237.85 218.533 237.85C218.583 237.85 220.783 237.45 224.033 237L220.283 247.05L215.933 248.1C214.633 248.4 213.883 249.65 214.133 250.9C214.383 252 215.383 252.7 216.433 252.7C216.633 252.7 216.783 252.7 216.983 252.65L218.283 252.35L213.133 266.2C212.633 267.4 213.283 268.75 214.483 269.2C214.783 269.35 215.033 269.4 215.333 269.4C216.283 269.4 217.183 268.8 217.533 267.85L223.783 251.1L229.883 249.65C231.183 249.4 231.933 248.1 231.683 246.85C231.383 245.6 230.083 244.8 228.833 245.1L225.783 245.8L229.333 236.3C236.733 235.35 246.183 234.4 251.583 234.8C252.883 234.85 253.983 233.9 254.083 232.6C254.183 231.3 253.233 230.2 251.933 230.1ZM237.76 265.35C238.01 265.4 238.26 265.5 238.51 265.5C238.56 265.5 238.61 265.5 238.66 265.5C239.66 265.5 240.56 265.1 241.26 264.45C246.91 258.8 250.76 246.35 248.66 243.45C248.26 242.85 247.46 242.45 246.76 242.4C245.91 242.3 244.66 242.25 237.81 248.95L238.56 246.4C238.91 245.15 238.21 243.85 237.01 243.5C235.76 243.1 234.41 243.8 234.06 245.05L230.71 256.3C230.51 256.6 230.41 256.95 230.41 257.3L225.31 274.2C224.96 275.45 225.66 276.75 226.91 277.1C227.11 277.2 227.36 277.2 227.56 277.2C228.61 277.2 229.51 276.55 229.81 275.55L232.56 266.5L238.11 273C238.56 273.5 239.21 273.8 239.91 273.8C240.46 273.8 240.96 273.6 241.41 273.25C242.41 272.4 242.51 270.9 241.66 269.9L237.76 265.35ZM243.91 249.65C243.01 253 241.21 257.55 238.36 260.65C237.66 260.3 236.41 259.3 235.31 258.15C238.26 255.1 241.51 251.9 243.91 249.65ZM265.552 248.1C263.502 246.65 260.702 246.45 257.852 247.55C255.352 248.6 252.952 250.55 251.102 253.1C249.252 255.65 248.152 258.55 248.002 261.25C247.802 264.3 248.852 266.9 250.852 268.35C252.052 269.2 253.452 269.6 254.952 269.6C256.102 269.6 257.302 269.4 258.552 268.9C261.052 267.9 263.452 265.9 265.302 263.35C269.402 257.7 269.502 251 265.552 248.1ZM261.502 260.6C260.202 262.45 258.452 263.85 256.802 264.55C255.502 265.05 254.352 265.05 253.652 264.55C252.952 264.05 252.602 262.95 252.652 261.55C252.802 259.75 253.602 257.65 254.902 255.85C256.252 254.05 257.952 252.6 259.602 251.95C260.302 251.65 260.902 251.55 261.452 251.55C262.002 251.55 262.452 251.65 262.802 251.9C264.352 253.05 264.102 257 261.502 260.6ZM261.502 271.85C257.502 270.8 246.752 270.95 245.552 271C244.252 271 243.202 272.05 243.202 273.35C243.252 274.65 244.352 275.75 245.602 275.7C248.702 275.65 257.452 275.65 260.302 276.4C260.502 276.45 260.702 276.5 260.902 276.5C261.952 276.5 262.902 275.8 263.202 274.7C263.502 273.45 262.752 272.15 261.502 271.85ZM296.294 253.25L295.544 252.45H294.444C292.694 252.45 292.094 253.2 286.644 262.55C286.394 263 286.144 263.5 285.844 263.95C285.844 263.25 285.844 262.5 285.894 261.85C286.044 250.85 285.944 249.3 284.844 248.2L284.044 247.45H283.094C281.994 247.45 281.144 247.45 275.444 255.85L277.044 249.75C277.394 248.5 276.644 247.25 275.394 246.9C274.094 246.55 272.844 247.3 272.494 248.6L266.694 270.85C266.344 272.1 267.094 273.4 268.344 273.75C268.544 273.8 268.744 273.8 268.944 273.8C269.994 273.8 270.944 273.1 271.244 272.05L271.694 270.25C275.044 265 278.694 259.45 281.244 255.8C281.244 257.75 281.194 259.95 281.194 261.75C280.994 271.25 281.094 272.1 282.044 273.1L282.794 273.8H283.794C285.544 273.8 286.044 272.95 290.694 264.9C291.094 264.25 291.544 263.5 291.994 262.7C291.644 266.9 291.044 272.2 290.444 277.2C290.294 278.5 291.194 279.65 292.494 279.8C292.594 279.85 292.694 279.85 292.794 279.85C293.944 279.85 294.994 278.95 295.094 277.75C297.894 255.05 297.094 254.15 296.294 253.25ZM336.244 235C334.994 234.65 333.694 235.35 333.294 236.6L332.044 240.85C331.294 240.4 330.594 240.25 330.144 240.2C324.294 239.6 315.944 249.9 313.944 258.05C312.344 264.55 315.094 267.25 316.844 268.3C318.144 269.05 319.594 269.35 321.144 269.35C323.994 269.35 327.044 268.2 328.794 266.5C331.294 264.2 333.144 260.75 333.794 259.35C334.394 258.2 333.894 256.8 332.744 256.2C331.544 255.65 330.144 256.1 329.594 257.3C328.694 259.1 327.144 261.6 325.594 263.1C324.244 264.35 320.844 265.15 319.244 264.25C317.794 263.4 318.044 261 318.494 259.15C320.444 251.3 327.794 244.45 329.594 244.8C329.594 244.85 329.994 245.25 330.044 246.9C330.044 247.05 330.044 247.2 330.094 247.35L329.794 248.4C329.394 249.65 330.094 250.95 331.344 251.3C331.594 251.4 331.794 251.4 332.044 251.4C333.044 251.4 333.944 250.75 334.294 249.75L337.794 237.95C338.194 236.7 337.494 235.4 336.244 235ZM352.47 248.1C350.42 246.65 347.62 246.45 344.77 247.55C342.27 248.6 339.87 250.55 338.02 253.1C336.17 255.65 335.07 258.55 334.92 261.25C334.72 264.3 335.77 266.9 337.77 268.35C338.97 269.2 340.37 269.6 341.87 269.6C343.02 269.6 344.22 269.4 345.47 268.9C347.97 267.9 350.37 265.9 352.22 263.35C356.32 257.7 356.42 251 352.47 248.1ZM348.42 260.6C347.12 262.45 345.37 263.85 343.72 264.55C342.42 265.05 341.27 265.05 340.57 264.55C339.87 264.05 339.52 262.95 339.57 261.55C339.72 259.75 340.52 257.65 341.82 255.85C343.17 254.05 344.87 252.6 346.52 251.95C347.22 251.65 347.82 251.55 348.37 251.55C348.92 251.55 349.37 251.65 349.72 251.9C351.27 253.05 351.02 257 348.42 260.6ZM348.42 271.85C344.42 270.8 333.67 270.95 332.47 271C331.17 271 330.12 272.05 330.12 273.35C330.17 274.65 331.27 275.75 332.52 275.7C335.62 275.65 344.37 275.65 347.22 276.4C347.42 276.45 347.62 276.5 347.82 276.5C348.87 276.5 349.82 275.8 350.12 274.7C350.42 273.45 349.67 272.15 348.42 271.85ZM364.271 239.2C363.021 238.85 361.721 239.6 361.371 240.85L352.721 273.05C352.371 274.3 353.121 275.6 354.371 275.95C354.571 276 354.771 276 354.971 276C356.021 276 356.971 275.3 357.271 274.25L365.921 242.05C366.271 240.8 365.521 239.55 364.271 239.2ZM372.939 239.2C371.689 238.85 370.389 239.6 370.039 240.85L361.389 273.05C361.039 274.3 361.789 275.6 363.039 275.95C363.239 276 363.439 276 363.639 276C364.689 276 365.639 275.3 365.939 274.25L374.589 242.05C374.939 240.8 374.189 239.55 372.939 239.2ZM387.57 254.05C387.92 255.3 389.17 256 390.47 255.65C391.72 255.3 392.42 254 392.07 252.75C390.67 247.6 389.02 246.9 387.72 246.85C383.72 246.65 374.47 253.8 372.77 255.6C372.47 255.9 371.67 256.8 371.82 258C372.07 259.95 373.47 260.35 380.07 262.45C380.27 262.5 380.47 262.55 380.72 262.65C380.42 262.8 380.17 262.95 379.92 263.05C371.47 267.7 369.67 268.85 369.67 270.9C369.67 271.6 369.97 272.3 370.52 272.8C371.02 273.3 371.92 274.15 379.67 274.15C381.92 274.15 384.77 274.05 388.37 273.9C389.67 273.8 390.67 272.7 390.62 271.45C390.57 270.15 389.42 269.1 388.17 269.2C384.82 269.35 381.12 269.45 378.22 269.4C379.62 268.6 381.07 267.8 382.17 267.2C387.97 264 388.67 263.6 388.37 261.7C388.07 260 387.22 259.75 381.47 257.95C380.57 257.65 379.42 257.3 378.37 256.95C380.87 255 384.72 252.45 386.72 251.75C387.02 252.35 387.32 253.25 387.57 254.05ZM408.446 258.35C408.646 258.45 408.896 258.5 409.146 258.5C410.146 258.5 411.046 257.85 411.396 256.9L415.446 244.6C415.846 243.4 415.196 242.05 413.946 241.65C412.746 241.25 411.396 241.9 410.996 243.15L409.946 246.25C409.746 246.2 409.496 246.2 409.246 246.25C404.796 246.85 398.696 252.45 395.146 257.4C392.846 260.55 390.296 265.25 391.096 269.55C391.446 271.45 392.496 272.9 394.196 273.75C395.346 274.35 396.746 274.55 398.246 274.55C403.896 274.55 411.096 271.25 412.796 270.4C413.946 269.85 414.446 268.45 413.896 267.3C413.296 266.1 411.896 265.6 410.746 266.2C406.396 268.3 398.796 270.8 396.296 269.55C395.996 269.4 395.796 269.2 395.696 268.7C395.346 266.65 396.496 263.55 398.946 260.15C401.746 256.2 405.596 252.9 408.196 251.55L406.946 255.4C406.546 256.65 407.196 257.95 408.446 258.35ZM434.304 250.75C431.354 250.35 428.504 250.2 426.004 250.1L426.904 246.7C427.254 245.45 426.504 244.15 425.254 243.8C423.954 243.5 422.704 244.25 422.354 245.5L421.154 250.1C418.404 250.1 416.604 250.25 416.454 250.25C415.154 250.4 414.204 251.5 414.304 252.8C414.404 254.1 415.554 255.05 416.854 254.95C416.854 254.95 418.004 254.85 419.854 254.8L415.604 270.85C415.304 272.1 416.004 273.4 417.304 273.7C417.504 273.8 417.704 273.8 417.904 273.8C418.904 273.8 419.854 273.1 420.154 272.05L424.754 254.8C427.404 254.85 430.504 255 433.704 255.4C433.804 255.4 433.904 255.4 434.004 255.4C435.204 255.4 436.204 254.55 436.354 253.35C436.504 252.05 435.604 250.9 434.304 250.75ZM439.593 254.55C438.343 254.15 437.043 254.9 436.693 256.15C436.543 256.65 433.193 268.65 432.593 270.9C432.243 272.2 432.993 273.45 434.293 273.8C434.443 273.85 434.643 273.85 434.843 273.85C435.893 273.85 436.843 273.15 437.143 272.1C437.693 269.85 441.193 257.55 441.243 257.45C441.593 256.2 440.843 254.9 439.593 254.55ZM443.393 242.85C442.143 242.45 440.793 243.1 440.393 244.3L438.743 249.15C438.293 250.4 438.943 251.75 440.193 252.15C440.443 252.25 440.693 252.3 440.943 252.3C441.943 252.3 442.843 251.7 443.193 250.7L444.843 245.85C445.243 244.6 444.593 243.3 443.393 242.85ZM463.595 247.8C463.195 247.25 462.445 246.85 461.745 246.8C460.845 246.7 459.595 246.6 450.745 254.5L456.145 239.65C456.545 238.45 455.945 237.1 454.695 236.65C453.495 236.2 452.145 236.85 451.695 238.05L438.995 273.05C438.545 274.25 439.195 275.6 440.395 276.05C440.645 276.15 440.945 276.2 441.195 276.2C442.145 276.2 443.095 275.6 443.395 274.65L445.545 268.75C447.245 271.1 449.295 273.3 451.245 273.7C451.495 273.8 451.745 273.8 452.045 273.8C452.695 273.8 453.395 273.6 453.945 273.2C456.895 271.15 463.345 254.25 463.995 250.5C464.145 249.65 464.195 248.7 463.595 247.8ZM451.695 268.7C450.695 267.8 449.095 265.8 447.795 263.65C451.245 260.4 455.045 256.95 457.895 254.55C456.145 259.45 453.245 266.25 451.695 268.7ZM471.431 239.2C470.181 238.85 468.881 239.6 468.531 240.85L459.881 273.05C459.531 274.3 460.281 275.6 461.531 275.95C461.731 276 461.931 276 462.131 276C463.181 276 464.131 275.3 464.431 274.25L473.081 242.05C473.431 240.8 472.681 239.55 471.431 239.2ZM486.062 254.05C486.412 255.3 487.662 256 488.962 255.65C490.212 255.3 490.912 254 490.562 252.75C489.162 247.6 487.512 246.9 486.212 246.85C482.212 246.65 472.962 253.8 471.262 255.6C470.962 255.9 470.162 256.8 470.312 258C470.562 259.95 471.962 260.35 478.562 262.45C478.762 262.5 478.962 262.55 479.212 262.65C478.912 262.8 478.662 262.95 478.412 263.05C469.962 267.7 468.162 268.85 468.162 270.9C468.162 271.6 468.462 272.3 469.012 272.8C469.512 273.3 470.412 274.15 478.162 274.15C480.412 274.15 483.262 274.05 486.862 273.9C488.162 273.8 489.162 272.7 489.112 271.45C489.062 270.15 487.912 269.1 486.662 269.2C483.312 269.35 479.612 269.45 476.712 269.4C478.112 268.6 479.562 267.8 480.662 267.2C486.462 264 487.162 263.6 486.862 261.7C486.562 260 485.712 259.75 479.962 257.95C479.062 257.65 477.912 257.3 476.862 256.95C479.362 255 483.212 252.45 485.212 251.75C485.512 252.35 485.812 253.25 486.062 254.05ZM24.0959 315C22.8459 314.65 21.5459 315.35 21.1459 316.6L19.8959 320.85C19.1459 320.4 18.4459 320.25 17.9959 320.2C12.1459 319.6 3.7959 329.9 1.7959 338.05C0.195898 344.55 2.9459 347.25 4.6959 348.3C5.9959 349.05 7.4459 349.35 8.9959 349.35C11.8459 349.35 14.8959 348.2 16.6459 346.5C19.1459 344.2 20.9959 340.75 21.6459 339.35C22.2459 338.2 21.7459 336.8 20.5959 336.2C19.3959 335.65 17.9959 336.1 17.4459 337.3C16.5459 339.1 14.9959 341.6 13.4459 343.1C12.0959 344.35 8.6959 345.15 7.0959 344.25C5.6459 343.4 5.8959 341 6.3459 339.15C8.2959 331.3 15.6459 324.45 17.4459 324.8C17.4459 324.85 17.8459 325.25 17.8959 326.9C17.8959 327.05 17.8959 327.2 17.9459 327.35L17.6459 328.4C17.2459 329.65 17.9459 330.95 19.1959 331.3C19.4459 331.4 19.6459 331.4 19.8959 331.4C20.8959 331.4 21.7959 330.75 22.1459 329.75L25.6459 317.95C26.0459 316.7 25.3459 315.4 24.0959 315ZM40.3213 328.1C38.2713 326.65 35.4713 326.45 32.6213 327.55C30.1213 328.6 27.7213 330.55 25.8713 333.1C24.0213 335.65 22.9213 338.55 22.7713 341.25C22.5713 344.3 23.6213 346.9 25.6213 348.35C26.8213 349.2 28.2213 349.6 29.7213 349.6C30.8713 349.6 32.0713 349.4 33.3213 348.9C35.8213 347.9 38.2213 345.9 40.0713 343.35C44.1713 337.7 44.2713 331 40.3213 328.1ZM36.2713 340.6C34.9713 342.45 33.2213 343.85 31.5713 344.55C30.2713 345.05 29.1213 345.05 28.4213 344.55C27.7213 344.05 27.3713 342.95 27.4213 341.55C27.5713 339.75 28.3713 337.65 29.6713 335.85C31.0213 334.05 32.7213 332.6 34.3713 331.95C35.0713 331.65 35.6713 331.55 36.2213 331.55C36.7713 331.55 37.2213 331.65 37.5713 331.9C39.1213 333.05 38.8713 337 36.2713 340.6ZM36.2713 351.85C32.2713 350.8 21.5213 350.95 20.3213 351C19.0213 351 17.9713 352.05 17.9713 353.35C18.0213 354.65 19.1213 355.75 20.3713 355.7C23.4713 355.65 32.2213 355.65 35.0713 356.4C35.2713 356.45 35.4713 356.5 35.6713 356.5C36.7213 356.5 37.6713 355.8 37.9713 354.7C38.2713 353.45 37.5213 352.15 36.2713 351.85ZM52.1229 319.2C50.8729 318.85 49.5729 319.6 49.2229 320.85L40.5729 353.05C40.2229 354.3 40.9729 355.6 42.2229 355.95C42.4229 356 42.6229 356 42.8229 356C43.8729 356 44.8229 355.3 45.1229 354.25L53.7729 322.05C54.1229 320.8 53.3729 319.55 52.1229 319.2ZM60.7908 319.2C59.5408 318.85 58.2408 319.6 57.8908 320.85L49.2408 353.05C48.8908 354.3 49.6408 355.6 50.8908 355.95C51.0908 356 51.2908 356 51.4908 356C52.5408 356 53.4908 355.3 53.7908 354.25L62.4408 322.05C62.7908 320.8 62.0408 319.55 60.7908 319.2ZM75.4217 334.05C75.7717 335.3 77.0217 336 78.3217 335.65C79.5717 335.3 80.2717 334 79.9217 332.75C78.5217 327.6 76.8717 326.9 75.5717 326.85C71.5717 326.65 62.3217 333.8 60.6217 335.6C60.3217 335.9 59.5217 336.8 59.6717 338C59.9217 339.95 61.3217 340.35 67.9217 342.45C68.1217 342.5 68.3217 342.55 68.5717 342.65C68.2717 342.8 68.0217 342.95 67.7717 343.05C59.3217 347.7 57.5217 348.85 57.5217 350.9C57.5217 351.6 57.8217 352.3 58.3717 352.8C58.8717 353.3 59.7717 354.15 67.5217 354.15C69.7717 354.15 72.6217 354.05 76.2217 353.9C77.5217 353.8 78.5217 352.7 78.4717 351.45C78.4217 350.15 77.2717 349.1 76.0217 349.2C72.6717 349.35 68.9717 349.45 66.0717 349.4C67.4717 348.6 68.9217 347.8 70.0217 347.2C75.8217 344 76.5217 343.6 76.2217 341.7C75.9217 340 75.0717 339.75 69.3217 337.95C68.4217 337.65 67.2717 337.3 66.2217 336.95C68.7217 335 72.5717 332.45 74.5717 331.75C74.8717 332.35 75.1717 333.25 75.4217 334.05ZM96.2979 338.35C96.4979 338.45 96.7479 338.5 96.9979 338.5C97.9979 338.5 98.8979 337.85 99.2479 336.9L103.298 324.6C103.698 323.4 103.048 322.05 101.798 321.65C100.598 321.25 99.2479 321.9 98.8479 323.15L97.7979 326.25C97.5979 326.2 97.3479 326.2 97.0979 326.25C92.6479 326.85 86.5479 332.45 82.9979 337.4C80.6979 340.55 78.1479 345.25 78.9479 349.55C79.2979 351.45 80.3479 352.9 82.0479 353.75C83.1979 354.35 84.5979 354.55 86.0979 354.55C91.7479 354.55 98.9479 351.25 100.648 350.4C101.798 349.85 102.298 348.45 101.748 347.3C101.148 346.1 99.7479 345.6 98.5979 346.2C94.2479 348.3 86.6479 350.8 84.1479 349.55C83.8479 349.4 83.6479 349.2 83.5479 348.7C83.1979 346.65 84.3479 343.55 86.7979 340.15C89.5979 336.2 93.4479 332.9 96.0479 331.55L94.7979 335.4C94.3979 336.65 95.0479 337.95 96.2979 338.35ZM122.155 330.75C119.205 330.35 116.355 330.2 113.855 330.1L114.755 326.7C115.105 325.45 114.355 324.15 113.105 323.8C111.805 323.5 110.555 324.25 110.205 325.5L109.005 330.1C106.255 330.1 104.455 330.25 104.305 330.25C103.005 330.4 102.055 331.5 102.155 332.8C102.255 334.1 103.405 335.05 104.705 334.95C104.705 334.95 105.855 334.85 107.705 334.8L103.455 350.85C103.155 352.1 103.855 353.4 105.155 353.7C105.355 353.8 105.555 353.8 105.755 353.8C106.755 353.8 107.705 353.1 108.005 352.05L112.605 334.8C115.255 334.85 118.355 335 121.555 335.4C121.655 335.4 121.755 335.4 121.855 335.4C123.055 335.4 124.055 334.55 124.205 333.35C124.355 332.05 123.455 330.9 122.155 330.75ZM165.719 331.25C164.719 330.4 163.269 330.55 162.419 331.55C160.219 334.2 155.719 339.25 151.119 343.75C150.119 343 149.219 342.25 148.419 341.5C148.669 341.05 148.969 340.6 149.219 340.15C155.369 330.15 157.669 326.15 157.119 323.65C156.769 321.9 155.469 320.8 153.719 320.7C149.169 320.5 141.569 328.55 139.769 334.15C138.969 336.7 140.269 339.5 142.519 342.15C137.169 350.95 136.119 353.8 137.819 355.85C138.169 356.3 138.919 356.9 140.169 356.9C140.669 356.9 141.269 356.8 141.969 356.55C144.669 355.5 148.069 352.95 151.419 349.9C153.919 351.6 156.219 352.95 157.569 353.75C158.719 354.4 160.119 354 160.769 352.9C161.419 351.75 161.069 350.35 159.919 349.7C158.219 348.7 156.519 347.65 154.969 346.6C160.419 341.25 165.169 335.6 166.019 334.55C166.869 333.55 166.719 332.05 165.719 331.25ZM144.269 335.6C145.369 332.15 149.319 328 151.869 326.25C150.519 329.1 147.419 334.1 145.219 337.7C145.169 337.8 145.119 337.85 145.069 337.9C144.419 336.95 144.069 336.15 144.269 335.6ZM143.069 350.6C143.819 349.15 144.869 347.4 145.919 345.6C146.469 346.1 147.019 346.55 147.569 347C146.019 348.4 144.469 349.65 143.069 350.6ZM186.594 338.9C186.494 338.9 186.344 338.9 186.244 338.9C188.594 336.05 196.694 330.3 202.094 327.25C201.394 328.9 200.344 331.05 199.194 333C198.544 334.1 198.944 335.55 200.044 336.2C201.194 336.85 202.644 336.5 203.294 335.35C209.294 325.05 207.494 323.1 206.744 322.25C206.144 321.6 204.744 320.7 202.244 321.9C201.994 322 179.494 334 181.044 340.55C181.494 342.6 183.344 343.6 186.644 343.6C191.244 343.55 194.394 343.9 196.394 344.25C192.344 345.65 185.744 347.15 182.894 346.75C181.644 346.6 180.444 347.5 180.244 348.8C180.094 350.05 180.994 351.25 182.294 351.4C182.744 351.5 183.294 351.5 183.894 351.5C189.394 351.5 198.694 348.8 201.494 347.2C203.894 345.85 203.594 343.9 203.394 343.35C202.594 340.3 196.944 338.8 186.594 338.9ZM220.472 334.05C220.822 335.3 222.072 336 223.372 335.65C224.622 335.3 225.322 334 224.972 332.75C223.572 327.6 221.922 326.9 220.622 326.85C216.622 326.65 207.372 333.8 205.672 335.6C205.372 335.9 204.572 336.8 204.722 338C204.972 339.95 206.372 340.35 212.972 342.45C213.172 342.5 213.372 342.55 213.622 342.65C213.322 342.8 213.072 342.95 212.822 343.05C204.372 347.7 202.572 348.85 202.572 350.9C202.572 351.6 202.872 352.3 203.422 352.8C203.922 353.3 204.822 354.15 212.572 354.15C214.822 354.15 217.672 354.05 221.272 353.9C222.572 353.8 223.572 352.7 223.522 351.45C223.472 350.15 222.322 349.1 221.072 349.2C217.722 349.35 214.022 349.45 211.122 349.4C212.522 348.6 213.972 347.8 215.072 347.2C220.872 344 221.572 343.6 221.272 341.7C220.972 340 220.122 339.75 214.372 337.95C213.472 337.65 212.322 337.3 211.272 336.95C213.772 335 217.622 332.45 219.622 331.75C219.922 332.35 220.222 333.25 220.472 334.05ZM234.799 319.2C233.549 318.85 232.249 319.6 231.899 320.85L223.249 353.05C222.899 354.3 223.649 355.6 224.899 355.95C225.099 356 225.299 356 225.499 356C226.549 356 227.499 355.3 227.799 354.25L236.449 322.05C236.799 320.8 236.049 319.55 234.799 319.2ZM243.467 319.2C242.217 318.85 240.917 319.6 240.567 320.85L231.917 353.05C231.567 354.3 232.317 355.6 233.567 355.95C233.767 356 233.967 356 234.167 356C235.217 356 236.167 355.3 236.467 354.25L245.117 322.05C245.467 320.8 244.717 319.55 243.467 319.2ZM279.63 322.55C273.63 318.8 265.28 321.4 260.98 328.25C256.68 335.15 258.08 343.8 264.08 347.55C265.93 348.7 268.03 349.25 270.18 349.25C274.88 349.25 279.78 346.55 282.73 341.85C287.03 334.95 285.63 326.3 279.63 322.55ZM278.73 339.35C275.83 344.05 270.33 345.9 266.53 343.55C262.73 341.2 262.03 335.45 264.98 330.75C267.03 327.45 270.38 325.55 273.48 325.55C274.78 325.55 276.03 325.85 277.13 326.55C280.93 328.9 281.63 334.65 278.73 339.35ZM273.38 328.6C272.13 328.15 270.78 328.8 270.38 330L267.63 337.7C267.18 338.9 267.83 340.25 269.08 340.7C269.33 340.8 269.58 340.85 269.83 340.85C270.83 340.85 271.73 340.25 272.08 339.25L274.78 331.6C275.23 330.35 274.58 329 273.38 328.6ZM269.83 318.65H279.18C280.48 318.65 281.53 317.6 281.53 316.3C281.53 315 280.48 313.95 279.18 313.95H269.83C268.53 313.95 267.48 315 267.48 316.3C267.48 317.6 268.53 318.65 269.83 318.65ZM304.131 325.2C302.831 325 301.681 325.95 301.481 327.2C301.081 330.45 300.281 336.8 299.581 342.1C298.731 339.1 297.731 335.25 296.531 330.6C296.231 329.45 296.031 328.6 295.881 328.1C295.481 326.6 294.281 326.1 293.381 326.1C291.381 326.1 290.081 326.1 283.381 353.2C283.031 354.5 283.831 355.75 285.081 356.05C285.281 356.1 285.481 356.15 285.631 356.15C286.681 356.15 287.681 355.4 287.931 354.35C289.581 347.7 291.531 340.5 292.981 335.65C297.731 353.85 298.331 353.85 300.481 353.8C301.381 353.8 302.531 353.25 302.881 351.75C303.581 348.85 305.931 329.95 306.181 327.8C306.331 326.5 305.431 325.35 304.131 325.2ZM326.885 338.9C326.785 338.9 326.635 338.9 326.535 338.9C328.885 336.05 336.985 330.3 342.385 327.25C341.685 328.9 340.635 331.05 339.485 333C338.835 334.1 339.235 335.55 340.335 336.2C341.485 336.85 342.935 336.5 343.585 335.35C349.585 325.05 347.785 323.1 347.035 322.25C346.435 321.6 345.035 320.7 342.535 321.9C342.285 322 319.785 334 321.335 340.55C321.785 342.6 323.635 343.6 326.935 343.6C331.535 343.55 334.685 343.9 336.685 344.25C332.635 345.65 326.035 347.15 323.185 346.75C321.935 346.6 320.735 347.5 320.535 348.8C320.385 350.05 321.285 351.25 322.585 351.4C323.035 351.5 323.585 351.5 324.185 351.5C329.685 351.5 338.985 348.8 341.785 347.2C344.185 345.85 343.885 343.9 343.685 343.35C342.885 340.3 337.235 338.8 326.885 338.9ZM360.763 334.05C361.113 335.3 362.363 336 363.663 335.65C364.913 335.3 365.613 334 365.263 332.75C363.863 327.6 362.213 326.9 360.913 326.85C356.913 326.65 347.663 333.8 345.963 335.6C345.663 335.9 344.863 336.8 345.013 338C345.263 339.95 346.663 340.35 353.263 342.45C353.463 342.5 353.663 342.55 353.913 342.65C353.613 342.8 353.363 342.95 353.113 343.05C344.663 347.7 342.863 348.85 342.863 350.9C342.863 351.6 343.163 352.3 343.713 352.8C344.213 353.3 345.113 354.15 352.863 354.15C355.113 354.15 357.963 354.05 361.563 353.9C362.863 353.8 363.863 352.7 363.813 351.45C363.763 350.15 362.613 349.1 361.363 349.2C358.013 349.35 354.313 349.45 351.413 349.4C352.813 348.6 354.263 347.8 355.363 347.2C361.163 344 361.863 343.6 361.563 341.7C361.263 340 360.413 339.75 354.663 337.95C353.763 337.65 352.613 337.3 351.563 336.95C354.063 335 357.913 332.45 359.913 331.75C360.213 332.35 360.513 333.25 360.763 334.05ZM381.64 338.35C381.84 338.45 382.09 338.5 382.34 338.5C383.34 338.5 384.24 337.85 384.59 336.9L388.64 324.6C389.04 323.4 388.39 322.05 387.14 321.65C385.94 321.25 384.59 321.9 384.19 323.15L383.14 326.25C382.94 326.2 382.69 326.2 382.44 326.25C377.99 326.85 371.89 332.45 368.34 337.4C366.04 340.55 363.49 345.25 364.29 349.55C364.64 351.45 365.69 352.9 367.39 353.75C368.54 354.35 369.94 354.55 371.44 354.55C377.09 354.55 384.29 351.25 385.99 350.4C387.14 349.85 387.64 348.45 387.09 347.3C386.49 346.1 385.09 345.6 383.94 346.2C379.59 348.3 371.99 350.8 369.49 349.55C369.19 349.4 368.99 349.2 368.89 348.7C368.54 346.65 369.69 343.55 372.14 340.15C374.94 336.2 378.79 332.9 381.39 331.55L380.14 335.4C379.74 336.65 380.39 337.95 381.64 338.35ZM408.017 328.1C405.967 326.65 403.167 326.45 400.317 327.55C397.817 328.6 395.417 330.55 393.567 333.1C391.717 335.65 390.617 338.55 390.467 341.25C390.267 344.3 391.317 346.9 393.317 348.35C394.517 349.2 395.917 349.6 397.417 349.6C398.567 349.6 399.767 349.4 401.017 348.9C403.517 347.9 405.917 345.9 407.767 343.35C411.867 337.7 411.967 331 408.017 328.1ZM403.967 340.6C402.667 342.45 400.917 343.85 399.267 344.55C397.967 345.05 396.817 345.05 396.117 344.55C395.417 344.05 395.067 342.95 395.117 341.55C395.267 339.75 396.067 337.65 397.367 335.85C398.717 334.05 400.417 332.6 402.067 331.95C402.767 331.65 403.367 331.55 403.917 331.55C404.467 331.55 404.917 331.65 405.267 331.9C406.817 333.05 406.567 337 403.967 340.6ZM403.967 351.85C399.967 350.8 389.217 350.95 388.017 351C386.717 351 385.667 352.05 385.667 353.35C385.717 354.65 386.817 355.75 388.067 355.7C391.167 355.65 399.917 355.65 402.767 356.4C402.967 356.45 403.167 356.5 403.367 356.5C404.417 356.5 405.367 355.8 405.667 354.7C405.967 353.45 405.217 352.15 403.967 351.85ZM430.016 325.2C428.716 325 427.566 325.95 427.366 327.2C426.966 330.45 426.166 336.8 425.466 342.1C424.616 339.1 423.616 335.25 422.416 330.6C422.116 329.45 421.916 328.6 421.766 328.1C421.366 326.6 420.166 326.1 419.266 326.1C417.266 326.1 415.966 326.1 409.266 353.2C408.916 354.5 409.716 355.75 410.966 356.05C411.166 356.1 411.366 356.15 411.516 356.15C412.566 356.15 413.566 355.4 413.816 354.35C415.466 347.7 417.416 340.5 418.866 335.65C423.616 353.85 424.216 353.85 426.366 353.8C427.266 353.8 428.416 353.25 428.766 351.75C429.466 348.85 431.816 329.95 432.066 327.8C432.216 326.5 431.316 325.35 430.016 325.2ZM458.424 314.2C457.174 313.8 455.874 314.45 455.424 315.65L449.674 332.6C448.924 329.45 447.824 326.3 446.174 325.05C445.424 324.5 444.524 324.25 443.624 324.4C439.624 325 431.674 343.3 430.624 347.45C430.274 348.7 429.524 351.6 431.474 353.05C431.824 353.35 432.424 353.8 433.524 353.8C435.474 353.8 438.974 352.25 445.374 345.25L443.524 350.7C443.074 351.9 443.724 353.25 444.974 353.65C445.224 353.75 445.474 353.8 445.724 353.8C446.724 353.8 447.624 353.2 447.974 352.2L459.874 317.2C460.324 315.95 459.624 314.6 458.424 314.2ZM435.224 348.25C436.524 343.7 441.374 333.85 444.024 330.1C444.624 331.75 445.324 334.6 445.774 337.55C441.924 342.25 437.674 346.5 435.224 348.25ZM474.304 328.25C473.054 327.85 471.754 328.5 471.304 329.75L470.354 332.65C469.604 329.45 468.504 326.3 466.854 325.05C466.104 324.5 465.204 324.25 464.304 324.4C460.304 325 452.354 343.3 451.304 347.45C450.954 348.7 450.204 351.6 452.154 353.05C452.504 353.35 453.104 353.8 454.204 353.8C456.154 353.8 459.654 352.25 466.054 345.25L464.204 350.7C463.754 351.9 464.404 353.25 465.654 353.65C465.904 353.75 466.154 353.8 466.404 353.8C467.404 353.8 468.304 353.2 468.654 352.2L475.754 331.25C476.204 330.05 475.554 328.7 474.304 328.25ZM455.904 348.25C457.204 343.7 462.054 333.85 464.704 330.1C465.304 331.75 466.004 334.6 466.454 337.55C462.604 342.25 458.354 346.5 455.904 348.25ZM483.526 345.35C483.776 345.4 484.026 345.5 484.276 345.5C484.326 345.5 484.376 345.5 484.426 345.5C485.426 345.5 486.326 345.1 487.026 344.45C492.676 338.8 496.526 326.35 494.426 323.45C494.026 322.85 493.226 322.45 492.526 322.4C491.676 322.3 490.426 322.25 483.576 328.95L484.326 326.4C484.676 325.15 483.976 323.85 482.776 323.5C481.526 323.1 480.176 323.8 479.826 325.05L476.476 336.3C476.276 336.6 476.176 336.95 476.176 337.3L471.076 354.2C470.726 355.45 471.426 356.75 472.676 357.1C472.876 357.2 473.126 357.2 473.326 357.2C474.376 357.2 475.276 356.55 475.576 355.55L478.326 346.5L483.876 353C484.326 353.5 484.976 353.8 485.676 353.8C486.226 353.8 486.726 353.6 487.176 353.25C488.176 352.4 488.276 350.9 487.426 349.9L483.526 345.35ZM489.676 329.65C488.776 333 486.976 337.55 484.126 340.65C483.426 340.3 482.176 339.3 481.076 338.15C484.026 335.1 487.276 331.9 489.676 329.65ZM519.603 328.7C519.603 328.6 519.603 328.55 519.553 328.45C519.553 328.4 519.553 328.3 519.503 328.25C519.503 328.15 519.453 328.1 519.453 328.05C519.403 327.95 519.353 327.9 519.353 327.85C519.303 327.75 519.253 327.7 519.203 327.65C519.153 327.55 519.153 327.5 519.103 327.45C519.053 327.4 519.003 327.35 518.953 327.3C518.853 327.25 518.803 327.15 518.753 327.1C518.703 327.1 518.703 327.1 518.653 327.05C518.653 327.05 518.603 327 518.553 327C518.503 326.95 518.453 326.9 518.353 326.85C518.303 326.85 518.203 326.8 518.153 326.75C518.103 326.75 518.053 326.75 518.003 326.7H517.953C517.853 326.65 517.753 326.65 517.703 326.65C517.603 326.65 517.553 326.6 517.453 326.6C517.403 326.6 517.303 326.6 517.253 326.6C517.153 326.6 517.103 326.6 517.003 326.6C516.953 326.65 516.853 326.65 516.803 326.65C516.703 326.65 516.653 326.7 516.553 326.7C516.503 326.75 516.453 326.75 516.353 326.8C516.303 326.8 516.253 326.85 516.153 326.9C516.103 326.9 516.053 326.95 515.953 327C515.903 327.05 515.853 327.1 515.803 327.15C515.703 327.2 515.653 327.25 515.603 327.3C515.553 327.35 515.503 327.4 515.453 327.45C515.453 327.5 515.403 327.5 515.403 327.55C508.303 337.1 499.303 347.7 495.653 350.2C495.403 346.8 498.753 337.2 503.553 328.1C504.153 326.95 503.703 325.5 502.553 324.9C501.403 324.3 500.003 324.75 499.403 325.9C495.753 332.8 487.803 349.45 492.603 354.55L493.003 354.9C493.403 355.15 493.903 355.5 494.703 355.5C496.803 355.5 500.953 353.2 510.603 341.4L503.353 363L498.303 361.55L500.903 359.3C501.853 358.4 501.953 356.95 501.103 355.95C500.253 355 498.753 354.9 497.753 355.75L492.703 360.25C492.003 360.9 491.653 361.9 491.853 362.9C492.003 363.85 492.653 364.65 493.553 365.05L503.303 367.9C503.603 367.95 503.853 368 504.153 368C505.553 368 506.853 367.1 507.403 365.65L519.503 329.7C519.503 329.65 519.503 329.65 519.553 329.6C519.553 329.5 519.553 329.45 519.603 329.35C519.603 329.3 519.603 329.2 519.603 329.15C519.603 329.05 519.603 329 519.603 328.9C519.603 328.85 519.603 328.75 519.603 328.7Z" fill="#E5986E"/>
</svg>
