<svg width="164" height="49" viewBox="0 0 164 49" fill="none" xmlns="http://www.w3.org/2000/svg">
<path d="M39.4834 1.1C29.1834 0.349998 6.2834 4.05 5.3334 4.2C4.0334 4.4 3.1334 5.6 3.3834 6.9C3.5334 8.05 4.5334 8.85 5.6834 8.85C5.8334 8.85 5.9334 8.85 6.0834 8.85C6.1334 8.85 8.3334 8.45 11.5834 8L7.8334 18.05L3.4834 19.1C2.1834 19.4 1.4334 20.65 1.6834 21.9C1.9334 23 2.9334 23.7 3.9834 23.7C4.1834 23.7 4.3334 23.7 4.5334 23.65L5.8334 23.35L0.683398 37.2C0.183398 38.4 0.833398 39.75 2.0334 40.2C2.3334 40.35 2.5834 40.4 2.8834 40.4C3.8334 40.4 4.7334 39.8 5.0834 38.85L11.3334 22.1L17.4334 20.65C18.7334 20.4 19.4834 19.1 19.2334 17.85C18.9334 16.6 17.6334 15.8 16.3834 16.1L13.3334 16.8L16.8834 7.3C24.2834 6.35 33.7334 5.4 39.1334 5.8C40.4334 5.85 41.5334 4.9 41.6334 3.6C41.7334 2.3 40.7834 1.2 39.4834 1.1ZM30.4354 25.05C30.7854 26.3 32.0354 27 33.3354 26.65C34.5854 26.3 35.2854 25 34.9354 23.75C33.5354 18.6 31.8853 17.9 30.5854 17.85C26.5853 17.65 17.3354 24.8 15.6354 26.6C15.3354 26.9 14.5354 27.8 14.6854 29C14.9354 30.95 16.3354 31.35 22.9354 33.45C23.1354 33.5 23.3354 33.55 23.5854 33.65C23.2854 33.8 23.0354 33.95 22.7854 34.05C14.3354 38.7 12.5354 39.85 12.5354 41.9C12.5354 42.6 12.8354 43.3 13.3854 43.8C13.8854 44.3 14.7854 45.15 22.5354 45.15C24.7854 45.15 27.6354 45.05 31.2354 44.9C32.5354 44.8 33.5354 43.7 33.4854 42.45C33.4354 41.15 32.2854 40.1 31.0354 40.2C27.6854 40.35 23.9854 40.45 21.0854 40.4C22.4854 39.6 23.9354 38.8 25.0354 38.2C30.8354 35 31.5353 34.6 31.2354 32.7C30.9354 31 30.0854 30.75 24.3354 28.95C23.4354 28.65 22.2854 28.3 21.2354 27.95C23.7354 26 27.5854 23.45 29.5853 22.75C29.8854 23.35 30.1854 24.25 30.4354 25.05ZM56.9115 19.25C55.6615 18.85 54.3615 19.5 53.9115 20.75L52.9615 23.65C52.2115 20.45 51.1115 17.3 49.4615 16.05C48.7115 15.5 47.8115 15.25 46.9115 15.4C42.9115 16 34.9615 34.3 33.9115 38.45C33.5615 39.7 32.8115 42.6 34.7615 44.05C35.1115 44.35 35.7115 44.8 36.8115 44.8C38.7615 44.8 42.2615 43.25 48.6615 36.25L46.8115 41.7C46.3615 42.9 47.0115 44.25 48.2615 44.65C48.5115 44.75 48.7615 44.8 49.0115 44.8C50.0115 44.8 50.9115 44.2 51.2615 43.2L58.3615 22.25C58.8115 21.05 58.1615 19.7 56.9115 19.25ZM38.5115 39.25C39.8115 34.7 44.6615 24.85 47.3115 21.1C47.9115 22.75 48.6115 25.6 49.0615 28.55C45.2115 33.25 40.9615 37.5 38.5115 39.25ZM77.8037 21.75C74.8537 21.35 72.0037 21.2 69.5037 21.1L70.4037 17.7C70.7537 16.45 70.0037 15.15 68.7537 14.8C67.4537 14.5 66.2037 15.25 65.8537 16.5L64.6537 21.1C61.9037 21.1 60.1037 21.25 59.9537 21.25C58.6537 21.4 57.7037 22.5 57.8037 23.8C57.9037 25.1 59.0537 26.05 60.3537 25.95C60.3537 25.95 61.5037 25.85 63.3537 25.8L59.1037 41.85C58.8037 43.1 59.5037 44.4 60.8037 44.7C61.0037 44.8 61.2037 44.8 61.4037 44.8C62.4037 44.8 63.3537 44.1 63.6537 43.05L68.2537 25.8C70.9037 25.85 74.0037 26 77.2037 26.4C77.3037 26.4 77.4037 26.4 77.5037 26.4C78.7037 26.4 79.7037 25.55 79.8537 24.35C80.0037 23.05 79.1037 21.9 77.8037 21.75ZM104.638 16.55C103.438 16.1 102.088 16.7 101.638 17.9C101.588 17.9 101.588 17.95 101.588 18.05C101.388 18.15 101.188 18.35 101.038 18.55C93.9381 28.1 84.9381 38.7 81.2881 41.2C81.0381 37.8 84.3881 28.2 89.1881 19.05C89.7881 17.9 89.3381 16.5 88.1881 15.9C87.0381 15.3 85.6381 15.75 85.0381 16.9C81.3881 23.8 73.4381 40.45 78.2381 45.55L78.6381 45.9C79.0381 46.15 79.5381 46.5 80.3381 46.5C82.4381 46.5 86.5381 44.2 96.0881 32.55C94.4381 37.15 92.9381 41.5 92.4381 43.5C92.1381 44.75 92.8881 46.05 94.1381 46.35C94.3381 46.4 94.5381 46.4 94.6881 46.4C95.7881 46.4 96.7381 45.7 96.9881 44.65C98.1381 39.95 105.938 19.8 105.988 19.6C106.488 18.4 105.888 17 104.638 16.55ZM112.863 36.35C113.113 36.4 113.363 36.5 113.613 36.5C113.663 36.5 113.713 36.5 113.763 36.5C114.763 36.5 115.663 36.1 116.363 35.45C122.013 29.8 125.863 17.35 123.763 14.45C123.363 13.85 122.563 13.45 121.863 13.4C121.013 13.3 119.763 13.25 112.913 19.95L113.663 17.4C114.013 16.15 113.313 14.85 112.113 14.5C110.863 14.1 109.513 14.8 109.163 16.05L105.813 27.3C105.613 27.6 105.513 27.95 105.513 28.3L100.413 45.2C100.063 46.45 100.763 47.75 102.013 48.1C102.213 48.2 102.463 48.2 102.663 48.2C103.713 48.2 104.613 47.55 104.913 46.55L107.663 37.5L113.213 44C113.663 44.5 114.313 44.8 115.013 44.8C115.563 44.8 116.063 44.6 116.513 44.25C117.513 43.4 117.613 41.9 116.763 40.9L112.863 36.35ZM119.013 20.65C118.113 24 116.313 28.55 113.463 31.65C112.763 31.3 111.513 30.3 110.413 29.15C113.363 26.1 116.613 22.9 119.013 20.65ZM138.472 25.05C138.822 26.3 140.072 27 141.372 26.65C142.622 26.3 143.322 25 142.972 23.75C141.572 18.6 139.922 17.9 138.622 17.85C134.622 17.65 125.372 24.8 123.672 26.6C123.372 26.9 122.572 27.8 122.722 29C122.972 30.95 124.372 31.35 130.972 33.45C131.172 33.5 131.372 33.55 131.622 33.65C131.322 33.8 131.072 33.95 130.822 34.05C122.372 38.7 120.572 39.85 120.572 41.9C120.572 42.6 120.872 43.3 121.422 43.8C121.922 44.3 122.822 45.15 130.572 45.15C132.822 45.15 135.672 45.05 139.272 44.9C140.572 44.8 141.572 43.7 141.522 42.45C141.472 41.15 140.322 40.1 139.072 40.2C135.722 40.35 132.022 40.45 129.122 40.4C130.522 39.6 131.972 38.8 133.072 38.2C138.872 35 139.572 34.6 139.272 32.7C138.972 31 138.122 30.75 132.372 28.95C131.472 28.65 130.322 28.3 129.272 27.95C131.772 26 135.622 23.45 137.622 22.75C137.922 23.35 138.222 24.25 138.472 25.05ZM163.599 35.85C163.099 33.2 159.799 32.45 154.849 31.25C152.499 30.7 150.049 30.15 148.199 29.4C148.149 29.4 148.099 29.35 148.049 29.35C149.399 27.85 153.849 25.45 156.899 23.9L156.599 26.8C156.499 28.1 157.449 29.25 158.699 29.4C158.799 29.4 158.899 29.4 158.949 29.4C160.149 29.4 161.149 28.5 161.299 27.3L162.199 17.95C162.349 16.65 161.399 15.5 160.099 15.35C158.849 15.25 157.649 16.2 157.549 17.5L157.449 18.5C157.199 18.55 156.949 18.6 156.749 18.7C148.349 22.9 142.849 25.95 142.999 29.8C143.049 31 143.699 32.7 146.449 33.75C148.649 34.65 151.399 35.3 153.799 35.85C154.799 36.1 156.099 36.4 157.199 36.7C153.349 38.6 146.999 40.35 144.499 40.9C143.249 41.2 142.449 42.45 142.749 43.75C142.999 44.8 143.999 45.55 145.049 45.55C145.199 45.55 145.399 45.55 145.599 45.5C146.049 45.4 156.849 42.85 161.599 39.6C163.549 38.3 163.749 36.85 163.599 35.85Z" fill="white"/>
</svg>
