<svg width="651" height="123" viewBox="0 0 651 123" fill="none" xmlns="http://www.w3.org/2000/svg">
<path d="M81.7556 1.768C60.3316 0.207998 12.6996 7.904 10.7236 8.21599C8.01963 8.63199 6.14763 11.128 6.66763 13.832C6.97963 16.224 9.05963 17.888 11.4516 17.888C11.7636 17.888 11.9716 17.888 12.2836 17.888C12.3876 17.888 16.9636 17.056 23.7236 16.12L15.9236 37.024L6.87563 39.208C4.17163 39.832 2.61163 42.432 3.13163 45.032C3.65163 47.32 5.73163 48.776 7.91563 48.776C8.33163 48.776 8.64363 48.776 9.05963 48.672L11.7636 48.048L1.05163 76.856C0.0116311 79.352 1.36363 82.16 3.85963 83.096C4.48363 83.408 5.00363 83.512 5.62763 83.512C7.60363 83.512 9.47563 82.264 10.2036 80.288L23.2036 45.448L35.8916 42.432C38.5956 41.912 40.1556 39.208 39.6356 36.608C39.0116 34.008 36.3076 32.344 33.7076 32.968L27.3636 34.424L34.7476 14.664C50.1396 12.688 69.7956 10.712 81.0276 11.544C83.7316 11.648 86.0196 9.67199 86.2276 6.968C86.4356 4.264 84.4596 1.97599 81.7556 1.768ZM66.5619 39.208C62.2979 36.192 56.4739 35.776 50.5459 38.064C45.3459 40.248 40.3539 44.304 36.5059 49.608C32.6579 54.912 30.3699 60.944 30.0579 66.56C29.6419 72.904 31.8259 78.312 35.9859 81.328C38.4819 83.096 41.3939 83.928 44.5139 83.928C46.9059 83.928 49.4019 83.512 52.0019 82.472C57.2019 80.392 62.1939 76.232 66.0419 70.928C74.5699 59.176 74.7779 45.24 66.5619 39.208ZM58.1379 65.208C55.4339 69.056 51.7939 71.968 48.3619 73.424C45.6579 74.464 43.2659 74.464 41.8099 73.424C40.3539 72.384 39.6259 70.096 39.7299 67.184C40.0419 63.44 41.7059 59.072 44.4099 55.328C47.2179 51.584 50.7539 48.568 54.1859 47.216C55.6419 46.592 56.8899 46.384 58.0339 46.384C59.1779 46.384 60.1139 46.592 60.8419 47.112C64.0659 49.504 63.5459 57.72 58.1379 65.208ZM58.1379 88.608C49.8179 86.424 27.4579 86.736 24.9619 86.84C22.2579 86.84 20.0739 89.024 20.0739 91.728C20.1779 94.432 22.4659 96.72 25.0659 96.616C31.5139 96.512 49.7139 96.512 55.6419 98.072C56.0579 98.176 56.4739 98.28 56.8899 98.28C59.0739 98.28 61.0499 96.824 61.6739 94.536C62.2979 91.936 60.7379 89.232 58.1379 88.608ZM91.4309 75.088C91.9509 75.192 92.4709 75.4 92.9909 75.4C93.0949 75.4 93.1989 75.4 93.3029 75.4C95.3829 75.4 97.2549 74.568 98.7109 73.216C110.463 61.464 118.471 35.568 114.103 29.536C113.271 28.288 111.607 27.456 110.151 27.352C108.383 27.144 105.783 27.04 91.5349 40.976L93.0949 35.672C93.8229 33.072 92.3669 30.368 89.8709 29.64C87.2709 28.808 84.4629 30.264 83.7349 32.864L76.7669 56.264C76.3509 56.888 76.1429 57.616 76.1429 58.344L65.5349 93.496C64.8069 96.096 66.2629 98.8 68.8629 99.528C69.2789 99.736 69.7989 99.736 70.2149 99.736C72.3989 99.736 74.2709 98.384 74.8949 96.304L80.6149 77.48L92.1589 91C93.0949 92.04 94.4469 92.664 95.9029 92.664C97.0469 92.664 98.0869 92.248 99.0229 91.52C101.103 89.752 101.311 86.632 99.5429 84.552L91.4309 75.088ZM104.223 42.432C102.351 49.4 98.6069 58.864 92.6789 65.312C91.2229 64.584 88.6229 62.504 86.3349 60.112C92.4709 53.768 99.2309 47.112 104.223 42.432ZM206.866 31.304C204.058 20.592 187.002 17.992 151.85 22.88C149.146 23.296 147.274 25.792 147.586 28.392C148.002 31.096 150.498 32.968 153.202 32.656C156.946 32.032 160.378 31.616 163.498 31.304C144.778 77.064 146.858 79.144 149.146 81.536C150.186 82.576 151.538 83.096 152.89 83.096C153.514 83.096 154.242 82.992 154.866 82.68C155.49 82.472 212.17 50.96 206.866 31.304ZM159.754 68.536C162.978 59.176 168.802 44.304 174.522 30.472C195.842 29.432 197.402 33.8 197.402 33.8C199.378 40.248 174.418 59.072 159.754 68.536ZM264.94 33.28C264.316 30.68 261.716 29.016 259.116 29.536L211.38 39.312C208.676 39.936 207.012 42.432 207.532 45.136C208.052 47.424 210.028 48.984 212.316 48.984C212.628 48.984 212.94 48.984 213.356 48.88L231.452 45.136C227.5 58.552 218.972 86.216 210.756 105.04C209.716 97.656 209.3 85.28 209.612 74.568C209.612 71.864 207.532 69.576 204.828 69.576C202.124 69.472 199.836 71.656 199.836 74.36C198.796 117.312 205.244 118.768 208.364 119.392C208.884 119.496 209.404 119.6 209.82 119.6C215.02 119.6 217.932 113.048 219.18 110.136C229.06 87.776 239.356 53.144 242.372 42.952L261.092 39.104C263.692 38.584 265.46 35.984 264.94 33.28ZM294.667 74.048C293.627 68.536 286.763 66.976 276.467 64.48C271.579 63.336 266.483 62.192 262.635 60.632C262.531 60.632 262.427 60.528 262.323 60.528C265.131 57.408 274.387 52.416 280.731 49.192L280.107 55.224C279.899 57.928 281.875 60.32 284.475 60.632C284.683 60.632 284.891 60.632 284.995 60.632C287.491 60.632 289.571 58.76 289.883 56.264L291.755 36.816C292.067 34.112 290.091 31.72 287.387 31.408C284.787 31.2 282.291 33.176 282.083 35.88L281.875 37.96C281.355 38.064 280.835 38.168 280.419 38.376C262.947 47.112 251.507 53.456 251.819 61.464C251.923 63.96 253.275 67.496 258.995 69.68C263.571 71.552 269.291 72.904 274.283 74.048C276.363 74.568 279.067 75.192 281.355 75.816C273.347 79.768 260.139 83.408 254.939 84.552C252.339 85.176 250.675 87.776 251.299 90.48C251.819 92.664 253.899 94.224 256.083 94.224C256.395 94.224 256.811 94.224 257.227 94.12C258.163 93.912 280.627 88.608 290.507 81.848C294.563 79.144 294.979 76.128 294.667 74.048ZM303.233 84.344C303.233 84.24 303.129 84.032 303.129 83.928C303.129 83.928 303.129 83.928 303.129 83.824C303.545 82.16 302.505 80.392 300.841 79.872L297.097 78.832C295.329 78.416 293.561 79.456 293.145 81.224C292.625 82.888 293.665 84.76 295.433 85.176L296.681 85.488C296.577 86.944 295.953 89.96 293.561 92.456C292.209 93.704 292.209 95.784 293.561 97.032C294.185 97.656 295.017 97.968 295.849 97.968C296.681 97.968 297.513 97.656 298.137 97.032C303.545 91.624 303.233 84.656 303.233 84.344Z" fill="white"/>
<path d="M414.905 23.296C414.905 21.528 414.073 19.968 412.721 18.928C411.473 17.784 408.353 15.288 380.065 19.864L381.521 15.184C382.249 12.584 380.793 9.88 378.193 9.15199C375.697 8.32 372.889 9.776 372.161 12.376L369.353 21.736C363.113 22.88 355.937 24.232 347.617 26C345.017 26.52 343.353 29.12 343.873 31.72C344.393 34.424 346.993 36.088 349.697 35.568C355.001 34.424 360.617 33.28 366.129 32.344L353.753 73.424C350.009 73.424 346.681 73.424 343.977 73.216C341.273 73.008 338.985 75.088 338.777 77.792C338.673 80.496 340.649 82.784 343.353 82.992C344.393 82.992 347.305 83.096 351.361 83.096C364.777 83.096 390.257 82.16 396.185 76.648C397.641 75.4 398.369 73.736 398.369 71.968C398.369 66.248 385.577 59.28 375.177 54.912C379.025 52.624 384.017 49.4 390.673 44.928C414.905 28.6 414.905 25.688 414.905 23.296ZM385.161 70.824C380.169 71.864 372.161 72.696 364.153 73.112L367.377 62.192C372.681 64.272 380.377 68.016 385.161 70.824ZM372.473 45.136L376.945 30.368C385.369 28.912 393.065 27.872 398.681 27.248C391.609 32.552 380.793 40.04 372.473 45.136ZM461.475 40.456C461.475 40.248 461.475 40.144 461.371 39.936C461.371 39.832 461.371 39.624 461.267 39.52C461.267 39.312 461.163 39.208 461.163 39.104C461.059 38.896 460.955 38.792 460.955 38.688C460.851 38.48 460.747 38.376 460.643 38.272C460.539 38.064 460.539 37.96 460.435 37.856C460.331 37.752 460.227 37.648 460.123 37.544C459.915 37.44 459.811 37.232 459.707 37.128C459.603 37.128 459.603 37.128 459.499 37.024C459.499 37.024 459.395 36.92 459.291 36.92C459.187 36.816 459.083 36.712 458.875 36.608C458.771 36.608 458.563 36.504 458.459 36.4C458.355 36.4 458.251 36.4 458.147 36.296H458.043C457.835 36.192 457.627 36.192 457.523 36.192C457.315 36.192 457.211 36.088 457.003 36.088C456.899 36.088 456.691 36.088 456.587 36.088C456.379 36.088 456.275 36.088 456.067 36.088C455.963 36.192 455.755 36.192 455.651 36.192C455.443 36.192 455.339 36.296 455.131 36.296C455.027 36.4 454.923 36.4 454.715 36.504C454.611 36.504 454.507 36.608 454.299 36.712C454.195 36.712 454.091 36.816 453.883 36.92C453.779 37.024 453.675 37.128 453.571 37.232C453.363 37.336 453.259 37.44 453.155 37.544C453.051 37.648 452.947 37.752 452.843 37.856C452.843 37.96 452.739 37.96 452.739 38.064C437.971 57.928 419.251 79.976 411.659 85.176C411.139 78.104 418.107 58.136 428.091 39.208C429.339 36.816 428.403 33.8 426.011 32.552C423.619 31.304 420.707 32.24 419.459 34.632C411.867 48.984 395.331 83.616 405.315 94.224L406.147 94.952C406.979 95.472 408.019 96.2 409.683 96.2C414.051 96.2 422.683 91.416 442.755 66.872L427.675 111.8L417.171 108.784L422.579 104.104C424.555 102.232 424.763 99.216 422.995 97.136C421.227 95.16 418.107 94.952 416.027 96.72L405.523 106.08C404.067 107.432 403.339 109.512 403.755 111.592C404.067 113.568 405.419 115.232 407.291 116.064L427.571 121.992C428.195 122.096 428.715 122.2 429.339 122.2C432.251 122.2 434.955 120.328 436.099 117.312L461.267 42.536C461.267 42.432 461.267 42.432 461.371 42.328C461.371 42.12 461.371 42.016 461.475 41.808C461.475 41.704 461.475 41.496 461.475 41.392C461.475 41.184 461.475 41.08 461.475 40.872C461.475 40.768 461.475 40.56 461.475 40.456ZM553.82 31.304C551.012 20.592 533.956 17.992 498.804 22.88C496.1 23.296 494.228 25.792 494.54 28.392C494.956 31.096 497.452 32.968 500.156 32.656C503.9 32.032 507.332 31.616 510.452 31.304C491.732 77.064 493.812 79.144 496.1 81.536C497.14 82.576 498.492 83.096 499.844 83.096C500.468 83.096 501.196 82.992 501.82 82.68C502.444 82.472 559.124 50.96 553.82 31.304ZM506.708 68.536C509.932 59.176 515.756 44.304 521.476 30.472C542.796 29.432 544.356 33.8 544.356 33.8C546.332 40.248 521.372 59.072 506.708 68.536ZM598.028 29.64C596.468 28.184 591.684 23.4 558.924 33.592C556.324 34.32 554.868 37.128 555.7 39.728C556.532 42.224 559.236 43.68 561.836 42.952C572.548 39.624 583.78 37.232 589.188 36.92C584.196 49.192 567.244 82.056 559.444 89.96C556.116 81.64 557.988 71.864 557.988 71.76C558.508 69.056 556.74 66.456 554.14 65.936C551.54 65.416 548.94 67.184 548.42 69.784C548.316 70.512 545.404 85.488 552.164 97.448C553.516 99.736 555.7 101.088 558.196 101.088C558.508 101.088 558.716 101.088 559.028 101.088C572.652 99.424 598.86 39.416 599.692 36.504C600.42 34.008 599.796 31.512 598.028 29.64ZM603.701 61.672C603.493 61.672 603.181 61.672 602.973 61.672C607.861 55.744 624.709 43.784 635.941 37.44C634.485 40.872 632.301 45.344 629.909 49.4C628.557 51.688 629.389 54.704 631.677 56.056C634.069 57.408 637.085 56.68 638.437 54.288C650.917 32.864 647.173 28.808 645.613 27.04C644.365 25.688 641.453 23.816 636.253 26.312C635.733 26.52 588.933 51.48 592.157 65.104C593.093 69.368 596.941 71.448 603.805 71.448C613.373 71.344 619.925 72.072 624.085 72.8C615.661 75.712 601.933 78.832 596.005 78C593.405 77.688 590.909 79.56 590.493 82.264C590.181 84.864 592.053 87.36 594.757 87.672C595.693 87.88 596.837 87.88 598.085 87.88C609.525 87.88 628.869 82.264 634.693 78.936C639.685 76.128 639.061 72.072 638.645 70.928C636.981 64.584 625.229 61.464 603.701 61.672Z" fill="#E5986E"/>
</svg>
