<svg width="587" height="107" viewBox="0 0 587 107" fill="none" xmlns="http://www.w3.org/2000/svg">
<path d="M87.3772 2.62C64.7172 0.969998 14.3372 9.11 12.2472 9.43999C9.38716 9.87999 7.40716 12.52 7.95716 15.38C8.28716 17.91 10.4872 19.67 13.0172 19.67C13.3472 19.67 13.5672 19.67 13.8972 19.67C14.0072 19.67 18.8472 18.79 25.9972 17.8L17.7472 39.91L8.17716 42.22C5.31716 42.88 3.66716 45.63 4.21716 48.38C4.76716 50.8 6.96716 52.34 9.27716 52.34C9.71716 52.34 10.0472 52.34 10.4872 52.23L13.3472 51.57L2.01716 82.04C0.917161 84.68 2.34716 87.65 4.98716 88.64C5.64716 88.97 6.19716 89.08 6.85716 89.08C8.94716 89.08 10.9272 87.76 11.6972 85.67L25.4472 48.82L38.8672 45.63C41.7272 45.08 43.3772 42.22 42.8272 39.47C42.1672 36.72 39.3072 34.96 36.5572 35.62L29.8472 37.16L37.6572 16.26C53.9372 14.17 74.7272 12.08 86.6072 12.96C89.4672 13.07 91.8872 10.98 92.1072 8.12C92.3272 5.26 90.2372 2.83999 87.3772 2.62ZM71.3068 42.22C66.7968 39.03 60.6368 38.59 54.3668 41.01C48.8668 43.32 43.5868 47.61 39.5168 53.22C35.4468 58.83 33.0268 65.21 32.6968 71.15C32.2568 77.86 34.5668 83.58 38.9668 86.77C41.6068 88.64 44.6868 89.52 47.9868 89.52C50.5168 89.52 53.1568 89.08 55.9068 87.98C61.4068 85.78 66.6868 81.38 70.7568 75.77C79.7768 63.34 79.9968 48.6 71.3068 42.22ZM62.3968 69.72C59.5368 73.79 55.6868 76.87 52.0568 78.41C49.1968 79.51 46.6668 79.51 45.1268 78.41C43.5868 77.31 42.8168 74.89 42.9268 71.81C43.2568 67.85 45.0168 63.23 47.8768 59.27C50.8468 55.31 54.5868 52.12 58.2168 50.69C59.7568 50.03 61.0768 49.81 62.2868 49.81C63.4968 49.81 64.4868 50.03 65.2568 50.58C68.6668 53.11 68.1168 61.8 62.3968 69.72ZM62.3968 94.47C53.5968 92.16 29.9468 92.49 27.3068 92.6C24.4468 92.6 22.1368 94.91 22.1368 97.77C22.2468 100.63 24.6668 103.05 27.4168 102.94C34.2368 102.83 53.4868 102.83 59.7568 104.48C60.1968 104.59 60.6368 104.7 61.0768 104.7C63.3868 104.7 65.4768 103.16 66.1368 100.74C66.7968 97.99 65.1468 95.13 62.3968 94.47ZM97.6106 80.17C98.1606 80.28 98.7106 80.5 99.2606 80.5C99.3706 80.5 99.4806 80.5 99.5906 80.5C101.791 80.5 103.771 79.62 105.311 78.19C117.741 65.76 126.211 38.37 121.591 31.99C120.711 30.67 118.951 29.79 117.411 29.68C115.541 29.46 112.791 29.35 97.7206 44.09L99.3706 38.48C100.141 35.73 98.6006 32.87 95.9606 32.1C93.2106 31.22 90.2406 32.76 89.4706 35.51L82.1006 60.26C81.6606 60.92 81.4406 61.69 81.4406 62.46L70.2206 99.64C69.4506 102.39 70.9906 105.25 73.7406 106.02C74.1806 106.24 74.7306 106.24 75.1706 106.24C77.4806 106.24 79.4606 104.81 80.1206 102.61L86.1706 82.7L98.3806 97C99.3706 98.1 100.801 98.76 102.341 98.76C103.551 98.76 104.651 98.32 105.641 97.55C107.841 95.68 108.061 92.38 106.191 90.18L97.6106 80.17ZM111.141 45.63C109.161 53 105.201 63.01 98.9306 69.83C97.3906 69.06 94.6406 66.86 92.2206 64.33C98.7106 57.62 105.861 50.58 111.141 45.63Z" fill="white"/>
<path d="M214.645 29.57C190.555 17.91 162.505 27.15 161.405 27.59C158.655 28.47 157.225 31.44 158.105 34.08C158.985 36.83 161.955 38.26 164.705 37.38C164.815 37.38 168.005 36.28 172.845 35.4L151.065 90.95C150.075 93.59 151.395 96.56 154.035 97.66C154.695 97.88 155.245 97.99 155.905 97.99C157.995 97.99 159.975 96.78 160.745 94.69L167.235 78.08C185.165 70.71 221.575 53.99 222.015 39.91C222.125 37.38 221.245 32.76 214.645 29.57ZM172.625 64.44L184.395 34.41C184.395 34.3 184.505 34.19 184.505 34.19C192.425 33.86 201.775 34.85 210.245 38.92C211.015 39.36 211.455 39.69 211.565 39.8C210.465 44.42 193.525 54.98 172.625 64.44ZM234.634 80.17C235.184 80.28 235.734 80.5 236.284 80.5C236.394 80.5 236.504 80.5 236.614 80.5C238.814 80.5 240.794 79.62 242.334 78.19C254.764 65.76 263.234 38.37 258.614 31.99C257.734 30.67 255.974 29.79 254.434 29.68C252.564 29.46 249.814 29.35 234.744 44.09L236.394 38.48C237.164 35.73 235.624 32.87 232.984 32.1C230.234 31.22 227.264 32.76 226.494 35.51L219.124 60.26C218.684 60.92 218.464 61.69 218.464 62.46L207.244 99.64C206.474 102.39 208.014 105.25 210.764 106.02C211.204 106.24 211.754 106.24 212.194 106.24C214.504 106.24 216.484 104.81 217.144 102.61L223.194 82.7L235.404 97C236.394 98.1 237.824 98.76 239.364 98.76C240.574 98.76 241.674 98.32 242.664 97.55C244.864 95.68 245.084 92.38 243.214 90.18L234.634 80.17ZM248.164 45.63C246.184 53 242.224 63.01 235.954 69.83C234.414 69.06 231.664 66.86 229.244 64.33C235.734 57.62 242.884 50.58 248.164 45.63ZM295.776 42.22C291.266 39.03 285.106 38.59 278.836 41.01C273.336 43.32 268.056 47.61 263.986 53.22C259.916 58.83 257.496 65.21 257.166 71.15C256.726 77.86 259.036 83.58 263.436 86.77C266.076 88.64 269.156 89.52 272.456 89.52C274.986 89.52 277.626 89.08 280.376 87.98C285.876 85.78 291.156 81.38 295.226 75.77C304.246 63.34 304.466 48.6 295.776 42.22ZM286.866 69.72C284.006 73.79 280.156 76.87 276.526 78.41C273.666 79.51 271.136 79.51 269.596 78.41C268.056 77.31 267.286 74.89 267.396 71.81C267.726 67.85 269.486 63.23 272.346 59.27C275.316 55.31 279.056 52.12 282.686 50.69C284.226 50.03 285.546 49.81 286.756 49.81C287.966 49.81 288.956 50.03 289.726 50.58C293.136 53.11 292.586 61.8 286.866 69.72ZM286.866 94.47C278.066 92.16 254.416 92.49 251.776 92.6C248.916 92.6 246.606 94.91 246.606 97.77C246.716 100.63 249.136 103.05 251.886 102.94C258.706 102.83 277.956 102.83 284.226 104.48C284.666 104.59 285.106 104.7 285.546 104.7C287.856 104.7 289.946 103.16 290.606 100.74C291.266 97.99 289.616 95.13 286.866 94.47ZM358.707 11.64C355.957 10.76 353.097 12.19 352.107 14.83L339.457 52.12C337.807 45.19 335.387 38.26 331.757 35.51C330.107 34.3 328.127 33.75 326.147 34.08C317.347 35.4 299.857 75.66 297.547 84.79C296.777 87.54 295.127 93.92 299.417 97.11C300.187 97.77 301.507 98.76 303.927 98.76C308.217 98.76 315.917 95.35 329.997 79.95L325.927 91.94C324.937 94.58 326.367 97.55 329.117 98.43C329.667 98.65 330.217 98.76 330.767 98.76C332.967 98.76 334.947 97.44 335.717 95.24L361.897 18.24C362.887 15.49 361.347 12.52 358.707 11.64ZM307.667 86.55C310.527 76.54 321.197 54.87 327.027 46.62C328.347 50.25 329.887 56.52 330.877 63.01C322.407 73.35 313.057 82.7 307.667 86.55ZM405.609 36.61C402.969 35.62 399.999 36.94 399.009 39.58C398.899 39.58 398.899 39.69 398.899 39.91C398.459 40.13 398.019 40.57 397.689 41.01C382.069 62.02 362.269 85.34 354.239 90.84C353.689 83.36 361.059 62.24 371.619 42.11C372.939 39.58 371.949 36.5 369.419 35.18C366.889 33.86 363.809 34.85 362.489 37.38C354.459 52.56 336.969 89.19 347.529 100.41L348.409 101.18C349.289 101.73 350.389 102.5 352.149 102.5C356.769 102.5 365.789 97.44 386.799 71.81C383.169 81.93 379.869 91.5 378.769 95.9C378.109 98.65 379.759 101.51 382.509 102.17C382.949 102.28 383.389 102.28 383.719 102.28C386.139 102.28 388.229 100.74 388.779 98.43C391.309 88.09 408.469 43.76 408.579 43.32C409.679 40.68 408.359 37.6 405.609 36.61ZM437.452 64.77C437.892 64.99 438.442 65.1 438.992 65.1C441.192 65.1 443.172 63.67 443.942 61.58L452.852 34.52C453.732 31.88 452.302 28.91 449.552 28.03C446.912 27.15 443.942 28.58 443.062 31.33L440.752 38.15C440.312 38.04 439.762 38.04 439.212 38.15C429.422 39.47 416.002 51.79 408.192 62.68C403.132 69.61 397.522 79.95 399.282 89.41C400.052 93.59 402.362 96.78 406.102 98.65C408.632 99.97 411.712 100.41 415.012 100.41C427.442 100.41 443.282 93.15 447.022 91.28C449.552 90.07 450.652 86.99 449.442 84.46C448.122 81.82 445.042 80.72 442.512 82.04C432.942 86.66 416.222 92.16 410.722 89.41C410.062 89.08 409.622 88.64 409.402 87.54C408.632 83.03 411.162 76.21 416.552 68.73C422.712 60.04 431.182 52.78 436.902 49.81L434.152 58.28C433.272 61.03 434.702 63.89 437.452 64.77ZM487.671 55.31C488.441 58.06 491.191 59.6 494.051 58.83C496.801 58.06 498.341 55.2 497.571 52.45C494.491 41.12 490.861 39.58 488.001 39.47C479.201 39.03 458.851 54.76 455.111 58.72C454.451 59.38 452.691 61.36 453.021 64C453.571 68.29 456.651 69.17 471.171 73.79C471.611 73.9 472.051 74.01 472.601 74.23C471.941 74.56 471.391 74.89 470.841 75.11C452.251 85.34 448.291 87.87 448.291 92.38C448.291 93.92 448.951 95.46 450.161 96.56C451.261 97.66 453.241 99.53 470.291 99.53C475.241 99.53 481.511 99.31 489.431 98.98C492.291 98.76 494.491 96.34 494.381 93.59C494.271 90.73 491.741 88.42 488.991 88.64C481.621 88.97 473.481 89.19 467.101 89.08C470.181 87.32 473.371 85.56 475.791 84.24C488.551 77.2 490.091 76.32 489.431 72.14C488.771 68.4 486.901 67.85 474.251 63.89C472.271 63.23 469.741 62.46 467.431 61.69C472.931 57.4 481.401 51.79 485.801 50.25C486.461 51.57 487.121 53.55 487.671 55.31ZM519.959 80.17C520.509 80.28 521.059 80.5 521.609 80.5C521.719 80.5 521.829 80.5 521.939 80.5C524.139 80.5 526.119 79.62 527.659 78.19C540.089 65.76 548.559 38.37 543.939 31.99C543.059 30.67 541.299 29.79 539.759 29.68C537.889 29.46 535.139 29.35 520.069 44.09L521.719 38.48C522.489 35.73 520.949 32.87 518.309 32.1C515.559 31.22 512.589 32.76 511.819 35.51L504.449 60.26C504.009 60.92 503.789 61.69 503.789 62.46L492.569 99.64C491.799 102.39 493.339 105.25 496.089 106.02C496.529 106.24 497.079 106.24 497.519 106.24C499.829 106.24 501.809 104.81 502.469 102.61L508.519 82.7L520.729 97C521.719 98.1 523.149 98.76 524.689 98.76C525.899 98.76 526.999 98.32 527.989 97.55C530.189 95.68 530.409 92.38 528.539 90.18L519.959 80.17ZM533.489 45.63C531.509 53 527.549 63.01 521.279 69.83C519.739 69.06 516.989 66.86 514.569 64.33C521.059 57.62 528.209 50.58 533.489 45.63ZM586.403 79.07C585.303 73.24 578.043 71.59 567.153 68.95C561.983 67.74 556.593 66.53 552.523 64.88C552.413 64.88 552.303 64.77 552.193 64.77C555.163 61.47 564.953 56.19 571.663 52.78L571.003 59.16C570.783 62.02 572.873 64.55 575.623 64.88C575.843 64.88 576.063 64.88 576.173 64.88C578.813 64.88 581.013 62.9 581.343 60.26L583.323 39.69C583.653 36.83 581.563 34.3 578.703 33.97C575.953 33.75 573.313 35.84 573.093 38.7L572.873 40.9C572.323 41.01 571.773 41.12 571.333 41.34C552.853 50.58 540.753 57.29 541.083 65.76C541.193 68.4 542.623 72.14 548.673 74.45C553.513 76.43 559.563 77.86 564.843 79.07C567.043 79.62 569.903 80.28 572.323 80.94C563.853 85.12 549.883 88.97 544.383 90.18C541.633 90.84 539.873 93.59 540.533 96.45C541.083 98.76 543.283 100.41 545.593 100.41C545.923 100.41 546.363 100.41 546.803 100.3C547.793 100.08 571.553 94.47 582.003 87.32C586.293 84.46 586.733 81.27 586.403 79.07Z" fill="#E5986E"/>
</svg>
