<svg width="668" height="130" viewBox="0 0 668 130" fill="none" xmlns="http://www.w3.org/2000/svg">
<path d="M87.4049 2.62C64.7449 0.969998 14.3649 9.11 12.2749 9.43999C9.41487 9.87999 7.43487 12.52 7.98487 15.38C8.31487 17.91 10.5149 19.67 13.0449 19.67C13.3749 19.67 13.5949 19.67 13.9249 19.67C14.0349 19.67 18.8749 18.79 26.0249 17.8L17.7749 39.91L8.20487 42.22C5.34487 42.88 3.69487 45.63 4.24487 48.38C4.79487 50.8 6.99487 52.34 9.30487 52.34C9.74487 52.34 10.0749 52.34 10.5149 52.23L13.3749 51.57L2.04487 82.04C0.944871 84.68 2.37487 87.65 5.01487 88.64C5.67487 88.97 6.22487 89.08 6.88487 89.08C8.97487 89.08 10.9549 87.76 11.7249 85.67L25.4749 48.82L38.8949 45.63C41.7549 45.08 43.4049 42.22 42.8549 39.47C42.1949 36.72 39.3349 34.96 36.5849 35.62L29.8749 37.16L37.6849 16.26C53.9649 14.17 74.7549 12.08 86.6349 12.96C89.4949 13.07 91.9149 10.98 92.1349 8.12C92.3549 5.26 90.2649 2.83999 87.4049 2.62ZM71.3346 42.22C66.8246 39.03 60.6646 38.59 54.3946 41.01C48.8946 43.32 43.6146 47.61 39.5446 53.22C35.4746 58.83 33.0546 65.21 32.7246 71.15C32.2846 77.86 34.5946 83.58 38.9946 86.77C41.6346 88.64 44.7146 89.52 48.0146 89.52C50.5446 89.52 53.1846 89.08 55.9346 87.98C61.4346 85.78 66.7146 81.38 70.7846 75.77C79.8046 63.34 80.0246 48.6 71.3346 42.22ZM62.4246 69.72C59.5646 73.79 55.7146 76.87 52.0846 78.41C49.2246 79.51 46.6946 79.51 45.1546 78.41C43.6146 77.31 42.8446 74.89 42.9546 71.81C43.2846 67.85 45.0446 63.23 47.9046 59.27C50.8746 55.31 54.6146 52.12 58.2446 50.69C59.7846 50.03 61.1046 49.81 62.3146 49.81C63.5246 49.81 64.5146 50.03 65.2846 50.58C68.6946 53.11 68.1446 61.8 62.4246 69.72ZM62.4246 94.47C53.6246 92.16 29.9746 92.49 27.3346 92.6C24.4746 92.6 22.1646 94.91 22.1646 97.77C22.2746 100.63 24.6946 103.05 27.4446 102.94C34.2646 102.83 53.5146 102.83 59.7846 104.48C60.2246 104.59 60.6646 104.7 61.1046 104.7C63.4146 104.7 65.5046 103.16 66.1646 100.74C66.8246 97.99 65.1746 95.13 62.4246 94.47ZM97.6383 80.17C98.1883 80.28 98.7383 80.5 99.2883 80.5C99.3983 80.5 99.5083 80.5 99.6183 80.5C101.818 80.5 103.798 79.62 105.338 78.19C117.768 65.76 126.238 38.37 121.618 31.99C120.738 30.67 118.978 29.79 117.438 29.68C115.568 29.46 112.818 29.35 97.7483 44.09L99.3983 38.48C100.168 35.73 98.6283 32.87 95.9883 32.1C93.2383 31.22 90.2683 32.76 89.4983 35.51L82.1283 60.26C81.6883 60.92 81.4683 61.69 81.4683 62.46L70.2483 99.64C69.4783 102.39 71.0183 105.25 73.7683 106.02C74.2083 106.24 74.7583 106.24 75.1983 106.24C77.5083 106.24 79.4883 104.81 80.1483 102.61L86.1983 82.7L98.4083 97C99.3983 98.1 100.828 98.76 102.368 98.76C103.578 98.76 104.678 98.32 105.668 97.55C107.868 95.68 108.088 92.38 106.218 90.18L97.6383 80.17ZM111.168 45.63C109.188 53 105.228 63.01 98.9583 69.83C97.4183 69.06 94.6683 66.86 92.2483 64.33C98.7383 57.62 105.888 50.58 111.168 45.63ZM219.733 33.86C216.763 22.53 198.723 19.78 161.543 24.95C158.683 25.39 156.703 28.03 157.033 30.78C157.473 33.64 160.113 35.62 162.973 35.29C166.933 34.63 170.563 34.19 173.863 33.86C154.063 82.26 156.263 84.46 158.683 86.99C159.783 88.09 161.213 88.64 162.643 88.64C163.303 88.64 164.073 88.53 164.733 88.2C165.393 87.98 225.343 54.65 219.733 33.86ZM169.903 73.24C173.313 63.34 179.473 47.61 185.523 32.98C208.073 31.88 209.723 36.5 209.723 36.5C211.813 43.32 185.413 63.23 169.903 73.24ZM281.158 35.95C280.498 33.2 277.748 31.44 274.998 31.99L224.508 42.33C221.648 42.99 219.888 45.63 220.438 48.49C220.988 50.91 223.078 52.56 225.498 52.56C225.828 52.56 226.158 52.56 226.598 52.45L245.738 48.49C241.558 62.68 232.538 91.94 223.848 111.85C222.748 104.04 222.308 90.95 222.638 79.62C222.638 76.76 220.438 74.34 217.578 74.34C214.718 74.23 212.298 76.54 212.298 79.4C211.198 124.83 218.018 126.37 221.318 127.03C221.868 127.14 222.418 127.25 222.858 127.25C228.358 127.25 231.438 120.32 232.758 117.24C243.208 93.59 254.098 56.96 257.288 46.18L277.088 42.11C279.838 41.56 281.708 38.81 281.158 35.95ZM312.6 79.07C311.5 73.24 304.24 71.59 293.35 68.95C288.18 67.74 282.79 66.53 278.72 64.88C278.61 64.88 278.5 64.77 278.39 64.77C281.36 61.47 291.15 56.19 297.86 52.78L297.2 59.16C296.98 62.02 299.07 64.55 301.82 64.88C302.04 64.88 302.26 64.88 302.37 64.88C305.01 64.88 307.21 62.9 307.54 60.26L309.52 39.69C309.85 36.83 307.76 34.3 304.9 33.97C302.15 33.75 299.51 35.84 299.29 38.7L299.07 40.9C298.52 41.01 297.97 41.12 297.53 41.34C279.05 50.58 266.95 57.29 267.28 65.76C267.39 68.4 268.82 72.14 274.87 74.45C279.71 76.43 285.76 77.86 291.04 79.07C293.24 79.62 296.1 80.28 298.52 80.94C290.05 85.12 276.08 88.97 270.58 90.18C267.83 90.84 266.07 93.59 266.73 96.45C267.28 98.76 269.48 100.41 271.79 100.41C272.12 100.41 272.56 100.41 273 100.3C273.99 100.08 297.75 94.47 308.2 87.32C312.49 84.46 312.93 81.27 312.6 79.07Z" fill="#E5986E"/>
<path d="M427.58 25.39C427.58 23.52 426.7 21.87 425.27 20.77C423.95 19.56 420.65 16.92 390.73 21.76L392.27 16.81C393.04 14.06 391.5 11.2 388.75 10.43C386.11 9.55 383.14 11.09 382.37 13.84L379.4 23.74C372.8 24.95 365.21 26.38 356.41 28.25C353.66 28.8 351.9 31.55 352.45 34.3C353 37.16 355.75 38.92 358.61 38.37C364.22 37.16 370.16 35.95 375.99 34.96L362.9 78.41C358.94 78.41 355.42 78.41 352.56 78.19C349.7 77.97 347.28 80.17 347.06 83.03C346.95 85.89 349.04 88.31 351.9 88.53C353 88.53 356.08 88.64 360.37 88.64C374.56 88.64 401.51 87.65 407.78 81.82C409.32 80.5 410.09 78.74 410.09 76.87C410.09 70.82 396.56 63.45 385.56 58.83C389.63 56.41 394.91 53 401.95 48.27C427.58 31 427.58 27.92 427.58 25.39ZM396.12 75.66C390.84 76.76 382.37 77.64 373.9 78.08L377.31 66.53C382.92 68.73 391.06 72.69 396.12 75.66ZM382.7 48.49L387.43 32.87C396.34 31.33 404.48 30.23 410.42 29.57C402.94 35.18 391.5 43.1 382.7 48.49ZM476.837 43.54C476.837 43.32 476.837 43.21 476.727 42.99C476.727 42.88 476.727 42.66 476.617 42.55C476.617 42.33 476.507 42.22 476.507 42.11C476.397 41.89 476.287 41.78 476.287 41.67C476.177 41.45 476.067 41.34 475.957 41.23C475.847 41.01 475.847 40.9 475.737 40.79C475.627 40.68 475.517 40.57 475.407 40.46C475.187 40.35 475.077 40.13 474.967 40.02C474.857 40.02 474.857 40.02 474.747 39.91C474.747 39.91 474.637 39.8 474.527 39.8C474.417 39.69 474.307 39.58 474.087 39.47C473.977 39.47 473.757 39.36 473.647 39.25C473.537 39.25 473.427 39.25 473.317 39.14H473.207C472.987 39.03 472.767 39.03 472.657 39.03C472.437 39.03 472.327 38.92 472.107 38.92C471.997 38.92 471.777 38.92 471.667 38.92C471.447 38.92 471.337 38.92 471.117 38.92C471.007 39.03 470.787 39.03 470.677 39.03C470.457 39.03 470.347 39.14 470.127 39.14C470.017 39.25 469.907 39.25 469.687 39.36C469.577 39.36 469.467 39.47 469.247 39.58C469.137 39.58 469.027 39.69 468.807 39.8C468.697 39.91 468.587 40.02 468.477 40.13C468.257 40.24 468.147 40.35 468.037 40.46C467.927 40.57 467.817 40.68 467.707 40.79C467.707 40.9 467.597 40.9 467.597 41.01C451.977 62.02 432.177 85.34 424.147 90.84C423.597 83.36 430.967 62.24 441.527 42.22C442.847 39.69 441.857 36.5 439.327 35.18C436.797 33.86 433.717 34.85 432.397 37.38C424.367 52.56 406.877 89.19 417.437 100.41L418.317 101.18C419.197 101.73 420.297 102.5 422.057 102.5C426.677 102.5 435.807 97.44 457.037 71.48L441.087 119L429.977 115.81L435.697 110.86C437.787 108.88 438.007 105.69 436.137 103.49C434.267 101.4 430.967 101.18 428.767 103.05L417.657 112.95C416.117 114.38 415.347 116.58 415.787 118.78C416.117 120.87 417.547 122.63 419.527 123.51L440.977 129.78C441.637 129.89 442.187 130 442.847 130C445.927 130 448.787 128.02 449.997 124.83L476.617 45.74C476.617 45.63 476.617 45.63 476.727 45.52C476.727 45.3 476.727 45.19 476.837 44.97C476.837 44.86 476.837 44.64 476.837 44.53C476.837 44.31 476.837 44.2 476.837 43.98C476.837 43.87 476.837 43.65 476.837 43.54ZM574.509 33.86C571.539 22.53 553.499 19.78 516.319 24.95C513.459 25.39 511.479 28.03 511.809 30.78C512.249 33.64 514.889 35.62 517.749 35.29C521.709 34.63 525.339 34.19 528.639 33.86C508.839 82.26 511.039 84.46 513.459 86.99C514.559 88.09 515.989 88.64 517.419 88.64C518.079 88.64 518.849 88.53 519.509 88.2C520.169 87.98 580.119 54.65 574.509 33.86ZM524.679 73.24C528.089 63.34 534.249 47.61 540.299 32.98C562.849 31.88 564.499 36.5 564.499 36.5C566.589 43.32 540.189 63.23 524.679 73.24ZM635.934 35.95C635.274 33.2 632.524 31.44 629.774 31.99L579.284 42.33C576.424 42.99 574.664 45.63 575.214 48.49C575.764 50.91 577.854 52.56 580.274 52.56C580.604 52.56 580.934 52.56 581.374 52.45L600.514 48.49C596.334 62.68 587.314 91.94 578.624 111.85C577.524 104.04 577.084 90.95 577.414 79.62C577.414 76.76 575.214 74.34 572.354 74.34C569.494 74.23 567.074 76.54 567.074 79.4C565.974 124.83 572.794 126.37 576.094 127.03C576.644 127.14 577.194 127.25 577.634 127.25C583.134 127.25 586.214 120.32 587.534 117.24C597.984 93.59 608.874 56.96 612.064 46.18L631.864 42.11C634.614 41.56 636.484 38.81 635.934 35.95ZM667.376 79.07C666.276 73.24 659.016 71.59 648.126 68.95C642.956 67.74 637.566 66.53 633.496 64.88C633.386 64.88 633.276 64.77 633.166 64.77C636.136 61.47 645.926 56.19 652.636 52.78L651.976 59.16C651.756 62.02 653.846 64.55 656.596 64.88C656.816 64.88 657.036 64.88 657.146 64.88C659.786 64.88 661.986 62.9 662.316 60.26L664.296 39.69C664.626 36.83 662.536 34.3 659.676 33.97C656.926 33.75 654.286 35.84 654.066 38.7L653.846 40.9C653.296 41.01 652.746 41.12 652.306 41.34C633.826 50.58 621.726 57.29 622.056 65.76C622.166 68.4 623.596 72.14 629.646 74.45C634.486 76.43 640.536 77.86 645.816 79.07C648.016 79.62 650.876 80.28 653.296 80.94C644.826 85.12 630.856 88.97 625.356 90.18C622.606 90.84 620.846 93.59 621.506 96.45C622.056 98.76 624.256 100.41 626.566 100.41C626.896 100.41 627.336 100.41 627.776 100.3C628.766 100.08 652.526 94.47 662.976 87.32C667.266 84.46 667.706 81.27 667.376 79.07Z" fill="white"/>
</svg>
