<svg width="585" height="91" viewBox="0 0 585 91" fill="none" xmlns="http://www.w3.org/2000/svg">
<path d="M40.4815 36.864C41.0015 37.072 41.4175 37.072 41.9375 37.072C44.0175 37.072 45.8895 35.72 46.6175 33.64L53.8975 9.096C54.7295 6.496 53.2735 3.792 50.6735 2.96C48.0735 2.232 45.3695 3.688 44.5375 6.288L41.9375 15.128C40.3775 14.192 38.9215 13.88 37.9855 13.776C25.9215 12.528 8.44954 33.952 4.28954 50.904C0.961542 64.424 6.68154 70.04 10.3215 72.224C13.0255 73.784 16.0415 74.408 19.2655 74.408C23.1135 74.408 27.1695 73.368 30.4975 71.704L29.0415 76.696C28.2095 79.296 29.6655 82 32.2655 82.728C32.7855 82.936 33.2015 82.936 33.7215 82.936C35.8015 82.936 37.7775 81.584 38.4015 79.504L47.3455 49.656V49.552C47.8655 47.992 48.2815 46.64 48.2815 45.808L48.1775 43.416L46.7215 41.96C45.0575 40.296 44.0175 39.256 24.6735 41.752C21.9695 42.064 20.0975 44.56 20.5135 47.264C20.8255 49.968 23.3215 51.84 25.9215 51.424C29.3535 51.008 33.2015 50.592 36.3215 50.28C34.4495 53.92 31.6415 58.392 28.5215 61.408C25.7135 64.008 18.6415 65.672 15.3135 63.8C12.2975 62.032 12.8175 57.04 13.7535 53.192C17.8095 36.864 33.0975 22.616 36.8415 23.344C36.8415 23.448 37.6735 24.28 37.7775 27.712C37.7775 28.024 37.7775 28.336 37.8815 28.648L37.1535 30.832C36.4255 33.432 37.8815 36.136 40.4815 36.864ZM82.4212 42.584C83.1492 45.184 85.7492 46.64 88.4532 45.912C91.0532 45.184 92.5092 42.48 91.7812 39.88C88.8692 29.168 85.4372 27.712 82.7332 27.608C74.4132 27.192 55.1732 42.064 51.6372 45.808C51.0132 46.432 49.3492 48.304 49.6612 50.8C50.1812 54.856 53.0932 55.688 66.8212 60.056C67.2372 60.16 67.6532 60.264 68.1732 60.472C67.5492 60.784 67.0292 61.096 66.5092 61.304C48.9332 70.976 45.1892 73.368 45.1892 77.632C45.1892 79.088 45.8132 80.544 46.9572 81.584C47.9972 82.624 49.8692 84.392 65.9892 84.392C70.6692 84.392 76.5972 84.184 84.0852 83.872C86.7892 83.664 88.8692 81.376 88.7652 78.776C88.6612 76.072 86.2692 73.888 83.6692 74.096C76.7012 74.408 69.0052 74.616 62.9732 74.512C65.8852 72.848 68.9012 71.184 71.1892 69.936C83.2532 63.28 84.7092 62.448 84.0852 58.496C83.4612 54.96 81.6932 54.44 69.7332 50.696C67.8612 50.072 65.4692 49.344 63.2852 48.616C68.4852 44.56 76.4932 39.256 80.6532 37.8C81.2772 39.048 81.9012 40.92 82.4212 42.584ZM134.684 35.72C128.548 34.888 122.62 34.576 117.42 34.368L119.292 27.296C120.02 24.696 118.46 21.992 115.86 21.264C113.156 20.64 110.556 22.2 109.828 24.8L107.332 34.368C101.612 34.368 97.8676 34.68 97.5556 34.68C94.8516 34.992 92.8756 37.28 93.0836 39.984C93.2916 42.688 95.6836 44.664 98.3876 44.456C98.3876 44.456 100.78 44.248 104.628 44.144L95.7876 77.528C95.1636 80.128 96.6196 82.832 99.3236 83.456C99.7396 83.664 100.156 83.664 100.572 83.664C102.652 83.664 104.628 82.208 105.252 80.024L114.82 44.144C120.332 44.248 126.78 44.56 133.436 45.392C133.644 45.392 133.852 45.392 134.06 45.392C136.556 45.392 138.636 43.624 138.948 41.128C139.26 38.424 137.388 36.032 134.684 35.72ZM213.44 18.664C200.96 10.864 183.592 16.272 174.648 30.52C165.704 44.872 168.616 62.864 181.096 70.664C184.944 73.056 189.312 74.2 193.784 74.2C203.56 74.2 213.752 68.584 219.888 58.808C228.832 44.456 225.92 26.464 213.44 18.664ZM211.568 53.608C205.536 63.384 194.096 67.232 186.192 62.344C178.288 57.456 176.832 45.496 182.968 35.72C187.232 28.856 194.2 24.904 200.648 24.904C203.352 24.904 205.952 25.528 208.24 26.984C216.144 31.872 217.6 43.832 211.568 53.608ZM200.44 31.248C197.84 30.312 195.032 31.664 194.2 34.16L188.48 50.176C187.544 52.672 188.896 55.48 191.496 56.416C192.016 56.624 192.536 56.728 193.056 56.728C195.136 56.728 197.008 55.48 197.736 53.4L203.352 37.488C204.288 34.888 202.936 32.08 200.44 31.248ZM193.056 10.552H212.504C215.208 10.552 217.392 8.368 217.392 5.664C217.392 2.96 215.208 0.775999 212.504 0.775999H193.056C190.352 0.775999 188.168 2.96 188.168 5.664C188.168 8.368 190.352 10.552 193.056 10.552ZM264.402 24.176C261.698 23.76 259.306 25.736 258.89 28.336C258.058 35.096 256.394 48.304 254.938 59.328C253.17 53.088 251.09 45.08 248.594 35.408C247.97 33.016 247.554 31.248 247.242 30.208C246.41 27.088 243.914 26.048 242.042 26.048C237.882 26.048 235.178 26.048 221.242 82.416C220.514 85.12 222.178 87.72 224.778 88.344C225.194 88.448 225.61 88.552 225.922 88.552C228.106 88.552 230.186 86.992 230.706 84.808C234.138 70.976 238.194 56 241.21 45.912C251.09 83.768 252.338 83.768 256.81 83.664C258.682 83.664 261.074 82.52 261.802 79.4C263.258 73.368 268.146 34.056 268.666 29.584C268.978 26.88 267.106 24.488 264.402 24.176ZM314.34 29.584C313.508 28.44 311.948 27.608 310.492 27.504C308.62 27.296 306.02 27.088 287.612 43.52L298.844 12.632C299.676 10.136 298.428 7.32799 295.828 6.39199C293.332 5.45599 290.524 6.80799 289.588 9.30399L263.172 82.104C262.236 84.6 263.588 87.408 266.084 88.344C266.604 88.552 267.228 88.656 267.748 88.656C269.724 88.656 271.7 87.408 272.324 85.432L276.796 73.16C280.332 78.048 284.596 82.624 288.652 83.456C289.172 83.664 289.692 83.664 290.316 83.664C291.668 83.664 293.124 83.248 294.268 82.416C300.404 78.152 313.82 43 315.172 35.2C315.484 33.432 315.588 31.456 314.34 29.584ZM289.588 73.056C287.508 71.184 284.18 67.024 281.476 62.552C288.652 55.792 296.556 48.616 302.484 43.624C298.844 53.816 292.812 67.96 289.588 73.056ZM349.919 30.208C345.655 27.192 339.831 26.776 333.903 29.064C328.703 31.248 323.711 35.304 319.863 40.608C316.015 45.912 313.727 51.944 313.415 57.56C312.999 63.904 315.183 69.312 319.343 72.328C321.839 74.096 324.751 74.928 327.871 74.928C330.263 74.928 332.759 74.512 335.359 73.472C340.559 71.392 345.551 67.232 349.399 61.928C357.927 50.176 358.135 36.24 349.919 30.208ZM341.495 56.208C338.791 60.056 335.151 62.968 331.719 64.424C329.015 65.464 326.623 65.464 325.167 64.424C323.711 63.384 322.983 61.096 323.087 58.184C323.399 54.44 325.063 50.072 327.767 46.328C330.575 42.584 334.111 39.568 337.543 38.216C338.999 37.592 340.247 37.384 341.391 37.384C342.535 37.384 343.471 37.592 344.199 38.112C347.423 40.504 346.903 48.72 341.495 56.208ZM341.495 79.608C333.175 77.424 310.815 77.736 308.319 77.84C305.615 77.84 303.431 80.024 303.431 82.728C303.535 85.432 305.823 87.72 308.423 87.616C314.871 87.512 333.071 87.512 338.999 89.072C339.415 89.176 339.831 89.28 340.247 89.28C342.431 89.28 344.407 87.824 345.031 85.536C345.655 82.936 344.095 80.232 341.495 79.608ZM399.433 30.52C396.833 29.688 394.129 31.04 393.193 33.64L391.217 39.672C389.657 33.016 387.369 26.464 383.937 23.864C382.377 22.72 380.505 22.2 378.633 22.512C370.313 23.76 353.777 61.824 351.593 70.456C350.865 73.056 349.305 79.088 353.361 82.104C354.089 82.728 355.337 83.664 357.625 83.664C361.681 83.664 368.961 80.44 382.273 65.88L378.425 77.216C377.489 79.712 378.841 82.52 381.441 83.352C381.961 83.56 382.481 83.664 383.001 83.664C385.081 83.664 386.953 82.416 387.681 80.336L402.449 36.76C403.385 34.264 402.033 31.456 399.433 30.52ZM361.161 72.12C363.865 62.656 373.953 42.168 379.465 34.368C380.713 37.8 382.169 43.728 383.105 49.864C375.097 59.64 366.257 68.48 361.161 72.12ZM418.614 66.088C419.134 66.192 419.654 66.4 420.174 66.4C420.278 66.4 420.382 66.4 420.486 66.4C422.566 66.4 424.438 65.568 425.894 64.216C437.646 52.464 445.654 26.568 441.286 20.536C440.454 19.288 438.79 18.456 437.334 18.352C435.566 18.144 432.966 18.04 418.718 31.976L420.278 26.672C421.006 24.072 419.55 21.368 417.054 20.64C414.454 19.808 411.646 21.264 410.918 23.864L403.95 47.264C403.534 47.888 403.326 48.616 403.326 49.344L392.718 84.496C391.99 87.096 393.446 89.8 396.046 90.528C396.462 90.736 396.982 90.736 397.398 90.736C399.582 90.736 401.454 89.384 402.078 87.304L407.798 68.48L419.342 82C420.278 83.04 421.63 83.664 423.086 83.664C424.23 83.664 425.27 83.248 426.206 82.52C428.286 80.752 428.494 77.632 426.726 75.552L418.614 66.088ZM431.406 33.432C429.534 40.4 425.79 49.864 419.862 56.312C418.406 55.584 415.806 53.504 413.518 51.112C419.654 44.768 426.414 38.112 431.406 33.432ZM490.57 1.296C487.97 0.463996 485.266 1.816 484.33 4.312L472.37 39.568C470.81 33.016 468.522 26.464 465.09 23.864C463.53 22.72 461.658 22.2 459.786 22.512C451.466 23.76 434.93 61.824 432.746 70.456C432.018 73.056 430.458 79.088 434.514 82.104C435.242 82.728 436.49 83.664 438.778 83.664C442.834 83.664 450.114 80.44 463.426 65.88L459.578 77.216C458.642 79.712 459.994 82.52 462.594 83.352C463.114 83.56 463.634 83.664 464.154 83.664C466.234 83.664 468.106 82.416 468.834 80.336L493.586 7.536C494.522 4.93599 493.066 2.128 490.57 1.296ZM442.314 72.12C445.018 62.656 455.106 42.168 460.618 34.368C461.866 37.8 463.322 43.728 464.258 49.864C456.25 59.64 447.41 68.48 442.314 72.12ZM514.996 42.584C515.724 45.184 518.324 46.64 521.028 45.912C523.628 45.184 525.084 42.48 524.356 39.88C521.444 29.168 518.012 27.712 515.308 27.608C506.988 27.192 487.748 42.064 484.212 45.808C483.588 46.432 481.924 48.304 482.236 50.8C482.756 54.856 485.668 55.688 499.396 60.056C499.812 60.16 500.228 60.264 500.748 60.472C500.124 60.784 499.604 61.096 499.084 61.304C481.508 70.976 477.764 73.368 477.764 77.632C477.764 79.088 478.388 80.544 479.532 81.584C480.572 82.624 482.444 84.392 498.564 84.392C503.244 84.392 509.172 84.184 516.66 83.872C519.364 83.664 521.444 81.376 521.34 78.776C521.236 76.072 518.844 73.888 516.244 74.096C509.276 74.408 501.58 74.616 495.548 74.512C498.46 72.848 501.476 71.184 503.764 69.936C515.828 63.28 517.284 62.448 516.66 58.496C516.036 54.96 514.268 54.44 502.308 50.696C500.436 50.072 498.044 49.344 495.86 48.616C501.06 44.56 509.068 39.256 513.228 37.8C513.852 39.048 514.476 40.92 514.996 42.584ZM580.051 1.296C577.451 0.463996 574.747 1.816 573.811 4.312L561.851 39.568C560.291 33.016 558.003 26.464 554.571 23.864C553.011 22.72 551.139 22.2 549.267 22.512C540.947 23.76 524.411 61.824 522.227 70.456C521.499 73.056 519.939 79.088 523.995 82.104C524.723 82.728 525.971 83.664 528.259 83.664C532.315 83.664 539.595 80.44 552.907 65.88L549.059 77.216C548.123 79.712 549.475 82.52 552.075 83.352C552.595 83.56 553.115 83.664 553.635 83.664C555.715 83.664 557.587 82.416 558.315 80.336L583.067 7.536C584.003 4.93599 582.547 2.128 580.051 1.296ZM531.795 72.12C534.499 62.656 544.587 42.168 550.099 34.368C551.347 37.8 552.803 43.728 553.739 49.864C545.731 59.64 536.891 68.48 531.795 72.12Z" fill="white"/>
</svg>
