<svg width="492" height="90" viewBox="0 0 492 90" fill="none" xmlns="http://www.w3.org/2000/svg">
<path d="M40.3204 36.864C40.8404 37.072 41.2564 37.072 41.7764 37.072C43.8564 37.072 45.7284 35.72 46.4564 33.64L53.7364 9.096C54.5684 6.496 53.1124 3.792 50.5124 2.96C47.9124 2.232 45.2084 3.688 44.3764 6.288L41.7764 15.128C40.2164 14.192 38.7604 13.88 37.8244 13.776C25.7604 12.528 8.28844 33.952 4.12844 50.904C0.80044 64.424 6.52044 70.04 10.1604 72.224C12.8644 73.784 15.8804 74.408 19.1044 74.408C22.9524 74.408 27.0084 73.368 30.3364 71.704L28.8804 76.696C28.0484 79.296 29.5044 82 32.1044 82.728C32.6244 82.936 33.0404 82.936 33.5604 82.936C35.6404 82.936 37.6164 81.584 38.2404 79.504L47.1844 49.656V49.552C47.7044 47.992 48.1204 46.64 48.1204 45.808L48.0164 43.416L46.5604 41.96C44.8964 40.296 43.8564 39.256 24.5124 41.752C21.8084 42.064 19.9364 44.56 20.3524 47.264C20.6644 49.968 23.1604 51.84 25.7604 51.424C29.1924 51.008 33.0404 50.592 36.1604 50.28C34.2884 53.92 31.4804 58.392 28.3604 61.408C25.5524 64.008 18.4804 65.672 15.1524 63.8C12.1364 62.032 12.6564 57.04 13.5924 53.192C17.6484 36.864 32.9364 22.616 36.6804 23.344C36.6804 23.448 37.5124 24.28 37.6164 27.712C37.6164 28.024 37.6164 28.336 37.7204 28.648L36.9924 30.832C36.2644 33.432 37.7204 36.136 40.3204 36.864ZM82.2601 42.584C82.9881 45.184 85.5881 46.64 88.2921 45.912C90.8921 45.184 92.3481 42.48 91.6201 39.88C88.7081 29.168 85.2761 27.712 82.5721 27.608C74.2521 27.192 55.0121 42.064 51.4761 45.808C50.8521 46.432 49.1881 48.304 49.5001 50.8C50.0201 54.856 52.9321 55.688 66.6601 60.056C67.0761 60.16 67.4921 60.264 68.0121 60.472C67.3881 60.784 66.8681 61.096 66.3481 61.304C48.7721 70.976 45.0281 73.368 45.0281 77.632C45.0281 79.088 45.6521 80.544 46.7961 81.584C47.8361 82.624 49.7081 84.392 65.8281 84.392C70.5081 84.392 76.4361 84.184 83.9241 83.872C86.6281 83.664 88.7081 81.376 88.6041 78.776C88.5001 76.072 86.1081 73.888 83.5081 74.096C76.5401 74.408 68.8441 74.616 62.8121 74.512C65.7241 72.848 68.7401 71.184 71.0281 69.936C83.0921 63.28 84.5481 62.448 83.9241 58.496C83.3001 54.96 81.5321 54.44 69.5721 50.696C67.7001 50.072 65.3081 49.344 63.1241 48.616C68.3241 44.56 76.3321 39.256 80.4921 37.8C81.1161 39.048 81.7401 40.92 82.2601 42.584ZM134.522 35.72C128.386 34.888 122.458 34.576 117.258 34.368L119.13 27.296C119.858 24.696 118.298 21.992 115.698 21.264C112.994 20.64 110.394 22.2 109.666 24.8L107.17 34.368C101.45 34.368 97.7065 34.68 97.3945 34.68C94.6905 34.992 92.7145 37.28 92.9225 39.984C93.1305 42.688 95.5225 44.664 98.2265 44.456C98.2265 44.456 100.618 44.248 104.466 44.144L95.6265 77.528C95.0025 80.128 96.4585 82.832 99.1625 83.456C99.5785 83.664 99.9945 83.664 100.41 83.664C102.49 83.664 104.466 82.208 105.09 80.024L114.658 44.144C120.17 44.248 126.618 44.56 133.274 45.392C133.482 45.392 133.69 45.392 133.898 45.392C136.394 45.392 138.474 43.624 138.786 41.128C139.098 38.424 137.226 36.032 134.522 35.72ZM205.375 9.824L186.239 11.384C183.535 11.592 181.455 13.984 181.767 16.688C181.975 19.184 184.055 21.16 186.551 21.16C186.759 21.16 186.863 21.16 186.967 21.16L189.463 20.952L174.799 64.736H169.495C166.791 64.736 164.607 66.92 164.607 69.624C164.607 72.328 166.791 74.512 169.495 74.512H189.671C192.375 74.512 194.559 72.224 194.559 69.624C194.559 66.92 192.375 64.736 189.671 64.736H185.095L200.071 20.12L206.207 19.6C208.911 19.392 210.887 17 210.679 14.296C210.471 11.696 208.079 9.616 205.375 9.824ZM239.967 24.176C237.263 23.76 234.871 25.736 234.455 28.336C233.623 35.096 231.959 48.304 230.503 59.328C228.735 53.088 226.655 45.08 224.159 35.408C223.535 33.016 223.119 31.248 222.807 30.208C221.975 27.088 219.479 26.048 217.607 26.048C213.447 26.048 210.743 26.048 196.807 82.416C196.079 85.12 197.743 87.72 200.343 88.344C200.759 88.448 201.175 88.552 201.487 88.552C203.671 88.552 205.751 86.992 206.271 84.808C209.703 70.976 213.759 56 216.775 45.912C226.655 83.768 227.903 83.768 232.375 83.664C234.247 83.664 236.639 82.52 237.367 79.4C238.823 73.368 243.711 34.056 244.231 29.584C244.543 26.88 242.671 24.488 239.967 24.176ZM291.049 21.264C288.449 20.432 285.745 21.784 284.809 24.28C283.457 28.128 265.881 57.248 255.481 72.432C255.065 63.176 256.105 46.744 257.561 32.392C257.873 29.792 255.897 27.296 253.297 27.088C250.593 26.776 248.201 28.752 247.889 31.352C242.273 83.352 247.993 85.64 251.113 86.888C251.529 87.096 252.361 87.304 253.297 87.304C254.961 87.304 257.145 86.576 259.329 83.768C268.065 72.224 291.777 33.848 294.065 27.504C294.897 25.008 293.545 22.2 291.049 21.264ZM324.469 30.208C320.205 27.192 314.381 26.776 308.453 29.064C303.253 31.248 298.261 35.304 294.413 40.608C290.565 45.912 288.277 51.944 287.965 57.56C287.549 63.904 289.733 69.312 293.893 72.328C296.389 74.096 299.301 74.928 302.421 74.928C304.813 74.928 307.309 74.512 309.909 73.472C315.109 71.392 320.101 67.232 323.949 61.928C332.477 50.176 332.685 36.24 324.469 30.208ZM316.045 56.208C313.341 60.056 309.701 62.968 306.269 64.424C303.565 65.464 301.173 65.464 299.717 64.424C298.261 63.384 297.533 61.096 297.637 58.184C297.949 54.44 299.613 50.072 302.317 46.328C305.125 42.584 308.661 39.568 312.093 38.216C313.549 37.592 314.797 37.384 315.941 37.384C317.085 37.384 318.021 37.592 318.749 38.112C321.973 40.504 321.453 48.72 316.045 56.208ZM316.045 79.608C307.725 77.424 285.365 77.736 282.869 77.84C280.165 77.84 277.981 80.024 277.981 82.728C278.085 85.432 280.373 87.72 282.973 87.616C289.421 87.512 307.621 87.512 313.549 89.072C313.965 89.176 314.381 89.28 314.797 89.28C316.981 89.28 318.957 87.824 319.581 85.536C320.205 82.936 318.645 80.232 316.045 79.608ZM349.016 11.696C346.416 10.968 343.712 12.528 342.984 15.128L324.992 82.104C324.264 84.704 325.824 87.408 328.424 88.136C328.84 88.24 329.256 88.24 329.672 88.24C331.856 88.24 333.832 86.784 334.456 84.6L352.448 17.624C353.176 15.024 351.616 12.424 349.016 11.696ZM394.293 21.264C391.693 20.432 388.989 21.784 388.053 24.28C386.701 28.128 369.125 57.248 358.725 72.432C358.309 63.176 359.349 46.744 360.805 32.392C361.117 29.792 359.141 27.296 356.541 27.088C353.837 26.776 351.445 28.752 351.133 31.352C345.517 83.352 351.237 85.64 354.357 86.888C354.773 87.096 355.605 87.304 356.541 87.304C358.205 87.304 360.389 86.576 362.573 83.768C371.309 72.224 395.021 33.848 397.309 27.504C398.141 25.008 396.789 22.2 394.293 21.264ZM422.157 42.584C422.885 45.184 425.485 46.64 428.189 45.912C430.789 45.184 432.245 42.48 431.517 39.88C428.605 29.168 425.173 27.712 422.469 27.608C414.149 27.192 394.909 42.064 391.373 45.808C390.749 46.432 389.085 48.304 389.397 50.8C389.917 54.856 392.829 55.688 406.557 60.056C406.973 60.16 407.389 60.264 407.909 60.472C407.285 60.784 406.765 61.096 406.245 61.304C388.669 70.976 384.925 73.368 384.925 77.632C384.925 79.088 385.549 80.544 386.693 81.584C387.733 82.624 389.605 84.392 405.725 84.392C410.405 84.392 416.333 84.184 423.821 83.872C426.525 83.664 428.605 81.376 428.501 78.776C428.397 76.072 426.005 73.888 423.405 74.096C416.437 74.408 408.741 74.616 402.709 74.512C405.621 72.848 408.637 71.184 410.925 69.936C422.989 63.28 424.445 62.448 423.821 58.496C423.197 54.96 421.429 54.44 409.469 50.696C407.597 50.072 405.205 49.344 403.021 48.616C408.221 44.56 416.229 39.256 420.389 37.8C421.013 39.048 421.637 40.92 422.157 42.584ZM487.212 1.296C484.612 0.463996 481.908 1.816 480.972 4.312L469.012 39.568C467.452 33.016 465.164 26.464 461.732 23.864C460.172 22.72 458.3 22.2 456.428 22.512C448.108 23.76 431.572 61.824 429.388 70.456C428.66 73.056 427.1 79.088 431.156 82.104C431.884 82.728 433.132 83.664 435.42 83.664C439.476 83.664 446.756 80.44 460.068 65.88L456.22 77.216C455.284 79.712 456.636 82.52 459.236 83.352C459.756 83.56 460.276 83.664 460.796 83.664C462.876 83.664 464.748 82.416 465.476 80.336L490.228 7.536C491.164 4.93599 489.708 2.128 487.212 1.296ZM438.956 72.12C441.66 62.656 451.748 42.168 457.26 34.368C458.508 37.8 459.964 43.728 460.9 49.864C452.892 59.64 444.052 68.48 438.956 72.12Z" fill="white"/>
</svg>
