<svg width="460" height="159" viewBox="0 0 460 159" fill="none" xmlns="http://www.w3.org/2000/svg">
<path d="M45.5885 100.17C46.1345 100.295 46.5455 100.231 47.0592 100.15C49.1141 99.8281 50.7543 98.2026 51.1516 96.035L54.545 70.66C54.9645 67.9626 53.1075 65.5165 50.4101 65.097C47.7288 64.7802 45.2827 66.6371 44.8631 69.3346L43.6627 78.4705C41.9767 77.7872 40.4899 77.7043 39.5491 77.7465C27.4373 78.3807 13.4918 102.251 12.0058 119.642C10.8105 133.515 17.3308 138.178 21.265 139.772C24.1779 140.895 27.2541 141.044 30.4392 140.545C34.2409 139.95 38.087 138.294 41.1174 136.135L40.4516 141.293C40.032 143.99 41.889 146.436 44.5703 146.753C45.1163 146.878 45.5273 146.813 46.041 146.733C48.0959 146.411 49.8389 144.769 50.1334 142.618L54.3498 111.745L54.3337 111.643C54.6059 110.021 54.8077 108.621 54.6789 107.799L54.2059 105.452L52.5421 104.239C50.6406 102.852 49.4522 101.986 30.7276 107.446C28.1045 108.172 26.6414 110.928 27.4709 113.535C28.1976 116.158 30.9533 117.621 33.4576 116.808C36.7838 115.866 40.5211 114.859 43.5552 114.068C42.2691 117.954 40.1872 122.807 37.5716 126.269C35.1998 129.273 28.4706 132.011 24.893 130.677C21.6397 129.397 21.3807 124.385 21.7099 120.438C23.1898 103.679 36.0882 87.2365 39.8998 87.3762C39.9159 87.479 40.8666 88.1722 41.5006 91.5467C41.5489 91.8549 41.5972 92.1632 41.7482 92.4553L41.367 94.7257C41.0502 97.407 42.9072 99.8531 45.5885 100.17ZM87.9081 99.3296C89.0297 101.786 91.8238 102.822 94.3825 101.684C96.8385 100.562 97.8584 97.6654 96.7368 95.2094C92.2019 85.0772 88.5859 84.17 85.8984 84.4858C77.6142 85.3625 60.908 103.033 57.9941 107.279C57.4742 107.993 56.12 110.1 56.8145 112.517C57.9561 116.444 60.9617 116.815 75.2004 119.006C75.6275 119.044 76.0546 119.082 76.6005 119.207C76.0323 119.612 75.5669 120.001 75.0853 120.287C59.2181 132.563 55.8895 135.505 56.5495 139.718C56.7748 141.156 57.6167 142.498 58.9078 143.349C60.0963 144.215 62.2194 145.672 78.1451 143.177C82.7687 142.453 88.5931 141.33 95.9426 139.862C98.5818 139.238 100.283 136.656 99.7774 134.104C99.2561 131.448 96.5549 129.661 94.0185 130.269C87.1827 131.655 79.6117 133.052 73.6362 133.883C76.2556 131.788 78.9777 129.678 81.045 128.09C91.9334 119.647 93.2431 118.6 92.0149 114.792C90.8511 111.395 89.0239 111.155 76.6286 109.308C74.6825 108.981 72.2067 108.632 69.9363 108.251C74.4459 103.439 81.5364 96.9592 85.4209 94.8769C86.2306 96.0133 87.1368 97.7661 87.9081 99.3296ZM138.478 84.4592C132.287 84.5869 126.383 85.1962 121.213 85.7956L121.968 78.5191C122.285 75.8377 120.325 73.4077 117.644 73.0909C114.876 72.893 112.548 74.8366 112.232 77.518L111.247 87.357C105.596 88.2423 101.945 89.1301 101.637 89.1783C99.0136 89.9051 97.4156 92.4714 98.0396 95.1106C98.6636 97.7498 101.333 99.3318 103.972 98.7078C103.972 98.7078 106.303 98.132 110.088 97.4337L106.522 131.784C106.308 134.449 108.165 136.895 110.933 137.093C111.376 137.234 111.787 137.17 112.198 137.105C114.253 136.783 115.98 135.039 116.258 132.785L120.158 95.8562C125.619 95.1058 132.038 94.416 138.742 94.2078C138.948 94.1756 139.153 94.1434 139.359 94.1112C141.825 93.7249 143.606 91.6562 143.528 89.142C143.418 86.4223 141.198 84.3489 138.478 84.4592ZM165.184 54.0634L146.52 58.5664C143.881 59.1904 142.196 61.8756 142.923 64.4987C143.515 66.9324 145.876 68.5626 148.342 68.1763C148.547 68.1441 148.65 68.128 148.753 68.1119L151.186 67.5201L143.476 113.046L138.236 113.867C135.564 114.286 133.745 116.781 134.163 119.453C134.582 122.124 137.078 123.944 139.749 123.525L159.682 120.402C162.353 119.984 164.157 117.385 163.754 114.817C163.336 112.145 160.84 110.326 158.169 110.744L153.648 111.453L161.538 65.0562L167.519 63.5928C170.159 62.9688 171.74 60.2998 171.116 57.6605C170.509 55.1241 167.823 53.4394 165.184 54.0634ZM201.581 62.8883C198.845 62.8958 196.788 65.2182 196.779 67.8513C197.004 74.6586 197.404 87.965 197.672 99.0815C194.959 93.1903 191.665 85.6008 187.702 76.4317C186.715 74.1651 186.031 72.4828 185.561 71.5036C184.256 68.55 181.63 67.9088 179.78 68.1986C175.67 68.8425 172.999 69.261 167.955 127.107C167.655 129.891 169.701 132.202 172.366 132.416C172.793 132.454 173.22 132.493 173.529 132.444C175.686 132.106 177.5 130.243 177.676 128.005C178.925 113.809 180.614 98.3852 182.033 87.952C197.653 123.823 198.886 123.629 203.288 122.834C205.137 122.545 207.323 121.044 207.56 117.849C208.065 111.665 206.809 72.0697 206.631 67.5711C206.52 64.8514 204.301 62.778 201.581 62.8883ZM251.596 52.105C248.899 51.6854 246.437 53.4396 245.899 56.0504C245.158 60.0613 232.301 91.5508 224.377 108.162C222.533 99.0815 221.017 82.6865 220.234 68.2821C220.14 65.6651 217.802 63.5051 215.201 63.702C212.481 63.8123 210.424 66.1347 210.518 68.7517C213.018 120.994 219.023 122.369 222.299 123.119C222.742 123.26 223.596 123.337 224.521 123.192C226.165 122.935 228.21 121.878 229.933 118.765C236.777 106.008 254.263 64.4246 255.542 57.8029C255.978 55.2083 254.207 52.6434 251.596 52.105ZM285.998 55.7685C281.318 53.4488 275.5 53.9393 269.998 57.1172C265.198 60.0798 260.894 64.8595 257.914 70.6952C254.933 76.5309 253.606 82.8443 254.167 88.4409C254.738 94.7729 257.733 99.7777 262.31 102.113C265.049 103.474 268.055 103.845 271.137 103.362C273.5 102.992 275.902 102.195 278.31 100.765C283.125 97.9049 287.413 93.0224 290.394 87.1867C297 74.2564 295.048 60.4561 285.998 55.7685ZM281.7 82.759C279.624 86.9792 276.478 90.4195 273.313 92.3891C270.803 93.8351 268.439 94.2054 266.84 93.4033C265.241 92.6012 264.167 90.4534 263.819 87.5604C263.548 83.8132 264.516 79.2403 266.608 75.1229C268.803 70.9894 271.829 67.4625 275.01 65.5955C276.352 64.7537 277.553 64.355 278.683 64.178C279.814 64.0009 280.77 64.0615 281.57 64.4626C285.126 66.3268 285.883 74.5242 281.7 82.759ZM285.321 105.877C276.764 105.007 254.721 108.776 252.272 109.265C249.6 109.684 247.781 112.18 248.199 114.851C248.72 117.506 251.335 119.413 253.887 118.907C260.242 117.807 278.222 114.99 284.32 115.613C284.747 115.652 285.175 115.69 285.586 115.626C287.743 115.288 289.47 113.543 289.732 111.186C289.946 108.521 287.987 106.091 285.321 105.877ZM307.384 33.6802C304.703 33.3634 302.273 35.3231 301.956 38.0045L294.547 106.958C294.23 109.639 296.19 112.069 298.871 112.386C299.299 112.425 299.71 112.36 300.121 112.296C302.278 111.958 304.005 110.213 304.283 107.959L311.692 39.0056C312.009 36.3242 310.065 33.997 307.384 33.6802ZM353.597 36.1249C350.899 35.7054 348.437 37.4596 347.899 40.0704C347.159 44.0813 334.302 75.5707 326.377 92.1815C324.533 83.1014 323.018 66.7064 322.235 52.302C322.14 49.6851 319.802 47.525 317.201 47.7219C314.481 47.8322 312.424 50.1546 312.518 52.7716C315.018 105.014 321.024 106.389 324.299 107.139C324.742 107.28 325.596 107.357 326.521 107.212C328.165 106.955 330.21 105.897 331.933 102.785C338.777 90.0282 356.264 48.4446 357.542 41.8229C357.978 39.2282 356.207 36.6633 353.597 36.1249ZM384.425 52.8752C385.546 55.3312 388.34 56.3673 390.899 55.2295C393.355 54.1079 394.375 51.2111 393.253 48.7551C388.718 38.6229 385.102 37.7156 382.415 38.0314C374.131 38.9082 357.425 56.5789 354.511 60.8251C353.991 61.5382 352.637 63.6452 353.331 66.0628C354.473 69.9894 357.478 70.3607 371.717 72.5512C372.144 72.5896 372.571 72.628 373.117 72.753C372.549 73.1578 372.083 73.5465 371.602 73.8325C355.735 86.1083 352.406 89.051 353.066 93.2636C353.291 94.7021 354.133 96.0439 355.424 96.8943C356.613 97.7608 358.736 99.2178 374.662 96.7227C379.285 95.9984 385.11 94.8754 392.459 93.4081C395.098 92.7841 396.799 90.2017 396.294 87.6492C395.773 84.9939 393.071 83.2064 390.535 83.8143C383.699 85.2011 376.128 86.5977 370.153 87.4286C372.772 85.334 375.494 83.2232 377.562 81.6361C388.45 73.1931 389.76 72.1457 388.531 68.3379C387.368 64.9411 385.54 64.701 373.145 62.8533C371.199 62.5266 368.723 62.1776 366.453 61.7964C370.962 56.9844 378.053 50.5049 381.937 48.4225C382.747 49.5589 383.653 51.3118 384.425 52.8752ZM442.305 2.01573C439.607 1.59618 437.145 3.35041 436.607 5.9612L430.248 42.6435C427.692 36.4119 424.418 30.293 420.625 28.2555C418.906 27.3668 416.977 27.1428 415.175 27.7408C407.149 30.2615 396.704 70.4262 395.882 79.2922C395.565 81.9736 394.958 88.1743 399.432 90.5262C400.247 91.03 401.625 91.7616 403.886 91.4074C407.893 90.7797 414.586 86.4677 425.484 70.0228L423.437 81.8177C422.899 84.4285 424.669 86.9934 427.366 87.413C427.912 87.538 428.442 87.5602 428.956 87.4798C431.011 87.1578 432.667 85.6351 433.064 83.4675L446.25 7.71372C446.772 5.00017 444.899 2.45138 442.305 2.01573ZM405.592 79.4553C406.799 69.6868 413.594 47.8843 417.832 39.3251C419.597 42.5226 421.953 48.1538 423.827 54.071C417.429 64.9686 410.063 75.0704 405.592 79.4553Z" fill="white"/>
</svg>
