<svg width="663" height="406" viewBox="0 0 663 406" fill="none" xmlns="http://www.w3.org/2000/svg">
<g filter="url(#filter0_ddi_600_5946)">
<ellipse cx="178.5" cy="185" rx="114" ry="113" fill="url(#paint0_linear_600_5946)"/>
</g>
<g style="mix-blend-mode:difference">
<path d="M348 194.083H353.15V208.861H359.298V194.083H364.504V189.194H348V194.083Z" fill="#808080"/>
<path d="M376.527 196.028C376.527 197.194 375.918 197.694 374.755 197.694H372.318V194.361H374.755C375.918 194.361 376.527 195.028 376.527 196.028ZM366.171 189.194V208.861H372.318V201.806H372.346L376.029 208.861H382.785L378.521 201.333C381.318 200.417 382.757 198.222 382.757 195.639C382.757 192.028 380.238 189.194 375.309 189.194H366.171Z" fill="#808080"/>
<path d="M398.262 208.861H404.742L397.597 189.194H390.509L383.337 208.861H389.789L390.758 205.889H397.293L398.262 208.861ZM395.798 201.25H392.253L394.025 195.778L395.798 201.25Z" fill="#808080"/>
<path d="M405.584 199C405.584 204.861 409.267 209 415.276 209C420.454 209 423.971 205.889 424.774 201.25H418.294C417.713 202.556 416.55 203.306 415.165 203.306C413.089 203.306 411.815 201.611 411.815 199C411.815 196.389 413.089 194.694 415.165 194.694C416.55 194.694 417.713 195.444 418.294 196.75H424.774C423.971 192.111 420.454 189 415.276 189C409.267 189 405.584 193.139 405.584 199Z" fill="#808080"/>
<path d="M438.839 208.861H446.149L438.95 198.611L445.706 189.194H438.756L433.135 197.472V189.194H426.987V208.861H433.135V200.333L438.839 208.861Z" fill="#808080"/>
<path d="M465.25 189.194V199.25L458.743 189.194H452.596V208.861H458.743V198.972L465.25 208.861H471.397V189.194H465.25Z" fill="#808080"/>
<path d="M487.715 208.861H494.195L487.051 189.194H479.962L472.79 208.861H479.242L480.211 205.889H486.746L487.715 208.861ZM485.251 201.25H481.707L483.479 195.778L485.251 201.25Z" fill="#808080"/>
<path d="M495.592 208.861H501.739V199.056L504.757 208.861H510.018L513.037 199.056V208.861H519.156V189.194H511.652L507.443 201L503.123 189.194H495.592V208.861Z" fill="#808080"/>
<path d="M535 189.194H521.93V208.861H535V203.944H528.077V201.167H534.169V196.528H528.077V194.111H535V189.194Z" fill="#808080"/>
<path d="M348 147.15H357.285V173.75H368.368V147.15H377.753V138.35H348V147.15Z" fill="#808080"/>
<path d="M399.43 150.65C399.43 152.75 398.332 153.65 396.235 153.65H391.842V147.65H396.235C398.332 147.65 399.43 148.85 399.43 150.65ZM380.759 138.35V173.75H391.842V161.05H391.892L398.532 173.75H410.712L403.025 160.2C408.067 158.55 410.663 154.6 410.663 149.95C410.663 143.45 406.12 138.35 397.234 138.35H380.759Z" fill="#808080"/>
<path d="M438.615 173.75H450.297L437.417 138.35H424.637L411.707 173.75H423.339L425.086 168.4H436.868L438.615 173.75ZM434.172 160.05H427.782L430.977 150.2L434.172 160.05Z" fill="#808080"/>
<path d="M451.816 156C451.816 166.55 458.456 174 469.289 174C478.624 174 484.964 168.4 486.412 160.05H474.73C473.682 162.4 471.585 163.75 469.089 163.75C465.345 163.75 463.049 160.7 463.049 156C463.049 151.3 465.345 148.25 469.089 148.25C471.585 148.25 473.682 149.6 474.73 151.95H486.412C484.964 143.6 478.624 138 469.289 138C458.456 138 451.816 145.45 451.816 156Z" fill="#808080"/>
<path d="M511.769 173.75H524.948L511.969 155.3L524.15 138.35H511.619L501.485 153.25V138.35H490.402V173.75H501.485V158.4L511.769 173.75Z" fill="#808080"/>
<path d="M534.573 147.15H543.859V173.75H554.942V147.15H564.327V138.35H534.573V147.15Z" fill="#808080"/>
<path d="M567.333 173.75H578.416V138.35H567.333V173.75Z" fill="#808080"/>
<path d="M581.424 147.15H590.71V173.75H601.792V147.15H611.178V138.35H581.424V147.15Z" fill="#808080"/>
<path d="M614.183 138.35V173.75H635.949V165.35H625.266V138.35H614.183Z" fill="#808080"/>
<path d="M663 138.35H639.437V173.75H663V164.9H650.52V159.9H661.502V151.55H650.52V147.2H663V138.35Z" fill="#808080"/>
</g>
<defs>
<filter id="filter0_ddi_600_5946" x="0.500008" y="0" width="432" height="406" filterUnits="userSpaceOnUse" color-interpolation-filters="sRGB">
<feFlood flood-opacity="0" result="BackgroundImageFix"/>
<feColorMatrix in="SourceAlpha" type="matrix" values="0 0 0 0 0 0 0 0 0 0 0 0 0 0 0 0 0 0 127 0" result="hardAlpha"/>
<feOffset dx="-8" dy="-16"/>
<feGaussianBlur stdDeviation="28"/>
<feColorMatrix type="matrix" values="0 0 0 0 0.909 0 0 0 0 0.93084 0 0 0 0 0.951 0 0 0 0.08 0"/>
<feBlend mode="normal" in2="BackgroundImageFix" result="effect1_dropShadow_600_5946"/>
<feColorMatrix in="SourceAlpha" type="matrix" values="0 0 0 0 0 0 0 0 0 0 0 0 0 0 0 0 0 0 127 0" result="hardAlpha"/>
<feOffset dx="52" dy="20"/>
<feGaussianBlur stdDeviation="44"/>
<feColorMatrix type="matrix" values="0 0 0 0 0.00779221 0 0 0 0 0.00987013 0 0 0 0 0.0122078 0 0 0 0.5 0"/>
<feBlend mode="normal" in2="effect1_dropShadow_600_5946" result="effect2_dropShadow_600_5946"/>
<feBlend mode="normal" in="SourceGraphic" in2="effect2_dropShadow_600_5946" result="shape"/>
<feColorMatrix in="SourceAlpha" type="matrix" values="0 0 0 0 0 0 0 0 0 0 0 0 0 0 0 0 0 0 127 0" result="hardAlpha"/>
<feOffset dx="-16" dy="-6"/>
<feGaussianBlur stdDeviation="40"/>
<feComposite in2="hardAlpha" operator="arithmetic" k2="-1" k3="1"/>
<feColorMatrix type="matrix" values="0 0 0 0 0.974 0 0 0 0 0.974889 0 0 0 0 0.976 0 0 0 0.03 0"/>
<feBlend mode="normal" in2="shape" result="effect3_innerShadow_600_5946"/>
</filter>
<linearGradient id="paint0_linear_600_5946" x1="-5.44576" y1="47.8678" x2="306.528" y2="410.941" gradientUnits="userSpaceOnUse">
<stop offset="0.203224" stop-color="#2A2A2A"/>
<stop offset="0.774823" stop-color="#1C1C1C"/>
</linearGradient>
</defs>
</svg>
