<svg width="160" height="94" viewBox="0 0 160 94" fill="none" xmlns="http://www.w3.org/2000/svg">
<rect x="37" width="87" height="86" rx="43" fill="white" fill-opacity="0.1"/>
<path d="M26.5216 19.2C25.7716 18.99 24.9916 19.41 24.7516 20.16L24.0016 22.71C23.5516 22.44 23.1316 22.35 22.8616 22.32C19.3516 21.96 14.3416 28.14 13.1416 33.03C12.1816 36.93 13.8316 38.55 14.8816 39.18C15.6616 39.63 16.5316 39.81 17.4616 39.81C19.1716 39.81 21.0016 39.12 22.0516 38.1C23.5516 36.72 24.6616 34.65 25.0516 33.81C25.4116 33.12 25.1116 32.28 24.4216 31.92C23.7016 31.59 22.8616 31.86 22.5316 32.58C21.9916 33.66 21.0616 35.16 20.1316 36.06C19.3216 36.81 17.2816 37.29 16.3216 36.75C15.4516 36.24 15.6016 34.8 15.8716 33.69C17.0416 28.98 21.4516 24.87 22.5316 25.08C22.5316 25.11 22.7716 25.35 22.8016 26.34C22.8016 26.43 22.8016 26.52 22.8316 26.61L22.6516 27.24C22.4116 27.99 22.8316 28.77 23.5816 28.98C23.7316 29.04 23.8516 29.04 24.0016 29.04C24.6016 29.04 25.1416 28.65 25.3516 28.05L27.4516 20.97C27.6916 20.22 27.2716 19.44 26.5216 19.2ZM38.3008 23.73C34.7008 21.48 29.6908 23.04 27.1108 27.15C24.5308 31.29 25.3708 36.48 28.9708 38.73C30.0808 39.42 31.3408 39.75 32.6308 39.75C35.4508 39.75 38.3908 38.13 40.1608 35.31C42.7408 31.17 41.9008 25.98 38.3008 23.73ZM37.7608 33.81C36.0208 36.63 32.7208 37.74 30.4408 36.33C28.1608 34.92 27.7408 31.47 29.5108 28.65C30.7408 26.67 32.7508 25.53 34.6108 25.53C35.3908 25.53 36.1408 25.71 36.8008 26.13C39.0808 27.54 39.5008 30.99 37.7608 33.81ZM34.5508 27.36C33.8008 27.09 32.9908 27.48 32.7508 28.2L31.1008 32.82C30.8308 33.54 31.2208 34.35 31.9708 34.62C32.1208 34.68 32.2708 34.71 32.4208 34.71C33.0208 34.71 33.5608 34.35 33.7708 33.75L35.3908 29.16C35.6608 28.41 35.2708 27.6 34.5508 27.36ZM32.4208 21.39H38.0308C38.8108 21.39 39.4408 20.76 39.4408 19.98C39.4408 19.2 38.8108 18.57 38.0308 18.57H32.4208C31.6408 18.57 31.0108 19.2 31.0108 19.98C31.0108 20.76 31.6408 21.39 32.4208 21.39ZM61.9141 25.65C61.8241 24.75 61.1941 24.3 60.6841 24.18C59.2441 23.88 58.4941 24.78 53.8741 32.31C53.4841 32.97 53.0641 33.63 52.6741 34.26C52.6141 31.92 52.6741 28.68 52.7041 26.58C52.7641 24.03 52.7941 22.02 52.7041 21.09C52.6141 20.13 51.9541 19.65 51.4141 19.56C50.2441 19.35 49.1641 19.14 40.1041 37.68C39.7741 38.4 40.0441 39.24 40.7641 39.57C40.9441 39.66 41.1541 39.72 41.3641 39.72C41.9041 39.72 42.3841 39.42 42.6241 38.91C45.1441 33.78 48.0241 28.26 49.9141 24.99C49.9141 25.47 49.8841 25.98 49.8841 26.52C49.7041 37.44 49.9741 38.58 51.2941 39.12C51.9241 39.36 52.6141 39.21 53.0941 38.67C53.6641 38.07 54.6241 36.48 56.3041 33.78C57.0841 32.52 58.1341 30.78 59.0641 29.34C58.9141 32.01 58.6441 35.61 58.4341 38.19C58.3441 38.97 58.9141 39.63 59.6941 39.72C60.4741 39.78 61.1641 39.21 61.2241 38.43C61.3141 37.35 62.1541 27.9 61.9141 25.65ZM83.2868 25.65C83.1968 24.75 82.5668 24.3 82.0568 24.18C80.6168 23.88 79.8668 24.78 75.2468 32.31C74.8568 32.97 74.4368 33.63 74.0468 34.26C73.9868 31.92 74.0468 28.68 74.0768 26.58C74.1368 24.03 74.1668 22.02 74.0768 21.09C73.9868 20.13 73.3268 19.65 72.7868 19.56C71.6168 19.35 70.5368 19.14 61.4768 37.68C61.1468 38.4 61.4168 39.24 62.1368 39.57C62.3168 39.66 62.5268 39.72 62.7368 39.72C63.2768 39.72 63.7568 39.42 63.9968 38.91C66.5168 33.78 69.3968 28.26 71.2868 24.99C71.2868 25.47 71.2568 25.98 71.2568 26.52C71.0768 37.44 71.3468 38.58 72.6668 39.12C73.2968 39.36 73.9868 39.21 74.4668 38.67C75.0368 38.07 75.9968 36.48 77.6768 33.78C78.4568 32.52 79.5068 30.78 80.4368 29.34C80.2868 32.01 80.0168 35.61 79.8068 38.19C79.7168 38.97 80.2868 39.63 81.0668 39.72C81.8468 39.78 82.5368 39.21 82.5968 38.43C82.6868 37.35 83.5268 27.9 83.2868 25.65ZM94.2794 21.18L88.7594 21.63C87.9794 21.69 87.3794 22.38 87.4694 23.16C87.5294 23.88 88.1294 24.45 88.8494 24.45C88.9094 24.45 88.9394 24.45 88.9694 24.45L89.6894 24.39L85.4594 37.02H83.9294C83.1494 37.02 82.5194 37.65 82.5194 38.43C82.5194 39.21 83.1494 39.84 83.9294 39.84H89.7494C90.5294 39.84 91.1594 39.18 91.1594 38.43C91.1594 37.65 90.5294 37.02 89.7494 37.02H88.4294L92.7494 24.15L94.5194 24C95.2994 23.94 95.8694 23.25 95.8094 22.47C95.7494 21.72 95.0594 21.12 94.2794 21.18ZM95.5851 33.54C95.5251 33.54 95.4351 33.54 95.3751 33.54C96.7851 31.83 101.645 28.38 104.885 26.55C104.465 27.54 103.835 28.83 103.145 30C102.755 30.66 102.995 31.53 103.655 31.92C104.345 32.31 105.215 32.1 105.605 31.41C109.205 25.23 108.125 24.06 107.675 23.55C107.315 23.16 106.475 22.62 104.975 23.34C104.825 23.4 91.3251 30.6 92.2551 34.53C92.5251 35.76 93.6351 36.36 95.6151 36.36C98.3751 36.33 100.265 36.54 101.465 36.75C99.0351 37.59 95.0751 38.49 93.3651 38.25C92.6151 38.16 91.8951 38.7 91.7751 39.48C91.6851 40.23 92.2251 40.95 93.0051 41.04C93.2751 41.1 93.6051 41.1 93.9651 41.1C97.2651 41.1 102.845 39.48 104.525 38.52C105.965 37.71 105.785 36.54 105.665 36.21C105.185 34.38 101.795 33.48 95.5851 33.54ZM117.718 21.18L112.198 21.63C111.418 21.69 110.818 22.38 110.908 23.16C110.968 23.88 111.568 24.45 112.288 24.45C112.348 24.45 112.378 24.45 112.408 24.45L113.128 24.39L108.898 37.02H107.368C106.588 37.02 105.958 37.65 105.958 38.43C105.958 39.21 106.588 39.84 107.368 39.84H113.188C113.968 39.84 114.598 39.18 114.598 38.43C114.598 37.65 113.968 37.02 113.188 37.02H111.868L116.188 24.15L117.958 24C118.738 23.94 119.308 23.25 119.248 22.47C119.188 21.72 118.498 21.12 117.718 21.18ZM128.685 23.73C125.085 21.48 120.075 23.04 117.495 27.15C114.915 31.29 115.755 36.48 119.355 38.73C120.465 39.42 121.725 39.75 123.015 39.75C125.835 39.75 128.775 38.13 130.545 35.31C133.125 31.17 132.285 25.98 128.685 23.73ZM128.145 33.81C126.405 36.63 123.105 37.74 120.825 36.33C118.545 34.92 118.125 31.47 119.895 28.65C121.125 26.67 123.135 25.53 124.995 25.53C125.775 25.53 126.525 25.71 127.185 26.13C129.465 27.54 129.885 30.99 128.145 33.81ZM124.935 27.36C124.185 27.09 123.375 27.48 123.135 28.2L121.485 32.82C121.215 33.54 121.605 34.35 122.355 34.62C122.505 34.68 122.655 34.71 122.805 34.71C123.405 34.71 123.945 34.35 124.155 33.75L125.775 29.16C126.045 28.41 125.655 27.6 124.935 27.36ZM122.805 21.39H128.415C129.195 21.39 129.825 20.76 129.825 19.98C129.825 19.2 129.195 18.57 128.415 18.57H122.805C122.025 18.57 121.395 19.2 121.395 19.98C121.395 20.76 122.025 21.39 122.805 21.39ZM146.319 22.14C146.319 21.36 145.689 20.76 144.909 20.76H144.879C144.099 20.76 143.499 21.39 143.499 22.17C143.499 22.26 143.559 29.31 143.559 34.74C142.809 32.49 141.819 29.25 140.469 24.48C140.259 23.82 139.659 21.78 137.919 21.81C136.989 21.84 134.529 21.93 131.169 37.98C131.019 38.76 131.499 39.51 132.279 39.66C133.029 39.81 133.779 39.33 133.929 38.58C135.009 33.48 136.629 27.66 137.799 25.41C142.119 40.68 143.229 42.06 144.399 42.06C144.549 42.06 144.669 42.06 144.789 42.03C145.749 41.91 146.259 41.16 146.289 39.78C146.469 35.55 146.319 22.68 146.319 22.14ZM20.3413 47.73C16.7413 45.48 11.7313 47.04 9.15125 51.15C6.57125 55.29 7.41125 60.48 11.0113 62.73C12.1213 63.42 13.3813 63.75 14.6713 63.75C17.4913 63.75 20.4313 62.13 22.2013 59.31C24.7813 55.17 23.9413 49.98 20.3413 47.73ZM19.8013 57.81C18.0613 60.63 14.7613 61.74 12.4813 60.33C10.2013 58.92 9.78125 55.47 11.5513 52.65C12.7813 50.67 14.7913 49.53 16.6513 49.53C17.4313 49.53 18.1813 49.71 18.8413 50.13C21.1213 51.54 21.5413 54.99 19.8013 57.81ZM16.5913 51.36C15.8413 51.09 15.0313 51.48 14.7913 52.2L13.1413 56.82C12.8713 57.54 13.2613 58.35 14.0113 58.62C14.1613 58.68 14.3113 58.71 14.4613 58.71C15.0613 58.71 15.6013 58.35 15.8113 57.75L17.4313 53.16C17.7013 52.41 17.3113 51.6 16.5913 51.36ZM14.4613 45.39H20.0713C20.8513 45.39 21.4813 44.76 21.4813 43.98C21.4813 43.2 20.8513 42.57 20.0713 42.57H14.4613C13.6813 42.57 13.0513 43.2 13.0513 43.98C13.0513 44.76 13.6813 45.39 14.4613 45.39ZM37.9754 46.14C37.9754 45.36 37.3454 44.76 36.5654 44.76H36.5354C35.7554 44.76 35.1554 45.39 35.1554 46.17C35.1554 46.26 35.2154 53.31 35.2154 58.74C34.4654 56.49 33.4754 53.25 32.1254 48.48C31.9154 47.82 31.3154 45.78 29.5754 45.81C28.6454 45.84 26.1854 45.93 22.8254 61.98C22.6754 62.76 23.1554 63.51 23.9354 63.66C24.6854 63.81 25.4354 63.33 25.5854 62.58C26.6654 57.48 28.2854 51.66 29.4554 49.41C33.7754 64.68 34.8854 66.06 36.0554 66.06C36.2054 66.06 36.3254 66.06 36.4454 66.03C37.4054 65.91 37.9154 65.16 37.9454 63.78C38.1254 59.55 37.9754 46.68 37.9754 46.14ZM66.4719 47.88C66.5019 47.19 66.2619 45.93 64.4919 45.06C57.8919 41.88 50.2719 44.4 49.9419 44.49C49.2219 44.76 48.8019 45.54 49.0719 46.29C49.3119 47.04 50.1219 47.43 50.8419 47.19C50.8719 47.16 51.7719 46.89 53.1819 46.62L50.2419 55.77C50.1519 55.8 50.0319 55.86 49.9419 55.89C49.2219 56.19 48.8619 57 49.1619 57.72C49.2219 57.9 49.3419 58.05 49.4619 58.17L48.2619 61.86C48.0219 62.61 48.4419 63.42 49.1919 63.63C49.3419 63.69 49.4619 63.72 49.6119 63.72C50.2119 63.72 50.7819 63.33 50.9619 62.73L52.3719 58.38L57.9219 67.5C58.1919 67.95 58.6419 68.19 59.1219 68.19C59.3619 68.19 59.6319 68.13 59.8419 67.98C60.5319 67.59 60.7419 66.72 60.3219 66.06L54.7719 56.88C59.8419 54.57 66.3819 51 66.4719 47.88ZM53.6919 54.27L56.2419 46.29C58.4319 46.23 60.9519 46.5 63.2619 47.61C63.4719 47.7 63.5919 47.79 63.6519 47.85C63.3519 49.05 59.0919 51.75 53.6919 54.27ZM78.8288 60.66C75.2588 60.84 71.1788 60.93 68.5088 60.84C70.0088 60.06 71.8688 59.19 72.8888 58.68C76.0388 57.18 76.3088 57.06 76.3088 56.1C76.3088 55.17 75.9788 54.99 73.4888 53.55C72.5588 53.04 70.9388 52.11 69.8588 51.39C71.6888 50.58 75.0488 49.44 76.5488 48.99C76.9388 49.62 77.5088 50.79 77.9588 51.9C78.2588 52.62 79.0988 52.98 79.8188 52.68C80.5388 52.38 80.8688 51.57 80.5688 50.82C78.5888 46.02 77.6888 46.02 76.9688 46.02C76.2488 46.02 71.7488 47.64 71.6888 47.64C66.7988 49.41 66.2288 50.1 66.1688 51.12C66.0788 52.44 67.2788 53.25 72.0188 55.98C71.9288 56.04 71.8088 56.1 71.6888 56.13C64.7888 59.43 63.4988 60.3 63.4988 61.68C63.4988 62.1 63.6788 62.52 64.0088 62.82C64.3088 63.12 64.9388 63.72 70.8488 63.72C72.8888 63.72 75.5288 63.66 78.9788 63.48C79.7588 63.42 80.3588 62.76 80.3288 61.98C80.2988 61.2 79.6088 60.6 78.8288 60.66ZM84.0275 57.54C83.9675 57.54 83.8775 57.54 83.8175 57.54C85.2275 55.83 90.0875 52.38 93.3275 50.55C92.9075 51.54 92.2775 52.83 91.5875 54C91.1975 54.66 91.4375 55.53 92.0975 55.92C92.7875 56.31 93.6575 56.1 94.0475 55.41C97.6475 49.23 96.5675 48.06 96.1175 47.55C95.7575 47.16 94.9175 46.62 93.4175 47.34C93.2675 47.4 79.7675 54.6 80.6975 58.53C80.9675 59.76 82.0775 60.36 84.0575 60.36C86.8175 60.33 88.7075 60.54 89.9075 60.75C87.4775 61.59 83.5175 62.49 81.8075 62.25C81.0575 62.16 80.3375 62.7 80.2175 63.48C80.1275 64.23 80.6675 64.95 81.4475 65.04C81.7175 65.1 82.0475 65.1 82.4075 65.1C85.7075 65.1 91.2875 63.48 92.9675 62.52C94.4075 61.71 94.2275 60.54 94.1075 60.21C93.6275 58.38 90.2375 57.48 84.0275 57.54ZM110.262 54.87C109.692 54.84 109.152 54.81 108.612 54.78C108.612 51.48 108.522 49.14 108.312 48.18C108.192 47.61 107.802 45.93 106.302 45.81C104.442 45.66 103.602 47.85 101.502 53.13C101.262 53.73 101.022 54.36 100.752 55.02C97.3316 55.32 95.4416 55.86 95.2916 55.89C94.5416 56.1 94.1216 56.88 94.3316 57.63C94.5116 58.26 95.0816 58.65 95.6816 58.65C95.8016 58.65 95.9516 58.65 96.0716 58.59C96.1016 58.59 97.3016 58.26 99.5216 57.99C98.5616 60.15 97.5416 62.25 96.4316 63.84C96.0116 64.47 96.1616 65.34 96.8216 65.79C97.4516 66.24 98.3216 66.09 98.7716 65.43C100.242 63.3 101.562 60.45 102.702 57.69C103.662 57.63 104.682 57.6 105.792 57.57C105.792 58.71 105.792 59.85 105.792 60.9C105.762 62.34 105.762 63.69 105.762 64.86C105.762 65.64 106.392 66.27 107.172 66.27C107.952 66.27 108.582 65.64 108.582 64.86C108.582 63.69 108.582 62.34 108.612 60.9C108.612 59.76 108.612 58.65 108.612 57.63C109.092 57.63 109.602 57.66 110.112 57.69C110.862 57.72 111.552 57.12 111.582 56.34C111.612 55.56 111.042 54.9 110.262 54.87ZM103.872 54.81C103.962 54.6 104.052 54.36 104.142 54.18C104.652 52.89 105.222 51.45 105.702 50.34C105.762 51.45 105.792 53.04 105.792 54.75C105.132 54.78 104.502 54.78 103.872 54.81ZM121.01 60.6C120.83 59.85 120.08 59.37 119.33 59.55C117.38 59.97 115.13 60.45 113.72 60.72C114.32 58.35 116 53.46 117.59 49.26C117.89 48.54 117.53 47.7 116.78 47.43C116.06 47.16 115.25 47.52 114.98 48.24C110 61.26 110.57 62.34 110.87 62.91C111.08 63.3 111.47 63.57 111.89 63.69C111.95 63.69 112.07 63.72 112.28 63.72C112.91 63.72 114.59 63.51 119.96 62.28C120.71 62.13 121.19 61.35 121.01 60.6ZM135.667 60.66C132.097 60.84 128.017 60.93 125.347 60.84C126.847 60.06 128.707 59.19 129.727 58.68C132.877 57.18 133.147 57.06 133.147 56.1C133.147 55.17 132.817 54.99 130.327 53.55C129.397 53.04 127.777 52.11 126.697 51.39C128.527 50.58 131.887 49.44 133.387 48.99C133.777 49.62 134.347 50.79 134.797 51.9C135.097 52.62 135.937 52.98 136.657 52.68C137.377 52.38 137.707 51.57 137.407 50.82C135.427 46.02 134.527 46.02 133.807 46.02C133.087 46.02 128.587 47.64 128.527 47.64C123.637 49.41 123.067 50.1 123.007 51.12C122.917 52.44 124.117 53.25 128.857 55.98C128.767 56.04 128.647 56.1 128.527 56.13C121.627 59.43 120.337 60.3 120.337 61.68C120.337 62.1 120.517 62.52 120.847 62.82C121.147 63.12 121.777 63.72 127.687 63.72C129.727 63.72 132.367 63.66 135.817 63.48C136.597 63.42 137.197 62.76 137.167 61.98C137.137 61.2 136.447 60.6 135.667 60.66ZM140.866 57.54C140.806 57.54 140.716 57.54 140.656 57.54C142.066 55.83 146.926 52.38 150.166 50.55C149.746 51.54 149.116 52.83 148.426 54C148.036 54.66 148.276 55.53 148.936 55.92C149.626 56.31 150.496 56.1 150.886 55.41C154.486 49.23 153.406 48.06 152.956 47.55C152.596 47.16 151.756 46.62 150.256 47.34C150.106 47.4 136.606 54.6 137.536 58.53C137.806 59.76 138.916 60.36 140.896 60.36C143.656 60.33 145.546 60.54 146.746 60.75C144.316 61.59 140.356 62.49 138.646 62.25C137.896 62.16 137.176 62.7 137.056 63.48C136.966 64.23 137.506 64.95 138.286 65.04C138.556 65.1 138.886 65.1 139.246 65.1C142.546 65.1 148.126 63.48 149.806 62.52C151.246 61.71 151.066 60.54 150.946 60.21C150.466 58.38 147.076 57.48 140.866 57.54Z" fill="#E09369"/>
<path opacity="0.4" d="M54.5298 93H57.0778V89.412H59.7818V87.475H57.0778V85.863H60.7438V83.835H54.5298V93ZM70.9039 88.385C70.9039 85.629 68.8239 83.692 66.2109 83.692C63.6109 83.692 61.5049 85.629 61.5049 88.385C61.5049 91.141 63.6109 93.091 66.2109 93.091C68.8109 93.091 70.9039 91.141 70.9039 88.385ZM64.1049 88.385C64.1049 86.942 64.8849 86.032 66.2109 86.032C67.5239 86.032 68.3169 86.942 68.3169 88.385C68.3169 89.802 67.5239 90.725 66.2109 90.725C64.8849 90.725 64.1049 89.802 64.1049 88.385ZM76.8983 86.916C76.8983 87.54 76.5473 87.878 75.8583 87.878H74.5973V85.967H75.8583C76.5473 85.967 76.8983 86.344 76.8983 86.916ZM72.0493 83.835V93H74.5973V89.62H74.8703L76.6903 93H79.5373L77.4703 89.425C78.8353 89.009 79.4853 87.969 79.4853 86.773C79.4853 85.135 78.3413 83.835 76.0663 83.835H72.0493ZM83.1323 83.835V93H88.5273V91.05H85.6803V83.835H83.1323ZM89.518 93H92.066V83.835H89.518V93ZM93.5171 93H96.0651V89.412H98.7691V87.475H96.0651V85.863H99.7311V83.835H93.5171V93ZM106.667 83.835H100.804V93H106.667V90.959H103.352V89.308H106.277V87.371H103.352V85.876H106.667V83.835Z" fill="white"/>
</svg>
