<svg width="160" height="94" viewBox="0 0 160 94" fill="none" xmlns="http://www.w3.org/2000/svg">
<rect x="37" width="87" height="86" rx="43" fill="white" fill-opacity="0.1"/>
<path d="M10.4525 33.54C10.3925 33.54 10.3025 33.54 10.2425 33.54C11.6525 31.83 16.5125 28.38 19.7525 26.55C19.3325 27.54 18.7025 28.83 18.0125 30C17.6225 30.66 17.8625 31.53 18.5225 31.92C19.2125 32.31 20.0825 32.1 20.4725 31.41C24.0725 25.23 22.9925 24.06 22.5425 23.55C22.1825 23.16 21.3425 22.62 19.8425 23.34C19.6925 23.4 6.19251 30.6 7.12251 34.53C7.39251 35.76 8.50251 36.36 10.4825 36.36C13.2425 36.33 15.1325 36.54 16.3325 36.75C13.9025 37.59 9.94251 38.49 8.23251 38.25C7.48251 38.16 6.76251 38.7 6.64251 39.48C6.55251 40.23 7.09251 40.95 7.87251 41.04C8.14251 41.1 8.47251 41.1 8.83251 41.1C12.1325 41.1 17.7125 39.48 19.3925 38.52C20.8325 37.71 20.6525 36.54 20.5325 36.21C20.0525 34.38 16.6625 33.48 10.4525 33.54ZM36.4855 36.66C32.9155 36.84 28.8355 36.93 26.1655 36.84C27.6655 36.06 29.5255 35.19 30.5455 34.68C33.6955 33.18 33.9655 33.06 33.9655 32.1C33.9655 31.17 33.6355 30.99 31.1455 29.55C30.2155 29.04 28.5955 28.11 27.5155 27.39C29.3455 26.58 32.7055 25.44 34.2055 24.99C34.5955 25.62 35.1655 26.79 35.6155 27.9C35.9155 28.62 36.7555 28.98 37.4755 28.68C38.1955 28.38 38.5255 27.57 38.2255 26.82C36.2455 22.02 35.3455 22.02 34.6255 22.02C33.9055 22.02 29.4055 23.64 29.3455 23.64C24.4555 25.41 23.8855 26.1 23.8255 27.12C23.7355 28.44 24.9355 29.25 29.6755 31.98C29.5855 32.04 29.4655 32.1 29.3455 32.13C22.4455 35.43 21.1555 36.3 21.1555 37.68C21.1555 38.1 21.3355 38.52 21.6655 38.82C21.9655 39.12 22.5955 39.72 28.5055 39.72C30.5455 39.72 33.1855 39.66 36.6355 39.48C37.4155 39.42 38.0155 38.76 37.9855 37.98C37.9555 37.2 37.2655 36.6 36.4855 36.66ZM48.3141 36.6C48.1341 35.85 47.3841 35.37 46.6341 35.55C44.6841 35.97 42.4341 36.45 41.0241 36.72C41.6241 34.35 43.3041 29.46 44.8941 25.26C45.1941 24.54 44.8341 23.7 44.0841 23.43C43.3641 23.16 42.5541 23.52 42.2841 24.24C37.3041 37.26 37.8741 38.34 38.1741 38.91C38.3841 39.3 38.7741 39.57 39.1941 39.69C39.2541 39.69 39.3741 39.72 39.5841 39.72C40.2141 39.72 41.8941 39.51 47.2641 38.28C48.0141 38.13 48.4941 37.35 48.3141 36.6ZM58.261 36.6C58.081 35.85 57.331 35.37 56.581 35.55C54.631 35.97 52.381 36.45 50.971 36.72C51.571 34.35 53.251 29.46 54.841 25.26C55.141 24.54 54.781 23.7 54.031 23.43C53.311 23.16 52.501 23.52 52.231 24.24C47.251 37.26 47.821 38.34 48.121 38.91C48.331 39.3 48.721 39.57 49.141 39.69C49.201 39.69 49.321 39.72 49.531 39.72C50.161 39.72 51.841 39.51 57.211 38.28C57.961 38.13 58.441 37.35 58.261 36.6ZM80.8053 23.73C77.2053 21.48 72.1953 23.04 69.6153 27.15C67.0353 31.29 67.8753 36.48 71.4753 38.73C72.5853 39.42 73.8453 39.75 75.1353 39.75C77.9553 39.75 80.8953 38.13 82.6653 35.31C85.2453 31.17 84.4053 25.98 80.8053 23.73ZM80.2653 33.81C78.5253 36.63 75.2253 37.74 72.9453 36.33C70.6653 34.92 70.2453 31.47 72.0153 28.65C73.2453 26.67 75.2553 25.53 77.1153 25.53C77.8953 25.53 78.6453 25.71 79.3053 26.13C81.5853 27.54 82.0053 30.99 80.2653 33.81ZM77.0553 27.36C76.3053 27.09 75.4953 27.48 75.2553 28.2L73.6053 32.82C73.3353 33.54 73.7253 34.35 74.4753 34.62C74.6253 34.68 74.7753 34.71 74.9253 34.71C75.5253 34.71 76.0653 34.35 76.2753 33.75L77.8953 29.16C78.1653 28.41 77.7753 27.6 77.0553 27.36ZM74.9253 21.39H80.5353C81.3153 21.39 81.9453 20.76 81.9453 19.98C81.9453 19.2 81.3153 18.57 80.5353 18.57H74.9253C74.1453 18.57 73.5153 19.2 73.5153 19.98C73.5153 20.76 74.1453 21.39 74.9253 21.39ZM96.2195 21.51C95.5295 21.15 94.6895 21.42 94.3295 22.11C92.3495 25.89 89.2895 31.53 87.3095 34.77C87.3695 32.25 87.6695 28.47 88.0595 25.14C88.1495 24.36 87.6095 23.67 86.8295 23.58C86.0495 23.49 85.3595 24.03 85.2695 24.81C83.6495 38.46 84.8795 39.06 85.7495 39.48C85.9595 39.57 86.1995 39.63 86.4395 39.63C86.8595 39.63 87.3095 39.48 87.7295 39.06C89.6195 37.17 95.6495 25.71 96.8195 23.43C97.1795 22.74 96.9095 21.87 96.2195 21.51ZM108.735 36.66C105.165 36.84 101.085 36.93 98.4151 36.84C99.9151 36.06 101.775 35.19 102.795 34.68C105.945 33.18 106.215 33.06 106.215 32.1C106.215 31.17 105.885 30.99 103.395 29.55C102.465 29.04 100.845 28.11 99.7651 27.39C101.595 26.58 104.955 25.44 106.455 24.99C106.845 25.62 107.415 26.79 107.865 27.9C108.165 28.62 109.005 28.98 109.725 28.68C110.445 28.38 110.775 27.57 110.475 26.82C108.495 22.02 107.595 22.02 106.875 22.02C106.155 22.02 101.655 23.64 101.595 23.64C96.7051 25.41 96.1351 26.1 96.0751 27.12C95.9851 28.44 97.1851 29.25 101.925 31.98C101.835 32.04 101.715 32.1 101.595 32.13C94.6951 35.43 93.4051 36.3 93.4051 37.68C93.4051 38.1 93.5851 38.52 93.9151 38.82C94.2151 39.12 94.8451 39.72 100.755 39.72C102.795 39.72 105.435 39.66 108.885 39.48C109.665 39.42 110.265 38.76 110.235 37.98C110.205 37.2 109.515 36.6 108.735 36.66ZM128.694 23.88C128.724 23.19 128.484 21.93 126.714 21.06C120.114 17.88 112.494 20.4 112.164 20.49C111.444 20.76 111.024 21.54 111.294 22.29C111.534 23.04 112.344 23.43 113.064 23.19C113.094 23.16 113.994 22.89 115.404 22.62L112.464 31.77C112.374 31.8 112.254 31.86 112.164 31.89C111.444 32.19 111.084 33 111.384 33.72C111.444 33.9 111.564 34.05 111.684 34.17L110.484 37.86C110.244 38.61 110.664 39.42 111.414 39.63C111.564 39.69 111.684 39.72 111.834 39.72C112.434 39.72 113.004 39.33 113.184 38.73L114.594 34.38L120.144 43.5C120.414 43.95 120.864 44.19 121.344 44.19C121.584 44.19 121.854 44.13 122.064 43.98C122.754 43.59 122.964 42.72 122.544 42.06L116.994 32.88C122.064 30.57 128.604 27 128.694 23.88ZM115.914 30.27L118.464 22.29C120.654 22.23 123.174 22.5 125.484 23.61C125.694 23.7 125.814 23.79 125.874 23.85C125.574 25.05 121.314 27.75 115.914 30.27ZM152.71 28.95C152.11 28.44 151.24 28.53 150.73 29.13C149.41 30.72 146.71 33.75 143.95 36.45C143.35 36 142.81 35.55 142.33 35.1C142.48 34.83 142.66 34.56 142.81 34.29C146.5 28.29 147.88 25.89 147.55 24.39C147.34 23.34 146.56 22.68 145.51 22.62C142.78 22.5 138.22 27.33 137.14 30.69C136.66 32.22 137.44 33.9 138.79 35.49C135.58 40.77 134.95 42.48 135.97 43.71C136.18 43.98 136.63 44.34 137.38 44.34C137.68 44.34 138.04 44.28 138.46 44.13C140.08 43.5 142.12 41.97 144.13 40.14C145.63 41.16 147.01 41.97 147.82 42.45C148.51 42.84 149.35 42.6 149.74 41.94C150.13 41.25 149.92 40.41 149.23 40.02C148.21 39.42 147.19 38.79 146.26 38.16C149.53 34.95 152.38 31.56 152.89 30.93C153.4 30.33 153.31 29.43 152.71 28.95ZM139.84 31.56C140.5 29.49 142.87 27 144.4 25.95C143.59 27.66 141.73 30.66 140.41 32.82C140.38 32.88 140.35 32.91 140.32 32.94C139.93 32.37 139.72 31.89 139.84 31.56ZM139.12 40.56C139.57 39.69 140.2 38.64 140.83 37.56C141.16 37.86 141.49 38.13 141.82 38.4C140.89 39.24 139.96 39.99 139.12 40.56ZM23.5346 47.73C19.9346 45.48 14.9246 47.04 12.3446 51.15C9.76461 55.29 10.6046 60.48 14.2046 62.73C15.3146 63.42 16.5746 63.75 17.8646 63.75C20.6846 63.75 23.6246 62.13 25.3946 59.31C27.9746 55.17 27.1346 49.98 23.5346 47.73ZM22.9946 57.81C21.2546 60.63 17.9546 61.74 15.6746 60.33C13.3946 58.92 12.9746 55.47 14.7446 52.65C15.9746 50.67 17.9846 49.53 19.8446 49.53C20.6246 49.53 21.3746 49.71 22.0346 50.13C24.3146 51.54 24.7346 54.99 22.9946 57.81ZM19.7846 51.36C19.0346 51.09 18.2246 51.48 17.9846 52.2L16.3346 56.82C16.0646 57.54 16.4546 58.35 17.2046 58.62C17.3546 58.68 17.5046 58.71 17.6546 58.71C18.2546 58.71 18.7946 58.35 19.0046 57.75L20.6246 53.16C20.8946 52.41 20.5046 51.6 19.7846 51.36ZM17.6546 45.39H23.2646C24.0446 45.39 24.6746 44.76 24.6746 43.98C24.6746 43.2 24.0446 42.57 23.2646 42.57H17.6546C16.8746 42.57 16.2446 43.2 16.2446 43.98C16.2446 44.76 16.8746 45.39 17.6546 45.39ZM38.9488 45.51C38.2588 45.15 37.4188 45.42 37.0588 46.11C35.0788 49.89 32.0188 55.53 30.0388 58.77C30.0988 56.25 30.3988 52.47 30.7888 49.14C30.8788 48.36 30.3388 47.67 29.5588 47.58C28.7788 47.49 28.0888 48.03 27.9988 48.81C26.3788 62.46 27.6088 63.06 28.4788 63.48C28.6888 63.57 28.9288 63.63 29.1688 63.63C29.5888 63.63 30.0388 63.48 30.4588 63.06C32.3488 61.17 38.3788 49.71 39.5488 47.43C39.9088 46.74 39.6388 45.87 38.9488 45.51ZM51.4644 60.66C47.8944 60.84 43.8144 60.93 41.1444 60.84C42.6444 60.06 44.5044 59.19 45.5244 58.68C48.6744 57.18 48.9444 57.06 48.9444 56.1C48.9444 55.17 48.6144 54.99 46.1244 53.55C45.1944 53.04 43.5744 52.11 42.4944 51.39C44.3244 50.58 47.6844 49.44 49.1844 48.99C49.5744 49.62 50.1444 50.79 50.5944 51.9C50.8944 52.62 51.7344 52.98 52.4544 52.68C53.1744 52.38 53.5044 51.57 53.2044 50.82C51.2244 46.02 50.3244 46.02 49.6044 46.02C48.8844 46.02 44.3844 47.64 44.3244 47.64C39.4344 49.41 38.8644 50.1 38.8044 51.12C38.7144 52.44 39.9144 53.25 44.6544 55.98C44.5644 56.04 44.4444 56.1 44.3244 56.13C37.4244 59.43 36.1344 60.3 36.1344 61.68C36.1344 62.1 36.3144 62.52 36.6444 62.82C36.9444 63.12 37.5744 63.72 43.4844 63.72C45.5244 63.72 48.1644 63.66 51.6144 63.48C52.3944 63.42 52.9944 62.76 52.9644 61.98C52.9344 61.2 52.2444 60.6 51.4644 60.66ZM71.423 47.88C71.453 47.19 71.213 45.93 69.443 45.06C62.843 41.88 55.223 44.4 54.893 44.49C54.173 44.76 53.753 45.54 54.023 46.29C54.263 47.04 55.073 47.43 55.793 47.19C55.823 47.16 56.723 46.89 58.133 46.62L55.193 55.77C55.103 55.8 54.983 55.86 54.893 55.89C54.173 56.19 53.813 57 54.113 57.72C54.173 57.9 54.293 58.05 54.413 58.17L53.213 61.86C52.973 62.61 53.393 63.42 54.143 63.63C54.293 63.69 54.413 63.72 54.563 63.72C55.163 63.72 55.733 63.33 55.913 62.73L57.323 58.38L62.873 67.5C63.143 67.95 63.593 68.19 64.073 68.19C64.313 68.19 64.583 68.13 64.793 67.98C65.483 67.59 65.693 66.72 65.273 66.06L59.723 56.88C64.793 54.57 71.333 51 71.423 47.88ZM58.643 54.27L61.193 46.29C63.383 46.23 65.903 46.5 68.213 47.61C68.423 47.7 68.543 47.79 68.603 47.85C68.303 49.05 64.043 51.75 58.643 54.27ZM94.719 54.87C94.149 54.84 93.609 54.81 93.069 54.78C93.069 51.48 92.979 49.14 92.769 48.18C92.649 47.61 92.259 45.93 90.759 45.81C88.899 45.66 88.059 47.85 85.959 53.13C85.719 53.73 85.479 54.36 85.209 55.02C81.789 55.32 79.899 55.86 79.749 55.89C78.999 56.1 78.579 56.88 78.789 57.63C78.969 58.26 79.539 58.65 80.139 58.65C80.259 58.65 80.409 58.65 80.529 58.59C80.559 58.59 81.759 58.26 83.979 57.99C83.019 60.15 81.999 62.25 80.889 63.84C80.469 64.47 80.619 65.34 81.279 65.79C81.909 66.24 82.779 66.09 83.229 65.43C84.699 63.3 86.019 60.45 87.159 57.69C88.119 57.63 89.139 57.6 90.249 57.57C90.249 58.71 90.249 59.85 90.249 60.9C90.219 62.34 90.219 63.69 90.219 64.86C90.219 65.64 90.849 66.27 91.629 66.27C92.409 66.27 93.039 65.64 93.039 64.86C93.039 63.69 93.039 62.34 93.069 60.9C93.069 59.76 93.069 58.65 93.069 57.63C93.549 57.63 94.059 57.66 94.569 57.69C95.319 57.72 96.009 57.12 96.039 56.34C96.069 55.56 95.499 54.9 94.719 54.87ZM88.329 54.81C88.419 54.6 88.509 54.36 88.599 54.18C89.109 52.89 89.679 51.45 90.159 50.34C90.219 51.45 90.249 53.04 90.249 54.75C89.589 54.78 88.959 54.78 88.329 54.81ZM106.188 52.98C106.338 53.04 106.458 53.04 106.608 53.04C107.208 53.04 107.748 52.65 107.958 52.05L110.058 44.97C110.298 44.22 109.878 43.44 109.128 43.2C108.378 42.99 107.598 43.41 107.358 44.16L106.608 46.71C106.158 46.44 105.738 46.35 105.468 46.32C101.988 45.96 96.9477 52.14 95.7477 57.03C94.7877 60.93 96.4377 62.55 97.4877 63.18C98.2677 63.63 99.1377 63.81 100.068 63.81C101.178 63.81 102.348 63.51 103.308 63.03L102.888 64.47C102.648 65.22 103.068 66 103.818 66.21C103.968 66.27 104.088 66.27 104.238 66.27C104.838 66.27 105.408 65.88 105.588 65.28L108.168 56.67V56.64C108.318 56.19 108.438 55.8 108.438 55.56L108.408 54.87L107.988 54.45C107.508 53.97 107.208 53.67 101.628 54.39C100.848 54.48 100.308 55.2 100.428 55.98C100.518 56.76 101.238 57.3 101.988 57.18C102.978 57.06 104.088 56.94 104.988 56.85C104.448 57.9 103.638 59.19 102.738 60.06C101.928 60.81 99.8877 61.29 98.9277 60.75C98.0577 60.24 98.2077 58.8 98.4777 57.69C99.6477 52.98 104.058 48.87 105.138 49.08C105.138 49.11 105.378 49.35 105.408 50.34C105.408 50.43 105.408 50.52 105.438 50.61L105.228 51.24C105.018 51.99 105.438 52.77 106.188 52.98ZM124.076 54.87C123.506 54.84 122.966 54.81 122.426 54.78C122.426 51.48 122.336 49.14 122.126 48.18C122.006 47.61 121.616 45.93 120.116 45.81C118.256 45.66 117.416 47.85 115.316 53.13C115.076 53.73 114.836 54.36 114.566 55.02C111.146 55.32 109.256 55.86 109.106 55.89C108.356 56.1 107.936 56.88 108.146 57.63C108.326 58.26 108.896 58.65 109.496 58.65C109.616 58.65 109.766 58.65 109.886 58.59C109.916 58.59 111.116 58.26 113.336 57.99C112.376 60.15 111.356 62.25 110.246 63.84C109.826 64.47 109.976 65.34 110.636 65.79C111.266 66.24 112.136 66.09 112.586 65.43C114.056 63.3 115.376 60.45 116.516 57.69C117.476 57.63 118.496 57.6 119.606 57.57C119.606 58.71 119.606 59.85 119.606 60.9C119.576 62.34 119.576 63.69 119.576 64.86C119.576 65.64 120.206 66.27 120.986 66.27C121.766 66.27 122.396 65.64 122.396 64.86C122.396 63.69 122.396 62.34 122.426 60.9C122.426 59.76 122.426 58.65 122.426 57.63C122.906 57.63 123.416 57.66 123.926 57.69C124.676 57.72 125.366 57.12 125.396 56.34C125.426 55.56 124.856 54.9 124.076 54.87ZM117.686 54.81C117.776 54.6 117.866 54.36 117.956 54.18C118.466 52.89 119.036 51.45 119.516 50.34C119.576 51.45 119.606 53.04 119.606 54.75C118.946 54.78 118.316 54.78 117.686 54.81ZM135.078 45.18L129.558 45.63C128.778 45.69 128.178 46.38 128.268 47.16C128.328 47.88 128.928 48.45 129.648 48.45C129.708 48.45 129.738 48.45 129.768 48.45L130.488 48.39L126.258 61.02H124.728C123.948 61.02 123.318 61.65 123.318 62.43C123.318 63.21 123.948 63.84 124.728 63.84H130.548C131.328 63.84 131.958 63.18 131.958 62.43C131.958 61.65 131.328 61.02 130.548 61.02H129.228L133.548 48.15L135.318 48C136.098 47.94 136.668 47.25 136.608 46.47C136.548 45.72 135.858 45.12 135.078 45.18ZM148.136 46.14C148.136 45.36 147.506 44.76 146.726 44.76H146.696C145.916 44.76 145.316 45.39 145.316 46.17C145.316 46.26 145.376 53.31 145.376 58.74C144.626 56.49 143.636 53.25 142.286 48.48C142.076 47.82 141.476 45.78 139.736 45.81C138.806 45.84 136.346 45.93 132.986 61.98C132.836 62.76 133.316 63.51 134.096 63.66C134.846 63.81 135.596 63.33 135.746 62.58C136.826 57.48 138.446 51.66 139.616 49.41C143.936 64.68 145.046 66.06 146.216 66.06C146.366 66.06 146.486 66.06 146.606 66.03C147.566 65.91 148.076 65.16 148.106 63.78C148.286 59.55 148.136 46.68 148.136 46.14Z" fill="#E09369"/>
<path opacity="0.4" d="M19.9731 83.835V93H25.3681V91.05H22.5211V83.835H19.9731ZM26.3589 93H28.9069V83.835H26.3589V93ZM35.7789 93H38.8599L35.3239 88.281L38.6909 83.835H35.7529L32.9059 87.787V83.835H30.3579V93H32.9059V88.983L35.7789 93ZM45.6535 83.835H39.7905V93H45.6535V90.959H42.3385V89.308H45.2635V87.371H42.3385V85.876H45.6535V83.835ZM53.0279 83.835H49.4009V93H53.0279C55.9529 93 57.8119 91.063 57.8119 88.411C57.8119 85.72 55.9529 83.835 53.0279 83.835ZM51.9489 90.751V86.045H52.8329C54.3019 86.045 55.2249 86.89 55.2249 88.411C55.2249 89.919 54.3019 90.751 52.8329 90.751H51.9489ZM58.9604 93H61.5084V83.835H58.9604V93ZM67.2884 83.744C64.4804 83.744 62.6474 85.668 62.6474 88.398C62.6474 91.141 64.4934 93.065 67.3014 93.065C69.6934 93.065 71.1104 91.583 71.6564 90.244V87.774H66.8984V89.607H69.4594C69.0824 90.4 68.4324 90.816 67.5484 90.816C66.0404 90.816 65.2344 89.971 65.2344 88.398C65.2344 86.994 66.0144 86.097 67.3014 86.097C68.0034 86.097 68.5234 86.37 68.8094 86.851H71.5524C71.1884 84.94 69.6024 83.744 67.2884 83.744ZM72.7983 93H75.3463V83.835H72.7983V93ZM76.2903 85.863H78.7083V93H81.2563V85.863H83.7003V83.835H76.2903V85.863ZM90.935 93H93.626L90.298 83.835H87.36L84.019 93H86.697L87.191 91.505H90.441L90.935 93ZM89.804 89.555H87.841L88.816 86.591L89.804 89.555ZM94.4565 83.835V93H99.8515V91.05H97.0045V83.835H94.4565ZM107.465 90.452L105.385 83.835H102.655L105.827 93H109.09L112.249 83.835H109.532L107.465 90.452ZM113.042 93H115.59V83.835H113.042V93ZM122.982 83.835V89.022L119.589 83.835H117.041V93H119.589V87.878L122.982 93H125.53V83.835H122.982ZM129.53 90.088V93H132.091V90.088L135.315 83.835H132.442L130.83 87.371L129.218 83.835H126.306L129.53 90.088ZM136.097 83.835V93H141.492V91.05H138.645V83.835H136.097Z" fill="white"/>
</svg>
