<svg width="161" height="93" viewBox="0 0 161 93" fill="none" xmlns="http://www.w3.org/2000/svg">
<rect x="37" width="87" height="86" rx="43" fill="white" fill-opacity="0.1"/>
<path d="M30.5466 28.98C30.6966 29.04 30.8166 29.04 30.9666 29.04C31.5666 29.04 32.1066 28.65 32.3166 28.05L34.4166 20.97C34.6566 20.22 34.2366 19.44 33.4866 19.2C32.7366 18.99 31.9566 19.41 31.7166 20.16L30.9666 22.71C30.5166 22.44 30.0966 22.35 29.8266 22.32C26.3466 21.96 21.3066 28.14 20.1066 33.03C19.1466 36.93 20.7966 38.55 21.8466 39.18C22.6266 39.63 23.4966 39.81 24.4266 39.81C25.5366 39.81 26.7066 39.51 27.6666 39.03L27.2466 40.47C27.0066 41.22 27.4266 42 28.1766 42.21C28.3266 42.27 28.4466 42.27 28.5966 42.27C29.1966 42.27 29.7666 41.88 29.9466 41.28L32.5266 32.67V32.64C32.6766 32.19 32.7966 31.8 32.7966 31.56L32.7666 30.87L32.3466 30.45C31.8666 29.97 31.5666 29.67 25.9866 30.39C25.2066 30.48 24.6666 31.2 24.7866 31.98C24.8766 32.76 25.5966 33.3 26.3466 33.18C27.3366 33.06 28.4466 32.94 29.3466 32.85C28.8066 33.9 27.9966 35.19 27.0966 36.06C26.2866 36.81 24.2466 37.29 23.2866 36.75C22.4166 36.24 22.5666 34.8 22.8366 33.69C24.0066 28.98 28.4166 24.87 29.4966 25.08C29.4966 25.11 29.7366 25.35 29.7666 26.34C29.7666 26.43 29.7666 26.52 29.7966 26.61L29.5866 27.24C29.3766 27.99 29.7966 28.77 30.5466 28.98ZM47.3546 36.66C43.7846 36.84 39.7046 36.93 37.0346 36.84C38.5346 36.06 40.3946 35.19 41.4146 34.68C44.5646 33.18 44.8346 33.06 44.8346 32.1C44.8346 31.17 44.5046 30.99 42.0146 29.55C41.0846 29.04 39.4646 28.11 38.3846 27.39C40.2146 26.58 43.5746 25.44 45.0746 24.99C45.4646 25.62 46.0346 26.79 46.4846 27.9C46.7846 28.62 47.6246 28.98 48.3446 28.68C49.0646 28.38 49.3946 27.57 49.0946 26.82C47.1146 22.02 46.2146 22.02 45.4946 22.02C44.7746 22.02 40.2746 23.64 40.2146 23.64C35.3246 25.41 34.7546 26.1 34.6946 27.12C34.6046 28.44 35.8046 29.25 40.5446 31.98C40.4546 32.04 40.3346 32.1 40.2146 32.13C33.3146 35.43 32.0246 36.3 32.0246 37.68C32.0246 38.1 32.2046 38.52 32.5346 38.82C32.8346 39.12 33.4646 39.72 39.3746 39.72C41.4146 39.72 44.0546 39.66 47.5046 39.48C48.2846 39.42 48.8846 38.76 48.8546 37.98C48.8246 37.2 48.1346 36.6 47.3546 36.66ZM74.041 17.7C66.691 17.13 47.191 19.44 46.351 19.53C45.601 19.62 45.031 20.31 45.121 21.09C45.211 21.81 45.811 22.35 46.531 22.35C46.591 22.35 46.651 22.32 46.681 22.32C46.771 22.32 49.861 21.96 54.031 21.54L48.451 37.89C48.211 38.64 48.601 39.42 49.321 39.69C49.471 39.75 49.621 39.75 49.771 39.75C50.371 39.75 50.911 39.39 51.121 38.82L57.121 21.24C63.121 20.7 70.171 20.22 73.801 20.52C74.581 20.55 75.271 19.98 75.331 19.23C75.391 18.45 74.791 17.76 74.041 17.7ZM82.5809 24.78C81.7709 21.69 76.8509 20.94 66.7109 22.35C65.9309 22.47 65.3909 23.19 65.4809 23.94C65.6009 24.72 66.3209 25.26 67.1009 25.17C68.1809 24.99 69.1709 24.87 70.0709 24.78C64.6709 37.98 65.2709 38.58 65.9309 39.27C66.2309 39.57 66.6209 39.72 67.0109 39.72C67.1909 39.72 67.4009 39.69 67.5809 39.6C67.7609 39.54 84.1109 30.45 82.5809 24.78ZM68.9909 35.52C69.9209 32.82 71.6009 28.53 73.2509 24.54C79.4009 24.24 79.8509 25.5 79.8509 25.5C80.4209 27.36 73.2209 32.79 68.9909 35.52ZM90.0976 21.18L84.5776 21.63C83.7976 21.69 83.1976 22.38 83.2876 23.16C83.3476 23.88 83.9476 24.45 84.6676 24.45C84.7276 24.45 84.7576 24.45 84.7876 24.45L85.5076 24.39L81.2776 37.02H79.7476C78.9676 37.02 78.3376 37.65 78.3376 38.43C78.3376 39.21 78.9676 39.84 79.7476 39.84H85.5676C86.3476 39.84 86.9776 39.18 86.9776 38.43C86.9776 37.65 86.3476 37.02 85.5676 37.02H84.2476L88.5676 24.15L90.3376 24C91.1176 23.94 91.6876 23.25 91.6276 22.47C91.5676 21.72 90.8776 21.12 90.0976 21.18ZM107.423 23.88C107.453 23.19 107.213 21.93 105.443 21.06C98.8431 17.88 91.2231 20.4 90.8931 20.49C90.1731 20.76 89.7531 21.54 90.0231 22.29C90.2631 23.04 91.0731 23.43 91.7931 23.19C91.8231 23.16 92.7231 22.89 94.1331 22.62L91.1931 31.77C91.1031 31.8 90.9831 31.86 90.8931 31.89C90.1731 32.19 89.8131 33 90.1131 33.72C90.1731 33.9 90.2931 34.05 90.4131 34.17L89.2131 37.86C88.9731 38.61 89.3931 39.42 90.1431 39.63C90.2931 39.69 90.4131 39.72 90.5631 39.72C91.1631 39.72 91.7331 39.33 91.9131 38.73L93.3231 34.38L98.8731 43.5C99.1431 43.95 99.5931 44.19 100.073 44.19C100.313 44.19 100.583 44.13 100.793 43.98C101.483 43.59 101.693 42.72 101.273 42.06L95.7231 32.88C100.793 30.57 107.333 27 107.423 23.88ZM94.6431 30.27L97.1931 22.29C99.3831 22.23 101.903 22.5 104.213 23.61C104.423 23.7 104.543 23.79 104.603 23.85C104.303 25.05 100.043 27.75 94.6431 30.27ZM119.78 36.66C116.21 36.84 112.13 36.93 109.46 36.84C110.96 36.06 112.82 35.19 113.84 34.68C116.99 33.18 117.26 33.06 117.26 32.1C117.26 31.17 116.93 30.99 114.44 29.55C113.51 29.04 111.89 28.11 110.81 27.39C112.64 26.58 116 25.44 117.5 24.99C117.89 25.62 118.46 26.79 118.91 27.9C119.21 28.62 120.05 28.98 120.77 28.68C121.49 28.38 121.82 27.57 121.52 26.82C119.54 22.02 118.64 22.02 117.92 22.02C117.2 22.02 112.7 23.64 112.64 23.64C107.75 25.41 107.18 26.1 107.12 27.12C107.03 28.44 108.23 29.25 112.97 31.98C112.88 32.04 112.76 32.1 112.64 32.13C105.74 35.43 104.45 36.3 104.45 37.68C104.45 38.1 104.63 38.52 104.96 38.82C105.26 39.12 105.89 39.72 111.8 39.72C113.84 39.72 116.48 39.66 119.93 39.48C120.71 39.42 121.31 38.76 121.28 37.98C121.25 37.2 120.56 36.6 119.78 36.66ZM135.269 19.2C134.519 18.99 133.739 19.41 133.499 20.16L132.749 22.71C132.299 22.44 131.879 22.35 131.609 22.32C128.099 21.96 123.089 28.14 121.889 33.03C120.929 36.93 122.579 38.55 123.629 39.18C124.409 39.63 125.279 39.81 126.209 39.81C127.919 39.81 129.749 39.12 130.799 38.1C132.299 36.72 133.409 34.65 133.799 33.81C134.159 33.12 133.859 32.28 133.169 31.92C132.449 31.59 131.609 31.86 131.279 32.58C130.739 33.66 129.809 35.16 128.879 36.06C128.069 36.81 126.029 37.29 125.069 36.75C124.199 36.24 124.349 34.8 124.619 33.69C125.789 28.98 130.199 24.87 131.279 25.08C131.279 25.11 131.519 25.35 131.549 26.34C131.549 26.43 131.549 26.52 131.579 26.61L131.399 27.24C131.159 27.99 131.579 28.77 132.329 28.98C132.479 29.04 132.599 29.04 132.749 29.04C133.349 29.04 133.889 28.65 134.099 28.05L136.199 20.97C136.439 20.22 136.019 19.44 135.269 19.2ZM159.431 17.7C152.081 17.13 132.581 19.44 131.741 19.53C130.991 19.62 130.421 20.31 130.511 21.09C130.601 21.81 131.201 22.35 131.921 22.35C131.981 22.35 132.041 22.32 132.071 22.32C132.161 22.32 135.251 21.96 139.421 21.54L133.841 37.89C133.601 38.64 133.991 39.42 134.711 39.69C134.861 39.75 135.011 39.75 135.161 39.75C135.761 39.75 136.301 39.39 136.511 38.82L142.511 21.24C148.511 20.7 155.561 20.22 159.191 20.52C159.971 20.55 160.661 19.98 160.721 19.23C160.781 18.45 160.181 17.76 159.431 17.7ZM37.1736 47.61C30.6036 44.43 22.9536 46.95 22.6536 47.07C21.9036 47.31 21.5136 48.12 21.7536 48.84C21.9936 49.59 22.8036 49.98 23.5536 49.74C23.5836 49.74 24.4536 49.44 25.7736 49.2L19.8336 64.35C19.5636 65.07 19.9236 65.88 20.6436 66.18C20.8236 66.24 20.9736 66.27 21.1536 66.27C21.7236 66.27 22.2636 65.94 22.4736 65.37L24.2436 60.84C29.1336 58.83 39.0636 54.27 39.1836 50.43C39.2136 49.74 38.9736 48.48 37.1736 47.61ZM25.7136 57.12L28.9236 48.93C28.9236 48.9 28.9536 48.87 28.9536 48.87C31.1136 48.78 33.6636 49.05 35.9736 50.16C36.1836 50.28 36.3036 50.37 36.3336 50.4C36.0336 51.66 31.4136 54.54 25.7136 57.12ZM51.9291 54.87C51.3591 54.84 50.8191 54.81 50.2791 54.78C50.2791 51.48 50.1891 49.14 49.9791 48.18C49.8591 47.61 49.4691 45.93 47.9691 45.81C46.1091 45.66 45.2691 47.85 43.1691 53.13C42.9291 53.73 42.6891 54.36 42.4191 55.02C38.9991 55.32 37.1091 55.86 36.9591 55.89C36.2091 56.1 35.7891 56.88 35.9991 57.63C36.1791 58.26 36.7491 58.65 37.3491 58.65C37.4691 58.65 37.6191 58.65 37.7391 58.59C37.7691 58.59 38.9691 58.26 41.1891 57.99C40.2291 60.15 39.2091 62.25 38.0991 63.84C37.6791 64.47 37.8291 65.34 38.4891 65.79C39.1191 66.24 39.9891 66.09 40.4391 65.43C41.9091 63.3 43.2291 60.45 44.3691 57.69C45.3291 57.63 46.3491 57.6 47.4591 57.57C47.4591 58.71 47.4591 59.85 47.4591 60.9C47.4291 62.34 47.4291 63.69 47.4291 64.86C47.4291 65.64 48.0591 66.27 48.8391 66.27C49.6191 66.27 50.2491 65.64 50.2491 64.86C50.2491 63.69 50.2491 62.34 50.2791 60.9C50.2791 59.76 50.2791 58.65 50.2791 57.63C50.7591 57.63 51.2691 57.66 51.7791 57.69C52.5291 57.72 53.2191 57.12 53.2491 56.34C53.2791 55.56 52.7091 54.9 51.9291 54.87ZM45.5391 54.81C45.6291 54.6 45.7191 54.36 45.8091 54.18C46.3191 52.89 46.8891 51.45 47.3691 50.34C47.4291 51.45 47.4591 53.04 47.4591 54.75C46.7991 54.78 46.1691 54.78 45.5391 54.81ZM67.1178 48.81C66.4278 48.45 65.5878 48.66 65.1678 49.32C62.9478 52.62 58.5378 58.47 55.4778 60.48C55.6578 58.26 57.3978 52.95 59.2578 48.51C59.5578 47.79 59.1978 46.98 58.4778 46.68C57.7578 46.38 56.9478 46.71 56.6478 47.43C51.0378 60.93 52.8678 62.61 53.4678 63.15C53.8878 63.54 54.7878 64.05 56.2578 63.3C57.8778 62.43 59.7378 60.69 61.4778 58.74L60.1278 62.01C50.9178 68.13 50.6778 68.37 50.5878 68.49C50.0778 68.97 49.9278 69.69 50.1678 70.32C50.4978 71.16 51.4278 71.76 52.2078 71.88L56.3778 73.17L56.6778 73.23C56.7378 73.23 56.7978 73.26 56.8578 73.26C57.8778 73.26 58.8078 72.63 59.1978 71.67L62.5578 63.51C62.5578 63.48 62.5578 63.48 62.5878 63.45L67.8078 50.73C68.1078 50.01 67.8078 49.17 67.1178 48.81ZM56.7078 70.32L54.0078 69.51C55.1178 68.76 56.6478 67.74 58.2078 66.69L56.7078 70.32ZM86.4221 49.65C86.3321 48.75 85.7021 48.3 85.1921 48.18C83.7521 47.88 83.0021 48.78 78.3821 56.31C77.9921 56.97 77.5721 57.63 77.1821 58.26C77.1221 55.92 77.1821 52.68 77.2121 50.58C77.2721 48.03 77.3021 46.02 77.2121 45.09C77.1221 44.13 76.4621 43.65 75.9221 43.56C74.7521 43.35 73.6721 43.14 64.6121 61.68C64.2821 62.4 64.5521 63.24 65.2721 63.57C65.4521 63.66 65.6621 63.72 65.8721 63.72C66.4121 63.72 66.8921 63.42 67.1321 62.91C69.6521 57.78 72.5321 52.26 74.4221 48.99C74.4221 49.47 74.3921 49.98 74.3921 50.52C74.2121 61.44 74.4821 62.58 75.8021 63.12C76.4321 63.36 77.1221 63.21 77.6021 62.67C78.1721 62.07 79.1321 60.48 80.8121 57.78C81.5921 56.52 82.6421 54.78 83.5721 53.34C83.4221 56.01 83.1521 59.61 82.9421 62.19C82.8521 62.97 83.4221 63.63 84.2021 63.72C84.9821 63.78 85.6721 63.21 85.7321 62.43C85.8221 61.35 86.6621 51.9 86.4221 49.65ZM101.315 60.66C97.7448 60.84 93.6648 60.93 90.9948 60.84C92.4948 60.06 94.3548 59.19 95.3748 58.68C98.5248 57.18 98.7948 57.06 98.7948 56.1C98.7948 55.17 98.4648 54.99 95.9748 53.55C95.0448 53.04 93.4248 52.11 92.3448 51.39C94.1748 50.58 97.5348 49.44 99.0348 48.99C99.4248 49.62 99.9948 50.79 100.445 51.9C100.745 52.62 101.585 52.98 102.305 52.68C103.025 52.38 103.355 51.57 103.055 50.82C101.075 46.02 100.175 46.02 99.4548 46.02C98.7348 46.02 94.2348 47.64 94.1748 47.64C89.2848 49.41 88.7148 50.1 88.6548 51.12C88.5648 52.44 89.7648 53.25 94.5048 55.98C94.4148 56.04 94.2948 56.1 94.1748 56.13C87.2748 59.43 85.9848 60.3 85.9848 61.68C85.9848 62.1 86.1648 62.52 86.4948 62.82C86.7948 63.12 87.4248 63.72 93.3348 63.72C95.3748 63.72 98.0148 63.66 101.465 63.48C102.245 63.42 102.845 62.76 102.815 61.98C102.785 61.2 102.095 60.6 101.315 60.66ZM117.973 46.14C117.973 45.36 117.343 44.76 116.563 44.76H116.533C115.753 44.76 115.153 45.39 115.153 46.17C115.153 46.26 115.213 53.31 115.213 58.74C114.463 56.49 113.473 53.25 112.123 48.48C111.913 47.82 111.313 45.78 109.573 45.81C108.643 45.84 106.183 45.93 102.823 61.98C102.673 62.76 103.153 63.51 103.933 63.66C104.683 63.81 105.433 63.33 105.583 62.58C106.663 57.48 108.283 51.66 109.453 49.41C113.773 64.68 114.883 66.06 116.053 66.06C116.203 66.06 116.323 66.06 116.443 66.03C117.403 65.91 117.913 65.16 117.943 63.78C118.123 59.55 117.973 46.68 117.973 46.14ZM144.569 41.7C137.219 41.13 117.719 43.44 116.879 43.53C116.129 43.62 115.559 44.31 115.649 45.09C115.739 45.81 116.339 46.35 117.059 46.35C117.119 46.35 117.179 46.32 117.209 46.32C117.299 46.32 120.389 45.96 124.559 45.54L118.979 61.89C118.739 62.64 119.129 63.42 119.849 63.69C119.999 63.75 120.149 63.75 120.299 63.75C120.899 63.75 121.439 63.39 121.649 62.82L127.649 45.24C133.649 44.7 140.699 44.22 144.329 44.52C145.109 44.55 145.799 43.98 145.859 43.23C145.919 42.45 145.319 41.76 144.569 41.7ZM127.813 57.54C127.753 57.54 127.663 57.54 127.603 57.54C129.013 55.83 133.873 52.38 137.113 50.55C136.693 51.54 136.063 52.83 135.373 54C134.983 54.66 135.223 55.53 135.883 55.92C136.573 56.31 137.443 56.1 137.833 55.41C141.433 49.23 140.353 48.06 139.903 47.55C139.543 47.16 138.703 46.62 137.203 47.34C137.053 47.4 123.553 54.6 124.483 58.53C124.753 59.76 125.863 60.36 127.843 60.36C130.603 60.33 132.493 60.54 133.693 60.75C131.263 61.59 127.303 62.49 125.593 62.25C124.843 62.16 124.123 62.7 124.003 63.48C123.913 64.23 124.453 64.95 125.233 65.04C125.503 65.1 125.833 65.1 126.193 65.1C129.493 65.1 135.073 63.48 136.753 62.52C138.193 61.71 138.013 60.54 137.893 60.21C137.413 58.38 134.023 57.48 127.813 57.54Z" fill="#E09369"/>
<path opacity="0.4" d="M37.7402 93H40.2882V83.835H37.7402V93ZM47.6802 83.835V89.022L44.2872 83.835H41.7392V93H44.2872V87.878L47.6802 93H50.2282V83.835H47.6802ZM59.0169 86.916C59.0169 87.54 58.6659 87.878 57.9769 87.878H56.7159V85.967H57.9769C58.6659 85.967 59.0169 86.344 59.0169 86.916ZM54.1679 83.835V93H56.7159V89.62H56.9889L58.8089 93H61.6559L59.5889 89.425C60.9539 89.009 61.6039 87.969 61.6039 86.773C61.6039 85.135 60.4599 83.835 58.1849 83.835H54.1679ZM68.6257 83.835H62.7627V93H68.6257V90.959H65.3107V89.308H68.2357V87.371H65.3107V85.876H68.6257V83.835ZM76.1767 93H78.8677L75.5397 83.835H72.6017L69.2607 93H71.9387L72.4327 91.505H75.6827L76.1767 93ZM75.0457 89.555H73.0827L74.0577 86.591L75.0457 89.555ZM79.6982 83.835V93H85.0932V91.05H82.2462V83.835H79.6982ZM85.824 89.555H91.713V87.436H85.824V89.555ZM93.0926 85.863H95.5106V93H98.0586V85.863H100.503V83.835H93.0926V85.863ZM101.445 93H103.993V83.835H101.445V93ZM105.444 93H107.992V87.904L109.734 93H111.866L113.595 87.943V93H116.143V83.835H113.075L110.826 89.789L108.525 83.835H105.444V93ZM123.457 83.835H117.594V93H123.457V90.959H120.142V89.308H123.067V87.371H120.142V85.876H123.457V83.835Z" fill="white"/>
</svg>
