<svg width="160" height="93" viewBox="0 0 160 93" fill="none" xmlns="http://www.w3.org/2000/svg">
<rect x="37" width="87" height="86" rx="43" fill="white" fill-opacity="0.1"/>
<path d="M38.2634 33.54C38.2034 33.54 38.1134 33.54 38.0534 33.54C39.4634 31.83 44.3234 28.38 47.5634 26.55C47.1434 27.54 46.5134 28.83 45.8234 30C45.4334 30.66 45.6734 31.53 46.3334 31.92C47.0234 32.31 47.8934 32.1 48.2834 31.41C51.8834 25.23 50.8034 24.06 50.3534 23.55C49.9934 23.16 49.1534 22.62 47.6534 23.34C47.5034 23.4 34.0034 30.6 34.9334 34.53C35.2034 35.76 36.3134 36.36 38.2934 36.36C41.0534 36.33 42.9434 36.54 44.1434 36.75C41.7134 37.59 37.7534 38.49 36.0434 38.25C35.2934 38.16 34.5734 38.7 34.4534 39.48C34.3634 40.23 34.9034 40.95 35.6834 41.04C35.9534 41.1 36.2834 41.1 36.6434 41.1C39.9434 41.1 45.5234 39.48 47.2034 38.52C48.6434 37.71 48.4634 36.54 48.3434 36.21C47.8634 34.38 44.4734 33.48 38.2634 33.54ZM66.0964 23.82L65.6464 23.16H64.8664C63.8764 23.16 63.3364 23.85 61.0564 26.88C58.8064 29.85 54.8164 35.19 52.0564 36.57C52.8064 34.11 56.3464 28.11 59.7364 23.16C60.1864 22.53 60.0064 21.63 59.3764 21.21C58.7464 20.76 57.8464 20.91 57.4264 21.57C47.4964 35.97 48.9964 38.13 49.4764 38.85C49.7164 39.18 50.4664 39.99 51.9964 39.6C54.7264 38.94 57.7264 35.73 60.8464 31.77C59.6764 34.65 58.2364 37.98 56.8264 41.16C56.5264 41.88 56.8264 42.69 57.5464 43.02C57.7264 43.11 57.9364 43.14 58.1164 43.14C58.6564 43.14 59.1664 42.81 59.4064 42.3C66.9964 25.17 66.5764 24.54 66.0964 23.82ZM67.5322 33.54C67.4722 33.54 67.3822 33.54 67.3222 33.54C68.7322 31.83 73.5922 28.38 76.8322 26.55C76.4122 27.54 75.7822 28.83 75.0922 30C74.7022 30.66 74.9422 31.53 75.6022 31.92C76.2922 32.31 77.1622 32.1 77.5522 31.41C81.1522 25.23 80.0722 24.06 79.6222 23.55C79.2622 23.16 78.4222 22.62 76.9222 23.34C76.7722 23.4 63.2722 30.6 64.2022 34.53C64.4722 35.76 65.5822 36.36 67.5622 36.36C70.3222 36.33 72.2122 36.54 73.4122 36.75C70.9822 37.59 67.0222 38.49 65.3122 38.25C64.5622 38.16 63.8422 38.7 63.7222 39.48C63.6322 40.23 64.1722 40.95 64.9522 41.04C65.2222 41.1 65.5522 41.1 65.9122 41.1C69.2122 41.1 74.7922 39.48 76.4722 38.52C77.9122 37.71 77.7322 36.54 77.6122 36.21C77.1322 34.38 73.7422 33.48 67.5322 33.54ZM104.152 17.7C96.8023 17.13 77.3023 19.44 76.4623 19.53C75.7123 19.62 75.1423 20.31 75.2323 21.09C75.3223 21.81 75.9223 22.35 76.6423 22.35C76.7023 22.35 76.7623 22.32 76.7923 22.32C76.8823 22.32 79.9723 21.96 84.1423 21.54L78.5623 37.89C78.3223 38.64 78.7123 39.42 79.4323 39.69C79.5823 39.75 79.7323 39.75 79.8823 39.75C80.4823 39.75 81.0223 39.39 81.2323 38.82L87.2323 21.24C93.2323 20.7 100.282 20.22 103.912 20.52C104.692 20.55 105.382 19.98 105.442 19.23C105.502 18.45 104.902 17.76 104.152 17.7ZM100.227 30.87C99.6568 30.84 99.1168 30.81 98.5768 30.78C98.5768 27.48 98.4868 25.14 98.2768 24.18C98.1568 23.61 97.7668 21.93 96.2668 21.81C94.4068 21.66 93.5668 23.85 91.4668 29.13C91.2268 29.73 90.9868 30.36 90.7168 31.02C87.2968 31.32 85.4068 31.86 85.2568 31.89C84.5068 32.1 84.0868 32.88 84.2968 33.63C84.4768 34.26 85.0468 34.65 85.6468 34.65C85.7668 34.65 85.9168 34.65 86.0368 34.59C86.0668 34.59 87.2668 34.26 89.4868 33.99C88.5268 36.15 87.5068 38.25 86.3968 39.84C85.9768 40.47 86.1268 41.34 86.7868 41.79C87.4168 42.24 88.2868 42.09 88.7368 41.43C90.2068 39.3 91.5268 36.45 92.6668 33.69C93.6268 33.63 94.6468 33.6 95.7568 33.57C95.7568 34.71 95.7568 35.85 95.7568 36.9C95.7268 38.34 95.7268 39.69 95.7268 40.86C95.7268 41.64 96.3568 42.27 97.1368 42.27C97.9168 42.27 98.5468 41.64 98.5468 40.86C98.5468 39.69 98.5468 38.34 98.5768 36.9C98.5768 35.76 98.5768 34.65 98.5768 33.63C99.0568 33.63 99.5668 33.66 100.077 33.69C100.827 33.72 101.517 33.12 101.547 32.34C101.577 31.56 101.007 30.9 100.227 30.87ZM93.8368 30.81C93.9268 30.6 94.0168 30.36 94.1068 30.18C94.6168 28.89 95.1868 27.45 95.6668 26.34C95.7268 27.45 95.7568 29.04 95.7568 30.75C95.0968 30.78 94.4668 30.78 93.8368 30.81ZM111.229 21.18L105.709 21.63C104.929 21.69 104.329 22.38 104.419 23.16C104.479 23.88 105.079 24.45 105.799 24.45C105.859 24.45 105.889 24.45 105.919 24.45L106.639 24.39L102.409 37.02H100.879C100.099 37.02 99.4688 37.65 99.4688 38.43C99.4688 39.21 100.099 39.84 100.879 39.84H106.699C107.479 39.84 108.109 39.18 108.109 38.43C108.109 37.65 107.479 37.02 106.699 37.02H105.379L109.699 24.15L111.469 24C112.249 23.94 112.819 23.25 112.759 22.47C112.699 21.72 112.009 21.12 111.229 21.18ZM124.288 22.14C124.288 21.36 123.658 20.76 122.878 20.76H122.848C122.068 20.76 121.468 21.39 121.468 22.17C121.468 22.26 121.528 29.31 121.528 34.74C120.778 32.49 119.788 29.25 118.438 24.48C118.228 23.82 117.628 21.78 115.888 21.81C114.958 21.84 112.498 21.93 109.138 37.98C108.988 38.76 109.468 39.51 110.248 39.66C110.998 39.81 111.748 39.33 111.898 38.58C112.978 33.48 114.598 27.66 115.768 25.41C120.088 40.68 121.198 42.06 122.368 42.06C122.518 42.06 122.638 42.06 122.758 42.03C123.718 41.91 124.228 41.16 124.258 39.78C124.438 35.55 124.288 22.68 124.288 22.14ZM39.1088 48.81C38.4188 48.45 37.5788 48.66 37.1588 49.32C34.9388 52.62 30.5288 58.47 27.4688 60.48C27.6488 58.26 29.3888 52.95 31.2488 48.51C31.5488 47.79 31.1888 46.98 30.4688 46.68C29.7488 46.38 28.9388 46.71 28.6388 47.43C23.0288 60.93 24.8588 62.61 25.4588 63.15C25.8788 63.54 26.7788 64.05 28.2488 63.3C29.8688 62.43 31.7288 60.69 33.4688 58.74L32.1188 62.01C22.9088 68.13 22.6688 68.37 22.5788 68.49C22.0688 68.97 21.9188 69.69 22.1588 70.32C22.4888 71.16 23.4188 71.76 24.1988 71.88L28.3688 73.17L28.6688 73.23C28.7288 73.23 28.7888 73.26 28.8488 73.26C29.8688 73.26 30.7988 72.63 31.1888 71.67L34.5488 63.51C34.5488 63.48 34.5488 63.48 34.5788 63.45L39.7988 50.73C40.0988 50.01 39.7988 49.17 39.1088 48.81ZM28.6988 70.32L25.9988 69.51C27.1088 68.76 28.6388 67.74 30.1988 66.69L28.6988 70.32ZM51.6608 47.73C48.0608 45.48 43.0508 47.04 40.4708 51.15C37.8908 55.29 38.7308 60.48 42.3308 62.73C43.4408 63.42 44.7008 63.75 45.9908 63.75C48.8108 63.75 51.7508 62.13 53.5208 59.31C56.1008 55.17 55.2608 49.98 51.6608 47.73ZM51.1208 57.81C49.3808 60.63 46.0808 61.74 43.8008 60.33C41.5208 58.92 41.1008 55.47 42.8708 52.65C44.1008 50.67 46.1108 49.53 47.9708 49.53C48.7508 49.53 49.5008 49.71 50.1608 50.13C52.4408 51.54 52.8608 54.99 51.1208 57.81ZM47.9108 51.36C47.1608 51.09 46.3508 51.48 46.1108 52.2L44.4608 56.82C44.1908 57.54 44.5808 58.35 45.3308 58.62C45.4808 58.68 45.6308 58.71 45.7808 58.71C46.3808 58.71 46.9208 58.35 47.1308 57.75L48.7508 53.16C49.0208 52.41 48.6308 51.6 47.9108 51.36ZM45.7808 45.39H51.3908C52.1708 45.39 52.8008 44.76 52.8008 43.98C52.8008 43.2 52.1708 42.57 51.3908 42.57H45.7808C45.0008 42.57 44.3708 43.2 44.3708 43.98C44.3708 44.76 45.0008 45.39 45.7808 45.39ZM70.9749 47.82L70.5249 47.16H69.7449C68.7549 47.16 68.2149 47.85 65.9349 50.88C63.6849 53.85 59.6949 59.19 56.9349 60.57C57.6849 58.11 61.2249 52.11 64.6149 47.16C65.0649 46.53 64.8849 45.63 64.2549 45.21C63.6249 44.76 62.7249 44.91 62.3049 45.57C52.3749 59.97 53.8749 62.13 54.3549 62.85C54.5949 63.18 55.3449 63.99 56.8749 63.6C59.6049 62.94 62.6049 59.73 65.7249 55.77C64.5549 58.65 63.1149 61.98 61.7049 65.16C61.4049 65.88 61.7049 66.69 62.4249 67.02C62.6049 67.11 62.8149 67.14 62.9949 67.14C63.5349 67.14 64.0449 66.81 64.2849 66.3C71.8749 49.17 71.4549 48.54 70.9749 47.82ZM87.8445 47.88C87.8745 47.19 87.6345 45.93 85.8645 45.06C79.2645 41.88 71.6445 44.4 71.3145 44.49C70.5945 44.76 70.1745 45.54 70.4445 46.29C70.6845 47.04 71.4945 47.43 72.2145 47.19C72.2445 47.16 73.1445 46.89 74.5545 46.62L71.6145 55.77C71.5245 55.8 71.4045 55.86 71.3145 55.89C70.5945 56.19 70.2345 57 70.5345 57.72C70.5945 57.9 70.7145 58.05 70.8345 58.17L69.6345 61.86C69.3945 62.61 69.8145 63.42 70.5645 63.63C70.7145 63.69 70.8345 63.72 70.9845 63.72C71.5845 63.72 72.1545 63.33 72.3345 62.73L73.7445 58.38L79.2945 67.5C79.5645 67.95 80.0145 68.19 80.4945 68.19C80.7345 68.19 81.0045 68.13 81.2145 67.98C81.9045 67.59 82.1145 66.72 81.6945 66.06L76.1445 56.88C81.2145 54.57 87.7545 51 87.8445 47.88ZM75.0645 54.27L77.6145 46.29C79.8045 46.23 82.3245 46.5 84.6345 47.61C84.8445 47.7 84.9645 47.79 85.0245 47.85C84.7245 49.05 80.4645 51.75 75.0645 54.27ZM111.14 54.87C110.57 54.84 110.03 54.81 109.49 54.78C109.49 51.48 109.4 49.14 109.19 48.18C109.07 47.61 108.68 45.93 107.18 45.81C105.32 45.66 104.48 47.85 102.38 53.13C102.14 53.73 101.9 54.36 101.63 55.02C98.2105 55.32 96.3205 55.86 96.1705 55.89C95.4205 56.1 95.0005 56.88 95.2105 57.63C95.3905 58.26 95.9605 58.65 96.5605 58.65C96.6805 58.65 96.8305 58.65 96.9505 58.59C96.9805 58.59 98.1805 58.26 100.4 57.99C99.4405 60.15 98.4205 62.25 97.3105 63.84C96.8905 64.47 97.0405 65.34 97.7005 65.79C98.3305 66.24 99.2005 66.09 99.6505 65.43C101.12 63.3 102.44 60.45 103.58 57.69C104.54 57.63 105.56 57.6 106.67 57.57C106.67 58.71 106.67 59.85 106.67 60.9C106.64 62.34 106.64 63.69 106.64 64.86C106.64 65.64 107.27 66.27 108.05 66.27C108.83 66.27 109.46 65.64 109.46 64.86C109.46 63.69 109.46 62.34 109.49 60.9C109.49 59.76 109.49 58.65 109.49 57.63C109.97 57.63 110.48 57.66 110.99 57.69C111.74 57.72 112.43 57.12 112.46 56.34C112.49 55.56 111.92 54.9 111.14 54.87ZM104.75 54.81C104.84 54.6 104.93 54.36 105.02 54.18C105.53 52.89 106.1 51.45 106.58 50.34C106.64 51.45 106.67 53.04 106.67 54.75C106.01 54.78 105.38 54.78 104.75 54.81ZM130.019 47.88C130.049 47.19 129.809 45.93 128.039 45.06C121.439 41.88 113.819 44.4 113.489 44.49C112.769 44.76 112.349 45.54 112.619 46.29C112.859 47.04 113.669 47.43 114.389 47.19C114.419 47.16 115.319 46.89 116.729 46.62L113.789 55.77C113.699 55.8 113.579 55.86 113.489 55.89C112.769 56.19 112.409 57 112.709 57.72C112.769 57.9 112.889 58.05 113.009 58.17L111.809 61.86C111.569 62.61 111.989 63.42 112.739 63.63C112.889 63.69 113.009 63.72 113.159 63.72C113.759 63.72 114.329 63.33 114.509 62.73L115.919 58.38L121.469 67.5C121.739 67.95 122.189 68.19 122.669 68.19C122.909 68.19 123.179 68.13 123.389 67.98C124.079 67.59 124.289 66.72 123.869 66.06L118.319 56.88C123.389 54.57 129.929 51 130.019 47.88ZM117.239 54.27L119.789 46.29C121.979 46.23 124.499 46.5 126.809 47.61C127.019 47.7 127.139 47.79 127.199 47.85C126.899 49.05 122.639 51.75 117.239 54.27ZM153.989 41.7C146.639 41.13 127.139 43.44 126.299 43.53C125.549 43.62 124.979 44.31 125.069 45.09C125.159 45.81 125.759 46.35 126.479 46.35C126.539 46.35 126.599 46.32 126.629 46.32C126.719 46.32 129.809 45.96 133.979 45.54L128.399 61.89C128.159 62.64 128.549 63.42 129.269 63.69C129.419 63.75 129.569 63.75 129.719 63.75C130.319 63.75 130.859 63.39 131.069 62.82L137.069 45.24C143.069 44.7 150.119 44.22 153.749 44.52C154.529 44.55 155.219 43.98 155.279 43.23C155.339 42.45 154.739 41.76 153.989 41.7Z" fill="#E09369"/>
<path opacity="0.4" d="M21.8128 92H24.9458L26.2328 86.384L27.4938 92H30.6268L32.8758 82.835H30.1198L29.0538 89.049L27.6498 82.835H24.8548L23.4118 89.101L22.3458 82.835H19.5898L21.8128 92ZM33.957 92H36.505V82.835H33.957V92ZM37.449 84.863H39.867V92H42.415V84.863H44.859V82.835H37.449V84.863ZM51.4567 92H54.0047V82.835H51.4567V86.28H48.3497V82.835H45.8017V92H48.3497V88.321H51.4567V92ZM57.6391 87.398C57.6391 90.141 59.4461 92.065 62.2021 92.065C64.5031 92.065 66.1411 90.739 66.5961 88.659H63.8531C63.5281 89.348 62.9171 89.725 62.1631 89.725C60.9931 89.725 60.2261 88.815 60.2261 87.398C60.2261 85.994 60.9931 85.084 62.1631 85.084C62.9171 85.084 63.5281 85.461 63.8531 86.15H66.5961C66.1411 84.07 64.5031 82.744 62.2021 82.744C59.4461 82.744 57.6391 84.668 57.6391 87.398ZM76.8897 87.385C76.8897 84.629 74.8097 82.692 72.1967 82.692C69.5967 82.692 67.4907 84.629 67.4907 87.385C67.4907 90.141 69.5967 92.091 72.1967 92.091C74.7967 92.091 76.8897 90.141 76.8897 87.385ZM70.0907 87.385C70.0907 85.942 70.8707 85.032 72.1967 85.032C73.5097 85.032 74.3027 85.942 74.3027 87.385C74.3027 88.802 73.5097 89.725 72.1967 89.725C70.8707 89.725 70.0907 88.802 70.0907 87.385ZM78.0351 92H80.5831V86.904L82.3251 92H84.4571L86.1861 86.943V92H88.7341V82.835H85.6661L83.4171 88.789L81.1161 82.835H78.0351V92ZM90.1845 92H92.7325V86.904L94.4745 92H96.6065L98.3355 86.943V92H100.884V82.835H97.8155L95.5665 88.789L93.2655 82.835H90.1845V92ZM102.295 88.152C102.295 90.765 103.959 92.091 106.169 92.091C108.366 92.091 110.186 90.765 110.186 88.152V82.835H107.638V88.152C107.638 89.101 107.183 89.699 106.221 89.699C105.259 89.699 104.83 89.101 104.83 88.152V82.835H102.295V88.152ZM117.53 82.835V88.022L114.137 82.835H111.589V92H114.137V86.878L117.53 92H120.078V82.835H117.53ZM121.529 92H124.077V82.835H121.529V92ZM125.021 84.863H127.439V92H129.987V84.863H132.431V82.835H125.021V84.863ZM135.922 89.088V92H138.483V89.088L141.707 82.835H138.834L137.222 86.371L135.61 82.835H132.698L135.922 89.088Z" fill="white"/>
</svg>
