<svg width="834" height="117" viewBox="0 0 834 117" fill="none" xmlns="http://www.w3.org/2000/svg">
<path d="M40.5399 18.688C37.9399 18.168 35.4439 20.04 34.9239 22.64L31.5959 43.024L20.0519 44.584L26.2919 24.928C27.1239 22.432 25.7719 19.624 23.1719 18.792C20.5719 17.96 17.8679 19.416 17.0359 22.016L1.64385 70.168C0.811853 72.768 2.26785 75.472 4.76385 76.304C5.28385 76.512 5.80385 76.512 6.32385 76.512C8.40385 76.512 10.2759 75.264 10.8999 73.184L16.7239 54.984L29.9319 53.112L24.7319 84.728C24.3159 87.328 26.0839 89.824 28.7879 90.344C29.0999 90.344 29.3079 90.344 29.6199 90.344C31.9079 90.344 33.9879 88.68 34.4039 86.288L44.5959 24.304C45.0119 21.6 43.2439 19.104 40.5399 18.688ZM83.8664 32.208C79.6024 29.192 73.7784 28.776 67.8504 31.064C62.6504 33.248 57.6584 37.304 53.8104 42.608C49.9624 47.912 47.6744 53.944 47.3624 59.56C46.9464 65.904 49.1304 71.312 53.2904 74.328C55.7864 76.096 58.6984 76.928 61.8184 76.928C64.2104 76.928 66.7064 76.512 69.3064 75.472C74.5064 73.392 79.4984 69.232 83.3464 63.928C91.8744 52.176 92.0824 38.24 83.8664 32.208ZM75.4424 58.208C72.7384 62.056 69.0984 64.968 65.6664 66.424C62.9624 67.464 60.5704 67.464 59.1144 66.424C57.6584 65.384 56.9304 63.096 57.0344 60.184C57.3464 56.44 59.0104 52.072 61.7144 48.328C64.5224 44.584 68.0584 41.568 71.4904 40.216C72.9464 39.592 74.1944 39.384 75.3384 39.384C76.4824 39.384 77.4184 39.592 78.1464 40.112C81.3704 42.504 80.8504 50.72 75.4424 58.208ZM75.4424 81.608C67.1224 79.424 44.7624 79.736 42.2664 79.84C39.5624 79.84 37.3784 82.024 37.3784 84.728C37.4824 87.432 39.7704 89.72 42.3704 89.616C48.8184 89.512 67.0184 89.512 72.9464 91.072C73.3624 91.176 73.7784 91.28 74.1944 91.28C76.3784 91.28 78.3544 89.824 78.9784 87.536C79.6024 84.936 78.0424 82.232 75.4424 81.608ZM144.898 26.904C142.402 25.968 139.594 27.216 138.658 29.712C138.554 29.712 138.554 29.816 138.554 30.024C138.138 30.232 137.722 30.648 137.41 31.064C122.642 50.928 103.922 72.976 96.3302 78.176C95.8102 71.104 102.778 51.136 112.762 32.104C114.01 29.712 113.074 26.8 110.682 25.552C108.29 24.304 105.378 25.24 104.13 27.632C96.5382 41.984 80.0022 76.616 89.9862 87.224L90.8182 87.952C91.6502 88.472 92.6902 89.2 94.3542 89.2C98.7222 89.2 107.25 84.416 127.114 60.184C123.682 69.752 120.562 78.8 119.522 82.96C118.898 85.56 120.458 88.264 123.058 88.888C123.474 88.992 123.89 88.992 124.202 88.992C126.49 88.992 128.466 87.536 128.986 85.352C131.378 75.576 147.602 33.664 147.706 33.248C148.746 30.752 147.498 27.84 144.898 26.904ZM186.384 67.048C185.344 61.536 178.48 59.976 168.184 57.48C163.296 56.336 158.2 55.192 154.352 53.632C154.248 53.632 154.144 53.528 154.04 53.528C156.848 50.408 166.104 45.416 172.448 42.192L171.824 48.224C171.616 50.928 173.592 53.32 176.192 53.632C176.4 53.632 176.608 53.632 176.712 53.632C179.208 53.632 181.288 51.76 181.6 49.264L183.472 29.816C183.784 27.112 181.808 24.72 179.104 24.408C176.504 24.2 174.008 26.176 173.8 28.88L173.592 30.96C173.072 31.064 172.552 31.168 172.136 31.376C154.664 40.112 143.224 46.456 143.536 54.464C143.64 56.96 144.992 60.496 150.712 62.68C155.288 64.552 161.008 65.904 166 67.048C168.08 67.568 170.784 68.192 173.072 68.816C165.064 72.768 151.856 76.408 146.656 77.552C144.056 78.176 142.392 80.776 143.016 83.48C143.536 85.664 145.616 87.224 147.8 87.224C148.112 87.224 148.528 87.224 148.944 87.12C149.88 86.912 172.344 81.608 182.224 74.848C186.28 72.144 186.696 69.128 186.384 67.048ZM235.821 31.584C234.989 30.44 233.533 29.608 232.077 29.504C229.997 29.296 227.085 28.984 204.725 49.576C206.597 43.752 208.365 39.072 209.613 36.264C210.757 33.768 209.613 30.856 207.117 29.816C204.621 28.672 201.813 29.816 200.669 32.208C194.221 46.872 176.437 107.92 175.709 110.52C174.981 113.12 176.437 115.824 179.037 116.552C179.557 116.76 179.973 116.76 180.389 116.76C182.573 116.76 184.445 115.408 185.069 113.224C185.173 112.912 190.893 93.152 197.029 73.392C200.773 78.8 205.661 84.52 210.133 85.456C210.757 85.664 211.277 85.664 211.797 85.664C213.253 85.664 214.605 85.248 215.749 84.416C221.989 80.152 235.301 45 236.653 37.2C236.965 35.432 237.173 33.456 235.821 31.584ZM211.069 75.056C209.093 73.184 205.765 69.024 202.957 64.552C210.237 57.792 218.037 50.616 223.965 45.624C220.325 55.816 214.397 69.96 211.069 75.056ZM267.834 44.584C268.562 47.184 271.162 48.64 273.866 47.912C276.466 47.184 277.922 44.48 277.194 41.88C274.282 31.168 270.85 29.712 268.146 29.608C259.826 29.192 240.586 44.064 237.05 47.808C236.426 48.432 234.762 50.304 235.074 52.8C235.594 56.856 238.506 57.688 252.234 62.056C252.65 62.16 253.066 62.264 253.586 62.472C252.962 62.784 252.442 63.096 251.922 63.304C234.346 72.976 230.602 75.368 230.602 79.632C230.602 81.088 231.226 82.544 232.37 83.584C233.41 84.624 235.282 86.392 251.402 86.392C256.082 86.392 262.01 86.184 269.498 85.872C272.202 85.664 274.282 83.376 274.178 80.776C274.074 78.072 271.682 75.888 269.082 76.096C262.114 76.408 254.418 76.616 248.386 76.512C251.298 74.848 254.314 73.184 256.602 71.936C268.666 65.28 270.122 64.448 269.498 60.496C268.874 56.96 267.106 56.44 255.146 52.696C253.274 52.072 250.882 51.344 248.698 50.616C253.898 46.56 261.906 41.256 266.066 39.8C266.69 41.048 267.314 42.92 267.834 44.584ZM288.897 45.624C286.297 44.792 283.593 46.352 282.865 48.952C282.553 49.992 275.585 74.952 274.337 79.632C273.609 82.336 275.169 84.936 277.873 85.664C278.185 85.768 278.601 85.768 279.017 85.768C281.201 85.768 283.177 84.312 283.801 82.128C284.945 77.448 292.225 51.864 292.329 51.656C293.057 49.056 291.497 46.352 288.897 45.624ZM296.801 21.288C294.201 20.456 291.393 21.808 290.561 24.304L287.129 34.392C286.193 36.992 287.545 39.8 290.145 40.632C290.665 40.84 291.185 40.944 291.705 40.944C293.785 40.944 295.657 39.696 296.385 37.616L299.817 27.528C300.649 24.928 299.297 22.224 296.801 21.288ZM338.431 37.72C332.295 36.888 326.367 36.576 321.167 36.368L323.039 29.296C323.767 26.696 322.207 23.992 319.607 23.264C316.903 22.64 314.303 24.2 313.575 26.8L311.079 36.368C305.359 36.368 301.615 36.68 301.303 36.68C298.599 36.992 296.623 39.28 296.831 41.984C297.039 44.688 299.431 46.664 302.135 46.456C302.135 46.456 304.527 46.248 308.375 46.144L299.535 79.528C298.911 82.128 300.367 84.832 303.071 85.456C303.487 85.664 303.903 85.664 304.319 85.664C306.399 85.664 308.375 84.208 308.999 82.024L318.567 46.144C324.079 46.248 330.527 46.56 337.183 47.392C337.391 47.392 337.599 47.392 337.807 47.392C340.303 47.392 342.383 45.624 342.695 43.128C343.007 40.424 341.135 38.032 338.431 37.72ZM419.163 4.96C416.563 4.232 413.859 5.688 413.027 8.288L410.427 17.128C408.867 16.192 407.411 15.88 406.475 15.776C394.307 14.528 376.939 35.952 372.779 52.904C369.451 66.424 375.171 72.04 378.811 74.224C381.515 75.784 384.531 76.408 387.755 76.408C393.683 76.408 400.027 74.016 403.667 70.48C408.867 65.696 412.715 58.52 414.067 55.608C415.315 53.216 414.275 50.304 411.883 49.056C409.387 47.912 406.475 48.848 405.331 51.344C403.459 55.088 400.235 60.288 397.011 63.408C394.203 66.008 387.131 67.672 383.803 65.8C380.787 64.032 381.307 59.04 382.243 55.192C386.299 38.864 401.587 24.616 405.331 25.344C405.331 25.448 406.163 26.28 406.267 29.712C406.267 30.024 406.267 30.336 406.371 30.648L405.747 32.832C404.915 35.432 406.371 38.136 408.971 38.864C409.491 39.072 409.907 39.072 410.427 39.072C412.507 39.072 414.379 37.72 415.107 35.64L422.387 11.096C423.219 8.496 421.763 5.792 419.163 4.96ZM451.279 18.688C448.679 18.168 446.183 20.04 445.663 22.64L442.335 43.024L430.791 44.584L437.031 24.928C437.863 22.432 436.511 19.624 433.911 18.792C431.311 17.96 428.607 19.416 427.775 22.016L412.383 70.168C411.551 72.768 413.007 75.472 415.503 76.304C416.023 76.512 416.543 76.512 417.063 76.512C419.143 76.512 421.015 75.264 421.639 73.184L427.463 54.984L440.671 53.112L435.471 84.728C435.055 87.328 436.823 89.824 439.527 90.344C439.839 90.344 440.047 90.344 440.359 90.344C442.647 90.344 444.727 88.68 445.143 86.288L455.335 24.304C455.751 21.6 453.983 19.104 451.279 18.688ZM490.029 11.824L470.893 13.384C468.189 13.592 466.109 15.984 466.421 18.688C466.629 21.184 468.709 23.16 471.205 23.16C471.413 23.16 471.517 23.16 471.621 23.16L474.117 22.952L459.453 66.736H454.149C451.445 66.736 449.261 68.92 449.261 71.624C449.261 74.328 451.445 76.512 454.149 76.512H474.325C477.029 76.512 479.213 74.224 479.213 71.624C479.213 68.92 477.029 66.736 474.325 66.736H469.749L484.725 22.12L490.861 21.6C493.565 21.392 495.541 19 495.333 16.296C495.125 13.696 492.733 11.616 490.029 11.824ZM583.05 21.184C583.154 18.792 582.322 14.424 576.186 11.408C553.306 0.383999 526.89 9.12 525.746 9.432C523.25 10.368 521.794 13.072 522.73 15.672C523.562 18.272 526.37 19.624 528.866 18.792C528.97 18.688 532.09 17.752 536.978 16.816L526.786 48.536C526.474 48.64 526.058 48.848 525.746 48.952C523.25 49.992 522.002 52.8 523.042 55.296C523.25 55.92 523.666 56.44 524.082 56.856L519.922 69.648C519.09 72.248 520.546 75.056 523.146 75.784C523.666 75.992 524.082 76.096 524.602 76.096C526.682 76.096 528.658 74.744 529.282 72.664L534.17 57.584L553.41 89.2C554.346 90.76 555.906 91.592 557.57 91.592C558.402 91.592 559.338 91.384 560.066 90.864C562.458 89.512 563.186 86.496 561.73 84.208L542.49 52.384C560.066 44.376 582.738 32 583.05 21.184ZM538.746 43.336L547.586 15.672C555.178 15.464 563.914 16.4 571.922 20.248C572.65 20.56 573.066 20.872 573.274 21.08C572.234 25.24 557.466 34.6 538.746 43.336ZM604.38 44.584C605.108 47.184 607.708 48.64 610.412 47.912C613.012 47.184 614.468 44.48 613.74 41.88C610.828 31.168 607.396 29.712 604.692 29.608C596.372 29.192 577.132 44.064 573.596 47.808C572.972 48.432 571.308 50.304 571.62 52.8C572.14 56.856 575.052 57.688 588.78 62.056C589.196 62.16 589.612 62.264 590.132 62.472C589.508 62.784 588.988 63.096 588.468 63.304C570.892 72.976 567.148 75.368 567.148 79.632C567.148 81.088 567.772 82.544 568.916 83.584C569.956 84.624 571.828 86.392 587.948 86.392C592.628 86.392 598.556 86.184 606.044 85.872C608.748 85.664 610.828 83.376 610.724 80.776C610.62 78.072 608.228 75.888 605.628 76.096C598.66 76.408 590.964 76.616 584.932 76.512C587.844 74.848 590.86 73.184 593.148 71.936C605.212 65.28 606.668 64.448 606.044 60.496C605.42 56.96 603.652 56.44 591.692 52.696C589.82 52.072 587.428 51.344 585.244 50.616C590.444 46.56 598.452 41.256 602.612 39.8C603.236 41.048 603.86 42.92 604.38 44.584ZM647.802 53.528C648.218 53.736 648.738 53.84 649.258 53.84C651.338 53.84 653.21 52.488 653.938 50.512L662.362 24.928C663.194 22.432 661.842 19.624 659.242 18.792C656.746 17.96 653.938 19.312 653.106 21.912L650.922 28.36C650.506 28.256 649.986 28.256 649.466 28.36C640.21 29.608 627.522 41.256 620.138 51.552C615.354 58.104 610.05 67.88 611.714 76.824C612.442 80.776 614.626 83.792 618.162 85.56C620.554 86.808 623.466 87.224 626.586 87.224C638.338 87.224 653.314 80.36 656.85 78.592C659.242 77.448 660.282 74.536 659.138 72.144C657.89 69.648 654.978 68.608 652.586 69.856C643.538 74.224 627.73 79.424 622.53 76.824C621.906 76.512 621.49 76.096 621.282 75.056C620.554 70.792 622.946 64.344 628.042 57.272C633.866 49.056 641.874 42.192 647.282 39.384L644.682 47.392C643.85 49.992 645.202 52.696 647.802 53.528ZM702.666 32.208C698.402 29.192 692.578 28.776 686.65 31.064C681.45 33.248 676.458 37.304 672.61 42.608C668.762 47.912 666.474 53.944 666.162 59.56C665.746 65.904 667.93 71.312 672.09 74.328C674.586 76.096 677.498 76.928 680.618 76.928C683.01 76.928 685.506 76.512 688.106 75.472C693.306 73.392 698.298 69.232 702.146 63.928C710.674 52.176 710.882 38.24 702.666 32.208ZM694.242 58.208C691.538 62.056 687.898 64.968 684.466 66.424C681.762 67.464 679.37 67.464 677.914 66.424C676.458 65.384 675.73 63.096 675.834 60.184C676.146 56.44 677.81 52.072 680.514 48.328C683.322 44.584 686.858 41.568 690.29 40.216C691.746 39.592 692.994 39.384 694.138 39.384C695.282 39.384 696.218 39.592 696.946 40.112C700.17 42.504 699.65 50.72 694.242 58.208ZM694.242 81.608C685.922 79.424 663.562 79.736 661.066 79.84C658.362 79.84 656.178 82.024 656.178 84.728C656.282 87.432 658.57 89.72 661.17 89.616C667.618 89.512 685.818 89.512 691.746 91.072C692.162 91.176 692.578 91.28 692.994 91.28C695.178 91.28 697.154 89.824 697.778 87.536C698.402 84.936 696.842 82.232 694.242 81.608ZM727.535 68.088C728.055 68.192 728.575 68.4 729.095 68.4C729.199 68.4 729.303 68.4 729.407 68.4C731.487 68.4 733.359 67.568 734.815 66.216C746.567 54.464 754.575 28.568 750.207 22.536C749.375 21.288 747.711 20.456 746.255 20.352C744.487 20.144 741.887 20.04 727.639 33.976L729.199 28.672C729.927 26.072 728.471 23.368 725.975 22.64C723.375 21.808 720.567 23.264 719.839 25.864L712.871 49.264C712.455 49.888 712.247 50.616 712.247 51.344L701.639 86.496C700.911 89.096 702.367 91.8 704.967 92.528C705.383 92.736 705.903 92.736 706.319 92.736C708.503 92.736 710.375 91.384 710.999 89.304L716.719 70.48L728.263 84C729.199 85.04 730.551 85.664 732.007 85.664C733.151 85.664 734.191 85.248 735.127 84.52C737.207 82.752 737.415 79.632 735.647 77.552L727.535 68.088ZM740.327 35.432C738.455 42.4 734.711 51.864 728.783 58.312C727.327 57.584 724.727 55.504 722.439 53.112C728.575 46.768 735.335 40.112 740.327 35.432ZM799.491 3.296C796.891 2.464 794.187 3.816 793.251 6.312L781.291 41.568C779.731 35.016 777.443 28.464 774.011 25.864C772.451 24.72 770.579 24.2 768.707 24.512C760.387 25.76 743.851 63.824 741.667 72.456C740.939 75.056 739.379 81.088 743.435 84.104C744.163 84.728 745.411 85.664 747.699 85.664C751.755 85.664 759.035 82.44 772.347 67.88L768.499 79.216C767.563 81.712 768.915 84.52 771.515 85.352C772.035 85.56 772.555 85.664 773.075 85.664C775.155 85.664 777.027 84.416 777.755 82.336L802.507 9.536C803.443 6.93599 801.987 4.128 799.491 3.296ZM751.235 74.12C753.939 64.656 764.027 44.168 769.539 36.368C770.787 39.8 772.243 45.728 773.179 51.864C765.171 61.64 756.331 70.48 751.235 74.12ZM833.471 67.048C832.431 61.536 825.567 59.976 815.271 57.48C810.383 56.336 805.287 55.192 801.439 53.632C801.335 53.632 801.231 53.528 801.127 53.528C803.935 50.408 813.191 45.416 819.535 42.192L818.911 48.224C818.703 50.928 820.679 53.32 823.279 53.632C823.487 53.632 823.695 53.632 823.799 53.632C826.295 53.632 828.375 51.76 828.687 49.264L830.559 29.816C830.871 27.112 828.895 24.72 826.191 24.408C823.591 24.2 821.095 26.176 820.887 28.88L820.679 30.96C820.159 31.064 819.639 31.168 819.223 31.376C801.751 40.112 790.311 46.456 790.623 54.464C790.727 56.96 792.079 60.496 797.799 62.68C802.375 64.552 808.095 65.904 813.087 67.048C815.167 67.568 817.871 68.192 820.159 68.816C812.151 72.768 798.943 76.408 793.743 77.552C791.143 78.176 789.479 80.776 790.103 83.48C790.623 85.664 792.703 87.224 794.887 87.224C795.199 87.224 795.615 87.224 796.031 87.12C796.967 86.912 819.431 81.608 829.311 74.848C833.367 72.144 833.783 69.128 833.471 67.048Z" fill="white"/>
</svg>
