<svg width="794" height="177" viewBox="0 0 794 177" fill="none" xmlns="http://www.w3.org/2000/svg">
<path d="M41.8043 77.348C39.1728 77.0229 36.823 79.0755 36.498 81.707L34.6962 102.282L23.3003 104.697L28.0602 84.631C28.7041 82.08 27.1469 79.3804 24.4922 78.7442C21.8375 78.108 19.2493 79.7612 18.6131 82.416L6.84733 131.58C6.21113 134.235 7.86433 136.823 10.4153 137.467C10.9494 137.635 11.4679 137.597 11.9865 137.558C14.0607 137.403 15.8346 136.019 16.3021 133.899L20.7555 115.316L33.7876 112.466L30.9549 144.381C30.7335 147.005 32.6824 149.363 35.4176 149.68C35.7287 149.657 35.9361 149.641 36.2473 149.618C38.5289 149.448 40.4793 147.634 40.7162 145.217L46.267 82.6466C46.4806 79.9191 44.5317 77.5616 41.8043 77.348ZM86.0169 87.6061C81.5402 84.9158 75.7014 84.9344 69.9601 87.6572C64.9371 90.2221 60.2608 94.6384 56.8182 100.214C53.3756 105.79 51.5428 111.975 51.6497 117.599C51.7069 123.956 54.2873 129.187 58.6603 131.885C61.2809 133.462 64.2468 134.075 67.3581 133.843C69.7435 133.665 72.2016 133.064 74.717 131.834C79.7478 129.372 84.4163 124.853 87.8589 119.277C95.4887 106.923 94.659 93.0099 86.0169 87.6061ZM79.5512 114.161C77.141 118.199 73.7278 121.374 70.4137 123.082C67.7946 124.32 65.4093 124.498 63.8799 123.569C62.3505 122.641 61.4543 120.413 61.3413 117.501C61.3738 113.745 62.7081 109.265 65.126 105.33C67.6475 101.387 70.9493 98.1166 74.2711 96.5129C75.6767 95.7823 76.9057 95.482 78.0466 95.3969C79.1874 95.3117 80.1363 95.4495 80.901 95.9139C84.294 98.0593 84.3869 106.291 79.5512 114.161ZM81.2926 137.496C72.8332 135.937 50.5584 137.912 48.077 138.202C45.3805 138.403 43.3651 140.744 43.5664 143.44C43.8713 146.129 46.3232 148.24 48.9083 147.943C55.3307 147.359 73.4802 146.005 79.5079 147.12C79.9304 147.192 80.353 147.265 80.7679 147.234C82.9458 147.072 84.808 145.473 85.26 143.144C85.6888 140.505 83.9318 137.925 81.2926 137.496ZM151.946 75.49C149.387 74.7424 146.695 76.4033 146.051 78.9543C145.729 80.2298 140.593 100.845 136.922 115.928C135.482 110.613 134.027 105.09 133.299 102.328C132.833 100.277 132.398 98.6409 132.129 97.8267C131.425 95.3763 129.53 93.7448 127.233 93.7077C122.623 93.426 120.808 95.6472 110.52 122.696C108.413 112.633 105.919 97.384 103.933 83.3489C103.525 80.6679 100.985 78.7717 98.3036 79.1803C95.7263 79.5813 93.8301 82.1214 94.231 84.6987C102.287 140.935 105.341 141.333 109.336 141.765C109.655 141.845 109.966 141.822 110.381 141.791C112.04 141.667 114.052 140.683 115.119 138.205C115.729 136.595 116.772 133.805 118.088 130.474C119.829 125.86 122.871 117.707 125.518 111.252C132.05 135.898 133.538 137.664 138.005 137.435C139.983 137.392 142.491 136.058 143.073 132.677C143.962 127.813 151.673 96.9939 155.514 81.3768C156.15 78.7221 154.6 76.1262 151.946 75.49ZM281.707 40.4639C256.151 40.3896 189.334 53.4063 186.454 53.9341C183.884 54.4388 182.092 56.9712 182.604 59.6445C183.101 62.1103 185.314 63.8223 187.804 63.6366C188.011 63.6211 188.211 63.5019 188.314 63.4942C188.625 63.471 199.215 61.4292 213.522 58.9014L198.45 116.864C197.814 119.519 199.364 122.114 201.922 122.862C202.456 123.031 202.975 122.992 203.493 122.953C205.568 122.799 207.342 121.415 207.921 119.39L224.127 57.0671C244.73 53.6523 268.979 50.1741 281.605 50.2747C284.309 50.1772 286.548 48.0287 286.562 45.4204C286.568 42.7084 284.316 40.4778 281.707 40.4639ZM252.227 75.2022C247.75 72.5119 241.911 72.5305 236.17 75.2533C231.147 77.8182 226.471 82.2345 223.028 87.8102C219.586 93.3858 217.753 99.5714 217.86 105.195C217.917 111.552 220.497 116.783 224.87 119.481C227.491 121.058 230.457 121.671 233.568 121.439C235.953 121.261 238.412 120.66 240.927 119.43C245.958 116.969 250.626 112.449 254.069 106.873C261.699 94.5189 260.869 80.606 252.227 75.2022ZM245.761 101.757C243.351 105.796 239.938 108.97 236.624 110.678C234.005 111.916 231.619 112.094 230.09 111.165C228.561 110.237 227.664 108.009 227.551 105.097C227.584 101.341 228.918 96.8609 231.336 92.9261C233.858 88.9835 237.159 85.7127 240.481 84.109C241.887 83.3784 243.116 83.0781 244.257 82.993C245.397 82.9078 246.346 83.0456 247.111 83.51C250.504 85.6554 250.597 93.8873 245.761 101.757ZM247.503 125.092C239.043 123.533 216.768 125.509 214.287 125.798C211.591 125.999 209.575 128.34 209.776 131.036C210.081 133.725 212.533 135.836 215.118 135.539C221.541 134.956 239.69 133.601 245.718 134.716C246.14 134.788 246.563 134.861 246.978 134.83C249.156 134.668 251.018 133.069 251.47 130.741C251.899 128.101 250.142 125.521 247.503 125.092ZM326.851 76.3077C327.385 76.4764 327.8 76.4455 328.318 76.4068C330.393 76.252 332.159 74.7644 332.73 72.636L338.163 47.6183C338.799 44.9636 337.146 42.3754 334.491 41.7392C331.844 41.2067 329.256 42.8599 328.62 45.5146L326.685 54.5236C325.06 53.7063 323.585 53.5035 322.644 53.4695C310.52 53.1227 294.691 75.7876 291.804 93.0022C289.492 106.732 295.614 111.907 299.406 113.814C302.219 115.169 305.273 115.566 308.488 115.326C312.325 115.04 316.292 113.701 319.487 111.794L318.407 116.881C317.771 119.535 319.424 122.123 322.071 122.656C322.605 122.825 323.02 122.794 323.538 122.755C325.613 122.6 327.482 121.105 327.95 118.984L334.648 88.5534L334.64 88.4497C335.043 86.8553 335.357 85.4761 335.295 84.6464L335.013 82.2688L333.453 80.9252C331.67 79.3896 330.555 78.4299 311.45 82.3586C308.777 82.871 307.096 85.4993 307.712 88.1649C308.225 90.8382 310.853 92.5192 313.415 91.9109C316.806 91.2406 320.613 90.5394 323.701 89.9961C322.105 93.7653 319.638 98.4339 316.751 101.674C314.144 104.475 307.215 106.661 303.757 105.042C300.618 103.503 300.765 98.4865 301.412 94.5795C304.242 77.995 318.427 62.6487 322.215 63.0961C322.223 63.1998 323.114 63.9676 323.473 67.3823C323.496 67.6934 323.52 68.0046 323.647 68.308L323.083 70.5401C322.551 73.1871 324.204 75.7752 326.851 76.3077ZM369.1 78.8907C370.019 81.4293 372.72 82.6877 375.363 81.7605C377.901 80.841 379.152 78.0362 378.233 75.4976C374.532 65.032 371.001 63.8354 368.296 63.933C359.969 64.1373 341.889 80.3999 338.641 84.3967C338.065 85.0654 336.545 87.056 337.042 89.5219C337.863 93.5279 340.828 94.1409 354.843 97.4752C355.266 97.5479 355.689 97.6207 356.223 97.7894C355.624 98.147 355.128 98.4968 354.625 98.7429C337.818 109.696 334.262 112.36 334.579 116.612C334.688 118.064 335.418 119.47 336.637 120.422C337.751 121.381 339.75 123.005 355.825 121.806C360.492 121.457 366.388 120.809 373.832 119.94C376.513 119.532 378.417 117.095 378.12 114.51C377.815 111.821 375.267 109.821 372.69 110.222C365.764 111.052 358.105 111.832 352.082 112.177C354.862 110.301 357.746 108.418 359.935 107.003C371.47 99.4673 372.86 98.5293 371.943 94.6347C371.058 91.1549 369.256 90.768 357.051 87.9244C355.138 87.4415 352.698 86.8935 350.466 86.33C355.35 81.8983 362.941 76.013 366.981 74.2515C367.696 75.4496 368.457 77.27 369.1 78.8907ZM420.707 68.1563C414.526 67.7832 408.591 67.9133 403.39 68.0928L404.73 60.9011C405.263 58.2541 403.506 55.6737 400.859 55.1413C398.116 54.7202 395.639 56.4694 395.107 59.1164L393.33 68.8436C387.626 69.2693 383.915 69.859 383.604 69.8822C380.931 70.3946 379.131 72.8233 379.539 75.5044C379.948 78.1854 382.48 79.9779 385.161 79.5692C385.161 79.5692 387.531 79.1838 391.361 78.7937L385.03 112.743C384.601 115.382 386.254 117.97 388.997 118.391C389.428 118.568 389.842 118.537 390.257 118.506C392.331 118.351 394.194 116.752 394.653 114.528L401.525 78.0352C407.029 77.7287 413.482 77.56 420.182 77.8943C420.389 77.8788 420.597 77.8634 420.804 77.8479C423.293 77.6621 425.236 75.7442 425.361 73.2319C425.471 70.5122 423.426 68.2662 420.707 68.1563ZM511.012 43.8964C487.479 34.598 461.682 45.2834 460.676 45.7756C458.145 46.7988 457.006 49.6996 458.022 52.1268C459.045 54.6577 461.946 55.7969 464.476 54.7738C464.58 54.766 467.51 53.5045 472.012 52.3342L455.385 106.241C454.638 108.8 456.091 111.507 458.658 112.358C459.296 112.519 459.822 112.584 460.444 112.538C462.415 112.391 464.196 111.111 464.775 109.086L469.726 92.969C486.112 84.7588 519.264 66.4328 518.688 53.1267C518.614 50.7336 517.459 46.4396 511.012 43.8964ZM473.848 79.7296L482.832 50.5881C482.824 50.4844 482.92 50.373 482.92 50.373C490.364 49.5046 499.249 49.7801 507.521 53.0215C508.278 53.3821 508.716 53.6623 508.828 53.7583C508.116 58.1916 492.887 69.3398 473.848 79.7296ZM548.396 86.2637C547.58 83.7174 544.864 82.2515 542.317 83.0672C535.684 85.0223 528.03 87.2622 523.225 88.5593C524.688 80.2113 529.234 62.8729 533.647 47.9431C534.499 45.3766 533.037 42.5655 530.375 41.8256C527.816 41.078 525.109 42.5315 524.361 45.0902C510.504 91.3859 512.753 94.9724 513.938 96.8655C514.764 98.1596 516.182 98.9924 517.665 99.2989C517.872 99.2834 518.295 99.3562 519.021 99.302C521.199 99.1395 526.953 97.98 545.2 92.3425C547.754 91.6304 549.212 88.8101 548.396 86.2637ZM592.064 50.1537C589.41 49.5175 586.814 51.067 586.074 53.7295L584.552 59.8918C582.501 53.3704 579.732 47.0068 576.116 44.6694C574.475 43.6447 572.57 43.2655 570.726 43.7159C562.522 45.5796 548.865 84.7687 547.329 93.5393C546.797 96.1863 545.69 102.318 549.959 105.023C550.731 105.592 552.046 106.432 554.327 106.262C558.372 105.96 565.392 102.203 577.583 86.6928L574.59 98.2837C573.842 100.842 575.399 103.542 578.054 104.178C578.588 104.347 579.114 104.412 579.633 104.373C581.707 104.218 583.481 102.835 584.052 100.706L595.536 56.152C596.284 53.5933 594.727 50.8937 592.064 50.1537ZM556.994 94.4866C558.987 84.8476 567.522 63.6657 572.438 55.4771C573.938 58.8067 575.831 64.6099 577.221 70.6592C569.963 81.0041 561.805 90.4775 556.994 94.4866ZM648.569 46.8756C648.553 46.6681 648.545 46.5644 648.426 46.3647C648.418 46.261 648.403 46.0536 648.291 45.9576C648.276 45.7502 648.165 45.6542 648.157 45.5505C648.038 45.3509 647.926 45.2549 647.918 45.1512C647.799 44.9515 647.688 44.8555 647.576 44.7595C647.457 44.5599 647.449 44.4561 647.338 44.3602C647.226 44.2642 647.115 44.1682 647.004 44.0723C646.788 43.984 646.669 43.7843 646.558 43.6884C646.454 43.6961 646.454 43.6961 646.343 43.6001C646.343 43.6001 646.231 43.5042 646.127 43.5119C646.016 43.4159 645.905 43.32 645.689 43.2317C645.586 43.2395 645.37 43.1512 645.259 43.0553C645.155 43.063 645.052 43.0707 644.94 42.9748L644.836 42.9825C644.621 42.8943 644.414 42.9098 644.31 42.9175C644.103 42.933 643.991 42.837 643.784 42.8525C643.68 42.8602 643.473 42.8757 643.369 42.8835C643.162 42.8989 643.058 42.9067 642.85 42.9222C642.754 43.0336 642.547 43.0491 642.443 43.0568C642.236 43.0723 642.14 43.1838 641.933 43.1992C641.837 43.3107 641.733 43.3184 641.533 43.4376C641.429 43.4453 641.333 43.5568 641.134 43.676C641.03 43.6837 640.934 43.7952 640.734 43.9144C640.638 44.0258 640.542 44.1373 640.447 44.2487C640.247 44.3679 640.151 44.4794 640.055 44.5908C639.959 44.7023 639.863 44.8137 639.767 44.9252C639.775 45.0289 639.671 45.0366 639.679 45.1403C626.43 66.0483 609.403 89.4283 602.219 95.1789C601.174 88.1652 606.637 67.734 615.184 48.1155C616.251 45.6373 615.093 42.6993 612.615 41.6327C610.136 40.5662 607.302 41.7163 606.236 44.1946C599.733 59.0718 585.82 94.8384 596.566 104.674L597.45 105.338C598.318 105.795 599.409 106.443 601.069 106.319C605.425 105.994 613.677 100.581 631.866 74.6115L620.172 120.537L609.472 118.311L614.517 113.242C616.348 111.228 616.331 108.205 614.413 106.262C612.503 104.423 609.376 104.448 607.434 106.366L597.655 116.482C596.304 117.938 595.733 120.067 596.303 122.11C596.761 124.057 598.233 125.616 600.162 126.306L620.827 130.709C621.457 130.766 621.983 130.831 622.605 130.784C625.509 130.568 628.066 128.5 628.983 125.407L648.516 48.9653C648.508 48.8616 648.508 48.8616 648.604 48.7501C648.589 48.5427 648.581 48.439 648.669 48.2238C648.661 48.1201 648.646 47.9127 648.638 47.809C648.623 47.6015 648.615 47.4978 648.599 47.2904C648.592 47.1867 648.576 46.9793 648.569 46.8756ZM680.097 55.6816C681.016 58.2202 683.718 59.4787 686.36 58.5515C688.898 57.632 690.149 54.8271 689.23 52.2885C685.529 41.823 681.998 40.6264 679.294 40.7239C670.966 40.9283 652.886 57.1909 649.638 61.1876C649.062 61.8564 647.542 63.847 648.039 66.3129C648.86 70.3189 651.825 70.9319 665.84 74.2661C666.263 74.3389 666.686 74.4116 667.22 74.5804C666.621 74.9379 666.125 75.2878 665.622 75.5339C648.815 86.4871 645.259 89.1511 645.576 93.4033C645.685 94.8552 646.415 96.2608 647.634 97.2127C648.748 98.1724 650.747 99.7962 666.822 98.5966C671.489 98.2483 677.385 97.5997 684.829 96.7313C687.51 96.3226 689.414 93.8862 689.117 91.3011C688.812 88.6124 686.264 86.6124 683.687 87.0134C676.761 87.8431 669.102 88.6232 663.079 88.9684C665.859 87.0923 668.743 85.2085 670.932 83.7937C682.467 76.2583 683.857 75.3203 682.94 71.4257C682.055 67.9459 680.253 67.5589 668.048 64.7154C666.135 64.2324 663.695 63.6845 661.463 63.121C666.347 58.6893 673.938 52.804 677.978 51.0425C678.693 52.2406 679.455 54.0609 680.097 55.6816ZM712.288 76.8486C712.814 76.9136 713.348 77.0824 713.867 77.0437C713.97 77.0359 714.074 77.0282 714.178 77.0205C716.252 76.8657 718.057 75.8967 719.408 74.44C730.253 61.846 736.312 35.4259 731.507 29.7357C730.584 28.5531 728.863 27.8472 727.403 27.8519C725.625 27.776 723.024 27.8658 709.853 42.8235L711.014 37.4181C711.546 34.7711 709.893 32.183 707.35 31.6428C704.695 31.0066 702.003 32.6675 701.471 35.3145L696.264 59.1681C695.895 59.8214 695.742 60.5628 695.796 61.2888L687.834 97.1328C687.301 99.7798 688.954 102.368 691.601 102.9C692.032 103.077 692.55 103.038 692.965 103.007C695.143 102.845 696.909 101.357 697.377 99.2364L701.68 80.0389L714.198 92.6623C715.209 93.6298 716.604 94.1514 718.055 94.0431C719.196 93.9579 720.202 93.4657 721.082 92.6701C723.024 90.7522 723 87.6253 721.082 85.6827L712.288 76.8486ZM722.614 43.3312C721.266 50.4192 718.237 60.1356 712.805 67.0069C711.299 66.3892 708.551 64.5085 706.091 62.2934C711.738 55.5104 717.984 48.3697 722.614 43.3312ZM742.096 61.1708C741.888 61.1863 741.577 61.2095 741.37 61.225C745.803 54.9497 761.714 41.769 772.443 34.6067C771.247 38.1375 769.401 42.7597 767.318 46.9824C766.14 49.3647 767.194 52.3104 769.576 53.4884C772.062 54.6586 775.016 53.7082 776.186 51.2222C787.037 28.9289 783.002 25.1627 781.314 23.5157C779.969 22.2604 776.926 20.6103 771.926 23.4863C771.423 23.7325 726.61 52.1061 730.839 65.4524C732.09 69.6349 736.082 71.4228 742.927 70.912C752.461 70.0962 759.049 70.3346 763.252 70.751C755.068 74.2818 741.61 78.4148 735.636 78.0263C733.02 77.9086 730.671 79.9612 730.457 82.6887C730.339 85.3047 732.392 87.6544 735.112 87.7643C736.061 87.9021 737.201 87.817 738.446 87.7241C749.854 86.8727 768.727 79.8327 774.287 76.0805C779.056 72.9088 778.132 68.9105 777.632 67.8006C775.5 61.598 763.549 59.3613 742.096 61.1708Z" fill="white"/>
</svg>
