<svg width="583" height="330" viewBox="0 0 583 330" fill="none" xmlns="http://www.w3.org/2000/svg">
<path d="M42.3716 79.0572L23.6085 83.1274C20.9555 83.6902 19.2092 86.3356 19.8751 88.9749C20.4105 91.4216 22.7329 93.106 25.2071 92.7768C25.4133 92.7494 25.5164 92.7357 25.6195 92.722L28.0662 92.1866L19.305 137.522L14.0473 138.222C11.367 138.578 9.4901 141.031 9.84673 143.712C10.2034 146.392 12.6563 148.269 15.3367 147.912L35.3365 145.251C38.0168 144.895 39.88 142.339 39.5371 139.761C39.1804 137.081 36.7275 135.204 34.0471 135.561L29.5111 136.164L38.4718 89.9628L44.4857 88.638C47.1386 88.0752 48.7819 85.4435 48.219 82.7905C47.6699 80.2407 45.0245 78.4943 42.3716 79.0572ZM87.6851 76.3854C87.3285 73.705 84.8892 71.9313 82.2088 72.2879L82.1057 72.3016C79.4254 72.6582 77.6516 75.0975 78.0082 77.7779C78.0494 78.0871 81.4789 102.286 83.9616 120.946C80.3556 113.557 75.4722 102.876 68.6521 87.1013C67.6287 84.9293 64.6342 78.1934 58.6686 79.092C55.4865 79.6203 47.0741 81.0544 42.8662 137.745C42.7074 140.494 44.6998 142.851 47.4488 143.01C50.0946 143.183 52.4524 141.19 52.625 138.544C54.0045 120.525 56.9104 99.7847 59.9022 91.5179C81.7291 142.016 86.1745 146.251 90.195 145.716C90.7105 145.647 91.1229 145.593 91.5215 145.435C94.7656 144.583 96.1752 141.773 95.6473 137.017C94.3319 122.399 87.932 78.2411 87.6851 76.3854ZM107.43 113.627C107.224 113.654 106.915 113.695 106.708 113.723C110.772 107.202 125.895 93.1241 136.192 85.3541C135.202 88.9482 133.627 93.6692 131.791 98.0052C130.752 100.452 131.975 103.331 134.421 104.37C136.97 105.395 139.864 104.275 140.889 101.726C150.434 78.8429 146.188 75.3161 144.408 73.7693C142.993 72.5937 139.859 71.1222 135.034 74.2822C134.546 74.5569 91.4468 105.471 96.4396 118.551C97.9298 122.654 102.018 124.209 108.823 123.303C118.293 121.938 124.884 121.796 129.104 121.969C121.137 125.967 107.941 130.87 101.955 130.827C99.3364 130.861 97.1091 133.045 97.0533 135.781C97.087 138.399 99.2718 140.626 101.993 140.579C102.949 140.662 104.083 140.511 105.32 140.346C116.66 138.837 135.094 130.719 140.428 126.652C145.006 123.21 143.853 119.272 143.29 118.193C140.803 112.124 128.743 110.581 107.43 113.627ZM199.772 66.6129C175.741 58.6892 150.605 70.8466 149.629 71.3961C147.161 72.5637 146.191 75.5255 147.345 77.89C148.513 80.3575 151.475 81.3274 153.942 80.1597C154.045 80.146 156.898 78.7173 161.324 77.2891L147.839 132.066C147.24 134.664 148.848 137.283 151.459 137.984C152.105 138.108 152.634 138.143 153.253 138.06C155.211 137.8 156.916 136.419 157.377 134.364L161.388 117.988C177.273 108.845 209.312 88.6351 207.968 75.3845C207.756 72.9997 206.355 68.7796 199.772 66.6129ZM164.739 104.533L172.025 74.921C172.011 74.8179 172.101 74.7011 172.101 74.7011C179.482 73.4042 188.368 73.1662 196.814 75.9244C197.59 76.2407 198.044 76.4951 198.161 76.5845C197.706 81.0515 183.147 93.0606 164.739 104.533ZM230.642 54.0073L211.879 58.0775C209.226 58.6403 207.48 61.2857 208.146 63.925C208.681 66.3717 211.004 68.0561 213.478 67.7269C213.684 67.6995 213.787 67.6858 213.89 67.6721L216.337 67.1367L207.576 112.472L202.318 113.172C199.638 113.528 197.761 115.981 198.118 118.662C198.474 121.342 200.927 123.219 203.608 122.862L223.607 120.201C226.288 119.845 228.151 117.289 227.808 114.711C227.451 112.031 224.998 110.154 222.318 110.511L217.782 111.114L226.743 64.9129L232.756 63.5881C235.409 63.0253 237.053 60.3936 236.49 57.7407C235.941 55.1908 233.295 53.4445 230.642 54.0073ZM291.414 55.364C291.201 52.9792 289.801 48.759 283.32 46.5787C259.186 38.6686 234.153 50.8123 233.06 51.2725C230.71 52.5295 229.623 55.4019 230.894 57.8557C232.061 60.3233 235.023 61.2931 237.388 60.1392C237.477 60.0224 240.446 58.6831 245.168 57.1106L239.249 89.8977C238.953 90.0419 238.568 90.303 238.273 90.4472C235.936 91.8073 235.069 94.7554 236.429 97.0924C236.718 97.6836 237.199 98.1441 237.666 98.5017L235.229 111.731C234.747 114.418 236.561 117.009 239.234 117.388C239.777 117.525 240.203 117.574 240.719 117.505C242.781 117.231 244.561 115.63 244.905 113.486L247.762 97.8928L271.003 126.695C272.137 128.118 273.793 128.737 275.443 128.517C276.267 128.408 277.168 128.078 277.821 127.467C280.014 125.811 280.337 122.725 278.592 120.649L255.323 91.6409C271.689 81.3847 292.531 66.1266 291.414 55.364ZM250.419 83.1657L255.533 54.5775C263.031 53.37 271.814 53.1456 280.26 55.9038C281.022 56.1171 281.476 56.3715 281.71 56.5502C281.227 60.8111 267.823 72.0371 250.419 83.1657ZM339.72 93.6311C327.535 95.8819 313.555 98.0567 304.339 98.9682C309.137 95.602 315.131 91.7619 318.403 89.543C328.542 82.9481 329.415 82.4123 328.976 79.1134C328.55 75.9176 327.334 75.4499 318.119 71.64C314.69 70.3126 308.698 67.8575 304.658 65.8771C310.576 62.2569 321.601 56.8032 326.55 54.571C328.178 56.5576 330.672 60.3175 332.725 63.9262C334.086 66.2632 337.137 67.1162 339.474 65.7561C341.811 64.396 342.574 61.4617 341.201 59.0215C332.202 43.4322 329.109 43.8437 326.635 44.1729C324.161 44.5021 309.438 52.1265 309.232 52.154C293.237 60.4722 291.594 63.1039 291.854 66.6364C292.148 71.2136 296.642 73.4484 314.179 80.6625C313.897 80.9098 313.512 81.1709 313.113 81.3288C290.911 95.8237 286.876 99.4032 287.507 104.145C287.699 105.589 288.51 106.95 289.781 107.83C290.949 108.723 293.388 110.497 313.697 107.795C320.707 106.862 329.752 105.449 341.525 103.253C344.178 102.69 345.938 100.148 345.478 97.4813C345.019 94.8147 342.373 93.0683 339.72 93.6311ZM400.87 43.948C396.674 33.6999 379.424 33.3722 345.224 42.8537C342.598 43.6227 341.072 46.3438 341.724 48.8799C342.493 51.5054 345.214 53.0319 347.853 52.366C351.482 51.2536 354.83 50.3886 357.881 49.6678C345.36 97.4971 347.696 99.2846 350.28 101.354C351.448 102.248 352.857 102.585 354.197 102.406C354.815 102.324 355.523 102.125 356.101 101.734C356.692 101.445 408.72 62.7328 400.87 43.948ZM359.08 87.0684C361.042 77.3649 364.853 61.8547 368.699 47.3891C389.696 43.5463 391.818 47.6704 391.818 47.6704C394.627 53.8015 372.368 75.753 359.08 87.0684ZM502.183 22.3895C501.95 20.637 500.92 19.2003 499.442 18.3477C498.054 17.3783 494.632 15.3156 467.195 23.5826L468.021 18.7514C468.4 16.0781 466.6 13.5898 463.926 13.211C461.343 12.7155 458.751 14.5291 458.372 17.2024L456.823 26.851C450.789 28.808 443.854 31.0946 435.84 33.9445C433.331 34.8029 432.024 37.5997 432.883 40.1084C433.755 42.7202 436.552 44.0267 439.163 43.1546C444.27 41.3211 449.686 39.4464 455.027 37.7916L448.177 80.145C444.466 80.6388 441.167 81.0777 438.459 81.2281C435.751 81.3786 433.757 83.7422 433.908 86.45C434.161 89.1441 436.422 91.1515 439.13 91.001C440.161 90.8639 443.061 90.5829 447.081 90.048C460.38 88.2785 485.514 83.9901 490.663 77.7444C491.942 76.3153 492.444 74.5698 492.211 72.8173C491.457 67.1473 477.857 61.9273 466.972 58.9691C470.485 56.1935 475.008 52.3393 481.016 47.0285C502.883 27.6472 502.499 24.7606 502.183 22.3895ZM478.968 73.4253C474.156 75.1146 466.328 76.9955 458.445 78.464L460.2 67.2142C465.732 68.5765 473.855 71.2728 478.968 73.4253ZM463.002 49.6351L465.488 34.4063C473.646 31.852 481.138 29.806 486.622 28.4468C480.312 34.6372 470.578 43.4863 463.002 49.6351ZM548.425 24.4205C545.889 23.4988 543.099 24.6045 541.957 27.0646C535.837 39.4197 523.357 61.5388 513.761 69.8451C513.365 62.134 516.916 43.0912 521.278 26.9833C521.98 24.3719 520.372 21.753 517.761 21.0513C515.149 20.3496 512.517 21.854 511.815 24.4653C498.709 73.4215 505.766 78.3579 508.075 79.9392C509.696 81.0874 513.022 82.4284 517.731 79.179C522.9 75.4487 528.496 68.619 533.584 61.1225L530.44 72.9767C501.589 98.2183 500.874 99.1528 500.62 99.6063C499.086 101.489 498.9 104.032 500.013 106.087C501.531 108.823 505.001 110.459 507.736 110.515L522.656 113.041L523.714 113.11C523.921 113.083 524.14 113.159 524.347 113.131C527.852 112.665 530.76 110.075 531.661 106.597L539.476 77.0202C539.462 76.9171 539.462 76.9171 539.552 76.8003L551.674 30.7028C552.376 28.0915 550.961 25.3421 548.425 24.4205ZM522.487 103.097L512.838 101.548C516.31 98.4629 521.101 94.2583 525.982 89.9368L522.487 103.097ZM200.499 218.782C200.286 216.398 198.886 212.177 192.405 209.997C168.271 202.087 143.238 214.231 142.145 214.691C139.795 215.948 138.708 218.82 139.979 221.274C141.146 223.742 144.108 224.711 146.473 223.558C146.562 223.441 149.531 222.101 154.253 220.529L148.334 253.316C148.038 253.46 147.653 253.721 147.358 253.866C145.021 255.226 144.154 258.174 145.514 260.511C145.803 261.102 146.284 261.563 146.751 261.92L144.314 275.149C143.832 277.836 145.646 280.427 148.319 280.806C148.862 280.944 149.288 280.992 149.804 280.923C151.866 280.649 153.646 279.048 153.99 276.904L156.847 261.311L180.088 290.113C181.222 291.536 182.878 292.155 184.528 291.936C185.352 291.826 186.253 291.496 186.906 290.885C189.099 289.229 189.422 286.144 187.677 284.068L164.408 255.059C180.774 244.803 201.616 229.545 200.499 218.782ZM159.504 246.584L164.618 217.996C172.116 216.788 180.899 216.564 189.345 219.322C190.107 219.535 190.561 219.79 190.795 219.969C190.312 224.229 176.908 235.455 159.504 246.584ZM236.924 213.411C223.524 207.325 207.021 214.977 200.034 230.28C193.061 245.686 198.321 263.137 211.721 269.223C215.851 271.087 220.331 271.644 224.764 271.055C234.455 269.765 243.817 262.854 248.61 252.354C255.583 236.948 250.324 219.497 236.924 213.411ZM239.677 248.297C234.987 258.783 224.154 264.106 215.675 260.303C207.195 256.501 204.175 244.837 208.968 234.337C212.289 226.971 218.675 222.134 225.067 221.284C227.747 220.927 230.407 221.203 232.867 222.344C241.346 226.147 244.367 237.811 239.677 248.297ZM225.697 227.6C222.996 227.015 220.391 228.726 219.896 231.31L216.338 247.94C215.739 250.538 217.45 253.143 220.151 253.728C220.694 253.865 221.223 253.9 221.738 253.831C223.8 253.557 225.491 252.073 225.938 249.915L229.407 233.401C229.992 230.701 228.281 228.095 225.697 227.6ZM215.648 208.059L234.926 205.494C237.607 205.137 239.483 202.684 239.127 200.004C238.77 197.323 236.317 195.446 233.637 195.803L214.359 198.368C211.678 198.725 209.801 201.178 210.158 203.858C210.515 206.538 212.968 208.415 215.648 208.059ZM296.675 209.238C294.139 208.317 291.349 209.422 290.207 211.882C284.087 224.237 271.608 246.357 262.011 254.663C261.615 246.952 265.166 227.909 269.528 211.801C270.23 209.19 268.622 206.571 266.011 205.869C263.4 205.167 260.767 206.672 260.065 209.283C246.96 258.239 254.016 263.176 256.325 264.757C257.947 265.905 261.273 267.246 265.981 263.997C271.15 260.266 276.746 253.437 281.834 245.94L278.69 257.794C249.839 283.036 249.124 283.971 248.87 284.424C247.337 286.307 247.15 288.85 248.263 290.905C249.781 293.64 253.251 295.277 255.987 295.333L270.906 297.859L271.965 297.928C272.171 297.901 272.391 297.976 272.597 297.949C276.102 297.483 279.01 294.892 279.911 291.415L287.726 261.838C287.713 261.735 287.713 261.735 287.802 261.618L299.924 215.521C300.626 212.909 299.211 210.16 296.675 209.238ZM270.737 287.915L261.089 286.366C264.56 283.281 269.351 279.076 274.232 274.755L270.737 287.915ZM351.052 223.196C349.08 223.354 347.21 223.498 345.341 223.642C343.832 212.301 342.453 204.302 341.292 201.099C340.619 199.195 338.511 193.6 333.302 193.873C326.841 194.208 324.956 202.118 320.154 221.222C319.603 223.394 319.067 225.669 318.441 228.06C306.825 230.655 300.577 233.374 300.076 233.546C297.594 234.611 296.508 237.483 297.572 239.964C298.479 242.047 300.616 243.127 302.678 242.852C303.09 242.797 303.606 242.729 303.991 242.468C304.094 242.454 308.066 240.771 315.572 238.828C313.26 246.69 310.715 254.373 307.628 260.344C306.473 262.701 307.386 265.622 309.86 266.867C312.231 268.125 315.152 267.212 316.396 264.738C320.474 256.746 323.707 246.349 326.362 236.344C329.634 235.698 333.125 235.129 336.926 234.518C337.447 238.436 337.968 242.353 338.448 245.962C339.004 250.924 339.621 255.563 340.156 259.583C340.513 262.264 342.966 264.141 345.646 263.784C348.326 263.427 350.203 260.974 349.847 258.294C349.312 254.273 348.694 249.634 348.139 244.672C347.618 240.755 347.11 236.94 346.644 233.435C348.293 233.216 350.06 233.086 351.826 232.956C354.417 232.716 356.514 230.338 356.26 227.644C356.007 224.95 353.746 222.943 351.052 223.196ZM329.066 225.912C329.279 225.149 329.479 224.283 329.706 223.623C330.869 218.957 332.169 213.748 333.311 209.715C334.025 213.501 334.855 218.952 335.637 224.828C333.382 225.233 331.217 225.521 329.066 225.912ZM390.608 237.972C389.647 235.477 386.85 234.171 384.355 235.132C377.846 237.467 370.334 240.145 365.612 241.718C366.59 233.299 370.128 215.727 373.671 200.568C374.373 197.956 372.752 195.234 370.051 194.649C367.453 194.051 364.834 195.658 364.236 198.256C353.076 245.274 355.528 248.725 356.82 250.547C357.72 251.791 359.183 252.54 360.681 252.761C360.888 252.733 361.314 252.781 362.035 252.685C364.2 252.397 369.877 250.908 387.768 244.226C390.277 243.367 391.57 240.467 390.608 237.972ZM471.937 161.054C446.419 162.456 380.466 179.31 377.62 180.003C375.084 180.655 373.441 183.287 374.107 185.926C374.745 188.359 377.054 189.941 379.528 189.611C379.734 189.584 379.927 189.453 380.03 189.44C380.339 189.398 390.793 186.749 404.931 183.399L393.231 242.135C392.749 244.822 394.446 247.324 397.044 247.923C397.587 248.06 398.102 247.992 398.618 247.923C400.679 247.649 402.37 246.165 402.831 244.11L415.412 180.955C435.783 176.356 459.79 171.483 472.402 170.854C475.096 170.601 477.206 168.327 477.069 165.722C476.919 163.014 474.542 160.917 471.937 161.054ZM456.254 188.006C453.718 187.084 450.927 188.19 449.786 190.65C443.666 203.005 431.186 225.124 421.59 233.431C421.193 225.72 424.745 206.677 429.106 190.569C429.808 187.957 428.201 185.339 425.589 184.637C422.978 183.935 420.345 185.439 419.644 188.051C406.538 237.007 413.595 241.943 415.903 243.525C417.525 244.673 420.851 246.014 425.559 242.765C430.729 239.034 436.325 232.204 441.412 224.708L438.268 236.562C409.418 261.804 408.703 262.738 408.448 263.192C406.915 265.074 406.729 267.617 407.842 269.672C409.36 272.408 412.83 274.045 415.565 274.1L430.485 276.627L431.543 276.696C431.749 276.668 431.969 276.744 432.175 276.717C435.68 276.25 438.588 273.66 439.489 270.183L447.305 240.606C447.291 240.503 447.291 240.503 447.38 240.386L459.502 194.288C460.204 191.677 458.789 188.928 456.254 188.006ZM430.316 266.682L420.667 265.133C424.138 262.048 428.93 257.844 433.81 253.522L430.316 266.682Z" fill="white"/>
<path d="M113.002 146.265C111.1 145.995 109.33 147.276 108.987 149.188L107.983 155.667C106.794 155.153 105.738 155.07 105.068 155.084C96.3687 155.346 86.1292 172.087 84.7859 184.434C83.7074 194.282 88.2689 197.706 91.0412 198.905C93.0948 199.752 95.2806 199.909 97.5546 199.606C101.736 199.05 105.986 196.767 108.221 193.932C111.44 190.069 113.481 184.647 114.161 182.466C114.817 180.662 113.81 178.706 112.006 178.05C110.138 177.477 108.172 178.411 107.599 180.279C106.63 183.095 104.844 187.065 102.863 189.568C101.127 191.666 96.2946 193.503 93.7716 192.495C91.4785 191.531 91.3768 187.961 91.6758 185.159C93.0043 173.262 102.45 161.778 105.159 161.94C105.169 162.013 105.834 162.522 106.229 164.933C106.259 165.153 106.288 165.373 106.391 165.584L106.155 167.183C105.813 169.094 107.093 170.865 108.995 171.134C109.382 171.232 109.675 171.193 110.042 171.145C111.509 170.949 112.702 169.82 113.021 168.285L115.852 150.29C116.195 148.378 114.914 146.608 113.002 146.265ZM136.943 152.934C135.06 152.811 133.475 154.365 133.352 156.248L132.918 170.938L124.922 173.121L127.479 158.672C127.831 156.833 126.614 154.98 124.702 154.637C122.79 154.294 121.02 155.575 120.677 157.487L114.339 192.894C113.997 194.806 115.277 196.576 117.116 196.929C117.502 197.027 117.869 196.978 118.236 196.929C119.703 196.734 120.906 195.678 121.151 194.152L123.551 180.769L132.691 178.209L131.99 200.997C131.941 202.869 133.422 204.464 135.378 204.577C135.598 204.548 135.745 204.528 135.965 204.499C137.579 204.284 138.89 202.915 138.959 201.189L140.33 156.514C140.37 154.568 138.889 152.973 136.943 152.934ZM163.63 144.456L150.279 147.352C148.392 147.752 147.149 149.635 147.623 151.512C148.004 153.253 149.656 154.452 151.417 154.218C151.564 154.198 151.637 154.188 151.71 154.179L153.451 153.798L147.217 186.056L143.476 186.553C141.569 186.807 140.234 188.553 140.487 190.46C140.741 192.367 142.487 193.702 144.394 193.449L158.624 191.555C160.531 191.302 161.857 189.483 161.613 187.649C161.359 185.742 159.614 184.406 157.707 184.66L154.479 185.09L160.855 152.215L165.134 151.273C167.022 150.872 168.191 149 167.791 147.112C167.4 145.298 165.518 144.055 163.63 144.456ZM190.622 135.937C188.72 135.668 186.95 136.948 186.607 138.86L185.603 145.339C184.414 144.826 183.358 144.742 182.688 144.757C173.989 145.018 163.749 161.759 162.406 174.106C161.328 183.954 165.889 187.379 168.661 188.578C170.715 189.424 172.901 189.581 175.175 189.279C179.356 188.722 183.606 186.44 185.841 183.604C189.06 179.742 191.101 174.319 191.781 172.139C192.437 170.334 191.43 168.378 189.626 167.722C187.758 167.15 185.792 168.083 185.219 169.951C184.25 172.767 182.464 176.738 180.483 179.241C178.747 181.338 173.915 183.175 171.392 182.167C169.099 181.203 168.997 177.634 169.296 174.832C170.624 162.935 180.07 151.45 182.779 151.613C182.789 151.686 183.454 152.195 183.849 154.606C183.879 154.826 183.908 155.046 184.011 155.256L183.775 156.855C183.433 158.767 184.713 160.537 186.615 160.807C187.002 160.905 187.295 160.866 187.662 160.817C189.129 160.622 190.323 159.493 190.641 157.957L193.472 139.963C193.815 138.051 192.534 136.28 190.622 135.937ZM229.822 159.761C228.419 159.873 227.089 159.976 225.759 160.078C224.685 152.009 223.704 146.317 222.878 144.038C222.399 142.683 220.899 138.702 217.192 138.897C212.596 139.135 211.254 144.763 207.837 158.357C207.445 159.902 207.064 161.52 206.618 163.222C198.353 165.068 193.908 167.003 193.551 167.125C191.785 167.883 191.012 169.927 191.77 171.692C192.415 173.174 193.935 173.942 195.402 173.747C195.696 173.708 196.063 173.659 196.336 173.474C196.41 173.464 199.237 172.266 204.577 170.884C202.932 176.478 201.121 181.944 198.925 186.193C198.103 187.87 198.752 189.949 200.513 190.834C202.199 191.73 204.278 191.08 205.163 189.32C208.065 183.633 210.365 176.235 212.255 169.116C214.583 168.657 217.067 168.252 219.771 167.817C220.142 170.605 220.513 173.392 220.854 175.96C221.25 179.49 221.689 182.791 222.069 185.652C222.323 187.559 224.069 188.895 225.976 188.641C227.883 188.387 229.218 186.642 228.965 184.735C228.584 181.874 228.145 178.573 227.75 175.042C227.379 172.255 227.018 169.541 226.686 167.047C227.86 166.89 229.116 166.798 230.373 166.705C232.217 166.535 233.709 164.843 233.528 162.926C233.348 161.009 231.739 159.581 229.822 159.761ZM214.179 161.693C214.33 161.151 214.472 160.535 214.634 160.065C215.461 156.745 216.386 153.039 217.199 150.168C217.707 152.863 218.297 156.741 218.854 160.922C217.25 161.21 215.709 161.415 214.179 161.693ZM257.25 151.409C257.636 151.507 257.93 151.468 258.296 151.419C259.763 151.224 260.957 150.094 261.275 148.559L264.107 130.564C264.449 128.653 263.169 126.882 261.257 126.539C259.355 126.27 257.584 127.55 257.241 129.462L256.237 135.941C255.049 135.428 253.993 135.344 253.323 135.359C244.697 135.611 234.384 152.361 233.04 164.708C231.962 174.556 236.523 177.981 239.296 179.179C241.349 180.026 243.535 180.183 245.809 179.881C248.523 179.519 251.286 178.405 253.477 176.919L252.919 180.577C252.576 182.489 253.857 184.259 255.759 184.529C256.145 184.627 256.439 184.588 256.805 184.539C258.273 184.344 259.539 183.205 259.784 181.679L263.292 159.787L263.282 159.714C263.502 158.565 263.669 157.572 263.591 156.985L263.293 155.308L262.129 154.418C260.799 153.4 259.968 152.764 246.559 156.34C244.681 156.814 243.595 158.75 244.142 160.618C244.616 162.496 246.552 163.582 248.347 163.045C250.728 162.429 253.403 161.775 255.575 161.262C254.596 164.005 253.035 167.423 251.117 169.843C249.381 171.94 244.549 173.777 242.026 172.769C239.733 171.805 239.631 168.236 239.93 165.434C241.259 153.537 250.705 142.052 253.414 142.215C253.423 142.288 254.088 142.797 254.484 145.208C254.513 145.428 254.542 145.648 254.645 145.858L254.336 147.467C254.067 149.369 255.348 151.139 257.25 151.409ZM289.337 142.362C286.046 140.635 281.899 140.888 277.933 143.058C274.47 145.086 271.33 148.416 269.114 152.518C266.897 156.62 265.85 161.089 266.157 165.08C266.459 169.593 268.506 173.203 271.724 174.939C273.65 175.952 275.782 176.266 277.983 175.973C279.67 175.749 281.391 175.221 283.127 174.243C286.6 172.288 289.731 168.886 291.947 164.784C296.859 155.694 295.698 145.845 289.337 142.362ZM285.835 161.491C284.289 164.459 281.995 166.854 279.711 168.203C277.901 169.19 276.214 169.415 275.09 168.818C273.965 168.221 273.237 166.676 273.037 164.612C272.906 161.942 273.669 158.705 275.225 155.811C276.855 152.906 279.066 150.447 281.359 149.172C282.328 148.595 283.188 148.331 283.995 148.224C284.802 148.116 285.482 148.175 286.044 148.474C288.543 149.858 288.947 155.702 285.835 161.491ZM288.031 177.995C281.958 177.236 266.216 179.554 264.465 179.862C262.558 180.116 261.223 181.861 261.477 183.768C261.804 185.666 263.632 187.065 265.456 186.747C269.994 186.069 282.831 184.361 287.159 184.905C287.462 184.939 287.765 184.973 288.059 184.934C289.599 184.729 290.856 183.517 291.081 181.845C291.278 179.952 289.924 178.192 288.031 177.995ZM340.645 125.83C338.762 125.708 337.177 127.262 337.055 129.145L336.62 143.835L328.624 146.018L331.181 131.569C331.534 129.73 330.316 127.877 328.405 127.534C326.493 127.191 324.722 128.472 324.379 130.384L318.042 165.791C317.699 167.703 318.98 169.473 320.818 169.826C321.204 169.924 321.571 169.875 321.938 169.826C323.405 169.631 324.608 168.575 324.853 167.049L327.253 153.666L336.393 151.106L335.693 173.893C335.643 175.766 337.124 177.361 339.08 177.474C339.3 177.445 339.447 177.425 339.667 177.396C341.281 177.181 342.592 175.812 342.661 174.086L344.033 129.411C344.072 127.465 342.591 125.87 340.645 125.83ZM373.737 122.846C364.202 118.516 352.46 123.96 347.489 134.849C342.527 145.811 346.269 158.228 355.804 162.558C358.742 163.884 361.931 164.281 365.085 163.861C371.98 162.944 378.642 158.026 382.052 150.555C387.014 139.593 383.271 127.176 373.737 122.846ZM375.696 147.668C372.359 155.13 364.651 158.917 358.617 156.211C352.584 153.506 350.434 145.207 353.845 137.736C356.208 132.494 360.752 129.053 365.3 128.448C367.207 128.194 369.099 128.39 370.85 129.202C376.883 131.908 379.033 140.207 375.696 147.668ZM365.749 132.942C363.827 132.525 361.973 133.743 361.621 135.581L359.089 147.414C358.663 149.263 359.88 151.116 361.802 151.533C362.188 151.63 362.565 151.655 362.932 151.606C364.399 151.411 365.602 150.355 365.92 148.82L368.388 137.07C368.804 135.148 367.587 133.294 365.749 132.942ZM358.598 119.037L372.315 117.212C374.223 116.958 375.558 115.213 375.304 113.306C375.05 111.399 373.305 110.063 371.398 110.317L357.681 112.142C355.774 112.396 354.438 114.141 354.692 116.048C354.946 117.956 356.691 119.291 358.598 119.037ZM420.991 116.783L419.676 115.315L417.769 115.569C415.349 115.891 414.253 117.754 409.664 125.904C405.128 133.898 397.109 148.253 390.81 152.525C391.843 146.266 398.547 130.444 405.226 117.238C406.121 115.551 405.388 113.409 403.711 112.587C402.024 111.692 399.873 112.351 399.06 114.102C379.465 152.542 383.835 157.335 385.243 158.94C385.937 159.668 388.035 161.405 391.649 159.954C398.109 157.452 404.4 148.627 410.741 137.929C408.817 145.352 406.379 153.962 403.966 162.197C403.467 164.055 404.464 165.938 406.332 166.51C406.801 166.672 407.325 166.677 407.765 166.618C409.085 166.443 410.225 165.47 410.646 164.145C423.631 119.791 422.399 118.387 420.991 116.783ZM427.664 140.082C427.518 140.101 427.298 140.131 427.151 140.15C430.042 135.51 440.803 125.494 448.13 119.965C447.425 122.522 446.304 125.881 444.998 128.967C444.259 130.707 445.129 132.757 446.869 133.495C448.683 134.225 450.742 133.428 451.471 131.614C458.263 115.332 455.242 112.823 453.976 111.722C452.969 110.886 450.739 109.838 447.306 112.087C446.958 112.282 416.292 134.279 419.844 143.586C420.904 146.506 423.814 147.612 428.655 146.967C435.394 145.996 440.083 145.895 443.086 146.018C437.418 148.862 428.028 152.351 423.768 152.321C421.905 152.345 420.32 153.899 420.281 155.845C420.305 157.709 421.859 159.293 423.796 159.26C424.476 159.319 425.282 159.211 426.163 159.094C434.232 158.021 447.348 152.244 451.144 149.35C454.401 146.901 453.58 144.099 453.18 143.331C451.411 139.013 442.829 137.915 427.664 140.082ZM492.333 139.241C483.662 140.843 473.716 142.39 467.158 143.039C470.572 140.644 474.837 137.911 477.165 136.333C484.379 131.64 485 131.259 484.688 128.912C484.385 126.638 483.52 126.305 476.963 123.594C474.523 122.649 470.259 120.903 467.384 119.493C471.596 116.918 479.44 113.037 482.962 111.449C484.12 112.862 485.894 115.538 487.356 118.105C488.324 119.768 490.495 120.375 492.158 119.407C493.82 118.44 494.364 116.352 493.386 114.615C486.983 103.523 484.783 103.816 483.022 104.05C481.262 104.284 470.786 109.709 470.639 109.729C459.258 115.648 458.089 117.52 458.274 120.034C458.484 123.291 461.681 124.881 474.159 130.014C473.959 130.19 473.685 130.376 473.401 130.488C457.603 140.802 454.732 143.349 455.181 146.723C455.318 147.75 455.895 148.718 456.799 149.344C457.63 149.98 459.366 151.242 473.816 149.32C478.804 148.656 485.24 147.65 493.617 146.088C495.505 145.687 496.757 143.878 496.43 141.981C496.103 140.084 494.221 138.841 492.333 139.241Z" fill="#F29565"/>
</svg>
