<svg width="439" height="210" viewBox="0 0 439 210" fill="none" xmlns="http://www.w3.org/2000/svg">
<path d="M130.365 64.28C129.741 61.68 127.141 60.016 124.541 60.64C117.781 62.096 109.981 63.76 105.093 64.696C107.173 56.48 112.997 39.528 118.509 24.968C119.549 22.472 118.301 19.56 115.701 18.624C113.205 17.688 110.397 18.936 109.461 21.432C92.1967 66.568 94.1727 70.312 95.2127 72.288C95.9407 73.64 97.2927 74.576 98.7487 74.992C98.9567 74.992 99.3727 75.096 100.101 75.096C102.285 75.096 108.109 74.368 126.725 70.104C129.325 69.584 130.989 66.88 130.365 64.28ZM175.779 44.416C173.803 44.312 171.931 44.208 170.059 44.104C170.059 32.664 169.747 24.552 169.019 21.224C168.603 19.248 167.251 13.424 162.051 13.008C155.603 12.488 152.691 20.08 145.411 38.384C144.579 40.464 143.747 42.648 142.811 44.936C130.955 45.976 124.403 47.848 123.883 47.952C121.283 48.68 119.827 51.384 120.555 53.984C121.179 56.168 123.155 57.52 125.235 57.52C125.651 57.52 126.171 57.52 126.587 57.312C126.691 57.312 130.851 56.168 138.547 55.232C135.219 62.72 131.683 70 127.835 75.512C126.379 77.696 126.899 80.712 129.187 82.272C131.371 83.832 134.387 83.312 135.947 81.024C141.043 73.64 145.619 63.76 149.571 54.192C152.899 53.984 156.435 53.88 160.283 53.776C160.283 57.728 160.283 61.68 160.283 65.32C160.179 70.312 160.179 74.992 160.179 79.048C160.179 81.752 162.363 83.936 165.067 83.936C167.771 83.936 169.955 81.752 169.955 79.048C169.955 74.992 169.955 70.312 170.059 65.32C170.059 61.368 170.059 57.52 170.059 53.984C171.723 53.984 173.491 54.088 175.259 54.192C177.859 54.296 180.251 52.216 180.355 49.512C180.459 46.808 178.483 44.52 175.779 44.416ZM153.627 44.208C153.939 43.48 154.251 42.648 154.563 42.024C156.331 37.552 158.307 32.56 159.971 28.712C160.179 32.56 160.283 38.072 160.283 44C157.995 44.104 155.811 44.104 153.627 44.208ZM249.134 15.296C249.134 13.528 248.302 11.968 246.95 10.928C245.702 9.78399 242.582 7.288 214.294 11.864L215.75 7.184C216.478 4.584 215.022 1.88 212.422 1.15199C209.926 0.319999 207.118 1.776 206.39 4.376L203.582 13.736C197.342 14.88 190.166 16.232 181.846 18C179.246 18.52 177.582 21.12 178.102 23.72C178.622 26.424 181.222 28.088 183.926 27.568C189.23 26.424 194.846 25.28 200.358 24.344L187.982 65.424C184.238 65.424 180.91 65.424 178.206 65.216C175.502 65.008 173.214 67.088 173.006 69.792C172.902 72.496 174.878 74.784 177.582 74.992C178.622 74.992 181.534 75.096 185.59 75.096C199.006 75.096 224.486 74.16 230.414 68.648C231.87 67.4 232.598 65.736 232.598 63.968C232.598 58.248 219.806 51.28 209.406 46.912C213.254 44.624 218.246 41.4 224.902 36.928C249.134 20.6 249.134 17.688 249.134 15.296ZM219.39 62.824C214.398 63.864 206.39 64.696 198.382 65.112L201.606 54.192C206.91 56.272 214.606 60.016 219.39 62.824ZM206.702 37.136L211.174 22.368C219.598 20.912 227.294 19.872 232.91 19.248C225.838 24.552 215.022 32.04 206.702 37.136ZM295.539 64.488C283.163 65.112 269.019 65.424 259.763 65.112C264.963 62.408 271.411 59.392 274.947 57.624C285.867 52.424 286.803 52.008 286.803 48.68C286.803 45.456 285.659 44.832 277.027 39.84C273.803 38.072 268.187 34.848 264.443 32.352C270.787 29.544 282.435 25.592 287.635 24.032C288.987 26.216 290.963 30.272 292.523 34.12C293.563 36.616 296.475 37.864 298.971 36.824C301.467 35.784 302.611 32.976 301.571 30.376C294.707 13.736 291.587 13.736 289.091 13.736C286.595 13.736 270.995 19.352 270.787 19.352C253.835 25.488 251.859 27.88 251.651 31.416C251.339 35.992 255.499 38.8 271.931 48.264C271.619 48.472 271.203 48.68 270.787 48.784C246.867 60.224 242.395 63.24 242.395 68.024C242.395 69.48 243.019 70.936 244.163 71.976C245.203 73.016 247.387 75.096 267.875 75.096C274.947 75.096 284.099 74.888 296.059 74.264C298.763 74.056 300.843 71.768 300.739 69.064C300.635 66.36 298.243 64.28 295.539 64.488ZM336.545 64.28C335.921 61.68 333.321 60.016 330.721 60.64C323.961 62.096 316.161 63.76 311.273 64.696C313.353 56.48 319.177 39.528 324.689 24.968C325.729 22.472 324.481 19.56 321.881 18.624C319.385 17.688 316.577 18.936 315.641 21.432C298.377 66.568 300.353 70.312 301.393 72.288C302.121 73.64 303.473 74.576 304.929 74.992C305.137 74.992 305.553 75.096 306.281 75.096C308.465 75.096 314.289 74.368 332.905 70.104C335.505 69.584 337.169 66.88 336.545 64.28Z" fill="white"/>
<path d="M64.3374 106.16C60.9874 105.222 57.5034 107.098 56.4314 110.448L53.0814 121.838C51.0714 120.632 49.1954 120.23 47.9894 120.096C32.3114 118.488 9.93335 146.092 4.57335 167.934C0.285353 185.354 7.65535 192.59 12.3454 195.404C15.8294 197.414 19.7154 198.218 23.8694 198.218C31.5074 198.218 39.6814 195.136 44.3714 190.58C51.0714 184.416 56.0294 175.17 57.7714 171.418C59.3794 168.336 58.0394 164.584 54.9574 162.976C51.7414 161.502 47.9894 162.708 46.5154 165.924C44.1034 170.748 39.9494 177.448 35.7954 181.468C32.1774 184.818 23.0654 186.962 18.7774 184.55C14.8914 182.272 15.5614 175.84 16.7674 170.882C21.9934 149.844 41.6914 131.486 46.5154 132.424C46.5154 132.558 47.5874 133.63 47.7214 138.052C47.7214 138.454 47.7214 138.856 47.8554 139.258L47.0514 142.072C45.9794 145.422 47.8554 148.906 51.2054 149.844C51.8754 150.112 52.4114 150.112 53.0814 150.112C55.7614 150.112 58.1734 148.37 59.1114 145.69L68.4914 114.066C69.5634 110.716 67.6874 107.232 64.3374 106.16ZM116.951 126.394C100.871 116.344 78.4932 123.312 66.9692 141.67C55.4452 160.162 59.1972 183.344 75.2772 193.394C80.2352 196.476 85.8632 197.95 91.6252 197.95C104.221 197.95 117.353 190.714 125.259 178.118C136.783 159.626 133.031 136.444 116.951 126.394ZM114.539 171.418C106.767 184.014 92.0272 188.972 81.8432 182.674C71.6592 176.376 69.7832 160.966 77.6892 148.37C83.1832 139.526 92.1612 134.434 100.469 134.434C103.953 134.434 107.303 135.238 110.251 137.114C120.435 143.412 122.311 158.822 114.539 171.418ZM100.201 142.608C96.8512 141.402 93.2332 143.144 92.1612 146.36L84.7912 166.996C83.5852 170.212 85.3272 173.83 88.6772 175.036C89.3472 175.304 90.0172 175.438 90.6872 175.438C93.3672 175.438 95.7792 173.83 96.7172 171.15L103.953 150.648C105.159 147.298 103.417 143.68 100.201 142.608ZM90.6872 115.942H115.745C119.229 115.942 122.043 113.128 122.043 109.644C122.043 106.16 119.229 103.346 115.745 103.346H90.6872C87.2032 103.346 84.3892 106.16 84.3892 109.644C84.3892 113.128 87.2032 115.942 90.6872 115.942ZM174.143 183.88C173.339 180.53 169.989 178.386 166.639 179.19C157.929 181.066 147.879 183.21 141.581 184.416C144.261 173.83 151.765 151.988 158.867 133.228C160.207 130.012 158.599 126.26 155.249 125.054C152.033 123.848 148.415 125.456 147.209 128.672C124.965 186.828 127.511 191.652 128.851 194.198C129.789 195.94 131.531 197.146 133.407 197.682C133.675 197.682 134.211 197.816 135.149 197.816C137.963 197.816 145.467 196.878 169.453 191.384C172.803 190.714 174.947 187.23 174.143 183.88ZM218.572 183.88C217.768 180.53 214.418 178.386 211.068 179.19C202.358 181.066 192.308 183.21 186.01 184.416C188.69 173.83 196.194 151.988 203.296 133.228C204.636 130.012 203.028 126.26 199.678 125.054C196.462 123.848 192.844 125.456 191.638 128.672C169.394 186.828 171.94 191.652 173.28 194.198C174.218 195.94 175.96 197.146 177.836 197.682C178.104 197.682 178.64 197.816 179.578 197.816C182.392 197.816 189.896 196.878 213.882 191.384C217.232 190.714 219.376 187.23 218.572 183.88ZM277.086 158.286C274.54 158.152 272.128 158.018 269.716 157.884C269.716 143.144 269.314 132.692 268.376 128.404C267.84 125.858 266.098 118.354 259.398 117.818C251.09 117.148 247.338 126.93 237.958 150.514C236.886 153.194 235.814 156.008 234.608 158.956C219.332 160.296 210.89 162.708 210.22 162.842C206.87 163.78 204.994 167.264 205.932 170.614C206.736 173.428 209.282 175.17 211.962 175.17C212.498 175.17 213.168 175.17 213.704 174.902C213.838 174.902 219.198 173.428 229.114 172.222C224.826 181.87 220.27 191.25 215.312 198.352C213.436 201.166 214.106 205.052 217.054 207.062C219.868 209.072 223.754 208.402 225.764 205.454C232.33 195.94 238.226 183.21 243.318 170.882C247.606 170.614 252.162 170.48 257.12 170.346C257.12 175.438 257.12 180.53 257.12 185.22C256.986 191.652 256.986 197.682 256.986 202.908C256.986 206.392 259.8 209.206 263.284 209.206C266.768 209.206 269.582 206.392 269.582 202.908C269.582 197.682 269.582 191.652 269.716 185.22C269.716 180.128 269.716 175.17 269.716 170.614C271.86 170.614 274.138 170.748 276.416 170.882C279.766 171.016 282.848 168.336 282.982 164.852C283.116 161.368 280.57 158.42 277.086 158.286ZM248.544 158.018C248.946 157.08 249.348 156.008 249.75 155.204C252.028 149.442 254.574 143.01 256.718 138.052C256.986 143.01 257.12 150.112 257.12 157.75C254.172 157.884 251.358 157.884 248.544 158.018ZM371.602 120.766C371.602 118.488 370.53 116.478 368.789 115.138C367.18 113.664 363.161 110.448 326.712 116.344L328.588 110.314C329.526 106.964 327.65 103.48 324.3 102.542C321.084 101.47 317.466 103.346 316.528 106.696L312.91 118.756C304.87 120.23 295.624 121.972 284.904 124.25C281.554 124.92 279.41 128.27 280.08 131.62C280.75 135.104 284.1 137.248 287.584 136.578C294.418 135.104 301.654 133.63 308.756 132.424L292.81 185.354C287.986 185.354 283.698 185.354 280.214 185.086C276.73 184.818 273.782 187.498 273.514 190.982C273.38 194.466 275.926 197.414 279.41 197.682C280.75 197.682 284.502 197.816 289.728 197.816C307.014 197.816 339.844 196.61 347.482 189.508C349.358 187.9 350.296 185.756 350.296 183.478C350.296 176.108 333.814 167.13 320.414 161.502C325.372 158.554 331.804 154.4 340.38 148.638C371.602 127.6 371.602 123.848 371.602 120.766ZM333.278 182.004C326.846 183.344 316.528 184.416 306.21 184.952L310.364 170.882C317.198 173.562 327.114 178.386 333.278 182.004ZM316.93 148.906L322.692 129.878C333.546 128.002 343.463 126.662 350.698 125.858C341.587 132.692 327.65 142.34 316.93 148.906ZM377.6 170.212C377.332 170.212 376.93 170.212 376.662 170.212C382.96 162.574 404.668 147.164 419.14 138.99C417.264 143.412 414.45 149.174 411.368 154.4C409.626 157.348 410.698 161.234 413.646 162.976C416.728 164.718 420.614 163.78 422.356 160.698C438.436 133.094 433.612 127.868 431.602 125.59C429.994 123.848 426.242 121.436 419.542 124.652C418.872 124.92 358.572 157.08 362.726 174.634C363.932 180.128 368.89 182.808 377.734 182.808C390.062 182.674 398.504 183.612 403.864 184.55C393.01 188.302 375.322 192.322 367.684 191.25C364.334 190.848 361.118 193.26 360.582 196.744C360.18 200.094 362.592 203.31 366.076 203.712C367.282 203.98 368.756 203.98 370.364 203.98C385.104 203.98 410.028 196.744 417.532 192.456C423.964 188.838 423.16 183.612 422.624 182.138C420.48 173.964 405.338 169.944 377.6 170.212Z" fill="#E5986E"/>
</svg>
