<svg width="808" height="218" viewBox="0 0 808 218" fill="none" xmlns="http://www.w3.org/2000/svg">
<path d="M314.865 64.28C314.241 61.68 311.641 60.016 309.041 60.64C302.281 62.096 294.481 63.76 289.593 64.696C291.673 56.48 297.497 39.528 303.009 24.968C304.049 22.472 302.801 19.56 300.201 18.624C297.705 17.688 294.897 18.936 293.961 21.432C276.697 66.568 278.673 70.312 279.713 72.288C280.441 73.64 281.793 74.576 283.249 74.992C283.457 74.992 283.873 75.096 284.601 75.096C286.785 75.096 292.609 74.368 311.225 70.104C313.825 69.584 315.489 66.88 314.865 64.28ZM360.279 44.416C358.303 44.312 356.431 44.208 354.559 44.104C354.559 32.664 354.247 24.552 353.519 21.224C353.103 19.248 351.751 13.424 346.551 13.008C340.103 12.488 337.191 20.08 329.911 38.384C329.079 40.464 328.247 42.648 327.311 44.936C315.455 45.976 308.903 47.848 308.383 47.952C305.783 48.68 304.327 51.384 305.055 53.984C305.679 56.168 307.655 57.52 309.735 57.52C310.151 57.52 310.671 57.52 311.087 57.312C311.191 57.312 315.351 56.168 323.047 55.232C319.719 62.72 316.183 70 312.335 75.512C310.879 77.696 311.399 80.712 313.687 82.272C315.871 83.832 318.887 83.312 320.447 81.024C325.543 73.64 330.119 63.76 334.071 54.192C337.399 53.984 340.935 53.88 344.783 53.776C344.783 57.728 344.783 61.68 344.783 65.32C344.679 70.312 344.679 74.992 344.679 79.048C344.679 81.752 346.863 83.936 349.567 83.936C352.271 83.936 354.455 81.752 354.455 79.048C354.455 74.992 354.455 70.312 354.559 65.32C354.559 61.368 354.559 57.52 354.559 53.984C356.223 53.984 357.991 54.088 359.759 54.192C362.359 54.296 364.751 52.216 364.855 49.512C364.959 46.808 362.983 44.52 360.279 44.416ZM338.127 44.208C338.439 43.48 338.751 42.648 339.063 42.024C340.831 37.552 342.807 32.56 344.471 28.712C344.679 32.56 344.783 38.072 344.783 44C342.495 44.104 340.311 44.104 338.127 44.208ZM433.634 15.296C433.634 13.528 432.802 11.968 431.45 10.928C430.202 9.78399 427.082 7.288 398.794 11.864L400.25 7.184C400.978 4.584 399.522 1.88 396.922 1.15199C394.426 0.319999 391.618 1.776 390.89 4.376L388.082 13.736C381.842 14.88 374.666 16.232 366.346 18C363.746 18.52 362.082 21.12 362.602 23.72C363.122 26.424 365.722 28.088 368.426 27.568C373.73 26.424 379.346 25.28 384.858 24.344L372.482 65.424C368.738 65.424 365.41 65.424 362.706 65.216C360.002 65.008 357.714 67.088 357.506 69.792C357.402 72.496 359.378 74.784 362.082 74.992C363.122 74.992 366.034 75.096 370.09 75.096C383.506 75.096 408.986 74.16 414.914 68.648C416.37 67.4 417.098 65.736 417.098 63.968C417.098 58.248 404.306 51.28 393.906 46.912C397.754 44.624 402.746 41.4 409.402 36.928C433.634 20.6 433.634 17.688 433.634 15.296ZM403.89 62.824C398.898 63.864 390.89 64.696 382.882 65.112L386.106 54.192C391.41 56.272 399.106 60.016 403.89 62.824ZM391.202 37.136L395.674 22.368C404.098 20.912 411.794 19.872 417.41 19.248C410.338 24.552 399.522 32.04 391.202 37.136ZM480.039 64.488C467.663 65.112 453.519 65.424 444.263 65.112C449.463 62.408 455.911 59.392 459.447 57.624C470.367 52.424 471.303 52.008 471.303 48.68C471.303 45.456 470.159 44.832 461.527 39.84C458.303 38.072 452.687 34.848 448.943 32.352C455.287 29.544 466.935 25.592 472.135 24.032C473.487 26.216 475.463 30.272 477.023 34.12C478.063 36.616 480.975 37.864 483.471 36.824C485.967 35.784 487.111 32.976 486.071 30.376C479.207 13.736 476.087 13.736 473.591 13.736C471.095 13.736 455.495 19.352 455.287 19.352C438.335 25.488 436.359 27.88 436.151 31.416C435.839 35.992 439.999 38.8 456.431 48.264C456.119 48.472 455.703 48.68 455.287 48.784C431.367 60.224 426.895 63.24 426.895 68.024C426.895 69.48 427.519 70.936 428.663 71.976C429.703 73.016 431.887 75.096 452.375 75.096C459.447 75.096 468.599 74.888 480.559 74.264C483.263 74.056 485.343 71.768 485.239 69.064C485.135 66.36 482.743 64.28 480.039 64.488ZM521.045 64.28C520.421 61.68 517.821 60.016 515.221 60.64C508.461 62.096 500.661 63.76 495.773 64.696C497.853 56.48 503.677 39.528 509.189 24.968C510.229 22.472 508.981 19.56 506.381 18.624C503.885 17.688 501.077 18.936 500.141 21.432C482.877 66.568 484.853 70.312 485.893 72.288C486.621 73.64 487.973 74.576 489.429 74.992C489.637 74.992 490.053 75.096 490.781 75.096C492.965 75.096 498.789 74.368 517.405 70.104C520.005 69.584 521.669 66.88 521.045 64.28Z" fill="white"/>
<path d="M64.4486 106.16C61.0986 105.222 57.6146 107.098 56.5426 110.448L53.1926 121.838C51.1826 120.632 49.3066 120.23 48.1006 120.096C32.4226 118.488 10.0446 146.092 4.68464 167.934C0.396635 185.354 7.76663 192.59 12.4566 195.404C15.9406 197.414 19.8266 198.218 23.9806 198.218C31.6186 198.218 39.7926 195.136 44.4826 190.58C51.1826 184.416 56.1406 175.17 57.8826 171.418C59.4906 168.336 58.1506 164.584 55.0686 162.976C51.8526 161.502 48.1006 162.708 46.6266 165.924C44.2146 170.748 40.0606 177.448 35.9066 181.468C32.2886 184.818 23.1766 186.962 18.8886 184.55C15.0026 182.272 15.6726 175.84 16.8786 170.882C22.1046 149.844 41.8026 131.486 46.6266 132.424C46.6266 132.558 47.6986 133.63 47.8326 138.052C47.8326 138.454 47.8326 138.856 47.9666 139.258L47.1626 142.072C46.0906 145.422 47.9666 148.906 51.3166 149.844C51.9866 150.112 52.5226 150.112 53.1926 150.112C55.8726 150.112 58.2846 148.37 59.2226 145.69L68.6026 114.066C69.6746 110.716 67.7986 107.232 64.4486 106.16ZM117.062 126.394C100.982 116.344 78.6045 123.312 67.0805 141.67C55.5565 160.162 59.3085 183.344 75.3885 193.394C80.3465 196.476 85.9745 197.95 91.7365 197.95C104.332 197.95 117.464 190.714 125.37 178.118C136.894 159.626 133.142 136.444 117.062 126.394ZM114.65 171.418C106.878 184.014 92.1385 188.972 81.9545 182.674C71.7705 176.376 69.8945 160.966 77.8005 148.37C83.2945 139.526 92.2725 134.434 100.58 134.434C104.064 134.434 107.414 135.238 110.362 137.114C120.546 143.412 122.422 158.822 114.65 171.418ZM100.312 142.608C96.9625 141.402 93.3445 143.144 92.2725 146.36L84.9025 166.996C83.6965 170.212 85.4385 173.83 88.7885 175.036C89.4585 175.304 90.1285 175.438 90.7985 175.438C93.4785 175.438 95.8905 173.83 96.8285 171.15L104.064 150.648C105.27 147.298 103.528 143.68 100.312 142.608ZM90.7985 115.942H115.856C119.34 115.942 122.154 113.128 122.154 109.644C122.154 106.16 119.34 103.346 115.856 103.346H90.7985C87.3145 103.346 84.5005 106.16 84.5005 109.644C84.5005 113.128 87.3145 115.942 90.7985 115.942ZM174.254 183.88C173.45 180.53 170.1 178.386 166.75 179.19C158.04 181.066 147.99 183.21 141.692 184.416C144.372 173.83 151.876 151.988 158.978 133.228C160.318 130.012 158.71 126.26 155.36 125.054C152.144 123.848 148.526 125.456 147.32 128.672C125.076 186.828 127.622 191.652 128.962 194.198C129.9 195.94 131.642 197.146 133.518 197.682C133.786 197.682 134.322 197.816 135.26 197.816C138.074 197.816 145.578 196.878 169.564 191.384C172.914 190.714 175.058 187.23 174.254 183.88ZM218.684 183.88C217.88 180.53 214.53 178.386 211.18 179.19C202.47 181.066 192.42 183.21 186.122 184.416C188.802 173.83 196.306 151.988 203.408 133.228C204.748 130.012 203.14 126.26 199.79 125.054C196.574 123.848 192.956 125.456 191.75 128.672C169.506 186.828 172.052 191.652 173.392 194.198C174.33 195.94 176.072 197.146 177.948 197.682C178.216 197.682 178.752 197.816 179.69 197.816C182.504 197.816 190.008 196.878 213.994 191.384C217.344 190.714 219.488 187.23 218.684 183.88ZM277.198 158.286C274.652 158.152 272.24 158.018 269.828 157.884C269.828 143.144 269.426 132.692 268.488 128.404C267.952 125.858 266.21 118.354 259.51 117.818C251.202 117.148 247.45 126.93 238.07 150.514C236.998 153.194 235.926 156.008 234.72 158.956C219.444 160.296 211.002 162.708 210.332 162.842C206.982 163.78 205.106 167.264 206.044 170.614C206.848 173.428 209.394 175.17 212.074 175.17C212.61 175.17 213.28 175.17 213.816 174.902C213.95 174.902 219.31 173.428 229.226 172.222C224.938 181.87 220.382 191.25 215.424 198.352C213.548 201.166 214.218 205.052 217.166 207.062C219.98 209.072 223.866 208.402 225.876 205.454C232.442 195.94 238.338 183.21 243.43 170.882C247.718 170.614 252.274 170.48 257.232 170.346C257.232 175.438 257.232 180.53 257.232 185.22C257.098 191.652 257.098 197.682 257.098 202.908C257.098 206.392 259.912 209.206 263.396 209.206C266.88 209.206 269.694 206.392 269.694 202.908C269.694 197.682 269.694 191.652 269.828 185.22C269.828 180.128 269.828 175.17 269.828 170.614C271.972 170.614 274.25 170.748 276.528 170.882C279.878 171.016 282.96 168.336 283.094 164.852C283.228 161.368 280.682 158.42 277.198 158.286ZM248.656 158.018C249.058 157.08 249.46 156.008 249.862 155.204C252.14 149.442 254.686 143.01 256.83 138.052C257.098 143.01 257.232 150.112 257.232 157.75C254.284 157.884 251.47 157.884 248.656 158.018ZM371.714 120.766C371.714 118.488 370.642 116.478 368.9 115.138C367.292 113.664 363.272 110.448 326.824 116.344L328.7 110.314C329.638 106.964 327.762 103.48 324.412 102.542C321.196 101.47 317.578 103.346 316.64 106.696L313.022 118.756C304.982 120.23 295.736 121.972 285.016 124.25C281.666 124.92 279.522 128.27 280.192 131.62C280.862 135.104 284.212 137.248 287.696 136.578C294.53 135.104 301.766 133.63 308.868 132.424L292.922 185.354C288.098 185.354 283.81 185.354 280.326 185.086C276.842 184.818 273.894 187.498 273.626 190.982C273.492 194.466 276.038 197.414 279.522 197.682C280.862 197.682 284.614 197.816 289.84 197.816C307.126 197.816 339.956 196.61 347.594 189.508C349.47 187.9 350.408 185.756 350.408 183.478C350.408 176.108 333.926 167.13 320.526 161.502C325.484 158.554 331.916 154.4 340.492 148.638C371.714 127.6 371.714 123.848 371.714 120.766ZM333.39 182.004C326.958 183.344 316.64 184.416 306.322 184.952L310.476 170.882C317.31 173.562 327.226 178.386 333.39 182.004ZM317.042 148.906L322.804 129.878C333.658 128.002 343.574 126.662 350.81 125.858C341.698 132.692 327.762 142.34 317.042 148.906ZM422.959 126.394C406.879 116.344 384.501 123.312 372.977 141.67C361.453 160.162 365.205 183.344 381.285 193.394C386.243 196.476 391.871 197.95 397.633 197.95C410.229 197.95 423.361 190.714 431.267 178.118C442.791 159.626 439.039 136.444 422.959 126.394ZM420.547 171.418C412.775 184.014 398.035 188.972 387.851 182.674C377.667 176.376 375.791 160.966 383.697 148.37C389.191 139.526 398.169 134.434 406.477 134.434C409.961 134.434 413.311 135.238 416.259 137.114C426.443 143.412 428.319 158.822 420.547 171.418ZM406.209 142.608C402.859 141.402 399.241 143.144 398.169 146.36L390.799 166.996C389.593 170.212 391.335 173.83 394.685 175.036C395.355 175.304 396.025 175.438 396.695 175.438C399.375 175.438 401.787 173.83 402.725 171.15L409.961 150.648C411.167 147.298 409.425 143.68 406.209 142.608ZM396.695 115.942H421.753C425.237 115.942 428.051 113.128 428.051 109.644C428.051 106.16 425.237 103.346 421.753 103.346H396.695C393.211 103.346 390.397 106.16 390.397 109.644C390.397 113.128 393.211 115.942 396.695 115.942ZM516.465 127.064C516.599 123.982 515.527 118.354 507.621 114.468C478.141 100.264 444.105 111.52 442.631 111.922C439.415 113.128 437.539 116.612 438.745 119.962C439.817 123.312 443.435 125.054 446.651 123.982C446.785 123.848 450.805 122.642 457.103 121.436L443.971 162.306C443.569 162.44 443.033 162.708 442.631 162.842C439.415 164.182 437.807 167.8 439.147 171.016C439.415 171.82 439.951 172.49 440.487 173.026L435.127 189.508C434.055 192.858 435.931 196.476 439.281 197.414C439.951 197.682 440.487 197.816 441.157 197.816C443.837 197.816 446.383 196.074 447.187 193.394L453.485 173.964L478.275 214.7C479.481 216.71 481.491 217.782 483.635 217.782C484.707 217.782 485.913 217.514 486.851 216.844C489.933 215.102 490.871 211.216 488.995 208.268L464.205 167.264C486.851 156.946 516.063 141 516.465 127.064ZM459.381 155.606L470.771 119.962C480.553 119.694 491.809 120.9 502.127 125.858C503.065 126.26 503.601 126.662 503.869 126.93C502.529 132.29 483.501 144.35 459.381 155.606ZM568.501 158.286C565.955 158.152 563.543 158.018 561.131 157.884C561.131 143.144 560.729 132.692 559.791 128.404C559.255 125.858 557.513 118.354 550.813 117.818C542.505 117.148 538.753 126.93 529.373 150.514C528.301 153.194 527.229 156.008 526.023 158.956C510.747 160.296 502.305 162.708 501.635 162.842C498.285 163.78 496.409 167.264 497.347 170.614C498.151 173.428 500.697 175.17 503.377 175.17C503.913 175.17 504.583 175.17 505.119 174.902C505.253 174.902 510.613 173.428 520.529 172.222C516.241 181.87 511.685 191.25 506.727 198.352C504.851 201.166 505.521 205.052 508.469 207.062C511.283 209.072 515.169 208.402 517.179 205.454C523.745 195.94 529.641 183.21 534.733 170.882C539.021 170.614 543.577 170.48 548.535 170.346C548.535 175.438 548.535 180.53 548.535 185.22C548.401 191.652 548.401 197.682 548.401 202.908C548.401 206.392 551.215 209.206 554.699 209.206C558.183 209.206 560.997 206.392 560.997 202.908C560.997 197.682 560.997 191.652 561.131 185.22C561.131 180.128 561.131 175.17 561.131 170.614C563.275 170.614 565.553 170.748 567.831 170.882C571.181 171.016 574.263 168.336 574.397 164.852C574.531 161.368 571.985 158.42 568.501 158.286ZM539.959 158.018C540.361 157.08 540.763 156.008 541.165 155.204C543.443 149.442 545.989 143.01 548.133 138.052C548.401 143.01 548.535 150.112 548.535 157.75C545.587 157.884 542.773 157.884 539.959 158.018ZM682.876 99.46C650.046 96.914 562.946 107.232 559.194 107.634C555.844 108.036 553.298 111.118 553.7 114.602C554.102 117.818 556.782 120.23 559.998 120.23C560.266 120.23 560.534 120.096 560.668 120.096C561.07 120.096 574.872 118.488 593.498 116.612L568.574 189.642C567.502 192.992 569.244 196.476 572.46 197.682C573.13 197.95 573.8 197.95 574.47 197.95C577.15 197.95 579.562 196.342 580.5 193.796L607.3 115.272C634.1 112.86 665.59 110.716 681.804 112.056C685.288 112.19 688.37 109.644 688.638 106.294C688.906 102.81 686.226 99.728 682.876 99.46ZM654.853 126.394C638.773 116.344 616.395 123.312 604.871 141.67C593.347 160.162 597.099 183.344 613.179 193.394C618.137 196.476 623.765 197.95 629.527 197.95C642.123 197.95 655.255 190.714 663.161 178.118C674.685 159.626 670.933 136.444 654.853 126.394ZM652.441 171.418C644.669 184.014 629.929 188.972 619.745 182.674C609.561 176.376 607.685 160.966 615.591 148.37C621.085 139.526 630.063 134.434 638.371 134.434C641.855 134.434 645.205 135.238 648.153 137.114C658.337 143.412 660.213 158.822 652.441 171.418ZM638.103 142.608C634.753 141.402 631.135 143.144 630.063 146.36L622.693 166.996C621.487 170.212 623.229 173.83 626.579 175.036C627.249 175.304 627.919 175.438 628.589 175.438C631.269 175.438 633.681 173.83 634.619 171.15L641.855 150.648C643.061 147.298 641.319 143.68 638.103 142.608ZM628.589 115.942H653.647C657.131 115.942 659.945 113.128 659.945 109.644C659.945 106.16 657.131 103.346 653.647 103.346H628.589C625.105 103.346 622.291 106.16 622.291 109.644C622.291 113.128 625.105 115.942 628.589 115.942ZM748.358 127.064C748.492 123.982 747.42 118.354 739.514 114.468C710.034 100.264 675.998 111.52 674.524 111.922C671.308 113.128 669.432 116.612 670.638 119.962C671.71 123.312 675.328 125.054 678.544 123.982C678.678 123.848 682.698 122.642 688.996 121.436L675.864 162.306C675.462 162.44 674.926 162.708 674.524 162.842C671.308 164.182 669.7 167.8 671.04 171.016C671.308 171.82 671.844 172.49 672.38 173.026L667.02 189.508C665.948 192.858 667.824 196.476 671.174 197.414C671.844 197.682 672.38 197.816 673.05 197.816C675.73 197.816 678.276 196.074 679.08 193.394L685.378 173.964L710.168 214.7C711.374 216.71 713.384 217.782 715.528 217.782C716.6 217.782 717.806 217.514 718.744 216.844C721.826 215.102 722.764 211.216 720.888 208.268L696.098 167.264C718.744 156.946 747.956 141 748.358 127.064ZM691.274 155.606L702.664 119.962C712.446 119.694 723.702 120.9 734.02 125.858C734.958 126.26 735.494 126.662 735.762 126.93C734.422 132.29 715.394 144.35 691.274 155.606ZM746.489 170.212C746.221 170.212 745.819 170.212 745.551 170.212C751.849 162.574 773.557 147.164 788.029 138.99C786.153 143.412 783.339 149.174 780.257 154.4C778.515 157.348 779.587 161.234 782.535 162.976C785.617 164.718 789.503 163.78 791.245 160.698C807.325 133.094 802.501 127.868 800.491 125.59C798.883 123.848 795.131 121.436 788.431 124.652C787.761 124.92 727.461 157.08 731.615 174.634C732.821 180.128 737.779 182.808 746.623 182.808C758.951 182.674 767.393 183.612 772.753 184.55C761.899 188.302 744.211 192.322 736.573 191.25C733.223 190.848 730.007 193.26 729.471 196.744C729.069 200.094 731.481 203.31 734.965 203.712C736.171 203.98 737.645 203.98 739.253 203.98C753.993 203.98 778.917 196.744 786.421 192.456C792.853 188.838 792.049 183.612 791.513 182.138C789.369 173.964 774.227 169.944 746.489 170.212Z" fill="#E5986E"/>
</svg>
