<svg width="661" height="96" viewBox="0 0 661 96" fill="none" xmlns="http://www.w3.org/2000/svg">
<path d="M38.8605 68.28C38.2365 65.68 35.6365 64.016 33.0365 64.64C26.2765 66.096 18.4765 67.76 13.5885 68.696C15.6685 60.48 21.4925 43.528 27.0045 28.968C28.0445 26.472 26.7965 23.56 24.1965 22.624C21.7005 21.688 18.8925 22.936 17.9565 25.432C0.692451 70.568 2.66845 74.312 3.70845 76.288C4.43645 77.64 5.78845 78.576 7.24445 78.992C7.45245 78.992 7.86845 79.096 8.59645 79.096C10.7805 79.096 16.6045 78.368 35.2205 74.104C37.8205 73.584 39.4845 70.88 38.8605 68.28ZM85.095 35.52C82.495 34.688 79.791 36.04 78.855 38.64L76.879 44.672C75.319 38.016 73.031 31.464 69.5989 28.864C68.039 27.72 66.167 27.2 64.2949 27.512C55.9749 28.76 39.4389 66.824 37.2549 75.456C36.5269 78.056 34.9669 84.088 39.0229 87.104C39.7509 87.728 40.9989 88.664 43.2869 88.664C47.3429 88.664 54.623 85.44 67.9349 70.88L64.0869 82.216C63.151 84.712 64.503 87.52 67.103 88.352C67.623 88.56 68.1429 88.664 68.6629 88.664C70.743 88.664 72.615 87.416 73.343 85.336L88.1109 41.76C89.047 39.264 87.695 36.456 85.095 35.52ZM46.8229 77.12C49.5269 67.656 59.6149 47.168 65.127 39.368C66.375 42.8 67.831 48.728 68.767 54.864C60.759 64.64 51.9189 73.48 46.8229 77.12ZM140.438 29.904C137.942 28.968 135.134 30.216 134.198 32.712C134.094 32.712 134.094 32.816 134.094 33.024C133.678 33.232 133.262 33.648 132.95 34.064C118.182 53.928 99.4624 75.976 91.8704 81.176C91.3504 74.104 98.3184 54.136 108.302 35.104C109.55 32.712 108.614 29.8 106.222 28.552C103.83 27.304 100.918 28.24 99.6704 30.632C92.0784 44.984 75.5424 79.616 85.5264 90.224L86.3584 90.952C87.1904 91.472 88.2304 92.2 89.8944 92.2C94.2624 92.2 102.79 87.416 122.654 63.184C119.222 72.752 116.102 81.8 115.062 85.96C114.438 88.56 115.998 91.264 118.598 91.888C119.014 91.992 119.43 91.992 119.742 91.992C122.03 91.992 124.006 90.536 124.526 88.352C126.918 78.576 143.142 36.664 143.246 36.248C144.286 33.752 143.038 30.84 140.438 29.904ZM178.335 29.176C175.631 28.76 173.239 30.736 172.823 33.336C171.991 40.096 170.327 53.304 168.871 64.328C167.103 58.088 165.023 50.08 162.527 40.408C161.903 38.016 161.487 36.248 161.175 35.208C160.343 32.088 157.847 31.048 155.975 31.048C151.815 31.048 149.111 31.048 135.175 87.416C134.447 90.12 136.111 92.72 138.711 93.344C139.127 93.448 139.543 93.552 139.855 93.552C142.039 93.552 144.119 91.992 144.639 89.808C148.071 75.976 152.127 61 155.143 50.912C165.023 88.768 166.271 88.768 170.743 88.664C172.615 88.664 175.007 87.52 175.735 84.4C177.191 78.368 182.079 39.056 182.599 34.584C182.911 31.88 181.039 29.488 178.335 29.176ZM215.793 56.528C216.209 56.736 216.729 56.84 217.249 56.84C219.329 56.84 221.201 55.488 221.929 53.512L230.353 27.928C231.185 25.432 229.833 22.624 227.233 21.792C224.737 20.96 221.929 22.312 221.097 24.912L218.913 31.36C218.497 31.256 217.977 31.256 217.457 31.36C208.201 32.608 195.513 44.256 188.129 54.552C183.345 61.104 178.041 70.88 179.705 79.824C180.433 83.776 182.617 86.792 186.153 88.56C188.545 89.808 191.457 90.224 194.577 90.224C206.329 90.224 221.305 83.36 224.841 81.592C227.233 80.448 228.273 77.536 227.129 75.144C225.881 72.648 222.969 71.608 220.577 72.856C211.529 77.224 195.721 82.424 190.521 79.824C189.897 79.512 189.481 79.096 189.273 78.056C188.545 73.792 190.937 67.344 196.033 60.272C201.857 52.056 209.865 45.192 215.273 42.384L212.673 50.392C211.841 52.992 213.193 55.696 215.793 56.528ZM270.449 32.712C265.457 31.464 256.409 39.888 247.673 50.288C248.089 48.936 248.505 47.688 249.025 46.336L262.753 7.128C263.689 4.63199 262.337 1.82399 259.737 0.887993C257.241 0.0559974 254.433 1.30399 253.497 3.904C243.721 31.88 229.265 73.064 226.457 80.864C226.353 81.28 226.145 81.592 226.041 81.904C224.377 87 228.953 88.56 228.953 88.56C229.681 88.872 230.305 88.976 230.825 88.976C233.009 88.976 234.257 87.312 235.193 85.336L235.401 85.024C235.401 84.816 235.401 84.712 235.505 84.608C235.609 84.4 235.713 84.192 235.713 83.88C239.353 75.56 254.433 56.528 263.585 47.272C261.089 62.04 257.761 82.632 257.761 82.944C257.345 85.544 259.113 88.04 261.817 88.56C264.417 88.976 267.017 87.104 267.433 84.504C267.433 84.192 272.217 54.24 274.609 40.928C275.857 34.376 270.969 32.92 270.449 32.712ZM364.585 23.248C341.809 12.224 315.289 20.96 314.249 21.376C311.649 22.208 310.297 25.016 311.129 27.512C311.961 30.112 314.769 31.464 317.369 30.632C317.473 30.632 320.489 29.592 325.065 28.76L304.473 81.28C303.537 83.776 304.785 86.584 307.281 87.624C307.905 87.832 308.425 87.936 309.049 87.936C311.025 87.936 312.897 86.792 313.625 84.816L319.761 69.112C336.713 62.144 371.137 46.336 371.553 33.024C371.657 30.632 370.825 26.264 364.585 23.248ZM324.857 56.216L335.985 27.824C335.985 27.72 336.089 27.616 336.089 27.616C343.577 27.304 352.417 28.24 360.425 32.088C361.153 32.504 361.569 32.816 361.673 32.92C360.633 37.288 344.617 47.272 324.857 56.216ZM405.894 35.52C403.294 34.688 400.59 36.04 399.654 38.64L397.678 44.672C396.118 38.016 393.83 31.464 390.398 28.864C388.838 27.72 386.966 27.2 385.094 27.512C376.774 28.76 360.238 66.824 358.054 75.456C357.326 78.056 355.766 84.088 359.822 87.104C360.55 87.728 361.798 88.664 364.086 88.664C368.142 88.664 375.422 85.44 388.734 70.88L384.886 82.216C383.95 84.712 385.302 87.52 387.902 88.352C388.422 88.56 388.942 88.664 389.462 88.664C391.542 88.664 393.414 87.416 394.142 85.336L408.91 41.76C409.846 39.264 408.494 36.456 405.894 35.52ZM367.622 77.12C370.326 67.656 380.414 47.168 385.926 39.368C387.174 42.8 388.63 48.728 389.566 54.864C381.558 64.64 372.718 73.48 367.622 77.12ZM425.075 71.088C425.595 71.192 426.115 71.4 426.635 71.4C426.739 71.4 426.843 71.4 426.947 71.4C429.027 71.4 430.899 70.568 432.355 69.216C444.107 57.464 452.115 31.568 447.747 25.536C446.915 24.288 445.251 23.456 443.795 23.352C442.027 23.144 439.427 23.04 425.179 36.976L426.739 31.672C427.467 29.072 426.011 26.368 423.515 25.64C420.915 24.808 418.107 26.264 417.379 28.864L410.411 52.264C409.995 52.888 409.787 53.616 409.787 54.344L399.179 89.496C398.451 92.096 399.907 94.8 402.507 95.528C402.923 95.736 403.443 95.736 403.859 95.736C406.043 95.736 407.915 94.384 408.539 92.304L414.259 73.48L425.803 87C426.739 88.04 428.091 88.664 429.547 88.664C430.691 88.664 431.731 88.248 432.667 87.52C434.747 85.752 434.955 82.632 433.187 80.552L425.075 71.088ZM437.867 38.432C435.995 45.4 432.251 54.864 426.323 61.312C424.867 60.584 422.267 58.504 419.979 56.112C426.115 49.768 432.875 43.112 437.867 38.432ZM487.895 40.72C481.759 39.888 475.831 39.576 470.631 39.368L472.503 32.296C473.231 29.696 471.671 26.992 469.071 26.264C466.367 25.64 463.767 27.2 463.039 29.8L460.543 39.368C454.823 39.368 451.079 39.68 450.767 39.68C448.063 39.992 446.087 42.28 446.295 44.984C446.503 47.688 448.895 49.664 451.599 49.456C451.599 49.456 453.991 49.248 457.839 49.144L448.999 82.528C448.375 85.128 449.831 87.832 452.535 88.456C452.951 88.664 453.367 88.664 453.783 88.664C455.863 88.664 457.839 87.208 458.463 85.024L468.031 49.144C473.543 49.248 479.991 49.56 486.647 50.392C486.855 50.392 487.063 50.392 487.271 50.392C489.767 50.392 491.847 48.624 492.159 46.128C492.471 43.424 490.599 41.032 487.895 40.72ZM529.148 29.176C526.444 28.76 524.052 30.736 523.636 33.336C522.804 40.096 521.14 53.304 519.684 64.328C517.916 58.088 515.836 50.08 513.34 40.408C512.716 38.016 512.3 36.248 511.988 35.208C511.156 32.088 508.66 31.048 506.788 31.048C502.628 31.048 499.924 31.048 485.988 87.416C485.26 90.12 486.924 92.72 489.524 93.344C489.94 93.448 490.356 93.552 490.668 93.552C492.852 93.552 494.932 91.992 495.452 89.808C498.884 75.976 502.94 61 505.956 50.912C515.836 88.768 517.084 88.768 521.556 88.664C523.428 88.664 525.82 87.52 526.548 84.4C528.004 78.368 532.892 39.056 533.412 34.584C533.724 31.88 531.852 29.488 529.148 29.176ZM566.502 47.584C567.23 50.184 569.83 51.64 572.534 50.912C575.134 50.184 576.59 47.48 575.862 44.88C572.95 34.168 569.518 32.712 566.814 32.608C558.494 32.192 539.254 47.064 535.718 50.808C535.094 51.432 533.43 53.304 533.742 55.8C534.262 59.856 537.174 60.688 550.902 65.056C551.318 65.16 551.734 65.264 552.254 65.472C551.63 65.784 551.11 66.096 550.59 66.304C533.014 75.976 529.27 78.368 529.27 82.632C529.27 84.088 529.894 85.544 531.038 86.584C532.078 87.624 533.95 89.392 550.07 89.392C554.75 89.392 560.678 89.184 568.166 88.872C570.87 88.664 572.95 86.376 572.846 83.776C572.742 81.072 570.35 78.888 567.75 79.096C560.782 79.408 553.086 79.616 547.054 79.512C549.966 77.848 552.982 76.184 555.27 74.936C567.334 68.28 568.79 67.448 568.166 63.496C567.542 59.96 565.774 59.44 553.814 55.696C551.942 55.072 549.55 54.344 547.366 53.616C552.566 49.56 560.574 44.256 564.734 42.8C565.358 44.048 565.982 45.92 566.502 47.584ZM597.028 71.088C597.548 71.192 598.068 71.4 598.588 71.4C598.692 71.4 598.796 71.4 598.9 71.4C600.98 71.4 602.852 70.568 604.308 69.216C616.06 57.464 624.068 31.568 619.7 25.536C618.868 24.288 617.204 23.456 615.748 23.352C613.98 23.144 611.38 23.04 597.132 36.976L598.692 31.672C599.42 29.072 597.964 26.368 595.468 25.64C592.868 24.808 590.06 26.264 589.332 28.864L582.364 52.264C581.948 52.888 581.74 53.616 581.74 54.344L571.132 89.496C570.404 92.096 571.86 94.8 574.46 95.528C574.876 95.736 575.396 95.736 575.812 95.736C577.996 95.736 579.868 94.384 580.492 92.304L586.212 73.48L597.756 87C598.692 88.04 600.044 88.664 601.5 88.664C602.644 88.664 603.684 88.248 604.62 87.52C606.7 85.752 606.908 82.632 605.14 80.552L597.028 71.088ZM609.82 38.432C607.948 45.4 604.204 54.864 598.276 61.312C596.82 60.584 594.22 58.504 591.932 56.112C598.068 49.768 604.828 43.112 609.82 38.432ZM659.849 70.048C658.809 64.536 651.945 62.976 641.649 60.48C636.761 59.336 631.665 58.192 627.817 56.632C627.713 56.632 627.609 56.528 627.505 56.528C630.313 53.408 639.569 48.416 645.913 45.192L645.289 51.224C645.081 53.928 647.057 56.32 649.657 56.632C649.865 56.632 650.073 56.632 650.177 56.632C652.673 56.632 654.753 54.76 655.065 52.264L656.937 32.816C657.249 30.112 655.273 27.72 652.569 27.408C649.969 27.2 647.473 29.176 647.265 31.88L647.057 33.96C646.537 34.064 646.017 34.168 645.601 34.376C628.129 43.112 616.689 49.456 617.001 57.464C617.105 59.96 618.457 63.496 624.177 65.68C628.753 67.552 634.473 68.904 639.465 70.048C641.545 70.568 644.249 71.192 646.537 71.816C638.529 75.768 625.321 79.408 620.121 80.552C617.521 81.176 615.857 83.776 616.481 86.48C617.001 88.664 619.081 90.224 621.265 90.224C621.577 90.224 621.993 90.224 622.409 90.12C623.345 89.912 645.809 84.608 655.689 77.848C659.745 75.144 660.161 72.128 659.849 70.048Z" fill="white"/>
</svg>
