<svg width="808" height="310" viewBox="0 0 808 310" fill="none" xmlns="http://www.w3.org/2000/svg">
<path d="M231.718 15.296C231.718 13.528 230.886 11.968 229.534 10.928C228.286 9.78399 225.166 7.288 196.878 11.864L198.334 7.184C199.062 4.584 197.606 1.88 195.006 1.15199C192.51 0.319999 189.702 1.776 188.974 4.376L186.166 13.736C179.926 14.88 172.75 16.232 164.43 18C161.83 18.52 160.166 21.12 160.686 23.72C161.206 26.424 163.806 28.088 166.51 27.568C171.814 26.424 177.43 25.28 182.942 24.344L170.566 65.424C166.822 65.424 163.494 65.424 160.79 65.216C158.086 65.008 155.798 67.088 155.59 69.792C155.486 72.496 157.462 74.784 160.166 74.992C161.206 74.992 164.118 75.096 168.174 75.096C181.59 75.096 207.07 74.16 212.998 68.648C214.454 67.4 215.182 65.736 215.182 63.968C215.182 58.248 202.39 51.28 191.99 46.912C195.838 44.624 200.83 41.4 207.486 36.928C231.718 20.6 231.718 17.688 231.718 15.296ZM201.974 62.824C196.982 63.864 188.974 64.696 180.966 65.112L184.19 54.192C189.494 56.272 197.19 60.016 201.974 62.824ZM189.286 37.136L193.758 22.368C202.182 20.912 209.878 19.872 215.494 19.248C208.422 24.552 197.606 32.04 189.286 37.136ZM247.169 43.584C247.897 46.184 250.497 47.64 253.201 46.912C255.801 46.184 257.257 43.48 256.529 40.88C253.617 30.168 250.185 28.712 247.481 28.608C239.161 28.192 219.921 43.064 216.385 46.808C215.761 47.432 214.097 49.304 214.409 51.8C214.929 55.856 217.841 56.688 231.569 61.056C231.985 61.16 232.401 61.264 232.921 61.472C232.297 61.784 231.777 62.096 231.257 62.304C213.681 71.976 209.937 74.368 209.937 78.632C209.937 80.088 210.561 81.544 211.705 82.584C212.745 83.624 214.617 85.392 230.737 85.392C235.417 85.392 241.345 85.184 248.833 84.872C251.537 84.664 253.617 82.376 253.513 79.776C253.409 77.072 251.017 74.888 248.417 75.096C241.449 75.408 233.753 75.616 227.721 75.512C230.633 73.848 233.649 72.184 235.937 70.936C248.001 64.28 249.457 63.448 248.833 59.496C248.209 55.96 246.441 55.44 234.481 51.696C232.609 51.072 230.217 50.344 228.033 49.616C233.233 45.56 241.241 40.256 245.401 38.8C246.025 40.048 246.649 41.92 247.169 43.584ZM299.432 36.72C293.296 35.888 287.368 35.576 282.168 35.368L284.04 28.296C284.768 25.696 283.208 22.992 280.608 22.264C277.904 21.64 275.304 23.2 274.576 25.8L272.08 35.368C266.36 35.368 262.616 35.68 262.304 35.68C259.6 35.992 257.624 38.28 257.832 40.984C258.04 43.688 260.432 45.664 263.136 45.456C263.136 45.456 265.528 45.248 269.376 45.144L260.536 78.528C259.912 81.128 261.368 83.832 264.072 84.456C264.488 84.664 264.904 84.664 265.32 84.664C267.4 84.664 269.376 83.208 270 81.024L279.568 45.144C285.08 45.248 291.528 45.56 298.184 46.392C298.392 46.392 298.6 46.392 298.808 46.392C301.304 46.392 303.384 44.624 303.696 42.128C304.008 39.424 302.136 37.032 299.432 36.72ZM342.714 31.52C340.114 30.688 337.41 32.04 336.474 34.64L334.498 40.672C332.938 34.016 330.65 27.464 327.218 24.864C325.658 23.72 323.786 23.2 321.914 23.512C313.594 24.76 297.058 62.824 294.874 71.456C294.146 74.056 292.586 80.088 296.642 83.104C297.37 83.728 298.618 84.664 300.906 84.664C304.962 84.664 312.242 81.44 325.554 66.88L321.706 78.216C320.77 80.712 322.122 83.52 324.722 84.352C325.242 84.56 325.762 84.664 326.282 84.664C328.362 84.664 330.234 83.416 330.962 81.336L345.73 37.76C346.666 35.264 345.314 32.456 342.714 31.52ZM304.442 73.12C307.146 63.656 317.234 43.168 322.746 35.368C323.994 38.8 325.45 44.728 326.386 50.864C318.378 60.64 309.538 69.48 304.442 73.12ZM410.185 64.28C409.561 61.68 406.961 60.016 404.361 60.64C397.601 62.096 389.801 63.76 384.913 64.696C386.993 56.48 392.817 39.528 398.329 24.968C399.369 22.472 398.121 19.56 395.521 18.624C393.025 17.688 390.217 18.936 389.281 21.432C372.017 66.568 373.993 70.312 375.033 72.288C375.761 73.64 377.113 74.576 378.569 74.992C378.777 74.992 379.193 75.096 379.921 75.096C382.105 75.096 387.929 74.368 406.545 70.104C409.145 69.584 410.809 66.88 410.185 64.28ZM455.599 44.416C453.623 44.312 451.751 44.208 449.879 44.104C449.879 32.664 449.567 24.552 448.839 21.224C448.423 19.248 447.071 13.424 441.871 13.008C435.423 12.488 432.511 20.08 425.231 38.384C424.399 40.464 423.567 42.648 422.631 44.936C410.775 45.976 404.223 47.848 403.703 47.952C401.103 48.68 399.647 51.384 400.375 53.984C400.999 56.168 402.975 57.52 405.055 57.52C405.471 57.52 405.991 57.52 406.407 57.312C406.511 57.312 410.671 56.168 418.367 55.232C415.039 62.72 411.503 70 407.655 75.512C406.199 77.696 406.719 80.712 409.007 82.272C411.191 83.832 414.207 83.312 415.767 81.024C420.863 73.64 425.439 63.76 429.391 54.192C432.719 53.984 436.255 53.88 440.103 53.776C440.103 57.728 440.103 61.68 440.103 65.32C439.999 70.312 439.999 74.992 439.999 79.048C439.999 81.752 442.183 83.936 444.887 83.936C447.591 83.936 449.775 81.752 449.775 79.048C449.775 74.992 449.775 70.312 449.879 65.32C449.879 61.368 449.879 57.52 449.879 53.984C451.543 53.984 453.311 54.088 455.079 54.192C457.679 54.296 460.071 52.216 460.175 49.512C460.279 46.808 458.303 44.52 455.599 44.416ZM433.447 44.208C433.759 43.48 434.071 42.648 434.383 42.024C436.151 37.552 438.127 32.56 439.791 28.712C439.999 32.56 440.103 38.072 440.103 44C437.815 44.104 435.631 44.104 433.447 44.208ZM515.429 19.976L513.869 17.688H511.165C507.733 17.688 505.861 20.08 497.957 30.584C490.157 40.88 476.325 59.392 466.757 64.176C469.357 55.648 481.629 34.848 493.381 17.688C494.941 15.504 494.317 12.384 492.133 10.928C489.949 9.368 486.829 9.888 485.373 12.176C450.949 62.096 456.149 69.584 457.813 72.08C458.645 73.224 461.245 76.032 466.549 74.68C476.013 72.392 486.413 61.264 497.229 47.536C493.173 57.52 488.181 69.064 483.293 80.088C482.253 82.584 483.293 85.392 485.789 86.536C486.413 86.848 487.141 86.952 487.765 86.952C489.637 86.952 491.405 85.808 492.237 84.04C518.549 24.656 517.093 22.472 515.429 19.976ZM560.947 14.152C560.947 11.448 558.763 9.368 556.059 9.368H555.955C553.251 9.368 551.171 11.552 551.171 14.256C551.171 14.568 551.379 39.008 551.379 57.832C548.779 50.032 545.347 38.8 540.667 22.264C539.939 19.976 537.859 12.904 531.827 13.008C528.603 13.112 520.075 13.424 508.427 69.064C507.907 71.768 509.571 74.368 512.275 74.888C514.875 75.408 517.475 73.744 517.995 71.144C521.739 53.464 527.355 33.288 531.411 25.488C546.387 78.424 550.235 83.208 554.291 83.208C554.811 83.208 555.227 83.208 555.643 83.104C558.971 82.688 560.739 80.088 560.843 75.304C561.467 60.64 560.947 16.024 560.947 14.152ZM611.28 3.96C608.68 3.232 605.976 4.688 605.144 7.288L602.544 16.128C600.984 15.192 599.528 14.88 598.592 14.776C586.424 13.528 569.056 34.952 564.896 51.904C561.568 65.424 567.288 71.04 570.928 73.224C573.632 74.784 576.648 75.408 579.872 75.408C585.8 75.408 592.144 73.016 595.784 69.48C600.984 64.696 604.832 57.52 606.184 54.608C607.432 52.216 606.392 49.304 604 48.056C601.504 46.912 598.592 47.848 597.448 50.344C595.576 54.088 592.352 59.288 589.128 62.408C586.32 65.008 579.248 66.672 575.92 64.8C572.904 63.032 573.424 58.04 574.36 54.192C578.416 37.864 593.704 23.616 597.448 24.344C597.448 24.448 598.28 25.28 598.384 28.712C598.384 29.024 598.384 29.336 598.488 29.648L597.864 31.832C597.032 34.432 598.488 37.136 601.088 37.864C601.608 38.072 602.024 38.072 602.544 38.072C604.624 38.072 606.496 36.72 607.224 34.64L614.504 10.096C615.336 7.496 613.88 4.792 611.28 3.96ZM643.395 17.688C640.795 17.168 638.299 19.04 637.779 21.64L634.451 42.024L622.907 43.584L629.147 23.928C629.979 21.432 628.627 18.624 626.027 17.792C623.427 16.96 620.723 18.416 619.891 21.016L604.499 69.168C603.667 71.768 605.123 74.472 607.619 75.304C608.139 75.512 608.659 75.512 609.179 75.512C611.259 75.512 613.131 74.264 613.755 72.184L619.579 53.984L632.787 52.112L627.587 83.728C627.171 86.328 628.939 88.824 631.643 89.344C631.955 89.344 632.163 89.344 632.475 89.344C634.763 89.344 636.843 87.68 637.259 85.288L647.451 23.304C647.867 20.6 646.099 18.104 643.395 17.688ZM287.142 289.672C274.454 292.064 265.406 294.456 257.502 296.432C255.526 296.952 253.654 297.368 251.782 297.888C253.55 296.224 255.422 294.56 256.774 293.416C260.518 290.088 263.638 287.28 265.406 285.304C267.486 282.912 267.486 280.52 266.654 278.856C269.774 276.36 272.582 273.344 274.87 269.808C283.814 255.456 280.902 237.464 268.422 229.664C255.942 221.864 238.574 227.272 229.63 241.52C220.686 255.872 223.598 273.864 235.974 281.664C232.022 282.912 227.55 284.472 222.35 286.24C219.75 287.176 218.398 289.88 219.334 292.48C220.27 295.08 222.974 296.328 225.574 295.496C232.854 292.896 241.07 290.296 247.726 288.32C237.326 297.68 233.27 301.944 235.662 306.728C236.806 308.912 238.782 309.952 241.59 309.952C242.63 309.952 243.774 309.848 244.918 309.536C250.118 308.392 254.902 307.248 259.894 305.896C268.11 303.816 276.534 301.632 289.014 299.24C291.614 298.824 293.382 296.224 292.862 293.52C292.342 290.92 289.846 289.152 287.142 289.672ZM241.174 273.344C233.374 268.456 231.814 256.496 237.95 246.72C242.214 239.856 249.182 235.904 255.63 235.904C258.334 235.904 260.934 236.528 263.326 237.984C271.126 242.872 272.686 254.832 266.55 264.608C260.518 274.384 249.078 278.232 241.174 273.344ZM255.422 242.248C252.822 241.312 250.014 242.664 249.182 245.16L243.462 261.176C242.63 263.672 243.878 266.48 246.478 267.416C246.998 267.624 247.518 267.728 248.142 267.728C250.118 267.728 251.99 266.48 252.718 264.4L258.334 248.488C259.27 245.888 257.918 243.08 255.422 242.248ZM322.645 227.896C319.733 225.92 316.717 225.504 302.157 238.608C300.181 240.376 299.973 243.496 301.845 245.472C303.613 247.448 306.733 247.656 308.709 245.888C309.437 245.16 310.269 244.536 311.101 243.808C306.421 257.12 299.661 276.672 297.581 282.808L293.109 282.912C290.405 283.016 288.221 285.304 288.325 288.008C288.429 290.608 290.613 292.688 293.213 292.688H293.317L310.061 292.272C312.765 292.168 314.845 289.88 314.845 287.176C314.741 284.472 312.453 282.392 309.749 282.496H308.085C312.349 270.016 322.749 239.752 324.517 234.968C326.181 230.496 323.269 228.312 322.645 227.896ZM399.777 281.248C390.937 281.976 380.953 282.704 373.673 282.912C419.121 245.68 415.273 237.984 413.401 234.136C410.073 227.688 398.321 228.208 388.961 229.768C383.969 230.704 358.905 235.592 357.241 248.696C356.409 255.144 361.505 260.864 372.217 265.544C374.609 266.688 377.521 265.544 378.665 263.048C379.705 260.552 378.561 257.744 376.169 256.6C368.681 253.376 367.017 250.776 366.913 250.048C366.913 249.632 367.641 248.072 371.073 245.992C380.953 239.96 398.633 237.568 404.041 238.816C402.689 242.04 395.617 252.96 359.737 281.56L358.801 282.288C356.409 284.264 356.305 286.864 357.033 288.632C357.865 290.816 358.697 292.792 370.657 292.792C377.001 292.792 386.465 292.272 400.713 290.92C403.417 290.712 405.393 288.32 405.185 285.616C404.873 282.912 402.481 280.936 399.777 281.248ZM465.417 250.256C463.961 242.04 459.697 235.696 453.145 232.16C446.697 228.728 438.897 228.624 431.409 231.952C424.233 235.176 418.097 241.104 414.041 248.696C409.881 256.288 408.425 264.712 409.673 272.408C411.025 280.624 415.393 287.072 421.841 290.504C425.169 292.272 428.809 293.208 432.553 293.208C436.193 293.208 439.937 292.376 443.681 290.712C450.753 287.488 456.993 281.56 461.049 273.968C465.105 266.376 466.665 257.952 465.417 250.256ZM426.521 281.872C422.673 279.896 420.177 275.944 419.345 270.848C418.409 265.232 419.553 258.992 422.673 253.376C424.337 250.152 426.521 247.344 429.121 245.056L437.025 282.704C433.177 283.744 429.537 283.536 426.521 281.872ZM452.417 269.288C450.649 272.512 448.465 275.32 445.969 277.608L437.961 239.96C439.521 239.544 441.081 239.336 442.537 239.336C444.617 239.336 446.697 239.752 448.569 240.792C452.313 242.768 454.913 246.72 455.745 251.816C456.681 257.432 455.433 263.672 452.417 269.288ZM511.297 281.248C502.457 281.976 492.473 282.704 485.193 282.912C530.641 245.68 526.793 237.984 524.921 234.136C521.593 227.688 509.841 228.208 500.481 229.768C495.489 230.704 470.425 235.592 468.761 248.696C467.929 255.144 473.025 260.864 483.737 265.544C486.129 266.688 489.041 265.544 490.185 263.048C491.225 260.552 490.081 257.744 487.689 256.6C480.201 253.376 478.537 250.776 478.433 250.048C478.433 249.632 479.161 248.072 482.593 245.992C492.473 239.96 510.153 237.568 515.561 238.816C514.209 242.04 507.137 252.96 471.257 281.56L470.321 282.288C467.929 284.264 467.825 286.864 468.553 288.632C469.385 290.816 470.217 292.792 482.177 292.792C488.521 292.792 497.985 292.272 512.233 290.92C514.937 290.712 516.913 288.32 516.705 285.616C516.393 282.912 514.001 280.936 511.297 281.248ZM568.021 281.248C559.181 281.976 549.197 282.704 541.917 282.912C587.365 245.68 583.517 237.984 581.645 234.136C578.317 227.688 566.565 228.208 557.205 229.768C552.213 230.704 527.149 235.592 525.485 248.696C524.653 255.144 529.749 260.864 540.461 265.544C542.853 266.688 545.765 265.544 546.909 263.048C547.949 260.552 546.805 257.744 544.413 256.6C536.925 253.376 535.261 250.776 535.157 250.048C535.157 249.632 535.885 248.072 539.317 245.992C549.197 239.96 566.877 237.568 572.285 238.816C570.933 242.04 563.861 252.96 527.981 281.56L527.045 282.288C524.653 284.264 524.549 286.864 525.277 288.632C526.109 290.816 526.941 292.792 538.901 292.792C545.245 292.792 554.709 292.272 568.957 290.92C571.661 290.712 573.637 288.32 573.429 285.616C573.117 282.912 570.725 280.936 568.021 281.248Z" fill="white"/>
<path d="M64.4486 106.16C61.0986 105.222 57.6146 107.098 56.5426 110.448L53.1926 121.838C51.1826 120.632 49.3066 120.23 48.1006 120.096C32.4226 118.488 10.0446 146.092 4.68464 167.934C0.396635 185.354 7.76663 192.59 12.4566 195.404C15.9406 197.414 19.8266 198.218 23.9806 198.218C31.6186 198.218 39.7926 195.136 44.4826 190.58C51.1826 184.416 56.1406 175.17 57.8826 171.418C59.4906 168.336 58.1506 164.584 55.0686 162.976C51.8526 161.502 48.1006 162.708 46.6266 165.924C44.2146 170.748 40.0606 177.448 35.9066 181.468C32.2886 184.818 23.1766 186.962 18.8886 184.55C15.0026 182.272 15.6726 175.84 16.8786 170.882C22.1046 149.844 41.8026 131.486 46.6266 132.424C46.6266 132.558 47.6986 133.63 47.8326 138.052C47.8326 138.454 47.8326 138.856 47.9666 139.258L47.1626 142.072C46.0906 145.422 47.9666 148.906 51.3166 149.844C51.9866 150.112 52.5226 150.112 53.1926 150.112C55.8726 150.112 58.2846 148.37 59.2226 145.69L68.6026 114.066C69.6746 110.716 67.7986 107.232 64.4486 106.16ZM117.062 126.394C100.982 116.344 78.6045 123.312 67.0805 141.67C55.5565 160.162 59.3085 183.344 75.3885 193.394C80.3465 196.476 85.9745 197.95 91.7365 197.95C104.332 197.95 117.464 190.714 125.37 178.118C136.894 159.626 133.142 136.444 117.062 126.394ZM114.65 171.418C106.878 184.014 92.1385 188.972 81.9545 182.674C71.7705 176.376 69.8945 160.966 77.8005 148.37C83.2945 139.526 92.2725 134.434 100.58 134.434C104.064 134.434 107.414 135.238 110.362 137.114C120.546 143.412 122.422 158.822 114.65 171.418ZM100.312 142.608C96.9625 141.402 93.3445 143.144 92.2725 146.36L84.9025 166.996C83.6965 170.212 85.4385 173.83 88.7885 175.036C89.4585 175.304 90.1285 175.438 90.7985 175.438C93.4785 175.438 95.8905 173.83 96.8285 171.15L104.064 150.648C105.27 147.298 103.528 143.68 100.312 142.608ZM90.7985 115.942H115.856C119.34 115.942 122.154 113.128 122.154 109.644C122.154 106.16 119.34 103.346 115.856 103.346H90.7985C87.3145 103.346 84.5005 106.16 84.5005 109.644C84.5005 113.128 87.3145 115.942 90.7985 115.942ZM174.254 183.88C173.45 180.53 170.1 178.386 166.75 179.19C158.04 181.066 147.99 183.21 141.692 184.416C144.372 173.83 151.876 151.988 158.978 133.228C160.318 130.012 158.71 126.26 155.36 125.054C152.144 123.848 148.526 125.456 147.32 128.672C125.076 186.828 127.622 191.652 128.962 194.198C129.9 195.94 131.642 197.146 133.518 197.682C133.786 197.682 134.322 197.816 135.26 197.816C138.074 197.816 145.578 196.878 169.564 191.384C172.914 190.714 175.058 187.23 174.254 183.88ZM218.684 183.88C217.88 180.53 214.53 178.386 211.18 179.19C202.47 181.066 192.42 183.21 186.122 184.416C188.802 173.83 196.306 151.988 203.408 133.228C204.748 130.012 203.14 126.26 199.79 125.054C196.574 123.848 192.956 125.456 191.75 128.672C169.506 186.828 172.052 191.652 173.392 194.198C174.33 195.94 176.072 197.146 177.948 197.682C178.216 197.682 178.752 197.816 179.69 197.816C182.504 197.816 190.008 196.878 213.994 191.384C217.344 190.714 219.488 187.23 218.684 183.88ZM277.198 158.286C274.652 158.152 272.24 158.018 269.828 157.884C269.828 143.144 269.426 132.692 268.488 128.404C267.952 125.858 266.21 118.354 259.51 117.818C251.202 117.148 247.45 126.93 238.07 150.514C236.998 153.194 235.926 156.008 234.72 158.956C219.444 160.296 211.002 162.708 210.332 162.842C206.982 163.78 205.106 167.264 206.044 170.614C206.848 173.428 209.394 175.17 212.074 175.17C212.61 175.17 213.28 175.17 213.816 174.902C213.95 174.902 219.31 173.428 229.226 172.222C224.938 181.87 220.382 191.25 215.424 198.352C213.548 201.166 214.218 205.052 217.166 207.062C219.98 209.072 223.866 208.402 225.876 205.454C232.442 195.94 238.338 183.21 243.43 170.882C247.718 170.614 252.274 170.48 257.232 170.346C257.232 175.438 257.232 180.53 257.232 185.22C257.098 191.652 257.098 197.682 257.098 202.908C257.098 206.392 259.912 209.206 263.396 209.206C266.88 209.206 269.694 206.392 269.694 202.908C269.694 197.682 269.694 191.652 269.828 185.22C269.828 180.128 269.828 175.17 269.828 170.614C271.972 170.614 274.25 170.748 276.528 170.882C279.878 171.016 282.96 168.336 283.094 164.852C283.228 161.368 280.682 158.42 277.198 158.286ZM248.656 158.018C249.058 157.08 249.46 156.008 249.862 155.204C252.14 149.442 254.686 143.01 256.83 138.052C257.098 143.01 257.232 150.112 257.232 157.75C254.284 157.884 251.47 157.884 248.656 158.018ZM371.714 120.766C371.714 118.488 370.642 116.478 368.9 115.138C367.292 113.664 363.272 110.448 326.824 116.344L328.7 110.314C329.638 106.964 327.762 103.48 324.412 102.542C321.196 101.47 317.578 103.346 316.64 106.696L313.022 118.756C304.982 120.23 295.736 121.972 285.016 124.25C281.666 124.92 279.522 128.27 280.192 131.62C280.862 135.104 284.212 137.248 287.696 136.578C294.53 135.104 301.766 133.63 308.868 132.424L292.922 185.354C288.098 185.354 283.81 185.354 280.326 185.086C276.842 184.818 273.894 187.498 273.626 190.982C273.492 194.466 276.038 197.414 279.522 197.682C280.862 197.682 284.614 197.816 289.84 197.816C307.126 197.816 339.956 196.61 347.594 189.508C349.47 187.9 350.408 185.756 350.408 183.478C350.408 176.108 333.926 167.13 320.526 161.502C325.484 158.554 331.916 154.4 340.492 148.638C371.714 127.6 371.714 123.848 371.714 120.766ZM333.39 182.004C326.958 183.344 316.64 184.416 306.322 184.952L310.476 170.882C317.31 173.562 327.226 178.386 333.39 182.004ZM317.042 148.906L322.804 129.878C333.658 128.002 343.574 126.662 350.81 125.858C341.698 132.692 327.762 142.34 317.042 148.906ZM422.959 126.394C406.879 116.344 384.501 123.312 372.977 141.67C361.453 160.162 365.205 183.344 381.285 193.394C386.243 196.476 391.871 197.95 397.633 197.95C410.229 197.95 423.361 190.714 431.267 178.118C442.791 159.626 439.039 136.444 422.959 126.394ZM420.547 171.418C412.775 184.014 398.035 188.972 387.851 182.674C377.667 176.376 375.791 160.966 383.697 148.37C389.191 139.526 398.169 134.434 406.477 134.434C409.961 134.434 413.311 135.238 416.259 137.114C426.443 143.412 428.319 158.822 420.547 171.418ZM406.209 142.608C402.859 141.402 399.241 143.144 398.169 146.36L390.799 166.996C389.593 170.212 391.335 173.83 394.685 175.036C395.355 175.304 396.025 175.438 396.695 175.438C399.375 175.438 401.787 173.83 402.725 171.15L409.961 150.648C411.167 147.298 409.425 143.68 406.209 142.608ZM396.695 115.942H421.753C425.237 115.942 428.051 113.128 428.051 109.644C428.051 106.16 425.237 103.346 421.753 103.346H396.695C393.211 103.346 390.397 106.16 390.397 109.644C390.397 113.128 393.211 115.942 396.695 115.942ZM516.465 127.064C516.599 123.982 515.527 118.354 507.621 114.468C478.141 100.264 444.105 111.52 442.631 111.922C439.415 113.128 437.539 116.612 438.745 119.962C439.817 123.312 443.435 125.054 446.651 123.982C446.785 123.848 450.805 122.642 457.103 121.436L443.971 162.306C443.569 162.44 443.033 162.708 442.631 162.842C439.415 164.182 437.807 167.8 439.147 171.016C439.415 171.82 439.951 172.49 440.487 173.026L435.127 189.508C434.055 192.858 435.931 196.476 439.281 197.414C439.951 197.682 440.487 197.816 441.157 197.816C443.837 197.816 446.383 196.074 447.187 193.394L453.485 173.964L478.275 214.7C479.481 216.71 481.491 217.782 483.635 217.782C484.707 217.782 485.913 217.514 486.851 216.844C489.933 215.102 490.871 211.216 488.995 208.268L464.205 167.264C486.851 156.946 516.063 141 516.465 127.064ZM459.381 155.606L470.771 119.962C480.553 119.694 491.809 120.9 502.127 125.858C503.065 126.26 503.601 126.662 503.869 126.93C502.529 132.29 483.501 144.35 459.381 155.606ZM568.501 158.286C565.955 158.152 563.543 158.018 561.131 157.884C561.131 143.144 560.729 132.692 559.791 128.404C559.255 125.858 557.513 118.354 550.813 117.818C542.505 117.148 538.753 126.93 529.373 150.514C528.301 153.194 527.229 156.008 526.023 158.956C510.747 160.296 502.305 162.708 501.635 162.842C498.285 163.78 496.409 167.264 497.347 170.614C498.151 173.428 500.697 175.17 503.377 175.17C503.913 175.17 504.583 175.17 505.119 174.902C505.253 174.902 510.613 173.428 520.529 172.222C516.241 181.87 511.685 191.25 506.727 198.352C504.851 201.166 505.521 205.052 508.469 207.062C511.283 209.072 515.169 208.402 517.179 205.454C523.745 195.94 529.641 183.21 534.733 170.882C539.021 170.614 543.577 170.48 548.535 170.346C548.535 175.438 548.535 180.53 548.535 185.22C548.401 191.652 548.401 197.682 548.401 202.908C548.401 206.392 551.215 209.206 554.699 209.206C558.183 209.206 560.997 206.392 560.997 202.908C560.997 197.682 560.997 191.652 561.131 185.22C561.131 180.128 561.131 175.17 561.131 170.614C563.275 170.614 565.553 170.748 567.831 170.882C571.181 171.016 574.263 168.336 574.397 164.852C574.531 161.368 571.985 158.42 568.501 158.286ZM539.959 158.018C540.361 157.08 540.763 156.008 541.165 155.204C543.443 149.442 545.989 143.01 548.133 138.052C548.401 143.01 548.535 150.112 548.535 157.75C545.587 157.884 542.773 157.884 539.959 158.018ZM682.876 99.46C650.046 96.914 562.946 107.232 559.194 107.634C555.844 108.036 553.298 111.118 553.7 114.602C554.102 117.818 556.782 120.23 559.998 120.23C560.266 120.23 560.534 120.096 560.668 120.096C561.07 120.096 574.872 118.488 593.498 116.612L568.574 189.642C567.502 192.992 569.244 196.476 572.46 197.682C573.13 197.95 573.8 197.95 574.47 197.95C577.15 197.95 579.562 196.342 580.5 193.796L607.3 115.272C634.1 112.86 665.59 110.716 681.804 112.056C685.288 112.19 688.37 109.644 688.638 106.294C688.906 102.81 686.226 99.728 682.876 99.46ZM654.853 126.394C638.773 116.344 616.395 123.312 604.871 141.67C593.347 160.162 597.099 183.344 613.179 193.394C618.137 196.476 623.765 197.95 629.527 197.95C642.123 197.95 655.255 190.714 663.161 178.118C674.685 159.626 670.933 136.444 654.853 126.394ZM652.441 171.418C644.669 184.014 629.929 188.972 619.745 182.674C609.561 176.376 607.685 160.966 615.591 148.37C621.085 139.526 630.063 134.434 638.371 134.434C641.855 134.434 645.205 135.238 648.153 137.114C658.337 143.412 660.213 158.822 652.441 171.418ZM638.103 142.608C634.753 141.402 631.135 143.144 630.063 146.36L622.693 166.996C621.487 170.212 623.229 173.83 626.579 175.036C627.249 175.304 627.919 175.438 628.589 175.438C631.269 175.438 633.681 173.83 634.619 171.15L641.855 150.648C643.061 147.298 641.319 143.68 638.103 142.608ZM628.589 115.942H653.647C657.131 115.942 659.945 113.128 659.945 109.644C659.945 106.16 657.131 103.346 653.647 103.346H628.589C625.105 103.346 622.291 106.16 622.291 109.644C622.291 113.128 625.105 115.942 628.589 115.942ZM748.358 127.064C748.492 123.982 747.42 118.354 739.514 114.468C710.034 100.264 675.998 111.52 674.524 111.922C671.308 113.128 669.432 116.612 670.638 119.962C671.71 123.312 675.328 125.054 678.544 123.982C678.678 123.848 682.698 122.642 688.996 121.436L675.864 162.306C675.462 162.44 674.926 162.708 674.524 162.842C671.308 164.182 669.7 167.8 671.04 171.016C671.308 171.82 671.844 172.49 672.38 173.026L667.02 189.508C665.948 192.858 667.824 196.476 671.174 197.414C671.844 197.682 672.38 197.816 673.05 197.816C675.73 197.816 678.276 196.074 679.08 193.394L685.378 173.964L710.168 214.7C711.374 216.71 713.384 217.782 715.528 217.782C716.6 217.782 717.806 217.514 718.744 216.844C721.826 215.102 722.764 211.216 720.888 208.268L696.098 167.264C718.744 156.946 747.956 141 748.358 127.064ZM691.274 155.606L702.664 119.962C712.446 119.694 723.702 120.9 734.02 125.858C734.958 126.26 735.494 126.662 735.762 126.93C734.422 132.29 715.394 144.35 691.274 155.606ZM746.489 170.212C746.221 170.212 745.819 170.212 745.551 170.212C751.849 162.574 773.557 147.164 788.029 138.99C786.153 143.412 783.339 149.174 780.257 154.4C778.515 157.348 779.587 161.234 782.535 162.976C785.617 164.718 789.503 163.78 791.245 160.698C807.325 133.094 802.501 127.868 800.491 125.59C798.883 123.848 795.131 121.436 788.431 124.652C787.761 124.92 727.461 157.08 731.615 174.634C732.821 180.128 737.779 182.808 746.623 182.808C758.951 182.674 767.393 183.612 772.753 184.55C761.899 188.302 744.211 192.322 736.573 191.25C733.223 190.848 730.007 193.26 729.471 196.744C729.069 200.094 731.481 203.31 734.965 203.712C736.171 203.98 737.645 203.98 739.253 203.98C753.993 203.98 778.917 196.744 786.421 192.456C792.853 188.838 792.049 183.612 791.513 182.138C789.369 173.964 774.227 169.944 746.489 170.212Z" fill="#E5986E"/>
</svg>
