<svg width="493" height="254" viewBox="0 0 493 254" fill="none" xmlns="http://www.w3.org/2000/svg">
<path d="M76.718 15.296C76.718 13.528 75.886 11.968 74.534 10.928C73.286 9.78399 70.166 7.288 41.878 11.864L43.334 7.184C44.062 4.584 42.606 1.88 40.006 1.15199C37.51 0.319999 34.702 1.776 33.974 4.376L31.166 13.736C24.926 14.88 17.75 16.232 9.42996 18C6.82996 18.52 5.16596 21.12 5.68596 23.72C6.20596 26.424 8.80596 28.088 11.51 27.568C16.814 26.424 22.43 25.28 27.942 24.344L15.566 65.424C11.822 65.424 8.49396 65.424 5.78996 65.216C3.08596 65.008 0.797963 67.088 0.589963 69.792C0.485963 72.496 2.46196 74.784 5.16596 74.992C6.20596 74.992 9.11796 75.096 13.174 75.096C26.59 75.096 52.07 74.16 57.998 68.648C59.454 67.4 60.182 65.736 60.182 63.968C60.182 58.248 47.39 51.28 36.99 46.912C40.838 44.624 45.83 41.4 52.486 36.928C76.718 20.6 76.718 17.688 76.718 15.296ZM46.974 62.824C41.982 63.864 33.974 64.696 25.966 65.112L29.19 54.192C34.494 56.272 42.19 60.016 46.974 62.824ZM34.286 37.136L38.758 22.368C47.182 20.912 54.878 19.872 60.494 19.248C53.422 24.552 42.606 32.04 34.286 37.136ZM92.1693 43.584C92.8973 46.184 95.4973 47.64 98.2013 46.912C100.801 46.184 102.257 43.48 101.529 40.88C98.6173 30.168 95.1853 28.712 92.4813 28.608C84.1613 28.192 64.9213 43.064 61.3853 46.808C60.7613 47.432 59.0973 49.304 59.4093 51.8C59.9293 55.856 62.8413 56.688 76.5693 61.056C76.9853 61.16 77.4013 61.264 77.9213 61.472C77.2973 61.784 76.7773 62.096 76.2573 62.304C58.6813 71.976 54.9373 74.368 54.9373 78.632C54.9373 80.088 55.5613 81.544 56.7053 82.584C57.7453 83.624 59.6173 85.392 75.7373 85.392C80.4173 85.392 86.3453 85.184 93.8333 84.872C96.5373 84.664 98.6173 82.376 98.5133 79.776C98.4093 77.072 96.0173 74.888 93.4173 75.096C86.4493 75.408 78.7533 75.616 72.7213 75.512C75.6333 73.848 78.6493 72.184 80.9373 70.936C93.0013 64.28 94.4573 63.448 93.8333 59.496C93.2093 55.96 91.4413 55.44 79.4813 51.696C77.6093 51.072 75.2173 50.344 73.0333 49.616C78.2333 45.56 86.2413 40.256 90.4013 38.8C91.0253 40.048 91.6493 41.92 92.1693 43.584ZM144.432 36.72C138.296 35.888 132.368 35.576 127.168 35.368L129.04 28.296C129.768 25.696 128.208 22.992 125.608 22.264C122.904 21.64 120.304 23.2 119.576 25.8L117.08 35.368C111.36 35.368 107.616 35.68 107.304 35.68C104.6 35.992 102.624 38.28 102.832 40.984C103.04 43.688 105.432 45.664 108.136 45.456C108.136 45.456 110.528 45.248 114.376 45.144L105.536 78.528C104.912 81.128 106.368 83.832 109.072 84.456C109.488 84.664 109.904 84.664 110.32 84.664C112.4 84.664 114.376 83.208 115 81.024L124.568 45.144C130.08 45.248 136.528 45.56 143.184 46.392C143.392 46.392 143.6 46.392 143.808 46.392C146.304 46.392 148.384 44.624 148.696 42.128C149.008 39.424 147.136 37.032 144.432 36.72ZM187.714 31.52C185.114 30.688 182.41 32.04 181.474 34.64L179.498 40.672C177.938 34.016 175.65 27.464 172.218 24.864C170.658 23.72 168.786 23.2 166.914 23.512C158.594 24.76 142.058 62.824 139.874 71.456C139.146 74.056 137.586 80.088 141.642 83.104C142.37 83.728 143.618 84.664 145.906 84.664C149.962 84.664 157.242 81.44 170.554 66.88L166.706 78.216C165.77 80.712 167.122 83.52 169.722 84.352C170.242 84.56 170.762 84.664 171.282 84.664C173.362 84.664 175.234 83.416 175.962 81.336L190.73 37.76C191.666 35.264 190.314 32.456 187.714 31.52ZM149.442 73.12C152.146 63.656 162.234 43.168 167.746 35.368C168.994 38.8 170.45 44.728 171.386 50.864C163.378 60.64 154.538 69.48 149.442 73.12ZM255.185 64.28C254.561 61.68 251.961 60.016 249.361 60.64C242.601 62.096 234.801 63.76 229.913 64.696C231.993 56.48 237.817 39.528 243.329 24.968C244.369 22.472 243.121 19.56 240.521 18.624C238.025 17.688 235.217 18.936 234.281 21.432C217.017 66.568 218.993 70.312 220.033 72.288C220.761 73.64 222.113 74.576 223.569 74.992C223.777 74.992 224.193 75.096 224.921 75.096C227.105 75.096 232.929 74.368 251.545 70.104C254.145 69.584 255.809 66.88 255.185 64.28ZM300.599 44.416C298.623 44.312 296.751 44.208 294.879 44.104C294.879 32.664 294.567 24.552 293.839 21.224C293.423 19.248 292.071 13.424 286.871 13.008C280.423 12.488 277.511 20.08 270.231 38.384C269.399 40.464 268.567 42.648 267.631 44.936C255.775 45.976 249.223 47.848 248.703 47.952C246.103 48.68 244.647 51.384 245.375 53.984C245.999 56.168 247.975 57.52 250.055 57.52C250.471 57.52 250.991 57.52 251.407 57.312C251.511 57.312 255.671 56.168 263.367 55.232C260.039 62.72 256.503 70 252.655 75.512C251.199 77.696 251.719 80.712 254.007 82.272C256.191 83.832 259.207 83.312 260.767 81.024C265.863 73.64 270.439 63.76 274.391 54.192C277.719 53.984 281.255 53.88 285.103 53.776C285.103 57.728 285.103 61.68 285.103 65.32C284.999 70.312 284.999 74.992 284.999 79.048C284.999 81.752 287.183 83.936 289.887 83.936C292.591 83.936 294.775 81.752 294.775 79.048C294.775 74.992 294.775 70.312 294.879 65.32C294.879 61.368 294.879 57.52 294.879 53.984C296.543 53.984 298.311 54.088 300.079 54.192C302.679 54.296 305.071 52.216 305.175 49.512C305.279 46.808 303.303 44.52 300.599 44.416ZM278.447 44.208C278.759 43.48 279.071 42.648 279.383 42.024C281.151 37.552 283.127 32.56 284.791 28.712C284.999 32.56 285.103 38.072 285.103 44C282.815 44.104 280.631 44.104 278.447 44.208ZM360.429 19.976L358.869 17.688H356.165C352.733 17.688 350.861 20.08 342.957 30.584C335.157 40.88 321.325 59.392 311.757 64.176C314.357 55.648 326.629 34.848 338.381 17.688C339.941 15.504 339.317 12.384 337.133 10.928C334.949 9.368 331.829 9.888 330.373 12.176C295.949 62.096 301.149 69.584 302.813 72.08C303.645 73.224 306.245 76.032 311.549 74.68C321.013 72.392 331.413 61.264 342.229 47.536C338.173 57.52 333.181 69.064 328.293 80.088C327.253 82.584 328.293 85.392 330.789 86.536C331.413 86.848 332.141 86.952 332.765 86.952C334.637 86.952 336.405 85.808 337.237 84.04C363.549 24.656 362.093 22.472 360.429 19.976ZM405.947 14.152C405.947 11.448 403.763 9.368 401.059 9.368H400.955C398.251 9.368 396.171 11.552 396.171 14.256C396.171 14.568 396.379 39.008 396.379 57.832C393.779 50.032 390.347 38.8 385.667 22.264C384.939 19.976 382.859 12.904 376.827 13.008C373.603 13.112 365.075 13.424 353.427 69.064C352.907 71.768 354.571 74.368 357.275 74.888C359.875 75.408 362.475 73.744 362.995 71.144C366.739 53.464 372.355 33.288 376.411 25.488C391.387 78.424 395.235 83.208 399.291 83.208C399.811 83.208 400.227 83.208 400.643 83.104C403.971 82.688 405.739 80.088 405.843 75.304C406.467 60.64 405.947 16.024 405.947 14.152ZM456.28 3.96C453.68 3.232 450.976 4.688 450.144 7.288L447.544 16.128C445.984 15.192 444.528 14.88 443.592 14.776C431.424 13.528 414.056 34.952 409.896 51.904C406.568 65.424 412.288 71.04 415.928 73.224C418.632 74.784 421.648 75.408 424.872 75.408C430.8 75.408 437.144 73.016 440.784 69.48C445.984 64.696 449.832 57.52 451.184 54.608C452.432 52.216 451.392 49.304 449 48.056C446.504 46.912 443.592 47.848 442.448 50.344C440.576 54.088 437.352 59.288 434.128 62.408C431.32 65.008 424.248 66.672 420.92 64.8C417.904 63.032 418.424 58.04 419.36 54.192C423.416 37.864 438.704 23.616 442.448 24.344C442.448 24.448 443.28 25.28 443.384 28.712C443.384 29.024 443.384 29.336 443.488 29.648L442.864 31.832C442.032 34.432 443.488 37.136 446.088 37.864C446.608 38.072 447.024 38.072 447.544 38.072C449.624 38.072 451.496 36.72 452.224 34.64L459.504 10.096C460.336 7.496 458.88 4.792 456.28 3.96ZM488.395 17.688C485.795 17.168 483.299 19.04 482.779 21.64L479.451 42.024L467.907 43.584L474.147 23.928C474.979 21.432 473.627 18.624 471.027 17.792C468.427 16.96 465.723 18.416 464.891 21.016L449.499 69.168C448.667 71.768 450.123 74.472 452.619 75.304C453.139 75.512 453.659 75.512 454.179 75.512C456.259 75.512 458.131 74.264 458.755 72.184L464.579 53.984L477.787 52.112L472.587 83.728C472.171 86.328 473.939 88.824 476.643 89.344C476.955 89.344 477.163 89.344 477.475 89.344C479.763 89.344 481.843 87.68 482.259 85.288L492.451 23.304C492.867 20.6 491.099 18.104 488.395 17.688ZM178.631 241.248C169.791 241.976 159.807 242.704 152.527 242.912C197.975 205.68 194.127 197.984 192.255 194.136C188.927 187.688 177.175 188.208 167.815 189.768C162.823 190.704 137.759 195.592 136.095 208.696C135.263 215.144 140.359 220.864 151.071 225.544C153.463 226.688 156.375 225.544 157.519 223.048C158.559 220.552 157.415 217.744 155.023 216.6C147.535 213.376 145.871 210.776 145.767 210.048C145.767 209.632 146.495 208.072 149.927 205.992C159.807 199.96 177.487 197.568 182.895 198.816C181.543 202.04 174.471 212.96 138.591 241.56L137.655 242.288C135.263 244.264 135.159 246.864 135.887 248.632C136.719 250.816 137.551 252.792 149.511 252.792C155.855 252.792 165.319 252.272 179.567 250.92C182.271 250.712 184.247 248.32 184.039 245.616C183.727 242.912 181.335 240.936 178.631 241.248ZM244.272 210.256C242.816 202.04 238.552 195.696 232 192.16C225.552 188.728 217.752 188.624 210.264 191.952C203.088 195.176 196.952 201.104 192.896 208.696C188.736 216.288 187.28 224.712 188.528 232.408C189.88 240.624 194.248 247.072 200.696 250.504C204.024 252.272 207.664 253.208 211.408 253.208C215.048 253.208 218.792 252.376 222.536 250.712C229.608 247.488 235.848 241.56 239.904 233.968C243.96 226.376 245.52 217.952 244.272 210.256ZM205.376 241.872C201.528 239.896 199.032 235.944 198.2 230.848C197.264 225.232 198.408 218.992 201.528 213.376C203.192 210.152 205.376 207.344 207.976 205.056L215.88 242.704C212.032 243.744 208.392 243.536 205.376 241.872ZM231.272 229.288C229.504 232.512 227.32 235.32 224.824 237.608L216.816 199.96C218.376 199.544 219.936 199.336 221.392 199.336C223.472 199.336 225.552 199.752 227.424 200.792C231.168 202.768 233.768 206.72 234.6 211.816C235.536 217.432 234.288 223.672 231.272 229.288ZM290.151 241.248C281.311 241.976 271.327 242.704 264.047 242.912C309.495 205.68 305.647 197.984 303.775 194.136C300.447 187.688 288.695 188.208 279.335 189.768C274.343 190.704 249.279 195.592 247.615 208.696C246.783 215.144 251.879 220.864 262.591 225.544C264.983 226.688 267.895 225.544 269.039 223.048C270.079 220.552 268.935 217.744 266.543 216.6C259.055 213.376 257.391 210.776 257.287 210.048C257.287 209.632 258.015 208.072 261.447 205.992C271.327 199.96 289.007 197.568 294.415 198.816C293.063 202.04 285.991 212.96 250.111 241.56L249.175 242.288C246.783 244.264 246.679 246.864 247.407 248.632C248.239 250.816 249.071 252.792 261.031 252.792C267.375 252.792 276.839 252.272 291.087 250.92C293.791 250.712 295.767 248.32 295.559 245.616C295.247 242.912 292.855 240.936 290.151 241.248ZM346.876 241.248C338.036 241.976 328.052 242.704 320.772 242.912C366.22 205.68 362.372 197.984 360.5 194.136C357.172 187.688 345.42 188.208 336.06 189.768C331.068 190.704 306.004 195.592 304.34 208.696C303.508 215.144 308.604 220.864 319.316 225.544C321.708 226.688 324.62 225.544 325.764 223.048C326.804 220.552 325.66 217.744 323.268 216.6C315.78 213.376 314.116 210.776 314.012 210.048C314.012 209.632 314.74 208.072 318.172 205.992C328.052 199.96 345.732 197.568 351.14 198.816C349.788 202.04 342.716 212.96 306.836 241.56L305.9 242.288C303.508 244.264 303.404 246.864 304.132 248.632C304.964 250.816 305.796 252.792 317.756 252.792C324.1 252.792 333.564 252.272 347.812 250.92C350.516 250.712 352.492 248.32 352.284 245.616C351.972 242.912 349.58 240.936 346.876 241.248Z" fill="white"/>
<path d="M115.331 164.672C102.643 167.064 93.5952 169.456 85.6912 171.432C83.7152 171.952 81.8432 172.368 79.9712 172.888C81.7392 171.224 83.6112 169.56 84.9632 168.416C88.7072 165.088 91.8272 162.28 93.5952 160.304C95.6752 157.912 95.6752 155.52 94.8432 153.856C97.9632 151.36 100.771 148.344 103.059 144.808C112.003 130.456 109.091 112.464 96.6112 104.664C84.1312 96.864 66.7632 102.272 57.8192 116.52C48.8752 130.872 51.7872 148.864 64.1632 156.664C60.2112 157.912 55.7392 159.472 50.5392 161.24C47.9392 162.176 46.5872 164.88 47.5232 167.48C48.4592 170.08 51.1632 171.328 53.7632 170.496C61.0432 167.896 69.2592 165.296 75.9152 163.32C65.5152 172.68 61.4592 176.944 63.8512 181.728C64.9952 183.912 66.9712 184.952 69.7792 184.952C70.8192 184.952 71.9632 184.848 73.1072 184.536C78.3072 183.392 83.0912 182.248 88.0832 180.896C96.2992 178.816 104.723 176.632 117.203 174.24C119.803 173.824 121.571 171.224 121.051 168.52C120.531 165.92 118.035 164.152 115.331 164.672ZM69.3632 148.344C61.5632 143.456 60.0032 131.496 66.1392 121.72C70.4032 114.856 77.3712 110.904 83.8192 110.904C86.5232 110.904 89.1232 111.528 91.5152 112.984C99.3152 117.872 100.875 129.832 94.7392 139.608C88.7072 149.384 77.2672 153.232 69.3632 148.344ZM83.6112 117.248C81.0112 116.312 78.2032 117.664 77.3712 120.16L71.6512 136.176C70.8192 138.672 72.0672 141.48 74.6672 142.416C75.1872 142.624 75.7072 142.728 76.3312 142.728C78.3072 142.728 80.1792 141.48 80.9072 139.4L86.5232 123.488C87.4592 120.888 86.1072 118.08 83.6112 117.248ZM149.88 116.52C147.28 115.688 144.576 117.04 143.64 119.64L141.664 125.672C140.104 119.016 137.816 112.464 134.384 109.864C132.824 108.72 130.952 108.2 129.08 108.512C120.76 109.76 104.224 147.824 102.04 156.456C101.312 159.056 99.7523 165.088 103.808 168.104C104.536 168.728 105.784 169.664 108.072 169.664C112.128 169.664 119.408 166.44 132.72 151.88L128.872 163.216C127.936 165.712 129.288 168.52 131.888 169.352C132.408 169.56 132.928 169.664 133.448 169.664C135.528 169.664 137.4 168.416 138.128 166.336L152.896 122.76C153.832 120.264 152.48 117.456 149.88 116.52ZM111.608 158.12C114.312 148.656 124.4 128.168 129.912 120.368C131.16 123.8 132.616 129.728 133.552 135.864C125.544 145.64 116.704 154.48 111.608 158.12ZM205.224 110.904C202.728 109.968 199.92 111.216 198.984 113.712C198.88 113.712 198.88 113.816 198.88 114.024C198.464 114.232 198.048 114.648 197.736 115.064C182.968 134.928 164.248 156.976 156.656 162.176C156.136 155.104 163.104 135.136 173.088 116.104C174.336 113.712 173.4 110.8 171.008 109.552C168.616 108.304 165.704 109.24 164.456 111.632C156.864 125.984 140.328 160.616 150.312 171.224L151.144 171.952C151.976 172.472 153.016 173.2 154.68 173.2C159.048 173.2 167.576 168.416 187.44 144.184C184.008 153.752 180.888 162.8 179.848 166.96C179.224 169.56 180.784 172.264 183.384 172.888C183.8 172.992 184.216 172.992 184.528 172.992C186.816 172.992 188.792 171.536 189.312 169.352C191.704 159.576 207.928 117.664 208.032 117.248C209.072 114.752 207.824 111.84 205.224 110.904ZM222.333 152.088C222.853 152.192 223.373 152.4 223.893 152.4C223.997 152.4 224.101 152.4 224.205 152.4C226.285 152.4 228.157 151.568 229.613 150.216C241.365 138.464 249.373 112.568 245.005 106.536C244.173 105.288 242.509 104.456 241.053 104.352C239.285 104.144 236.685 104.04 222.437 117.976L223.997 112.672C224.725 110.072 223.269 107.368 220.773 106.64C218.173 105.808 215.365 107.264 214.637 109.864L207.669 133.264C207.253 133.888 207.045 134.616 207.045 135.344L196.437 170.496C195.709 173.096 197.165 175.8 199.765 176.528C200.181 176.736 200.701 176.736 201.117 176.736C203.301 176.736 205.173 175.384 205.797 173.304L211.517 154.48L223.061 168C223.997 169.04 225.349 169.664 226.805 169.664C227.949 169.664 228.989 169.248 229.925 168.52C232.005 166.752 232.213 163.632 230.445 161.552L222.333 152.088ZM235.125 119.432C233.253 126.4 229.509 135.864 223.581 142.312C222.125 141.584 219.525 139.504 217.237 137.112C223.373 130.768 230.133 124.112 235.125 119.432ZM285.153 121.72C279.017 120.888 273.089 120.576 267.889 120.368L269.761 113.296C270.489 110.696 268.929 107.992 266.329 107.264C263.625 106.64 261.025 108.2 260.297 110.8L257.801 120.368C252.081 120.368 248.337 120.68 248.025 120.68C245.321 120.992 243.345 123.28 243.553 125.984C243.761 128.688 246.153 130.664 248.857 130.456C248.857 130.456 251.249 130.248 255.097 130.144L246.257 163.528C245.633 166.128 247.089 168.832 249.793 169.456C250.209 169.664 250.625 169.664 251.041 169.664C253.121 169.664 255.097 168.208 255.721 166.024L265.289 130.144C270.801 130.248 277.249 130.56 283.905 131.392C284.113 131.392 284.321 131.392 284.529 131.392C287.025 131.392 289.105 129.624 289.417 127.128C289.729 124.424 287.857 122.032 285.153 121.72ZM320.238 128.584C320.966 131.184 323.566 132.64 326.27 131.912C328.87 131.184 330.326 128.48 329.598 125.88C326.686 115.168 323.254 113.712 320.55 113.608C312.23 113.192 292.99 128.064 289.454 131.808C288.83 132.432 287.166 134.304 287.478 136.8C287.998 140.856 290.91 141.688 304.638 146.056C305.054 146.16 305.47 146.264 305.99 146.472C305.366 146.784 304.846 147.096 304.326 147.304C286.75 156.976 283.006 159.368 283.006 163.632C283.006 165.088 283.63 166.544 284.774 167.584C285.814 168.624 287.686 170.392 303.806 170.392C308.486 170.392 314.414 170.184 321.902 169.872C324.606 169.664 326.686 167.376 326.582 164.776C326.478 162.072 324.086 159.888 321.486 160.096C314.518 160.408 306.822 160.616 300.79 160.512C303.702 158.848 306.718 157.184 309.006 155.936C321.07 149.28 322.526 148.448 321.902 144.496C321.278 140.96 319.51 140.44 307.55 136.696C305.678 136.072 303.286 135.344 301.102 134.616C306.302 130.56 314.31 125.256 318.47 123.8C319.094 125.048 319.718 126.92 320.238 128.584ZM350.764 152.088C351.284 152.192 351.804 152.4 352.324 152.4C352.428 152.4 352.532 152.4 352.636 152.4C354.716 152.4 356.588 151.568 358.044 150.216C369.796 138.464 377.804 112.568 373.436 106.536C372.604 105.288 370.94 104.456 369.484 104.352C367.716 104.144 365.116 104.04 350.868 117.976L352.428 112.672C353.156 110.072 351.7 107.368 349.204 106.64C346.604 105.808 343.796 107.264 343.068 109.864L336.1 133.264C335.684 133.888 335.476 134.616 335.476 135.344L324.868 170.496C324.14 173.096 325.596 175.8 328.196 176.528C328.612 176.736 329.132 176.736 329.548 176.736C331.732 176.736 333.604 175.384 334.228 173.304L339.948 154.48L351.492 168C352.428 169.04 353.78 169.664 355.236 169.664C356.38 169.664 357.42 169.248 358.356 168.52C360.436 166.752 360.644 163.632 358.876 161.552L350.764 152.088ZM363.556 119.432C361.684 126.4 357.94 135.864 352.012 142.312C350.556 141.584 347.956 139.504 345.668 137.112C351.804 130.768 358.564 124.112 363.556 119.432ZM442.384 102.896C439.472 100.92 436.456 100.504 421.896 113.608C419.92 115.376 419.712 118.496 421.584 120.472C423.352 122.448 426.472 122.656 428.448 120.888C429.176 120.16 430.008 119.536 430.84 118.808C426.16 132.12 419.4 151.672 417.32 157.808L412.848 157.912C410.144 158.016 407.96 160.304 408.064 163.008C408.168 165.608 410.352 167.688 412.952 167.688H413.056L429.8 167.272C432.504 167.168 434.584 164.88 434.584 162.176C434.48 159.472 432.192 157.392 429.488 157.496H427.824C432.088 145.016 442.488 114.752 444.256 109.968C445.92 105.496 443.008 103.312 442.384 102.896Z" fill="#E5986E"/>
</svg>
