<svg width="148" height="83" viewBox="0 0 148 83" fill="none" xmlns="http://www.w3.org/2000/svg">
<rect x="1" y="1" width="51" height="81" fill="#232429" stroke="black" stroke-width="2"/>
<path opacity="0.5" d="M24.9073 42.9399H30.7323V24.6649H22.2573V29.8649H24.9073V42.9399Z" fill="white"/>
<path opacity="0.5" d="M12.8553 51.1045V59.4805H17.2953V58.1485H14.5353V51.1045H12.8553ZM24.7832 56.1565C24.7832 54.0565 23.2832 52.7245 21.3632 52.7245C19.4432 52.7245 17.9432 54.0565 17.9432 56.1565C17.9432 58.2445 19.3952 59.5885 21.3152 59.5885C23.2472 59.5885 24.7832 58.2445 24.7832 56.1565ZM19.6472 56.1565C19.6472 54.8245 20.4512 54.1885 21.3392 54.1885C22.2272 54.1885 23.0552 54.8245 23.0552 56.1565C23.0552 57.4765 22.2032 58.1245 21.3152 58.1245C20.4152 58.1245 19.6472 57.4765 19.6472 56.1565ZM32.4355 56.1565C32.4355 54.0565 30.9355 52.7245 29.0155 52.7245C27.0955 52.7245 25.5955 54.0565 25.5955 56.1565C25.5955 58.2445 27.0475 59.5885 28.9675 59.5885C30.8995 59.5885 32.4355 58.2445 32.4355 56.1565ZM27.2995 56.1565C27.2995 54.8245 28.1035 54.1885 28.9915 54.1885C29.8795 54.1885 30.7075 54.8245 30.7075 56.1565C30.7075 57.4765 29.8555 58.1245 28.9675 58.1245C28.0675 58.1245 27.2995 57.4765 27.2995 56.1565ZM35.3478 53.7925V52.8325H33.6678V62.6485H35.3478V58.5325C35.7558 59.0725 36.4998 59.5885 37.5438 59.5885C39.2478 59.5885 40.5798 58.2085 40.5798 56.1325C40.5798 54.0565 39.2478 52.7245 37.5438 52.7245C36.5118 52.7245 35.7438 53.2285 35.3478 53.7925ZM38.8638 56.1325C38.8638 57.3925 38.0118 58.1125 37.0998 58.1125C36.1998 58.1125 35.3478 57.4165 35.3478 56.1565C35.3478 54.8965 36.1998 54.2005 37.0998 54.2005C38.0118 54.2005 38.8638 54.8725 38.8638 56.1325Z" fill="white"/>
<path d="M137 82L52 82L52 0.999992L137 0.999999C142.523 1 147 5.47715 147 11L147 72C147 77.5228 142.523 82 137 82Z" fill="url(#paint0_linear_330_4490)" stroke="black" stroke-width="2"/>
<path opacity="0.2" d="M108.534 29.7905L90.4242 29.7905C88.8935 29.7905 87.9302 28.1413 88.6821 26.808L97.5783 11.0348C98.3368 9.68988 100.268 9.67525 101.047 11.0085L110.261 26.7817C111.04 28.115 110.078 29.7905 108.534 29.7905Z" fill="white"/>
<path opacity="0.2" d="M90.4844 51.791L108.594 51.791C110.125 51.791 111.088 53.4403 110.336 54.7735L101.44 70.5468C100.682 71.8917 98.7501 71.9063 97.9713 70.5731L88.7574 54.7998C87.9786 53.4665 88.9402 51.791 90.4844 51.791Z" fill="white"/>
<line x1="51" y1="41" x2="148" y2="41" stroke="black" stroke-width="2"/>
<defs>
<linearGradient id="paint0_linear_330_4490" x1="99.5" y1="83" x2="99.5" y2="-4.24e-06" gradientUnits="userSpaceOnUse">
<stop stop-color="#4E5356" stop-opacity="0.88"/>
<stop offset="0.390625" stop-color="#33373C"/>
</linearGradient>
</defs>
</svg>
