<svg width="641" height="91" viewBox="0 0 641 91" fill="none" xmlns="http://www.w3.org/2000/svg">
<path d="M56.073 43.416C54.097 43.312 52.225 43.208 50.353 43.104C50.353 31.664 50.041 23.552 49.313 20.224C48.897 18.248 47.545 12.424 42.345 12.008C35.897 11.488 32.985 19.08 25.705 37.384C24.873 39.464 24.041 41.648 23.105 43.936C11.249 44.976 4.69701 46.848 4.17701 46.952C1.57701 47.68 0.121015 50.384 0.849015 52.984C1.47301 55.168 3.44901 56.52 5.52901 56.52C5.94501 56.52 6.46501 56.52 6.88101 56.312C6.98501 56.312 11.145 55.168 18.841 54.232C15.513 61.72 11.977 69 8.12901 74.512C6.67301 76.696 7.19301 79.712 9.48101 81.272C11.665 82.832 14.681 82.312 16.241 80.024C21.337 72.64 25.913 62.76 29.865 53.192C33.193 52.984 36.729 52.88 40.577 52.776C40.577 56.728 40.577 60.68 40.577 64.32C40.473 69.312 40.473 73.992 40.473 78.048C40.473 80.752 42.657 82.936 45.361 82.936C48.065 82.936 50.249 80.752 50.249 78.048C50.249 73.992 50.249 69.312 50.353 64.32C50.353 60.368 50.353 56.52 50.353 52.984C52.017 52.984 53.785 53.088 55.553 53.192C58.153 53.296 60.545 51.216 60.649 48.512C60.753 45.808 58.777 43.52 56.073 43.416ZM33.921 43.208C34.233 42.48 34.545 41.648 34.857 41.024C36.625 36.552 38.601 31.56 40.265 27.712C40.473 31.56 40.577 37.072 40.577 43C38.289 43.104 36.105 43.104 33.921 43.208ZM79.0196 66.088C79.5396 66.192 80.0596 66.4 80.5796 66.4C80.6836 66.4 80.7876 66.4 80.8916 66.4C82.9716 66.4 84.8436 65.568 86.2996 64.216C98.0516 52.464 106.06 26.568 101.692 20.536C100.86 19.288 99.1956 18.456 97.7396 18.352C95.9716 18.144 93.3716 18.04 79.1236 31.976L80.6836 26.672C81.4116 24.072 79.9556 21.368 77.4596 20.64C74.8596 19.808 72.0516 21.264 71.3236 23.864L64.3556 47.264C63.9396 47.888 63.7316 48.616 63.7316 49.344L53.1236 84.496C52.3956 87.096 53.8516 89.8 56.4516 90.528C56.8676 90.736 57.3876 90.736 57.8036 90.736C59.9876 90.736 61.8596 89.384 62.4836 87.304L68.2036 68.48L79.7476 82C80.6836 83.04 82.0356 83.664 83.4916 83.664C84.6356 83.664 85.6756 83.248 86.6116 82.52C88.6916 80.752 88.8996 77.632 87.1316 75.552L79.0196 66.088ZM91.8116 33.432C89.9396 40.4 86.1956 49.864 80.2676 56.312C78.8116 55.584 76.2116 53.504 73.9236 51.112C80.0596 44.768 86.8196 38.112 91.8116 33.432ZM141.84 35.72C135.704 34.888 129.776 34.576 124.576 34.368L126.448 27.296C127.176 24.696 125.616 21.992 123.016 21.264C120.312 20.64 117.712 22.2 116.984 24.8L114.488 34.368C108.768 34.368 105.024 34.68 104.712 34.68C102.008 34.992 100.032 37.28 100.24 39.984C100.448 42.688 102.84 44.664 105.544 44.456C105.544 44.456 107.936 44.248 111.784 44.144L102.944 77.528C102.32 80.128 103.776 82.832 106.48 83.456C106.896 83.664 107.312 83.664 107.728 83.664C109.808 83.664 111.784 82.208 112.408 80.024L121.976 44.144C127.488 44.248 133.936 44.56 140.592 45.392C140.8 45.392 141.008 45.392 141.216 45.392C143.712 45.392 145.792 43.624 146.104 41.128C146.416 38.424 144.544 36.032 141.84 35.72ZM152.841 43.624C150.241 42.792 147.537 44.352 146.809 46.952C146.497 47.992 139.529 72.952 138.281 77.632C137.553 80.336 139.113 82.936 141.817 83.664C142.129 83.768 142.545 83.768 142.961 83.768C145.145 83.768 147.121 82.312 147.745 80.128C148.889 75.448 156.169 49.864 156.273 49.656C157.001 47.056 155.441 44.352 152.841 43.624ZM160.745 19.288C158.145 18.456 155.337 19.808 154.505 22.304L151.073 32.392C150.137 34.992 151.489 37.8 154.089 38.632C154.609 38.84 155.129 38.944 155.649 38.944C157.729 38.944 159.601 37.696 160.329 35.616L163.761 25.528C164.593 22.928 163.241 20.224 160.745 19.288ZM201.562 65.048C200.522 59.536 193.658 57.976 183.362 55.48C178.474 54.336 173.378 53.192 169.53 51.632C169.426 51.632 169.322 51.528 169.218 51.528C172.026 48.408 181.282 43.416 187.626 40.192L187.002 46.224C186.794 48.928 188.77 51.32 191.37 51.632C191.578 51.632 191.786 51.632 191.89 51.632C194.386 51.632 196.466 49.76 196.778 47.264L198.65 27.816C198.962 25.112 196.986 22.72 194.282 22.408C191.682 22.2 189.186 24.176 188.978 26.88L188.77 28.96C188.25 29.064 187.73 29.168 187.314 29.376C169.842 38.112 158.402 44.456 158.714 52.464C158.818 54.96 160.17 58.496 165.89 60.68C170.466 62.552 176.186 63.904 181.178 65.048C183.258 65.568 185.962 66.192 188.25 66.816C180.242 70.768 167.034 74.408 161.834 75.552C159.234 76.176 157.57 78.776 158.194 81.48C158.714 83.664 160.794 85.224 162.978 85.224C163.29 85.224 163.706 85.224 164.122 85.12C165.058 84.912 187.522 79.608 197.402 72.848C201.458 70.144 201.874 67.128 201.562 65.048ZM242.342 35.72C236.206 34.888 230.278 34.576 225.078 34.368L226.95 27.296C227.678 24.696 226.118 21.992 223.518 21.264C220.814 20.64 218.214 22.2 217.486 24.8L214.99 34.368C209.27 34.368 205.526 34.68 205.214 34.68C202.51 34.992 200.534 37.28 200.742 39.984C200.95 42.688 203.342 44.664 206.046 44.456C206.046 44.456 208.438 44.248 212.286 44.144L203.446 77.528C202.822 80.128 204.278 82.832 206.982 83.456C207.398 83.664 207.814 83.664 208.23 83.664C210.31 83.664 212.286 82.208 212.91 80.024L222.478 44.144C227.99 44.248 234.438 44.56 241.094 45.392C241.302 45.392 241.51 45.392 241.718 45.392C244.214 45.392 246.294 43.624 246.606 41.128C246.918 38.424 245.046 36.032 242.342 35.72Z" fill="#E5986E"/>
<path d="M349.178 25.32C348.866 22.2 346.682 20.64 344.914 20.224C339.922 19.184 337.322 22.304 321.306 48.408C319.954 50.696 318.498 52.984 317.146 55.168C316.938 47.056 317.146 35.824 317.25 28.544C317.458 19.704 317.562 12.736 317.25 9.512C316.938 6.184 314.65 4.51999 312.778 4.208C308.722 3.48 304.978 2.752 273.57 67.024C272.426 69.52 273.362 72.432 275.858 73.576C276.482 73.888 277.21 74.096 277.938 74.096C279.81 74.096 281.474 73.056 282.306 71.288C291.042 53.504 301.026 34.368 307.578 23.032C307.578 24.696 307.474 26.464 307.474 28.336C306.85 66.192 307.786 70.144 312.362 72.016C314.546 72.848 316.938 72.328 318.602 70.456C320.578 68.376 323.906 62.864 329.73 53.504C332.434 49.136 336.074 43.104 339.298 38.112C338.778 47.368 337.842 59.848 337.114 68.792C336.802 71.496 338.778 73.784 341.482 74.096C344.186 74.304 346.578 72.328 346.786 69.624C347.098 65.88 350.01 33.12 349.178 25.32ZM371.686 66.088C372.206 66.192 372.726 66.4 373.246 66.4C373.35 66.4 373.454 66.4 373.558 66.4C375.638 66.4 377.51 65.568 378.966 64.216C390.718 52.464 398.726 26.568 394.358 20.536C393.526 19.288 391.862 18.456 390.406 18.352C388.638 18.144 386.038 18.04 371.79 31.976L373.35 26.672C374.078 24.072 372.622 21.368 370.126 20.64C367.526 19.808 364.718 21.264 363.99 23.864L357.022 47.264C356.606 47.888 356.398 48.616 356.398 49.344L345.79 84.496C345.062 87.096 346.518 89.8 349.118 90.528C349.534 90.736 350.054 90.736 350.47 90.736C352.654 90.736 354.526 89.384 355.15 87.304L360.87 68.48L372.414 82C373.35 83.04 374.702 83.664 376.158 83.664C377.302 83.664 378.342 83.248 379.278 82.52C381.358 80.752 381.566 77.632 379.798 75.552L371.686 66.088ZM384.478 33.432C382.606 40.4 378.862 49.864 372.934 56.312C371.478 55.584 368.878 53.504 366.59 51.112C372.726 44.768 379.486 38.112 384.478 33.432ZM392.556 70.456C389.956 69.52 387.252 70.872 386.316 73.472L386.004 74.512C385.172 77.008 386.524 79.816 389.02 80.648C389.54 80.856 390.06 80.96 390.58 80.96C392.66 80.96 394.532 79.712 395.26 77.632L395.572 76.592C396.508 74.096 395.156 71.288 392.556 70.456ZM469.195 36.864C469.715 37.072 470.131 37.072 470.651 37.072C472.731 37.072 474.603 35.72 475.331 33.64L482.611 9.096C483.443 6.496 481.987 3.792 479.387 2.96C476.787 2.232 474.083 3.688 473.251 6.288L470.651 15.128C469.091 14.192 467.635 13.88 466.699 13.776C454.635 12.528 437.163 33.952 433.003 50.904C429.675 64.424 435.395 70.04 439.035 72.224C441.739 73.784 444.755 74.408 447.979 74.408C451.827 74.408 455.883 73.368 459.211 71.704L457.755 76.696C456.923 79.296 458.379 82 460.979 82.728C461.499 82.936 461.915 82.936 462.435 82.936C464.515 82.936 466.491 81.584 467.115 79.504L476.059 49.656V49.552C476.579 47.992 476.995 46.64 476.995 45.808L476.891 43.416L475.435 41.96C473.771 40.296 472.731 39.256 453.387 41.752C450.683 42.064 448.811 44.56 449.227 47.264C449.539 49.968 452.035 51.84 454.635 51.424C458.067 51.008 461.915 50.592 465.035 50.28C463.163 53.92 460.355 58.392 457.235 61.408C454.427 64.008 447.355 65.672 444.027 63.8C441.011 62.032 441.531 57.04 442.467 53.192C446.523 36.864 461.811 22.616 465.555 23.344C465.555 23.448 466.387 24.28 466.491 27.712C466.491 28.024 466.491 28.336 466.595 28.648L465.867 30.832C465.139 33.432 466.595 36.136 469.195 36.864ZM515.573 30.208C511.309 27.192 505.485 26.776 499.557 29.064C494.357 31.248 489.365 35.304 485.517 40.608C481.669 45.912 479.381 51.944 479.069 57.56C478.653 63.904 480.837 69.312 484.997 72.328C487.493 74.096 490.405 74.928 493.525 74.928C495.917 74.928 498.413 74.512 501.013 73.472C506.213 71.392 511.205 67.232 515.053 61.928C523.581 50.176 523.789 36.24 515.573 30.208ZM507.149 56.208C504.445 60.056 500.805 62.968 497.373 64.424C494.669 65.464 492.277 65.464 490.821 64.424C489.365 63.384 488.637 61.096 488.741 58.184C489.053 54.44 490.717 50.072 493.421 46.328C496.229 42.584 499.765 39.568 503.197 38.216C504.653 37.592 505.901 37.384 507.045 37.384C508.189 37.384 509.125 37.592 509.853 38.112C513.077 40.504 512.557 48.72 507.149 56.208ZM507.149 79.608C498.829 77.424 476.469 77.736 473.973 77.84C471.269 77.84 469.085 80.024 469.085 82.728C469.189 85.432 471.477 87.72 474.077 87.616C480.525 87.512 498.725 87.512 504.653 89.072C505.069 89.176 505.485 89.28 505.901 89.28C508.085 89.28 510.061 87.824 510.685 85.536C511.309 82.936 509.749 80.232 507.149 79.608ZM540.121 11.696C537.521 10.968 534.817 12.528 534.089 15.128L516.097 82.104C515.369 84.704 516.929 87.408 519.529 88.136C519.945 88.24 520.361 88.24 520.777 88.24C522.961 88.24 524.937 86.784 525.561 84.6L543.553 17.624C544.281 15.024 542.721 12.424 540.121 11.696ZM590.969 1.296C588.369 0.463997 585.665 1.816 584.729 4.312L572.769 39.568C571.209 33.016 568.921 26.464 565.489 23.864C563.929 22.72 562.057 22.2 560.185 22.512C551.865 23.76 535.329 61.824 533.145 70.456C532.417 73.056 530.857 79.088 534.913 82.104C535.641 82.728 536.889 83.664 539.177 83.664C543.233 83.664 550.513 80.44 563.825 65.88L559.977 77.216C559.041 79.712 560.393 82.52 562.993 83.352C563.513 83.56 564.033 83.664 564.553 83.664C566.633 83.664 568.505 82.416 569.233 80.336L593.985 7.536C594.921 4.93599 593.465 2.128 590.969 1.296ZM542.713 72.12C545.417 62.656 555.505 42.168 561.017 34.368C562.265 37.8 563.721 43.728 564.657 49.864C556.649 59.64 547.809 68.48 542.713 72.12ZM591.107 43.624C588.507 42.792 585.803 44.352 585.075 46.952C584.763 47.992 577.795 72.952 576.547 77.632C575.819 80.336 577.379 82.936 580.083 83.664C580.395 83.768 580.811 83.768 581.227 83.768C583.411 83.768 585.387 82.312 586.011 80.128C587.155 75.448 594.435 49.864 594.539 49.656C595.267 47.056 593.707 44.352 591.107 43.624ZM599.011 19.288C596.411 18.456 593.603 19.808 592.771 22.304L589.339 32.392C588.403 34.992 589.755 37.8 592.355 38.632C592.875 38.84 593.395 38.944 593.915 38.944C595.995 38.944 597.867 37.696 598.595 35.616L602.027 25.528C602.859 22.928 601.507 20.224 599.011 19.288ZM630.073 42.584C630.801 45.184 633.401 46.64 636.105 45.912C638.705 45.184 640.161 42.48 639.433 39.88C636.521 29.168 633.089 27.712 630.385 27.608C622.065 27.192 602.825 42.064 599.289 45.808C598.665 46.432 597.001 48.304 597.313 50.8C597.833 54.856 600.745 55.688 614.473 60.056C614.889 60.16 615.305 60.264 615.825 60.472C615.201 60.784 614.681 61.096 614.161 61.304C596.585 70.976 592.841 73.368 592.841 77.632C592.841 79.088 593.465 80.544 594.609 81.584C595.649 82.624 597.521 84.392 613.641 84.392C618.321 84.392 624.249 84.184 631.737 83.872C634.441 83.664 636.521 81.376 636.417 78.776C636.313 76.072 633.921 73.888 631.321 74.096C624.353 74.408 616.657 74.616 610.625 74.512C613.537 72.848 616.553 71.184 618.841 69.936C630.905 63.28 632.361 62.448 631.737 58.496C631.113 54.96 629.345 54.44 617.385 50.696C615.513 50.072 613.121 49.344 610.937 48.616C616.137 44.56 624.145 39.256 628.305 37.8C628.929 39.048 629.553 40.92 630.073 42.584Z" fill="white"/>
</svg>
