<svg width="709" height="109" viewBox="0 0 709 109" fill="none" xmlns="http://www.w3.org/2000/svg">
<path d="M51.1257 25.01C37.9257 16.76 19.5557 22.48 10.0957 37.55C0.635664 52.73 3.71566 71.76 16.9157 80.01C20.9857 82.54 25.6057 83.75 30.3357 83.75C40.6757 83.75 51.4557 77.81 57.9457 67.47C67.4057 52.29 64.3257 33.26 51.1257 25.01ZM49.1457 61.97C42.7657 72.31 30.6657 76.38 22.3057 71.21C13.9457 66.04 12.4057 53.39 18.8957 43.05C23.4057 35.79 30.7757 31.61 37.5957 31.61C40.4557 31.61 43.2057 32.27 45.6257 33.81C53.9857 38.98 55.5257 51.63 49.1457 61.97ZM37.3757 38.32C34.6257 37.33 31.6557 38.76 30.7757 41.4L24.7257 58.34C23.7357 60.98 25.1657 63.95 27.9157 64.94C28.4657 65.16 29.0157 65.27 29.5657 65.27C31.7657 65.27 33.7457 63.95 34.5157 61.75L40.4557 44.92C41.4457 42.17 40.0157 39.2 37.3757 38.32ZM29.5657 16.43H50.1357C52.9957 16.43 55.3057 14.12 55.3057 11.26C55.3057 8.4 52.9957 6.09 50.1357 6.09H29.5657C26.7057 6.09 24.3957 8.4 24.3957 11.26C24.3957 14.12 26.7057 16.43 29.5657 16.43ZM105.027 30.84C102.167 30.4 99.6374 32.49 99.1974 35.24C98.3174 42.39 96.5574 56.36 95.0174 68.02C93.1474 61.42 90.9474 52.95 88.3074 42.72C87.6474 40.19 87.2074 38.32 86.8774 37.22C85.9974 33.92 83.3574 32.82 81.3774 32.82C76.9774 32.82 74.1174 32.82 59.3774 92.44C58.6074 95.3 60.3674 98.05 63.1174 98.71C63.5574 98.82 63.9974 98.93 64.3274 98.93C66.6374 98.93 68.8374 97.28 69.3874 94.97C73.0174 80.34 77.3074 64.5 80.4974 53.83C90.9474 93.87 92.2674 93.87 96.9974 93.76C98.9774 93.76 101.507 92.55 102.277 89.25C103.817 82.87 108.987 41.29 109.537 36.56C109.867 33.7 107.887 31.17 105.027 30.84ZM157.846 36.56C156.966 35.35 155.316 34.47 153.776 34.36C151.796 34.14 149.046 33.92 129.576 51.3L141.456 18.63C142.336 15.99 141.016 13.02 138.266 12.03C135.626 11.04 132.656 12.47 131.666 15.11L103.726 92.11C102.736 94.75 104.166 97.72 106.806 98.71C107.356 98.93 108.016 99.04 108.566 99.04C110.656 99.04 112.746 97.72 113.406 95.63L118.136 82.65C121.876 87.82 126.386 92.66 130.676 93.54C131.226 93.76 131.776 93.76 132.436 93.76C133.866 93.76 135.406 93.32 136.616 92.44C143.106 87.93 157.296 50.75 158.726 42.5C159.056 40.63 159.166 38.54 157.846 36.56ZM131.666 82.54C129.466 80.56 125.946 76.16 123.086 71.43C130.676 64.28 139.036 56.69 145.306 51.41C141.456 62.19 135.076 77.15 131.666 82.54ZM195.478 37.22C190.968 34.03 184.808 33.59 178.538 36.01C173.038 38.32 167.758 42.61 163.688 48.22C159.618 53.83 157.198 60.21 156.868 66.15C156.428 72.86 158.738 78.58 163.138 81.77C165.778 83.64 168.858 84.52 172.158 84.52C174.688 84.52 177.328 84.08 180.078 82.98C185.578 80.78 190.858 76.38 194.928 70.77C203.948 58.34 204.168 43.6 195.478 37.22ZM186.568 64.72C183.708 68.79 179.858 71.87 176.228 73.41C173.368 74.51 170.838 74.51 169.298 73.41C167.758 72.31 166.988 69.89 167.098 66.81C167.428 62.85 169.188 58.23 172.048 54.27C175.018 50.31 178.758 47.12 182.388 45.69C183.928 45.03 185.248 44.81 186.458 44.81C187.668 44.81 188.658 45.03 189.428 45.58C192.838 48.11 192.288 56.8 186.568 64.72ZM186.568 89.47C177.768 87.16 154.118 87.49 151.478 87.6C148.618 87.6 146.308 89.91 146.308 92.77C146.418 95.63 148.838 98.05 151.588 97.94C158.408 97.83 177.658 97.83 183.928 99.48C184.368 99.59 184.808 99.7 185.248 99.7C187.558 99.7 189.648 98.16 190.308 95.74C190.968 92.99 189.318 90.13 186.568 89.47ZM247.849 37.55C245.099 36.67 242.239 38.1 241.249 40.85L239.159 47.23C237.509 40.19 235.089 33.26 231.459 30.51C229.809 29.3 227.829 28.75 225.849 29.08C217.049 30.4 199.559 70.66 197.249 79.79C196.479 82.54 194.829 88.92 199.119 92.11C199.889 92.77 201.209 93.76 203.629 93.76C207.919 93.76 215.619 90.35 229.699 74.95L225.629 86.94C224.639 89.58 226.069 92.55 228.819 93.43C229.369 93.65 229.919 93.76 230.469 93.76C232.669 93.76 234.649 92.44 235.419 90.24L251.039 44.15C252.029 41.51 250.599 38.54 247.849 37.55ZM207.369 81.55C210.229 71.54 220.899 49.87 226.729 41.62C228.049 45.25 229.589 51.52 230.579 58.01C222.109 68.35 212.759 77.7 207.369 81.55ZM268.137 75.17C268.687 75.28 269.237 75.5 269.787 75.5C269.897 75.5 270.007 75.5 270.117 75.5C272.317 75.5 274.297 74.62 275.837 73.19C288.267 60.76 296.737 33.37 292.117 26.99C291.237 25.67 289.477 24.79 287.937 24.68C286.067 24.46 283.317 24.35 268.247 39.09L269.897 33.48C270.667 30.73 269.127 27.87 266.487 27.1C263.737 26.22 260.767 27.76 259.997 30.51L252.627 55.26C252.187 55.92 251.967 56.69 251.967 57.46L240.747 94.64C239.977 97.39 241.517 100.25 244.267 101.02C244.707 101.24 245.257 101.24 245.697 101.24C248.007 101.24 249.987 99.81 250.647 97.61L256.697 77.7L268.907 92C269.897 93.1 271.327 93.76 272.867 93.76C274.077 93.76 275.177 93.32 276.167 92.55C278.367 90.68 278.587 87.38 276.717 85.18L268.137 75.17ZM281.667 40.63C279.687 48 275.727 58.01 269.457 64.83C267.917 64.06 265.167 61.86 262.747 59.33C269.237 52.62 276.387 45.58 281.667 40.63ZM344.244 6.64C341.494 5.76 338.634 7.19 337.644 9.83L324.994 47.12C323.344 40.19 320.924 33.26 317.294 30.51C315.644 29.3 313.664 28.75 311.684 29.08C302.884 30.4 285.394 70.66 283.084 79.79C282.314 82.54 280.664 88.92 284.954 92.11C285.724 92.77 287.044 93.76 289.464 93.76C293.754 93.76 301.454 90.35 315.534 74.95L311.464 86.94C310.474 89.58 311.904 92.55 314.654 93.43C315.204 93.65 315.754 93.76 316.304 93.76C318.504 93.76 320.484 92.44 321.254 90.24L347.434 13.24C348.424 10.49 346.884 7.52 344.244 6.64ZM293.204 81.55C296.064 71.54 306.734 49.87 312.564 41.62C313.884 45.25 315.424 51.52 316.414 58.01C307.944 68.35 298.594 77.7 293.204 81.55ZM416.441 43.05C409.951 42.17 403.681 41.84 398.181 41.62L400.161 34.14C400.931 31.39 399.281 28.53 396.531 27.76C393.671 27.1 390.921 28.75 390.151 31.5L387.511 41.62C381.461 41.62 377.501 41.95 377.171 41.95C374.311 42.28 372.221 44.7 372.441 47.56C372.661 50.42 375.191 52.51 378.051 52.29C378.051 52.29 380.581 52.07 384.651 51.96L375.301 87.27C374.641 90.02 376.181 92.88 379.041 93.54C379.481 93.76 379.921 93.76 380.361 93.76C382.561 93.76 384.651 92.22 385.311 89.91L395.431 51.96C401.261 52.07 408.081 52.4 415.121 53.28C415.341 53.28 415.561 53.28 415.781 53.28C418.421 53.28 420.621 51.41 420.951 48.77C421.281 45.91 419.301 43.38 416.441 43.05ZM457.601 37.22C453.091 34.03 446.931 33.59 440.661 36.01C435.161 38.32 429.881 42.61 425.811 48.22C421.741 53.83 419.321 60.21 418.991 66.15C418.551 72.86 420.861 78.58 425.261 81.77C427.901 83.64 430.981 84.52 434.281 84.52C436.811 84.52 439.451 84.08 442.201 82.98C447.701 80.78 452.981 76.38 457.051 70.77C466.071 58.34 466.291 43.6 457.601 37.22ZM448.691 64.72C445.831 68.79 441.981 71.87 438.351 73.41C435.491 74.51 432.961 74.51 431.421 73.41C429.881 72.31 429.111 69.89 429.221 66.81C429.551 62.85 431.311 58.23 434.171 54.27C437.141 50.31 440.881 47.12 444.511 45.69C446.051 45.03 447.371 44.81 448.581 44.81C449.791 44.81 450.781 45.03 451.551 45.58C454.961 48.11 454.411 56.8 448.691 64.72ZM448.691 89.47C439.891 87.16 416.241 87.49 413.601 87.6C410.741 87.6 408.431 89.91 408.431 92.77C408.541 95.63 410.961 98.05 413.711 97.94C420.531 97.83 439.781 97.83 446.051 99.48C446.491 99.59 446.931 99.7 447.371 99.7C449.681 99.7 451.771 98.16 452.431 95.74C453.091 92.99 451.441 90.13 448.691 89.47Z" fill="#E5986E"/>
<path d="M602.994 2.89999C576.044 0.809995 504.544 9.28 501.464 9.61C498.714 9.93999 496.624 12.47 496.954 15.33C497.284 17.97 499.484 19.95 502.124 19.95C502.344 19.95 502.564 19.84 502.674 19.84C503.004 19.84 514.334 18.52 529.624 16.98L509.164 76.93C508.284 79.68 509.714 82.54 512.354 83.53C512.904 83.75 513.454 83.75 514.004 83.75C516.204 83.75 518.184 82.43 518.954 80.34L540.954 15.88C562.954 13.9 588.804 12.14 602.114 13.24C604.974 13.35 607.504 11.26 607.724 8.50999C607.944 5.65 605.744 3.12 602.994 2.89999ZM569.196 50.31C569.966 53.06 572.716 54.6 575.576 53.83C578.326 53.06 579.866 50.2 579.096 47.45C576.016 36.12 572.386 34.58 569.526 34.47C560.726 34.03 540.376 49.76 536.636 53.72C535.976 54.38 534.216 56.36 534.546 59C535.096 63.29 538.176 64.17 552.696 68.79C553.136 68.9 553.576 69.01 554.126 69.23C553.466 69.56 552.916 69.89 552.366 70.11C533.776 80.34 529.816 82.87 529.816 87.38C529.816 88.92 530.476 90.46 531.686 91.56C532.786 92.66 534.766 94.53 551.816 94.53C556.766 94.53 563.036 94.31 570.956 93.98C573.816 93.76 576.016 91.34 575.906 88.59C575.796 85.73 573.266 83.42 570.516 83.64C563.146 83.97 555.006 84.19 548.626 84.08C551.706 82.32 554.896 80.56 557.316 79.24C570.076 72.2 571.616 71.32 570.956 67.14C570.296 63.4 568.426 62.85 555.776 58.89C553.796 58.23 551.266 57.46 548.956 56.69C554.456 52.4 562.926 46.79 567.326 45.25C567.986 46.57 568.646 48.55 569.196 50.31ZM624.804 39.2C625.904 36.34 625.354 33.59 623.374 31.83C621.174 29.85 617.544 26.44 587.514 41.51C584.984 42.83 583.994 45.91 585.204 48.44C586.524 50.97 589.604 52.07 592.134 50.75C597.964 47.89 604.564 44.92 609.844 42.83C605.664 48.11 600.054 54.82 595.654 59.99C576.184 82.98 574.314 85.73 575.304 89.69L576.074 92.55L578.604 93.54C581.134 94.53 603.134 104.65 611.384 108.5C612.154 108.83 612.814 108.94 613.584 108.94C615.564 108.94 617.434 107.84 618.314 105.97C619.414 103.33 618.314 100.25 615.784 99.04C614.794 98.6 596.864 90.35 587.514 86.17C591.144 81.33 598.074 73.08 603.574 66.7C616.774 50.97 623.154 43.16 624.804 39.2ZM657.792 37.22C653.282 34.03 647.122 33.59 640.852 36.01C635.352 38.32 630.072 42.61 626.002 48.22C621.932 53.83 619.512 60.21 619.182 66.15C618.742 72.86 621.052 78.58 625.452 81.77C628.092 83.64 631.172 84.52 634.472 84.52C637.002 84.52 639.642 84.08 642.392 82.98C647.892 80.78 653.172 76.38 657.242 70.77C666.262 58.34 666.482 43.6 657.792 37.22ZM648.882 64.72C646.022 68.79 642.172 71.87 638.542 73.41C635.682 74.51 633.152 74.51 631.612 73.41C630.072 72.31 629.302 69.89 629.412 66.81C629.742 62.85 631.502 58.23 634.362 54.27C637.332 50.31 641.072 47.12 644.702 45.69C646.242 45.03 647.562 44.81 648.772 44.81C649.982 44.81 650.972 45.03 651.742 45.58C655.152 48.11 654.602 56.8 648.882 64.72ZM648.882 89.47C640.082 87.16 616.432 87.49 613.792 87.6C610.932 87.6 608.622 89.91 608.622 92.77C608.732 95.63 611.152 98.05 613.902 97.94C620.722 97.83 639.972 97.83 646.242 99.48C646.682 99.59 647.122 99.7 647.562 99.7C649.872 99.7 651.962 98.16 652.622 95.74C653.282 92.99 651.632 90.13 648.882 89.47ZM708.375 74.07C707.275 68.24 700.015 66.59 689.125 63.95C683.955 62.74 678.565 61.53 674.495 59.88C674.385 59.88 674.275 59.77 674.165 59.77C677.135 56.47 686.925 51.19 693.635 47.78L692.975 54.16C692.755 57.02 694.845 59.55 697.595 59.88C697.815 59.88 698.035 59.88 698.145 59.88C700.785 59.88 702.985 57.9 703.315 55.26L705.295 34.69C705.625 31.83 703.535 29.3 700.675 28.97C697.925 28.75 695.285 30.84 695.065 33.7L694.845 35.9C694.295 36.01 693.745 36.12 693.305 36.34C674.825 45.58 662.725 52.29 663.055 60.76C663.165 63.4 664.595 67.14 670.645 69.45C675.485 71.43 681.535 72.86 686.815 74.07C689.015 74.62 691.875 75.28 694.295 75.94C685.825 80.12 671.855 83.97 666.355 85.18C663.605 85.84 661.845 88.59 662.505 91.45C663.055 93.76 665.255 95.41 667.565 95.41C667.895 95.41 668.335 95.41 668.775 95.3C669.765 95.08 693.525 89.47 703.975 82.32C708.265 79.46 708.705 76.27 708.375 74.07Z" fill="white"/>
</svg>
