<svg width="619" height="67" viewBox="0 0 619 67" fill="none" xmlns="http://www.w3.org/2000/svg">
<rect width="619" height="67" rx="10" fill="#232429"/>
<path d="M21.807 33.237V28.568H24.36C26.177 28.568 26.982 29.442 26.982 30.914C26.982 32.34 26.177 33.237 24.36 33.237H21.807ZM30.294 30.914C30.294 28.131 28.362 25.946 24.498 25.946H18.587V42H21.807V35.836H24.498C28.638 35.836 30.294 33.352 30.294 30.914ZM41.0902 30.937C41.0902 32.386 40.2852 33.329 38.4912 33.329H35.8002V28.614H38.4912C40.2852 28.614 41.0902 29.511 41.0902 30.937ZM32.5802 25.946V42H35.8002V35.744H37.3182L40.8602 42H44.5862L40.7452 35.491C43.3212 34.801 44.4022 32.823 44.4022 30.868C44.4022 28.177 42.4702 25.946 38.6062 25.946H32.5802ZM56.6295 25.923H47.3145V42H56.6295V39.378H50.5345V35.123H55.9395V32.57H50.5345V28.545H56.6295V25.923ZM70.7798 37.354C70.7798 31.696 62.5458 33.49 62.5458 30.27C62.5458 28.959 63.4888 28.338 64.7538 28.384C66.1338 28.407 66.9848 29.235 67.0538 30.293H70.5958C70.3888 27.395 68.1348 25.716 64.8458 25.716C61.5338 25.716 59.1878 27.464 59.1878 30.362C59.1648 36.181 67.4448 34.088 67.4448 37.561C67.4448 38.711 66.5478 39.516 65.0298 39.516C63.5348 39.516 62.6838 38.665 62.5918 37.377H59.1418C59.1878 40.413 61.7638 42.161 65.0988 42.161C68.7558 42.161 70.7798 39.884 70.7798 37.354ZM82.8864 25.923H73.5714V42H82.8864V39.378H76.7914V35.123H82.1964V32.57H76.7914V28.545H82.8864V25.923ZM84.9616 28.545H89.2396V42H92.4596V28.545H96.7376V25.946H84.9616V28.545ZM110.311 37.354C110.311 31.696 102.077 33.49 102.077 30.27C102.077 28.959 103.02 28.338 104.285 28.384C105.665 28.407 106.516 29.235 106.585 30.293H110.127C109.92 27.395 107.666 25.716 104.377 25.716C101.065 25.716 98.719 27.464 98.719 30.362C98.696 36.181 106.976 34.088 106.976 37.561C106.976 38.711 106.079 39.516 104.561 39.516C103.066 39.516 102.215 38.665 102.123 37.377H98.673C98.719 40.413 101.295 42.161 104.63 42.161C108.287 42.161 110.311 39.884 110.311 37.354ZM116.484 40.275C116.484 39.217 115.656 38.389 114.529 38.389C113.356 38.389 112.528 39.217 112.528 40.275C112.528 41.333 113.356 42.161 114.529 42.161C115.656 42.161 116.484 41.333 116.484 40.275ZM116.484 30.753C116.484 29.695 115.656 28.867 114.529 28.867C113.356 28.867 112.528 29.695 112.528 30.753C112.528 31.811 113.356 32.639 114.529 32.639C115.656 32.639 116.484 31.811 116.484 30.753Z" fill="white"/>
<path opacity="0.5" d="M184.75 34.033C184.75 30.48 182.064 27.964 178.681 27.964C175.332 27.964 172.595 30.48 172.595 34.033C172.595 37.603 175.332 40.119 178.681 40.119C182.047 40.119 184.75 37.603 184.75 34.033ZM175.043 34.033C175.043 31.619 176.522 30.106 178.681 30.106C180.823 30.106 182.302 31.619 182.302 34.033C182.302 36.447 180.823 37.994 178.681 37.994C176.522 37.994 175.043 36.447 175.043 34.033ZM192.811 31.823C192.811 32.894 192.216 33.591 190.89 33.591H188.901V30.106H190.89C192.216 30.106 192.811 30.769 192.811 31.823ZM186.521 28.134V40H188.901V35.376H190.023L192.641 40H195.395L192.556 35.189C194.46 34.679 195.259 33.217 195.259 31.772C195.259 29.783 193.831 28.134 190.975 28.134H186.521ZM197.411 40H199.791V28.134H197.411V40ZM207.617 27.981C204.183 27.981 201.565 30.497 201.565 34.05C201.565 37.603 204.183 40.102 207.634 40.102C210.796 40.102 212.955 37.892 213.431 35.478V33.404H207.005V35.223H211.085C210.728 36.906 209.555 37.96 207.719 37.96C205.509 37.96 204.013 36.464 204.013 34.05C204.013 31.687 205.492 30.174 207.617 30.174C208.875 30.174 209.861 30.701 210.405 31.704H213.142C212.377 29.324 210.269 27.981 207.617 27.981ZM215.192 40H217.572V28.134H215.192V40ZM227.692 28.117V36.277L222.303 28.117H219.923V40H222.303V31.857L227.692 40H230.072V28.117H227.692ZM240.482 40H242.998L238.731 28.117H235.96L231.693 40H234.192L234.974 37.739H239.7L240.482 40ZM239.054 35.835H235.62L237.337 30.871L239.054 35.835ZM244.593 28.134V40H250.883V38.113H246.973V28.134H244.593Z" fill="white"/>
<path d="M157.077 33.5C157.077 38.9277 152.566 43.5 146.788 43.5C141.01 43.5 136.5 38.9277 136.5 33.5C136.5 28.0723 141.01 23.5 146.788 23.5C152.566 23.5 157.077 28.0723 157.077 33.5Z" fill="#151515" stroke="#838383" stroke-width="11"/>
<path opacity="0.5" d="M324.321 29.134H320.173V41H324.321C328.112 41 330.577 38.671 330.577 35.084C330.577 31.48 328.112 29.134 324.321 29.134ZM322.553 38.977V31.14H324.236C326.735 31.14 328.146 32.619 328.146 35.084C328.146 37.549 326.735 38.977 324.236 38.977H322.553ZM332.325 36.461C332.325 39.589 334.467 41.119 337.068 41.119C339.669 41.119 341.913 39.589 341.913 36.461V29.134H339.516V36.478C339.516 38.11 338.632 38.96 337.102 38.96C335.589 38.96 334.705 38.11 334.705 36.478V29.134H332.325V36.461ZM350.825 37.498C350.825 38.501 350.145 39.062 348.989 39.062H346.592V35.866H348.938C350.094 35.866 350.825 36.478 350.825 37.498ZM350.536 32.551C350.536 33.52 349.89 34.03 348.768 34.03H346.592V31.055H348.768C349.89 31.055 350.536 31.599 350.536 32.551ZM353.239 37.787C353.239 36.393 352.287 35.152 350.944 34.914C352.1 34.54 352.967 33.639 352.967 32.194C352.967 30.426 351.59 29.134 349.108 29.134H344.212V41H349.329C351.794 41 353.239 39.674 353.239 37.787Z" fill="white"/>
<path d="M301.563 33.5C301.563 38.9277 297.053 43.5 291.275 43.5C285.497 43.5 280.986 38.9277 280.986 33.5C280.986 28.0723 285.497 23.5 291.275 23.5C297.053 23.5 301.563 28.0723 301.563 33.5Z" fill="#151515" stroke="#838383" stroke-width="11"/>
<path opacity="0.5" d="M430.261 40H432.709V27.607H428.612V29.8H430.261V40ZM435.706 27.573V34.849H437.984C438.239 34.084 438.868 33.54 439.854 33.54C441.197 33.54 441.894 34.305 441.894 35.699C441.894 37.008 441.265 37.994 439.871 37.994C438.715 37.994 438.018 37.365 437.814 36.498H435.502C435.706 38.521 437.236 40 439.905 40C442.727 40 444.189 38.198 444.189 35.665C444.189 33.744 443.203 31.568 440.313 31.568C439.276 31.568 438.341 32.01 437.882 32.571V29.664H443.39V27.573H435.706ZM458.619 36.566C458.619 32.384 452.533 33.71 452.533 31.33C452.533 30.361 453.23 29.902 454.165 29.936C455.185 29.953 455.814 30.565 455.865 31.347H458.483C458.33 29.205 456.664 27.964 454.233 27.964C451.785 27.964 450.051 29.256 450.051 31.398C450.034 35.699 456.154 34.152 456.154 36.719C456.154 37.569 455.491 38.164 454.369 38.164C453.264 38.164 452.635 37.535 452.567 36.583H450.017C450.051 38.827 451.955 40.119 454.42 40.119C457.123 40.119 458.619 38.436 458.619 36.566ZM467.568 28.117H460.683V40H467.568V38.062H463.063V34.917H467.058V33.03H463.063V30.055H467.568V28.117ZM469.153 34.05C469.153 37.603 471.754 40.102 475.171 40.102C477.806 40.102 479.948 38.708 480.747 36.26H478.01C477.449 37.416 476.429 37.977 475.154 37.977C473.08 37.977 471.601 36.447 471.601 34.05C471.601 31.636 473.08 30.123 475.154 30.123C476.429 30.123 477.449 30.684 478.01 31.823H480.747C479.948 29.392 477.806 27.981 475.171 27.981C471.754 27.981 469.153 30.497 469.153 34.05Z" fill="white"/>
<path d="M410.646 33.5C410.646 38.9277 406.136 43.5 400.358 43.5C394.58 43.5 390.069 38.9277 390.069 33.5C390.069 28.0723 394.58 23.5 400.358 23.5C406.136 23.5 410.646 28.0723 410.646 33.5Z" fill="#151515" stroke="#838383" stroke-width="11"/>
<path opacity="0.5" d="M557.463 31.823C557.463 32.894 556.868 33.591 555.542 33.591H553.553V30.106H555.542C556.868 30.106 557.463 30.769 557.463 31.823ZM551.173 28.134V40H553.553V35.376H554.675L557.293 40H560.047L557.208 35.189C559.112 34.679 559.911 33.217 559.911 31.772C559.911 29.783 558.483 28.134 555.627 28.134H551.173ZM568.949 28.117H562.064V40H568.949V38.062H564.444V34.917H568.439V33.03H564.444V30.055H568.949V28.117ZM579.407 36.566C579.407 32.384 573.321 33.71 573.321 31.33C573.321 30.361 574.018 29.902 574.953 29.936C575.973 29.953 576.602 30.565 576.653 31.347H579.271C579.118 29.205 577.452 27.964 575.021 27.964C572.573 27.964 570.839 29.256 570.839 31.398C570.822 35.699 576.942 34.152 576.942 36.719C576.942 37.569 576.279 38.164 575.157 38.164C574.052 38.164 573.423 37.535 573.355 36.583H570.805C570.839 38.827 572.743 40.119 575.208 40.119C577.911 40.119 579.407 38.436 579.407 36.566ZM588.356 28.117H581.471V40H588.356V38.062H583.851V34.917H587.846V33.03H583.851V30.055H588.356V28.117ZM589.89 30.055H593.052V40H595.432V30.055H598.594V28.134H589.89V30.055Z" fill="white"/>
<path d="M532.168 33.5C532.168 38.9277 527.658 43.5 521.88 43.5C516.102 43.5 511.592 38.9277 511.592 33.5C511.592 28.0723 516.102 23.5 521.88 23.5C527.658 23.5 532.168 28.0723 532.168 33.5Z" fill="#151515" stroke="#838383" stroke-width="11"/>
</svg>
