<svg width="439" height="211" viewBox="0 0 439 211" fill="none" xmlns="http://www.w3.org/2000/svg">
<path d="M62.0859 20.248C39.3099 9.224 12.7899 17.96 11.7499 18.376C9.1499 19.208 7.7979 22.016 8.6299 24.512C9.46191 27.112 12.2699 28.464 14.8699 27.632C14.9739 27.632 17.9899 26.592 22.5659 25.76L1.97391 78.28C1.03791 80.776 2.28591 83.584 4.7819 84.624C5.4059 84.832 5.92591 84.936 6.5499 84.936C8.5259 84.936 10.3979 83.792 11.1259 81.816L17.2619 66.112C34.2139 59.144 68.6379 43.336 69.0539 30.024C69.1579 27.632 68.3259 23.264 62.0859 20.248ZM22.3579 53.216L33.4859 24.824C33.4859 24.72 33.5899 24.616 33.5899 24.616C41.0779 24.304 49.9179 25.24 57.9259 29.088C58.6539 29.504 59.0699 29.816 59.1739 29.92C58.1339 34.288 42.1179 44.272 22.3579 53.216ZM126.632 21.184C126.736 18.792 125.904 14.424 119.768 11.408C96.8877 0.383999 70.4717 9.12 69.3277 9.432C66.8317 10.368 65.3757 13.072 66.3117 15.672C67.1437 18.272 69.9517 19.624 72.4477 18.792C72.5517 18.688 75.6717 17.752 80.5597 16.816L70.3677 48.536C70.0557 48.64 69.6397 48.848 69.3277 48.952C66.8317 49.992 65.5837 52.8 66.6237 55.296C66.8317 55.92 67.2477 56.44 67.6637 56.856L63.5037 69.648C62.6717 72.248 64.1277 75.056 66.7277 75.784C67.2477 75.992 67.6637 76.096 68.1837 76.096C70.2637 76.096 72.2397 74.744 72.8637 72.664L77.7517 57.584L96.9917 89.2C97.9277 90.76 99.4877 91.592 101.152 91.592C101.984 91.592 102.92 91.384 103.648 90.864C106.04 89.512 106.768 86.496 105.312 84.208L86.0717 52.384C103.648 44.376 126.32 32 126.632 21.184ZM82.3277 43.336L91.1677 15.672C98.7597 15.464 107.496 16.4 115.504 20.248C116.232 20.56 116.648 20.872 116.856 21.08C115.816 25.24 101.048 34.6 82.3277 43.336ZM163.447 20.664C150.967 12.864 133.599 18.272 124.655 32.52C115.711 46.872 118.623 64.864 131.103 72.664C134.951 75.056 139.319 76.2 143.791 76.2C153.567 76.2 163.759 70.584 169.895 60.808C178.839 46.456 175.927 28.464 163.447 20.664ZM161.575 55.608C155.543 65.384 144.103 69.232 136.199 64.344C128.295 59.456 126.839 47.496 132.975 37.72C137.239 30.856 144.207 26.904 150.655 26.904C153.359 26.904 155.959 27.528 158.247 28.984C166.151 33.872 167.607 45.832 161.575 55.608ZM150.447 33.248C147.847 32.312 145.039 33.664 144.207 36.16L138.487 52.176C137.551 54.672 138.903 57.48 141.503 58.416C142.023 58.624 142.543 58.728 143.063 58.728C145.143 58.728 147.015 57.48 147.743 55.4L153.359 39.488C154.295 36.888 152.943 34.08 150.447 33.248ZM143.063 12.552H162.511C165.215 12.552 167.399 10.368 167.399 7.664C167.399 4.96 165.215 2.776 162.511 2.776H143.063C140.359 2.776 138.175 4.96 138.175 7.664C138.175 10.368 140.359 12.552 143.063 12.552ZM232.88 24.304C230.072 13.592 213.016 10.992 177.864 15.88C175.16 16.296 173.288 18.792 173.6 21.392C174.016 24.096 176.512 25.968 179.216 25.656C182.96 25.032 186.392 24.616 189.512 24.304C170.792 70.064 172.872 72.144 175.16 74.536C176.2 75.576 177.552 76.096 178.904 76.096C179.528 76.096 180.256 75.992 180.88 75.68C181.504 75.472 238.184 43.96 232.88 24.304ZM185.768 61.536C188.992 52.176 194.816 37.304 200.536 23.472C221.856 22.432 223.416 26.8 223.416 26.8C225.392 33.248 200.432 52.072 185.768 61.536ZM279.713 20.976L278.153 18.688H275.449C272.017 18.688 270.145 21.08 262.241 31.584C254.441 41.88 240.609 60.392 231.041 65.176C233.641 56.648 245.913 35.848 257.665 18.688C259.225 16.504 258.601 13.384 256.417 11.928C254.233 10.368 251.113 10.888 249.657 13.176C215.233 63.096 220.433 70.584 222.097 73.08C222.929 74.224 225.529 77.032 230.833 75.68C240.297 73.392 250.697 62.264 261.513 48.536C257.457 58.52 252.465 70.064 247.577 81.088C246.537 83.584 247.577 86.392 250.073 87.536C250.697 87.848 251.425 87.952 252.049 87.952C253.921 87.952 255.689 86.808 256.521 85.04C282.833 25.656 281.377 23.472 279.713 20.976ZM321.378 4.96C318.778 4.232 316.074 5.688 315.242 8.288L312.642 17.128C311.082 16.192 309.626 15.88 308.69 15.776C296.522 14.528 279.154 35.952 274.994 52.904C271.666 66.424 277.386 72.04 281.026 74.224C283.73 75.784 286.746 76.408 289.97 76.408C295.898 76.408 302.242 74.016 305.882 70.48C311.082 65.696 314.93 58.52 316.282 55.608C317.53 53.216 316.49 50.304 314.098 49.056C311.602 47.912 308.69 48.848 307.546 51.344C305.674 55.088 302.45 60.288 299.226 63.408C296.418 66.008 289.346 67.672 286.018 65.8C283.002 64.032 283.522 59.04 284.458 55.192C288.514 38.864 303.802 24.616 307.546 25.344C307.546 25.448 308.378 26.28 308.482 29.712C308.482 30.024 308.482 30.336 308.586 30.648L307.962 32.832C307.13 35.432 308.586 38.136 311.186 38.864C311.706 39.072 312.122 39.072 312.642 39.072C314.722 39.072 316.594 37.72 317.322 35.64L324.602 11.096C325.434 8.496 323.978 5.792 321.378 4.96ZM366.204 65.488C353.828 66.112 339.684 66.424 330.428 66.112C335.628 63.408 342.076 60.392 345.612 58.624C356.532 53.424 357.468 53.008 357.468 49.68C357.468 46.456 356.324 45.832 347.692 40.84C344.468 39.072 338.852 35.848 335.108 33.352C341.452 30.544 353.1 26.592 358.3 25.032C359.652 27.216 361.628 31.272 363.188 35.12C364.228 37.616 367.14 38.864 369.636 37.824C372.132 36.784 373.276 33.976 372.236 31.376C365.372 14.736 362.252 14.736 359.756 14.736C357.26 14.736 341.66 20.352 341.452 20.352C324.5 26.488 322.524 28.88 322.316 32.416C322.004 36.992 326.164 39.8 342.596 49.264C342.284 49.472 341.868 49.68 341.452 49.784C317.532 61.224 313.06 64.24 313.06 69.024C313.06 70.48 313.684 71.936 314.828 72.976C315.868 74.016 318.052 76.096 338.54 76.096C345.612 76.096 354.764 75.888 366.724 75.264C369.428 75.056 371.508 72.768 371.404 70.064C371.3 67.36 368.908 65.28 366.204 65.488ZM435.394 21.184C435.498 18.792 434.666 14.424 428.53 11.408C405.65 0.383999 379.234 9.12 378.09 9.432C375.594 10.368 374.138 13.072 375.074 15.672C375.906 18.272 378.714 19.624 381.21 18.792C381.314 18.688 384.434 17.752 389.322 16.816L379.13 48.536C378.818 48.64 378.402 48.848 378.09 48.952C375.594 49.992 374.346 52.8 375.386 55.296C375.594 55.92 376.01 56.44 376.426 56.856L372.266 69.648C371.434 72.248 372.89 75.056 375.49 75.784C376.01 75.992 376.426 76.096 376.946 76.096C379.026 76.096 381.002 74.744 381.626 72.664L386.514 57.584L405.754 89.2C406.69 90.76 408.25 91.592 409.914 91.592C410.746 91.592 411.682 91.384 412.41 90.864C414.802 89.512 415.53 86.496 414.074 84.208L394.834 52.384C412.41 44.376 435.082 32 435.394 21.184ZM391.09 43.336L399.93 15.672C407.522 15.464 416.258 16.4 424.266 20.248C424.994 20.56 425.41 20.872 425.618 21.08C424.578 25.24 409.81 34.6 391.09 43.336Z" fill="white"/>
<path d="M64.3374 107.16C60.9874 106.222 57.5034 108.098 56.4314 111.448L53.0814 122.838C51.0714 121.632 49.1954 121.23 47.9894 121.096C32.3114 119.488 9.93335 147.092 4.57335 168.934C0.285353 186.354 7.65535 193.59 12.3454 196.404C15.8294 198.414 19.7154 199.218 23.8694 199.218C31.5074 199.218 39.6814 196.136 44.3714 191.58C51.0714 185.416 56.0294 176.17 57.7714 172.418C59.3794 169.336 58.0394 165.584 54.9574 163.976C51.7414 162.502 47.9894 163.708 46.5154 166.924C44.1034 171.748 39.9494 178.448 35.7954 182.468C32.1774 185.818 23.0654 187.962 18.7774 185.55C14.8914 183.272 15.5614 176.84 16.7674 171.882C21.9934 150.844 41.6914 132.486 46.5154 133.424C46.5154 133.558 47.5874 134.63 47.7214 139.052C47.7214 139.454 47.7214 139.856 47.8554 140.258L47.0514 143.072C45.9794 146.422 47.8554 149.906 51.2054 150.844C51.8754 151.112 52.4114 151.112 53.0814 151.112C55.7614 151.112 58.1734 149.37 59.1114 146.69L68.4914 115.066C69.5634 111.716 67.6874 108.232 64.3374 107.16ZM116.951 127.394C100.871 117.344 78.4932 124.312 66.9692 142.67C55.4452 161.162 59.1972 184.344 75.2772 194.394C80.2352 197.476 85.8632 198.95 91.6252 198.95C104.221 198.95 117.353 191.714 125.259 179.118C136.783 160.626 133.031 137.444 116.951 127.394ZM114.539 172.418C106.767 185.014 92.0272 189.972 81.8432 183.674C71.6592 177.376 69.7832 161.966 77.6892 149.37C83.1832 140.526 92.1612 135.434 100.469 135.434C103.953 135.434 107.303 136.238 110.251 138.114C120.435 144.412 122.311 159.822 114.539 172.418ZM100.201 143.608C96.8512 142.402 93.2332 144.144 92.1612 147.36L84.7912 167.996C83.5852 171.212 85.3272 174.83 88.6772 176.036C89.3472 176.304 90.0172 176.438 90.6872 176.438C93.3672 176.438 95.7792 174.83 96.7172 172.15L103.953 151.648C105.159 148.298 103.417 144.68 100.201 143.608ZM90.6872 116.942H115.745C119.229 116.942 122.043 114.128 122.043 110.644C122.043 107.16 119.229 104.346 115.745 104.346H90.6872C87.2032 104.346 84.3892 107.16 84.3892 110.644C84.3892 114.128 87.2032 116.942 90.6872 116.942ZM174.143 184.88C173.339 181.53 169.989 179.386 166.639 180.19C157.929 182.066 147.879 184.21 141.581 185.416C144.261 174.83 151.765 152.988 158.867 134.228C160.207 131.012 158.599 127.26 155.249 126.054C152.033 124.848 148.415 126.456 147.209 129.672C124.965 187.828 127.511 192.652 128.851 195.198C129.789 196.94 131.531 198.146 133.407 198.682C133.675 198.682 134.211 198.816 135.149 198.816C137.963 198.816 145.467 197.878 169.453 192.384C172.803 191.714 174.947 188.23 174.143 184.88ZM218.572 184.88C217.768 181.53 214.418 179.386 211.068 180.19C202.358 182.066 192.308 184.21 186.01 185.416C188.69 174.83 196.194 152.988 203.296 134.228C204.636 131.012 203.028 127.26 199.678 126.054C196.462 124.848 192.844 126.456 191.638 129.672C169.394 187.828 171.94 192.652 173.28 195.198C174.218 196.94 175.96 198.146 177.836 198.682C178.104 198.682 178.64 198.816 179.578 198.816C182.392 198.816 189.896 197.878 213.882 192.384C217.232 191.714 219.376 188.23 218.572 184.88ZM277.086 159.286C274.54 159.152 272.128 159.018 269.716 158.884C269.716 144.144 269.314 133.692 268.376 129.404C267.84 126.858 266.098 119.354 259.398 118.818C251.09 118.148 247.338 127.93 237.958 151.514C236.886 154.194 235.814 157.008 234.608 159.956C219.332 161.296 210.89 163.708 210.22 163.842C206.87 164.78 204.994 168.264 205.932 171.614C206.736 174.428 209.282 176.17 211.962 176.17C212.498 176.17 213.168 176.17 213.704 175.902C213.838 175.902 219.198 174.428 229.114 173.222C224.826 182.87 220.27 192.25 215.312 199.352C213.436 202.166 214.106 206.052 217.054 208.062C219.868 210.072 223.754 209.402 225.764 206.454C232.33 196.94 238.226 184.21 243.318 171.882C247.606 171.614 252.162 171.48 257.12 171.346C257.12 176.438 257.12 181.53 257.12 186.22C256.986 192.652 256.986 198.682 256.986 203.908C256.986 207.392 259.8 210.206 263.284 210.206C266.768 210.206 269.582 207.392 269.582 203.908C269.582 198.682 269.582 192.652 269.716 186.22C269.716 181.128 269.716 176.17 269.716 171.614C271.86 171.614 274.138 171.748 276.416 171.882C279.766 172.016 282.848 169.336 282.982 165.852C283.116 162.368 280.57 159.42 277.086 159.286ZM248.544 159.018C248.946 158.08 249.348 157.008 249.75 156.204C252.028 150.442 254.574 144.01 256.718 139.052C256.986 144.01 257.12 151.112 257.12 158.75C254.172 158.884 251.358 158.884 248.544 159.018ZM371.602 121.766C371.602 119.488 370.53 117.478 368.789 116.138C367.18 114.664 363.161 111.448 326.712 117.344L328.588 111.314C329.526 107.964 327.65 104.48 324.3 103.542C321.084 102.47 317.466 104.346 316.528 107.696L312.91 119.756C304.87 121.23 295.624 122.972 284.904 125.25C281.554 125.92 279.41 129.27 280.08 132.62C280.75 136.104 284.1 138.248 287.584 137.578C294.418 136.104 301.654 134.63 308.756 133.424L292.81 186.354C287.986 186.354 283.698 186.354 280.214 186.086C276.73 185.818 273.782 188.498 273.514 191.982C273.38 195.466 275.926 198.414 279.41 198.682C280.75 198.682 284.502 198.816 289.728 198.816C307.014 198.816 339.844 197.61 347.482 190.508C349.358 188.9 350.296 186.756 350.296 184.478C350.296 177.108 333.814 168.13 320.414 162.502C325.372 159.554 331.804 155.4 340.38 149.638C371.602 128.6 371.602 124.848 371.602 121.766ZM333.278 183.004C326.846 184.344 316.528 185.416 306.21 185.952L310.364 171.882C317.198 174.562 327.114 179.386 333.278 183.004ZM316.93 149.906L322.692 130.878C333.546 129.002 343.463 127.662 350.698 126.858C341.587 133.692 327.65 143.34 316.93 149.906ZM377.6 171.212C377.332 171.212 376.93 171.212 376.662 171.212C382.96 163.574 404.668 148.164 419.14 139.99C417.264 144.412 414.45 150.174 411.368 155.4C409.626 158.348 410.698 162.234 413.646 163.976C416.728 165.718 420.614 164.78 422.356 161.698C438.436 134.094 433.612 128.868 431.602 126.59C429.994 124.848 426.242 122.436 419.542 125.652C418.872 125.92 358.572 158.08 362.726 175.634C363.932 181.128 368.89 183.808 377.734 183.808C390.062 183.674 398.504 184.612 403.864 185.55C393.01 189.302 375.322 193.322 367.684 192.25C364.334 191.848 361.118 194.26 360.582 197.744C360.18 201.094 362.592 204.31 366.076 204.712C367.282 204.98 368.756 204.98 370.364 204.98C385.104 204.98 410.028 197.744 417.532 193.456C423.964 189.838 423.16 184.612 422.624 183.138C420.48 174.964 405.338 170.944 377.6 171.212Z" fill="#E5986E"/>
</svg>
