<svg width="256" height="220" viewBox="0 0 256 220" fill="none" xmlns="http://www.w3.org/2000/svg">
<path d="M21.3252 99H26.6532V90.528L29.2692 99H33.8292L36.4452 90.528V99H41.7492V82.008H35.2452L31.5972 92.208L27.8532 82.008H21.3252V99ZM43.6733 99H49.0013V85.464H43.6733V99ZM46.3613 84.384C48.2333 84.384 49.4093 83.232 49.4093 81.768C49.4093 80.28 48.2333 79.104 46.3613 79.104C44.4653 79.104 43.2893 80.28 43.2893 81.768C43.2893 83.232 44.4653 84.384 46.3613 84.384ZM60.0477 99H65.3517V91.152C65.3517 87.648 63.5277 85.368 60.4077 85.368C58.3677 85.368 57.0237 86.352 56.2557 87.528V85.464H50.9277V99H56.2557V91.824C56.2557 90.528 56.9757 89.736 58.1517 89.736C59.3037 89.736 60.0477 90.528 60.0477 91.824V99ZM68.022 93.456C68.022 97.656 70.422 99 73.59 99H75.606V94.464H74.334C73.638 94.464 73.35 94.176 73.35 93.552V89.904H75.558V85.464H73.35V82.2H68.022V85.464H66.342V89.904H68.022V93.456ZM162.936 89.4V86.28H164.448C165.648 86.28 166.104 86.904 166.104 87.84C166.104 88.776 165.648 89.4 164.448 89.4H162.936ZM171.504 87.84C171.504 84.408 169.32 82.008 165.048 82.008H157.608V99H162.936V93.6H165.048C169.32 93.6 171.504 90.984 171.504 87.84ZM172.714 99H178.042V81.24H172.714V99ZM179.248 92.232C179.248 96.6 181.72 99.168 184.84 99.168C186.64 99.168 187.936 98.376 188.584 97.152V99H193.888V85.464H188.584V87.312C187.936 86.088 186.64 85.296 184.84 85.296C181.72 85.296 179.248 87.864 179.248 92.232ZM188.584 92.232C188.584 93.72 187.72 94.512 186.616 94.512C185.512 94.512 184.648 93.72 184.648 92.232C184.648 90.744 185.512 89.952 186.616 89.952C187.72 89.952 188.584 90.744 188.584 92.232ZM202.832 92.328L200.288 85.464H194.36L200 98.328L196.592 105.48H202.424L211.088 85.464H205.208L202.832 92.328ZM217.755 89.472C218.547 89.472 219.267 89.904 219.267 90.84H216.099C216.267 89.904 216.867 89.472 217.755 89.472ZM224.379 94.128H218.739C218.547 94.536 218.187 94.92 217.491 94.92C216.771 94.92 216.123 94.536 216.051 93.168H224.595C224.643 92.832 224.667 92.448 224.667 92.112C224.667 87.864 221.811 85.296 217.755 85.296C213.699 85.296 210.843 87.912 210.843 92.232C210.843 96.552 213.699 99.168 217.755 99.168C221.163 99.168 223.803 97.008 224.379 94.128ZM231.2 93.456C231.2 91.608 232.208 91.056 234.128 91.056H235.64V85.368C233.888 85.368 232.256 86.448 231.2 87.96V85.464H225.872V99H231.2V93.456ZM29.5419 119.008H22.4619V136H29.5419C34.9659 136 38.3739 132.304 38.3739 127.456C38.3739 122.56 34.9659 119.008 29.5419 119.008ZM27.7899 131.248V123.664H29.0619C31.4139 123.664 32.9739 124.984 32.9739 127.456C32.9739 129.928 31.4139 131.248 29.0619 131.248H27.7899ZM46.0098 126.472C46.8018 126.472 47.5218 126.904 47.5218 127.84H44.3538C44.5218 126.904 45.1218 126.472 46.0098 126.472ZM52.6338 131.128H46.9938C46.8018 131.536 46.4418 131.92 45.7458 131.92C45.0258 131.92 44.3778 131.536 44.3058 130.168H52.8498C52.8978 129.832 52.9218 129.448 52.9218 129.112C52.9218 124.864 50.0658 122.296 46.0098 122.296C41.9538 122.296 39.0978 124.912 39.0978 129.232C39.0978 133.552 41.9538 136.168 46.0098 136.168C49.4178 136.168 52.0578 134.008 52.6338 131.128ZM53.1429 122.464L57.6549 136H64.3029L68.8149 122.464H63.1509L60.9909 130.936L58.8069 122.464H53.1429ZM75.9404 126.472C76.7324 126.472 77.4524 126.904 77.4524 127.84H74.2844C74.4524 126.904 75.0524 126.472 75.9404 126.472ZM82.5644 131.128H76.9244C76.7324 131.536 76.3724 131.92 75.6764 131.92C74.9564 131.92 74.3084 131.536 74.2364 130.168H82.7804C82.8284 129.832 82.8524 129.448 82.8524 129.112C82.8524 124.864 79.9964 122.296 75.9404 122.296C71.8844 122.296 69.0284 124.912 69.0284 129.232C69.0284 133.552 71.8844 136.168 75.9404 136.168C79.3484 136.168 81.9884 134.008 82.5644 131.128ZM84.0575 136H89.3855V118.24H84.0575V136ZM104.896 129.232C104.896 124.912 101.824 122.296 97.7439 122.296C93.6639 122.296 90.5919 124.912 90.5919 129.232C90.5919 133.552 93.6639 136.168 97.7439 136.168C101.824 136.168 104.896 133.552 104.896 129.232ZM95.9919 129.232C95.9919 127.624 96.8079 126.904 97.7439 126.904C98.6799 126.904 99.4959 127.624 99.4959 129.232C99.4959 130.84 98.6799 131.56 97.7439 131.56C96.7839 131.56 95.9919 130.84 95.9919 129.232ZM111.418 124.312V122.464H106.09V142.48H111.418V134.152C112.066 135.376 113.338 136.168 115.138 136.168C118.258 136.168 120.73 133.6 120.73 129.232C120.73 124.864 118.258 122.296 115.138 122.296C113.338 122.296 112.066 123.088 111.418 124.312ZM115.33 129.232C115.33 130.72 114.466 131.512 113.362 131.512C112.258 131.512 111.394 130.72 111.394 129.232C111.394 127.744 112.258 126.952 113.362 126.952C114.466 126.952 115.33 127.744 115.33 129.232ZM134.446 126.4V123.28H135.958C137.158 123.28 137.614 123.904 137.614 124.84C137.614 125.776 137.158 126.4 135.958 126.4H134.446ZM143.014 124.84C143.014 121.408 140.83 119.008 136.558 119.008H129.118V136H134.446V130.6H136.558C140.83 130.6 143.014 127.984 143.014 124.84ZM143.504 129.232C143.504 133.6 145.976 136.168 149.096 136.168C150.896 136.168 152.192 135.376 152.84 134.152V136H158.144V122.464H152.84V124.312C152.192 123.088 150.896 122.296 149.096 122.296C145.976 122.296 143.504 124.864 143.504 129.232ZM152.84 129.232C152.84 130.72 151.976 131.512 150.872 131.512C149.768 131.512 148.904 130.72 148.904 129.232C148.904 127.744 149.768 126.952 150.872 126.952C151.976 126.952 152.84 127.744 152.84 129.232ZM165.385 130.456C165.385 128.608 166.393 128.056 168.313 128.056H169.825V122.368C168.073 122.368 166.441 123.448 165.385 124.96V122.464H160.057V136H165.385V130.456ZM171.62 130.456C171.62 134.656 174.02 136 177.188 136H179.204V131.464H177.932C177.236 131.464 176.948 131.176 176.948 130.552V126.904H179.156V122.464H176.948V119.2H171.62V122.464H169.94V126.904H171.62V130.456ZM189.873 136H195.177V128.152C195.177 124.648 193.353 122.368 190.233 122.368C188.193 122.368 186.849 123.352 186.081 124.528V122.464H180.753V136H186.081V128.824C186.081 127.528 186.801 126.736 187.977 126.736C189.129 126.736 189.873 127.528 189.873 128.824V136ZM203.199 126.472C203.991 126.472 204.711 126.904 204.711 127.84H201.543C201.711 126.904 202.311 126.472 203.199 126.472ZM209.823 131.128H204.183C203.991 131.536 203.631 131.92 202.935 131.92C202.215 131.92 201.567 131.536 201.495 130.168H210.039C210.087 129.832 210.111 129.448 210.111 129.112C210.111 124.864 207.255 122.296 203.199 122.296C199.143 122.296 196.287 124.912 196.287 129.232C196.287 133.552 199.143 136.168 203.199 136.168C206.607 136.168 209.247 134.008 209.823 131.128ZM216.645 130.456C216.645 128.608 217.653 128.056 219.573 128.056H221.085V122.368C219.333 122.368 217.701 123.448 216.645 124.96V122.464H211.317V136H216.645V130.456ZM233.824 131.944C233.824 126.736 226.744 128.296 226.744 126.616C226.744 126.208 227.056 125.992 227.584 125.992C228.448 125.992 228.976 126.424 229.12 127.144H233.848C233.464 124.48 231.568 122.296 227.704 122.296C223.888 122.296 221.944 124.312 221.944 126.76C221.944 131.728 228.928 130.096 228.928 131.872C228.928 132.208 228.592 132.496 228.04 132.496C227.224 132.496 226.576 132.136 226.456 131.32H221.344C221.584 134.08 224.152 136.168 228.064 136.168C231.664 136.168 233.824 134.344 233.824 131.944ZM12.8072 156.008H1.47922V173H12.8072V168.752H6.80722V166.352H12.0872V162.344H6.80722V160.256H12.8072V156.008ZM13.6152 166.232C13.6152 170.6 16.0872 173.168 19.2072 173.168C21.0072 173.168 22.2792 172.376 22.9272 171.152V173H28.2552V155.24H22.9272V161.312C22.2792 160.088 21.0072 159.296 19.2072 159.296C16.0872 159.296 13.6152 161.864 13.6152 166.232ZM22.9512 166.232C22.9512 167.72 22.0872 168.512 20.9832 168.512C19.8792 168.512 19.0152 167.72 19.0152 166.232C19.0152 164.744 19.8792 163.952 20.9832 163.952C22.0872 163.952 22.9512 164.744 22.9512 166.232ZM44.4957 159.464H39.1677V166.64C39.1677 167.936 38.4477 168.728 37.2717 168.728C36.1197 168.728 35.3757 167.936 35.3757 166.64V159.464H30.0717V167.312C30.0717 170.816 31.8957 173.096 35.0157 173.096C37.0557 173.096 38.3997 172.112 39.1677 170.936V173H44.4957V159.464ZM45.702 166.232C45.702 170.552 48.558 173.168 52.614 173.168C56.094 173.168 58.71 171.104 59.358 167.552H53.718C53.526 168.2 53.166 168.608 52.494 168.608C51.678 168.608 51.102 167.864 51.102 166.232C51.102 164.6 51.678 163.856 52.494 163.856C53.166 163.856 53.526 164.264 53.718 164.912H59.358C58.71 161.36 56.094 159.296 52.614 159.296C48.558 159.296 45.702 161.912 45.702 166.232ZM59.847 166.232C59.847 170.6 62.319 173.168 65.439 173.168C67.239 173.168 68.535 172.376 69.183 171.152V173H74.487V159.464H69.183V161.312C68.535 160.088 67.239 159.296 65.439 159.296C62.319 159.296 59.847 161.864 59.847 166.232ZM69.183 166.232C69.183 167.72 68.319 168.512 67.215 168.512C66.111 168.512 65.247 167.72 65.247 166.232C65.247 164.744 66.111 163.952 67.215 163.952C68.319 163.952 69.183 164.744 69.183 166.232ZM77.2395 167.456C77.2395 171.656 79.6395 173 82.8075 173H84.8235V168.464H83.5515C82.8555 168.464 82.5675 168.176 82.5675 167.552V163.904H84.7755V159.464H82.5675V156.2H77.2395V159.464H75.5595V163.904H77.2395V167.456ZM92.5647 163.472C93.3567 163.472 94.0767 163.904 94.0767 164.84H90.9087C91.0767 163.904 91.6767 163.472 92.5647 163.472ZM99.1887 168.128H93.5487C93.3567 168.536 92.9967 168.92 92.3007 168.92C91.5807 168.92 90.9327 168.536 90.8607 167.168H99.4047C99.4527 166.832 99.4767 166.448 99.4767 166.112C99.4767 161.864 96.6207 159.296 92.5647 159.296C88.5087 159.296 85.6527 161.912 85.6527 166.232C85.6527 170.552 88.5087 173.168 92.5647 173.168C95.9727 173.168 98.6127 171.008 99.1887 168.128ZM107.398 164.48C107.398 169.544 110.59 173.12 115.798 173.12C120.286 173.12 123.334 170.432 124.03 166.424H118.414C117.91 167.552 116.902 168.2 115.702 168.2C113.902 168.2 112.798 166.736 112.798 164.48C112.798 162.224 113.902 160.76 115.702 160.76C116.902 160.76 117.91 161.408 118.414 162.536H124.03C123.334 158.528 120.286 155.84 115.798 155.84C110.59 155.84 107.398 159.416 107.398 164.48ZM139.052 166.232C139.052 161.912 135.98 159.296 131.9 159.296C127.82 159.296 124.748 161.912 124.748 166.232C124.748 170.552 127.82 173.168 131.9 173.168C135.98 173.168 139.052 170.552 139.052 166.232ZM130.148 166.232C130.148 164.624 130.964 163.904 131.9 163.904C132.836 163.904 133.652 164.624 133.652 166.232C133.652 167.84 132.836 168.56 131.9 168.56C130.94 168.56 130.148 167.84 130.148 166.232ZM158.462 173H163.766V165.152C163.766 161.648 161.822 159.368 158.318 159.368C156.326 159.368 154.79 160.496 153.878 161.792C152.99 160.256 151.454 159.368 149.486 159.368C147.59 159.368 146.294 160.232 145.574 161.288V159.464H140.246V173H145.574V165.824C145.574 164.672 146.294 163.976 147.47 163.976C148.622 163.976 149.366 164.672 149.366 165.824V173H154.67V165.824C154.67 164.672 155.39 163.976 156.566 163.976C157.718 163.976 158.462 164.672 158.462 165.824V173ZM183.81 173H189.114V165.152C189.114 161.648 187.17 159.368 183.666 159.368C181.674 159.368 180.138 160.496 179.226 161.792C178.338 160.256 176.802 159.368 174.834 159.368C172.938 159.368 171.642 160.232 170.922 161.288V159.464H165.594V173H170.922V165.824C170.922 164.672 171.642 163.976 172.818 163.976C173.97 163.976 174.714 164.672 174.714 165.824V173H180.018V165.824C180.018 164.672 180.738 163.976 181.914 163.976C183.066 163.976 183.81 164.672 183.81 165.824V173ZM205.27 159.464H199.942V166.64C199.942 167.936 199.222 168.728 198.046 168.728C196.894 168.728 196.15 167.936 196.15 166.64V159.464H190.846V167.312C190.846 170.816 192.67 173.096 195.79 173.096C197.83 173.096 199.174 172.112 199.942 170.936V173H205.27V159.464ZM216.317 173H221.621V165.152C221.621 161.648 219.797 159.368 216.677 159.368C214.637 159.368 213.293 160.352 212.525 161.528V159.464H207.197V173H212.525V165.824C212.525 164.528 213.245 163.736 214.421 163.736C215.573 163.736 216.317 164.528 216.317 165.824V173ZM223.451 173H228.779V159.464H223.451V173ZM226.139 158.384C228.011 158.384 229.187 157.232 229.187 155.768C229.187 154.28 228.011 153.104 226.139 153.104C224.243 153.104 223.067 154.28 223.067 155.768C223.067 157.232 224.243 158.384 226.139 158.384ZM231.545 167.456C231.545 171.656 233.945 173 237.113 173H239.129V168.464H237.857C237.161 168.464 236.873 168.176 236.873 167.552V163.904H239.081V159.464H236.873V156.2H231.545V159.464H229.865V163.904H231.545V167.456ZM247.711 166.328L245.167 159.464H239.239L244.879 172.328L241.471 179.48H247.303L255.967 159.464H250.087L247.711 166.328Z" fill="#F29565"/>
<path d="M92.4893 99H98.1053L91.9133 82.008H85.7693L79.5533 99H85.1453L85.9853 96.432H91.6493L92.4893 99ZM90.3533 92.424H87.2813L88.8173 87.696L90.3533 92.424ZM98.8358 99H104.164V81.24H98.8358V99ZM111.418 87.312V85.464H106.09V105.48H111.418V97.152C112.066 98.376 113.338 99.168 115.138 99.168C118.258 99.168 120.73 96.6 120.73 92.232C120.73 87.864 118.258 85.296 115.138 85.296C113.338 85.296 112.066 86.088 111.418 87.312ZM115.33 92.232C115.33 93.72 114.466 94.512 113.362 94.512C112.258 94.512 111.394 93.72 111.394 92.232C111.394 90.744 112.258 89.952 113.362 89.952C114.466 89.952 115.33 90.744 115.33 92.232ZM121.923 99H127.251V91.824C127.251 90.528 127.971 89.736 129.147 89.736C130.299 89.736 131.043 90.528 131.043 91.824V99H136.347V91.152C136.347 87.648 134.523 85.368 131.403 85.368C129.363 85.368 128.019 86.352 127.251 87.528V81.24H121.923V99ZM137.457 92.232C137.457 96.6 139.929 99.168 143.049 99.168C144.849 99.168 146.145 98.376 146.793 97.152V99H152.097V85.464H146.793V87.312C146.145 86.088 144.849 85.296 143.049 85.296C139.929 85.296 137.457 87.864 137.457 92.232ZM146.793 92.232C146.793 93.72 145.929 94.512 144.825 94.512C143.721 94.512 142.857 93.72 142.857 92.232C142.857 90.744 143.721 89.952 144.825 89.952C145.929 89.952 146.793 90.744 146.793 92.232Z" fill="white"/>
<path d="M26.4993 43H36.5793V38.05H39.8193V29.41H36.5793V10.6H25.8243L12.4143 29.725V38.05H26.4993V43ZM22.4493 29.41L27.3093 21.985V29.41H22.4493ZM44.6839 32.605C44.6839 40.48 49.1839 43 55.1239 43H58.9039V34.495H56.5189C55.2139 34.495 54.6739 33.955 54.6739 32.785V25.945H58.8139V17.62H54.6739V11.5H44.6839V17.62H41.5339V25.945H44.6839V32.605ZM61.8085 43H71.7985V29.545C71.7985 27.115 73.1485 25.63 75.3535 25.63C77.5135 25.63 78.9085 27.115 78.9085 29.545V43H88.8535V28.285C88.8535 21.715 85.4335 17.44 79.5835 17.44C75.7585 17.44 73.2385 19.285 71.7985 21.49V9.7H61.8085V43ZM108.302 26.935C108.302 22.615 110.462 19.825 114.557 19.825C118.562 19.825 120.767 22.615 120.767 26.935C120.767 31.165 118.562 34 114.557 34C110.462 34 108.302 31.165 108.302 26.935ZM130.892 26.935C130.892 17.35 123.647 10.6 114.557 10.6C105.512 10.6 98.1319 17.35 98.1319 26.935C98.1319 36.52 105.512 43.315 114.557 43.315C115.367 43.315 116.177 43.27 116.942 43.135L120.002 48.175H131.792L125.312 39.445C128.732 36.52 130.892 32.155 130.892 26.935ZM135.171 32.605C135.171 40.48 139.671 43 145.611 43H149.391V34.495H147.006C145.701 34.495 145.161 33.955 145.161 32.785V25.945H149.301V17.62H145.161V11.5H135.171V17.62H132.021V25.945H135.171V32.605ZM162.285 32.605C162.285 29.14 164.175 28.105 167.775 28.105H170.61V17.44C167.325 17.44 164.265 19.465 162.285 22.3V17.62H152.295V43H162.285V32.605ZM183.066 38.455C183.066 35.665 180.861 33.46 177.351 33.46C173.796 33.46 171.591 35.665 171.591 38.455C171.591 41.2 173.796 43.36 177.351 43.36C180.861 43.36 183.066 41.2 183.066 38.455ZM197.928 11.14L192.618 24.415H202.518L204.498 11.14H197.928ZM207.735 42.55H231V34.495H220.695C225.915 31.21 230.865 25.765 230.865 19.24C230.865 14.02 227.94 9.385 219.75 9.385C213.585 9.385 207.915 12.76 207.6 21.49H217.275C217.095 18.835 217.995 17.755 219.075 17.755C220.11 17.755 220.785 18.565 220.785 20.005C220.785 24.73 214.08 30.265 207.735 35.035V42.55ZM236.283 43H246.768V10.105H231.513V19.465H236.283V43Z" fill="white"/>
</svg>
