<svg width="290" height="221" viewBox="0 0 290 221" fill="none" xmlns="http://www.w3.org/2000/svg">
<path d="M62.2164 82.4318H55.1364V99.4238H62.2164C67.6404 99.4238 71.0484 95.7278 71.0484 90.8798C71.0484 85.9838 67.6404 82.4318 62.2164 82.4318ZM60.4644 94.6718V87.0878H61.7364C64.0884 87.0878 65.6484 88.4078 65.6484 90.8798C65.6484 93.3518 64.0884 94.6718 61.7364 94.6718H60.4644ZM77.8203 93.8798C77.8203 92.0318 78.8283 91.4798 80.7483 91.4798H82.2603V85.7918C80.5083 85.7918 78.8763 86.8718 77.8203 88.3838V85.8878H72.4923V99.4238H77.8203V93.8798ZM83.2155 99.4238H88.5435V85.8878H83.2155V99.4238ZM85.9035 84.8078C87.7755 84.8078 88.9515 83.6558 88.9515 82.1918C88.9515 80.7038 87.7755 79.5278 85.9035 79.5278C84.0075 79.5278 82.8315 80.7038 82.8315 82.1918C82.8315 83.6558 84.0075 84.8078 85.9035 84.8078ZM89.4859 85.8878L93.9979 99.4238H100.646L105.158 85.8878H99.4939L97.3339 94.3598L95.1499 85.8878H89.4859ZM112.283 89.8958C113.075 89.8958 113.795 90.3278 113.795 91.2638H110.627C110.795 90.3278 111.395 89.8958 112.283 89.8958ZM118.907 94.5518H113.267C113.075 94.9598 112.715 95.3438 112.019 95.3438C111.299 95.3438 110.651 94.9598 110.579 93.5918H119.123C119.171 93.2558 119.195 92.8718 119.195 92.5358C119.195 88.2878 116.339 85.7198 112.283 85.7198C108.227 85.7198 105.371 88.3358 105.371 92.6558C105.371 96.9758 108.227 99.5918 112.283 99.5918C115.691 99.5918 118.331 97.4318 118.907 94.5518ZM135.735 99.4238H141.351L135.159 82.4318H129.015L122.799 99.4238H128.391L129.231 96.8558H134.895L135.735 99.4238ZM133.599 92.8478H130.527L132.063 88.1198L133.599 92.8478ZM141.361 92.6558C141.361 97.0238 143.833 99.5918 146.953 99.5918C148.753 99.5918 150.025 98.7998 150.673 97.5758V99.4238H156.001V81.6638H150.673V87.7358C150.025 86.5118 148.753 85.7198 146.953 85.7198C143.833 85.7198 141.361 88.2878 141.361 92.6558ZM150.697 92.6558C150.697 94.1438 149.833 94.9358 148.729 94.9358C147.625 94.9358 146.761 94.1438 146.761 92.6558C146.761 91.1678 147.625 90.3758 148.729 90.3758C149.833 90.3758 150.697 91.1678 150.697 92.6558ZM171.498 92.6558C171.498 88.3358 168.426 85.7198 164.346 85.7198C160.266 85.7198 157.194 88.3358 157.194 92.6558C157.194 96.9758 160.266 99.5918 164.346 99.5918C168.426 99.5918 171.498 96.9758 171.498 92.6558ZM162.594 92.6558C162.594 91.0478 163.41 90.3278 164.346 90.3278C165.282 90.3278 166.098 91.0478 166.098 92.6558C166.098 94.2638 165.282 94.9838 164.346 94.9838C163.386 94.9838 162.594 94.2638 162.594 92.6558ZM178.019 87.7358V85.8878H172.691V105.904H178.019V97.5758C178.667 98.7998 179.939 99.5918 181.739 99.5918C184.859 99.5918 187.331 97.0238 187.331 92.6558C187.331 88.2878 184.859 85.7198 181.739 85.7198C179.939 85.7198 178.667 86.5118 178.019 87.7358ZM181.931 92.6558C181.931 94.1438 181.067 94.9358 179.963 94.9358C178.859 94.9358 177.995 94.1438 177.995 92.6558C177.995 91.1678 178.859 90.3758 179.963 90.3758C181.067 90.3758 181.931 91.1678 181.931 92.6558ZM189.364 93.8798C189.364 98.0798 191.764 99.4238 194.932 99.4238H196.948V94.8878H195.676C194.98 94.8878 194.692 94.5998 194.692 93.9758V90.3278H196.9V85.8878H194.692V82.6238H189.364V85.8878H187.684V90.3278H189.364V93.8798ZM198.497 99.4238H203.825V85.8878H198.497V99.4238ZM201.185 84.8078C203.057 84.8078 204.233 83.6558 204.233 82.1918C204.233 80.7038 203.057 79.5278 201.185 79.5278C199.289 79.5278 198.113 80.7038 198.113 82.1918C198.113 83.6558 199.289 84.8078 201.185 84.8078ZM219.335 92.6558C219.335 88.3358 216.263 85.7198 212.183 85.7198C208.103 85.7198 205.031 88.3358 205.031 92.6558C205.031 96.9758 208.103 99.5918 212.183 99.5918C216.263 99.5918 219.335 96.9758 219.335 92.6558ZM210.431 92.6558C210.431 91.0478 211.247 90.3278 212.183 90.3278C213.119 90.3278 213.935 91.0478 213.935 92.6558C213.935 94.2638 213.119 94.9838 212.183 94.9838C211.223 94.9838 210.431 94.2638 210.431 92.6558ZM229.649 99.4238H234.953V91.5758C234.953 88.0718 233.129 85.7918 230.009 85.7918C227.969 85.7918 226.625 86.7758 225.857 87.9518V85.8878H220.529V99.4238H225.857V92.2478C225.857 90.9518 226.577 90.1598 227.753 90.1598C228.905 90.1598 229.649 90.9518 229.649 92.2478V99.4238ZM59.9486 119.432H52.8686V136.424H59.9486C65.3726 136.424 68.7806 132.728 68.7806 127.88C68.7806 122.984 65.3726 119.432 59.9486 119.432ZM58.1966 131.672V124.088H59.4686C61.8206 124.088 63.3806 125.408 63.3806 127.88C63.3806 130.352 61.8206 131.672 59.4686 131.672H58.1966ZM69.5045 129.656C69.5045 134.024 71.9765 136.592 75.0965 136.592C76.8965 136.592 78.1925 135.8 78.8405 134.576V136.424H84.1445V122.888H78.8405V124.736C78.1925 123.512 76.8965 122.72 75.0965 122.72C71.9765 122.72 69.5045 125.288 69.5045 129.656ZM78.8405 129.656C78.8405 131.144 77.9765 131.936 76.8725 131.936C75.7685 131.936 74.9045 131.144 74.9045 129.656C74.9045 128.168 75.7685 127.376 76.8725 127.376C77.9765 127.376 78.8405 128.168 78.8405 129.656ZM86.897 130.88C86.897 135.08 89.297 136.424 92.465 136.424H94.481V131.888H93.209C92.513 131.888 92.225 131.6 92.225 130.976V127.328H94.433V122.888H92.225V119.624H86.897V122.888H85.217V127.328H86.897V130.88ZM95.3102 129.656C95.3102 134.024 97.7822 136.592 100.902 136.592C102.702 136.592 103.998 135.8 104.646 134.576V136.424H109.95V122.888H104.646V124.736C103.998 123.512 102.702 122.72 100.902 122.72C97.7822 122.72 95.3102 125.288 95.3102 129.656ZM104.646 129.656C104.646 131.144 103.782 131.936 102.678 131.936C101.574 131.936 100.71 131.144 100.71 129.656C100.71 128.168 101.574 127.376 102.678 127.376C103.782 127.376 104.646 128.168 104.646 129.656ZM114.981 127.904C114.981 132.968 118.173 136.544 123.381 136.544C127.869 136.544 130.917 133.856 131.613 129.848H125.997C125.493 130.976 124.485 131.624 123.285 131.624C121.485 131.624 120.381 130.16 120.381 127.904C120.381 125.648 121.485 124.184 123.285 124.184C124.485 124.184 125.493 124.832 125.997 125.96H131.613C130.917 121.952 127.869 119.264 123.381 119.264C118.173 119.264 114.981 122.84 114.981 127.904ZM146.635 129.656C146.635 125.336 143.563 122.72 139.483 122.72C135.403 122.72 132.331 125.336 132.331 129.656C132.331 133.976 135.403 136.592 139.483 136.592C143.563 136.592 146.635 133.976 146.635 129.656ZM137.731 129.656C137.731 128.048 138.547 127.328 139.483 127.328C140.419 127.328 141.235 128.048 141.235 129.656C141.235 131.264 140.419 131.984 139.483 131.984C138.523 131.984 137.731 131.264 137.731 129.656ZM147.829 136.424H153.157V118.664H147.829V136.424ZM155.083 136.424H160.411V118.664H155.083V136.424ZM168.53 126.896C169.322 126.896 170.042 127.328 170.042 128.264H166.874C167.042 127.328 167.642 126.896 168.53 126.896ZM175.154 131.552H169.514C169.322 131.96 168.962 132.344 168.266 132.344C167.546 132.344 166.898 131.96 166.826 130.592H175.37C175.418 130.256 175.442 129.872 175.442 129.536C175.442 125.288 172.586 122.72 168.53 122.72C164.474 122.72 161.618 125.336 161.618 129.656C161.618 133.976 164.474 136.592 168.53 136.592C171.938 136.592 174.578 134.432 175.154 131.552ZM175.927 129.656C175.927 133.976 178.783 136.592 182.839 136.592C186.319 136.592 188.935 134.528 189.583 130.976H183.943C183.751 131.624 183.391 132.032 182.719 132.032C181.903 132.032 181.327 131.288 181.327 129.656C181.327 128.024 181.903 127.28 182.719 127.28C183.391 127.28 183.751 127.688 183.943 128.336H189.583C188.935 124.784 186.319 122.72 182.839 122.72C178.783 122.72 175.927 125.336 175.927 129.656ZM191.632 130.88C191.632 135.08 194.032 136.424 197.2 136.424H199.216V131.888H197.944C197.248 131.888 196.96 131.6 196.96 130.976V127.328H199.168V122.888H196.96V119.624H191.632V122.888H189.952V127.328H191.632V130.88ZM200.765 136.424H206.093V122.888H200.765V136.424ZM203.453 121.808C205.325 121.808 206.501 120.656 206.501 119.192C206.501 117.704 205.325 116.528 203.453 116.528C201.557 116.528 200.381 117.704 200.381 119.192C200.381 120.656 201.557 121.808 203.453 121.808ZM221.603 129.656C221.603 125.336 218.531 122.72 214.451 122.72C210.371 122.72 207.299 125.336 207.299 129.656C207.299 133.976 210.371 136.592 214.451 136.592C218.531 136.592 221.603 133.976 221.603 129.656ZM212.699 129.656C212.699 128.048 213.515 127.328 214.451 127.328C215.387 127.328 216.203 128.048 216.203 129.656C216.203 131.264 215.387 131.984 214.451 131.984C213.491 131.984 212.699 131.264 212.699 129.656ZM231.917 136.424H237.221V128.576C237.221 125.072 235.397 122.792 232.277 122.792C230.237 122.792 228.893 123.776 228.125 124.952V122.888H222.797V136.424H228.125V129.248C228.125 127.952 228.845 127.16 230.021 127.16C231.173 127.16 231.917 127.952 231.917 129.248V136.424ZM0.649378 160.656H5.11338V173.424H10.4414V160.656H14.9534V156.432H0.649378V160.656ZM22.1104 163.896C22.9024 163.896 23.6224 164.328 23.6224 165.264H20.4544C20.6224 164.328 21.2224 163.896 22.1104 163.896ZM28.7344 168.552H23.0944C22.9024 168.96 22.5424 169.344 21.8464 169.344C21.1264 169.344 20.4784 168.96 20.4064 167.592H28.9504C28.9984 167.256 29.0224 166.872 29.0224 166.536C29.0224 162.288 26.1664 159.72 22.1104 159.72C18.0544 159.72 15.1984 162.336 15.1984 166.656C15.1984 170.976 18.0544 173.592 22.1104 173.592C25.5184 173.592 28.1584 171.432 28.7344 168.552ZM29.5075 166.656C29.5075 170.976 32.3635 173.592 36.4195 173.592C39.8995 173.592 42.5155 171.528 43.1635 167.976H37.5235C37.3315 168.624 36.9715 169.032 36.2995 169.032C35.4835 169.032 34.9075 168.288 34.9075 166.656C34.9075 165.024 35.4835 164.28 36.2995 164.28C36.9715 164.28 37.3315 164.688 37.5235 165.336H43.1635C42.5155 161.784 39.8995 159.72 36.4195 159.72C32.3635 159.72 29.5075 162.336 29.5075 166.656ZM44.3725 173.424H49.7005V166.248C49.7005 164.952 50.4205 164.16 51.5965 164.16C52.7485 164.16 53.4925 164.952 53.4925 166.248V173.424H58.7965V165.576C58.7965 162.072 56.9725 159.792 53.8525 159.792C51.8125 159.792 50.4685 160.776 49.7005 161.952V155.664H44.3725V173.424ZM69.7469 173.424H75.0509V165.576C75.0509 162.072 73.2269 159.792 70.1069 159.792C68.0669 159.792 66.7229 160.776 65.9549 161.952V159.888H60.6269V173.424H65.9549V166.248C65.9549 164.952 66.6749 164.16 67.8509 164.16C69.0029 164.16 69.7469 164.952 69.7469 166.248V173.424ZM76.8813 173.424H82.2093V159.888H76.8813V173.424ZM79.5693 158.808C81.4413 158.808 82.6173 157.656 82.6173 156.192C82.6173 154.704 81.4413 153.528 79.5693 153.528C77.6733 153.528 76.4973 154.704 76.4973 156.192C76.4973 157.656 77.6733 158.808 79.5693 158.808ZM83.4156 166.656C83.4156 170.976 86.2716 173.592 90.3276 173.592C93.8076 173.592 96.4236 171.528 97.0716 167.976H91.4316C91.2396 168.624 90.8796 169.032 90.2076 169.032C89.3916 169.032 88.8156 168.288 88.8156 166.656C88.8156 165.024 89.3916 164.28 90.2076 164.28C90.8796 164.28 91.2396 164.688 91.4316 165.336H97.0716C96.4236 161.784 93.8076 159.72 90.3276 159.72C86.2716 159.72 83.4156 162.336 83.4156 166.656ZM97.5606 166.656C97.5606 171.024 100.033 173.592 103.153 173.592C104.953 173.592 106.249 172.8 106.897 171.576V173.424H112.201V159.888H106.897V161.736C106.249 160.512 104.953 159.72 103.153 159.72C100.033 159.72 97.5606 162.288 97.5606 166.656ZM106.897 166.656C106.897 168.144 106.033 168.936 104.929 168.936C103.825 168.936 102.961 168.144 102.961 166.656C102.961 165.168 103.825 164.376 104.929 164.376C106.033 164.376 106.897 165.168 106.897 166.656ZM114.113 173.424H119.441V155.664H114.113V173.424ZM132.046 156.432H124.966V173.424H132.046C137.47 173.424 140.878 169.728 140.878 164.88C140.878 159.984 137.47 156.432 132.046 156.432ZM130.294 168.672V161.088H131.566C133.918 161.088 135.478 162.408 135.478 164.88C135.478 167.352 133.918 168.672 131.566 168.672H130.294ZM148.514 163.896C149.306 163.896 150.026 164.328 150.026 165.264H146.858C147.026 164.328 147.626 163.896 148.514 163.896ZM155.138 168.552H149.498C149.306 168.96 148.946 169.344 148.25 169.344C147.53 169.344 146.882 168.96 146.81 167.592H155.354C155.402 167.256 155.426 166.872 155.426 166.536C155.426 162.288 152.57 159.72 148.514 159.72C144.458 159.72 141.602 162.336 141.602 166.656C141.602 170.976 144.458 173.592 148.514 173.592C151.922 173.592 154.562 171.432 155.138 168.552ZM155.647 159.888L160.159 173.424H166.807L171.319 159.888H165.655L163.495 168.36L161.311 159.888H155.647ZM178.444 163.896C179.236 163.896 179.956 164.328 179.956 165.264H176.788C176.956 164.328 177.556 163.896 178.444 163.896ZM185.068 168.552H179.428C179.236 168.96 178.876 169.344 178.18 169.344C177.46 169.344 176.812 168.96 176.74 167.592H185.284C185.332 167.256 185.356 166.872 185.356 166.536C185.356 162.288 182.5 159.72 178.444 159.72C174.388 159.72 171.532 162.336 171.532 166.656C171.532 170.976 174.388 173.592 178.444 173.592C181.852 173.592 184.492 171.432 185.068 168.552ZM186.561 173.424H191.889V155.664H186.561V173.424ZM207.4 166.656C207.4 162.336 204.328 159.72 200.248 159.72C196.168 159.72 193.096 162.336 193.096 166.656C193.096 170.976 196.168 173.592 200.248 173.592C204.328 173.592 207.4 170.976 207.4 166.656ZM198.496 166.656C198.496 165.048 199.312 164.328 200.248 164.328C201.184 164.328 202 165.048 202 166.656C202 168.264 201.184 168.984 200.248 168.984C199.288 168.984 198.496 168.264 198.496 166.656ZM213.921 161.736V159.888H208.593V179.904H213.921V171.576C214.569 172.8 215.841 173.592 217.641 173.592C220.761 173.592 223.233 171.024 223.233 166.656C223.233 162.288 220.761 159.72 217.641 159.72C215.841 159.72 214.569 160.512 213.921 161.736ZM217.833 166.656C217.833 168.144 216.969 168.936 215.865 168.936C214.761 168.936 213.897 168.144 213.897 166.656C213.897 165.168 214.761 164.376 215.865 164.376C216.969 164.376 217.833 165.168 217.833 166.656ZM242.642 173.424H247.946V165.576C247.946 162.072 246.002 159.792 242.498 159.792C240.506 159.792 238.97 160.92 238.058 162.216C237.17 160.68 235.634 159.792 233.666 159.792C231.77 159.792 230.474 160.656 229.754 161.712V159.888H224.426V173.424H229.754V166.248C229.754 165.096 230.474 164.4 231.65 164.4C232.802 164.4 233.546 165.096 233.546 166.248V173.424H238.85V166.248C238.85 165.096 239.57 164.4 240.746 164.4C241.898 164.4 242.642 165.096 242.642 166.248V173.424ZM255.966 163.896C256.758 163.896 257.478 164.328 257.478 165.264H254.31C254.478 164.328 255.078 163.896 255.966 163.896ZM262.59 168.552H256.95C256.758 168.96 256.398 169.344 255.702 169.344C254.982 169.344 254.334 168.96 254.262 167.592H262.806C262.854 167.256 262.878 166.872 262.878 166.536C262.878 162.288 260.022 159.72 255.966 159.72C251.91 159.72 249.054 162.336 249.054 166.656C249.054 170.976 251.91 173.592 255.966 173.592C259.374 173.592 262.014 171.432 262.59 168.552ZM273.203 173.424H278.507V165.576C278.507 162.072 276.683 159.792 273.563 159.792C271.523 159.792 270.179 160.776 269.411 161.952V159.888H264.083V173.424H269.411V166.248C269.411 164.952 270.131 164.16 271.307 164.16C272.459 164.16 273.203 164.952 273.203 166.248V173.424ZM281.178 167.88C281.178 172.08 283.578 173.424 286.746 173.424H288.762V168.888H287.49C286.794 168.888 286.506 168.6 286.506 167.976V164.328H288.714V159.888H286.506V156.624H281.178V159.888H279.498V164.328H281.178V167.88ZM29.6472 193.432V210.424H40.1112V206.392H34.9752V193.432H29.6472ZM40.5878 203.656C40.5878 208.024 43.0598 210.592 46.1798 210.592C47.9798 210.592 49.2758 209.8 49.9238 208.576V210.424H55.2278V196.888H49.9238V198.736C49.2758 197.512 47.9798 196.72 46.1798 196.72C43.0598 196.72 40.5878 199.288 40.5878 203.656ZM49.9238 203.656C49.9238 205.144 49.0598 205.936 47.9558 205.936C46.8518 205.936 45.9878 205.144 45.9878 203.656C45.9878 202.168 46.8518 201.376 47.9558 201.376C49.0598 201.376 49.9238 202.168 49.9238 203.656ZM71.4683 196.888H66.1403V204.064C66.1403 205.36 65.4203 206.152 64.2443 206.152C63.0923 206.152 62.3483 205.36 62.3483 204.064V196.888H57.0443V204.736C57.0443 208.24 58.8683 210.52 61.9883 210.52C64.0283 210.52 65.3723 209.536 66.1403 208.36V210.424H71.4683V196.888ZM82.5147 210.424H87.8187V202.576C87.8187 199.072 85.9947 196.792 82.8747 196.792C80.8347 196.792 79.4907 197.776 78.7227 198.952V196.888H73.3947V210.424H78.7227V203.248C78.7227 201.952 79.4427 201.16 80.6187 201.16C81.7707 201.16 82.5147 201.952 82.5147 203.248V210.424ZM88.9291 203.656C88.9291 207.976 91.7851 210.592 95.8411 210.592C99.3211 210.592 101.937 208.528 102.585 204.976H96.9451C96.7531 205.624 96.3931 206.032 95.7211 206.032C94.9051 206.032 94.3291 205.288 94.3291 203.656C94.3291 202.024 94.9051 201.28 95.7211 201.28C96.3931 201.28 96.7531 201.688 96.9451 202.336H102.585C101.937 198.784 99.3211 196.72 95.8411 196.72C91.7851 196.72 88.9291 199.336 88.9291 203.656ZM103.794 210.424H109.122V203.248C109.122 201.952 109.842 201.16 111.018 201.16C112.17 201.16 112.914 201.952 112.914 203.248V210.424H118.218V202.576C118.218 199.072 116.394 196.792 113.274 196.792C111.234 196.792 109.89 197.776 109.122 198.952V192.664H103.794V210.424ZM188.614 200.824V197.704H190.126C191.326 197.704 191.782 198.328 191.782 199.264C191.782 200.2 191.326 200.824 190.126 200.824H188.614ZM197.182 199.264C197.182 195.832 194.998 193.432 190.726 193.432H183.286V210.424H188.614V205.024H190.726C194.998 205.024 197.182 202.408 197.182 199.264ZM198.392 210.424H203.72V192.664H198.392V210.424ZM204.926 203.656C204.926 208.024 207.398 210.592 210.518 210.592C212.318 210.592 213.614 209.8 214.262 208.576V210.424H219.566V196.888H214.262V198.736C213.614 197.512 212.318 196.72 210.518 196.72C207.398 196.72 204.926 199.288 204.926 203.656ZM214.262 203.656C214.262 205.144 213.398 205.936 212.294 205.936C211.19 205.936 210.326 205.144 210.326 203.656C210.326 202.168 211.19 201.376 212.294 201.376C213.398 201.376 214.262 202.168 214.262 203.656ZM228.51 203.752L225.966 196.888H220.038L225.678 209.752L222.27 216.904H228.102L236.766 196.888H230.886L228.51 203.752ZM243.433 200.896C244.225 200.896 244.945 201.328 244.945 202.264H241.777C241.945 201.328 242.545 200.896 243.433 200.896ZM250.057 205.552H244.417C244.225 205.96 243.865 206.344 243.169 206.344C242.449 206.344 241.801 205.96 241.729 204.592H250.273C250.321 204.256 250.345 203.872 250.345 203.536C250.345 199.288 247.489 196.72 243.433 196.72C239.377 196.72 236.521 199.336 236.521 203.656C236.521 207.976 239.377 210.592 243.433 210.592C246.841 210.592 249.481 208.432 250.057 205.552ZM256.878 204.88C256.878 203.032 257.886 202.48 259.806 202.48H261.318V196.792C259.566 196.792 257.934 197.872 256.878 199.384V196.888H251.55V210.424H256.878V204.88Z" fill="#F29565"/>
<path d="M132.815 204.976C132.815 205.816 132.359 206.152 131.399 206.152H128.975V203.752H131.399C132.359 203.752 132.815 204.16 132.815 204.976ZM132.455 198.88C132.455 199.696 131.999 200.056 131.039 200.056H128.975V197.656H131.039C131.999 197.656 132.455 198.04 132.455 198.88ZM138.263 205.768C138.263 203.872 137.111 202.216 135.023 201.712C136.703 201.28 137.879 199.888 137.879 197.848C137.879 194.896 135.695 193.432 132.311 193.432H123.647V210.424H132.551C136.247 210.424 138.263 208.744 138.263 205.768ZM145.765 200.896C146.557 200.896 147.277 201.328 147.277 202.264H144.109C144.277 201.328 144.877 200.896 145.765 200.896ZM152.389 205.552H146.749C146.557 205.96 146.197 206.344 145.501 206.344C144.781 206.344 144.133 205.96 144.061 204.592H152.605C152.653 204.256 152.677 203.872 152.677 203.536C152.677 199.288 149.821 196.72 145.765 196.72C141.709 196.72 138.853 199.336 138.853 203.656C138.853 207.976 141.709 210.592 145.765 210.592C149.173 210.592 151.813 208.432 152.389 205.552ZM154.722 204.88C154.722 209.08 157.122 210.424 160.29 210.424H162.306V205.888H161.034C160.338 205.888 160.05 205.6 160.05 204.976V201.328H162.258V196.888H160.05V193.624H154.722V196.888H153.042V201.328H154.722V204.88ZM163.135 203.656C163.135 208.024 165.607 210.592 168.727 210.592C170.527 210.592 171.823 209.8 172.471 208.576V210.424H177.775V196.888H172.471V198.736C171.823 197.512 170.527 196.72 168.727 196.72C165.607 196.72 163.135 199.288 163.135 203.656ZM172.471 203.656C172.471 205.144 171.607 205.936 170.503 205.936C169.399 205.936 168.535 205.144 168.535 203.656C168.535 202.168 169.399 201.376 170.503 201.376C171.607 201.376 172.471 202.168 172.471 203.656Z" fill="white"/>
<path d="M62.4457 43H72.9307V10.105H57.6757V19.465H62.4457V43ZM98.6443 35.395C98.6443 25.63 85.3693 28.555 85.3693 25.405C85.3693 24.64 85.9543 24.235 86.9443 24.235C88.5643 24.235 89.5543 25.045 89.8243 26.395H98.6893C97.9693 21.4 94.4143 17.305 87.1693 17.305C80.0143 17.305 76.3693 21.085 76.3693 25.675C76.3693 34.99 89.4643 31.93 89.4643 35.26C89.4643 35.89 88.8343 36.43 87.7993 36.43C86.2693 36.43 85.0543 35.755 84.8293 34.225H75.2443C75.6943 39.4 80.5093 43.315 87.8443 43.315C94.5943 43.315 98.6443 39.895 98.6443 35.395ZM103.284 32.605C103.284 40.48 107.784 43 113.724 43H117.504V34.495H115.119C113.814 34.495 113.274 33.955 113.274 32.785V25.945H117.414V17.62H113.274V11.5H103.284V17.62H100.134V25.945H103.284V32.605ZM136.425 26.935C136.425 22.615 138.585 19.825 142.68 19.825C146.685 19.825 148.89 22.615 148.89 26.935C148.89 31.165 146.685 34 142.68 34C138.585 34 136.425 31.165 136.425 26.935ZM159.015 26.935C159.015 17.35 151.77 10.6 142.68 10.6C133.635 10.6 126.255 17.35 126.255 26.935C126.255 36.52 133.635 43.315 142.68 43.315C143.49 43.315 144.3 43.27 145.065 43.135L148.125 48.175H159.915L153.435 39.445C156.855 36.52 159.015 32.155 159.015 26.935ZM163.294 32.605C163.294 40.48 167.794 43 173.734 43H177.514V34.495H175.129C173.824 34.495 173.284 33.955 173.284 32.785V25.945H177.424V17.62H173.284V11.5H163.294V17.62H160.144V25.945H163.294V32.605ZM190.408 32.605C190.408 29.14 192.298 28.105 195.898 28.105H198.733V17.44C195.448 17.44 192.388 19.465 190.408 22.3V17.62H180.418V43H190.408V32.605ZM211.189 38.455C211.189 35.665 208.984 33.46 205.474 33.46C201.919 33.46 199.714 35.665 199.714 38.455C199.714 41.2 201.919 43.36 205.474 43.36C208.984 43.36 211.189 41.2 211.189 38.455ZM226.051 11.14L220.741 24.415H230.641L232.621 11.14H226.051ZM235.858 42.55H259.123V34.495H248.818C254.038 31.21 258.988 25.765 258.988 19.24C258.988 14.02 256.063 9.385 247.873 9.385C241.708 9.385 236.038 12.76 235.723 21.49H245.398C245.218 18.835 246.118 17.755 247.198 17.755C248.233 17.755 248.908 18.565 248.908 20.005C248.908 24.73 242.203 30.265 235.858 35.035V42.55ZM260.446 42.55H283.711V34.495H273.406C278.626 31.21 283.576 25.765 283.576 19.24C283.576 14.02 280.651 9.385 272.461 9.385C266.296 9.385 260.626 12.76 260.311 21.49H269.986C269.806 18.835 270.706 17.755 271.786 17.755C272.821 17.755 273.496 18.565 273.496 20.005C273.496 24.73 266.791 30.265 260.446 35.035V42.55Z" fill="white"/>
</svg>
