<svg width="278" height="258" viewBox="0 0 278 258" fill="none" xmlns="http://www.w3.org/2000/svg">
<path d="M78.3303 89.8238V86.7038H79.8423C81.0423 86.7038 81.4983 87.3278 81.4983 88.2638C81.4983 89.1998 81.0423 89.8238 79.8423 89.8238H78.3303ZM86.8983 88.2638C86.8983 84.8318 84.7143 82.4318 80.4423 82.4318H73.0023V99.4238H78.3303V94.0238H80.4423C84.7143 94.0238 86.8983 91.4078 86.8983 88.2638ZM93.4363 93.8798C93.4363 92.0318 94.4443 91.4798 96.3643 91.4798H97.8763V85.7918C96.1243 85.7918 94.4923 86.8718 93.4363 88.3838V85.8878H88.1083V99.4238H93.4363V93.8798ZM112.415 92.6558C112.415 88.3358 109.343 85.7198 105.263 85.7198C101.183 85.7198 98.1114 88.3358 98.1114 92.6558C98.1114 96.9758 101.183 99.5918 105.263 99.5918C109.343 99.5918 112.415 96.9758 112.415 92.6558ZM103.511 92.6558C103.511 91.0478 104.327 90.3278 105.263 90.3278C106.199 90.3278 107.015 91.0478 107.015 92.6558C107.015 94.2638 106.199 94.9838 105.263 94.9838C104.303 94.9838 103.511 94.2638 103.511 92.6558ZM112.889 92.6558C112.889 97.0238 115.361 99.5918 118.481 99.5918C120.281 99.5918 121.553 98.7998 122.201 97.5758V99.4238H127.529V81.6638H122.201V87.7358C121.553 86.5118 120.281 85.7198 118.481 85.7198C115.361 85.7198 112.889 88.2878 112.889 92.6558ZM122.225 92.6558C122.225 94.1438 121.361 94.9358 120.257 94.9358C119.153 94.9358 118.289 94.1438 118.289 92.6558C118.289 91.1678 119.153 90.3758 120.257 90.3758C121.361 90.3758 122.225 91.1678 122.225 92.6558ZM143.77 85.8878H138.442V93.0638C138.442 94.3598 137.722 95.1518 136.546 95.1518C135.394 95.1518 134.65 94.3598 134.65 93.0638V85.8878H129.346V93.7358C129.346 97.2398 131.17 99.5198 134.29 99.5198C136.33 99.5198 137.674 98.5358 138.442 97.3598V99.4238H143.77V85.8878ZM144.976 92.6558C144.976 96.9758 147.832 99.5918 151.888 99.5918C155.368 99.5918 157.984 97.5278 158.632 93.9758H152.992C152.8 94.6238 152.44 95.0318 151.768 95.0318C150.952 95.0318 150.376 94.2878 150.376 92.6558C150.376 91.0238 150.952 90.2798 151.768 90.2798C152.44 90.2798 152.8 90.6878 152.992 91.3358H158.632C157.984 87.7838 155.368 85.7198 151.888 85.7198C147.832 85.7198 144.976 88.3358 144.976 92.6558ZM160.681 93.8798C160.681 98.0798 163.081 99.4238 166.249 99.4238H168.265V94.8878H166.993C166.297 94.8878 166.009 94.5998 166.009 93.9758V90.3278H168.217V85.8878H166.009V82.6238H160.681V85.8878H159.001V90.3278H160.681V93.8798ZM169.814 99.4238H175.142V85.8878H169.814V99.4238ZM172.502 84.8078C174.374 84.8078 175.55 83.6558 175.55 82.1918C175.55 80.7038 174.374 79.5278 172.502 79.5278C170.606 79.5278 169.43 80.7038 169.43 82.1918C169.43 83.6558 170.606 84.8078 172.502 84.8078ZM187.581 85.8878H176.421V90.3038H181.509L176.349 95.2478V99.4238H187.821V95.0078H182.181L187.581 90.0638V85.8878ZM195.202 89.8958C195.994 89.8958 196.714 90.3278 196.714 91.2638H193.546C193.714 90.3278 194.314 89.8958 195.202 89.8958ZM201.826 94.5518H196.186C195.994 94.9598 195.634 95.3438 194.938 95.3438C194.218 95.3438 193.57 94.9598 193.498 93.5918H202.042C202.09 93.2558 202.114 92.8718 202.114 92.5358C202.114 88.2878 199.258 85.7198 195.202 85.7198C191.146 85.7198 188.29 88.3358 188.29 92.6558C188.29 96.9758 191.146 99.5918 195.202 99.5918C198.61 99.5918 201.25 97.4318 201.826 94.5518ZM25.7102 119.432V136.424H36.1742V132.392H31.0382V119.432H25.7102ZM36.6508 129.656C36.6508 134.024 39.1228 136.592 42.2428 136.592C44.0428 136.592 45.3388 135.8 45.9868 134.576V136.424H51.2908V122.888H45.9868V124.736C45.3388 123.512 44.0428 122.72 42.2428 122.72C39.1228 122.72 36.6508 125.288 36.6508 129.656ZM45.9868 129.656C45.9868 131.144 45.1228 131.936 44.0188 131.936C42.9148 131.936 42.0508 131.144 42.0508 129.656C42.0508 128.168 42.9148 127.376 44.0188 127.376C45.1228 127.376 45.9868 128.168 45.9868 129.656ZM67.5313 122.888H62.2033V130.064C62.2033 131.36 61.4833 132.152 60.3073 132.152C59.1553 132.152 58.4113 131.36 58.4113 130.064V122.888H53.1073V130.736C53.1073 134.24 54.9313 136.52 58.0513 136.52C60.0913 136.52 61.4353 135.536 62.2033 134.36V136.424H67.5313V122.888ZM78.5777 136.424H83.8817V128.576C83.8817 125.072 82.0577 122.792 78.9377 122.792C76.8977 122.792 75.5537 123.776 74.7857 124.952V122.888H69.4577V136.424H74.7857V129.248C74.7857 127.952 75.5057 127.16 76.6817 127.16C77.8337 127.16 78.5777 127.952 78.5777 129.248V136.424ZM84.992 129.656C84.992 133.976 87.848 136.592 91.904 136.592C95.384 136.592 98 134.528 98.648 130.976H93.008C92.816 131.624 92.456 132.032 91.784 132.032C90.968 132.032 90.392 131.288 90.392 129.656C90.392 128.024 90.968 127.28 91.784 127.28C92.456 127.28 92.816 127.688 93.008 128.336H98.648C98 124.784 95.384 122.72 91.904 122.72C87.848 122.72 84.992 125.336 84.992 129.656ZM99.857 136.424H105.185V129.248C105.185 127.952 105.905 127.16 107.081 127.16C108.233 127.16 108.977 127.952 108.977 129.248V136.424H114.281V128.576C114.281 125.072 112.457 122.792 109.337 122.792C107.297 122.792 105.953 123.776 105.185 124.952V118.664H99.857V136.424ZM119.71 136.424H125.038V127.952L127.654 136.424H132.214L134.83 127.952V136.424H140.134V119.432H133.63L129.982 129.632L126.238 119.432H119.71V136.424ZM148.25 126.896C149.042 126.896 149.762 127.328 149.762 128.264H146.594C146.762 127.328 147.362 126.896 148.25 126.896ZM154.874 131.552H149.234C149.042 131.96 148.682 132.344 147.986 132.344C147.266 132.344 146.618 131.96 146.546 130.592H155.09C155.138 130.256 155.162 129.872 155.162 129.536C155.162 125.288 152.306 122.72 148.25 122.72C144.194 122.72 141.338 125.336 141.338 129.656C141.338 133.976 144.194 136.592 148.25 136.592C151.658 136.592 154.298 134.432 154.874 131.552ZM168.151 132.368C168.151 127.16 161.071 128.72 161.071 127.04C161.071 126.632 161.383 126.416 161.911 126.416C162.775 126.416 163.303 126.848 163.447 127.568H168.175C167.791 124.904 165.895 122.72 162.031 122.72C158.215 122.72 156.271 124.736 156.271 127.184C156.271 132.152 163.255 130.52 163.255 132.296C163.255 132.632 162.919 132.92 162.367 132.92C161.551 132.92 160.903 132.56 160.783 131.744H155.671C155.911 134.504 158.479 136.592 162.391 136.592C165.991 136.592 168.151 134.768 168.151 132.368ZM181.569 132.368C181.569 127.16 174.489 128.72 174.489 127.04C174.489 126.632 174.801 126.416 175.329 126.416C176.193 126.416 176.721 126.848 176.865 127.568H181.593C181.209 124.904 179.313 122.72 175.449 122.72C171.633 122.72 169.689 124.736 169.689 127.184C169.689 132.152 176.673 130.52 176.673 132.296C176.673 132.632 176.337 132.92 175.785 132.92C174.969 132.92 174.321 132.56 174.201 131.744H169.089C169.329 134.504 171.897 136.592 175.809 136.592C179.409 136.592 181.569 134.768 181.569 132.368ZM182.484 129.656C182.484 134.024 184.956 136.592 188.076 136.592C189.876 136.592 191.172 135.8 191.82 134.576V136.424H197.124V122.888H191.82V124.736C191.172 123.512 189.876 122.72 188.076 122.72C184.956 122.72 182.484 125.288 182.484 129.656ZM191.82 129.656C191.82 131.144 190.956 131.936 189.852 131.936C188.748 131.936 187.884 131.144 187.884 129.656C187.884 128.168 188.748 127.376 189.852 127.376C190.956 127.376 191.82 128.168 191.82 129.656ZM198.316 129.656C198.316 134.024 200.788 136.592 203.908 136.592C205.708 136.592 207.004 135.8 207.652 134.576V136.184C207.652 138.08 206.74 138.464 205.66 138.464C204.676 138.464 204.076 138.104 203.932 137.408H198.7C199.06 140.84 201.628 143.072 206.044 143.072C211.108 143.072 212.956 139.76 212.956 136.184V122.888H207.652V124.736C207.004 123.512 205.708 122.72 203.908 122.72C200.788 122.72 198.316 125.288 198.316 129.656ZM207.652 129.656C207.652 131.144 206.788 131.936 205.684 131.936C204.58 131.936 203.716 131.144 203.716 129.656C203.716 128.168 204.58 127.376 205.684 127.376C206.788 127.376 207.652 128.168 207.652 129.656ZM214.869 136.424H220.197V122.888H214.869V136.424ZM217.557 121.808C219.429 121.808 220.605 120.656 220.605 119.192C220.605 117.704 219.429 116.528 217.557 116.528C215.661 116.528 214.485 117.704 214.485 119.192C214.485 120.656 215.661 121.808 217.557 121.808ZM231.243 136.424H236.547V128.576C236.547 125.072 234.723 122.792 231.603 122.792C229.563 122.792 228.219 123.776 227.451 124.952V122.888H222.123V136.424H227.451V129.248C227.451 127.952 228.171 127.16 229.347 127.16C230.499 127.16 231.243 127.952 231.243 129.248V136.424ZM237.657 129.656C237.657 134.024 240.129 136.592 243.249 136.592C245.049 136.592 246.345 135.8 246.993 134.576V136.184C246.993 138.08 246.081 138.464 245.001 138.464C244.017 138.464 243.417 138.104 243.273 137.408H238.041C238.401 140.84 240.969 143.072 245.385 143.072C250.449 143.072 252.297 139.76 252.297 136.184V122.888H246.993V124.736C246.345 123.512 245.049 122.72 243.249 122.72C240.129 122.72 237.657 125.288 237.657 129.656ZM246.993 129.656C246.993 131.144 246.129 131.936 245.025 131.936C243.921 131.936 243.057 131.144 243.057 129.656C243.057 128.168 243.921 127.376 245.025 127.376C246.129 127.376 246.993 128.168 246.993 129.656ZM21.3228 163.824V160.704H22.8348C24.0348 160.704 24.4908 161.328 24.4908 162.264C24.4908 163.2 24.0348 163.824 22.8348 163.824H21.3228ZM29.8908 162.264C29.8908 158.832 27.7068 156.432 23.4348 156.432H15.9948V173.424H21.3228V168.024H23.4348C27.7068 168.024 29.8908 165.408 29.8908 162.264ZM31.1008 173.424H36.4288V155.664H31.1008V173.424ZM37.6352 166.656C37.6352 171.024 40.1072 173.592 43.2272 173.592C45.0272 173.592 46.3232 172.8 46.9712 171.576V173.424H52.2752V159.888H46.9712V161.736C46.3232 160.512 45.0272 159.72 43.2272 159.72C40.1072 159.72 37.6352 162.288 37.6352 166.656ZM46.9712 166.656C46.9712 168.144 46.1072 168.936 45.0032 168.936C43.8992 168.936 43.0352 168.144 43.0352 166.656C43.0352 165.168 43.8992 164.376 45.0032 164.376C46.1072 164.376 46.9712 165.168 46.9712 166.656ZM61.2197 166.752L58.6757 159.888H52.7477L58.3877 172.752L54.9797 179.904H60.8117L69.4757 159.888H63.5957L61.2197 166.752ZM76.1418 163.896C76.9338 163.896 77.6538 164.328 77.6538 165.264H74.4858C74.6538 164.328 75.2538 163.896 76.1418 163.896ZM82.7658 168.552H77.1258C76.9338 168.96 76.5738 169.344 75.8778 169.344C75.1578 169.344 74.5098 168.96 74.4378 167.592H82.9818C83.0298 167.256 83.0538 166.872 83.0538 166.536C83.0538 162.288 80.1978 159.72 76.1418 159.72C72.0858 159.72 69.2298 162.336 69.2298 166.656C69.2298 170.976 72.0858 173.592 76.1418 173.592C79.5498 173.592 82.1898 171.432 82.7658 168.552ZM89.5869 167.88C89.5869 166.032 90.5949 165.48 92.5149 165.48H94.0269V159.792C92.2749 159.792 90.6429 160.872 89.5869 162.384V159.888H84.2589V173.424H89.5869V167.88ZM105.66 156.432H98.5802V173.424H105.66C111.084 173.424 114.492 169.728 114.492 164.88C114.492 159.984 111.084 156.432 105.66 156.432ZM103.908 168.672V161.088H105.18C107.532 161.088 109.092 162.408 109.092 164.88C109.092 167.352 107.532 168.672 105.18 168.672H103.908ZM122.128 163.896C122.92 163.896 123.64 164.328 123.64 165.264H120.472C120.64 164.328 121.24 163.896 122.128 163.896ZM128.752 168.552H123.112C122.92 168.96 122.56 169.344 121.864 169.344C121.144 169.344 120.496 168.96 120.424 167.592H128.968C129.016 167.256 129.04 166.872 129.04 166.536C129.04 162.288 126.184 159.72 122.128 159.72C118.072 159.72 115.216 162.336 115.216 166.656C115.216 170.976 118.072 173.592 122.128 173.592C125.536 173.592 128.176 171.432 128.752 168.552ZM129.261 159.888L133.773 173.424H140.421L144.933 159.888H139.269L137.109 168.36L134.925 159.888H129.261ZM152.059 163.896C152.851 163.896 153.571 164.328 153.571 165.264H150.403C150.571 164.328 151.171 163.896 152.059 163.896ZM158.683 168.552H153.043C152.851 168.96 152.491 169.344 151.795 169.344C151.075 169.344 150.427 168.96 150.355 167.592H158.899C158.947 167.256 158.971 166.872 158.971 166.536C158.971 162.288 156.115 159.72 152.059 159.72C148.003 159.72 145.147 162.336 145.147 166.656C145.147 170.976 148.003 173.592 152.059 173.592C155.467 173.592 158.107 171.432 158.683 168.552ZM160.176 173.424H165.504V155.664H160.176V173.424ZM181.014 166.656C181.014 162.336 177.942 159.72 173.862 159.72C169.782 159.72 166.71 162.336 166.71 166.656C166.71 170.976 169.782 173.592 173.862 173.592C177.942 173.592 181.014 170.976 181.014 166.656ZM172.11 166.656C172.11 165.048 172.926 164.328 173.862 164.328C174.798 164.328 175.614 165.048 175.614 166.656C175.614 168.264 174.798 168.984 173.862 168.984C172.902 168.984 172.11 168.264 172.11 166.656ZM187.536 161.736V159.888H182.208V179.904H187.536V171.576C188.184 172.8 189.456 173.592 191.256 173.592C194.376 173.592 196.848 171.024 196.848 166.656C196.848 162.288 194.376 159.72 191.256 159.72C189.456 159.72 188.184 160.512 187.536 161.736ZM191.448 166.656C191.448 168.144 190.584 168.936 189.48 168.936C188.376 168.936 187.512 168.144 187.512 166.656C187.512 165.168 188.376 164.376 189.48 164.376C190.584 164.376 191.448 165.168 191.448 166.656ZM216.256 173.424H221.56V165.576C221.56 162.072 219.616 159.792 216.112 159.792C214.12 159.792 212.584 160.92 211.672 162.216C210.784 160.68 209.248 159.792 207.28 159.792C205.384 159.792 204.088 160.656 203.368 161.712V159.888H198.04V173.424H203.368V166.248C203.368 165.096 204.088 164.4 205.264 164.4C206.416 164.4 207.16 165.096 207.16 166.248V173.424H212.464V166.248C212.464 165.096 213.184 164.4 214.36 164.4C215.512 164.4 216.256 165.096 216.256 166.248V173.424ZM229.581 163.896C230.373 163.896 231.093 164.328 231.093 165.264H227.925C228.093 164.328 228.693 163.896 229.581 163.896ZM236.205 168.552H230.565C230.373 168.96 230.013 169.344 229.317 169.344C228.597 169.344 227.949 168.96 227.877 167.592H236.421C236.469 167.256 236.493 166.872 236.493 166.536C236.493 162.288 233.637 159.72 229.581 159.72C225.525 159.72 222.669 162.336 222.669 166.656C222.669 170.976 225.525 173.592 229.581 173.592C232.989 173.592 235.629 171.432 236.205 168.552ZM246.818 173.424H252.122V165.576C252.122 162.072 250.298 159.792 247.178 159.792C245.138 159.792 243.794 160.776 243.026 161.952V159.888H237.698V173.424H243.026V166.248C243.026 164.952 243.746 164.16 244.922 164.16C246.074 164.16 246.818 164.952 246.818 166.248V173.424ZM254.792 167.88C254.792 172.08 257.192 173.424 260.36 173.424H262.376V168.888H261.104C260.408 168.888 260.12 168.6 260.12 167.976V164.328H262.328V159.888H260.12V156.624H254.792V159.888H253.112V164.328H254.792V167.88ZM3.14603 210.424H8.73803V192.88H0.60203V197.872H3.14603V210.424ZM22.452 206.368C22.452 201.16 15.372 202.72 15.372 201.04C15.372 200.632 15.684 200.416 16.212 200.416C17.076 200.416 17.604 200.848 17.748 201.568H22.476C22.092 198.904 20.196 196.72 16.332 196.72C12.516 196.72 10.572 198.736 10.572 201.184C10.572 206.152 17.556 204.52 17.556 206.296C17.556 206.632 17.22 206.92 16.668 206.92C15.852 206.92 15.204 206.56 15.084 205.744H9.97197C10.212 208.504 12.78 210.592 16.692 210.592C20.292 210.592 22.452 208.768 22.452 206.368ZM24.9264 204.88C24.9264 209.08 27.3264 210.424 30.4944 210.424H32.5104V205.888H31.2384C30.5424 205.888 30.2544 205.6 30.2544 204.976V201.328H32.4624V196.888H30.2544V193.624H24.9264V196.888H23.2464V201.328H24.9264V204.88ZM41.0657 210.424H47.6897L49.6577 200.776L51.6257 210.424H58.2497L62.1377 193.432H56.4017L54.8657 204.136L52.5617 193.432H46.7537L44.4497 204.136L42.9137 193.432H37.1777L41.0657 210.424ZM62.8483 203.656C62.8483 208.024 65.3203 210.592 68.4403 210.592C70.2403 210.592 71.5363 209.8 72.1843 208.576V210.424H77.4883V196.888H72.1843V198.736C71.5363 197.512 70.2403 196.72 68.4403 196.72C65.3203 196.72 62.8483 199.288 62.8483 203.656ZM72.1843 203.656C72.1843 205.144 71.3203 205.936 70.2163 205.936C69.1123 205.936 68.2483 205.144 68.2483 203.656C68.2483 202.168 69.1123 201.376 70.2163 201.376C71.3203 201.376 72.1843 202.168 72.1843 203.656ZM78.4168 196.888L82.9288 210.424H89.5768L94.0888 196.888H88.4248L86.2648 205.36L84.0808 196.888H78.4168ZM101.214 200.896C102.006 200.896 102.726 201.328 102.726 202.264H99.5583C99.7263 201.328 100.326 200.896 101.214 200.896ZM107.838 205.552H102.198C102.006 205.96 101.646 206.344 100.95 206.344C100.23 206.344 99.5823 205.96 99.5103 204.592H108.054C108.102 204.256 108.126 203.872 108.126 203.536C108.126 199.288 105.27 196.72 101.214 196.72C97.1583 196.72 94.3023 199.336 94.3023 203.656C94.3023 207.976 97.1583 210.592 101.214 210.592C104.622 210.592 107.262 208.432 107.838 205.552ZM124.666 210.424H130.282L124.09 193.432H117.946L111.73 210.424H117.322L118.162 207.856H123.826L124.666 210.424ZM122.53 203.848H119.458L120.994 199.12L122.53 203.848ZM136.34 204.88C136.34 203.032 137.348 202.48 139.268 202.48H140.78V196.792C139.028 196.792 137.396 197.872 136.34 199.384V196.888H131.012V210.424H136.34V204.88ZM142.575 204.88C142.575 209.08 144.975 210.424 148.143 210.424H150.159V205.888H148.887C148.191 205.888 147.903 205.6 147.903 204.976V201.328H150.111V196.888H147.903V193.624H142.575V196.888H140.895V201.328H142.575V204.88ZM151.708 210.424H157.036V196.888H151.708V210.424ZM154.396 195.808C156.268 195.808 157.444 194.656 157.444 193.192C157.444 191.704 156.268 190.528 154.396 190.528C152.5 190.528 151.324 191.704 151.324 193.192C151.324 194.656 152.5 195.808 154.396 195.808ZM170.747 206.368C170.747 201.16 163.667 202.72 163.667 201.04C163.667 200.632 163.979 200.416 164.507 200.416C165.371 200.416 165.899 200.848 166.043 201.568H170.771C170.387 198.904 168.491 196.72 164.627 196.72C160.811 196.72 158.867 198.736 158.867 201.184C158.867 206.152 165.851 204.52 165.851 206.296C165.851 206.632 165.515 206.92 164.963 206.92C164.147 206.92 163.499 206.56 163.379 205.744H158.267C158.507 208.504 161.075 210.592 164.987 210.592C168.587 210.592 170.747 208.768 170.747 206.368ZM173.221 204.88C173.221 209.08 175.621 210.424 178.789 210.424H180.805V205.888H179.533C178.837 205.888 178.549 205.6 178.549 204.976V201.328H180.757V196.888H178.549V193.624H173.221V196.888H171.541V201.328H173.221V204.88ZM191.28 200.824V197.704H192.792C193.992 197.704 194.448 198.328 194.448 199.264C194.448 200.2 193.992 200.824 192.792 200.824H191.28ZM199.848 199.264C199.848 195.832 197.664 193.432 193.392 193.432H185.952V210.424H191.28V205.024H193.392C197.664 205.024 199.848 202.408 199.848 199.264ZM201.058 210.424H206.386V192.664H201.058V210.424ZM207.593 203.656C207.593 208.024 210.065 210.592 213.185 210.592C214.985 210.592 216.281 209.8 216.929 208.576V210.424H222.233V196.888H216.929V198.736C216.281 197.512 214.985 196.72 213.185 196.72C210.065 196.72 207.593 199.288 207.593 203.656ZM216.929 203.656C216.929 205.144 216.065 205.936 214.961 205.936C213.857 205.936 212.993 205.144 212.993 203.656C212.993 202.168 213.857 201.376 214.961 201.376C216.065 201.376 216.929 202.168 216.929 203.656ZM231.177 203.752L228.633 196.888H222.705L228.345 209.752L224.937 216.904H230.769L239.433 196.888H233.553L231.177 203.752ZM246.099 200.896C246.891 200.896 247.611 201.328 247.611 202.264H244.443C244.611 201.328 245.211 200.896 246.099 200.896ZM252.723 205.552H247.083C246.891 205.96 246.531 206.344 245.835 206.344C245.115 206.344 244.467 205.96 244.395 204.592H252.939C252.987 204.256 253.011 203.872 253.011 203.536C253.011 199.288 250.155 196.72 246.099 196.72C242.043 196.72 239.187 199.336 239.187 203.656C239.187 207.976 242.043 210.592 246.099 210.592C249.507 210.592 252.147 208.432 252.723 205.552ZM259.544 204.88C259.544 203.032 260.552 202.48 262.472 202.48H263.984V196.792C262.232 196.792 260.6 197.872 259.544 199.384V196.888H254.216V210.424H259.544V204.88ZM276.724 206.368C276.724 201.16 269.644 202.72 269.644 201.04C269.644 200.632 269.956 200.416 270.484 200.416C271.348 200.416 271.876 200.848 272.02 201.568H276.748C276.364 198.904 274.468 196.72 270.604 196.72C266.788 196.72 264.844 198.736 264.844 201.184C264.844 206.152 271.828 204.52 271.828 206.296C271.828 206.632 271.492 206.92 270.94 206.92C270.124 206.92 269.476 206.56 269.356 205.744H264.244C264.484 208.504 267.052 210.592 270.964 210.592C274.564 210.592 276.724 208.768 276.724 206.368ZM89.915 237.824V234.704H91.427C92.627 234.704 93.083 235.328 93.083 236.264C93.083 237.2 92.627 237.824 91.427 237.824H89.915ZM98.483 236.264C98.483 232.832 96.299 230.432 92.027 230.432H84.587V247.424H89.915V242.024H92.027C96.299 242.024 98.483 239.408 98.483 236.264ZM99.693 247.424H105.021V229.664H99.693V247.424ZM106.227 240.656C106.227 245.024 108.699 247.592 111.819 247.592C113.619 247.592 114.915 246.8 115.563 245.576V247.424H120.867V233.888H115.563V235.736C114.915 234.512 113.619 233.72 111.819 233.72C108.699 233.72 106.227 236.288 106.227 240.656ZM115.563 240.656C115.563 242.144 114.699 242.936 113.595 242.936C112.491 242.936 111.627 242.144 111.627 240.656C111.627 239.168 112.491 238.376 113.595 238.376C114.699 238.376 115.563 239.168 115.563 240.656ZM129.812 240.752L127.268 233.888H121.34L126.98 246.752L123.572 253.904H129.404L138.068 233.888H132.188L129.812 240.752ZM144.734 237.896C145.526 237.896 146.246 238.328 146.246 239.264H143.078C143.246 238.328 143.846 237.896 144.734 237.896ZM151.358 242.552H145.718C145.526 242.96 145.166 243.344 144.47 243.344C143.75 243.344 143.102 242.96 143.03 241.592H151.574C151.622 241.256 151.646 240.872 151.646 240.536C151.646 236.288 148.79 233.72 144.734 233.72C140.678 233.72 137.822 236.336 137.822 240.656C137.822 244.976 140.678 247.592 144.734 247.592C148.142 247.592 150.782 245.432 151.358 242.552ZM158.179 241.88C158.179 240.032 159.187 239.48 161.107 239.48H162.619V233.792C160.867 233.792 159.235 234.872 158.179 236.384V233.888H152.851V247.424H158.179V241.88ZM174.252 230.432H167.172V247.424H174.252C179.676 247.424 183.084 243.728 183.084 238.88C183.084 233.984 179.676 230.432 174.252 230.432ZM172.5 242.672V235.088H173.772C176.124 235.088 177.684 236.408 177.684 238.88C177.684 241.352 176.124 242.672 173.772 242.672H172.5ZM189.856 241.88C189.856 240.032 190.864 239.48 192.784 239.48H194.296V233.792C192.544 233.792 190.912 234.872 189.856 236.384V233.888H184.528V247.424H189.856V241.88ZM208.835 240.656C208.835 236.336 205.763 233.72 201.683 233.72C197.603 233.72 194.531 236.336 194.531 240.656C194.531 244.976 197.603 247.592 201.683 247.592C205.763 247.592 208.835 244.976 208.835 240.656ZM199.931 240.656C199.931 239.048 200.747 238.328 201.683 238.328C202.619 238.328 203.435 239.048 203.435 240.656C203.435 242.264 202.619 242.984 201.683 242.984C200.723 242.984 199.931 242.264 199.931 240.656ZM215.357 235.736V233.888H210.029V253.904H215.357V245.576C216.005 246.8 217.277 247.592 219.077 247.592C222.197 247.592 224.669 245.024 224.669 240.656C224.669 236.288 222.197 233.72 219.077 233.72C217.277 233.72 216.005 234.512 215.357 235.736ZM219.269 240.656C219.269 242.144 218.405 242.936 217.301 242.936C216.197 242.936 215.333 242.144 215.333 240.656C215.333 239.168 216.197 238.376 217.301 238.376C218.405 238.376 219.269 239.168 219.269 240.656Z" fill="#F29565"/>
<path d="M62.0263 242.12L58.5223 230.432H52.8583L58.5703 247.424H65.4583L71.1703 230.432H65.5063L62.0263 242.12ZM73.467 247.424H79.059V229.88H70.923V234.872H73.467V247.424Z" fill="white"/>
<path d="M18.4593 42.55H41.7243V34.495H31.4193C36.6393 31.21 41.5893 25.765 41.5893 19.24C41.5893 14.02 38.6643 9.385 30.4743 9.385C24.3093 9.385 18.6393 12.76 18.3243 21.49H27.9993C27.8193 18.835 28.7193 17.755 29.7993 17.755C30.8343 17.755 31.5093 18.565 31.5093 20.005C31.5093 24.73 24.8043 30.265 18.4593 35.035V42.55ZM61.1376 43H71.0826V28.285C71.0826 21.715 67.6626 17.44 61.8126 17.44C57.9876 17.44 55.4676 19.285 54.0276 21.49V17.62H44.0376V43H54.0276V29.545C54.0276 27.115 55.3776 25.63 57.5826 25.63C59.7426 25.63 61.1376 27.115 61.1376 29.545V43ZM73.1646 30.31C73.1646 38.5 77.7996 43.315 83.6496 43.315C87.0246 43.315 89.4096 41.83 90.6246 39.535V43H100.615V9.7H90.6246V21.085C89.4096 18.79 87.0246 17.305 83.6496 17.305C77.7996 17.305 73.1646 22.12 73.1646 30.31ZM90.6696 30.31C90.6696 33.1 89.0496 34.585 86.9796 34.585C84.9096 34.585 83.2896 33.1 83.2896 30.31C83.2896 27.52 84.9096 26.035 86.9796 26.035C89.0496 26.035 90.6696 27.52 90.6696 30.31ZM120.217 26.935C120.217 22.615 122.377 19.825 126.472 19.825C130.477 19.825 132.682 22.615 132.682 26.935C132.682 31.165 130.477 34 126.472 34C122.377 34 120.217 31.165 120.217 26.935ZM142.807 26.935C142.807 17.35 135.562 10.6 126.472 10.6C117.427 10.6 110.047 17.35 110.047 26.935C110.047 36.52 117.427 43.315 126.472 43.315C127.282 43.315 128.092 43.27 128.857 43.135L131.917 48.175H143.707L137.227 39.445C140.647 36.52 142.807 32.155 142.807 26.935ZM147.086 32.605C147.086 40.48 151.586 43 157.526 43H161.306V34.495H158.921C157.616 34.495 157.076 33.955 157.076 32.785V25.945H161.216V17.62H157.076V11.5H147.086V17.62H143.936V25.945H147.086V32.605ZM174.2 32.605C174.2 29.14 176.09 28.105 179.69 28.105H182.525V17.44C179.24 17.44 176.18 19.465 174.2 22.3V17.62H164.21V43H174.2V32.605ZM194.981 38.455C194.981 35.665 192.776 33.46 189.266 33.46C185.711 33.46 183.506 35.665 183.506 38.455C183.506 41.2 185.711 43.36 189.266 43.36C192.776 43.36 194.981 41.2 194.981 38.455ZM209.843 11.14L204.533 24.415H214.433L216.413 11.14H209.843ZM219.65 42.55H242.915V34.495H232.61C237.83 31.21 242.78 25.765 242.78 19.24C242.78 14.02 239.855 9.385 231.665 9.385C225.5 9.385 219.83 12.76 219.515 21.49H229.19C229.01 18.835 229.91 17.755 230.99 17.755C232.025 17.755 232.7 18.565 232.7 20.005C232.7 24.73 225.995 30.265 219.65 35.035V42.55ZM244.238 42.55H267.503V34.495H257.198C262.418 31.21 267.368 25.765 267.368 19.24C267.368 14.02 264.443 9.385 256.253 9.385C250.088 9.385 244.418 12.76 244.103 21.49H253.778C253.598 18.835 254.498 17.755 255.578 17.755C256.613 17.755 257.288 18.565 257.288 20.005C257.288 24.73 250.583 30.265 244.238 35.035V42.55Z" fill="white"/>
</svg>
