<svg width="246" height="258" viewBox="0 0 246 258" fill="none" xmlns="http://www.w3.org/2000/svg">
<path d="M41.9447 82.4318H34.8647V99.4238H41.9447C47.3687 99.4238 50.7767 95.7278 50.7767 90.8798C50.7767 85.9838 47.3687 82.4318 41.9447 82.4318ZM40.1927 94.6718V87.0878H41.4647C43.8167 87.0878 45.3767 88.4078 45.3767 90.8798C45.3767 93.3518 43.8167 94.6718 41.4647 94.6718H40.1927ZM57.5486 93.8798C57.5486 92.0318 58.5566 91.4798 60.4766 91.4798H61.9886V85.7918C60.2366 85.7918 58.6046 86.8718 57.5486 88.3838V85.8878H52.2206V99.4238H57.5486V93.8798ZM62.9438 99.4238H68.2718V85.8878H62.9438V99.4238ZM65.6318 84.8078C67.5038 84.8078 68.6798 83.6558 68.6798 82.1918C68.6798 80.7038 67.5038 79.5278 65.6318 79.5278C63.7358 79.5278 62.5598 80.7038 62.5598 82.1918C62.5598 83.6558 63.7358 84.8078 65.6318 84.8078ZM69.2141 85.8878L73.7261 99.4238H80.3741L84.8861 85.8878H79.2221L77.0621 94.3598L74.8781 85.8878H69.2141ZM92.0117 89.8958C92.8037 89.8958 93.5237 90.3278 93.5237 91.2638H90.3557C90.5237 90.3278 91.1237 89.8958 92.0117 89.8958ZM98.6357 94.5518H92.9957C92.8037 94.9598 92.4437 95.3438 91.7477 95.3438C91.0277 95.3438 90.3797 94.9598 90.3077 93.5918H98.8517C98.8997 93.2558 98.9237 92.8718 98.9237 92.5358C98.9237 88.2878 96.0677 85.7198 92.0117 85.7198C87.9557 85.7198 85.0997 88.3358 85.0997 92.6558C85.0997 96.9758 87.9557 99.5918 92.0117 99.5918C95.4197 99.5918 98.0597 97.4318 98.6357 94.5518ZM102.767 86.6558H107.231V99.4238H112.559V86.6558H117.071V82.4318H102.767V86.6558ZM118.036 99.4238H123.364V92.2478C123.364 90.9518 124.084 90.1598 125.26 90.1598C126.412 90.1598 127.156 90.9518 127.156 92.2478V99.4238H132.46V91.5758C132.46 88.0718 130.636 85.7918 127.516 85.7918C125.476 85.7918 124.132 86.7758 123.364 87.9518V81.6638H118.036V99.4238ZM140.482 89.8958C141.274 89.8958 141.994 90.3278 141.994 91.2638H138.826C138.994 90.3278 139.594 89.8958 140.482 89.8958ZM147.106 94.5518H141.466C141.274 94.9598 140.914 95.3438 140.218 95.3438C139.498 95.3438 138.85 94.9598 138.778 93.5918H147.322C147.37 93.2558 147.394 92.8718 147.394 92.5358C147.394 88.2878 144.538 85.7198 140.482 85.7198C136.426 85.7198 133.57 88.3358 133.57 92.6558C133.57 96.9758 136.426 99.5918 140.482 99.5918C143.89 99.5918 146.53 97.4318 147.106 94.5518ZM152.197 99.4238H157.525V93.0158H162.325V89.0078H157.525V86.6558H164.197V82.4318H152.197V99.4238ZM165.522 99.4238H170.85V81.6638H165.522V99.4238ZM186.361 92.6558C186.361 88.3358 183.289 85.7198 179.209 85.7198C175.129 85.7198 172.057 88.3358 172.057 92.6558C172.057 96.9758 175.129 99.5918 179.209 99.5918C183.289 99.5918 186.361 96.9758 186.361 92.6558ZM177.457 92.6558C177.457 91.0478 178.273 90.3278 179.209 90.3278C180.145 90.3278 180.961 91.0478 180.961 92.6558C180.961 94.2638 180.145 94.9838 179.209 94.9838C178.249 94.9838 177.457 94.2638 177.457 92.6558ZM201.138 92.6558C201.138 88.3358 198.066 85.7198 193.986 85.7198C189.906 85.7198 186.834 88.3358 186.834 92.6558C186.834 96.9758 189.906 99.5918 193.986 99.5918C198.066 99.5918 201.138 96.9758 201.138 92.6558ZM192.234 92.6558C192.234 91.0478 193.05 90.3278 193.986 90.3278C194.922 90.3278 195.738 91.0478 195.738 92.6558C195.738 94.2638 194.922 94.9838 193.986 94.9838C193.026 94.9838 192.234 94.2638 192.234 92.6558ZM207.66 93.8798C207.66 92.0318 208.668 91.4798 210.588 91.4798H212.1V85.7918C210.348 85.7918 208.716 86.8718 207.66 88.3838V85.8878H202.332V99.4238H207.66V93.8798ZM1.03828 127.904C1.03828 132.968 4.23028 136.544 9.43828 136.544C13.9263 136.544 16.9743 133.856 17.6703 129.848H12.0543C11.5503 130.976 10.5423 131.624 9.34228 131.624C7.54228 131.624 6.43828 130.16 6.43828 127.904C6.43828 125.648 7.54228 124.184 9.34228 124.184C10.5423 124.184 11.5503 124.832 12.0543 125.96H17.6703C16.9743 121.952 13.9263 119.264 9.43828 119.264C4.23028 119.264 1.03828 122.84 1.03828 127.904ZM32.6926 129.656C32.6926 125.336 29.6206 122.72 25.5406 122.72C21.4606 122.72 18.3886 125.336 18.3886 129.656C18.3886 133.976 21.4606 136.592 25.5406 136.592C29.6206 136.592 32.6926 133.976 32.6926 129.656ZM23.7886 129.656C23.7886 128.048 24.6046 127.328 25.5406 127.328C26.4766 127.328 27.2926 128.048 27.2926 129.656C27.2926 131.264 26.4766 131.984 25.5406 131.984C24.5806 131.984 23.7886 131.264 23.7886 129.656ZM43.0064 136.424H48.3104V128.576C48.3104 125.072 46.4864 122.792 43.3664 122.792C41.3264 122.792 39.9824 123.776 39.2144 124.952V122.888H33.8864V136.424H39.2144V129.248C39.2144 127.952 39.9344 127.16 41.1104 127.16C42.2624 127.16 43.0064 127.952 43.0064 129.248V136.424ZM50.9808 130.88C50.9808 135.08 53.3808 136.424 56.5488 136.424H58.5648V131.888H57.2928C56.5968 131.888 56.3088 131.6 56.3088 130.976V127.328H58.5168V122.888H56.3088V119.624H50.9808V122.888H49.3008V127.328H50.9808V130.88ZM60.1139 136.424H65.4419V122.888H60.1139V136.424ZM62.8019 121.808C64.6739 121.808 65.8499 120.656 65.8499 119.192C65.8499 117.704 64.6739 116.528 62.8019 116.528C60.9059 116.528 59.7299 117.704 59.7299 119.192C59.7299 120.656 60.9059 121.808 62.8019 121.808ZM76.4883 136.424H81.7923V128.576C81.7923 125.072 79.9683 122.792 76.8483 122.792C74.8083 122.792 73.4643 123.776 72.6963 124.952V122.888H67.3683V136.424H72.6963V129.248C72.6963 127.952 73.4163 127.16 74.5923 127.16C75.7443 127.16 76.4883 127.952 76.4883 129.248V136.424ZM97.9507 122.888H92.6227V130.064C92.6227 131.36 91.9027 132.152 90.7267 132.152C89.5747 132.152 88.8307 131.36 88.8307 130.064V122.888H83.5267V130.736C83.5267 134.24 85.3507 136.52 88.4707 136.52C90.5107 136.52 91.8547 135.536 92.6227 134.36V136.424H97.9507V122.888ZM106.069 126.896C106.861 126.896 107.581 127.328 107.581 128.264H104.413C104.581 127.328 105.181 126.896 106.069 126.896ZM112.693 131.552H107.053C106.861 131.96 106.501 132.344 105.805 132.344C105.085 132.344 104.437 131.96 104.365 130.592H112.909C112.957 130.256 112.981 129.872 112.981 129.536C112.981 125.288 110.125 122.72 106.069 122.72C102.013 122.72 99.157 125.336 99.157 129.656C99.157 133.976 102.013 136.592 106.069 136.592C109.477 136.592 112.117 134.432 112.693 131.552ZM113.466 129.656C113.466 134.024 115.938 136.592 119.058 136.592C120.858 136.592 122.13 135.8 122.778 134.576V136.424H128.106V118.664H122.778V124.736C122.13 123.512 120.858 122.72 119.058 122.72C115.938 122.72 113.466 125.288 113.466 129.656ZM122.802 129.656C122.802 131.144 121.938 131.936 120.834 131.936C119.73 131.936 118.866 131.144 118.866 129.656C118.866 128.168 119.73 127.376 120.834 127.376C121.938 127.376 122.802 128.168 122.802 129.656ZM145.353 136.424H150.969L144.777 119.432H138.633L132.417 136.424H138.009L138.849 133.856H144.513L145.353 136.424ZM143.217 129.848H140.145L141.681 125.12L143.217 129.848ZM150.979 129.656C150.979 134.024 153.451 136.592 156.571 136.592C158.371 136.592 159.643 135.8 160.291 134.576V136.424H165.619V118.664H160.291V124.736C159.643 123.512 158.371 122.72 156.571 122.72C153.451 122.72 150.979 125.288 150.979 129.656ZM160.315 129.656C160.315 131.144 159.451 131.936 158.347 131.936C157.243 131.936 156.379 131.144 156.379 129.656C156.379 128.168 157.243 127.376 158.347 127.376C159.451 127.376 160.315 128.168 160.315 129.656ZM181.116 129.656C181.116 125.336 178.044 122.72 173.964 122.72C169.884 122.72 166.812 125.336 166.812 129.656C166.812 133.976 169.884 136.592 173.964 136.592C178.044 136.592 181.116 133.976 181.116 129.656ZM172.212 129.656C172.212 128.048 173.028 127.328 173.964 127.328C174.9 127.328 175.716 128.048 175.716 129.656C175.716 131.264 174.9 131.984 173.964 131.984C173.004 131.984 172.212 131.264 172.212 129.656ZM187.638 124.736V122.888H182.31V142.904H187.638V134.576C188.286 135.8 189.558 136.592 191.358 136.592C194.478 136.592 196.95 134.024 196.95 129.656C196.95 125.288 194.478 122.72 191.358 122.72C189.558 122.72 188.286 123.512 187.638 124.736ZM191.55 129.656C191.55 131.144 190.686 131.936 189.582 131.936C188.478 131.936 187.614 131.144 187.614 129.656C187.614 128.168 188.478 127.376 189.582 127.376C190.686 127.376 191.55 128.168 191.55 129.656ZM198.982 130.88C198.982 135.08 201.382 136.424 204.55 136.424H206.566V131.888H205.294C204.598 131.888 204.31 131.6 204.31 130.976V127.328H206.518V122.888H204.31V119.624H198.982V122.888H197.302V127.328H198.982V130.88ZM208.115 136.424H213.443V122.888H208.115V136.424ZM210.803 121.808C212.675 121.808 213.851 120.656 213.851 119.192C213.851 117.704 212.675 116.528 210.803 116.528C208.907 116.528 207.731 117.704 207.731 119.192C207.731 120.656 208.907 121.808 210.803 121.808ZM228.954 129.656C228.954 125.336 225.882 122.72 221.802 122.72C217.722 122.72 214.65 125.336 214.65 129.656C214.65 133.976 217.722 136.592 221.802 136.592C225.882 136.592 228.954 133.976 228.954 129.656ZM220.05 129.656C220.05 128.048 220.866 127.328 221.802 127.328C222.738 127.328 223.554 128.048 223.554 129.656C223.554 131.264 222.738 131.984 221.802 131.984C220.842 131.984 220.05 131.264 220.05 129.656ZM239.267 136.424H244.571V128.576C244.571 125.072 242.747 122.792 239.627 122.792C237.587 122.792 236.243 123.776 235.475 124.952V122.888H230.147V136.424H235.475V129.248C235.475 127.952 236.195 127.16 237.371 127.16C238.523 127.16 239.267 127.952 239.267 129.248V136.424ZM28.9024 168.168C28.9024 162.936 21.0064 163.296 21.0064 161.16C21.0064 160.584 21.3424 160.296 21.7744 160.296C22.3504 160.296 22.9024 160.608 22.9504 161.64H28.6864C28.5424 158.112 25.9024 156.144 21.7984 156.144C18.1744 156.144 15.2944 157.92 15.2944 161.328C15.1984 167.136 23.2144 166.296 23.2384 168.6C23.2384 169.2 22.7344 169.44 22.2064 169.44C21.6784 169.44 21.0064 169.224 20.9104 167.976H15.2464C15.4864 171.792 18.5344 173.592 22.4224 173.592C26.5264 173.592 28.9024 171.288 28.9024 168.168ZM29.5744 166.656C29.5744 170.976 32.4304 173.592 36.4864 173.592C39.9664 173.592 42.5824 171.528 43.2304 167.976H37.5904C37.3984 168.624 37.0384 169.032 36.3664 169.032C35.5504 169.032 34.9744 168.288 34.9744 166.656C34.9744 165.024 35.5504 164.28 36.3664 164.28C37.0384 164.28 37.3984 164.688 37.5904 165.336H43.2304C42.5824 161.784 39.9664 159.72 36.4864 159.72C32.4304 159.72 29.5744 162.336 29.5744 166.656ZM43.7194 166.656C43.7194 171.024 46.1914 173.592 49.3114 173.592C51.1114 173.592 52.4074 172.8 53.0554 171.576V173.424H58.3594V159.888H53.0554V161.736C52.4074 160.512 51.1114 159.72 49.3114 159.72C46.1914 159.72 43.7194 162.288 43.7194 166.656ZM53.0554 166.656C53.0554 168.144 52.1914 168.936 51.0874 168.936C49.9834 168.936 49.1194 168.144 49.1194 166.656C49.1194 165.168 49.9834 164.376 51.0874 164.376C52.1914 164.376 53.0554 165.168 53.0554 166.656ZM60.2719 173.424H65.5999V155.664H60.2719V173.424ZM73.7182 163.896C74.5102 163.896 75.2302 164.328 75.2302 165.264H72.0622C72.2302 164.328 72.8302 163.896 73.7182 163.896ZM80.3422 168.552H74.7022C74.5102 168.96 74.1502 169.344 73.4542 169.344C72.7342 169.344 72.0862 168.96 72.0142 167.592H80.5582C80.6062 167.256 80.6302 166.872 80.6302 166.536C80.6302 162.288 77.7742 159.72 73.7182 159.72C69.6622 159.72 66.8062 162.336 66.8062 166.656C66.8062 170.976 69.6622 173.592 73.7182 173.592C77.1262 173.592 79.7662 171.432 80.3422 168.552ZM84.9534 164.904C84.9534 169.968 88.1454 173.544 93.3534 173.544C97.8414 173.544 100.889 170.856 101.585 166.848H95.9694C95.4654 167.976 94.4574 168.624 93.2574 168.624C91.4574 168.624 90.3534 167.16 90.3534 164.904C90.3534 162.648 91.4574 161.184 93.2574 161.184C94.4574 161.184 95.4654 161.832 95.9694 162.96H101.585C100.889 158.952 97.8414 156.264 93.3534 156.264C88.1454 156.264 84.9534 159.84 84.9534 164.904ZM108.352 167.88C108.352 166.032 109.36 165.48 111.28 165.48H112.792V159.792C111.04 159.792 109.408 160.872 108.352 162.384V159.888H103.024V173.424H108.352V167.88ZM127.331 166.656C127.331 162.336 124.259 159.72 120.179 159.72C116.099 159.72 113.027 162.336 113.027 166.656C113.027 170.976 116.099 173.592 120.179 173.592C124.259 173.592 127.331 170.976 127.331 166.656ZM118.427 166.656C118.427 165.048 119.243 164.328 120.179 164.328C121.115 164.328 121.931 165.048 121.931 166.656C121.931 168.264 121.115 168.984 120.179 168.984C119.219 168.984 118.427 168.264 118.427 166.656ZM140.309 169.368C140.309 164.16 133.229 165.72 133.229 164.04C133.229 163.632 133.541 163.416 134.069 163.416C134.933 163.416 135.461 163.848 135.605 164.568H140.333C139.949 161.904 138.053 159.72 134.189 159.72C130.373 159.72 128.429 161.736 128.429 164.184C128.429 169.152 135.413 167.52 135.413 169.296C135.413 169.632 135.077 169.92 134.525 169.92C133.709 169.92 133.061 169.56 132.941 168.744H127.829C128.069 171.504 130.637 173.592 134.549 173.592C138.149 173.592 140.309 171.768 140.309 169.368ZM153.727 169.368C153.727 164.16 146.647 165.72 146.647 164.04C146.647 163.632 146.959 163.416 147.487 163.416C148.351 163.416 148.879 163.848 149.023 164.568H153.751C153.367 161.904 151.471 159.72 147.607 159.72C143.791 159.72 141.847 161.736 141.847 164.184C141.847 169.152 148.831 167.52 148.831 169.296C148.831 169.632 148.495 169.92 147.943 169.92C147.127 169.92 146.479 169.56 146.359 168.744H141.247C141.487 171.504 144.055 173.592 147.967 173.592C151.567 173.592 153.727 171.768 153.727 169.368ZM158.48 164.904C158.48 169.968 161.672 173.544 166.88 173.544C171.368 173.544 174.416 170.856 175.112 166.848H169.496C168.992 167.976 167.984 168.624 166.784 168.624C164.984 168.624 163.88 167.16 163.88 164.904C163.88 162.648 164.984 161.184 166.784 161.184C167.984 161.184 168.992 161.832 169.496 162.96H175.112C174.416 158.952 171.368 156.264 166.88 156.264C161.672 156.264 158.48 159.84 158.48 164.904ZM176.55 173.424H181.878V166.248C181.878 164.952 182.598 164.16 183.774 164.16C184.926 164.16 185.67 164.952 185.67 166.248V173.424H190.974V165.576C190.974 162.072 189.15 159.792 186.03 159.792C183.99 159.792 182.646 160.776 181.878 161.952V155.664H176.55V173.424ZM192.084 166.656C192.084 171.024 194.556 173.592 197.676 173.592C199.476 173.592 200.772 172.8 201.42 171.576V173.424H206.724V159.888H201.42V161.736C200.772 160.512 199.476 159.72 197.676 159.72C194.556 159.72 192.084 162.288 192.084 166.656ZM201.42 166.656C201.42 168.144 200.556 168.936 199.452 168.936C198.348 168.936 197.484 168.144 197.484 166.656C197.484 165.168 198.348 164.376 199.452 164.376C200.556 164.376 201.42 165.168 201.42 166.656ZM208.637 173.424H213.965V159.888H208.637V173.424ZM211.325 158.808C213.197 158.808 214.373 157.656 214.373 156.192C214.373 154.704 213.197 153.528 211.325 153.528C209.429 153.528 208.253 154.704 208.253 156.192C208.253 157.656 209.429 158.808 211.325 158.808ZM225.011 173.424H230.315V165.576C230.315 162.072 228.491 159.792 225.371 159.792C223.331 159.792 221.987 160.776 221.219 161.952V159.888H215.891V173.424H221.219V166.248C221.219 164.952 221.939 164.16 223.115 164.16C224.267 164.16 225.011 164.952 225.011 166.248V173.424ZM33.3488 210.424H38.9408V192.88H30.8048V197.872H33.3488V210.424ZM52.6548 206.368C52.6548 201.16 45.5748 202.72 45.5748 201.04C45.5748 200.632 45.8868 200.416 46.4148 200.416C47.2788 200.416 47.8068 200.848 47.9508 201.568H52.6788C52.2948 198.904 50.3988 196.72 46.5348 196.72C42.7188 196.72 40.7748 198.736 40.7748 201.184C40.7748 206.152 47.7588 204.52 47.7588 206.296C47.7588 206.632 47.4228 206.92 46.8708 206.92C46.0548 206.92 45.4068 206.56 45.2868 205.744H40.1748C40.4148 208.504 42.9828 210.592 46.8948 210.592C50.4948 210.592 52.6548 208.768 52.6548 206.368ZM55.1292 204.88C55.1292 209.08 57.5292 210.424 60.6972 210.424H62.7132V205.888H61.4412C60.7452 205.888 60.4572 205.6 60.4572 204.976V201.328H62.6652V196.888H60.4572V193.624H55.1292V196.888H53.4492V201.328H55.1292V204.88ZM71.2685 210.424H77.8925L79.8605 200.776L81.8285 210.424H88.4525L92.3405 193.432H86.6045L85.0685 204.136L82.7645 193.432H76.9565L74.6525 204.136L73.1165 193.432H67.3805L71.2685 210.424ZM93.0511 203.656C93.0511 208.024 95.5231 210.592 98.6431 210.592C100.443 210.592 101.739 209.8 102.387 208.576V210.424H107.691V196.888H102.387V198.736C101.739 197.512 100.443 196.72 98.6431 196.72C95.5231 196.72 93.0511 199.288 93.0511 203.656ZM102.387 203.656C102.387 205.144 101.523 205.936 100.419 205.936C99.3151 205.936 98.4511 205.144 98.4511 203.656C98.4511 202.168 99.3151 201.376 100.419 201.376C101.523 201.376 102.387 202.168 102.387 203.656ZM108.62 196.888L113.132 210.424H119.78L124.292 196.888H118.628L116.468 205.36L114.284 196.888H108.62ZM131.417 200.896C132.209 200.896 132.929 201.328 132.929 202.264H129.761C129.929 201.328 130.529 200.896 131.417 200.896ZM138.041 205.552H132.401C132.209 205.96 131.849 206.344 131.153 206.344C130.433 206.344 129.785 205.96 129.713 204.592H138.257C138.305 204.256 138.329 203.872 138.329 203.536C138.329 199.288 135.473 196.72 131.417 196.72C127.361 196.72 124.505 199.336 124.505 203.656C124.505 207.976 127.361 210.592 131.417 210.592C134.825 210.592 137.465 208.432 138.041 205.552ZM154.868 210.424H160.484L154.292 193.432H148.148L141.932 210.424H147.524L148.364 207.856H154.028L154.868 210.424ZM152.732 203.848H149.66L151.196 199.12L152.732 203.848ZM166.543 204.88C166.543 203.032 167.551 202.48 169.471 202.48H170.983V196.792C169.231 196.792 167.599 197.872 166.543 199.384V196.888H161.215V210.424H166.543V204.88ZM172.778 204.88C172.778 209.08 175.178 210.424 178.346 210.424H180.362V205.888H179.09C178.394 205.888 178.106 205.6 178.106 204.976V201.328H180.314V196.888H178.106V193.624H172.778V196.888H171.098V201.328H172.778V204.88ZM181.911 210.424H187.239V196.888H181.911V210.424ZM184.599 195.808C186.471 195.808 187.647 194.656 187.647 193.192C187.647 191.704 186.471 190.528 184.599 190.528C182.703 190.528 181.527 191.704 181.527 193.192C181.527 194.656 182.703 195.808 184.599 195.808ZM200.949 206.368C200.949 201.16 193.869 202.72 193.869 201.04C193.869 200.632 194.181 200.416 194.709 200.416C195.573 200.416 196.101 200.848 196.245 201.568H200.973C200.589 198.904 198.693 196.72 194.829 196.72C191.013 196.72 189.069 198.736 189.069 201.184C189.069 206.152 196.053 204.52 196.053 206.296C196.053 206.632 195.717 206.92 195.165 206.92C194.349 206.92 193.701 206.56 193.581 205.744H188.469C188.709 208.504 191.277 210.592 195.189 210.592C198.789 210.592 200.949 208.768 200.949 206.368ZM203.424 204.88C203.424 209.08 205.824 210.424 208.992 210.424H211.008V205.888H209.736C209.04 205.888 208.752 205.6 208.752 204.976V201.328H210.96V196.888H208.752V193.624H203.424V196.888H201.744V201.328H203.424V204.88ZM99.146 230.432H87.818V247.424H99.146V243.176H93.146V240.776H98.426V236.768H93.146V234.68H99.146V230.432ZM109.554 247.424H115.506L110.61 240.848L115.29 233.888H109.434L107.706 236.96L105.426 233.888H99.4739L104.25 240.296L99.7139 247.424H105.57L107.274 244.376L109.554 247.424ZM121.553 235.736V233.888H116.225V253.904H121.553V245.576C122.201 246.8 123.473 247.592 125.273 247.592C128.393 247.592 130.865 245.024 130.865 240.656C130.865 236.288 128.393 233.72 125.273 233.72C123.473 233.72 122.201 234.512 121.553 235.736ZM125.465 240.656C125.465 242.144 124.601 242.936 123.497 242.936C122.393 242.936 121.529 242.144 121.529 240.656C121.529 239.168 122.393 238.376 123.497 238.376C124.601 238.376 125.465 239.168 125.465 240.656ZM132.058 247.424H137.386V229.664H132.058V247.424ZM152.896 240.656C152.896 236.336 149.824 233.72 145.744 233.72C141.664 233.72 138.592 236.336 138.592 240.656C138.592 244.976 141.664 247.592 145.744 247.592C149.824 247.592 152.896 244.976 152.896 240.656ZM143.992 240.656C143.992 239.048 144.808 238.328 145.744 238.328C146.68 238.328 147.496 239.048 147.496 240.656C147.496 242.264 146.68 242.984 145.744 242.984C144.784 242.984 143.992 242.264 143.992 240.656ZM159.418 241.88C159.418 240.032 160.426 239.48 162.346 239.48H163.858V233.792C162.106 233.792 160.474 234.872 159.418 236.384V233.888H154.09V247.424H159.418V241.88ZM164.093 240.656C164.093 245.024 166.565 247.592 169.685 247.592C171.485 247.592 172.781 246.8 173.429 245.576V247.424H178.733V233.888H173.429V235.736C172.781 234.512 171.485 233.72 169.685 233.72C166.565 233.72 164.093 236.288 164.093 240.656ZM173.429 240.656C173.429 242.144 172.565 242.936 171.461 242.936C170.357 242.936 169.493 242.144 169.493 240.656C169.493 239.168 170.357 238.376 171.461 238.376C172.565 238.376 173.429 239.168 173.429 240.656ZM181.485 241.88C181.485 246.08 183.885 247.424 187.053 247.424H189.069V242.888H187.797C187.101 242.888 186.813 242.6 186.813 241.976V238.328H189.021V233.888H186.813V230.624H181.485V233.888H179.805V238.328H181.485V241.88ZM190.619 247.424H195.947V233.888H190.619V247.424ZM193.307 232.808C195.179 232.808 196.355 231.656 196.355 230.192C196.355 228.704 195.179 227.528 193.307 227.528C191.411 227.528 190.235 228.704 190.235 230.192C190.235 231.656 191.411 232.808 193.307 232.808ZM211.457 240.656C211.457 236.336 208.385 233.72 204.305 233.72C200.225 233.72 197.153 236.336 197.153 240.656C197.153 244.976 200.225 247.592 204.305 247.592C208.385 247.592 211.457 244.976 211.457 240.656ZM202.553 240.656C202.553 239.048 203.369 238.328 204.305 238.328C205.241 238.328 206.057 239.048 206.057 240.656C206.057 242.264 205.241 242.984 204.305 242.984C203.345 242.984 202.553 242.264 202.553 240.656ZM221.771 247.424H227.075V239.576C227.075 236.072 225.251 233.792 222.131 233.792C220.091 233.792 218.747 234.776 217.979 235.952V233.888H212.651V247.424H217.979V240.248C217.979 238.952 218.699 238.16 219.875 238.16C221.027 238.16 221.771 238.952 221.771 240.248V247.424Z" fill="#F29565"/>
<path d="M32.1428 242.168C32.1428 236.936 24.2468 237.296 24.2468 235.16C24.2468 234.584 24.5828 234.296 25.0148 234.296C25.5908 234.296 26.1428 234.608 26.1908 235.64H31.9268C31.7828 232.112 29.1428 230.144 25.0388 230.144C21.4148 230.144 18.5348 231.92 18.5348 235.328C18.4388 241.136 26.4548 240.296 26.4788 242.6C26.4788 243.2 25.9748 243.44 25.4468 243.44C24.9188 243.44 24.2468 243.224 24.1508 241.976H18.4868C18.7268 245.792 21.7748 247.592 25.6628 247.592C29.7668 247.592 32.1428 245.288 32.1428 242.168ZM45.2708 247.424H50.8868L44.6948 230.432H38.5508L32.3348 247.424H37.9268L38.7668 244.856H44.4308L45.2708 247.424ZM43.1348 240.848H40.0628L41.5988 236.12L43.1348 240.848ZM63.3533 247.424H68.9693L62.7773 230.432H56.6333L50.4173 247.424H56.0093L56.8493 244.856H62.5133L63.3533 247.424ZM61.2173 240.848H58.1453L59.6813 236.12L61.2173 240.848ZM82.8278 242.168C82.8278 236.936 74.9318 237.296 74.9318 235.16C74.9318 234.584 75.2678 234.296 75.6998 234.296C76.2758 234.296 76.8278 234.608 76.8758 235.64H82.6118C82.4678 232.112 79.8278 230.144 75.7238 230.144C72.0998 230.144 69.2198 231.92 69.2198 235.328C69.1238 241.136 77.1398 240.296 77.1638 242.6C77.1638 243.2 76.6598 243.44 76.1318 243.44C75.6038 243.44 74.9318 243.224 74.8358 241.976H69.1718C69.4118 245.792 72.4598 247.592 76.3478 247.592C80.4518 247.592 82.8278 245.288 82.8278 242.168Z" fill="white"/>
<path d="M3.98701 20.41H13.707C13.707 19.105 13.932 17.62 15.372 17.62C16.227 17.62 17.037 18.205 17.037 19.825C17.037 22.345 14.787 22.3 13.977 22.255H12.357V30.31H14.022C16.767 30.31 17.667 31.255 17.667 32.875C17.667 34.225 16.857 35.08 15.777 35.08C13.887 35.08 13.212 33.91 13.347 31.795H3.62701C3.76201 40.075 8.84701 43.315 16.227 43.315C23.157 43.315 27.342 39.4 27.342 33.595C27.342 29.455 25.047 27.25 21.942 26.08V25.9C23.877 25.27 26.757 23.245 26.757 18.565C26.757 13.435 22.887 9.385 15.597 9.385C8.26201 9.385 4.16701 13.255 3.98701 20.41ZM40.9876 32.605C40.9876 29.14 42.8776 28.105 46.4776 28.105H49.3126V17.44C46.0276 17.44 42.9676 19.465 40.9876 22.3V17.62H30.9976V43H40.9876V32.605ZM49.7534 30.31C49.7534 38.5 54.3884 43.315 60.2384 43.315C63.6134 43.315 65.9984 41.83 67.2134 39.535V43H77.2034V9.7H67.2134V21.085C65.9984 18.79 63.6134 17.305 60.2384 17.305C54.3884 17.305 49.7534 22.12 49.7534 30.31ZM67.2584 30.31C67.2584 33.1 65.6384 34.585 63.5684 34.585C61.4984 34.585 59.8784 33.1 59.8784 30.31C59.8784 27.52 61.4984 26.035 63.5684 26.035C65.6384 26.035 67.2584 27.52 67.2584 30.31ZM96.8058 26.935C96.8058 22.615 98.9658 19.825 103.061 19.825C107.066 19.825 109.271 22.615 109.271 26.935C109.271 31.165 107.066 34 103.061 34C98.9658 34 96.8058 31.165 96.8058 26.935ZM119.396 26.935C119.396 17.35 112.151 10.6 103.061 10.6C94.0158 10.6 86.6358 17.35 86.6358 26.935C86.6358 36.52 94.0158 43.315 103.061 43.315C103.871 43.315 104.681 43.27 105.446 43.135L108.506 48.175H120.296L113.816 39.445C117.236 36.52 119.396 32.155 119.396 26.935ZM123.675 32.605C123.675 40.48 128.175 43 134.115 43H137.895V34.495H135.51C134.205 34.495 133.665 33.955 133.665 32.785V25.945H137.805V17.62H133.665V11.5H123.675V17.62H120.525V25.945H123.675V32.605ZM150.789 32.605C150.789 29.14 152.679 28.105 156.279 28.105H159.114V17.44C155.829 17.44 152.769 19.465 150.789 22.3V17.62H140.799V43H150.789V32.605ZM171.57 38.455C171.57 35.665 169.365 33.46 165.855 33.46C162.3 33.46 160.095 35.665 160.095 38.455C160.095 41.2 162.3 43.36 165.855 43.36C169.365 43.36 171.57 41.2 171.57 38.455ZM186.432 11.14L181.122 24.415H191.022L193.002 11.14H186.432ZM196.239 42.55H219.504V34.495H209.199C214.419 31.21 219.369 25.765 219.369 19.24C219.369 14.02 216.444 9.385 208.254 9.385C202.089 9.385 196.419 12.76 196.104 21.49H205.779C205.599 18.835 206.499 17.755 207.579 17.755C208.614 17.755 209.289 18.565 209.289 20.005C209.289 24.73 202.584 30.265 196.239 35.035V42.55ZM220.827 42.55H244.092V34.495H233.787C239.007 31.21 243.957 25.765 243.957 19.24C243.957 14.02 241.032 9.385 232.842 9.385C226.677 9.385 221.007 12.76 220.692 21.49H230.367C230.187 18.835 231.087 17.755 232.167 17.755C233.202 17.755 233.877 18.565 233.877 20.005C233.877 24.73 227.172 30.265 220.827 35.035V42.55Z" fill="white"/>
</svg>
