<svg width="353" height="117" viewBox="0 0 353 117" fill="none" xmlns="http://www.w3.org/2000/svg">
<path d="M64.7284 21.184C64.8324 18.792 64.0004 14.424 57.8644 11.408C34.9844 0.383998 8.56837 9.12 7.42437 9.432C4.92836 10.368 3.47236 13.072 4.40836 15.672C5.24036 18.272 8.04837 19.624 10.5444 18.792C10.6484 18.688 13.7684 17.752 18.6564 16.816L8.46437 48.536C8.15237 48.64 7.73637 48.848 7.42437 48.952C4.92836 49.992 3.68036 52.8 4.72036 55.296C4.92836 55.92 5.34437 56.44 5.76037 56.856L1.60036 69.648C0.768365 72.248 2.22436 75.056 4.82436 75.784C5.34437 75.992 5.76037 76.096 6.28037 76.096C8.36036 76.096 10.3364 74.744 10.9604 72.664L15.8484 57.584L35.0884 89.2C36.0244 90.76 37.5844 91.592 39.2484 91.592C40.0804 91.592 41.0164 91.384 41.7444 90.864C44.1364 89.512 44.8644 86.496 43.4084 84.208L24.1684 52.384C41.7444 44.376 64.4164 32 64.7284 21.184ZM20.4244 43.336L29.2644 15.672C36.8564 15.464 45.5924 16.4 53.6004 20.248C54.3284 20.56 54.7444 20.872 54.9524 21.08C53.9124 25.24 39.1444 34.6 20.4244 43.336ZM92.9343 32.208C88.6703 29.192 82.8463 28.776 76.9183 31.064C71.7183 33.248 66.7263 37.304 62.8783 42.608C59.0303 47.912 56.7423 53.944 56.4303 59.56C56.0143 65.904 58.1983 71.312 62.3583 74.328C64.8543 76.096 67.7663 76.928 70.8863 76.928C73.2783 76.928 75.7743 76.512 78.3743 75.472C83.5743 73.392 88.5663 69.232 92.4143 63.928C100.942 52.176 101.15 38.24 92.9343 32.208ZM84.5103 58.208C81.8063 62.056 78.1663 64.968 74.7343 66.424C72.0303 67.464 69.6383 67.464 68.1823 66.424C66.7263 65.384 65.9983 63.096 66.1023 60.184C66.4143 56.44 68.0783 52.072 70.7823 48.328C73.5903 44.584 77.1263 41.568 80.5583 40.216C82.0143 39.592 83.2623 39.384 84.4063 39.384C85.5503 39.384 86.4863 39.592 87.2143 40.112C90.4383 42.504 89.9183 50.72 84.5103 58.208ZM84.5103 81.608C76.1903 79.424 53.8303 79.736 51.3343 79.84C48.6303 79.84 46.4463 82.024 46.4463 84.728C46.5503 87.432 48.8383 89.72 51.4383 89.616C57.8863 89.512 76.0863 89.512 82.0143 91.072C82.4303 91.176 82.8463 91.28 83.2623 91.28C85.4463 91.28 87.4223 89.824 88.0463 87.536C88.6703 84.936 87.1103 82.232 84.5103 81.608ZM142.449 32.52C139.849 31.688 137.145 33.04 136.209 35.64L134.233 41.672C132.673 35.016 130.385 28.464 126.953 25.864C125.393 24.72 123.521 24.2 121.649 24.512C113.329 25.76 96.7929 63.824 94.6089 72.456C93.8809 75.056 92.3209 81.088 96.3769 84.104C97.1049 84.728 98.3529 85.664 100.641 85.664C104.697 85.664 111.977 82.44 125.289 67.88L121.441 79.216C120.505 81.712 121.857 84.52 124.457 85.352C124.977 85.56 125.497 85.664 126.017 85.664C128.097 85.664 129.969 84.416 130.697 82.336L145.465 38.76C146.401 36.264 145.049 33.456 142.449 32.52ZM104.177 74.12C106.881 64.656 116.969 44.168 122.481 36.368C123.729 39.8 125.185 45.728 126.121 51.864C118.113 61.64 109.273 70.48 104.177 74.12ZM196.361 3.296C193.761 2.464 191.057 3.816 190.121 6.312L178.161 41.568C176.601 35.016 174.313 28.464 170.881 25.864C169.321 24.72 167.449 24.2 165.577 24.512C157.257 25.76 140.721 63.824 138.537 72.456C137.809 75.056 136.249 81.088 140.305 84.104C141.033 84.728 142.281 85.664 144.569 85.664C148.625 85.664 155.905 82.44 169.217 67.88L165.369 79.216C164.433 81.712 165.785 84.52 168.385 85.352C168.905 85.56 169.425 85.664 169.945 85.664C172.025 85.664 173.897 84.416 174.625 82.336L199.377 9.536C200.313 6.93599 198.857 4.128 196.361 3.296ZM148.105 74.12C150.809 64.656 160.897 44.168 166.409 36.368C167.657 39.8 169.113 45.728 170.049 51.864C162.041 61.64 153.201 70.48 148.105 74.12ZM258.157 27.32C257.845 24.2 255.661 22.64 253.893 22.224C248.901 21.184 246.301 24.304 230.285 50.408C228.933 52.696 227.477 54.984 226.125 57.168C225.917 49.056 226.125 37.824 226.229 30.544C226.437 21.704 226.541 14.736 226.229 11.512C225.917 8.184 223.629 6.51999 221.757 6.208C217.701 5.47999 213.957 4.752 182.549 69.024C181.405 71.52 182.341 74.432 184.837 75.576C185.461 75.888 186.189 76.096 186.917 76.096C188.789 76.096 190.453 75.056 191.285 73.288C200.021 55.504 210.005 36.368 216.557 25.032C216.557 26.696 216.453 28.464 216.453 30.336C215.829 68.192 216.765 72.144 221.341 74.016C223.525 74.848 225.917 74.328 227.581 72.456C229.557 70.376 232.885 64.864 238.709 55.504C241.413 51.136 245.053 45.104 248.277 40.112C247.757 49.368 246.821 61.848 246.093 70.792C245.781 73.496 247.757 75.784 250.461 76.096C253.165 76.304 255.557 74.328 255.765 71.624C256.077 67.88 258.989 35.12 258.157 27.32ZM305.209 32.52C302.609 31.688 299.905 33.04 298.969 35.64L296.993 41.672C295.433 35.016 293.145 28.464 289.713 25.864C288.153 24.72 286.281 24.2 284.409 24.512C276.089 25.76 259.553 63.824 257.369 72.456C256.641 75.056 255.081 81.088 259.137 84.104C259.865 84.728 261.113 85.664 263.401 85.664C267.457 85.664 274.737 82.44 288.049 67.88L284.201 79.216C283.265 81.712 284.617 84.52 287.217 85.352C287.737 85.56 288.257 85.664 288.777 85.664C290.857 85.664 292.729 84.416 293.457 82.336L308.225 38.76C309.161 36.264 307.809 33.456 305.209 32.52ZM266.937 74.12C269.641 64.656 279.729 44.168 285.241 36.368C286.489 39.8 287.945 45.728 288.881 51.864C280.873 61.64 272.033 70.48 266.937 74.12ZM351.229 31.584C350.397 30.44 348.941 29.608 347.485 29.504C345.405 29.296 342.493 28.984 320.133 49.576C322.005 43.752 323.773 39.072 325.021 36.264C326.165 33.768 325.021 30.856 322.525 29.816C320.029 28.672 317.221 29.816 316.077 32.208C309.629 46.872 291.845 107.92 291.117 110.52C290.389 113.12 291.845 115.824 294.445 116.552C294.965 116.76 295.381 116.76 295.797 116.76C297.981 116.76 299.853 115.408 300.477 113.224C300.581 112.912 306.301 93.152 312.437 73.392C316.181 78.8 321.069 84.52 325.541 85.456C326.165 85.664 326.685 85.664 327.205 85.664C328.661 85.664 330.013 85.248 331.157 84.416C337.397 80.152 350.709 45 352.061 37.2C352.373 35.432 352.581 33.456 351.229 31.584ZM326.477 75.056C324.501 73.184 321.173 69.024 318.365 64.552C325.645 57.792 333.445 50.616 339.373 45.624C335.733 55.816 329.805 69.96 326.477 75.056Z" fill="white"/>
</svg>
