<svg width="528" height="118" viewBox="0 0 528 118" fill="none" xmlns="http://www.w3.org/2000/svg">
<path d="M82.4323 27.064C82.5663 23.982 81.4943 18.354 73.5883 14.468C44.1083 0.263998 10.0723 11.52 8.59827 11.922C5.38227 13.128 3.50627 16.612 4.71227 19.962C5.78427 23.312 9.40227 25.054 12.6183 23.982C12.7523 23.848 16.7723 22.642 23.0703 21.436L9.93827 62.306C9.53627 62.44 9.00027 62.708 8.59827 62.842C5.38227 64.182 3.77427 67.8 5.11427 71.016C5.38227 71.82 5.91827 72.49 6.45427 73.026L1.09427 89.508C0.0222741 92.858 1.89827 96.476 5.24827 97.414C5.91827 97.682 6.45427 97.816 7.12427 97.816C9.80427 97.816 12.3503 96.074 13.1543 93.394L19.4523 73.964L44.2423 114.7C45.4483 116.71 47.4583 117.782 49.6023 117.782C50.6743 117.782 51.8803 117.514 52.8183 116.844C55.9003 115.102 56.8383 111.216 54.9623 108.268L30.1723 67.264C52.8183 56.946 82.0303 41 82.4323 27.064ZM25.3483 55.606L36.7383 19.962C46.5203 19.694 57.7763 20.9 68.0943 25.858C69.0323 26.26 69.5683 26.662 69.8363 26.93C68.4963 32.29 49.4683 44.35 25.3483 55.606ZM129.867 26.394C113.787 16.344 91.4092 23.312 79.8852 41.67C68.3612 60.162 72.1132 83.344 88.1932 93.394C93.1512 96.476 98.7792 97.95 104.541 97.95C117.137 97.95 130.269 90.714 138.175 78.118C149.699 59.626 145.947 36.444 129.867 26.394ZM127.455 71.418C119.683 84.014 104.943 88.972 94.7592 82.674C84.5752 76.376 82.6992 60.966 90.6052 48.37C96.0992 39.526 105.077 34.434 113.385 34.434C116.869 34.434 120.219 35.238 123.167 37.114C133.351 43.412 135.227 58.822 127.455 71.418ZM113.117 42.608C109.767 41.402 106.149 43.144 105.077 46.36L97.7072 66.996C96.5012 70.212 98.2432 73.83 101.593 75.036C102.263 75.304 102.933 75.438 103.603 75.438C106.283 75.438 108.695 73.83 109.633 71.15L116.869 50.648C118.075 47.298 116.333 43.68 113.117 42.608ZM103.603 15.942H128.661C132.145 15.942 134.959 13.128 134.959 9.644C134.959 6.15999 132.145 3.346 128.661 3.346H103.603C100.119 3.346 97.3052 6.15999 97.3052 9.644C97.3052 13.128 100.119 15.942 103.603 15.942ZM212.921 58.286C210.375 58.152 207.963 58.018 205.551 57.884C205.551 43.144 205.149 32.692 204.211 28.404C203.675 25.858 201.933 18.354 195.233 17.818C186.925 17.148 183.173 26.93 173.793 50.514C172.721 53.194 171.649 56.008 170.443 58.956C155.167 60.296 146.725 62.708 146.055 62.842C142.705 63.78 140.829 67.264 141.767 70.614C142.571 73.428 145.117 75.17 147.797 75.17C148.333 75.17 149.003 75.17 149.539 74.902C149.673 74.902 155.033 73.428 164.949 72.222C160.661 81.87 156.105 91.25 151.147 98.352C149.271 101.166 149.941 105.052 152.889 107.062C155.703 109.072 159.589 108.402 161.599 105.454C168.165 95.94 174.061 83.21 179.153 70.882C183.441 70.614 187.997 70.48 192.955 70.346C192.955 75.438 192.955 80.53 192.955 85.22C192.821 91.652 192.821 97.682 192.821 102.908C192.821 106.392 195.635 109.206 199.119 109.206C202.603 109.206 205.417 106.392 205.417 102.908C205.417 97.682 205.417 91.652 205.551 85.22C205.551 80.128 205.551 75.17 205.551 70.614C207.695 70.614 209.973 70.748 212.251 70.882C215.601 71.016 218.683 68.336 218.817 64.852C218.951 61.368 216.405 58.42 212.921 58.286ZM184.379 58.018C184.781 57.08 185.183 56.008 185.585 55.204C187.863 49.442 190.409 43.01 192.553 38.052C192.821 43.01 192.955 50.112 192.955 57.75C190.007 57.884 187.193 57.884 184.379 58.018ZM292.417 31.084C288.799 17.282 266.823 13.932 221.531 20.23C218.047 20.766 215.635 23.982 216.037 27.332C216.573 30.816 219.789 33.228 223.273 32.826C228.097 32.022 232.519 31.486 236.539 31.084C212.419 90.044 215.099 92.724 218.047 95.806C219.387 97.146 221.129 97.816 222.871 97.816C223.675 97.816 224.613 97.682 225.417 97.28C226.221 97.012 299.251 56.41 292.417 31.084ZM231.715 79.056C235.869 66.996 243.373 47.834 250.743 30.012C278.213 28.672 280.223 34.3 280.223 34.3C282.769 42.608 250.609 66.862 231.715 79.056ZM372.617 34.97C372.215 30.95 369.401 28.94 367.123 28.404C360.691 27.064 357.341 31.084 336.705 64.718C334.963 67.666 333.087 70.614 331.345 73.428C331.077 62.976 331.345 48.504 331.479 39.124C331.747 27.734 331.881 18.756 331.479 14.602C331.077 10.314 328.129 8.16999 325.717 7.768C320.491 6.82999 315.667 5.892 275.199 88.704C273.725 91.92 274.931 95.672 278.147 97.146C278.951 97.548 279.889 97.816 280.827 97.816C283.239 97.816 285.383 96.476 286.455 94.198C297.711 71.284 310.575 46.628 319.017 32.022C319.017 34.166 318.883 36.444 318.883 38.856C318.079 87.632 319.285 92.724 325.181 95.136C327.995 96.208 331.077 95.538 333.221 93.126C335.767 90.446 340.055 83.344 347.559 71.284C351.043 65.656 355.733 57.884 359.887 51.452C359.217 63.378 358.011 79.458 357.073 90.982C356.671 94.466 359.217 97.414 362.701 97.816C366.185 98.084 369.267 95.538 369.535 92.054C369.937 87.23 373.689 45.02 372.617 34.97ZM443.961 58.286C441.415 58.152 439.003 58.018 436.591 57.884C436.591 43.144 436.189 32.692 435.251 28.404C434.715 25.858 432.973 18.354 426.273 17.818C417.965 17.148 414.213 26.93 404.833 50.514C403.761 53.194 402.689 56.008 401.483 58.956C386.207 60.296 377.765 62.708 377.095 62.842C373.745 63.78 371.869 67.264 372.807 70.614C373.611 73.428 376.157 75.17 378.837 75.17C379.373 75.17 380.043 75.17 380.579 74.902C380.713 74.902 386.073 73.428 395.989 72.222C391.701 81.87 387.145 91.25 382.187 98.352C380.311 101.166 380.981 105.052 383.929 107.062C386.743 109.072 390.629 108.402 392.639 105.454C399.205 95.94 405.101 83.21 410.193 70.882C414.481 70.614 419.037 70.48 423.995 70.346C423.995 75.438 423.995 80.53 423.995 85.22C423.861 91.652 423.861 97.682 423.861 102.908C423.861 106.392 426.675 109.206 430.159 109.206C433.643 109.206 436.457 106.392 436.457 102.908C436.457 97.682 436.457 91.652 436.591 85.22C436.591 80.128 436.591 75.17 436.591 70.614C438.735 70.614 441.013 70.748 443.291 70.882C446.641 71.016 449.723 68.336 449.857 64.852C449.991 61.368 447.445 58.42 443.961 58.286ZM415.419 58.018C415.821 57.08 416.223 56.008 416.625 55.204C418.903 49.442 421.449 43.01 423.593 38.052C423.861 43.01 423.995 50.112 423.995 57.75C421.047 57.884 418.233 57.884 415.419 58.018ZM518.863 25.858C489.517 11.654 455.347 22.91 454.007 23.446C450.657 24.518 448.915 28.136 449.987 31.352C451.059 34.702 454.677 36.444 458.027 35.372C458.161 35.372 462.047 34.032 467.943 32.96L441.411 100.63C440.205 103.846 441.813 107.464 445.029 108.804C445.833 109.072 446.503 109.206 447.307 109.206C449.853 109.206 452.265 107.732 453.203 105.186L461.109 84.952C482.951 75.974 527.305 55.606 527.841 38.454C527.975 35.372 526.903 29.744 518.863 25.858ZM467.675 68.336L482.013 31.754C482.013 31.62 482.147 31.486 482.147 31.486C491.795 31.084 503.185 32.29 513.503 37.248C514.441 37.784 514.977 38.186 515.111 38.32C513.771 43.948 493.135 56.812 467.675 68.336Z" fill="#E5986E"/>
</svg>
