<svg width="340" height="151" viewBox="0 0 340 151" fill="none" xmlns="http://www.w3.org/2000/svg">
<path d="M21.0591 86.7709C20.8536 86.8031 20.5454 86.8514 20.3399 86.8836C24.2514 80.2705 39.0452 65.8469 49.16 57.8408C48.2527 61.4568 46.7872 66.213 45.0518 70.5903C44.0703 73.06 45.359 75.9109 47.8287 76.8925C50.4012 77.858 53.2681 76.6719 54.2336 74.0995C63.2472 51.002 58.9206 47.5744 57.1057 46.0691C55.6635 44.9266 52.4968 43.5279 47.7458 46.7986C47.2643 47.0846 4.89156 78.9875 10.1854 91.9483C11.7701 96.016 15.8937 97.4754 22.675 96.413C32.1116 94.8293 38.6973 94.5344 42.9198 94.6098C35.0481 98.7905 21.9684 103.998 15.9831 104.093C13.3661 104.187 11.1899 106.423 11.1975 109.159C11.2917 111.776 13.5274 113.952 16.2471 113.842C17.2041 113.903 18.3343 113.725 19.5672 113.532C30.8694 111.762 49.111 103.219 54.3497 99.0299C58.8469 95.4831 57.6027 91.5726 57.0146 90.5068C54.3888 84.4968 42.2955 83.2333 21.0591 86.7709ZM110.471 44.6563C107.86 44.1179 105.279 45.7855 104.741 48.3963C104.638 48.4124 104.654 48.5151 104.686 48.7206C104.308 48.9905 103.961 49.4659 103.717 49.9251C92.2016 71.8355 77.1198 96.5153 70.4241 102.828C68.8158 95.9214 72.6092 75.1156 79.5271 54.7676C80.3899 52.2113 79.0144 49.4792 76.4581 48.6165C73.9017 47.7538 71.1697 49.1292 70.307 51.6855C65.0279 67.0397 54.0514 103.814 65.557 112.749L66.4917 113.339C67.3941 113.724 68.5343 114.282 70.1782 114.025C74.4936 113.349 82.1783 107.302 98.0524 80.2878C96.1427 90.2717 94.4607 99.6936 94.0771 103.964C93.863 106.63 95.8228 109.06 98.488 109.274C98.9151 109.312 99.3261 109.248 99.6343 109.199C101.895 108.845 103.622 107.101 103.797 104.863C104.647 94.8344 114.189 50.9163 114.227 50.4892C114.868 47.8623 113.185 45.1786 110.471 44.6563ZM154.313 42.5248C153.314 41.5234 151.747 40.9268 150.292 41.0494C148.205 41.1658 145.28 41.3083 126.376 65.113C127.324 59.0694 128.347 54.1722 129.145 51.2049C129.889 48.5619 128.308 45.862 125.681 45.2209C123.038 44.477 120.441 46.0418 119.681 48.5821C115.58 64.0674 107.46 127.132 107.143 129.814C106.826 132.495 108.683 134.941 111.364 135.258C111.91 135.383 112.321 135.318 112.732 135.254C114.89 134.916 116.53 133.291 116.809 131.036C116.863 130.712 119.456 110.305 122.459 89.8332C126.995 94.5965 132.71 99.491 137.273 99.7236C137.921 99.8325 138.435 99.752 138.949 99.6715C140.387 99.4461 141.659 98.8259 142.66 97.8269C148.165 92.6484 155.876 55.8596 156.004 47.9444C156.039 46.1494 155.938 44.165 154.313 42.5248ZM136.588 89.304C134.346 87.7604 130.414 84.1657 126.948 80.1822C133.094 72.3768 139.689 64.08 144.773 58.2307C142.754 68.8632 139.087 83.7543 136.588 89.304ZM200.119 35.3484C199.12 34.347 197.553 33.7504 196.099 33.873C194.011 33.9894 191.086 34.1319 172.183 57.9366C173.131 51.8931 174.153 46.9958 174.952 44.0285C175.696 41.3855 174.115 38.6857 171.488 38.0445C168.845 37.3006 166.248 38.8655 165.488 41.4057C161.387 56.891 153.266 119.956 152.949 122.637C152.633 125.319 154.49 127.765 157.171 128.081C157.717 128.206 158.128 128.142 158.539 128.078C160.697 127.74 162.337 126.114 162.615 123.86C162.67 123.536 165.262 103.128 168.266 82.6568C172.802 87.4201 178.516 92.3146 183.079 92.5472C183.728 92.6561 184.242 92.5756 184.755 92.4951C186.194 92.2698 187.465 91.6495 188.467 90.6505C193.971 85.472 201.682 48.6832 201.811 40.768C201.845 38.973 201.745 36.9886 200.119 35.3484ZM182.394 82.1276C180.152 80.584 176.221 76.9893 172.754 73.0058C178.9 65.2005 185.495 56.9037 190.579 51.0543C188.561 61.6869 184.893 76.578 182.394 82.1276ZM235.326 30.4644C230.646 28.1447 224.828 28.6352 219.326 31.8131C214.526 34.7756 210.222 39.5554 207.242 45.3911C204.261 51.2268 202.934 57.5402 203.495 63.1368C204.066 69.4688 207.061 74.4736 211.637 76.8093C214.377 78.1697 217.383 78.5409 220.465 78.058C222.828 77.6878 225.23 76.8905 227.638 75.4606C232.453 72.6008 236.741 67.7183 239.722 61.8826C246.328 48.9523 244.376 35.152 235.326 30.4644ZM231.027 57.4549C228.952 61.6751 225.806 65.1154 222.641 67.085C220.13 68.531 217.767 68.9013 216.168 68.0991C214.568 67.297 213.495 65.1493 213.147 62.2563C212.876 58.5091 213.844 53.9362 215.936 49.8188C218.13 45.6853 221.157 42.1583 224.338 40.2914C225.68 39.4496 226.881 39.0509 228.011 38.8739C229.141 38.6968 230.098 38.7574 230.898 39.1585C234.453 41.0226 235.211 49.2201 231.027 57.4549ZM234.649 80.5729C226.092 79.703 204.049 83.4721 201.599 83.9612C198.928 84.3797 197.108 86.8754 197.527 89.5468C198.048 92.2022 200.663 94.1084 203.215 93.6033C209.569 92.5025 227.55 89.6855 233.648 90.3092C234.075 90.3476 234.502 90.3859 234.913 90.3215C237.071 89.9835 238.798 88.2392 239.06 85.8822C239.274 83.2169 237.315 80.787 234.649 80.5729ZM265.448 62.0628C265.978 62.0851 266.524 62.2101 267.038 62.1296C267.141 62.1135 267.243 62.0974 267.346 62.0813C269.401 61.7594 271.122 60.6476 272.351 59.0866C282.142 45.6572 286.046 18.8338 280.797 13.5506C279.782 12.4464 278.009 11.882 276.554 12.0046C274.775 12.0728 272.191 12.3724 260.271 28.3458L260.992 22.8642C261.308 20.1829 259.451 17.7368 256.873 17.4039C254.175 16.9844 251.627 18.8575 251.31 21.5388L248.048 45.7353C247.733 46.4162 247.64 47.1676 247.753 47.8868L242.714 84.2571C242.397 86.9385 244.254 89.3845 246.935 89.7013C247.378 89.8424 247.892 89.7619 248.303 89.6976C250.461 89.3595 252.101 87.7341 252.396 85.5826L255.133 66.1001L268.631 77.6704C269.716 78.553 271.149 78.9602 272.587 78.7348C273.717 78.5578 274.68 77.9858 275.492 77.1217C277.274 75.0531 276.996 71.9385 274.928 70.1572L265.448 62.0628ZM273.032 27.8204C272.261 34.9942 270.027 44.9236 265.168 52.2114C263.617 51.7176 260.727 50.0651 258.096 48.056C263.176 40.8388 268.824 33.2167 273.032 27.8204ZM322.811 22.3375C316.62 22.4653 310.715 23.0746 305.546 23.6739L306.301 16.3974C306.618 13.7161 304.658 11.2861 301.977 10.9693C299.209 10.7713 296.881 12.715 296.565 15.3963L295.58 25.2353C289.928 26.1207 286.278 27.0084 285.97 27.0567C283.346 27.7835 281.748 30.3497 282.372 32.989C282.996 35.6282 285.665 37.2101 288.305 36.5861C288.305 36.5861 290.636 36.0104 294.421 35.3121L290.855 69.662C290.641 72.3272 292.498 74.7733 295.266 74.9713C295.709 75.1124 296.12 75.048 296.531 74.9836C298.586 74.6616 300.313 72.9173 300.591 70.6631L304.49 33.7345C309.952 32.9842 316.371 32.2944 323.075 32.0861C323.281 32.0539 323.486 32.0218 323.692 31.9896C326.158 31.6032 327.939 29.5346 327.861 27.0204C327.751 24.3007 325.531 22.2272 322.811 22.3375Z" fill="white"/>
</svg>
