<svg width="365" height="162" viewBox="0 0 365 162" fill="none" xmlns="http://www.w3.org/2000/svg">
<path d="M66.2018 58.7935C65.9894 56.4087 64.5885 52.1886 58.1084 50.0082C33.9743 42.0982 8.94122 54.2419 7.84837 54.702C5.49762 55.9591 4.41097 58.8315 5.68171 61.2853C6.84935 63.7529 9.81114 64.7227 12.1756 63.5688C12.265 63.452 15.2343 62.1126 19.9561 60.5401L14.0367 93.3273C13.7412 93.4715 13.3562 93.7326 13.0607 93.8768C10.7236 95.2369 9.85688 98.185 11.217 100.522C11.5055 101.113 11.9864 101.574 12.4537 101.931L10.0171 115.16C9.53532 117.847 11.3489 120.439 14.0222 120.817C14.5651 120.955 14.9912 121.003 15.5067 120.935C17.5685 120.66 19.3489 119.059 19.6932 116.915L22.5495 101.322L45.7913 130.125C46.9249 131.548 48.581 132.167 50.2305 131.947C51.0552 131.837 51.9556 131.508 52.6086 130.896C54.8014 129.241 55.1253 126.155 53.3802 124.079L30.111 95.0705C46.4773 84.8143 67.319 69.5562 66.2018 58.7935ZM25.2064 86.5953L30.3206 58.007C37.8188 56.7995 46.602 56.5752 55.0475 59.3334C55.8103 59.5467 56.2638 59.8011 56.4974 59.9798C56.0152 64.2406 42.6107 75.4666 25.2064 86.5953ZM95.6152 66.0012C90.9907 63.5739 85.1627 63.9296 79.5883 66.9795C74.7217 69.8303 70.3083 74.5092 67.1935 80.2744C64.0786 86.0396 62.6062 92.3206 63.0376 97.9287C63.4619 104.272 66.3401 109.345 70.8616 111.786C73.5689 113.209 76.5652 113.65 79.658 113.238C82.0291 112.923 84.4484 112.181 86.8885 110.808C91.7688 108.06 96.1685 103.278 99.2833 97.5126C106.187 84.7385 104.555 70.8969 95.6152 66.0012ZM90.694 92.8851C88.5211 97.0561 85.297 100.423 82.087 102.319C79.5438 103.706 77.1727 104.022 75.5922 103.183C74.0118 102.344 72.9884 100.172 72.7074 97.2716C72.5229 93.5192 73.5962 88.9699 75.7828 84.902C78.0725 80.8203 81.1798 77.3643 84.4035 75.5715C85.7645 74.7609 86.9742 74.3901 88.1082 74.2392C89.2422 74.0883 90.1975 74.1711 90.9877 74.5905C94.499 76.5364 95.0671 84.7492 90.694 92.8851ZM93.7802 116.081C85.2448 115.013 63.1213 118.271 60.6608 118.704C57.9805 119.06 56.1036 121.513 56.4602 124.194C56.9199 126.86 59.4897 128.827 62.0533 128.381C68.4312 127.427 86.4723 125.027 92.5542 125.791C92.9803 125.839 93.4064 125.888 93.8187 125.833C95.9837 125.545 97.7504 123.841 98.0672 121.491C98.3428 118.831 96.4398 116.356 93.7802 116.081ZM144.738 59.78C142.051 59.2981 139.549 60.995 138.964 63.6957L137.801 69.9356C135.377 63.5435 132.245 57.3505 128.5 55.2259C126.803 54.2976 124.878 54.029 123.064 54.5852C114.981 56.9196 103.61 96.8321 102.583 105.677C102.205 108.35 101.454 114.535 105.872 116.99C106.676 117.512 108.037 118.276 110.305 117.974C114.325 117.439 121.117 113.283 132.392 97.0943L130.073 108.839C129.474 111.436 131.185 114.042 133.872 114.523C134.414 114.661 134.944 114.696 135.459 114.627C137.521 114.353 139.212 112.869 139.659 110.711L148.551 65.5677C149.15 62.97 147.439 60.3649 144.738 59.78ZM112.287 106.064C113.72 96.3263 121.017 74.6868 125.452 66.2279C127.142 69.4653 129.367 75.1495 131.104 81.1085C124.456 91.8552 116.859 101.784 112.287 106.064ZM194.325 23.7008C191.638 23.219 189.136 24.9158 188.537 27.5135L181.332 64.0389C178.921 57.7499 175.789 51.5569 172.044 49.4322C170.347 48.504 168.423 48.2354 166.608 48.7916C158.525 51.126 147.154 91.0384 146.128 99.8831C145.749 102.556 144.998 108.741 149.416 111.196C150.22 111.719 151.581 112.482 153.849 112.18C157.869 111.645 164.661 107.489 175.936 91.3007L173.617 103.045C173.018 105.643 174.729 108.248 177.416 108.73C177.959 108.867 178.488 108.902 179.003 108.833C181.065 108.559 182.756 107.075 183.203 104.917L198.138 29.4885C198.722 26.7878 196.909 24.1963 194.325 23.7008ZM155.831 100.271C157.264 90.5326 164.561 68.8931 168.996 60.4343C170.686 63.6717 172.911 69.3559 174.648 75.3148C168 86.0616 160.403 95.9903 155.831 100.271ZM258.75 39.3646C258.029 36.313 255.658 35.0547 253.851 34.8755C248.766 34.503 246.6 37.9387 234.166 65.927C233.128 68.3733 231.987 70.8334 230.934 73.1766C229.658 65.1629 228.383 54.0016 227.526 46.7715C226.566 37.9812 225.75 31.0604 225.016 27.9057C224.268 24.6479 221.78 23.3002 219.883 23.2379C215.767 23.0512 211.96 22.8233 189.303 90.6763C188.498 93.3013 189.81 96.0645 192.435 96.8693C193.095 97.0962 193.844 97.2064 194.565 97.1104C196.421 96.8635 197.933 95.6131 198.525 93.7508C204.839 74.97 212.212 54.6844 217.212 42.5832C217.431 44.2327 217.561 45.999 217.808 47.8546C222.182 85.4622 223.631 89.2563 228.414 90.5084C230.689 91.0451 232.991 90.2141 234.394 88.139C236.078 85.8166 238.65 79.9138 243.189 69.8674C245.293 65.1809 248.106 58.7216 250.643 53.348C251.349 62.5917 252.067 75.0861 252.525 84.048C252.572 86.7695 254.833 88.7769 257.554 88.7296C260.262 88.5791 262.373 86.3049 262.222 83.5971C262.038 79.8446 260.603 46.9868 258.75 39.3646ZM306.077 38.3135C303.39 37.8317 300.888 39.5285 300.303 42.2293L299.139 48.4692C296.715 42.0771 293.583 35.8841 289.838 33.7594C288.141 32.8312 286.217 32.5626 284.402 33.1188C276.319 35.4532 264.948 75.3656 263.922 84.2103C263.543 86.8836 262.792 93.0686 267.21 95.5233C268.014 96.0459 269.375 96.8091 271.643 96.5073C275.664 95.9724 282.455 91.8164 293.73 75.6279L291.411 87.3724C290.812 89.97 292.523 92.5752 295.21 93.057C295.753 93.1946 296.282 93.2291 296.797 93.1605C298.859 92.8862 300.55 91.4022 300.998 89.2443L309.889 44.1012C310.488 41.5036 308.777 38.8984 306.077 38.3135ZM273.626 84.5978C275.058 74.8599 282.355 53.2203 286.791 44.7615C288.48 47.9989 290.705 53.6831 292.443 59.642C285.794 70.3888 278.197 80.3175 273.626 84.5978ZM351.571 31.3161C350.596 30.2918 349.043 29.6591 347.586 29.7481C345.496 29.8162 342.569 29.891 323.12 53.2522C324.207 47.2322 325.343 42.3599 326.209 39.4118C327.014 36.7867 325.496 34.0511 322.885 33.3493C320.26 32.5445 317.627 34.0489 316.809 36.5709C312.351 51.9572 302.774 114.817 302.395 117.491C302.016 120.164 303.816 122.652 306.49 123.031C307.032 123.169 307.445 123.114 307.857 123.059C310.022 122.771 311.699 121.184 312.03 118.937C312.092 118.614 315.156 98.2718 318.632 77.8752C323.057 82.7421 328.656 87.7675 333.213 88.1055C333.859 88.2294 334.374 88.1608 334.89 88.0922C336.333 87.9002 337.618 87.3095 338.642 86.3339C344.266 81.2842 352.825 44.6835 353.137 36.7733C353.213 34.9796 353.158 32.9935 351.571 31.3161ZM332.769 77.6729C330.563 76.0779 326.716 72.3931 323.342 68.3306C329.667 60.6695 336.453 52.5274 341.67 46.7972C339.406 57.3802 335.396 72.1825 332.769 77.6729Z" fill="white"/>
</svg>
