<svg width="439" height="201" viewBox="0 0 439 201" fill="none" xmlns="http://www.w3.org/2000/svg">
<path d="M129.586 2.968C127.194 1.71999 124.282 2.656 123.034 5.048C116.17 18.152 105.562 37.704 98.6976 48.936C98.9056 40.2 99.9456 27.096 101.298 15.552C101.61 12.848 99.7376 10.456 97.0336 10.144C94.3296 9.832 91.9376 11.704 91.6256 14.408C86.0096 61.728 90.2736 63.808 93.2896 65.264C94.0176 65.576 94.8496 65.784 95.6816 65.784C97.1376 65.784 98.6976 65.264 100.154 63.808C106.706 57.256 127.61 17.528 131.666 9.624C132.914 7.232 131.978 4.216 129.586 2.968ZM158.742 1.824L139.606 3.384C136.902 3.592 134.822 5.984 135.134 8.688C135.342 11.184 137.422 13.16 139.918 13.16C140.126 13.16 140.23 13.16 140.334 13.16L142.83 12.952L128.166 56.736H122.862C120.158 56.736 117.974 58.92 117.974 61.624C117.974 64.328 120.158 66.512 122.862 66.512H143.038C145.742 66.512 147.926 64.224 147.926 61.624C147.926 58.92 145.742 56.736 143.038 56.736H138.462L153.438 12.12L159.574 11.6C162.278 11.392 164.254 9 164.046 6.296C163.838 3.69599 161.446 1.616 158.742 1.824ZM163.269 44.672C163.061 44.672 162.749 44.672 162.541 44.672C167.429 38.744 184.277 26.784 195.509 20.44C194.053 23.872 191.869 28.344 189.477 32.4C188.125 34.688 188.957 37.704 191.245 39.056C193.637 40.408 196.653 39.68 198.005 37.288C210.485 15.864 206.741 11.808 205.181 10.04C203.933 8.688 201.021 6.816 195.821 9.312C195.301 9.52 148.501 34.48 151.725 48.104C152.661 52.368 156.509 54.448 163.373 54.448C172.941 54.344 179.493 55.072 183.653 55.8C175.229 58.712 161.501 61.832 155.573 61C152.973 60.688 150.477 62.56 150.061 65.264C149.749 67.864 151.621 70.36 154.325 70.672C155.261 70.88 156.405 70.88 157.653 70.88C169.093 70.88 188.437 65.264 194.261 61.936C199.253 59.128 198.629 55.072 198.213 53.928C196.549 47.584 184.797 44.464 163.269 44.672ZM259.756 10.976L258.196 8.688H255.492C252.06 8.688 250.188 11.08 242.284 21.584C234.484 31.88 220.652 50.392 211.084 55.176C213.684 46.648 225.956 25.848 237.708 8.688C239.268 6.504 238.644 3.384 236.46 1.928C234.276 0.368 231.156 0.887999 229.7 3.17599C195.276 53.096 200.476 60.584 202.14 63.08C202.972 64.224 205.572 67.032 210.876 65.68C220.34 63.392 230.74 52.264 241.556 38.536C237.5 48.52 232.508 60.064 227.62 71.088C226.58 73.584 227.62 76.392 230.116 77.536C230.74 77.848 231.468 77.952 232.092 77.952C233.964 77.952 235.732 76.808 236.564 75.04C262.876 15.656 261.42 13.472 259.756 10.976ZM309.11 35.416C307.134 35.312 305.262 35.208 303.39 35.104C303.39 23.664 303.078 15.552 302.35 12.224C301.934 10.248 300.582 4.424 295.382 4.008C288.934 3.488 286.022 11.08 278.742 29.384C277.91 31.464 277.078 33.648 276.142 35.936C264.286 36.976 257.734 38.848 257.214 38.952C254.614 39.68 253.158 42.384 253.886 44.984C254.51 47.168 256.486 48.52 258.566 48.52C258.982 48.52 259.502 48.52 259.918 48.312C260.022 48.312 264.182 47.168 271.878 46.232C268.55 53.72 265.014 61 261.166 66.512C259.71 68.696 260.23 71.712 262.518 73.272C264.702 74.832 267.718 74.312 269.278 72.024C274.374 64.64 278.95 54.76 282.902 45.192C286.23 44.984 289.766 44.88 293.614 44.776C293.614 48.728 293.614 52.68 293.614 56.32C293.51 61.312 293.51 65.992 293.51 70.048C293.51 72.752 295.694 74.936 298.398 74.936C301.102 74.936 303.286 72.752 303.286 70.048C303.286 65.992 303.286 61.312 303.39 56.32C303.39 52.368 303.39 48.52 303.39 44.984C305.054 44.984 306.822 45.088 308.59 45.192C311.19 45.296 313.582 43.216 313.686 40.512C313.79 37.808 311.814 35.52 309.11 35.416ZM286.958 35.208C287.27 34.48 287.582 33.648 287.894 33.024C289.662 28.552 291.638 23.56 293.302 19.712C293.51 23.56 293.614 29.072 293.614 35C291.326 35.104 289.142 35.104 286.958 35.208ZM346.372 55.28C345.748 52.68 343.148 51.016 340.548 51.64C333.788 53.096 325.988 54.76 321.1 55.696C323.18 47.48 329.004 30.528 334.516 15.968C335.556 13.472 334.308 10.56 331.708 9.624C329.212 8.688 326.404 9.93599 325.468 12.432C308.204 57.568 310.18 61.312 311.22 63.288C311.948 64.64 313.3 65.576 314.756 65.992C314.964 65.992 315.38 66.096 316.108 66.096C318.292 66.096 324.116 65.368 342.732 61.104C345.332 60.584 346.996 57.88 346.372 55.28Z" fill="white"/>
<path d="M64.3374 97.16C60.9874 96.222 57.5034 98.098 56.4314 101.448L53.0814 112.838C51.0714 111.632 49.1954 111.23 47.9894 111.096C32.3114 109.488 9.93335 137.092 4.57335 158.934C0.285353 176.354 7.65535 183.59 12.3454 186.404C15.8294 188.414 19.7154 189.218 23.8694 189.218C31.5074 189.218 39.6814 186.136 44.3714 181.58C51.0714 175.416 56.0294 166.17 57.7714 162.418C59.3794 159.336 58.0394 155.584 54.9574 153.976C51.7414 152.502 47.9894 153.708 46.5154 156.924C44.1034 161.748 39.9494 168.448 35.7954 172.468C32.1774 175.818 23.0654 177.962 18.7774 175.55C14.8914 173.272 15.5614 166.84 16.7674 161.882C21.9934 140.844 41.6914 122.486 46.5154 123.424C46.5154 123.558 47.5874 124.63 47.7214 129.052C47.7214 129.454 47.7214 129.856 47.8554 130.258L47.0514 133.072C45.9794 136.422 47.8554 139.906 51.2054 140.844C51.8754 141.112 52.4114 141.112 53.0814 141.112C55.7614 141.112 58.1734 139.37 59.1114 136.69L68.4914 105.066C69.5634 101.716 67.6874 98.232 64.3374 97.16ZM116.951 117.394C100.871 107.344 78.4932 114.312 66.9692 132.67C55.4452 151.162 59.1972 174.344 75.2772 184.394C80.2352 187.476 85.8632 188.95 91.6252 188.95C104.221 188.95 117.353 181.714 125.259 169.118C136.783 150.626 133.031 127.444 116.951 117.394ZM114.539 162.418C106.767 175.014 92.0272 179.972 81.8432 173.674C71.6592 167.376 69.7832 151.966 77.6892 139.37C83.1832 130.526 92.1612 125.434 100.469 125.434C103.953 125.434 107.303 126.238 110.251 128.114C120.435 134.412 122.311 149.822 114.539 162.418ZM100.201 133.608C96.8512 132.402 93.2332 134.144 92.1612 137.36L84.7912 157.996C83.5852 161.212 85.3272 164.83 88.6772 166.036C89.3472 166.304 90.0172 166.438 90.6872 166.438C93.3672 166.438 95.7792 164.83 96.7172 162.15L103.953 141.648C105.159 138.298 103.417 134.68 100.201 133.608ZM90.6872 106.942H115.745C119.229 106.942 122.043 104.128 122.043 100.644C122.043 97.16 119.229 94.346 115.745 94.346H90.6872C87.2032 94.346 84.3892 97.16 84.3892 100.644C84.3892 104.128 87.2032 106.942 90.6872 106.942ZM174.143 174.88C173.339 171.53 169.989 169.386 166.639 170.19C157.929 172.066 147.879 174.21 141.581 175.416C144.261 164.83 151.765 142.988 158.867 124.228C160.207 121.012 158.599 117.26 155.249 116.054C152.033 114.848 148.415 116.456 147.209 119.672C124.965 177.828 127.511 182.652 128.851 185.198C129.789 186.94 131.531 188.146 133.407 188.682C133.675 188.682 134.211 188.816 135.149 188.816C137.963 188.816 145.467 187.878 169.453 182.384C172.803 181.714 174.947 178.23 174.143 174.88ZM218.572 174.88C217.768 171.53 214.418 169.386 211.068 170.19C202.358 172.066 192.308 174.21 186.01 175.416C188.69 164.83 196.194 142.988 203.296 124.228C204.636 121.012 203.028 117.26 199.678 116.054C196.462 114.848 192.844 116.456 191.638 119.672C169.394 177.828 171.94 182.652 173.28 185.198C174.218 186.94 175.96 188.146 177.836 188.682C178.104 188.682 178.64 188.816 179.578 188.816C182.392 188.816 189.896 187.878 213.882 182.384C217.232 181.714 219.376 178.23 218.572 174.88ZM277.086 149.286C274.54 149.152 272.128 149.018 269.716 148.884C269.716 134.144 269.314 123.692 268.376 119.404C267.84 116.858 266.098 109.354 259.398 108.818C251.09 108.148 247.338 117.93 237.958 141.514C236.886 144.194 235.814 147.008 234.608 149.956C219.332 151.296 210.89 153.708 210.22 153.842C206.87 154.78 204.994 158.264 205.932 161.614C206.736 164.428 209.282 166.17 211.962 166.17C212.498 166.17 213.168 166.17 213.704 165.902C213.838 165.902 219.198 164.428 229.114 163.222C224.826 172.87 220.27 182.25 215.312 189.352C213.436 192.166 214.106 196.052 217.054 198.062C219.868 200.072 223.754 199.402 225.764 196.454C232.33 186.94 238.226 174.21 243.318 161.882C247.606 161.614 252.162 161.48 257.12 161.346C257.12 166.438 257.12 171.53 257.12 176.22C256.986 182.652 256.986 188.682 256.986 193.908C256.986 197.392 259.8 200.206 263.284 200.206C266.768 200.206 269.582 197.392 269.582 193.908C269.582 188.682 269.582 182.652 269.716 176.22C269.716 171.128 269.716 166.17 269.716 161.614C271.86 161.614 274.138 161.748 276.416 161.882C279.766 162.016 282.848 159.336 282.982 155.852C283.116 152.368 280.57 149.42 277.086 149.286ZM248.544 149.018C248.946 148.08 249.348 147.008 249.75 146.204C252.028 140.442 254.574 134.01 256.718 129.052C256.986 134.01 257.12 141.112 257.12 148.75C254.172 148.884 251.358 148.884 248.544 149.018ZM371.602 111.766C371.602 109.488 370.53 107.478 368.789 106.138C367.18 104.664 363.161 101.448 326.712 107.344L328.588 101.314C329.526 97.964 327.65 94.48 324.3 93.542C321.084 92.47 317.466 94.346 316.528 97.696L312.91 109.756C304.87 111.23 295.624 112.972 284.904 115.25C281.554 115.92 279.41 119.27 280.08 122.62C280.75 126.104 284.1 128.248 287.584 127.578C294.418 126.104 301.654 124.63 308.756 123.424L292.81 176.354C287.986 176.354 283.698 176.354 280.214 176.086C276.73 175.818 273.782 178.498 273.514 181.982C273.38 185.466 275.926 188.414 279.41 188.682C280.75 188.682 284.502 188.816 289.728 188.816C307.014 188.816 339.844 187.61 347.482 180.508C349.358 178.9 350.296 176.756 350.296 174.478C350.296 167.108 333.814 158.13 320.414 152.502C325.372 149.554 331.804 145.4 340.38 139.638C371.602 118.6 371.602 114.848 371.602 111.766ZM333.278 173.004C326.846 174.344 316.528 175.416 306.21 175.952L310.364 161.882C317.198 164.562 327.114 169.386 333.278 173.004ZM316.93 139.906L322.692 120.878C333.546 119.002 343.463 117.662 350.698 116.858C341.587 123.692 327.65 133.34 316.93 139.906ZM377.6 161.212C377.332 161.212 376.93 161.212 376.662 161.212C382.96 153.574 404.668 138.164 419.14 129.99C417.264 134.412 414.45 140.174 411.368 145.4C409.626 148.348 410.698 152.234 413.646 153.976C416.728 155.718 420.614 154.78 422.356 151.698C438.436 124.094 433.612 118.868 431.602 116.59C429.994 114.848 426.242 112.436 419.542 115.652C418.872 115.92 358.572 148.08 362.726 165.634C363.932 171.128 368.89 173.808 377.734 173.808C390.062 173.674 398.504 174.612 403.864 175.55C393.01 179.302 375.322 183.322 367.684 182.25C364.334 181.848 361.118 184.26 360.582 187.744C360.18 191.094 362.592 194.31 366.076 194.712C367.282 194.98 368.756 194.98 370.364 194.98C385.104 194.98 410.028 187.744 417.532 183.456C423.964 179.838 423.16 174.612 422.624 173.138C420.48 164.964 405.338 160.944 377.6 161.212Z" fill="#E5986E"/>
</svg>
