<svg width="491" height="489" viewBox="0 0 491 489" fill="none" xmlns="http://www.w3.org/2000/svg">
<g style="mix-blend-mode:multiply">
<path d="M116.181 58.7086C59.4726 109.412 1.52168 196.476 0.257093 272.536C-0.307025 306.465 8.10922 342.174 23.9999 367.429V367.429C44.4477 399.927 126.947 445.081 157.461 468.387C160.779 470.92 164.141 473.359 167.545 475.699C178.167 483.001 191.685 484.834 204.043 481.169C213.266 478.435 221.059 475.658 227.624 472.865C274.942 452.735 267.773 453.471 312.066 479.591C343.981 498.413 378.121 485.632 396.444 469.468C425.34 443.977 412.944 350.391 426.079 309C439.214 267.609 496.545 220.02 490.5 173.5V173.5C482.06 108.544 442.625 47.9471 385.108 16.6052C364.91 5.59914 335.99 0.000223556 295.694 0.000366214V0.000366214C249.825 0.000371917 196.319 18.1618 153.907 35.6311C141.408 40.7794 128.427 47.759 116.181 58.7086Z" fill="#F09135"/>
</g>
</svg>
