<svg width="399" height="444" viewBox="0 0 399 444" fill="none" xmlns="http://www.w3.org/2000/svg">
<g style="mix-blend-mode:multiply">
<path d="M99.5261 183.435C27.0042 191.379 -25.6985 261.233 13.1541 322.983C14.0737 324.444 15.0043 325.897 15.9459 327.341C40.9528 365.692 72.8742 396.543 108.595 416.885C144.315 437.226 182.615 446.362 219.755 443.402C256.895 440.442 291.608 425.486 320.504 399.994C349.401 374.502 371.495 339.346 384.629 297.955C397.764 256.564 401.491 210.354 395.446 163.834C389.401 117.313 373.791 72.0724 350.14 32.5263C315.791 -24.9057 239.69 -0.87502 218.061 62.4531L205.823 98.2846C189.908 144.884 148.476 178.074 99.5261 183.435Z" fill="#F09135"/>
</g>
</svg>
