<svg width="616" height="362" viewBox="0 0 616 362" fill="none" xmlns="http://www.w3.org/2000/svg">
<path d="M63.8196 41.705C63.8196 44.68 62.2046 45.87 58.8046 45.87H50.2196V37.37H58.8046C62.2046 37.37 63.8196 38.815 63.8196 41.705ZM62.5446 20.115C62.5446 23.005 60.9296 24.28 57.5296 24.28H50.2196V15.78H57.5296C60.9296 15.78 62.5446 17.14 62.5446 20.115ZM83.1146 44.51C83.1146 37.795 79.0346 31.93 71.6396 30.145C77.5896 28.615 81.7546 23.685 81.7546 16.46C81.7546 6.005 74.0196 0.82 62.0346 0.82H31.3496V61H62.8846C75.9746 61 83.1146 55.05 83.1146 44.51ZM121.245 21.73C121.245 25.3 119.375 26.83 115.805 26.83H108.325V16.63H115.805C119.375 16.63 121.245 18.67 121.245 21.73ZM89.4551 0.82V61H108.325V39.41H108.41L119.715 61H140.455L127.365 37.965C135.95 35.16 140.37 28.445 140.37 20.54C140.37 9.49 132.635 0.82 117.505 0.82H89.4551ZM163.738 42.725V61H182.608V42.725L204.198 0.82H182.948L173.343 22.155L163.738 0.82H142.148L163.738 42.725ZM250.053 61H269.943L248.013 0.82H226.253L204.238 61H224.043L227.018 51.905H247.078L250.053 61ZM242.488 37.71H231.608L237.048 20.965L242.488 37.71ZM313.075 0.82V31.59L293.1 0.82H274.23V61H293.1V30.74L313.075 61H331.945V0.82H313.075ZM387.384 41.705C387.384 44.68 385.769 45.87 382.369 45.87H373.784V37.37H382.369C385.769 37.37 387.384 38.815 387.384 41.705ZM386.109 20.115C386.109 23.005 384.494 24.28 381.094 24.28H373.784V15.78H381.094C384.494 15.78 386.109 17.14 386.109 20.115ZM406.679 44.51C406.679 37.795 402.599 31.93 395.204 30.145C401.154 28.615 405.319 23.685 405.319 16.46C405.319 6.005 397.584 0.82 385.599 0.82H354.914V61H386.449C399.539 61 406.679 55.05 406.679 44.51ZM454.585 61H474.475L452.545 0.82H430.785L408.77 61H428.575L431.55 51.905H451.61L454.585 61ZM447.02 37.71H436.14L441.58 20.965L447.02 37.71ZM478.762 0.82V61H515.822V46.72H497.632V0.82H478.762ZM521.76 0.82V61H558.82V46.72H540.63V0.82H521.76ZM564.758 61H583.628V0.82H564.758V61ZM212.898 141H221.778V130.32H229.778V123.64H221.778V119.72H232.898V112.68H212.898V141ZM264.226 126.72C264.226 118.2 257.786 112.2 249.706 112.2C241.666 112.2 235.106 118.2 235.106 126.72C235.106 135.24 241.666 141.28 249.706 141.28C257.706 141.28 264.226 135.24 264.226 126.72ZM244.146 126.72C244.146 122.88 246.066 120.4 249.706 120.4C253.266 120.4 255.226 122.88 255.226 126.72C255.226 130.48 253.266 133 249.706 133C246.066 133 244.146 130.48 244.146 126.72ZM267.27 128.64C267.27 137 272.47 141.28 279.55 141.28C286.63 141.28 292.35 137 292.35 128.64V112.68H283.51V128.64C283.51 131.08 282.43 132.88 279.75 132.88C277.07 132.88 276.11 131.08 276.11 128.64V112.68H267.27V128.64ZM314.46 112.68V127.16L305.06 112.68H296.18V141H305.06V126.76L314.46 141H323.34V112.68H314.46ZM339.152 112.68H327.352V141H339.152C348.192 141 353.872 134.84 353.872 126.76C353.872 118.6 348.192 112.68 339.152 112.68ZM336.232 133.08V120.44H338.352C342.272 120.44 344.872 122.64 344.872 126.76C344.872 130.88 342.272 133.08 338.352 133.08H336.232ZM375.958 112.68H357.078V141H375.958V133.92H365.958V129.92H374.758V123.24H365.958V119.76H375.958V112.68ZM394.265 122.52C394.265 124.2 393.385 124.92 391.705 124.92H388.185V120.12H391.705C393.385 120.12 394.265 121.08 394.265 122.52ZM379.305 112.68V141H388.185V130.84H388.225L393.545 141H403.305L397.145 130.16C401.185 128.84 403.265 125.68 403.265 121.96C403.265 116.76 399.625 112.68 392.505 112.68H379.305ZM173.474 187.03L176.504 187L181.544 170.17L186.404 187H189.464L195.524 166.09H192.584L187.994 183.76L183.194 166.09H180.134L175.094 183.82L170.534 166.09H167.624L173.474 187.03ZM209.761 166.06H198.511V187H209.761V184.75H201.241V177.55H208.861V175.3H201.241V168.31H209.761V166.06ZM225.772 181.12C225.772 183.4 224.152 184.75 221.452 184.75H216.622V177.37H221.362C224.032 177.37 225.772 178.81 225.772 181.12ZM225.232 171.73C225.232 173.86 223.762 175.12 221.212 175.12H216.622V168.34H221.152C223.822 168.34 225.232 169.66 225.232 171.73ZM228.502 181.39C228.502 178.81 226.642 176.62 224.362 176.23C226.372 175.57 228.022 174.04 228.022 171.4C228.022 168.49 225.802 166.09 221.392 166.09H213.892V187H221.692C226.012 187 228.502 184.54 228.502 181.39ZM231.78 170.77H234.45C234.72 168.67 236.25 167.23 238.8 167.23C241.41 167.23 242.79 168.67 242.79 170.74C242.79 173.26 240.84 174.37 237.21 174.4H236.49V176.68H237.18C241.08 176.68 243.21 177.85 243.21 180.91C243.21 183.13 241.83 184.84 238.92 184.84C236.04 184.84 234.36 183.07 234.09 180.76H231.45C231.78 184.96 234.84 187.15 238.95 187.15C243.48 187.15 245.82 184.51 245.82 181.15C245.82 178.03 244.11 176.17 241.59 175.57V175.42C243.87 174.91 245.43 172.96 245.43 170.47C245.43 167.35 243.12 164.89 238.89 164.89C234.87 164.89 232.05 167.05 231.78 170.77ZM256.935 176.53C256.935 182.8 261.525 187.18 267.375 187.18C271.905 187.18 275.505 184.93 277.065 180.91H273.795C272.655 183.4 270.435 184.81 267.375 184.81C262.995 184.81 259.725 181.63 259.725 176.53C259.725 171.4 262.995 168.22 267.375 168.22C270.435 168.22 272.655 169.63 273.795 172.15H277.065C275.505 168.1 271.905 165.82 267.375 165.82C261.525 165.82 256.935 170.26 256.935 176.53ZM301.108 176.53C301.108 170.26 296.518 165.85 290.608 165.85C284.728 165.85 280.108 170.26 280.108 176.53C280.108 182.8 284.728 187.21 290.608 187.21C296.518 187.21 301.108 182.8 301.108 176.53ZM282.898 176.53C282.898 171.4 286.198 168.22 290.608 168.22C295.018 168.22 298.318 171.4 298.318 176.53C298.318 181.63 295.018 184.84 290.608 184.84C286.198 184.84 282.898 181.63 282.898 176.53ZM318.422 166.06V182.68L307.442 166.06H304.712V187H307.442V170.35L318.422 187H321.152V166.06H318.422ZM339.396 181.3C339.396 173.56 328.116 176.92 328.116 171.52C328.116 169.27 329.886 168.1 332.136 168.16C334.686 168.19 336.006 169.78 336.186 171.19H339.186C338.856 168.01 336.246 165.82 332.256 165.82C328.116 165.82 325.326 168.16 325.326 171.61C325.326 179.38 336.636 175.78 336.636 181.42C336.636 183.4 335.076 184.9 332.436 184.9C329.526 184.9 328.296 183.16 328.116 181.42H325.206C325.266 184.87 328.236 187.21 332.436 187.21C336.966 187.21 339.396 184.27 339.396 181.3ZM343.354 179.29C343.354 184.72 346.894 187.21 351.214 187.21C355.534 187.21 359.104 184.72 359.104 179.29V166.09H356.374V179.32C356.374 183.16 354.334 184.81 351.244 184.81C348.154 184.81 346.084 183.16 346.084 179.32V166.09H343.354V179.29ZM363.658 166.09V187H373.708V184.78H366.388V166.09H363.658ZM375.317 168.31H381.047V187H383.777V168.31H389.477V166.09H375.317V168.31ZM406.877 187H409.757L402.227 166.21H399.077L391.517 187H394.397L396.077 182.35H405.197L406.877 187ZM404.417 180.13H396.857L400.637 169.57L404.417 180.13ZM426.762 166.06V182.68L415.782 166.06H413.052V187H415.782V170.35L426.762 187H429.492V166.06H426.762ZM432.856 168.31H438.586V187H441.316V168.31H447.016V166.09H432.856V168.31ZM156.754 222.53C156.754 228.8 161.344 233.18 167.194 233.18C171.724 233.18 175.324 230.93 176.884 226.91H173.614C172.474 229.4 170.254 230.81 167.194 230.81C162.814 230.81 159.544 227.63 159.544 222.53C159.544 217.4 162.814 214.22 167.194 214.22C170.254 214.22 172.474 215.63 173.614 218.15H176.884C175.324 214.1 171.724 211.82 167.194 211.82C161.344 211.82 156.754 216.26 156.754 222.53ZM192.138 218.24C192.138 220.58 190.788 222.26 187.698 222.26H183.678V214.34H187.698C190.818 214.34 192.138 215.87 192.138 218.24ZM180.948 212.09V233H183.678V224.45H186.978L191.958 233H195.228L189.978 224.24C193.488 223.46 194.958 220.91 194.958 218.24C194.958 214.82 192.618 212.09 187.698 212.09H180.948ZM210.45 212.06H199.2V233H210.45V230.75H201.93V223.55H209.55V221.3H201.93V214.31H210.45V212.06ZM228.621 233H231.501L223.971 212.21H220.821L213.261 233H216.141L217.821 228.35H226.941L228.621 233ZM226.161 226.13H218.601L222.381 215.57L226.161 226.13ZM233.505 214.31H239.235V233H241.965V214.31H247.665V212.09H233.505V214.31ZM251.026 233H253.756V212.09H251.026V233ZM266.239 230.12L259.669 212.09H256.759L264.649 233H267.799L275.689 212.09H272.809L266.239 230.12ZM289.932 212.06H278.682V233H289.932V230.75H281.412V223.55H289.032V221.3H281.412V214.31H289.932V212.06ZM308.571 212.09H302.061V233H308.571C315.441 233 319.671 229.07 319.671 222.59C319.671 216.11 315.441 212.09 308.571 212.09ZM304.791 230.75V214.31H308.571C314.031 214.31 316.881 217.49 316.881 222.59C316.881 227.69 314.031 230.75 308.571 230.75H304.791ZM334.522 212.06H323.272V233H334.522V230.75H326.002V223.55H333.622V221.3H326.002V214.31H334.522V212.06ZM346.483 230.12L339.913 212.09H337.003L344.893 233H348.043L355.933 212.09H353.053L346.483 230.12ZM370.176 212.06H358.926V233H370.176V230.75H361.656V223.55H369.276V221.3H361.656V214.31H370.176V212.06ZM374.307 212.09V233H384.357V230.78H377.037V212.09H374.307ZM407.236 222.53C407.236 216.26 402.646 211.85 396.736 211.85C390.856 211.85 386.236 216.26 386.236 222.53C386.236 228.8 390.856 233.21 396.736 233.21C402.646 233.21 407.236 228.8 407.236 222.53ZM389.026 222.53C389.026 217.4 392.326 214.22 396.736 214.22C401.146 214.22 404.446 217.4 404.446 222.53C404.446 227.63 401.146 230.84 396.736 230.84C392.326 230.84 389.026 227.63 389.026 222.53ZM413.57 222.02V214.34H417.59C420.71 214.34 422.03 215.78 422.03 218.21C422.03 220.55 420.71 222.02 417.59 222.02H413.57ZM424.82 218.21C424.82 214.79 422.51 212.09 417.59 212.09H410.84V233H413.57V224.27H417.59C422.78 224.27 424.82 221.39 424.82 218.21ZM439.463 212.06H428.213V233H439.463V230.75H430.943V223.55H438.563V221.3H430.943V214.31H439.463V212.06ZM454.784 218.24C454.784 220.58 453.434 222.26 450.344 222.26H446.324V214.34H450.344C453.464 214.34 454.784 215.87 454.784 218.24ZM443.594 212.09V233H446.324V224.45H449.624L454.604 233H457.874L452.624 224.24C456.134 223.46 457.604 220.91 457.604 218.24C457.604 214.82 455.264 212.09 450.344 212.09H443.594ZM16.2058 307.92C16.2058 309.32 15.4458 309.88 13.8458 309.88H9.80578V305.88H13.8458C15.4458 305.88 16.2058 306.56 16.2058 307.92ZM15.6058 297.76C15.6058 299.12 14.8458 299.72 13.2458 299.72H9.80578V295.72H13.2458C14.8458 295.72 15.6058 296.36 15.6058 297.76ZM25.2858 309.24C25.2858 306.08 23.3658 303.32 19.8858 302.48C22.6858 301.76 24.6458 299.44 24.6458 296.04C24.6458 291.12 21.0058 288.68 15.3658 288.68H0.925781V317H15.7658C21.9258 317 25.2858 314.2 25.2858 309.24ZM43.2295 298.52C43.2295 300.2 42.3495 300.92 40.6695 300.92H37.1495V296.12H40.6695C42.3495 296.12 43.2295 297.08 43.2295 298.52ZM28.2695 288.68V317H37.1495V306.84H37.1895L42.5095 317H52.2695L46.1095 306.16C50.1495 304.84 52.2295 301.68 52.2295 297.96C52.2295 292.76 48.5895 288.68 41.4695 288.68H28.2695ZM63.2264 308.4V317H72.1064V308.4L82.2664 288.68H72.2664L67.7464 298.72L63.2264 288.68H53.0664L63.2264 308.4ZM103.845 317H113.205L102.885 288.68H92.6452L82.2852 317H91.6052L93.0052 312.72H102.445L103.845 317ZM100.285 306.04H95.1652L97.7252 298.16L100.285 306.04ZM133.503 288.68V303.16L124.103 288.68H115.223V317H124.103V302.76L133.503 317H142.383V288.68H133.503ZM161.675 307.92C161.675 309.32 160.915 309.88 159.315 309.88H155.275V305.88H159.315C160.915 305.88 161.675 306.56 161.675 307.92ZM161.075 297.76C161.075 299.12 160.315 299.72 158.715 299.72H155.275V295.72H158.715C160.315 295.72 161.075 296.36 161.075 297.76ZM170.755 309.24C170.755 306.08 168.835 303.32 165.355 302.48C168.155 301.76 170.115 299.44 170.115 296.04C170.115 291.12 166.475 288.68 160.835 288.68H146.395V317H161.235C167.395 317 170.755 314.2 170.755 309.24ZM193.298 317H202.658L192.338 288.68H182.098L171.738 317H181.058L182.458 312.72H191.898L193.298 317ZM189.738 306.04H184.618L187.178 298.16L189.738 306.04ZM204.676 288.68V317H222.116V310.28H213.556V288.68H204.676ZM224.91 288.68V317H242.35V310.28H233.79V288.68H224.91ZM245.145 317H254.025V288.68H245.145V317ZM287.155 317.16C294.355 317.16 298.155 311.48 298.155 304.4C298.155 295.6 291.675 289.52 281.835 289.52C268.995 289.52 259.075 298.64 259.075 311.56C259.075 320.8 265.355 326.8 274.955 326.8C278.395 326.8 281.595 326.16 284.315 324.96L282.795 319.4C280.835 320.24 278.275 320.84 275.355 320.84C269.155 320.84 265.475 316.92 265.475 310.92C265.475 302.4 272.235 295.36 281.075 295.36C287.555 295.36 291.635 299.12 291.635 304.64C291.635 308.28 290.675 311.48 288.395 311.48C287.195 311.48 286.955 310.48 287.235 308.96L288.795 300.12H281.915L281.515 302.44C280.995 300.92 279.515 299.92 277.275 299.92C272.115 299.92 268.555 305.2 268.555 310.88C268.555 314.96 270.915 317.28 274.755 317.28C277.555 317.28 279.835 316.16 281.195 314.08C282.115 316.04 284.195 317.16 287.155 317.16ZM280.315 308.04C280.315 309.88 278.955 311.12 277.675 311.12C276.635 311.12 275.955 310.4 275.955 309.2C275.955 307.32 277.235 306.04 278.595 306.04C279.595 306.04 280.315 306.8 280.315 308.04ZM322.071 288.68H303.191V317H322.071V309.92H312.071V305.92H320.871V299.24H312.071V295.76H322.071V288.68ZM337.218 288.68H325.418V317H337.218C346.258 317 351.938 310.84 351.938 302.76C351.938 294.6 346.258 288.68 337.218 288.68ZM334.298 309.08V296.44H336.418C340.338 296.44 342.938 298.64 342.938 302.76C342.938 306.88 340.338 309.08 336.418 309.08H334.298ZM355.145 317H364.025V288.68H355.145V317ZM366.435 295.72H373.875V317H382.755V295.72H390.275V288.68H366.435V295.72ZM391.084 295.72H398.524V317H407.404V295.72H414.924V288.68H391.084V295.72ZM432.292 298.52C432.292 300.2 431.412 300.92 429.732 300.92H426.212V296.12H429.732C431.412 296.12 432.292 297.08 432.292 298.52ZM417.332 288.68V317H426.212V306.84H426.252L431.572 317H441.332L435.172 306.16C439.212 304.84 441.292 301.68 441.292 297.96C441.292 292.76 437.652 288.68 430.532 288.68H417.332ZM463.689 317H473.049L462.729 288.68H452.489L442.129 317H451.449L452.849 312.72H462.289L463.689 317ZM460.129 306.04H455.009L457.569 298.16L460.129 306.04ZM493.106 317H503.626L493.706 303L502.866 288.68H492.746L488.586 295.76L483.586 288.68H473.066L482.786 302.4L473.466 317H483.586L487.906 309.64L493.106 317ZM515.093 312.96C515.093 310.48 513.133 308.52 510.013 308.52C506.853 308.52 504.893 310.48 504.893 312.96C504.893 315.4 506.853 317.32 510.013 317.32C513.133 317.32 515.093 315.4 515.093 312.96ZM517.587 302.8C517.587 311.24 522.907 317.2 531.587 317.2C539.067 317.2 544.147 312.72 545.307 306.04H535.947C535.107 307.92 533.427 309 531.427 309C528.427 309 526.587 306.56 526.587 302.8C526.587 299.04 528.427 296.6 531.427 296.6C533.427 296.6 535.107 297.68 535.947 299.56H545.307C544.147 292.88 539.067 288.4 531.587 288.4C522.907 288.4 517.587 294.36 517.587 302.8ZM576.824 302.72C576.824 294.2 570.384 288.2 562.304 288.2C554.264 288.2 547.704 294.2 547.704 302.72C547.704 311.24 554.264 317.28 562.304 317.28C570.304 317.28 576.824 311.24 576.824 302.72ZM556.744 302.72C556.744 298.88 558.664 296.4 562.304 296.4C565.864 296.4 567.824 298.88 567.824 302.72C567.824 306.48 565.864 309 562.304 309C558.664 309 556.744 306.48 556.744 302.72ZM580.027 317H588.907V302.88L593.267 317H600.867L605.227 302.88V317H614.067V288.68H603.227L597.147 305.68L590.907 288.68H580.027V317ZM24.8644 332.68H5.98438V361H24.8644V353.92H14.8644V349.92H23.6644V343.24H14.8644V339.76H24.8644V332.68ZM40.0109 332.68H28.2109V361H40.0109C49.0509 361 54.7309 354.84 54.7309 346.76C54.7309 338.6 49.0509 332.68 40.0109 332.68ZM37.0909 353.08V340.44H39.2109C43.1309 340.44 45.7309 342.64 45.7309 346.76C45.7309 350.88 43.1309 353.08 39.2109 353.08H37.0909ZM57.9375 361H66.8175V332.68H57.9375V361ZM69.2281 339.72H76.6681V361H85.5481V339.72H93.0681V332.68H69.2281V339.72ZM93.8766 339.72H101.317V361H110.197V339.72H117.717V332.68H93.8766V339.72ZM135.085 342.52C135.085 344.2 134.205 344.92 132.525 344.92H129.005V340.12H132.525C134.205 340.12 135.085 341.08 135.085 342.52ZM120.125 332.68V361H129.005V350.84H129.045L134.365 361H144.125L137.965 350.16C142.005 348.84 144.085 345.68 144.085 341.96C144.085 336.76 140.445 332.68 133.325 332.68H120.125ZM166.482 361H175.842L165.522 332.68H155.282L144.922 361H154.242L155.642 356.72H165.082L166.482 361ZM162.922 350.04H157.802L160.362 342.16L162.922 350.04ZM195.899 361H206.419L196.499 347L205.659 332.68H195.539L191.379 339.76L186.379 332.68H175.859L185.579 346.4L176.259 361H186.379L190.699 353.64L195.899 361ZM217.886 356.96C217.886 354.48 215.926 352.52 212.806 352.52C209.646 352.52 207.686 354.48 207.686 356.96C207.686 359.4 209.646 361.32 212.806 361.32C215.926 361.32 217.886 359.4 217.886 356.96ZM220.38 346.8C220.38 355.24 225.7 361.2 234.38 361.2C241.86 361.2 246.94 356.72 248.1 350.04H238.74C237.9 351.92 236.22 353 234.22 353C231.22 353 229.38 350.56 229.38 346.8C229.38 343.04 231.22 340.6 234.22 340.6C236.22 340.6 237.9 341.68 238.74 343.56H248.1C246.94 336.88 241.86 332.4 234.38 332.4C225.7 332.4 220.38 338.36 220.38 346.8ZM279.617 346.72C279.617 338.2 273.177 332.2 265.097 332.2C257.057 332.2 250.497 338.2 250.497 346.72C250.497 355.24 257.057 361.28 265.097 361.28C273.097 361.28 279.617 355.24 279.617 346.72ZM259.537 346.72C259.537 342.88 261.457 340.4 265.097 340.4C268.657 340.4 270.617 342.88 270.617 346.72C270.617 350.48 268.657 353 265.097 353C261.457 353 259.537 350.48 259.537 346.72ZM282.82 361H291.7V346.88L296.06 361H303.66L308.02 346.88V361H316.86V332.68H306.02L299.94 349.68L293.7 332.68H282.82V361ZM336.384 354.36C340.184 354.36 343.104 351.44 343.104 347.68C343.104 343.88 340.184 340.92 336.384 340.92C332.624 340.92 329.664 343.88 329.664 347.68C329.664 351.44 332.624 354.36 336.384 354.36ZM371.186 351.92C371.186 353.32 370.426 353.88 368.826 353.88H364.786V349.88H368.826C370.426 349.88 371.186 350.56 371.186 351.92ZM370.586 341.76C370.586 343.12 369.826 343.72 368.226 343.72H364.786V339.72H368.226C369.826 339.72 370.586 340.36 370.586 341.76ZM380.266 353.24C380.266 350.08 378.346 347.32 374.866 346.48C377.666 345.76 379.626 343.44 379.626 340.04C379.626 335.12 375.986 332.68 370.346 332.68H355.906V361H370.746C376.906 361 380.266 358.2 380.266 353.24ZM398.21 342.52C398.21 344.2 397.33 344.92 395.65 344.92H392.13V340.12H395.65C397.33 340.12 398.21 341.08 398.21 342.52ZM383.25 332.68V361H392.13V350.84H392.17L397.49 361H407.25L401.09 350.16C405.13 348.84 407.21 345.68 407.21 341.96C407.21 336.76 403.57 332.68 396.45 332.68H383.25ZM418.207 352.4V361H427.087V352.4L437.247 332.68H427.247L422.727 342.72L418.207 332.68H408.047L418.207 352.4ZM458.826 361H468.186L457.866 332.68H447.626L437.266 361H446.586L447.986 356.72H457.426L458.826 361ZM455.266 350.04H450.146L452.706 342.16L455.266 350.04ZM488.483 332.68V347.16L479.083 332.68H470.203V361H479.083V346.76L488.483 361H497.363V332.68H488.483ZM523.452 351.92C523.452 353.32 522.692 353.88 521.092 353.88H517.052V349.88H521.092C522.692 349.88 523.452 350.56 523.452 351.92ZM522.852 341.76C522.852 343.12 522.092 343.72 520.492 343.72H517.052V339.72H520.492C522.092 339.72 522.852 340.36 522.852 341.76ZM532.532 353.24C532.532 350.08 530.612 347.32 527.132 346.48C529.932 345.76 531.892 343.44 531.892 340.04C531.892 335.12 528.252 332.68 522.612 332.68H508.172V361H523.012C529.172 361 532.532 358.2 532.532 353.24ZM555.076 361H564.436L554.116 332.68H543.876L533.516 361H542.836L544.236 356.72H553.676L555.076 361ZM551.516 350.04H546.396L548.956 342.16L551.516 350.04ZM566.453 332.68V361H583.893V354.28H575.333V332.68H566.453ZM586.688 332.68V361H604.128V354.28H595.568V332.68H586.688ZM606.922 361H615.802V332.68H606.922V361Z" fill="white"/>
</svg>
