<svg width="1021" height="462" viewBox="0 0 1021 462" fill="none" xmlns="http://www.w3.org/2000/svg">
<g opacity="0.2">
<path d="M343.896 169.907C347.968 171.599 351.995 169.952 353.663 165.938C355.009 162.699 354.22 159.506 351.595 157.506L350.08 161.152C351.01 162.198 351.165 163.467 350.641 164.728C349.795 166.764 347.702 167.532 345.298 166.533C342.893 165.534 341.96 163.509 342.806 161.473C343.33 160.212 344.339 159.426 345.736 159.347L347.251 155.701C343.981 155.252 341.143 156.939 339.797 160.177C338.129 164.192 339.823 168.215 343.896 169.907Z" fill="white"/>
<path d="M355.671 139.896C356.678 140.462 356.973 141.351 356.314 142.523L355.223 144.463L352.038 142.672L353.129 140.731C353.788 139.56 354.719 139.361 355.671 139.896ZM347.679 144.34L360.528 151.566L362.288 148.436L357.438 145.708L357.86 144.958L364.213 145.013L366.2 141.481L359.444 141.584C359.97 139.278 358.945 137.545 357.334 136.639C355.101 135.383 352.404 135.938 350.633 139.087L347.679 144.34Z" fill="white"/>
<path d="M364.382 118.409L359.056 125.701L370.96 134.396L376.286 127.104L373.963 125.407L370.755 129.799L368.143 127.892L370.98 124.008L368.742 122.373L365.905 126.257L363.497 124.498L366.705 120.106L364.382 118.409Z" fill="white"/>
<path d="M388.844 112.663L391.433 109.88L377.007 103.743L374.175 106.787L381.334 120.734L383.894 117.982L382.589 115.563L386.337 111.535L388.844 112.663ZM383.678 110.323L381.203 112.983L378.482 107.984L383.678 110.323Z" fill="white"/>
<path d="M388.944 96.0233L391.924 93.4985L399.593 102.552L402.333 100.23L394.664 91.1773L397.644 88.6526L395.785 86.4574L387.084 93.8281L388.944 96.0233Z" fill="white"/>
<path d="M412.838 74.4326L405.306 79.4136L413.437 91.7099L420.969 86.7289L419.382 84.3292L414.846 87.3294L413.062 84.6319L417.073 81.9792L415.544 79.6671L411.533 82.3198L409.888 79.8325L414.425 76.8323L412.838 74.4326Z" fill="white"/>
<path d="M453.606 59.1383C452.972 57.2014 450.948 55.9908 448.124 57.0125C445.36 58.0129 444.371 60.1571 445.079 62.1121C445.4 63.0007 445.928 63.6582 446.947 64.2501C445.36 65.8515 444.987 67.6612 445.602 69.3595C446.531 71.9266 449.172 72.8691 452.391 71.7044C454.207 71.0471 455.53 70.0103 456.443 68.5854L458.177 69.3651L462.107 67.9431L457.583 65.8727C457.782 65.0638 457.932 64.1832 458.007 63.218L458.334 61.1571L454.957 62.3789L454.676 63.8873C454.669 64.1134 454.634 64.3268 454.62 64.5332L450.05 62.4572C449.04 61.9515 448.458 61.5146 448.251 60.9419C448.036 60.3495 448.367 59.7831 448.999 59.5544C449.592 59.3401 450.174 59.5312 450.426 60.2887L453.606 59.1383ZM451.563 68.9222C450.22 69.4081 449.124 68.9111 448.774 67.9435C448.488 67.1537 448.712 66.291 449.482 65.4544L453.641 67.3215C453.148 68.0581 452.471 68.5935 451.563 68.9222Z" fill="white"/>
<path d="M489.839 47.5314L484.35 48.1382L485.969 62.7909L491.459 62.1842C496.134 61.6674 498.81 58.3503 498.33 54.0088C497.848 49.6463 494.515 47.0146 489.839 47.5314ZM489.197 59.3072L488.256 50.7911L489.946 50.6042C492.639 50.3066 494.401 51.7176 494.698 54.4102C494.996 57.1028 493.58 58.8227 490.888 59.1204L489.197 59.3072Z" fill="white"/>
<path d="M521.26 53.7336C521.297 49.3028 517.985 46.1666 513.785 46.1311C509.606 46.0957 506.178 49.1748 506.14 53.6056C506.103 58.0365 509.478 61.1942 513.657 61.2295C517.836 61.2649 521.222 58.1645 521.26 53.7336ZM509.815 53.6367C509.837 51.0118 511.363 49.3657 513.757 49.386C516.109 49.4059 517.628 51.0778 517.606 53.7027C517.584 56.2856 516.037 57.9736 513.685 57.9536C511.291 57.9334 509.793 56.2196 509.815 53.6367Z" fill="white"/>
<path d="M527.018 61.7354L531.33 62.2861L534.976 52.9708L536.08 62.8926L540.392 63.4432L546.071 49.3068L542.238 48.8173L538.754 59.1906L537.614 48.2268L533.698 47.7267L529.734 58.0387L528.99 47.1255L525.178 46.6387L527.018 61.7354Z" fill="white"/>
<path d="M558.817 52.6012L556.596 61.4621L552.991 51.1411L549.508 50.2681L545.924 64.5678L549.407 65.4408L551.618 56.6206L555.233 66.9009L558.716 67.7739L562.3 53.4741L558.817 52.6012Z" fill="white"/>
<path d="M574.507 57.5718L569.257 71.3473L577.008 74.3013L577.995 71.7111L573.6 70.0358L577.862 58.8506L574.507 57.5718Z" fill="white"/>
<path d="M601.172 78.0252C603.228 74.1004 601.713 69.7977 597.993 67.8483C594.292 65.9086 589.836 67.0825 587.779 71.0073C585.723 74.9321 587.284 79.2827 590.985 81.2224C594.687 83.162 599.115 81.95 601.172 78.0252ZM591.034 72.7131C592.253 70.3879 594.362 69.6203 596.482 70.7314C598.566 71.8231 599.154 74.0041 597.935 76.3292C596.736 78.6171 594.589 79.4123 592.506 78.3206C590.385 77.2094 589.835 75.001 591.034 72.7131Z" fill="white"/>
<path d="M610.189 92.9513L613.324 95.1013L617.264 79.9272L613.835 77.5753L601.098 86.715L604.198 88.8413L606.398 87.1928L610.935 90.305L610.189 92.9513ZM611.741 87.4965L608.745 85.4415L613.287 82.0124L611.741 87.4965Z" fill="white"/>
<path d="M632.239 91.6579L628.086 88.0171L618.368 99.1025L622.521 102.743C626.058 105.844 630.312 105.58 633.191 102.295C636.084 98.9946 635.776 94.7588 632.239 91.6579ZM623.117 99.1326L628.765 92.6898L630.044 93.8111C632.081 95.5969 632.229 97.8492 630.443 99.8862C628.658 101.923 626.433 102.04 624.396 100.254L623.117 99.1326Z" fill="white"/>
<path d="M651.876 122.972C648.272 125.512 647.515 129.797 650.019 133.35C652.039 136.216 655.16 137.254 658.253 136.102L655.978 132.875C654.598 133.103 653.442 132.556 652.655 131.44C651.385 129.638 651.853 127.458 653.981 125.958C656.11 124.458 658.32 124.751 659.59 126.553C660.376 127.669 660.503 128.941 659.823 130.165L662.098 133.392C664.223 130.867 664.312 127.567 662.292 124.7C659.788 121.147 655.481 120.431 651.876 122.972Z" fill="white"/>
<path d="M662.958 142.091C659.374 144.028 658.868 147.332 660.495 150.344C662.112 153.337 665.243 154.891 668.828 152.955L676.569 148.772L674.862 145.613L667.102 149.805C665.569 150.634 664.253 150.318 663.444 148.822C662.635 147.325 663.113 146.089 664.646 145.26L672.406 141.068L670.699 137.908L662.958 142.091Z" fill="white"/>
<path d="M675.3 172.161C679.889 170.345 676.133 163.995 678.516 163.052C679.375 162.712 680.024 163.155 680.322 163.963C680.658 164.869 680.378 165.703 679.522 166.109L680.952 169.721C683.514 168.549 684.202 165.951 683.02 162.963C681.884 160.093 679.597 158.536 677 159.564C672.122 161.449 676.201 167.762 673.663 168.766C672.862 169.083 672.127 168.652 671.741 167.675C671.37 166.738 671.615 165.873 672.63 165.358L671.224 161.804C668.49 162.999 667.937 165.883 669.104 168.832C670.371 172.034 672.996 173.073 675.3 172.161Z" fill="white"/>
<path d="M685.487 179.226L686.485 183.002L675.013 186.032L675.93 189.504L687.402 186.474L688.399 190.25L691.181 189.516L688.269 178.491L685.487 179.226Z" fill="white"/>
<path d="M688.024 215.216C692.412 214.599 695.025 210.86 694.44 206.7C693.858 202.562 690.306 199.626 685.918 200.243C681.53 200.86 678.906 204.665 679.488 208.803C680.07 212.942 683.636 215.833 688.024 215.216ZM686.43 203.882C689.029 203.517 690.883 204.783 691.216 207.154C691.544 209.483 690.115 211.232 687.515 211.598C684.957 211.957 683.059 210.676 682.732 208.347C682.398 205.976 683.872 204.242 686.43 203.882Z" fill="white"/>
<path d="M680.926 220.536L681.002 224.126L689.862 223.939L681.073 227.444L681.134 230.341L690.043 233.45L681.204 233.637L681.28 237.227L696.018 236.915L695.929 232.695L685.639 228.817L695.755 224.465L695.665 220.224L680.926 220.536Z" fill="white"/>
<path d="M690.566 275.388L692.501 266.567L678.101 263.409L676.167 272.229L678.977 272.846L680.142 267.533L683.301 268.226L682.271 272.923L684.978 273.517L686.009 268.82L688.921 269.459L687.756 274.771L690.566 275.388Z" fill="white"/>
<path d="M685.873 291.169L687.687 285.952L673.762 281.112L671.948 286.329C670.404 290.772 672.248 294.615 676.374 296.049C680.52 297.489 684.329 295.612 685.873 291.169ZM675.518 285.524L683.612 288.337L683.053 289.944C682.164 292.503 680.132 293.486 677.574 292.597C675.015 291.708 674.071 289.69 674.96 287.131L675.518 285.524Z" fill="white"/>
<path d="M664.189 305.214L662.618 308.442L675.873 314.895L677.444 311.666L664.189 305.214Z" fill="white"/>
<path d="M667.129 324.904L665.016 328.189L655.037 321.771L653.095 324.791L663.074 331.209L660.961 334.495L663.38 336.051L669.549 326.46L667.129 324.904Z" fill="white"/>
<path d="M642.025 346.636C645.831 349.777 649.579 343.423 651.555 345.054C652.268 345.642 652.193 346.425 651.629 347.075C650.998 347.807 650.133 347.964 649.364 347.411L646.891 350.407C649.154 352.085 651.762 351.433 653.808 348.956C655.773 346.575 656.032 343.82 653.878 342.042C649.872 338.681 646.313 345.301 644.208 343.563C643.544 343.015 643.567 342.162 644.235 341.353C644.877 340.575 645.753 340.372 646.694 341.013L649.127 338.066C646.761 336.248 643.969 337.157 641.95 339.602C639.757 342.258 640.114 345.058 642.025 346.636Z" fill="white"/>
<path d="M610.464 378.565C613.123 382.109 617.659 382.592 621.018 380.072C624.362 377.564 625.218 373.037 622.559 369.492C619.9 365.947 615.301 365.486 611.958 367.993C608.615 370.501 607.805 375.02 610.464 378.565ZM619.619 371.697C621.194 373.797 620.98 376.032 619.065 377.468C617.184 378.879 614.962 378.472 613.387 376.372C611.837 374.306 612.043 372.025 613.924 370.614C615.839 369.177 618.069 369.631 619.619 371.697Z" fill="white"/>
<path d="M599.006 376.871L595.899 378.671L598.888 383.832L595 386.084L596.4 388.501L600.288 386.248L601.846 388.938L596.649 391.948L598.091 394.438L606.396 389.627L599.006 376.871Z" fill="white"/>
<path d="M555.8 395.414L552.156 396.494L561.456 409.114L565.443 407.934L566.372 392.284L562.767 393.351L562.661 396.098L557.386 397.661L555.8 395.414ZM559.059 400.056L562.542 399.025L562.343 404.712L559.059 400.056Z" fill="white"/>
<path d="M520.422 409.287L520.609 412.978L518.659 413.077C517.233 413.15 516.588 412.468 516.531 411.335C516.473 410.203 517.045 409.459 518.471 409.386L520.422 409.287ZM512.881 411.521C513.019 414.226 514.926 416.169 518.533 415.985L524.343 415.69L523.594 400.967L520.008 401.149L520.276 406.435L518.053 406.548C514.299 406.738 512.758 409.088 512.881 411.521Z" fill="white"/>
<path d="M495.279 410.695C495.358 409.543 496.033 408.894 497.374 408.985L499.595 409.136L499.348 412.781L497.127 412.631C495.786 412.54 495.206 411.785 495.279 410.695ZM502.729 416L503.726 401.291L500.144 401.048L499.767 406.6L498.908 406.542L496.226 400.782L492.182 400.508L495.181 406.563C492.873 407.08 491.749 408.751 491.624 410.594C491.45 413.151 493.112 415.347 496.715 415.592L502.729 416Z" fill="white"/>
<path d="M472.135 412.072L481.009 413.744L483.739 399.257L474.865 397.585L474.333 400.412L479.678 401.419L479.079 404.597L474.353 403.707L473.839 406.431L478.565 407.321L478.013 410.252L472.668 409.244L472.135 412.072Z" fill="white"/>
<path d="M457.798 408.344L462.223 394.282L454.31 391.792L453.478 394.436L457.965 395.848L454.372 407.266L457.798 408.344Z" fill="white"/>
<path d="M429.968 389.506C428.147 393.546 429.915 397.751 433.744 399.477C437.554 401.194 441.932 399.758 443.753 395.718C445.573 391.678 443.757 387.428 439.947 385.711C436.137 383.994 431.788 385.466 429.968 389.506ZM440.402 394.208C439.324 396.601 437.264 397.493 435.081 396.509C432.937 395.543 432.221 393.4 433.299 391.007C434.36 388.652 436.457 387.731 438.601 388.698C440.784 389.681 441.463 391.853 440.402 394.208Z" fill="white"/>
<path d="M420.083 375.141L416.826 373.18L413.792 388.561L417.354 390.706L429.528 380.827L426.307 378.889L424.209 380.664L419.495 377.827L420.083 375.141ZM418.857 380.678L421.969 382.552L417.638 386.244L418.857 380.678Z" fill="white"/>
<path d="M398.147 377.738L402.509 381.126L411.553 369.485L407.192 366.096C403.477 363.211 399.247 363.727 396.567 367.176C393.874 370.642 394.433 374.852 398.147 377.738ZM406.811 369.736L401.554 376.502L400.211 375.459C398.071 373.797 397.79 371.557 399.452 369.418C401.114 367.279 403.328 367.031 405.467 368.693L406.811 369.736Z" fill="white"/>
<path d="M377.73 359.535L384.155 365.879L394.513 355.389L388.087 349.045L386.066 351.092L389.936 354.913L387.664 357.215L384.242 353.836L382.294 355.808L385.716 359.187L383.621 361.309L379.751 357.488L377.73 359.535Z" fill="white"/>
<path d="M366.89 347.143L370.334 351.461L381.86 342.269L378.416 337.951C375.483 334.274 371.25 333.782 367.835 336.505C364.404 339.242 363.958 343.465 366.89 347.143ZM377.191 341.4L370.492 346.742L369.432 345.412C367.743 343.294 367.995 341.051 370.113 339.362C372.231 337.673 374.441 337.952 376.13 340.07L377.191 341.4Z" fill="white"/>
<path d="M348.369 313.284L346.72 309.743L357.474 304.731L355.957 301.477L345.203 306.488L343.553 302.948L340.945 304.163L345.762 314.499L348.369 313.284Z" fill="white"/>
<path d="M338.752 284.153C339.849 283.792 340.704 284.174 341.124 285.451L341.819 287.566L338.347 288.707L337.652 286.592C337.233 285.315 337.714 284.494 338.752 284.153ZM336.636 293.049L350.641 288.446L349.519 285.035L344.233 286.772L343.964 285.954L348.293 281.304L347.028 277.454L342.544 282.509C341.197 280.564 339.227 280.15 337.471 280.727C335.037 281.527 333.626 283.892 334.754 287.324L336.636 293.049Z" fill="white"/>
<path d="M343.433 261.319L342.681 257.593L329.285 265.736L330.107 269.812L345.612 272.126L344.869 268.441L342.142 268.092L341.054 262.698L343.433 261.319ZM338.52 264.152L339.238 267.713L333.59 267.01L338.52 264.152Z" fill="white"/>
<path d="M334.56 252.778C338.956 252.423 341.786 249.119 341.437 244.786C341.155 241.291 338.996 238.81 335.747 238.229L336.064 242.164C337.369 242.67 338.086 243.729 338.196 245.09C338.373 247.287 336.862 248.926 334.266 249.135C331.671 249.345 329.917 247.969 329.739 245.771C329.63 244.411 330.168 243.251 331.375 242.543L331.058 238.607C327.944 239.701 326.189 242.497 326.471 245.993C326.82 250.326 330.164 253.132 334.56 252.778Z" fill="white"/>
<path d="M341.058 220.975L341.225 216.589L333.487 222.22L326.486 216.237L326.325 220.455L332.601 225.612L326.138 225.366L326.001 228.954L340.732 229.516L340.869 225.927L334.364 225.679L341.058 220.975Z" fill="white"/>
<path d="M341.465 202.292C340.366 202.118 339.381 202.834 339.185 204.079C338.985 205.344 339.701 206.329 340.8 206.503C341.858 206.67 342.843 205.954 343.043 204.688C343.24 203.444 342.523 202.459 341.465 202.292Z" fill="white"/>
</g>
<g filter="url(#filter0_bdd)">
<rect x="54" y="109" width="913" height="243" rx="24" fill="white" fill-opacity="0.27" shape-rendering="crispEdges"/>
<path d="M205.369 230.087C205.369 237.82 211.252 243.222 218.504 243.222C223.869 243.222 228.494 240.558 230.455 235.526H225.386C224.017 238.264 221.575 239.559 218.504 239.559C213.398 239.559 209.698 235.896 209.698 230.087C209.698 224.278 213.398 220.652 218.504 220.652C221.575 220.652 224.017 221.947 225.386 224.685H230.455C228.494 219.653 223.869 216.952 218.504 216.952C211.252 216.952 205.369 222.391 205.369 230.087ZM254.077 232.788C254.077 226.387 249.489 222.28 243.68 222.28C237.871 222.28 233.283 226.387 233.283 232.788C233.283 239.189 237.686 243.333 243.495 243.333C249.341 243.333 254.077 239.189 254.077 232.788ZM237.575 232.788C237.575 228.163 240.424 225.943 243.606 225.943C246.751 225.943 249.748 228.163 249.748 232.788C249.748 237.413 246.64 239.67 243.495 239.67C240.313 239.67 237.575 237.413 237.575 232.788ZM271.974 243H276.155V230.975C276.155 225.277 272.566 222.28 267.793 222.28C265.351 222.28 263.094 223.279 261.725 224.944V222.613H257.507V243H261.725V231.604C261.725 227.867 263.76 225.943 266.868 225.943C269.939 225.943 271.974 227.867 271.974 231.604V243ZM281.461 237.339C281.461 241.483 283.718 243 287.344 243H290.674V239.485H288.084C286.308 239.485 285.716 238.856 285.716 237.339V226.054H290.674V222.613H285.716V217.544H281.461V222.613H279.056V226.054H281.461V237.339ZM292.416 232.714C292.416 239.004 296.671 243.333 301.962 243.333C305.366 243.333 307.808 241.705 309.103 239.966V243H313.358V222.613H309.103V225.573C307.845 223.908 305.477 222.28 302.036 222.28C296.671 222.28 292.416 226.424 292.416 232.714ZM309.103 232.788C309.103 237.191 306.106 239.67 302.924 239.67C299.779 239.67 296.745 237.117 296.745 232.714C296.745 228.311 299.779 225.943 302.924 225.943C306.106 225.943 309.103 228.422 309.103 232.788ZM316.752 232.788C316.752 239.189 320.896 243.333 326.742 243.333C331.737 243.333 334.993 240.558 336.14 236.562H331.589C330.812 238.671 329.258 239.781 326.742 239.781C323.338 239.781 321.081 237.265 321.081 232.788C321.081 228.348 323.338 225.832 326.742 225.832C329.258 225.832 330.886 227.09 331.589 229.051H336.14C334.993 224.759 331.737 222.28 326.742 222.28C320.896 222.28 316.752 226.424 316.752 232.788ZM340.27 237.339C340.27 241.483 342.527 243 346.153 243H349.483V239.485H346.893C345.117 239.485 344.525 238.856 344.525 237.339V226.054H349.483V222.613H344.525V217.544H340.27V222.613H337.865V226.054H340.27V237.339ZM361.501 243H365.719V225.388L373.6 243H376.523L384.367 225.388V243H388.585V217.285H384.071L375.08 237.45L366.052 217.285H361.501V243ZM401.973 225.832C405.118 225.832 407.597 227.83 407.671 230.975H396.386C396.83 227.756 399.124 225.832 401.973 225.832ZM411.519 236.932H406.968C406.191 238.523 404.748 239.781 402.158 239.781C399.05 239.781 396.645 237.746 396.349 234.379H411.926C412.037 233.676 412.074 233.01 412.074 232.307C412.074 226.313 407.967 222.28 402.158 222.28C396.127 222.28 391.983 226.387 391.983 232.788C391.983 239.189 396.312 243.333 402.158 243.333C407.153 243.333 410.372 240.484 411.519 236.932ZM424.357 243H428.575V231.752H437.085V228.311H428.575V220.726H439.49V217.285H424.357V243ZM462.084 232.788C462.084 226.387 457.496 222.28 451.687 222.28C445.878 222.28 441.29 226.387 441.29 232.788C441.29 239.189 445.693 243.333 451.502 243.333C457.348 243.333 462.084 239.189 462.084 232.788ZM445.582 232.788C445.582 228.163 448.431 225.943 451.613 225.943C454.758 225.943 457.755 228.163 457.755 232.788C457.755 237.413 454.647 239.67 451.502 239.67C448.32 239.67 445.582 237.413 445.582 232.788ZM469.731 232.27C469.731 227.941 471.655 226.646 474.763 226.646H475.836V222.28C472.95 222.28 470.915 223.538 469.731 225.573V222.613H465.513V243H469.731V232.27ZM487.845 243H492.063V225.388L499.944 243H502.867L510.711 225.388V243H514.929V217.285H510.415L501.424 237.45L492.396 217.285H487.845V243ZM539.158 232.788C539.158 226.387 534.57 222.28 528.761 222.28C522.952 222.28 518.364 226.387 518.364 232.788C518.364 239.189 522.767 243.333 528.576 243.333C534.422 243.333 539.158 239.189 539.158 232.788ZM522.656 232.788C522.656 228.163 525.505 225.943 528.687 225.943C531.832 225.943 534.829 228.163 534.829 232.788C534.829 237.413 531.721 239.67 528.576 239.67C525.394 239.67 522.656 237.413 522.656 232.788ZM546.806 232.27C546.806 227.941 548.73 226.646 551.838 226.646H552.911V222.28C550.025 222.28 547.99 223.538 546.806 225.573V222.613H542.588V243H546.806V232.27ZM564.632 225.832C567.777 225.832 570.256 227.83 570.33 230.975H559.045C559.489 227.756 561.783 225.832 564.632 225.832ZM574.178 236.932H569.627C568.85 238.523 567.407 239.781 564.817 239.781C561.709 239.781 559.304 237.746 559.008 234.379H574.585C574.696 233.676 574.733 233.01 574.733 232.307C574.733 226.313 570.626 222.28 564.817 222.28C558.786 222.28 554.642 226.387 554.642 232.788C554.642 239.189 558.971 243.333 564.817 243.333C569.812 243.333 573.031 240.484 574.178 236.932ZM587.015 243H591.233V217.285H587.015V243ZM610.498 243H614.679V230.975C614.679 225.277 611.09 222.28 606.317 222.28C603.875 222.28 601.618 223.279 600.249 224.944V222.613H596.031V243H600.249V231.604C600.249 227.867 602.284 225.943 605.392 225.943C608.463 225.943 610.498 227.867 610.498 231.604V243ZM619.837 243H624.092V226.054H627.866V222.613H624.092V221.17C624.092 218.839 624.98 217.951 627.57 217.951V214.436C622.242 214.436 619.837 216.471 619.837 221.17V222.613H617.432V226.054H619.837V243ZM650.289 232.788C650.289 226.387 645.701 222.28 639.892 222.28C634.083 222.28 629.495 226.387 629.495 232.788C629.495 239.189 633.898 243.333 639.707 243.333C645.553 243.333 650.289 239.189 650.289 232.788ZM633.787 232.788C633.787 228.163 636.636 225.943 639.818 225.943C642.963 225.943 645.96 228.163 645.96 232.788C645.96 237.413 642.852 239.67 639.707 239.67C636.525 239.67 633.787 237.413 633.787 232.788ZM657.937 232.27C657.937 227.941 659.861 226.646 662.969 226.646H664.042V222.28C661.156 222.28 659.121 223.538 657.937 225.573V222.613H653.719V243H657.937V232.27ZM696.076 243H700.257V230.975C700.257 225.277 696.631 222.28 691.858 222.28C688.898 222.28 686.012 223.834 684.754 226.313C683.348 223.649 680.647 222.28 677.428 222.28C674.986 222.28 672.766 223.279 671.397 224.944V222.613H667.179V243H671.397V231.604C671.397 227.867 673.432 225.943 676.54 225.943C679.611 225.943 681.646 227.867 681.646 231.604V243H685.827V231.604C685.827 227.867 687.862 225.943 690.97 225.943C694.041 225.943 696.076 227.867 696.076 231.604V243ZM703.479 232.714C703.479 239.004 707.734 243.333 713.025 243.333C716.429 243.333 718.871 241.705 720.166 239.966V243H724.421V222.613H720.166V225.573C718.908 223.908 716.54 222.28 713.099 222.28C707.734 222.28 703.479 226.424 703.479 232.714ZM720.166 232.788C720.166 237.191 717.169 239.67 713.987 239.67C710.842 239.67 707.808 237.117 707.808 232.714C707.808 228.311 710.842 225.943 713.987 225.943C717.169 225.943 720.166 228.422 720.166 232.788ZM729.887 237.339C729.887 241.483 732.144 243 735.77 243H739.1V239.485H736.51C734.734 239.485 734.142 238.856 734.142 237.339V226.054H739.1V222.613H734.142V217.544H729.887V222.613H727.482V226.054H729.887V237.339ZM742.247 243H746.465V222.613H742.247V243ZM744.393 219.912C745.873 219.912 747.057 218.728 747.057 217.211C747.057 215.694 745.873 214.51 744.393 214.51C742.876 214.51 741.692 215.694 741.692 217.211C741.692 218.728 742.876 219.912 744.393 219.912ZM770.688 232.788C770.688 226.387 766.1 222.28 760.291 222.28C754.482 222.28 749.894 226.387 749.894 232.788C749.894 239.189 754.297 243.333 760.106 243.333C765.952 243.333 770.688 239.189 770.688 232.788ZM754.186 232.788C754.186 228.163 757.035 225.943 760.217 225.943C763.362 225.943 766.359 228.163 766.359 232.788C766.359 237.413 763.251 239.67 760.106 239.67C756.924 239.67 754.186 237.413 754.186 232.788ZM788.585 243H792.766V230.975C792.766 225.277 789.177 222.28 784.404 222.28C781.962 222.28 779.705 223.279 778.336 224.944V222.613H774.118V243H778.336V231.604C778.336 227.867 780.371 225.943 783.479 225.943C786.55 225.943 788.585 227.867 788.585 231.604V243Z" fill="white"/>
<path d="M562.061 287.061C562.646 286.475 562.646 285.525 562.061 284.939L552.515 275.393C551.929 274.808 550.979 274.808 550.393 275.393C549.808 275.979 549.808 276.929 550.393 277.515L558.879 286L550.393 294.485C549.808 295.071 549.808 296.021 550.393 296.607C550.979 297.192 551.929 297.192 552.515 296.607L562.061 287.061ZM461 287.5H561V284.5H461V287.5Z" fill="white"/>
</g>
<defs>
<filter id="filter0_bdd" x="0" y="89" width="1021" height="351" filterUnits="userSpaceOnUse" color-interpolation-filters="sRGB">
<feFlood flood-opacity="0" result="BackgroundImageFix"/>
<feGaussianBlur in="BackgroundImage" stdDeviation="5"/>
<feComposite in2="SourceAlpha" operator="in" result="effect1_backgroundBlur"/>
<feColorMatrix in="SourceAlpha" type="matrix" values="0 0 0 0 0 0 0 0 0 0 0 0 0 0 0 0 0 0 127 0" result="hardAlpha"/>
<feOffset dy="4"/>
<feGaussianBlur stdDeviation="2"/>
<feComposite in2="hardAlpha" operator="out"/>
<feColorMatrix type="matrix" values="0 0 0 0 0 0 0 0 0 0 0 0 0 0 0 0 0 0 0.25 0"/>
<feBlend mode="normal" in2="effect1_backgroundBlur" result="effect2_dropShadow"/>
<feColorMatrix in="SourceAlpha" type="matrix" values="0 0 0 0 0 0 0 0 0 0 0 0 0 0 0 0 0 0 127 0" result="hardAlpha"/>
<feOffset dy="34"/>
<feGaussianBlur stdDeviation="27"/>
<feComposite in2="hardAlpha" operator="out"/>
<feColorMatrix type="matrix" values="0 0 0 0 0 0 0 0 0 0 0 0 0 0 0 0 0 0 0.25 0"/>
<feBlend mode="normal" in2="effect2_dropShadow" result="effect3_dropShadow"/>
<feBlend mode="normal" in="SourceGraphic" in2="effect3_dropShadow" result="shape"/>
</filter>
</defs>
</svg>
