<svg width="223" height="168" viewBox="0 0 223 168" fill="none" xmlns="http://www.w3.org/2000/svg">
<g filter="url(#filter0_d)">
<path d="M43.6389 21.4443C43.6389 22.2771 43.1894 22.6102 42.2429 22.6102H39.8531V20.2309H42.2429C43.1894 20.2309 43.6389 20.6354 43.6389 21.4443ZM43.284 15.401C43.284 16.2099 42.8344 16.5668 41.888 16.5668H39.8531V14.1875H41.888C42.8344 14.1875 43.284 14.5682 43.284 15.401ZM49.01 22.2295C49.01 20.3498 47.8742 18.7081 45.8157 18.2085C47.472 17.7802 48.6314 16.4002 48.6314 14.3779C48.6314 11.4514 46.4782 10 43.142 10H34.6004V26.8453H43.3786C47.0224 26.8453 49.01 25.1798 49.01 22.2295Z" fill="white"/>
<path d="M59.6242 15.853C59.6242 16.8523 59.1036 17.2806 58.1098 17.2806H56.0277V14.4254H58.1098C59.1036 14.4254 59.6242 14.9965 59.6242 15.853ZM50.7749 10V26.8453H56.0277V20.8019H56.0513L59.1983 26.8453H64.9715L61.3277 20.3974C63.7175 19.6123 64.9479 17.7326 64.9479 15.5199C64.9479 12.4269 62.7947 10 58.5831 10H50.7749Z" fill="white"/>
<path d="M71.4528 21.7298V26.8453H76.7056V21.7298L82.7155 10H76.8002L74.1265 15.972L71.4528 10H65.4429L71.4528 21.7298Z" fill="white"/>
<path d="M95.4799 26.8453H101.017L94.912 10H88.8548L82.7266 26.8453H88.2396L89.0677 24.2994H94.6517L95.4799 26.8453ZM93.374 20.326H90.3454L91.8597 15.6389L93.374 20.326Z" fill="white"/>
<path d="M113.023 10V18.613L107.463 10H102.21V26.8453H107.463V18.375L113.023 26.8453H118.276V10H113.023Z" fill="white"/>
<path d="M133.708 21.4443C133.708 22.2771 133.258 22.6102 132.312 22.6102H129.922V20.2309H132.312C133.258 20.2309 133.708 20.6354 133.708 21.4443ZM133.353 15.401C133.353 16.2099 132.903 16.5668 131.957 16.5668H129.922V14.1875H131.957C132.903 14.1875 133.353 14.5682 133.353 15.401ZM139.079 22.2295C139.079 20.3498 137.943 18.7081 135.885 18.2085C137.541 17.7802 138.7 16.4002 138.7 14.3779C138.7 11.4514 136.547 10 133.211 10H124.669V26.8453H133.448C137.092 26.8453 139.079 25.1798 139.079 22.2295Z" fill="white"/>
<path d="M152.414 26.8453H157.951L151.846 10H145.789L139.661 26.8453H145.174L146.002 24.2994H151.586L152.414 26.8453ZM150.308 20.326H147.28L148.794 15.6389L150.308 20.326Z" fill="white"/>
<path d="M159.144 10V26.8453H169.461V22.8481H164.397V10H159.144Z" fill="white"/>
<path d="M171.113 10V26.8453H181.43V22.8481H176.366V10H171.113Z" fill="white"/>
<path d="M183.083 26.8453H188.335V10H183.083V26.8453Z" fill="white"/>
<path d="M80.3825 53.2816H83.3007V49.7524H85.9297V47.5449H83.3007V46.2496H86.9551V43.9232H80.3825V53.2816Z" fill="white"/>
<path d="M97.2502 48.5627C97.2502 45.7473 95.1338 43.7645 92.4785 43.7645C89.8364 43.7645 87.6806 45.7473 87.6806 48.5627C87.6806 51.3782 89.8364 53.3742 92.4785 53.3742C95.1075 53.3742 97.2502 51.3782 97.2502 48.5627ZM90.6514 48.5627C90.6514 47.2938 91.2823 46.4743 92.4785 46.4743C93.6484 46.4743 94.2925 47.2938 94.2925 48.5627C94.2925 49.8052 93.6484 50.638 92.4785 50.638C91.2823 50.638 90.6514 49.8052 90.6514 48.5627Z" fill="white"/>
<path d="M98.2503 49.1972C98.2503 51.9598 99.9592 53.3742 102.286 53.3742C104.613 53.3742 106.492 51.9598 106.492 49.1972V43.9232H103.587V49.1972C103.587 50.0035 103.232 50.5983 102.352 50.5983C101.471 50.5983 101.155 50.0035 101.155 49.1972V43.9232H98.2503V49.1972Z" fill="white"/>
<path d="M113.758 43.9232V48.7081L110.669 43.9232H107.751V53.2816H110.669V48.576L113.758 53.2816H116.676V43.9232H113.758Z" fill="white"/>
<path d="M121.873 43.9232H117.995V53.2816H121.873C124.843 53.2816 126.71 51.246 126.71 48.576C126.71 45.8794 124.843 43.9232 121.873 43.9232ZM120.913 50.6644V46.4875H121.61C122.898 46.4875 123.752 47.2145 123.752 48.576C123.752 49.9374 122.898 50.6644 121.61 50.6644H120.913Z" fill="white"/>
<path d="M133.968 43.9232H127.764V53.2816H133.968V50.942H130.682V49.6202H133.574V47.4128H130.682V46.2628H133.968V43.9232Z" fill="white"/>
<path d="M139.984 47.1748C139.984 47.73 139.695 47.9679 139.143 47.9679H137.986V46.3817H139.143C139.695 46.3817 139.984 46.699 139.984 47.1748ZM135.068 43.9232V53.2816H137.986V49.9242H137.999L139.748 53.2816H142.955L140.931 49.6995C142.258 49.2633 142.942 48.2191 142.942 46.9898C142.942 45.2714 141.746 43.9232 139.406 43.9232H135.068Z" fill="white"/>
<path d="M71.0754 68.162L72.0712 68.1521L73.7274 62.5905L75.3246 68.1521H76.3302L78.3216 61.2423H77.3555L75.8471 67.0814L74.2697 61.2423H73.2641L71.6078 67.1012L70.1093 61.2423H69.153L71.0754 68.162Z" fill="white"/>
<path d="M81.6005 63.3935C82.5272 63.3935 83.3159 63.9784 83.3061 65.0392H79.8949C79.9935 63.9784 80.7231 63.3935 81.6005 63.3935ZM84.1244 66.4767H83.1582C82.961 67.0616 82.4484 67.478 81.6399 67.478C80.7231 67.478 79.9541 66.8732 79.8851 65.7728H84.2032C84.2229 65.5845 84.2328 65.4258 84.2328 65.2276C84.2328 63.7405 83.2075 62.6302 81.6399 62.6302C80.0625 62.6302 78.9682 63.7108 78.9682 65.4258C78.9682 67.1508 80.102 68.2413 81.6399 68.2413C82.9807 68.2413 83.8483 67.468 84.1244 66.4767Z" fill="white"/>
<path d="M86.3142 63.7306V60.816H85.417V68.1521H86.3142V67.1508C86.6493 67.7456 87.3493 68.2413 88.3352 68.2413C89.7844 68.2413 90.8985 67.1012 90.8985 65.4159C90.8985 63.7207 89.7943 62.6302 88.3352 62.6302C87.3789 62.6302 86.6592 63.1259 86.3142 63.7306ZM89.9816 65.4159C89.9816 66.6948 89.1436 67.4482 88.1479 67.4482C87.1719 67.4482 86.3142 66.7047 86.3142 65.4258C86.3142 64.1668 87.1719 63.4134 88.1479 63.4134C89.1436 63.4134 89.9816 64.1371 89.9816 65.4159Z" fill="white"/>
<path d="M91.9118 62.7888H92.7892C92.8779 62.0949 93.3807 61.619 94.2187 61.619C95.0764 61.619 95.5299 62.0949 95.5299 62.7789C95.5299 63.6116 94.8891 63.9784 93.6962 63.9884H93.4596V64.7418H93.6864C94.968 64.7418 95.668 65.1284 95.668 66.1396C95.668 66.8732 95.2145 67.4383 94.2582 67.4383C93.3117 67.4383 92.7596 66.8534 92.6709 66.0901H91.8033C91.9118 67.478 92.9174 68.2017 94.268 68.2017C95.7567 68.2017 96.5257 67.3293 96.5257 66.2189C96.5257 65.1879 95.9637 64.5733 95.1356 64.375V64.3254C95.8849 64.1569 96.3975 63.5125 96.3975 62.6897C96.3975 61.6587 95.6384 60.8457 94.2483 60.8457C92.9272 60.8457 92.0005 61.5595 91.9118 62.7888Z" fill="white"/>
<path d="M100.178 64.6922C100.178 66.7642 101.686 68.2116 103.609 68.2116C105.098 68.2116 106.281 67.4681 106.793 66.1396H105.719C105.344 66.9625 104.614 67.4284 103.609 67.4284C102.17 67.4284 101.095 66.3775 101.095 64.6922C101.095 62.997 102.17 61.9462 103.609 61.9462C104.614 61.9462 105.344 62.4121 105.719 63.2448H106.793C106.281 61.9065 105.098 61.1531 103.609 61.1531C101.686 61.1531 100.178 62.6203 100.178 64.6922Z" fill="white"/>
<path d="M113.255 65.4258C113.255 63.7108 112.062 62.6302 110.524 62.6302C108.996 62.6302 107.794 63.7108 107.794 65.4258C107.794 67.1508 108.957 68.2413 110.485 68.2413C112.023 68.2413 113.255 67.1508 113.255 65.4258ZM108.71 65.4258C108.71 64.0578 109.568 63.4134 110.515 63.4134C111.441 63.4134 112.338 64.0578 112.338 65.4258C112.338 66.8038 111.422 67.4482 110.485 67.4482C109.548 67.4482 108.71 66.8038 108.71 65.4258Z" fill="white"/>
<path d="M118.388 68.1521H119.276V64.95C119.276 63.3935 118.319 62.6203 117.067 62.6203C116.338 62.6203 115.687 62.9276 115.332 63.4927V62.7194H114.435V68.1521H115.332V65.1483C115.332 63.9784 115.963 63.4035 116.88 63.4035C117.787 63.4035 118.388 63.9685 118.388 65.0789V68.1521Z" fill="white"/>
<path d="M124.625 66.675C124.586 64.7319 121.451 65.4358 121.451 64.147C121.451 63.7108 121.845 63.3935 122.506 63.3935C123.225 63.3935 123.64 63.7901 123.679 64.3353H124.576C124.517 63.2746 123.728 62.6302 122.535 62.6302C121.333 62.6302 120.554 63.3142 120.554 64.147C120.554 66.1694 123.748 65.4655 123.748 66.675C123.748 67.1211 123.354 67.478 122.644 67.478C121.885 67.478 121.421 67.0814 121.372 66.556H120.445C120.504 67.5474 121.392 68.2413 122.654 68.2413C123.847 68.2413 124.625 67.5672 124.625 66.675Z" fill="white"/>
<path d="M130.683 62.7194H129.786V65.7034C129.786 66.8732 129.165 67.4482 128.238 67.4482C127.331 67.4482 126.73 66.8831 126.73 65.7827V62.7194H125.843V65.9017C125.843 67.4581 126.819 68.2314 128.061 68.2314C128.78 68.2314 129.441 67.9142 129.786 67.3491V68.1521H130.683V62.7194Z" fill="white"/>
<path d="M132.198 68.1521H133.095V60.816H132.198V68.1521Z" fill="white"/>
<path d="M134.821 66.665C134.821 67.7555 135.364 68.1521 136.32 68.1521H137.128V67.3887H136.468C135.916 67.3887 135.719 67.2004 135.719 66.665V63.4629H137.128V62.7194H135.719V61.3513H134.821V62.7194H134.121V63.4629H134.821V66.665Z" fill="white"/>
<path d="M137.88 65.4159C137.88 67.1012 138.994 68.2413 140.434 68.2413C141.429 68.2413 142.129 67.7258 142.455 67.1409V68.1521H143.362V62.7194H142.455V63.7108C142.139 63.1457 141.449 62.6302 140.443 62.6302C138.994 62.6302 137.88 63.7207 137.88 65.4159ZM142.455 65.4258C142.455 66.7047 141.607 67.4482 140.621 67.4482C139.635 67.4482 138.797 66.6948 138.797 65.4159C138.797 64.1371 139.635 63.4134 140.621 63.4134C141.607 63.4134 142.455 64.1668 142.455 65.4258Z" fill="white"/>
<path d="M148.831 68.1521H149.718V64.95C149.718 63.3935 148.762 62.6203 147.51 62.6203C146.78 62.6203 146.13 62.9276 145.775 63.4927V62.7194H144.878V68.1521H145.775V65.1483C145.775 63.9784 146.406 63.4035 147.323 63.4035C148.23 63.4035 148.831 63.9685 148.831 65.0789V68.1521Z" fill="white"/>
<path d="M151.381 66.665C151.381 67.7555 151.923 68.1521 152.88 68.1521H153.688V67.3887H153.027C152.475 67.3887 152.278 67.2004 152.278 66.665V63.4629H153.688V62.7194H152.278V61.3513H151.381V62.7194H150.681V63.4629H151.381V66.665Z" fill="white"/>
<path d="M64.7625 79.8931C64.7625 81.9651 66.2709 83.4125 68.1934 83.4125C69.6821 83.4125 70.8651 82.669 71.3778 81.3405H70.3032C69.9286 82.1634 69.199 82.6293 68.1934 82.6293C66.754 82.6293 65.6794 81.5785 65.6794 79.8931C65.6794 78.1979 66.754 77.1471 68.1934 77.1471C69.199 77.1471 69.9286 77.613 70.3032 78.4458H71.3778C70.8651 77.1074 69.6821 76.354 68.1934 76.354C66.2709 76.354 64.7625 77.8212 64.7625 79.8931Z" fill="white"/>
<path d="M73.6104 80.3987C73.6104 79.1397 74.2611 78.7531 75.1188 78.7531H75.3554V77.8212C74.4977 77.8212 73.916 78.1979 73.6104 78.8026V77.9203H72.7133V83.353H73.6104V80.3987Z" fill="white"/>
<path d="M78.6881 78.5945C79.6149 78.5945 80.4036 79.1794 80.3937 80.2401H76.9826C77.0812 79.1794 77.8107 78.5945 78.6881 78.5945ZM81.212 81.6776H80.2458C80.0486 82.2625 79.536 82.6789 78.7276 82.6789C77.8107 82.6789 77.0417 82.0741 76.9727 80.9737H81.2908C81.3106 80.7854 81.3204 80.6268 81.3204 80.4285C81.3204 78.9414 80.2951 77.8311 78.7276 77.8311C77.1502 77.8311 76.0558 78.9117 76.0558 80.6268C76.0558 82.3517 77.1896 83.4422 78.7276 83.4422C80.0684 83.4422 80.9359 82.669 81.212 81.6776Z" fill="white"/>
<path d="M82.1694 80.6168C82.1694 82.3022 83.2835 83.4422 84.7229 83.4422C85.7186 83.4422 86.4186 82.9267 86.7439 82.3418V83.353H87.6509V77.9203H86.7439V78.9117C86.4284 78.3466 85.7383 77.8311 84.7327 77.8311C83.2835 77.8311 82.1694 78.9216 82.1694 80.6168ZM86.7439 80.6268C86.7439 81.9056 85.896 82.6491 84.9102 82.6491C83.9243 82.6491 83.0863 81.8957 83.0863 80.6168C83.0863 79.338 83.9243 78.6143 84.9102 78.6143C85.896 78.6143 86.7439 79.3677 86.7439 80.6268Z" fill="white"/>
<path d="M89.3642 81.866C89.3642 82.9565 89.9064 83.353 90.8627 83.353H91.6711V82.5897H91.0106C90.4585 82.5897 90.2613 82.4013 90.2613 81.866V78.6639H91.6711V77.9203H90.2613V76.5522H89.3642V77.9203H88.6642V78.6639H89.3642V81.866Z" fill="white"/>
<path d="M92.7581 83.353H93.6553V77.9203H92.7581V83.353ZM93.2215 77.038C93.5468 77.038 93.813 76.7703 93.813 76.4234C93.813 76.0764 93.5468 75.8087 93.2215 75.8087C92.8764 75.8087 92.6102 76.0764 92.6102 76.4234C92.6102 76.7703 92.8764 77.038 93.2215 77.038Z" fill="white"/>
<path d="M94.5435 77.9203L96.6631 83.353H97.7082L99.8278 77.9203H98.8715L97.1955 82.5203L95.5096 77.9203H94.5435Z" fill="white"/>
<path d="M103.008 78.5945C103.934 78.5945 104.723 79.1794 104.713 80.2401H101.302C101.401 79.1794 102.13 78.5945 103.008 78.5945ZM105.532 81.6776H104.565C104.368 82.2625 103.856 82.6789 103.047 82.6789C102.13 82.6789 101.361 82.0741 101.292 80.9737H105.61C105.63 80.7854 105.64 80.6268 105.64 80.4285C105.64 78.9414 104.615 77.8311 103.047 77.8311C101.47 77.8311 100.375 78.9117 100.375 80.6268C100.375 82.3517 101.509 83.4422 103.047 83.4422C104.388 83.4422 105.255 82.669 105.532 81.6776Z" fill="white"/>
<path d="M111.592 76.4432H109.453V83.353H111.592C113.85 83.353 115.24 82.0543 115.24 79.913C115.24 77.7716 113.85 76.4432 111.592 76.4432ZM110.35 82.6095V77.1768H111.592C113.386 77.1768 114.323 78.2277 114.323 79.913C114.323 81.5983 113.386 82.6095 111.592 82.6095H110.35Z" fill="white"/>
<path d="M118.72 78.5945C119.647 78.5945 120.436 79.1794 120.426 80.2401H117.015C117.113 79.1794 117.843 78.5945 118.72 78.5945ZM121.244 81.6776H120.278C120.081 82.2625 119.568 82.6789 118.76 82.6789C117.843 82.6789 117.074 82.0741 117.005 80.9737H121.323C121.343 80.7854 121.352 80.6268 121.352 80.4285C121.352 78.9414 120.327 77.8311 118.76 77.8311C117.182 77.8311 116.088 78.9117 116.088 80.6268C116.088 82.3517 117.222 83.4422 118.76 83.4422C120.1 83.4422 120.968 82.669 121.244 81.6776Z" fill="white"/>
<path d="M121.896 77.9203L124.015 83.353H125.06L127.18 77.9203H126.224L124.548 82.5203L122.862 77.9203H121.896Z" fill="white"/>
<path d="M130.36 78.5945C131.287 78.5945 132.075 79.1794 132.066 80.2401H128.654C128.753 79.1794 129.483 78.5945 130.36 78.5945ZM132.884 81.6776H131.918C131.721 82.2625 131.208 82.6789 130.399 82.6789C129.483 82.6789 128.714 82.0741 128.645 80.9737H132.963C132.982 80.7854 132.992 80.6268 132.992 80.4285C132.992 78.9414 131.967 77.8311 130.399 77.8311C128.822 77.8311 127.728 78.9117 127.728 80.6268C127.728 82.3517 128.861 83.4422 130.399 83.4422C131.74 83.4422 132.608 82.669 132.884 81.6776Z" fill="white"/>
<path d="M134.177 83.353H135.074V76.0169H134.177V83.353Z" fill="white"/>
<path d="M141.729 80.6268C141.729 78.9117 140.536 77.8311 138.998 77.8311C137.47 77.8311 136.267 78.9117 136.267 80.6268C136.267 82.3517 137.431 83.4422 138.959 83.4422C140.497 83.4422 141.729 82.3517 141.729 80.6268ZM137.184 80.6268C137.184 79.2587 138.042 78.6143 138.988 78.6143C139.915 78.6143 140.812 79.2587 140.812 80.6268C140.812 82.0048 139.896 82.6491 138.959 82.6491C138.022 82.6491 137.184 82.0048 137.184 80.6268Z" fill="white"/>
<path d="M143.806 78.9216V77.9203H142.909V85.9306H143.806V82.3517C144.141 82.9069 144.841 83.4422 145.827 83.4422C147.276 83.4422 148.39 82.3022 148.39 80.6168C148.39 78.9216 147.276 77.8311 145.827 77.8311C144.841 77.8311 144.131 78.3466 143.806 78.9216ZM147.473 80.6168C147.473 81.8957 146.635 82.6491 145.64 82.6491C144.664 82.6491 143.806 81.9056 143.806 80.6268C143.806 79.3677 144.664 78.6143 145.64 78.6143C146.635 78.6143 147.473 79.338 147.473 80.6168Z" fill="white"/>
<path d="M151.868 78.5945C152.795 78.5945 153.584 79.1794 153.574 80.2401H150.163C150.261 79.1794 150.991 78.5945 151.868 78.5945ZM154.392 81.6776H153.426C153.229 82.2625 152.716 82.6789 151.908 82.6789C150.991 82.6789 150.222 82.0741 150.153 80.9737H154.471C154.491 80.7854 154.501 80.6268 154.501 80.4285C154.501 78.9414 153.475 77.8311 151.908 77.8311C150.33 77.8311 149.236 78.9117 149.236 80.6268C149.236 82.3517 150.37 83.4422 151.908 83.4422C153.249 83.4422 154.116 82.669 154.392 81.6776Z" fill="white"/>
<path d="M156.582 80.3987C156.582 79.1397 157.233 78.7531 158.09 78.7531H158.327V77.8212C157.469 77.8212 156.888 78.1979 156.582 78.8026V77.9203H155.685V83.353H156.582V80.3987Z" fill="white"/>
<path d="M31.5775 109.274C31.5775 109.935 31.1437 110.278 30.3944 110.278H28.7382V108.23H30.3682C31.1174 108.23 31.5775 108.613 31.5775 109.274ZM31.354 105.612C31.354 106.247 30.9465 106.577 30.2104 106.577H28.7382V104.634H30.2104C30.9465 104.634 31.354 104.978 31.354 105.612ZM33.8516 109.578C33.8516 108.52 33.1549 107.569 32.077 107.344C32.9709 107.08 33.6413 106.353 33.6413 105.229C33.6413 103.762 32.5239 102.823 30.6442 102.823H26.4904V112.103H30.7888C32.7343 112.103 33.8516 111.111 33.8516 109.578Z" fill="white"/>
<path d="M37.4031 108.679C37.4031 107.41 38.0209 107.04 39.0857 107.04H39.7035V104.648C38.7176 104.648 37.9158 105.176 37.4031 105.956V104.727H35.1553V112.103H37.4031V108.679Z" fill="white"/>
<path d="M44.1562 109.34L42.4604 104.727H39.9498L42.9337 111.851L41.2511 115.605H43.6698L48.2706 104.727H45.8387L44.1562 109.34Z" fill="white"/>
<path d="M48.6364 108.401C48.6364 110.728 50.0692 112.208 51.857 112.208C52.948 112.208 53.7236 111.706 54.1311 111.058V112.103H56.3789V104.727H54.1311V105.771C53.7367 105.123 52.9612 104.621 51.8701 104.621C50.0693 104.621 48.6364 106.075 48.6364 108.401ZM54.1311 108.415C54.1311 109.591 53.3818 110.239 52.5274 110.239C51.6861 110.239 50.9237 109.578 50.9237 108.401C50.9237 107.225 51.6861 106.591 52.5274 106.591C53.3818 106.591 54.1311 107.238 54.1311 108.415Z" fill="white"/>
<path d="M63.0659 112.103H65.3005V107.793C65.3005 105.811 64.1701 104.648 62.4744 104.648C61.4885 104.648 60.6998 105.084 60.2528 105.705V104.727H58.005V112.103H60.2528V108.097C60.2528 107.093 60.8049 106.538 61.6594 106.538C62.5138 106.538 63.0659 107.093 63.0659 108.097V112.103Z" fill="white"/>
<path d="M71.9497 109.274C71.9497 109.935 71.5159 110.278 70.7666 110.278H69.1103V108.23H70.7403C71.4896 108.23 71.9497 108.613 71.9497 109.274ZM71.7262 105.612C71.7262 106.247 71.3187 106.577 70.5826 106.577H69.1103V104.634H70.5826C71.3187 104.634 71.7262 104.978 71.7262 105.612ZM74.2237 109.578C74.2237 108.52 73.5271 107.569 72.4492 107.344C73.343 107.08 74.0134 106.353 74.0134 105.229C74.0134 103.762 72.8961 102.823 71.0164 102.823H66.8625V112.103H71.161C73.1064 112.103 74.2237 111.111 74.2237 109.578Z" fill="white"/>
<path d="M75.0805 108.401C75.0805 110.728 76.5133 112.208 78.3011 112.208C79.3921 112.208 80.1677 111.706 80.5752 111.058V112.103H82.8229V104.727H80.5752V105.771C80.1808 105.123 79.4053 104.621 78.3142 104.621C76.5133 104.621 75.0805 106.075 75.0805 108.401ZM80.5752 108.415C80.5752 109.591 79.8259 110.239 78.9715 110.239C78.1302 110.239 77.3678 109.578 77.3678 108.401C77.3678 107.225 78.1302 106.591 78.9715 106.591C79.8259 106.591 80.5752 107.238 80.5752 108.415Z" fill="white"/>
<path d="M84.4491 112.103H86.6969V102.321H84.4491V112.103Z" fill="white"/>
<path d="M88.3259 112.103H90.5737V102.321H88.3259V112.103Z" fill="white"/>
<path d="M92.2026 112.103H94.4504V104.727H92.2026V112.103ZM93.3331 103.96C94.1218 103.96 94.6608 103.418 94.6608 102.744C94.6608 102.057 94.1218 101.515 93.3331 101.515C92.5313 101.515 91.9923 102.057 91.9923 102.744C91.9923 103.418 92.5313 103.96 93.3331 103.96Z" fill="white"/>
<path d="M105.176 112.169C107.332 112.169 108.501 110.173 108.501 107.965C108.501 105.189 106.543 103.273 103.388 103.273C99.2868 103.273 96.224 106.287 96.224 110.345C96.224 113.226 98.2089 115.077 101.232 115.077C102.284 115.077 103.257 114.892 104.124 114.508L103.769 113.068C103.112 113.372 102.284 113.543 101.443 113.543C99.2211 113.543 97.9197 112.301 97.9197 110.173C97.9197 107.172 100.154 104.793 103.165 104.793C105.465 104.793 106.793 106.022 106.793 108.031C106.793 109.274 106.398 110.715 105.491 110.715C104.979 110.715 104.913 110.318 105.018 109.71L105.596 106.392H103.782L103.664 107.093C103.414 106.591 102.915 106.3 102.166 106.3C100.365 106.3 99.1159 108.071 99.1159 110.001C99.1159 111.362 99.9046 112.195 101.206 112.195C102.126 112.195 102.928 111.799 103.414 111.111C103.625 111.772 104.242 112.169 105.176 112.169ZM103.335 108.93C103.335 109.829 102.691 110.569 101.942 110.569C101.351 110.569 101.061 110.173 101.061 109.604C101.061 108.705 101.613 107.912 102.402 107.912C102.994 107.912 103.335 108.335 103.335 108.93Z" fill="white"/>
<path d="M113.511 106.432C114.26 106.432 114.891 106.895 114.891 107.701H112.078C112.209 106.881 112.775 106.432 113.511 106.432ZM117.02 109.657H114.628C114.444 110.054 114.089 110.371 113.458 110.371C112.735 110.371 112.144 109.922 112.065 108.957H117.152C117.178 108.732 117.191 108.507 117.191 108.296C117.191 106.049 115.68 104.621 113.537 104.621C111.355 104.621 109.83 106.075 109.83 108.415C109.83 110.754 111.381 112.208 113.537 112.208C115.364 112.208 116.666 111.098 117.02 109.657Z" fill="white"/>
<path d="M117.93 108.401C117.93 110.728 119.363 112.208 121.164 112.208C122.242 112.208 123.017 111.719 123.425 111.045V112.103H125.673V102.321H123.425V105.745C122.978 105.07 122.137 104.621 121.164 104.621C119.363 104.621 117.93 106.075 117.93 108.401ZM123.425 108.415C123.425 109.591 122.676 110.239 121.821 110.239C120.98 110.239 120.217 109.578 120.217 108.401C120.217 107.225 120.98 106.591 121.821 106.591C122.676 106.591 123.425 107.238 123.425 108.415Z" fill="white"/>
<path d="M127.299 112.103H129.547V104.727H127.299V112.103ZM128.429 103.96C129.218 103.96 129.757 103.418 129.757 102.744C129.757 102.057 129.218 101.515 128.429 101.515C127.627 101.515 127.089 102.057 127.089 102.744C127.089 103.418 127.627 103.96 128.429 103.96Z" fill="white"/>
<path d="M131.53 109.538C131.53 111.455 132.595 112.103 134.12 112.103H135.264V110.186H134.462C133.962 110.186 133.778 110.001 133.778 109.565V106.604H135.251V104.727H133.778V102.929H131.53V104.727H130.637V106.604H131.53V109.538Z" fill="white"/>
<path d="M136.871 109.538C136.871 111.455 137.935 112.103 139.46 112.103H140.604V110.186H139.802C139.302 110.186 139.118 110.001 139.118 109.565V106.604H140.591V104.727H139.118V102.929H136.871V104.727H135.977V106.604H136.871V109.538Z" fill="white"/>
<path d="M144.104 108.679C144.104 107.41 144.721 107.04 145.786 107.04H146.404V104.648C145.418 104.648 144.616 105.176 144.104 105.956V104.727H141.856V112.103H144.104V108.679Z" fill="white"/>
<path d="M147.032 108.401C147.032 110.728 148.464 112.208 150.252 112.208C151.343 112.208 152.119 111.706 152.526 111.058V112.103H154.774V104.727H152.526V105.771C152.132 105.123 151.356 104.621 150.265 104.621C148.464 104.621 147.032 106.075 147.032 108.401ZM152.526 108.415C152.526 109.591 151.777 110.239 150.922 110.239C150.081 110.239 149.319 109.578 149.319 108.401C149.319 107.225 150.081 106.591 150.922 106.591C151.777 106.591 152.526 107.238 152.526 108.415Z" fill="white"/>
<path d="M160.738 112.103H163.262L160.738 108.441L163.196 104.727H160.764L159.581 106.762L158.175 104.727H155.651L158.135 108.335L155.717 112.103H158.148L159.331 110.054L160.738 112.103Z" fill="white"/>
<path d="M166.507 110.992C166.507 110.292 165.968 109.75 165.18 109.75C164.378 109.75 163.839 110.292 163.839 110.992C163.839 111.666 164.378 112.208 165.18 112.208C165.968 112.208 166.507 111.666 166.507 110.992Z" fill="white"/>
<path d="M167.391 108.415C167.391 110.754 168.916 112.208 171.072 112.208C172.912 112.208 174.213 111.138 174.594 109.432H172.202C172.005 109.974 171.65 110.278 171.032 110.278C170.23 110.278 169.678 109.644 169.678 108.415C169.678 107.185 170.23 106.551 171.032 106.551C171.65 106.551 172.018 106.881 172.202 107.397H174.594C174.213 105.639 172.912 104.621 171.072 104.621C168.916 104.621 167.391 106.088 167.391 108.415Z" fill="white"/>
<path d="M182.974 108.415C182.974 106.075 181.318 104.621 179.162 104.621C177.019 104.621 175.35 106.075 175.35 108.415C175.35 110.754 176.98 112.208 179.136 112.208C181.291 112.208 182.974 110.754 182.974 108.415ZM177.637 108.415C177.637 107.159 178.347 106.577 179.162 106.577C179.951 106.577 180.687 107.159 180.687 108.415C180.687 109.657 179.937 110.252 179.136 110.252C178.321 110.252 177.637 109.657 177.637 108.415Z" fill="white"/>
<path d="M194.275 112.103H196.51V107.793C196.51 105.811 195.34 104.648 193.526 104.648C192.461 104.648 191.541 105.242 191.054 106.022C190.555 105.137 189.661 104.648 188.557 104.648C187.597 104.648 186.848 105.057 186.414 105.652V104.727H184.166V112.103H186.414V108.097C186.414 107.133 186.966 106.604 187.821 106.604C188.675 106.604 189.227 107.133 189.227 108.097V112.103H191.462V108.097C191.462 107.133 192.014 106.604 192.868 106.604C193.723 106.604 194.275 107.133 194.275 108.097V112.103Z" fill="white"/>
<path d="M29.6524 119.016H24V128.295H29.6524V126.484H26.2478V124.448H29.258V122.704H26.2478V120.827H29.6524V119.016Z" fill="white"/>
<path d="M30.6647 124.594C30.6647 126.92 32.0976 128.401 33.8984 128.401C34.9763 128.401 35.7519 127.912 36.1594 127.237V128.295H38.4072V118.513H36.1594V121.937C35.7124 121.263 34.8712 120.813 33.8984 120.813C32.0976 120.813 30.6647 122.267 30.6647 124.594ZM36.1594 124.607C36.1594 125.783 35.4101 126.431 34.5557 126.431C33.7144 126.431 32.952 125.77 32.952 124.594C32.952 123.417 33.7144 122.783 34.5557 122.783C35.4101 122.783 36.1594 123.431 36.1594 124.607Z" fill="white"/>
<path d="M40.0333 128.295H42.2811V120.919H40.0333V128.295ZM41.1638 120.152C41.9525 120.152 42.4915 119.61 42.4915 118.936C42.4915 118.249 41.9525 117.707 41.1638 117.707C40.362 117.707 39.823 118.249 39.823 118.936C39.823 119.61 40.362 120.152 41.1638 120.152Z" fill="white"/>
<path d="M44.265 125.731C44.265 127.647 45.3298 128.295 46.8546 128.295H47.9982V126.378H47.1963C46.6968 126.378 46.5128 126.193 46.5128 125.757V122.796H47.9851V120.919H46.5128V119.121H44.265V120.919H43.3712V122.796H44.265V125.731Z" fill="white"/>
<path d="M48.7508 120.827H51.1957V128.295H53.4435V120.827H55.8885V119.016H48.7508V120.827Z" fill="white"/>
<path d="M59.2644 124.871C59.2644 123.602 59.8822 123.232 60.947 123.232H61.5648V120.84C60.5789 120.84 59.7771 121.369 59.2644 122.148V120.919H57.0166V128.295H59.2644V124.871Z" fill="white"/>
<path d="M62.1922 124.594C62.1922 126.92 63.6251 128.401 65.4128 128.401C66.5038 128.401 67.2794 127.898 67.6869 127.251V128.295H69.9347V120.919H67.6869V121.963C67.2925 121.316 66.517 120.813 65.4259 120.813C63.6251 120.813 62.1922 122.267 62.1922 124.594ZM67.6869 124.607C67.6869 125.783 66.9376 126.431 66.0832 126.431C65.2419 126.431 64.4795 125.77 64.4795 124.594C64.4795 123.417 65.2419 122.783 66.0832 122.783C66.9376 122.783 67.6869 123.431 67.6869 124.607Z" fill="white"/>
<path d="M75.8987 128.295H78.4225L75.8987 124.633L78.3568 120.919H75.925L74.7419 122.955L73.3354 120.919H70.8116L73.296 124.528L70.8773 128.295H73.3091L74.4922 126.246L75.8987 128.295Z" fill="white"/>
<path d="M81.6679 127.185C81.6679 126.484 81.129 125.942 80.3403 125.942C79.5384 125.942 78.9995 126.484 78.9995 127.185C78.9995 127.859 79.5384 128.401 80.3403 128.401C81.129 128.401 81.6679 127.859 81.6679 127.185Z" fill="white"/>
<path d="M88.0594 128.295H90.294V123.986C90.294 122.003 89.1636 120.84 87.4679 120.84C86.482 120.84 85.6933 121.276 85.2464 121.897V120.919H82.9986V128.295H85.2464V124.29C85.2464 123.285 85.7984 122.73 86.6529 122.73C87.5073 122.73 88.0594 123.285 88.0594 124.29V128.295Z" fill="white"/>
<path d="M92.0795 128.295H94.3273V122.796H95.5366V120.919H94.3273V120.853C94.3273 120.073 94.6296 119.809 95.4972 119.862V117.945C93.2626 117.826 92.0795 118.778 92.0795 120.708V120.919H91.2645V122.796H92.0795V128.295Z" fill="white"/>
<path d="M96.9478 125.731C96.9478 127.647 98.0125 128.295 99.5374 128.295H100.681V126.378H99.8791C99.3796 126.378 99.1956 126.193 99.1956 125.757V122.796H100.668V120.919H99.1956V119.121H96.9478V120.919H96.0539V122.796H96.9478V125.731Z" fill="white"/>
<path d="M104.692 117.522V130H106.94V117.522H104.692Z" fill="white"/>
<path d="M116.982 119.016H111.33V128.295H116.982V126.484H113.577V124.448H116.588V122.704H113.577V120.827H116.982V119.016Z" fill="white"/>
<path d="M117.994 124.594C117.994 126.92 119.427 128.401 121.228 128.401C122.306 128.401 123.082 127.912 123.489 127.237V128.295H125.737V118.513H123.489V121.937C123.042 121.263 122.201 120.813 121.228 120.813C119.427 120.813 117.994 122.267 117.994 124.594ZM123.489 124.607C123.489 125.783 122.74 126.431 121.885 126.431C121.044 126.431 120.282 125.77 120.282 124.594C120.282 123.417 121.044 122.783 121.885 122.783C122.74 122.783 123.489 123.431 123.489 124.607Z" fill="white"/>
<path d="M127.363 128.295H129.611V120.919H127.363V128.295ZM128.493 120.152C129.282 120.152 129.821 119.61 129.821 118.936C129.821 118.249 129.282 117.707 128.493 117.707C127.692 117.707 127.153 118.249 127.153 118.936C127.153 119.61 127.692 120.152 128.493 120.152Z" fill="white"/>
<path d="M131.595 125.731C131.595 127.647 132.659 128.295 134.184 128.295H135.328V126.378H134.526C134.026 126.378 133.842 126.193 133.842 125.757V122.796H135.315V120.919H133.842V119.121H131.595V120.919H130.701V122.796H131.595V125.731Z" fill="white"/>
<path d="M136.08 120.827H138.525V128.295H140.773V120.827H143.218V119.016H136.08V120.827Z" fill="white"/>
<path d="M146.594 124.871C146.594 123.602 147.212 123.232 148.277 123.232H148.894V120.84C147.909 120.84 147.107 121.369 146.594 122.148V120.919H144.346V128.295H146.594V124.871Z" fill="white"/>
<path d="M149.522 124.594C149.522 126.92 150.955 128.401 152.742 128.401C153.833 128.401 154.609 127.898 155.017 127.251V128.295H157.264V120.919H155.017V121.963C154.622 121.316 153.847 120.813 152.756 120.813C150.955 120.813 149.522 122.267 149.522 124.594ZM155.017 124.607C155.017 125.783 154.267 126.431 153.413 126.431C152.572 126.431 151.809 125.77 151.809 124.594C151.809 123.417 152.572 122.783 153.413 122.783C154.267 122.783 155.017 123.431 155.017 124.607Z" fill="white"/>
<path d="M163.228 128.295H165.752L163.228 124.633L165.687 120.919H163.255L162.072 122.955L160.665 120.919H158.141L160.626 124.528L158.207 128.295H160.639L161.822 126.246L163.228 128.295Z" fill="white"/>
<path d="M168.998 127.185C168.998 126.484 168.459 125.942 167.67 125.942C166.868 125.942 166.329 126.484 166.329 127.185C166.329 127.859 166.868 128.401 167.67 128.401C168.459 128.401 168.998 127.859 168.998 127.185Z" fill="white"/>
<path d="M169.881 124.607C169.881 126.947 171.406 128.401 173.562 128.401C175.402 128.401 176.704 127.33 177.085 125.625H174.692C174.495 126.167 174.14 126.471 173.522 126.471C172.721 126.471 172.169 125.836 172.169 124.607C172.169 123.378 172.721 122.743 173.522 122.743C174.14 122.743 174.508 123.074 174.692 123.589H177.085C176.704 121.831 175.402 120.813 173.562 120.813C171.406 120.813 169.881 122.281 169.881 124.607Z" fill="white"/>
<path d="M185.464 124.607C185.464 122.267 183.808 120.813 181.652 120.813C179.51 120.813 177.84 122.267 177.84 124.607C177.84 126.947 179.47 128.401 181.626 128.401C183.782 128.401 185.464 126.947 185.464 124.607ZM180.127 124.607C180.127 123.351 180.837 122.77 181.652 122.77C182.441 122.77 183.177 123.351 183.177 124.607C183.177 125.849 182.428 126.444 181.626 126.444C180.811 126.444 180.127 125.849 180.127 124.607Z" fill="white"/>
<path d="M196.765 128.295H199V123.986C199 122.003 197.83 120.84 196.016 120.84C194.951 120.84 194.031 121.435 193.545 122.214C193.045 121.329 192.151 120.84 191.047 120.84C190.088 120.84 189.338 121.25 188.905 121.844V120.919H186.657V128.295H188.905V124.29C188.905 123.325 189.457 122.796 190.311 122.796C191.166 122.796 191.718 123.325 191.718 124.29V128.295H193.952V124.29C193.952 123.325 194.504 122.796 195.359 122.796C196.213 122.796 196.765 123.325 196.765 124.29V128.295Z" fill="white"/>
</g>
<defs>
<filter id="filter0_d" x="0" y="0" width="223" height="168" filterUnits="userSpaceOnUse" color-interpolation-filters="sRGB">
<feFlood flood-opacity="0" result="BackgroundImageFix"/>
<feColorMatrix in="SourceAlpha" type="matrix" values="0 0 0 0 0 0 0 0 0 0 0 0 0 0 0 0 0 0 127 0" result="hardAlpha"/>
<feOffset dy="14"/>
<feGaussianBlur stdDeviation="12"/>
<feComposite in2="hardAlpha" operator="out"/>
<feColorMatrix type="matrix" values="0 0 0 0 0 0 0 0 0 0 0 0 0 0 0 0 0 0 0.25 0"/>
<feBlend mode="normal" in2="BackgroundImageFix" result="effect1_dropShadow"/>
<feBlend mode="normal" in="SourceGraphic" in2="effect1_dropShadow" result="shape"/>
</filter>
</defs>
</svg>
