<svg width="553" height="280" viewBox="0 0 553 280" fill="none" xmlns="http://www.w3.org/2000/svg">
<path d="M32.8196 41.705C32.8196 44.68 31.2046 45.87 27.8046 45.87H19.2196V37.37H27.8046C31.2046 37.37 32.8196 38.815 32.8196 41.705ZM31.5446 20.115C31.5446 23.005 29.9296 24.28 26.5296 24.28H19.2196V15.78H26.5296C29.9296 15.78 31.5446 17.14 31.5446 20.115ZM52.1146 44.51C52.1146 37.795 48.0346 31.93 40.6396 30.145C46.5896 28.615 50.7546 23.685 50.7546 16.46C50.7546 6.005 43.0196 0.82 31.0346 0.82H0.349609V61H31.8846C44.9746 61 52.1146 55.05 52.1146 44.51ZM90.2451 21.73C90.2451 25.3 88.3751 26.83 84.8051 26.83H77.3251V16.63H84.8051C88.3751 16.63 90.2451 18.67 90.2451 21.73ZM58.4551 0.82V61H77.3251V39.41H77.4101L88.7151 61H109.455L96.3651 37.965C104.95 35.16 109.37 28.445 109.37 20.54C109.37 9.49 101.635 0.82 86.5051 0.82H58.4551ZM132.738 42.725V61H151.608V42.725L173.198 0.82H151.948L142.343 22.155L132.738 0.82H111.148L132.738 42.725ZM219.053 61H238.943L217.013 0.82H195.253L173.238 61H193.043L196.018 51.905H216.078L219.053 61ZM211.488 37.71H200.608L206.048 20.965L211.488 37.71ZM282.075 0.82V31.59L262.1 0.82H243.23V61H262.1V30.74L282.075 61H300.945V0.82H282.075ZM356.384 41.705C356.384 44.68 354.769 45.87 351.369 45.87H342.784V37.37H351.369C354.769 37.37 356.384 38.815 356.384 41.705ZM355.109 20.115C355.109 23.005 353.494 24.28 350.094 24.28H342.784V15.78H350.094C353.494 15.78 355.109 17.14 355.109 20.115ZM375.679 44.51C375.679 37.795 371.599 31.93 364.204 30.145C370.154 28.615 374.319 23.685 374.319 16.46C374.319 6.005 366.584 0.82 354.599 0.82H323.914V61H355.449C368.539 61 375.679 55.05 375.679 44.51ZM423.585 61H443.475L421.545 0.82H399.785L377.77 61H397.575L400.55 51.905H420.61L423.585 61ZM416.02 37.71H405.14L410.58 20.965L416.02 37.71ZM447.762 0.82V61H484.822V46.72H466.632V0.82H447.762ZM490.76 0.82V61H527.82V46.72H509.63V0.82H490.76ZM533.758 61H552.628V0.82H533.758V61ZM181.898 141H190.778V130.32H198.778V123.64H190.778V119.72H201.898V112.68H181.898V141ZM233.226 126.72C233.226 118.2 226.786 112.2 218.706 112.2C210.666 112.2 204.106 118.2 204.106 126.72C204.106 135.24 210.666 141.28 218.706 141.28C226.706 141.28 233.226 135.24 233.226 126.72ZM213.146 126.72C213.146 122.88 215.066 120.4 218.706 120.4C222.266 120.4 224.226 122.88 224.226 126.72C224.226 130.48 222.266 133 218.706 133C215.066 133 213.146 130.48 213.146 126.72ZM236.27 128.64C236.27 137 241.47 141.28 248.55 141.28C255.63 141.28 261.35 137 261.35 128.64V112.68H252.51V128.64C252.51 131.08 251.43 132.88 248.75 132.88C246.07 132.88 245.11 131.08 245.11 128.64V112.68H236.27V128.64ZM283.46 112.68V127.16L274.06 112.68H265.18V141H274.06V126.76L283.46 141H292.34V112.68H283.46ZM308.152 112.68H296.352V141H308.152C317.192 141 322.872 134.84 322.872 126.76C322.872 118.6 317.192 112.68 308.152 112.68ZM305.232 133.08V120.44H307.352C311.272 120.44 313.872 122.64 313.872 126.76C313.872 130.88 311.272 133.08 307.352 133.08H305.232ZM344.958 112.68H326.078V141H344.958V133.92H334.958V129.92H343.758V123.24H334.958V119.76H344.958V112.68ZM363.265 122.52C363.265 124.2 362.385 124.92 360.705 124.92H357.185V120.12H360.705C362.385 120.12 363.265 121.08 363.265 122.52ZM348.305 112.68V141H357.185V130.84H357.225L362.545 141H372.305L366.145 130.16C370.185 128.84 372.265 125.68 372.265 121.96C372.265 116.76 368.625 112.68 361.505 112.68H348.305ZM142.474 187.03L145.504 187L150.544 170.17L155.404 187H158.464L164.524 166.09H161.584L156.994 183.76L152.194 166.09H149.134L144.094 183.82L139.534 166.09H136.624L142.474 187.03ZM178.761 166.06H167.511V187H178.761V184.75H170.241V177.55H177.861V175.3H170.241V168.31H178.761V166.06ZM194.772 181.12C194.772 183.4 193.152 184.75 190.452 184.75H185.622V177.37H190.362C193.032 177.37 194.772 178.81 194.772 181.12ZM194.232 171.73C194.232 173.86 192.762 175.12 190.212 175.12H185.622V168.34H190.152C192.822 168.34 194.232 169.66 194.232 171.73ZM197.502 181.39C197.502 178.81 195.642 176.62 193.362 176.23C195.372 175.57 197.022 174.04 197.022 171.4C197.022 168.49 194.802 166.09 190.392 166.09H182.892V187H190.692C195.012 187 197.502 184.54 197.502 181.39ZM200.78 170.77H203.45C203.72 168.67 205.25 167.23 207.8 167.23C210.41 167.23 211.79 168.67 211.79 170.74C211.79 173.26 209.84 174.37 206.21 174.4H205.49V176.68H206.18C210.08 176.68 212.21 177.85 212.21 180.91C212.21 183.13 210.83 184.84 207.92 184.84C205.04 184.84 203.36 183.07 203.09 180.76H200.45C200.78 184.96 203.84 187.15 207.95 187.15C212.48 187.15 214.82 184.51 214.82 181.15C214.82 178.03 213.11 176.17 210.59 175.57V175.42C212.87 174.91 214.43 172.96 214.43 170.47C214.43 167.35 212.12 164.89 207.89 164.89C203.87 164.89 201.05 167.05 200.78 170.77ZM225.935 176.53C225.935 182.8 230.525 187.18 236.375 187.18C240.905 187.18 244.505 184.93 246.065 180.91H242.795C241.655 183.4 239.435 184.81 236.375 184.81C231.995 184.81 228.725 181.63 228.725 176.53C228.725 171.4 231.995 168.22 236.375 168.22C239.435 168.22 241.655 169.63 242.795 172.15H246.065C244.505 168.1 240.905 165.82 236.375 165.82C230.525 165.82 225.935 170.26 225.935 176.53ZM270.108 176.53C270.108 170.26 265.518 165.85 259.608 165.85C253.728 165.85 249.108 170.26 249.108 176.53C249.108 182.8 253.728 187.21 259.608 187.21C265.518 187.21 270.108 182.8 270.108 176.53ZM251.898 176.53C251.898 171.4 255.198 168.22 259.608 168.22C264.018 168.22 267.318 171.4 267.318 176.53C267.318 181.63 264.018 184.84 259.608 184.84C255.198 184.84 251.898 181.63 251.898 176.53ZM287.422 166.06V182.68L276.442 166.06H273.712V187H276.442V170.35L287.422 187H290.152V166.06H287.422ZM308.396 181.3C308.396 173.56 297.116 176.92 297.116 171.52C297.116 169.27 298.886 168.1 301.136 168.16C303.686 168.19 305.006 169.78 305.186 171.19H308.186C307.856 168.01 305.246 165.82 301.256 165.82C297.116 165.82 294.326 168.16 294.326 171.61C294.326 179.38 305.636 175.78 305.636 181.42C305.636 183.4 304.076 184.9 301.436 184.9C298.526 184.9 297.296 183.16 297.116 181.42H294.206C294.266 184.87 297.236 187.21 301.436 187.21C305.966 187.21 308.396 184.27 308.396 181.3ZM312.354 179.29C312.354 184.72 315.894 187.21 320.214 187.21C324.534 187.21 328.104 184.72 328.104 179.29V166.09H325.374V179.32C325.374 183.16 323.334 184.81 320.244 184.81C317.154 184.81 315.084 183.16 315.084 179.32V166.09H312.354V179.29ZM332.658 166.09V187H342.708V184.78H335.388V166.09H332.658ZM344.317 168.31H350.047V187H352.777V168.31H358.477V166.09H344.317V168.31ZM375.877 187H378.757L371.227 166.21H368.077L360.517 187H363.397L365.077 182.35H374.197L375.877 187ZM373.417 180.13H365.857L369.637 169.57L373.417 180.13ZM395.762 166.06V182.68L384.782 166.06H382.052V187H384.782V170.35L395.762 187H398.492V166.06H395.762ZM401.856 168.31H407.586V187H410.316V168.31H416.016V166.09H401.856V168.31ZM125.754 222.53C125.754 228.8 130.344 233.18 136.194 233.18C140.724 233.18 144.324 230.93 145.884 226.91H142.614C141.474 229.4 139.254 230.81 136.194 230.81C131.814 230.81 128.544 227.63 128.544 222.53C128.544 217.4 131.814 214.22 136.194 214.22C139.254 214.22 141.474 215.63 142.614 218.15H145.884C144.324 214.1 140.724 211.82 136.194 211.82C130.344 211.82 125.754 216.26 125.754 222.53ZM161.138 218.24C161.138 220.58 159.788 222.26 156.698 222.26H152.678V214.34H156.698C159.818 214.34 161.138 215.87 161.138 218.24ZM149.948 212.09V233H152.678V224.45H155.978L160.958 233H164.228L158.978 224.24C162.488 223.46 163.958 220.91 163.958 218.24C163.958 214.82 161.618 212.09 156.698 212.09H149.948ZM179.45 212.06H168.2V233H179.45V230.75H170.93V223.55H178.55V221.3H170.93V214.31H179.45V212.06ZM197.621 233H200.501L192.971 212.21H189.821L182.261 233H185.141L186.821 228.35H195.941L197.621 233ZM195.161 226.13H187.601L191.381 215.57L195.161 226.13ZM202.505 214.31H208.235V233H210.965V214.31H216.665V212.09H202.505V214.31ZM220.026 233H222.756V212.09H220.026V233ZM235.239 230.12L228.669 212.09H225.759L233.649 233H236.799L244.689 212.09H241.809L235.239 230.12ZM258.932 212.06H247.682V233H258.932V230.75H250.412V223.55H258.032V221.3H250.412V214.31H258.932V212.06ZM277.571 212.09H271.061V233H277.571C284.441 233 288.671 229.07 288.671 222.59C288.671 216.11 284.441 212.09 277.571 212.09ZM273.791 230.75V214.31H277.571C283.031 214.31 285.881 217.49 285.881 222.59C285.881 227.69 283.031 230.75 277.571 230.75H273.791ZM303.522 212.06H292.272V233H303.522V230.75H295.002V223.55H302.622V221.3H295.002V214.31H303.522V212.06ZM315.483 230.12L308.913 212.09H306.003L313.893 233H317.043L324.933 212.09H322.053L315.483 230.12ZM339.176 212.06H327.926V233H339.176V230.75H330.656V223.55H338.276V221.3H330.656V214.31H339.176V212.06ZM343.307 212.09V233H353.357V230.78H346.037V212.09H343.307ZM376.236 222.53C376.236 216.26 371.646 211.85 365.736 211.85C359.856 211.85 355.236 216.26 355.236 222.53C355.236 228.8 359.856 233.21 365.736 233.21C371.646 233.21 376.236 228.8 376.236 222.53ZM358.026 222.53C358.026 217.4 361.326 214.22 365.736 214.22C370.146 214.22 373.446 217.4 373.446 222.53C373.446 227.63 370.146 230.84 365.736 230.84C361.326 230.84 358.026 227.63 358.026 222.53ZM382.57 222.02V214.34H386.59C389.71 214.34 391.03 215.78 391.03 218.21C391.03 220.55 389.71 222.02 386.59 222.02H382.57ZM393.82 218.21C393.82 214.79 391.51 212.09 386.59 212.09H379.84V233H382.57V224.27H386.59C391.78 224.27 393.82 221.39 393.82 218.21ZM408.463 212.06H397.213V233H408.463V230.75H399.943V223.55H407.563V221.3H399.943V214.31H408.463V212.06ZM423.784 218.24C423.784 220.58 422.434 222.26 419.344 222.26H415.324V214.34H419.344C422.464 214.34 423.784 215.87 423.784 218.24ZM412.594 212.09V233H415.324V224.45H418.624L423.604 233H426.874L421.624 224.24C425.134 223.46 426.604 220.91 426.604 218.24C426.604 214.82 424.264 212.09 419.344 212.09H412.594ZM130.853 270.46C130.853 271.16 130.473 271.44 129.673 271.44H127.653V269.44H129.673C130.473 269.44 130.853 269.78 130.853 270.46ZM130.553 265.38C130.553 266.06 130.173 266.36 129.373 266.36H127.653V264.36H129.373C130.173 264.36 130.553 264.68 130.553 265.38ZM135.393 271.12C135.393 269.54 134.433 268.16 132.693 267.74C134.093 267.38 135.073 266.22 135.073 264.52C135.073 262.06 133.253 260.84 130.433 260.84H123.213V275H130.633C133.713 275 135.393 273.6 135.393 271.12ZM144.365 265.76C144.365 266.6 143.925 266.96 143.085 266.96H141.325V264.56H143.085C143.925 264.56 144.365 265.04 144.365 265.76ZM136.885 260.84V275H141.325V269.92H141.345L144.005 275H148.885L145.805 269.58C147.825 268.92 148.865 267.34 148.865 265.48C148.865 262.88 147.045 260.84 143.485 260.84H136.885ZM154.363 270.7V275H158.803V270.7L163.883 260.84H158.883L156.623 265.86L154.363 260.84H149.283L154.363 270.7ZM174.673 275H179.353L174.193 260.84H169.073L163.893 275H168.553L169.253 272.86H173.973L174.673 275ZM172.893 269.52H170.333L171.613 265.58L172.893 269.52ZM189.501 260.84V268.08L184.801 260.84H180.361V275H184.801V267.88L189.501 275H193.941V260.84H189.501ZM203.587 270.46C203.587 271.16 203.207 271.44 202.407 271.44H200.387V269.44H202.407C203.207 269.44 203.587 269.78 203.587 270.46ZM203.287 265.38C203.287 266.06 202.907 266.36 202.107 266.36H200.387V264.36H202.107C202.907 264.36 203.287 264.68 203.287 265.38ZM208.127 271.12C208.127 269.54 207.167 268.16 205.427 267.74C206.827 267.38 207.807 266.22 207.807 264.52C207.807 262.06 205.987 260.84 203.167 260.84H195.947V275H203.367C206.447 275 208.127 273.6 208.127 271.12ZM219.399 275H224.079L218.919 260.84H213.799L208.619 275H213.279L213.979 272.86H218.699L219.399 275ZM217.619 269.52H215.059L216.339 265.58L217.619 269.52ZM225.088 260.84V275H233.808V271.64H229.528V260.84H225.088ZM235.205 260.84V275H243.925V271.64H239.645V260.84H235.205ZM245.322 275H249.762V260.84H245.322V275ZM266.328 275.08C269.928 275.08 271.828 272.24 271.828 268.7C271.828 264.3 268.588 261.26 263.668 261.26C257.248 261.26 252.288 265.82 252.288 272.28C252.288 276.9 255.428 279.9 260.228 279.9C261.948 279.9 263.548 279.58 264.908 278.98L264.148 276.2C263.168 276.62 261.888 276.92 260.428 276.92C257.328 276.92 255.488 274.96 255.488 271.96C255.488 267.7 258.868 264.18 263.288 264.18C266.528 264.18 268.568 266.06 268.568 268.82C268.568 270.64 268.088 272.24 266.948 272.24C266.348 272.24 266.228 271.74 266.368 270.98L267.148 266.56H263.708L263.508 267.72C263.248 266.96 262.508 266.46 261.388 266.46C258.808 266.46 257.028 269.1 257.028 271.94C257.028 273.98 258.208 275.14 260.128 275.14C261.528 275.14 262.668 274.58 263.348 273.54C263.808 274.52 264.848 275.08 266.328 275.08ZM262.908 270.52C262.908 271.44 262.228 272.06 261.588 272.06C261.068 272.06 260.728 271.7 260.728 271.1C260.728 270.16 261.368 269.52 262.048 269.52C262.548 269.52 262.908 269.9 262.908 270.52ZM283.786 260.84H274.346V275H283.786V271.46H278.786V269.46H283.186V266.12H278.786V264.38H283.786V260.84ZM291.359 260.84H285.459V275H291.359C295.879 275 298.719 271.92 298.719 267.88C298.719 263.8 295.879 260.84 291.359 260.84ZM289.899 271.04V264.72H290.959C292.919 264.72 294.219 265.82 294.219 267.88C294.219 269.94 292.919 271.04 290.959 271.04H289.899ZM300.322 275H304.762V260.84H300.322V275ZM305.968 264.36H309.688V275H314.128V264.36H317.888V260.84H305.968V264.36ZM318.292 264.36H322.012V275H326.452V264.36H330.212V260.84H318.292V264.36ZM338.896 265.76C338.896 266.6 338.456 266.96 337.616 266.96H335.856V264.56H337.616C338.456 264.56 338.896 265.04 338.896 265.76ZM331.416 260.84V275H335.856V269.92H335.876L338.536 275H343.416L340.336 269.58C342.356 268.92 343.396 267.34 343.396 265.48C343.396 262.88 341.576 260.84 338.016 260.84H331.416ZM354.594 275H359.274L354.114 260.84H348.994L343.814 275H348.474L349.174 272.86H353.894L354.594 275ZM352.814 269.52H350.254L351.534 265.58L352.814 269.52ZM369.303 275H374.563L369.603 268L374.183 260.84H369.123L367.043 264.38L364.543 260.84H359.283L364.143 267.7L359.483 275H364.543L366.703 271.32L369.303 275ZM380.297 272.98C380.297 271.74 379.317 270.76 377.757 270.76C376.177 270.76 375.197 271.74 375.197 272.98C375.197 274.2 376.177 275.16 377.757 275.16C379.317 275.16 380.297 274.2 380.297 272.98ZM381.543 267.9C381.543 272.12 384.203 275.1 388.543 275.1C392.283 275.1 394.823 272.86 395.403 269.52H390.723C390.303 270.46 389.463 271 388.463 271C386.963 271 386.043 269.78 386.043 267.9C386.043 266.02 386.963 264.8 388.463 264.8C389.463 264.8 390.303 265.34 390.723 266.28H395.403C394.823 262.94 392.283 260.7 388.543 260.7C384.203 260.7 381.543 263.68 381.543 267.9ZM411.162 267.86C411.162 263.6 407.942 260.6 403.902 260.6C399.882 260.6 396.602 263.6 396.602 267.86C396.602 272.12 399.882 275.14 403.902 275.14C407.902 275.14 411.162 272.12 411.162 267.86ZM401.122 267.86C401.122 265.94 402.082 264.7 403.902 264.7C405.682 264.7 406.662 265.94 406.662 267.86C406.662 269.74 405.682 271 403.902 271C402.082 271 401.122 269.74 401.122 267.86ZM412.764 275H417.204V267.94L419.384 275H423.184L425.364 267.94V275H429.784V260.84H424.364L421.324 269.34L418.204 260.84H412.764V275Z" fill="white"/>
</svg>
