<svg width="614" height="327" viewBox="0 0 614 327" fill="none" xmlns="http://www.w3.org/2000/svg">
<path d="M63.3196 41.705C63.3196 44.68 61.7046 45.87 58.3046 45.87H49.7196V37.37H58.3046C61.7046 37.37 63.3196 38.815 63.3196 41.705ZM62.0446 20.115C62.0446 23.005 60.4296 24.28 57.0296 24.28H49.7196V15.78H57.0296C60.4296 15.78 62.0446 17.14 62.0446 20.115ZM82.6146 44.51C82.6146 37.795 78.5346 31.93 71.1396 30.145C77.0896 28.615 81.2546 23.685 81.2546 16.46C81.2546 6.005 73.5196 0.82 61.5346 0.82H30.8496V61H62.3846C75.4746 61 82.6146 55.05 82.6146 44.51ZM120.745 21.73C120.745 25.3 118.875 26.83 115.305 26.83H107.825V16.63H115.305C118.875 16.63 120.745 18.67 120.745 21.73ZM88.9551 0.82V61H107.825V39.41H107.91L119.215 61H139.955L126.865 37.965C135.45 35.16 139.87 28.445 139.87 20.54C139.87 9.49 132.135 0.82 117.005 0.82H88.9551ZM163.238 42.725V61H182.108V42.725L203.698 0.82H182.448L172.843 22.155L163.238 0.82H141.648L163.238 42.725ZM249.553 61H269.443L247.513 0.82H225.753L203.738 61H223.543L226.518 51.905H246.578L249.553 61ZM241.988 37.71H231.108L236.548 20.965L241.988 37.71ZM312.575 0.82V31.59L292.6 0.82H273.73V61H292.6V30.74L312.575 61H331.445V0.82H312.575ZM386.884 41.705C386.884 44.68 385.269 45.87 381.869 45.87H373.284V37.37H381.869C385.269 37.37 386.884 38.815 386.884 41.705ZM385.609 20.115C385.609 23.005 383.994 24.28 380.594 24.28H373.284V15.78H380.594C383.994 15.78 385.609 17.14 385.609 20.115ZM406.179 44.51C406.179 37.795 402.099 31.93 394.704 30.145C400.654 28.615 404.819 23.685 404.819 16.46C404.819 6.005 397.084 0.82 385.099 0.82H354.414V61H385.949C399.039 61 406.179 55.05 406.179 44.51ZM454.085 61H473.975L452.045 0.82H430.285L408.27 61H428.075L431.05 51.905H451.11L454.085 61ZM446.52 37.71H435.64L441.08 20.965L446.52 37.71ZM478.262 0.82V61H515.322V46.72H497.132V0.82H478.262ZM521.26 0.82V61H558.32V46.72H540.13V0.82H521.26ZM564.258 61H583.128V0.82H564.258V61ZM212.398 141H221.278V130.32H229.278V123.64H221.278V119.72H232.398V112.68H212.398V141ZM263.726 126.72C263.726 118.2 257.286 112.2 249.206 112.2C241.166 112.2 234.606 118.2 234.606 126.72C234.606 135.24 241.166 141.28 249.206 141.28C257.206 141.28 263.726 135.24 263.726 126.72ZM243.646 126.72C243.646 122.88 245.566 120.4 249.206 120.4C252.766 120.4 254.726 122.88 254.726 126.72C254.726 130.48 252.766 133 249.206 133C245.566 133 243.646 130.48 243.646 126.72ZM266.77 128.64C266.77 137 271.97 141.28 279.05 141.28C286.13 141.28 291.85 137 291.85 128.64V112.68H283.01V128.64C283.01 131.08 281.93 132.88 279.25 132.88C276.57 132.88 275.61 131.08 275.61 128.64V112.68H266.77V128.64ZM313.96 112.68V127.16L304.56 112.68H295.68V141H304.56V126.76L313.96 141H322.84V112.68H313.96ZM338.652 112.68H326.852V141H338.652C347.692 141 353.372 134.84 353.372 126.76C353.372 118.6 347.692 112.68 338.652 112.68ZM335.732 133.08V120.44H337.852C341.772 120.44 344.372 122.64 344.372 126.76C344.372 130.88 341.772 133.08 337.852 133.08H335.732ZM375.458 112.68H356.578V141H375.458V133.92H365.458V129.92H374.258V123.24H365.458V119.76H375.458V112.68ZM393.765 122.52C393.765 124.2 392.885 124.92 391.205 124.92H387.685V120.12H391.205C392.885 120.12 393.765 121.08 393.765 122.52ZM378.805 112.68V141H387.685V130.84H387.725L393.045 141H402.805L396.645 130.16C400.685 128.84 402.765 125.68 402.765 121.96C402.765 116.76 399.125 112.68 392.005 112.68H378.805ZM172.974 187.03L176.004 187L181.044 170.17L185.904 187H188.964L195.024 166.09H192.084L187.494 183.76L182.694 166.09H179.634L174.594 183.82L170.034 166.09H167.124L172.974 187.03ZM209.261 166.06H198.011V187H209.261V184.75H200.741V177.55H208.361V175.3H200.741V168.31H209.261V166.06ZM225.272 181.12C225.272 183.4 223.652 184.75 220.952 184.75H216.122V177.37H220.862C223.532 177.37 225.272 178.81 225.272 181.12ZM224.732 171.73C224.732 173.86 223.262 175.12 220.712 175.12H216.122V168.34H220.652C223.322 168.34 224.732 169.66 224.732 171.73ZM228.002 181.39C228.002 178.81 226.142 176.62 223.862 176.23C225.872 175.57 227.522 174.04 227.522 171.4C227.522 168.49 225.302 166.09 220.892 166.09H213.392V187H221.192C225.512 187 228.002 184.54 228.002 181.39ZM231.28 170.77H233.95C234.22 168.67 235.75 167.23 238.3 167.23C240.91 167.23 242.29 168.67 242.29 170.74C242.29 173.26 240.34 174.37 236.71 174.4H235.99V176.68H236.68C240.58 176.68 242.71 177.85 242.71 180.91C242.71 183.13 241.33 184.84 238.42 184.84C235.54 184.84 233.86 183.07 233.59 180.76H230.95C231.28 184.96 234.34 187.15 238.45 187.15C242.98 187.15 245.32 184.51 245.32 181.15C245.32 178.03 243.61 176.17 241.09 175.57V175.42C243.37 174.91 244.93 172.96 244.93 170.47C244.93 167.35 242.62 164.89 238.39 164.89C234.37 164.89 231.55 167.05 231.28 170.77ZM256.435 176.53C256.435 182.8 261.025 187.18 266.875 187.18C271.405 187.18 275.005 184.93 276.565 180.91H273.295C272.155 183.4 269.935 184.81 266.875 184.81C262.495 184.81 259.225 181.63 259.225 176.53C259.225 171.4 262.495 168.22 266.875 168.22C269.935 168.22 272.155 169.63 273.295 172.15H276.565C275.005 168.1 271.405 165.82 266.875 165.82C261.025 165.82 256.435 170.26 256.435 176.53ZM300.608 176.53C300.608 170.26 296.018 165.85 290.108 165.85C284.228 165.85 279.608 170.26 279.608 176.53C279.608 182.8 284.228 187.21 290.108 187.21C296.018 187.21 300.608 182.8 300.608 176.53ZM282.398 176.53C282.398 171.4 285.698 168.22 290.108 168.22C294.518 168.22 297.818 171.4 297.818 176.53C297.818 181.63 294.518 184.84 290.108 184.84C285.698 184.84 282.398 181.63 282.398 176.53ZM317.922 166.06V182.68L306.942 166.06H304.212V187H306.942V170.35L317.922 187H320.652V166.06H317.922ZM338.896 181.3C338.896 173.56 327.616 176.92 327.616 171.52C327.616 169.27 329.386 168.1 331.636 168.16C334.186 168.19 335.506 169.78 335.686 171.19H338.686C338.356 168.01 335.746 165.82 331.756 165.82C327.616 165.82 324.826 168.16 324.826 171.61C324.826 179.38 336.136 175.78 336.136 181.42C336.136 183.4 334.576 184.9 331.936 184.9C329.026 184.9 327.796 183.16 327.616 181.42H324.706C324.766 184.87 327.736 187.21 331.936 187.21C336.466 187.21 338.896 184.27 338.896 181.3ZM342.854 179.29C342.854 184.72 346.394 187.21 350.714 187.21C355.034 187.21 358.604 184.72 358.604 179.29V166.09H355.874V179.32C355.874 183.16 353.834 184.81 350.744 184.81C347.654 184.81 345.584 183.16 345.584 179.32V166.09H342.854V179.29ZM363.158 166.09V187H373.208V184.78H365.888V166.09H363.158ZM374.817 168.31H380.547V187H383.277V168.31H388.977V166.09H374.817V168.31ZM406.377 187H409.257L401.727 166.21H398.577L391.017 187H393.897L395.577 182.35H404.697L406.377 187ZM403.917 180.13H396.357L400.137 169.57L403.917 180.13ZM426.262 166.06V182.68L415.282 166.06H412.552V187H415.282V170.35L426.262 187H428.992V166.06H426.262ZM432.356 168.31H438.086V187H440.816V168.31H446.516V166.09H432.356V168.31ZM156.254 222.53C156.254 228.8 160.844 233.18 166.694 233.18C171.224 233.18 174.824 230.93 176.384 226.91H173.114C171.974 229.4 169.754 230.81 166.694 230.81C162.314 230.81 159.044 227.63 159.044 222.53C159.044 217.4 162.314 214.22 166.694 214.22C169.754 214.22 171.974 215.63 173.114 218.15H176.384C174.824 214.1 171.224 211.82 166.694 211.82C160.844 211.82 156.254 216.26 156.254 222.53ZM191.638 218.24C191.638 220.58 190.288 222.26 187.198 222.26H183.178V214.34H187.198C190.318 214.34 191.638 215.87 191.638 218.24ZM180.448 212.09V233H183.178V224.45H186.478L191.458 233H194.728L189.478 224.24C192.988 223.46 194.458 220.91 194.458 218.24C194.458 214.82 192.118 212.09 187.198 212.09H180.448ZM209.95 212.06H198.7V233H209.95V230.75H201.43V223.55H209.05V221.3H201.43V214.31H209.95V212.06ZM228.121 233H231.001L223.471 212.21H220.321L212.761 233H215.641L217.321 228.35H226.441L228.121 233ZM225.661 226.13H218.101L221.881 215.57L225.661 226.13ZM233.005 214.31H238.735V233H241.465V214.31H247.165V212.09H233.005V214.31ZM250.526 233H253.256V212.09H250.526V233ZM265.739 230.12L259.169 212.09H256.259L264.149 233H267.299L275.189 212.09H272.309L265.739 230.12ZM289.432 212.06H278.182V233H289.432V230.75H280.912V223.55H288.532V221.3H280.912V214.31H289.432V212.06ZM308.071 212.09H301.561V233H308.071C314.941 233 319.171 229.07 319.171 222.59C319.171 216.11 314.941 212.09 308.071 212.09ZM304.291 230.75V214.31H308.071C313.531 214.31 316.381 217.49 316.381 222.59C316.381 227.69 313.531 230.75 308.071 230.75H304.291ZM334.022 212.06H322.772V233H334.022V230.75H325.502V223.55H333.122V221.3H325.502V214.31H334.022V212.06ZM345.983 230.12L339.413 212.09H336.503L344.393 233H347.543L355.433 212.09H352.553L345.983 230.12ZM369.676 212.06H358.426V233H369.676V230.75H361.156V223.55H368.776V221.3H361.156V214.31H369.676V212.06ZM373.807 212.09V233H383.857V230.78H376.537V212.09H373.807ZM406.736 222.53C406.736 216.26 402.146 211.85 396.236 211.85C390.356 211.85 385.736 216.26 385.736 222.53C385.736 228.8 390.356 233.21 396.236 233.21C402.146 233.21 406.736 228.8 406.736 222.53ZM388.526 222.53C388.526 217.4 391.826 214.22 396.236 214.22C400.646 214.22 403.946 217.4 403.946 222.53C403.946 227.63 400.646 230.84 396.236 230.84C391.826 230.84 388.526 227.63 388.526 222.53ZM413.07 222.02V214.34H417.09C420.21 214.34 421.53 215.78 421.53 218.21C421.53 220.55 420.21 222.02 417.09 222.02H413.07ZM424.32 218.21C424.32 214.79 422.01 212.09 417.09 212.09H410.34V233H413.07V224.27H417.09C422.28 224.27 424.32 221.39 424.32 218.21ZM438.963 212.06H427.713V233H438.963V230.75H430.443V223.55H438.063V221.3H430.443V214.31H438.963V212.06ZM454.284 218.24C454.284 220.58 452.934 222.26 449.844 222.26H445.824V214.34H449.844C452.964 214.34 454.284 215.87 454.284 218.24ZM443.094 212.09V233H445.824V224.45H449.124L454.104 233H457.374L452.124 224.24C455.634 223.46 457.104 220.91 457.104 218.24C457.104 214.82 454.764 212.09 449.844 212.09H443.094ZM15.7058 307.92C15.7058 309.32 14.9458 309.88 13.3458 309.88H9.30578V305.88H13.3458C14.9458 305.88 15.7058 306.56 15.7058 307.92ZM15.1058 297.76C15.1058 299.12 14.3458 299.72 12.7458 299.72H9.30578V295.72H12.7458C14.3458 295.72 15.1058 296.36 15.1058 297.76ZM24.7858 309.24C24.7858 306.08 22.8658 303.32 19.3858 302.48C22.1858 301.76 24.1458 299.44 24.1458 296.04C24.1458 291.12 20.5058 288.68 14.8658 288.68H0.425781V317H15.2658C21.4258 317 24.7858 314.2 24.7858 309.24ZM42.7295 298.52C42.7295 300.2 41.8495 300.92 40.1695 300.92H36.6495V296.12H40.1695C41.8495 296.12 42.7295 297.08 42.7295 298.52ZM27.7695 288.68V317H36.6495V306.84H36.6895L42.0095 317H51.7695L45.6095 306.16C49.6495 304.84 51.7295 301.68 51.7295 297.96C51.7295 292.76 48.0895 288.68 40.9695 288.68H27.7695ZM62.7264 308.4V317H71.6064V308.4L81.7664 288.68H71.7664L67.2464 298.72L62.7264 288.68H52.5664L62.7264 308.4ZM103.345 317H112.705L102.385 288.68H92.1452L81.7852 317H91.1052L92.5052 312.72H101.945L103.345 317ZM99.7852 306.04H94.6652L97.2252 298.16L99.7852 306.04ZM133.003 288.68V303.16L123.603 288.68H114.723V317H123.603V302.76L133.003 317H141.883V288.68H133.003ZM161.175 307.92C161.175 309.32 160.415 309.88 158.815 309.88H154.775V305.88H158.815C160.415 305.88 161.175 306.56 161.175 307.92ZM160.575 297.76C160.575 299.12 159.815 299.72 158.215 299.72H154.775V295.72H158.215C159.815 295.72 160.575 296.36 160.575 297.76ZM170.255 309.24C170.255 306.08 168.335 303.32 164.855 302.48C167.655 301.76 169.615 299.44 169.615 296.04C169.615 291.12 165.975 288.68 160.335 288.68H145.895V317H160.735C166.895 317 170.255 314.2 170.255 309.24ZM192.798 317H202.158L191.838 288.68H181.598L171.238 317H180.558L181.958 312.72H191.398L192.798 317ZM189.238 306.04H184.118L186.678 298.16L189.238 306.04ZM204.176 288.68V317H221.616V310.28H213.056V288.68H204.176ZM224.41 288.68V317H241.85V310.28H233.29V288.68H224.41ZM244.645 317H253.525V288.68H244.645V317ZM286.655 317.16C293.855 317.16 297.655 311.48 297.655 304.4C297.655 295.6 291.175 289.52 281.335 289.52C268.495 289.52 258.575 298.64 258.575 311.56C258.575 320.8 264.855 326.8 274.455 326.8C277.895 326.8 281.095 326.16 283.815 324.96L282.295 319.4C280.335 320.24 277.775 320.84 274.855 320.84C268.655 320.84 264.975 316.92 264.975 310.92C264.975 302.4 271.735 295.36 280.575 295.36C287.055 295.36 291.135 299.12 291.135 304.64C291.135 308.28 290.175 311.48 287.895 311.48C286.695 311.48 286.455 310.48 286.735 308.96L288.295 300.12H281.415L281.015 302.44C280.495 300.92 279.015 299.92 276.775 299.92C271.615 299.92 268.055 305.2 268.055 310.88C268.055 314.96 270.415 317.28 274.255 317.28C277.055 317.28 279.335 316.16 280.695 314.08C281.615 316.04 283.695 317.16 286.655 317.16ZM279.815 308.04C279.815 309.88 278.455 311.12 277.175 311.12C276.135 311.12 275.455 310.4 275.455 309.2C275.455 307.32 276.735 306.04 278.095 306.04C279.095 306.04 279.815 306.8 279.815 308.04ZM321.571 288.68H302.691V317H321.571V309.92H311.571V305.92H320.371V299.24H311.571V295.76H321.571V288.68ZM336.718 288.68H324.918V317H336.718C345.758 317 351.438 310.84 351.438 302.76C351.438 294.6 345.758 288.68 336.718 288.68ZM333.798 309.08V296.44H335.918C339.838 296.44 342.438 298.64 342.438 302.76C342.438 306.88 339.838 309.08 335.918 309.08H333.798ZM354.645 317H363.525V288.68H354.645V317ZM365.935 295.72H373.375V317H382.255V295.72H389.775V288.68H365.935V295.72ZM390.584 295.72H398.024V317H406.904V295.72H414.424V288.68H390.584V295.72ZM431.792 298.52C431.792 300.2 430.912 300.92 429.232 300.92H425.712V296.12H429.232C430.912 296.12 431.792 297.08 431.792 298.52ZM416.832 288.68V317H425.712V306.84H425.752L431.072 317H440.832L434.672 306.16C438.712 304.84 440.792 301.68 440.792 297.96C440.792 292.76 437.152 288.68 430.032 288.68H416.832ZM463.189 317H472.549L462.229 288.68H451.989L441.629 317H450.949L452.349 312.72H461.789L463.189 317ZM459.629 306.04H454.509L457.069 298.16L459.629 306.04ZM492.606 317H503.126L493.206 303L502.366 288.68H492.246L488.086 295.76L483.086 288.68H472.566L482.286 302.4L472.966 317H483.086L487.406 309.64L492.606 317ZM514.593 312.96C514.593 310.48 512.633 308.52 509.513 308.52C506.353 308.52 504.393 310.48 504.393 312.96C504.393 315.4 506.353 317.32 509.513 317.32C512.633 317.32 514.593 315.4 514.593 312.96ZM517.087 302.8C517.087 311.24 522.407 317.2 531.087 317.2C538.567 317.2 543.647 312.72 544.807 306.04H535.447C534.607 307.92 532.927 309 530.927 309C527.927 309 526.087 306.56 526.087 302.8C526.087 299.04 527.927 296.6 530.927 296.6C532.927 296.6 534.607 297.68 535.447 299.56H544.807C543.647 292.88 538.567 288.4 531.087 288.4C522.407 288.4 517.087 294.36 517.087 302.8ZM576.324 302.72C576.324 294.2 569.884 288.2 561.804 288.2C553.764 288.2 547.204 294.2 547.204 302.72C547.204 311.24 553.764 317.28 561.804 317.28C569.804 317.28 576.324 311.24 576.324 302.72ZM556.244 302.72C556.244 298.88 558.164 296.4 561.804 296.4C565.364 296.4 567.324 298.88 567.324 302.72C567.324 306.48 565.364 309 561.804 309C558.164 309 556.244 306.48 556.244 302.72ZM579.527 317H588.407V302.88L592.767 317H600.367L604.727 302.88V317H613.567V288.68H602.727L596.647 305.68L590.407 288.68H579.527V317Z" fill="white"/>
</svg>
