<svg width="232" height="49" viewBox="0 0 232 49" fill="none" xmlns="http://www.w3.org/2000/svg">
<path d="M44.5901 21.9373C39.427 22.0397 26.013 24.972 25.4344 25.0917C24.9186 25.2053 24.5727 25.7242 24.6933 26.2611C24.8095 26.7561 25.2676 27.0912 25.7692 27.0423C25.811 27.0382 25.8506 27.0133 25.8715 27.0112C25.9342 27.0051 28.0603 26.5447 30.9343 25.9691L28.2609 37.7285C28.1494 38.2669 28.479 38.7833 29.0007 38.9223C29.1097 38.9539 29.2142 38.9437 29.3187 38.9335C29.7367 38.8928 30.0862 38.6055 30.1902 38.1945L33.0648 25.5505C37.2049 24.7671 42.081 23.9542 44.6323 23.9165C45.1779 23.8844 45.6163 23.4407 45.6024 22.9146C45.5863 22.3676 45.1171 21.9281 44.5901 21.9373ZM39.3744 28.5222C38.3444 28.3694 36.7065 30.238 35.1736 32.4973C35.2282 32.2177 35.2851 31.959 35.3606 31.6774L37.2797 23.5361C37.4143 23.0166 37.0824 22.4793 36.5399 22.3423C36.0204 22.2241 35.4828 22.5297 35.3504 23.0701C33.985 28.8787 31.962 37.431 31.5648 39.0522C31.5528 39.1377 31.5176 39.2044 31.5034 39.2691C31.2782 40.3249 32.2312 40.5485 32.2312 40.5485C32.3842 40.5969 32.5119 40.6055 32.6164 40.5953C33.0553 40.5525 33.2704 40.194 33.4162 39.7789L33.4513 39.7122C33.4469 39.6704 33.4447 39.6495 33.4633 39.6266C33.4798 39.5828 33.4962 39.539 33.4895 39.4764C34.0429 37.7345 36.6658 33.6178 38.3068 31.58C38.1215 34.5941 37.8938 38.7939 37.9005 38.8565C37.8726 39.3867 38.2814 39.8532 38.8359 39.9046C39.3674 39.9372 39.8498 39.5104 39.8777 38.9802C39.871 38.9176 40.1908 32.81 40.3864 30.0903C40.4969 28.7503 39.4833 28.5537 39.3744 28.5222ZM42.7509 31.4211C42.2106 31.305 41.7006 31.6712 41.61 32.2075C41.5695 32.4224 40.7038 37.5705 40.5533 38.5346C40.4649 39.0918 40.8341 39.5833 41.3931 39.6764C41.4581 39.6912 41.5417 39.6831 41.6253 39.6749C42.0642 39.6321 42.4301 39.3011 42.5087 38.8503C42.6384 37.8883 43.5534 32.6088 43.5699 32.565C43.6605 32.0287 43.289 31.5163 42.7509 31.4211ZM43.8181 26.38C43.2777 26.2639 42.7424 26.5903 42.6286 27.1078L42.155 29.2005C42.0226 29.7409 42.3544 30.2782 42.8948 30.3943C43.0038 30.4259 43.1105 30.4366 43.215 30.4264C43.633 30.3857 43.9825 30.0984 44.0842 29.6665L44.5579 27.5738C44.6694 27.0354 44.3398 26.519 43.8181 26.38ZM53.0014 34.7682C52.6744 33.6818 51.2615 33.5031 49.1388 33.2036C48.132 33.0697 47.0833 32.9398 46.2766 32.702C46.2557 32.704 46.2325 32.6852 46.2116 32.6872C46.7091 32.0058 48.4624 30.8221 49.6683 30.0505L49.6721 31.2739C49.6882 31.8209 50.1366 32.2624 50.6658 32.2741C50.7076 32.27 50.7494 32.266 50.7703 32.2639C51.2719 32.215 51.6498 31.7984 51.659 31.2911L51.6187 27.3496C51.6234 26.8006 51.1751 26.359 50.625 26.3494C50.098 26.3585 49.6387 26.8042 49.6548 27.3512L49.6576 27.7729C49.5553 27.804 49.453 27.835 49.3739 27.8849C46.0497 29.9813 43.8865 31.4792 44.1207 33.081C44.1951 33.5801 44.5425 34.2636 45.7389 34.59C46.6986 34.8762 47.8771 35.0356 48.9049 35.1675C49.334 35.2312 49.8908 35.3035 50.364 35.3839C48.8393 36.3343 46.2628 37.3239 45.2423 37.6555C44.7331 37.8317 44.4544 38.3864 44.6378 38.9171C44.789 39.3454 45.2405 39.6179 45.6794 39.5751C45.7421 39.569 45.8257 39.5608 45.9071 39.5318C46.0907 39.4717 50.4917 37.9666 52.3325 36.4158C53.0897 35.7934 53.1087 35.1797 53.0014 34.7682ZM66.0577 22.292L62.2454 22.9801C61.7064 23.0748 61.3396 23.5959 61.4602 24.1327C61.5555 24.6298 62.0159 24.9858 62.5175 24.9369C62.5593 24.9328 62.5802 24.9307 62.6011 24.9287L63.0983 24.838L61.0891 33.9164L60.0232 34.0204C59.4798 34.0733 59.0876 34.5546 59.1455 35.0975C59.2035 35.6405 59.6892 36.0362 60.2326 35.9832L64.2874 35.5879C64.8308 35.535 65.2207 35.0328 65.165 34.5107C65.1071 33.9678 64.6214 33.5721 64.078 33.6251L63.1583 33.7147L65.2123 24.4632L66.4343 24.2385C66.9733 24.1438 67.3192 23.6248 67.2195 23.086C67.122 22.568 66.5967 22.1972 66.0577 22.292ZM74.1587 32.7057C73.8316 31.6193 72.4188 31.4406 70.2961 31.1411C69.2893 31.0072 68.2406 30.8773 67.4339 30.6395C67.413 30.6415 67.3898 30.6227 67.3689 30.6247C67.8664 29.9433 69.6197 28.7596 70.8256 27.988L70.8294 29.2114C70.8455 29.7584 71.2938 30.1999 71.823 30.2116C71.8649 30.2076 71.9067 30.2035 71.9276 30.2014C72.4292 30.1525 72.8071 29.7359 72.8163 29.2287L72.7759 25.2871C72.7807 24.7381 72.3324 24.2965 71.7823 24.2869C71.2553 24.296 70.796 24.7417 70.8121 25.2887L70.8149 25.7104C70.7126 25.7415 70.6103 25.7725 70.5312 25.8224C67.2069 27.9188 65.0437 29.4167 65.278 31.0185C65.3523 31.5176 65.6998 32.2011 66.8961 32.5275C67.8559 32.8137 69.0344 32.9731 70.0621 33.105C70.4913 33.1687 71.0481 33.241 71.5213 33.3214C69.9966 34.2718 67.4201 35.2615 66.3996 35.593C65.8904 35.7692 65.6117 36.3239 65.795 36.8546C65.9463 37.2829 66.3978 37.5554 66.8367 37.5126C66.8994 37.5065 66.983 37.4983 67.0644 37.4693C67.248 37.4092 71.649 35.9041 73.4898 34.3533C74.247 33.7309 74.266 33.1172 74.1587 32.7057ZM94.7787 22.6359C94.6491 22.0155 94.1768 21.7451 93.8126 21.6962C92.787 21.5852 92.3314 22.2626 89.6718 27.8176C89.4491 28.3035 89.2055 28.7914 88.9806 29.2564C88.765 27.6317 88.5662 25.3724 88.4311 23.9087C88.2836 22.1297 88.1552 20.7286 88.0235 20.0874C87.8895 19.4253 87.394 19.136 87.0111 19.11C86.1804 19.0433 85.4123 18.9705 80.477 32.4906C80.3006 33.0142 80.5511 33.5805 81.0772 33.7613C81.2093 33.8117 81.3601 33.8392 81.5064 33.825C81.8826 33.7883 82.1947 33.5469 82.3241 33.1756C83.6988 29.4337 85.2954 25.3959 86.3693 22.9915C86.4049 23.3256 86.4219 23.6826 86.462 24.0585C87.1475 31.6716 87.4203 32.4467 88.38 32.7329C88.8368 32.8572 89.3064 32.7059 89.6007 32.2975C89.9532 31.8411 90.504 30.6692 91.4739 28.6758C91.9238 27.7458 92.5261 26.4633 93.0671 25.3978C93.1609 27.2665 93.2401 29.7906 93.2854 31.6007C93.2806 32.1497 93.7267 32.5704 94.2768 32.5801C94.8247 32.5688 95.2631 32.1252 95.247 31.5782C95.2295 30.8204 95.113 24.1857 94.7787 22.6359ZM106.707 22.7179C106.703 22.6761 106.7 22.6552 106.675 22.6155C106.673 22.5946 106.668 22.5528 106.645 22.534C106.641 22.4922 106.618 22.4734 106.615 22.4525C106.59 22.4128 106.567 22.3939 106.565 22.3731C106.539 22.3333 106.516 22.3145 106.493 22.2956C106.468 22.2559 106.465 22.235 106.442 22.2162C106.419 22.1973 106.396 22.1785 106.373 22.1597C106.329 22.1429 106.304 22.1031 106.28 22.0843C106.26 22.0863 106.26 22.0863 106.236 22.0675C106.236 22.0675 106.213 22.0486 106.192 22.0507C106.169 22.0318 106.146 22.013 106.102 21.9962C106.081 21.9982 106.037 21.9814 106.014 21.9626C105.993 21.9646 105.972 21.9666 105.949 21.9478L105.928 21.9498C105.884 21.933 105.842 21.9371 105.821 21.9391C105.78 21.9432 105.757 21.9244 105.715 21.9284C105.694 21.9305 105.652 21.9346 105.631 21.9366C105.589 21.9407 105.568 21.9427 105.527 21.9468C105.508 21.9697 105.466 21.9738 105.445 21.9758C105.403 21.9799 105.385 22.0028 105.343 22.0069C105.324 22.0298 105.303 22.0318 105.264 22.0568C105.243 22.0588 105.224 22.0818 105.185 22.1067C105.164 22.1087 105.145 22.1317 105.106 22.1566C105.087 22.1795 105.068 22.2025 105.05 22.2254C105.01 22.2503 104.991 22.2733 104.973 22.2962C104.954 22.3191 104.935 22.342 104.917 22.3649C104.919 22.3858 104.898 22.3878 104.9 22.4087C102.358 26.6864 99.0678 31.48 97.6535 32.6729C97.3975 31.2631 98.3701 27.1173 99.9711 23.1213C100.171 22.6166 99.918 22.0294 99.4105 21.8256C98.9031 21.6219 98.3379 21.8669 98.1383 22.3716C96.92 25.402 94.3386 32.6795 96.5723 34.6138L96.7551 34.7437C96.9335 34.8318 97.1581 34.9576 97.4925 34.925C98.3703 34.8394 100.003 33.7098 103.511 28.3885L101.443 37.7047L99.2669 37.305L100.254 36.2594C100.611 35.8448 100.588 35.2351 100.188 34.8521C99.7902 34.49 99.1587 34.5094 98.7786 34.9051L96.8681 36.9903C96.6044 37.2902 96.5027 37.7221 96.6309 38.1316C96.7359 38.5222 97.0432 38.8299 97.4373 38.9602L101.64 39.7532C101.768 39.7618 101.874 39.7725 102 39.7603C102.585 39.7032 103.088 39.2744 103.254 38.6464L106.71 23.1396C106.708 23.1187 106.708 23.1187 106.726 23.0958C106.722 23.054 106.72 23.0331 106.736 22.9893C106.734 22.9684 106.729 22.9267 106.727 22.9058C106.723 22.864 106.72 22.8431 106.716 22.8014C106.714 22.7805 106.709 22.7387 106.707 22.7179ZM120.135 22.5059C120.244 22.5375 120.328 22.5294 120.432 22.5192C120.85 22.4784 121.198 22.1703 121.299 21.7384L122.237 16.6677C122.348 16.1294 121.998 15.615 121.457 15.4989C120.919 15.4037 120.407 15.749 120.295 16.2873L119.962 18.1132C119.629 17.9558 119.329 17.9217 119.139 17.9192C116.688 17.9049 113.635 22.5488 113.163 26.034C112.783 28.8138 114.053 29.8293 114.831 30.1965C115.408 30.4568 116.028 30.523 116.676 30.4598C117.449 30.3844 118.242 30.0962 118.875 29.6968L118.689 30.7277C118.578 31.266 118.928 31.7804 119.467 31.8756C119.576 31.9072 119.659 31.8991 119.764 31.8889C120.182 31.8481 120.55 31.538 120.631 31.1081L121.789 24.9399L121.787 24.919C121.858 24.5956 121.912 24.316 121.894 24.1489L121.822 23.6707L121.499 23.4069C121.128 23.1054 120.897 22.9169 117.063 23.7971C116.526 23.9127 116.204 24.4505 116.345 24.9853C116.466 25.5221 117.007 25.8491 117.521 25.7146C118.202 25.5638 118.966 25.4049 119.587 25.2812C119.288 26.0487 118.82 27.0016 118.257 27.6683C117.749 28.2453 116.363 28.718 115.654 28.4073C115.01 28.1114 115.008 27.0989 115.114 26.308C115.579 22.9501 118.346 19.7898 119.114 19.8627C119.116 19.8835 119.301 20.0343 119.396 20.7213C119.403 20.784 119.409 20.8466 119.437 20.9072L119.337 21.36C119.247 21.8963 119.597 22.4107 120.135 22.5059ZM128.686 22.8328C128.888 23.3405 129.442 23.5819 129.97 23.3828C130.477 23.1857 130.712 22.6143 130.51 22.1065C129.695 20.0127 128.974 19.7876 128.428 19.8197C126.747 19.8992 123.199 23.2622 122.569 24.0832C122.457 24.2207 122.162 24.6292 122.279 25.1242C122.47 25.9284 123.073 26.0384 125.926 26.6465C126.011 26.6592 126.097 26.672 126.206 26.7035C126.087 26.7784 125.99 26.8512 125.89 26.9032C122.565 29.1895 121.863 29.7431 121.955 30.5993C121.986 30.8916 122.142 31.1717 122.395 31.3581C122.626 31.5466 123.04 31.8649 126.28 31.5491C127.22 31.4574 128.407 31.2995 129.905 31.0901C130.444 30.9954 130.813 30.4952 130.737 29.9752C130.658 29.4344 130.13 29.0427 129.612 29.1354C128.219 29.3346 126.676 29.5271 125.462 29.6244C126.012 29.2332 126.582 28.8401 127.015 28.5447C129.297 26.9719 129.572 26.7763 129.362 25.995C129.161 25.2973 128.794 25.2275 126.31 24.7101C125.921 24.6215 125.424 24.5222 124.97 24.4188C125.928 23.5025 127.424 22.2807 128.229 21.9069C128.381 22.1452 128.546 22.5089 128.686 22.8328ZM138.503 18.1414C137.95 18.1108 137.512 18.5544 137.484 19.0846C137.462 20.4582 137.41 23.1428 137.354 25.3847C136.865 24.1665 136.275 22.5994 135.566 20.7063C135.39 20.2382 135.268 19.8914 135.183 19.6887C134.949 19.0785 134.425 18.9186 134.049 18.9553C133.213 19.0368 132.67 19.0898 131.076 30.6806C130.988 31.2378 131.378 31.7272 131.914 31.8015C132 31.8143 132.086 31.827 132.148 31.8209C132.587 31.7781 132.972 31.4241 133.03 30.9754C133.423 28.131 133.917 25.0446 134.307 22.96C137.104 30.3673 137.355 30.3428 138.251 30.2343C138.627 30.1977 139.084 29.9211 139.163 29.2804C139.327 28.0407 139.467 20.0518 139.476 19.1437C139.48 18.5946 139.053 18.151 138.503 18.1414ZM146.404 21.1056C146.606 21.6134 147.16 21.8548 147.688 21.6556C148.195 21.4585 148.429 20.8871 148.227 20.3793C147.413 18.2855 146.692 18.0604 146.146 18.0925C144.465 18.172 140.917 21.535 140.286 22.356C140.174 22.4935 139.88 22.902 139.996 23.397C140.188 24.2012 140.791 24.3112 143.643 24.9193C143.729 24.932 143.815 24.9448 143.924 24.9763C143.805 25.0512 143.707 25.124 143.607 25.176C140.282 27.4623 139.581 28.0159 139.672 28.8721C139.704 29.1644 139.86 29.4445 140.112 29.6309C140.344 29.8194 140.758 30.1377 143.997 29.8219C144.938 29.7302 146.125 29.5723 147.623 29.3629C148.162 29.2682 148.531 28.7681 148.454 28.2481C148.375 27.7072 147.848 27.3155 147.33 27.4082C145.936 27.6074 144.394 27.7999 143.18 27.8972C143.729 27.5061 144.3 27.1129 144.733 26.8175C147.015 25.2447 147.289 25.0491 147.079 24.2679C146.878 23.5701 146.512 23.5003 144.028 22.9829C143.638 22.8943 143.142 22.795 142.688 22.6916C143.646 21.7754 145.141 20.5535 145.946 20.1797C146.098 20.418 146.264 20.7817 146.404 21.1056ZM157.388 24.5921C157.061 23.5058 155.649 23.327 153.526 23.0276C152.519 22.8936 151.47 22.7638 150.664 22.5259C150.643 22.528 150.62 22.5091 150.599 22.5112C151.096 21.8297 152.849 20.6461 154.055 19.8744L154.059 21.0978C154.075 21.6448 154.524 22.0864 155.053 22.0981C155.095 22.094 155.136 22.0899 155.157 22.0879C155.659 22.039 156.037 21.6224 156.046 21.1151L156.006 17.1736C156.01 16.6245 155.562 16.183 155.012 16.1733C154.485 16.1825 154.026 16.6281 154.042 17.1751L154.045 17.5968C153.942 17.6279 153.84 17.659 153.761 17.7089C150.437 19.8052 148.273 21.3031 148.508 22.9049C148.582 23.404 148.93 24.0875 150.126 24.4139C151.086 24.7002 152.264 24.8596 153.292 24.9914C153.721 25.0551 154.278 25.1274 154.751 25.2079C153.226 26.1583 150.65 27.1479 149.629 27.4795C149.12 27.6557 148.841 28.2103 149.025 28.741C149.176 29.1693 149.628 29.4418 150.066 29.399C150.129 29.3929 150.213 29.3848 150.294 29.3557C150.478 29.2956 154.879 27.7906 156.72 26.2397C157.477 25.6173 157.496 25.0036 157.388 24.5921ZM159.508 20.0392C158.968 19.923 158.458 20.2892 158.367 20.8255C158.327 21.0405 157.461 26.1885 157.31 27.1527C157.222 27.7098 157.591 28.2013 158.15 28.2945C158.215 28.3093 158.299 28.3011 158.382 28.293C158.821 28.2502 159.187 27.9191 159.266 27.4684C159.395 26.5063 160.31 21.2269 160.327 21.1831C160.417 20.6468 160.046 20.1344 159.508 20.0392ZM160.575 14.998C160.035 14.8819 159.499 15.2084 159.386 15.7259L158.912 17.8186C158.78 18.359 159.111 18.8963 159.652 19.0124C159.761 19.044 159.867 19.0547 159.972 19.0445C160.39 19.0037 160.739 18.7165 160.841 18.2846L161.315 16.1918C161.426 15.6535 161.097 15.1371 160.575 14.998ZM169.758 23.3862C169.431 22.2999 168.018 22.1211 165.896 21.8217C164.889 21.6878 163.84 21.5579 163.034 21.3201C163.013 21.3221 162.989 21.3033 162.969 21.3053C163.466 20.6238 165.219 19.4402 166.425 18.6686L166.429 19.8919C166.445 20.4389 166.894 20.8805 167.423 20.8922C167.465 20.8881 167.506 20.884 167.527 20.882C168.029 20.8331 168.407 20.4165 168.416 19.9092L168.376 15.9677C168.38 15.4187 167.932 14.9771 167.382 14.9674C166.855 14.9766 166.396 15.4223 166.412 15.9693L166.415 16.391C166.312 16.422 166.21 16.4531 166.131 16.503C162.807 18.5994 160.643 20.0973 160.878 21.699C160.952 22.1981 161.299 22.8816 162.496 23.2081C163.456 23.4943 164.634 23.6537 165.662 23.7856C166.091 23.8492 166.648 23.9216 167.121 24.002C165.596 24.9524 163.02 25.942 161.999 26.2736C161.49 26.4498 161.211 27.0045 161.395 27.5351C161.546 27.9635 161.997 28.2359 162.436 28.1932C162.499 28.187 162.583 28.1789 162.664 28.1499C162.848 28.0898 167.249 26.5847 169.089 25.0338C169.847 24.4115 169.866 23.7977 169.758 23.3862ZM187.217 12.1899C182.404 10.4227 177.261 12.6963 177.061 12.8002C176.556 13.0182 176.345 13.6084 176.565 14.0933C176.788 14.599 177.382 14.8155 177.886 14.5975C177.907 14.5955 178.491 14.3276 179.393 14.0709L176.38 25.0194C176.245 25.5389 176.556 26.0783 177.08 26.2382C177.21 26.2677 177.316 26.2784 177.442 26.2662C177.839 26.2275 178.191 25.9611 178.295 25.5501L179.191 22.2768C182.449 20.5456 189.028 16.6972 188.827 14.0162C188.797 13.5339 188.536 12.6732 187.217 12.1899ZM179.939 19.5876L181.567 13.669C181.565 13.6481 181.584 13.6252 181.584 13.6252C183.082 13.4158 184.879 13.4306 186.57 14.0463C186.726 14.1156 186.816 14.1701 186.839 14.1889C186.724 15.0863 183.719 17.4047 179.939 19.5876ZM189.82 17.0842C189.28 16.9681 188.77 17.3343 188.679 17.8706C188.639 18.0855 187.773 23.2336 187.622 24.1977C187.534 24.7549 187.903 25.2464 188.462 25.3396C188.527 25.3543 188.611 25.3462 188.694 25.338C189.133 25.2953 189.499 24.9642 189.578 24.5135C189.707 23.5514 190.622 18.2719 190.639 18.2281C190.73 17.6918 190.358 17.1795 189.82 17.0842ZM190.887 12.0431C190.347 11.927 189.811 12.2535 189.698 12.7709L189.224 14.8637C189.092 15.404 189.423 15.9413 189.964 16.0575C190.073 16.089 190.18 16.0997 190.284 16.0895C190.702 16.0488 191.052 15.7615 191.153 15.3296L191.627 13.2369C191.738 12.6986 191.409 12.1821 190.887 12.0431ZM197.628 16.112C197.83 16.6198 198.384 16.8612 198.912 16.6621C199.419 16.465 199.654 15.8935 199.452 15.3857C198.637 13.292 197.916 13.0669 197.37 13.099C195.689 13.1785 192.141 16.5414 191.511 17.3625C191.399 17.5 191.105 17.9084 191.221 18.4035C191.412 19.2077 192.015 19.3177 194.868 19.9257C194.953 19.9385 195.039 19.9512 195.148 19.9828C195.03 20.0577 194.932 20.1305 194.832 20.1824C191.507 22.4688 190.805 23.0224 190.897 23.8785C190.928 24.1709 191.085 24.451 191.337 24.6374C191.568 24.8258 191.982 25.1441 195.222 24.8283C196.162 24.7366 197.349 24.5787 198.847 24.3694C199.386 24.2746 199.755 23.7745 199.679 23.2545C199.6 22.7136 199.072 22.322 198.554 22.4147C197.161 22.6138 195.618 22.8064 194.404 22.9037C194.954 22.5125 195.524 22.1193 195.957 21.8239C198.239 20.2511 198.514 20.0556 198.304 19.2743C198.103 18.5766 197.736 18.5068 195.252 17.9894C194.863 17.9007 194.366 17.8014 193.912 17.6981C194.87 16.7818 196.366 15.56 197.171 15.1861C197.323 15.4245 197.488 15.7881 197.628 16.112ZM206.547 17.0571C206.635 17.0907 206.741 17.1014 206.846 17.0913C207.264 17.0505 207.611 16.7424 207.715 16.3314L208.86 11.0295C208.974 10.512 208.642 9.9747 208.102 9.85859C207.582 9.74043 207.047 10.0669 206.935 10.6052L206.635 11.9427C206.549 11.93 206.444 11.9401 206.342 11.9712C204.509 12.4031 202.208 14.9904 200.945 17.2024C200.124 18.6116 199.267 20.6784 199.793 22.4416C200.024 23.2208 200.528 23.7836 201.276 24.0693C201.784 24.273 202.378 24.2995 203.005 24.2384C205.367 24.0082 208.229 22.3366 208.902 21.9123C209.358 21.6358 209.505 21.0307 209.224 20.5728C208.919 20.0961 208.312 19.9444 207.858 20.2418C206.133 21.2961 203.068 22.6499 201.967 22.2297C201.835 22.1793 201.742 22.1039 201.678 21.8992C201.44 21.0573 201.783 19.7158 202.656 18.196C203.65 16.4323 205.113 14.8972 206.139 14.2274L205.788 15.8862C205.677 16.4246 206.006 16.941 206.547 17.0571ZM215.897 14.3311C216.099 14.8389 216.653 15.0803 217.181 14.8812C217.688 14.684 217.922 14.1126 217.72 13.6048C216.906 11.5111 216.185 11.286 215.639 11.3181C213.958 11.3975 210.41 14.7605 209.78 15.5815C209.668 15.7191 209.373 16.1275 209.489 16.6226C209.681 17.4268 210.284 17.5368 213.136 18.1448C213.222 18.1576 213.308 18.1703 213.417 18.2019C213.298 18.2767 213.2 18.3496 213.1 18.4015C209.775 20.6878 209.074 21.2415 209.165 22.0976C209.197 22.39 209.353 22.6701 209.605 22.8565C209.837 23.0449 210.251 23.3632 213.49 23.0474C214.431 22.9557 215.618 22.7978 217.116 22.5885C217.655 22.4937 218.024 21.9936 217.947 21.4736C217.869 20.9327 217.341 20.5411 216.823 20.6338C215.429 20.8329 213.887 21.0255 212.673 21.1228C213.222 20.7316 213.793 20.3384 214.226 20.043C216.508 18.4702 216.783 18.2747 216.572 17.4934C216.371 16.7956 216.005 16.7259 213.521 16.2085C213.131 16.1198 212.635 16.0205 212.181 15.9171C213.139 15.0009 214.635 13.7791 215.439 13.4052C215.592 13.6436 215.757 14.0072 215.897 14.3311ZM221.556 18.3187C220.755 18.1165 219.996 18.5954 219.8 19.3931L219.74 19.7104C219.573 20.4742 220.062 21.2674 220.829 21.4418C220.99 21.4884 221.148 21.5042 221.302 21.4892C221.919 21.429 222.435 21.005 222.585 20.3674L222.645 20.0502C222.843 19.2833 222.354 18.4901 221.556 18.3187ZM224.175 2.8332C223.377 2.66179 222.593 3.20537 222.456 3.96623L220.318 15.4806C220.15 16.2444 220.671 17.0346 221.465 17.1752C221.623 17.191 221.749 17.2098 221.904 17.1947C222.521 17.1346 223.064 16.6767 223.184 16.0421L225.322 4.52781C225.49 3.76394 224.969 2.97378 224.175 2.8332Z" fill="white"/>
<path fill-rule="evenodd" clip-rule="evenodd" d="M9.99938 24C7.28494 24 6.94403 24.0119 5.87756 24.0604C4.81297 24.1092 4.08629 24.2777 3.45045 24.525C2.79274 24.7804 2.23482 25.1221 1.67898 25.6781C1.12272 26.234 0.78105 26.7919 0.524797 27.4494C0.276878 28.0854 0.108126 28.8123 0.060209 29.8765C0.0125001 30.9431 0 31.2842 0 34C0 36.7158 0.0120835 37.0556 0.0604173 38.1223C0.109376 39.1869 0.27792 39.9135 0.525005 40.5494C0.780633 41.2071 1.1223 41.765 1.67835 42.3208C2.23398 42.8771 2.7919 43.2196 3.4492 43.475C4.08546 43.7223 4.81234 43.8908 5.87673 43.9396C6.94341 43.9881 7.28403 44 9.99969 44C12.7158 44 13.0556 43.9881 14.1222 43.9396C15.1868 43.8908 15.9143 43.7223 16.5506 43.475C17.2081 43.2196 17.7652 42.8771 18.3208 42.3208C18.8771 41.765 19.2187 41.2071 19.475 40.5496C19.7208 39.9135 19.8896 39.1867 19.9396 38.1225C19.9875 37.0558 20 36.7158 20 34C20 31.2842 19.9875 30.9433 19.9396 29.8767C19.8896 28.8121 19.7208 28.0854 19.475 27.4496C19.2187 26.7919 18.8771 26.234 18.3208 25.6781C17.7646 25.1219 17.2083 24.7802 16.55 24.525C15.9125 24.2777 15.1854 24.1092 14.1208 24.0604C13.0543 24.0119 12.7146 24 9.99938 24ZM9.10385 25.8021C9.27804 25.8018 9.46542 25.8019 9.66764 25.802H9.66765C9.77452 25.802 9.88554 25.8021 10.0009 25.8021C12.671 25.8021 12.9874 25.8117 14.0418 25.8596C15.0168 25.9042 15.546 26.0671 15.8985 26.204C16.3652 26.3852 16.6979 26.6019 17.0477 26.9519C17.3977 27.3019 17.6144 27.6352 17.796 28.1019C17.9329 28.454 18.096 28.9831 18.1404 29.9581C18.1883 31.0123 18.1987 31.329 18.1987 33.9977C18.1987 36.6665 18.1883 36.9831 18.1404 38.0373C18.0958 39.0123 17.9329 39.5415 17.796 39.8935C17.6148 40.3602 17.3977 40.6925 17.0477 41.0423C16.6977 41.3923 16.3654 41.609 15.8985 41.7902C15.5464 41.9277 15.0168 42.0902 14.0418 42.1348C12.9876 42.1827 12.671 42.1931 10.0009 42.1931C7.3307 42.1931 7.01424 42.1827 5.96006 42.1348C4.98505 42.0898 4.45588 41.9269 4.10317 41.79C3.6365 41.6087 3.30316 41.3921 2.95316 41.0421C2.60315 40.6921 2.38648 40.3596 2.20482 39.8927C2.06794 39.5406 1.90481 39.0115 1.86044 38.0365C1.81252 36.9823 1.80294 36.6656 1.80294 33.9952C1.80294 31.3248 1.81252 31.0098 1.86044 29.9556C1.90502 28.9806 2.06794 28.4515 2.20482 28.099C2.38607 27.6323 2.60315 27.299 2.95316 26.949C3.30316 26.599 3.6365 26.3823 4.10317 26.2006C4.45567 26.0631 4.98505 25.9006 5.96006 25.8558C6.88257 25.8142 7.24008 25.8017 9.10385 25.7996V25.8021ZM14.1389 28.6621C14.1389 27.9994 14.6764 27.4625 15.3389 27.4625V27.4621C16.0014 27.4621 16.5389 27.9996 16.5389 28.6621C16.5389 29.3246 16.0014 29.8621 15.3389 29.8621C14.6764 29.8621 14.1389 29.3246 14.1389 28.6621ZM10.0008 28.8646C7.16481 28.8646 4.86547 31.164 4.86547 34C4.86547 36.836 7.16487 39.1344 10.0009 39.1344C12.837 39.1344 15.1356 36.836 15.1356 34C15.1356 31.164 12.8369 28.8646 10.0008 28.8646ZM10.0008 28.8646C10.0009 28.8646 10.0009 28.8646 10.0009 28.8646H10.0007C10.0008 28.8646 10.0008 28.8646 10.0008 28.8646ZM13.3343 34C13.3343 32.159 11.8418 30.6667 10.0009 30.6667C8.15988 30.6667 6.66757 32.159 6.66757 34C6.66757 35.8408 8.15988 37.3333 10.0009 37.3333C11.8418 37.3333 13.3343 35.8408 13.3343 34Z" fill="white"/>
</svg>
