<svg width="1440" height="1024" viewBox="0 0 1440 1024" fill="none" xmlns="http://www.w3.org/2000/svg">
<path d="M1440 0L1395 22.3208L1350 0L1305 22.3208L1260 0L1215 22.3208L1170 0L1125 22.3208L1080 0L1035 22.3208L990 0L945 22.3208L900 0L855 22.3208L810 0L765 22.3208L720 0L675 22.3208L630 0L585 22.3208L540 0L495 22.3208L450 0L405 22.3208L360 0L315 22.3208L270 0L225 22.3208L180 0L135 22.3208L90 0L45 22.3208L0 0" stroke="#F8D247" stroke-width="3" stroke-miterlimit="10"/>
<path d="M1440 23.7646L1395 46.2168L1350 23.7646L1305 46.2168L1260 23.7646L1215 46.2168L1170 23.7646L1125 46.2168L1080 23.7646L1035 46.2168L990 23.7646L945 46.2168L900 23.7646L855 46.2168L810 23.7646L765 46.2168L720 23.7646L675 46.2168L630 23.7646L585 46.2168L540 23.7646L495 46.2168L450 23.7646L405 46.2168L360 23.7646L315 46.2168L270 23.7646L225 46.2168L180 23.7646L135 46.2168L90 23.7646L45 46.2168L0 23.7646" stroke="#F8D247" stroke-width="3" stroke-miterlimit="10"/>
<path d="M1440 47.6616L1395 69.9824L1350 47.6616L1305 69.9824L1260 47.6616L1215 69.9824L1170 47.6616L1125 69.9824L1080 47.6616L1035 69.9824L990 47.6616L945 69.9824L900 47.6616L855 69.9824L810 47.6616L765 69.9824L720 47.6616L675 69.9824L630 47.6616L585 69.9824L540 47.6616L495 69.9824L450 47.6616L405 69.9824L360 47.6616L315 69.9824L270 47.6616L225 69.9824L180 47.6616L135 69.9824L90 47.6616L45 69.9824L0 47.6616" stroke="#F8D247" stroke-width="3" stroke-miterlimit="10"/>
<path d="M1440 71.5581L1395 93.8789L1350 71.5581L1305 93.8789L1260 71.5581L1215 93.8789L1170 71.5581L1125 93.8789L1080 71.5581L1035 93.8789L990 71.5581L945 93.8789L900 71.5581L855 93.8789L810 71.5581L765 93.8789L720 71.5581L675 93.8789L630 71.5581L585 93.8789L540 71.5581L495 93.8789L450 71.5581L405 93.8789L360 71.5581L315 93.8789L270 71.5581L225 93.8789L180 71.5581L135 93.8789L90 71.5581L45 93.8789L0 71.5581" stroke="#F8D247" stroke-width="3" stroke-miterlimit="10"/>
<path d="M1440 95.3232L1395 117.775L1350 95.3232L1305 117.775L1260 95.3232L1215 117.775L1170 95.3232L1125 117.775L1080 95.3232L1035 117.775L990 95.3232L945 117.775L900 95.3232L855 117.775L810 95.3232L765 117.775L720 95.3232L675 117.775L630 95.3232L585 117.775L540 95.3232L495 117.775L450 95.3232L405 117.775L360 95.3232L315 117.775L270 95.3232L225 117.775L180 95.3232L135 117.775L90 95.3232L45 117.775L0 95.3232" stroke="#F8D247" stroke-width="3" stroke-miterlimit="10"/>
<path d="M1440 119.22L1395 141.541L1350 119.22L1305 141.541L1260 119.22L1215 141.541L1170 119.22L1125 141.541L1080 119.22L1035 141.541L990 119.22L945 141.541L900 119.22L855 141.541L810 119.22L765 141.541L720 119.22L675 141.541L630 119.22L585 141.541L540 119.22L495 141.541L450 119.22L405 141.541L360 119.22L315 141.541L270 119.22L225 141.541L180 119.22L135 141.541L90 119.22L45 141.541L0 119.22" stroke="#F8D247" stroke-width="3" stroke-miterlimit="10"/>
<path d="M1440 143.116L1395 165.437L1350 143.116L1305 165.437L1260 143.116L1215 165.437L1170 143.116L1125 165.437L1080 143.116L1035 165.437L990 143.116L945 165.437L900 143.116L855 165.437L810 143.116L765 165.437L720 143.116L675 165.437L630 143.116L585 165.437L540 143.116L495 165.437L450 143.116L405 165.437L360 143.116L315 165.437L270 143.116L225 165.437L180 143.116L135 165.437L90 143.116L45 165.437L0 143.116" stroke="#F8D247" stroke-width="3" stroke-miterlimit="10"/>
<path d="M1440 166.881L1395 189.333L1350 166.881L1305 189.333L1260 166.881L1215 189.333L1170 166.881L1125 189.333L1080 166.881L1035 189.333L990 166.881L945 189.333L900 166.881L855 189.333L810 166.881L765 189.333L720 166.881L675 189.333L630 166.881L585 189.333L540 166.881L495 189.333L450 166.881L405 189.333L360 166.881L315 189.333L270 166.881L225 189.333L180 166.881L135 189.333L90 166.881L45 189.333L0 166.881" stroke="#F8D247" stroke-width="3" stroke-miterlimit="10"/>
<path d="M1440 190.777L1395 213.098L1350 190.777L1305 213.098L1260 190.777L1215 213.098L1170 190.777L1125 213.098L1080 190.777L1035 213.098L990 190.777L945 213.098L900 190.777L855 213.098L810 190.777L765 213.098L720 190.777L675 213.098L630 190.777L585 213.098L540 190.777L495 213.098L450 190.777L405 213.098L360 190.777L315 213.098L270 190.777L225 213.098L180 190.777L135 213.098L90 190.777L45 213.098L0 190.777" stroke="#F8D247" stroke-width="3" stroke-miterlimit="10"/>
<path d="M1440 214.674L1395 236.995L1350 214.674L1305 236.995L1260 214.674L1215 236.995L1170 214.674L1125 236.995L1080 214.674L1035 236.995L990 214.674L945 236.995L900 214.674L855 236.995L810 214.674L765 236.995L720 214.674L675 236.995L630 214.674L585 236.995L540 214.674L495 236.995L450 214.674L405 236.995L360 214.674L315 236.995L270 214.674L225 236.995L180 214.674L135 236.995L90 214.674L45 236.995L0 214.674" stroke="#F8D247" stroke-width="3" stroke-miterlimit="10"/>
<path d="M1440 238.438L1395 260.759L1350 238.438L1305 260.759L1260 238.438L1215 260.759L1170 238.438L1125 260.759L1080 238.438L1035 260.759L990 238.438L945 260.759L900 238.438L855 260.759L810 238.438L765 260.759L720 238.438L675 260.759L630 238.438L585 260.759L540 238.438L495 260.759L450 238.438L405 260.759L360 238.438L315 260.759L270 238.438L225 260.759L180 238.438L135 260.759L90 238.438L45 260.759L0 238.438" stroke="#F8D247" stroke-width="3" stroke-miterlimit="10"/>
<path d="M1440 262.335L1395 284.656L1350 262.335L1305 284.656L1260 262.335L1215 284.656L1170 262.335L1125 284.656L1080 262.335L1035 284.656L990 262.335L945 284.656L900 262.335L855 284.656L810 262.335L765 284.656L720 262.335L675 284.656L630 262.335L585 284.656L540 262.335L495 284.656L450 262.335L405 284.656L360 262.335L315 284.656L270 262.335L225 284.656L180 262.335L135 284.656L90 262.335L45 284.656L0 262.335" stroke="#F8D247" stroke-width="3" stroke-miterlimit="10"/>
<path d="M1440 286.1L1395 308.552L1350 286.1L1305 308.552L1260 286.1L1215 308.552L1170 286.1L1125 308.552L1080 286.1L1035 308.552L990 286.1L945 308.552L900 286.1L855 308.552L810 286.1L765 308.552L720 286.1L675 308.552L630 286.1L585 308.552L540 286.1L495 308.552L450 286.1L405 308.552L360 286.1L315 308.552L270 286.1L225 308.552L180 286.1L135 308.552L90 286.1L45 308.552L0 286.1" stroke="#F8D247" stroke-width="3" stroke-miterlimit="10"/>
<path d="M1440 309.997L1395 332.318L1350 309.997L1305 332.318L1260 309.997L1215 332.318L1170 309.997L1125 332.318L1080 309.997L1035 332.318L990 309.997L945 332.318L900 309.997L855 332.318L810 309.997L765 332.318L720 309.997L675 332.318L630 309.997L585 332.318L540 309.997L495 332.318L450 309.997L405 332.318L360 309.997L315 332.318L270 309.997L225 332.318L180 309.997L135 332.318L90 309.997L45 332.318L0 309.997" stroke="#F8D247" stroke-width="3" stroke-miterlimit="10"/>
<path d="M1440 333.893L1395 356.214L1350 333.893L1305 356.214L1260 333.893L1215 356.214L1170 333.893L1125 356.214L1080 333.893L1035 356.214L990 333.893L945 356.214L900 333.893L855 356.214L810 333.893L765 356.214L720 333.893L675 356.214L630 333.893L585 356.214L540 333.893L495 356.214L450 333.893L405 356.214L360 333.893L315 356.214L270 333.893L225 356.214L180 333.893L135 356.214L90 333.893L45 356.214L0 333.893" stroke="#F8D247" stroke-width="3" stroke-miterlimit="10"/>
<path d="M1440 357.658L1395 380.11L1350 357.658L1305 380.11L1260 357.658L1215 380.11L1170 357.658L1125 380.11L1080 357.658L1035 380.11L990 357.658L945 380.11L900 357.658L855 380.11L810 357.658L765 380.11L720 357.658L675 380.11L630 357.658L585 380.11L540 357.658L495 380.11L450 357.658L405 380.11L360 357.658L315 380.11L270 357.658L225 380.11L180 357.658L135 380.11L90 357.658L45 380.11L0 357.658" stroke="#F8D247" stroke-width="3" stroke-miterlimit="10"/>
<path d="M1440 381.555L1395 403.876L1350 381.555L1305 403.876L1260 381.555L1215 403.876L1170 381.555L1125 403.876L1080 381.555L1035 403.876L990 381.555L945 403.876L900 381.555L855 403.876L810 381.555L765 403.876L720 381.555L675 403.876L630 381.555L585 403.876L540 381.555L495 403.876L450 381.555L405 403.876L360 381.555L315 403.876L270 381.555L225 403.876L180 381.555L135 403.876L90 381.555L45 403.876L0 381.555" stroke="#F8D247" stroke-width="3" stroke-miterlimit="10"/>
<path d="M1440 405.451L1395 427.772L1350 405.451L1305 427.772L1260 405.451L1215 427.772L1170 405.451L1125 427.772L1080 405.451L1035 427.772L990 405.451L945 427.772L900 405.451L855 427.772L810 405.451L765 427.772L720 405.451L675 427.772L630 405.451L585 427.772L540 405.451L495 427.772L450 405.451L405 427.772L360 405.451L315 427.772L270 405.451L225 427.772L180 405.451L135 427.772L90 405.451L45 427.772L0 405.451" stroke="#F8D247" stroke-width="3" stroke-miterlimit="10"/>
<path d="M1440 429.216L1395 451.668L1350 429.216L1305 451.668L1260 429.216L1215 451.668L1170 429.216L1125 451.668L1080 429.216L1035 451.668L990 429.216L945 451.668L900 429.216L855 451.668L810 429.216L765 451.668L720 429.216L675 451.668L630 429.216L585 451.668L540 429.216L495 451.668L450 429.216L405 451.668L360 429.216L315 451.668L270 429.216L225 451.668L180 429.216L135 451.668L90 429.216L45 451.668L0 429.216" stroke="#F8D247" stroke-width="3" stroke-miterlimit="10"/>
<path d="M1440 453.112L1395 475.433L1350 453.112L1305 475.433L1260 453.112L1215 475.433L1170 453.112L1125 475.433L1080 453.112L1035 475.433L990 453.112L945 475.433L900 453.112L855 475.433L810 453.112L765 475.433L720 453.112L675 475.433L630 453.112L585 475.433L540 453.112L495 475.433L450 453.112L405 475.433L360 453.112L315 475.433L270 453.112L225 475.433L180 453.112L135 475.433L90 453.112L45 475.433L0 453.112" stroke="#F8D247" stroke-width="3" stroke-miterlimit="10"/>
<path d="M1440 477.009L1395 499.33L1350 477.009L1305 499.33L1260 477.009L1215 499.33L1170 477.009L1125 499.33L1080 477.009L1035 499.33L990 477.009L945 499.33L900 477.009L855 499.33L810 477.009L765 499.33L720 477.009L675 499.33L630 477.009L585 499.33L540 477.009L495 499.33L450 477.009L405 499.33L360 477.009L315 499.33L270 477.009L225 499.33L180 477.009L135 499.33L90 477.009L45 499.33L0 477.009" stroke="#F8D247" stroke-width="3" stroke-miterlimit="10"/>
<path d="M1440 500.774L1395 523.095L1350 500.774L1305 523.095L1260 500.774L1215 523.095L1170 500.774L1125 523.095L1080 500.774L1035 523.095L990 500.774L945 523.095L900 500.774L855 523.095L810 500.774L765 523.095L720 500.774L675 523.095L630 500.774L585 523.095L540 500.774L495 523.095L450 500.774L405 523.095L360 500.774L315 523.095L270 500.774L225 523.095L180 500.774L135 523.095L90 500.774L45 523.095L0 500.774" stroke="#F8D247" stroke-width="3" stroke-miterlimit="10"/>
<path d="M1440 524.671L1395 546.992L1350 524.671L1305 546.992L1260 524.671L1215 546.992L1170 524.671L1125 546.992L1080 524.671L1035 546.992L990 524.671L945 546.992L900 524.671L855 546.992L810 524.671L765 546.992L720 524.671L675 546.992L630 524.671L585 546.992L540 524.671L495 546.992L450 524.671L405 546.992L360 524.671L315 546.992L270 524.671L225 546.992L180 524.671L135 546.992L90 524.671L45 546.992L0 524.671" stroke="#F8D247" stroke-width="3" stroke-miterlimit="10"/>
<path d="M1440 548.435L1395 570.887L1350 548.435L1305 570.887L1260 548.435L1215 570.887L1170 548.435L1125 570.887L1080 548.435L1035 570.887L990 548.435L945 570.887L900 548.435L855 570.887L810 548.435L765 570.887L720 548.435L675 570.887L630 548.435L585 570.887L540 548.435L495 570.887L450 548.435L405 570.887L360 548.435L315 570.887L270 548.435L225 570.887L180 548.435L135 570.887L90 548.435L45 570.887L0 548.435" stroke="#F8D247" stroke-width="3" stroke-miterlimit="10"/>
<path d="M1440 572.332L1395 594.653L1350 572.332L1305 594.653L1260 572.332L1215 594.653L1170 572.332L1125 594.653L1080 572.332L1035 594.653L990 572.332L945 594.653L900 572.332L855 594.653L810 572.332L765 594.653L720 572.332L675 594.653L630 572.332L585 594.653L540 572.332L495 594.653L450 572.332L405 594.653L360 572.332L315 594.653L270 572.332L225 594.653L180 572.332L135 594.653L90 572.332L45 594.653L0 572.332" stroke="#F8D247" stroke-width="3" stroke-miterlimit="10"/>
<path d="M1440 596.229L1395 618.549L1350 596.229L1305 618.549L1260 596.229L1215 618.549L1170 596.229L1125 618.549L1080 596.229L1035 618.549L990 596.229L945 618.549L900 596.229L855 618.549L810 596.229L765 618.549L720 596.229L675 618.549L630 596.229L585 618.549L540 596.229L495 618.549L450 596.229L405 618.549L360 596.229L315 618.549L270 596.229L225 618.549L180 596.229L135 618.549L90 596.229L45 618.549L0 596.229" stroke="#F8D247" stroke-width="3" stroke-miterlimit="10"/>
<path d="M1440 619.993L1395 642.445L1350 619.993L1305 642.445L1260 619.993L1215 642.445L1170 619.993L1125 642.445L1080 619.993L1035 642.445L990 619.993L945 642.445L900 619.993L855 642.445L810 619.993L765 642.445L720 619.993L675 642.445L630 619.993L585 642.445L540 619.993L495 642.445L450 619.993L405 642.445L360 619.993L315 642.445L270 619.993L225 642.445L180 619.993L135 642.445L90 619.993L45 642.445L0 619.993" stroke="#F8D247" stroke-width="3" stroke-miterlimit="10"/>
<path d="M1440 643.889L1395 666.21L1350 643.889L1305 666.21L1260 643.889L1215 666.21L1170 643.889L1125 666.21L1080 643.889L1035 666.21L990 643.889L945 666.21L900 643.889L855 666.21L810 643.889L765 666.21L720 643.889L675 666.21L630 643.889L585 666.21L540 643.889L495 666.21L450 643.889L405 666.21L360 643.889L315 666.21L270 643.889L225 666.21L180 643.889L135 666.21L90 643.889L45 666.21L0 643.889" stroke="#F8D247" stroke-width="3" stroke-miterlimit="10"/>
<path d="M1440 667.786L1395 690.107L1350 667.786L1305 690.107L1260 667.786L1215 690.107L1170 667.786L1125 690.107L1080 667.786L1035 690.107L990 667.786L945 690.107L900 667.786L855 690.107L810 667.786L765 690.107L720 667.786L675 690.107L630 667.786L585 690.107L540 667.786L495 690.107L450 667.786L405 690.107L360 667.786L315 690.107L270 667.786L225 690.107L180 667.786L135 690.107L90 667.786L45 690.107L0 667.786" stroke="#F8D247" stroke-width="3" stroke-miterlimit="10"/>
<path d="M1440 691.551L1395 714.003L1350 691.551L1305 714.003L1260 691.551L1215 714.003L1170 691.551L1125 714.003L1080 691.551L1035 714.003L990 691.551L945 714.003L900 691.551L855 714.003L810 691.551L765 714.003L720 691.551L675 714.003L630 691.551L585 714.003L540 691.551L495 714.003L450 691.551L405 714.003L360 691.551L315 714.003L270 691.551L225 714.003L180 691.551L135 714.003L90 691.551L45 714.003L0 691.551" stroke="#F8D247" stroke-width="3" stroke-miterlimit="10"/>
<path d="M1440 715.448L1395 737.769L1350 715.448L1305 737.769L1260 715.448L1215 737.769L1170 715.448L1125 737.769L1080 715.448L1035 737.769L990 715.448L945 737.769L900 715.448L855 737.769L810 715.448L765 737.769L720 715.448L675 737.769L630 715.448L585 737.769L540 715.448L495 737.769L450 715.448L405 737.769L360 715.448L315 737.769L270 715.448L225 737.769L180 715.448L135 737.769L90 715.448L45 737.769L0 715.448" stroke="#F8D247" stroke-width="3" stroke-miterlimit="10"/>
<path d="M1440 739.212L1395 761.665L1350 739.212L1305 761.665L1260 739.212L1215 761.665L1170 739.212L1125 761.665L1080 739.212L1035 761.665L990 739.212L945 761.665L900 739.212L855 761.665L810 739.212L765 761.665L720 739.212L675 761.665L630 739.212L585 761.665L540 739.212L495 761.665L450 739.212L405 761.665L360 739.212L315 761.665L270 739.212L225 761.665L180 739.212L135 761.665L90 739.212L45 761.665L0 739.212" stroke="#F8D247" stroke-width="3" stroke-miterlimit="10"/>
<path d="M1440 763.109L1395 785.43L1350 763.109L1305 785.43L1260 763.109L1215 785.43L1170 763.109L1125 785.43L1080 763.109L1035 785.43L990 763.109L945 785.43L900 763.109L855 785.43L810 763.109L765 785.43L720 763.109L675 785.43L630 763.109L585 785.43L540 763.109L495 785.43L450 763.109L405 785.43L360 763.109L315 785.43L270 763.109L225 785.43L180 763.109L135 785.43L90 763.109L45 785.43L0 763.109" stroke="#F8D247" stroke-width="3" stroke-miterlimit="10"/>
<path d="M1440 787.005L1395 809.326L1350 787.005L1305 809.326L1260 787.005L1215 809.326L1170 787.005L1125 809.326L1080 787.005L1035 809.326L990 787.005L945 809.326L900 787.005L855 809.326L810 787.005L765 809.326L720 787.005L675 809.326L630 787.005L585 809.326L540 787.005L495 809.326L450 787.005L405 809.326L360 787.005L315 809.326L270 787.005L225 809.326L180 787.005L135 809.326L90 787.005L45 809.326L0 787.005" stroke="#F8D247" stroke-width="3" stroke-miterlimit="10"/>
<path d="M1440 810.771L1395 833.223L1350 810.771L1305 833.223L1260 810.771L1215 833.223L1170 810.771L1125 833.223L1080 810.771L1035 833.223L990 810.771L945 833.223L900 810.771L855 833.223L810 810.771L765 833.223L720 810.771L675 833.223L630 810.771L585 833.223L540 810.771L495 833.223L450 810.771L405 833.223L360 810.771L315 833.223L270 810.771L225 833.223L180 810.771L135 833.223L90 810.771L45 833.223L0 810.771" stroke="#F8D247" stroke-width="3" stroke-miterlimit="10"/>
<path d="M1440 834.667L1395 856.988L1350 834.667L1305 856.988L1260 834.667L1215 856.988L1170 834.667L1125 856.988L1080 834.667L1035 856.988L990 834.667L945 856.988L900 834.667L855 856.988L810 834.667L765 856.988L720 834.667L675 856.988L630 834.667L585 856.988L540 834.667L495 856.988L450 834.667L405 856.988L360 834.667L315 856.988L270 834.667L225 856.988L180 834.667L135 856.988L90 834.667L45 856.988L0 834.667" stroke="#F8D247" stroke-width="3" stroke-miterlimit="10"/>
<path d="M1440 858.563L1395 880.884L1350 858.563L1305 880.884L1260 858.563L1215 880.884L1170 858.563L1125 880.884L1080 858.563L1035 880.884L990 858.563L945 880.884L900 858.563L855 880.884L810 858.563L765 880.884L720 858.563L675 880.884L630 858.563L585 880.884L540 858.563L495 880.884L450 858.563L405 880.884L360 858.563L315 880.884L270 858.563L225 880.884L180 858.563L135 880.884L90 858.563L45 880.884L0 858.563" stroke="#F8D247" stroke-width="3" stroke-miterlimit="10"/>
<path d="M1440 882.329L1395 904.781L1350 882.329L1305 904.781L1260 882.329L1215 904.781L1170 882.329L1125 904.781L1080 882.329L1035 904.781L990 882.329L945 904.781L900 882.329L855 904.781L810 882.329L765 904.781L720 882.329L675 904.781L630 882.329L585 904.781L540 882.329L495 904.781L450 882.329L405 904.781L360 882.329L315 904.781L270 882.329L225 904.781L180 882.329L135 904.781L90 882.329L45 904.781L0 882.329" stroke="#F8D247" stroke-width="3" stroke-miterlimit="10"/>
<path d="M1440 906.225L1395 928.546L1350 906.225L1305 928.546L1260 906.225L1215 928.546L1170 906.225L1125 928.546L1080 906.225L1035 928.546L990 906.225L945 928.546L900 906.225L855 928.546L810 906.225L765 928.546L720 906.225L675 928.546L630 906.225L585 928.546L540 906.225L495 928.546L450 906.225L405 928.546L360 906.225L315 928.546L270 906.225L225 928.546L180 906.225L135 928.546L90 906.225L45 928.546L0 906.225" stroke="#F8D247" stroke-width="3" stroke-miterlimit="10"/>
<path d="M1440 930.122L1395 952.442L1350 930.122L1305 952.442L1260 930.122L1215 952.442L1170 930.122L1125 952.442L1080 930.122L1035 952.442L990 930.122L945 952.442L900 930.122L855 952.442L810 930.122L765 952.442L720 930.122L675 952.442L630 930.122L585 952.442L540 930.122L495 952.442L450 930.122L405 952.442L360 930.122L315 952.442L270 930.122L225 952.442L180 930.122L135 952.442L90 930.122L45 952.442L0 930.122" stroke="#F8D247" stroke-width="3" stroke-miterlimit="10"/>
<path d="M1440 953.886L1395 976.207L1350 953.886L1305 976.207L1260 953.886L1215 976.207L1170 953.886L1125 976.207L1080 953.886L1035 976.207L990 953.886L945 976.207L900 953.886L855 976.207L810 953.886L765 976.207L720 953.886L675 976.207L630 953.886L585 976.207L540 953.886L495 976.207L450 953.886L405 976.207L360 953.886L315 976.207L270 953.886L225 976.207L180 953.886L135 976.207L90 953.886L45 976.207L0 953.886" stroke="#F8D247" stroke-width="3" stroke-miterlimit="10"/>
<path d="M1440 977.783L1395 1000.1L1350 977.783L1305 1000.1L1260 977.783L1215 1000.1L1170 977.783L1125 1000.1L1080 977.783L1035 1000.1L990 977.783L945 1000.1L900 977.783L855 1000.1L810 977.783L765 1000.1L720 977.783L675 1000.1L630 977.783L585 1000.1L540 977.783L495 1000.1L450 977.783L405 1000.1L360 977.783L315 1000.1L270 977.783L225 1000.1L180 977.783L135 1000.1L90 977.783L45 1000.1L0 977.783" stroke="#F8D247" stroke-width="3" stroke-miterlimit="10"/>
<path d="M1440 1001.55L1395 1024L1350 1001.55L1305 1024L1260 1001.55L1215 1024L1170 1001.55L1125 1024L1080 1001.55L1035 1024L990 1001.55L945 1024L900 1001.55L855 1024L810 1001.55L765 1024L720 1001.55L675 1024L630 1001.55L585 1024L540 1001.55L495 1024L450 1001.55L405 1024L360 1001.55L315 1024L270 1001.55L225 1024L180 1001.55L135 1024L90 1001.55L45 1024L0 1001.55" stroke="#F8D247" stroke-width="3" stroke-miterlimit="10"/>
</svg>
