<svg width="17" height="17" viewBox="0 0 17 17" fill="none" xmlns="http://www.w3.org/2000/svg">
<path fill-rule="evenodd" clip-rule="evenodd" d="M8.23876 0.00146484C6.06721 0.00146849 5.79449 0.0109723 4.94131 0.0497982C4.08963 0.0887982 3.50829 0.223632 2.99962 0.421465C2.47345 0.625798 2.02711 0.899132 1.58244 1.34396C1.13743 1.78863 0.864098 2.23496 0.659096 2.76096C0.46076 3.2698 0.325759 3.8513 0.287425 4.70263C0.249258 5.55596 0.239258 5.8288 0.239258 8.00147C0.239258 10.1741 0.248925 10.446 0.287592 11.2993C0.326759 12.151 0.461593 12.7323 0.659262 13.241C0.863764 13.7671 1.1371 14.2135 1.58194 14.6581C2.02644 15.1031 2.47278 15.3771 2.99862 15.5815C3.50763 15.7793 4.08913 15.9141 4.94064 15.9531C5.79398 15.992 6.06649 16.0015 8.23901 16.0015C10.4119 16.0015 10.6837 15.992 11.537 15.9531C12.3887 15.9141 12.9707 15.7793 13.4797 15.5815C14.0057 15.3771 14.4514 15.1031 14.8959 14.6581C15.3409 14.2135 15.6143 13.7671 15.8193 13.2411C16.0159 12.7323 16.1509 12.1508 16.1909 11.2995C16.2293 10.4461 16.2393 10.1741 16.2393 8.00147C16.2393 5.8288 16.2293 5.55613 16.1909 4.7028C16.1509 3.85113 16.0159 3.2698 15.8193 2.76113C15.6143 2.23496 15.3409 1.78863 14.8959 1.34396C14.4509 0.898965 14.0059 0.625632 13.4792 0.421465C12.9692 0.223632 12.3876 0.0887982 11.5359 0.0497982C10.6827 0.0109723 10.411 0.00146849 8.23876 0.00146484ZM7.52233 1.44313C7.66169 1.44291 7.8116 1.44298 7.97337 1.44305H7.97338C8.05888 1.44309 8.14769 1.44313 8.24001 1.44313C10.376 1.44313 10.6292 1.4508 11.4727 1.48913C12.2527 1.5248 12.6761 1.65513 12.9581 1.76463C13.3314 1.90963 13.5976 2.08296 13.8774 2.36296C14.1574 2.64296 14.3307 2.90963 14.4761 3.28296C14.5856 3.56463 14.7161 3.98796 14.7516 4.76796C14.7899 5.61129 14.7982 5.86463 14.7982 7.99963C14.7982 10.1346 14.7899 10.388 14.7516 11.2313C14.7159 12.0113 14.5856 12.4346 14.4761 12.7163C14.3311 13.0896 14.1574 13.3555 13.8774 13.6353C13.5974 13.9153 13.3316 14.0886 12.9581 14.2336C12.6764 14.3436 12.2527 14.4736 11.4727 14.5093C10.6294 14.5476 10.376 14.556 8.24001 14.556C6.10382 14.556 5.85065 14.5476 5.00731 14.5093C4.2273 14.4733 3.80396 14.343 3.52179 14.2335C3.14846 14.0885 2.88179 13.9151 2.60178 13.6351C2.32178 13.3551 2.14844 13.0891 2.00311 12.7156C1.89361 12.434 1.76311 12.0106 1.72761 11.2306C1.68927 10.3873 1.68161 10.134 1.68161 7.99763C1.68161 5.8613 1.68927 5.60929 1.72761 4.76596C1.76327 3.98596 1.89361 3.56263 2.00311 3.28063C2.14811 2.9073 2.32178 2.64063 2.60178 2.36063C2.88179 2.08063 3.14846 1.9073 3.52179 1.76196C3.8038 1.65196 4.2273 1.52196 5.00731 1.48613C5.74532 1.4528 6.03132 1.4428 7.52233 1.44113V1.44313ZM11.5504 3.73115C11.5504 3.20098 11.9804 2.77148 12.5104 2.77148V2.77115C13.0404 2.77115 13.4704 3.20115 13.4704 3.73115C13.4704 4.26115 13.0404 4.69115 12.5104 4.69115C11.9804 4.69115 11.5504 4.26115 11.5504 3.73115ZM8.23992 3.89313C5.9711 3.89317 4.13163 5.73266 4.13163 8.00146C4.13163 10.2703 5.97115 12.109 8.24001 12.109C10.5089 12.109 12.3477 10.2703 12.3477 8.00146C12.3477 5.73266 10.5087 3.89317 8.23992 3.89313ZM8.23992 3.89313C8.23995 3.89313 8.23998 3.89313 8.24001 3.89313H8.23984C8.23987 3.89313 8.2399 3.89313 8.23992 3.89313ZM10.9067 8.00147C10.9067 6.52863 9.71269 5.3348 8.24001 5.3348C6.76716 5.3348 5.57331 6.52863 5.57331 8.00147C5.57331 9.47413 6.76716 10.6681 8.24001 10.6681C9.71269 10.6681 10.9067 9.47413 10.9067 8.00147Z" fill="white"/>
</svg>
