<svg width="350" height="367" viewBox="0 0 350 367" fill="none" xmlns="http://www.w3.org/2000/svg">
<path d="M39.6006 88.8722C42.8627 91.3797 46.792 90.7328 49.1255 87.3268C51.0081 84.5791 50.9839 81.3954 49.0737 78.9223L46.9544 82.0156C47.5595 83.2092 47.428 84.4394 46.6953 85.5089C45.5116 87.2366 43.4883 87.4899 41.5621 86.0092C39.6359 84.5286 39.236 82.4125 40.4196 80.6849C41.1524 79.6154 42.2159 79.1016 43.4748 79.3408L45.5941 76.2475C42.7821 75.0907 39.9015 76.0415 38.0189 78.7892C35.6854 82.1952 36.3385 86.3646 39.6006 88.8722Z" fill="white"/>
<path d="M56.4287 63.2538C57.2037 64.013 57.2778 64.9162 56.4438 65.8715L55.0625 67.4537L52.6106 65.052L53.9919 63.4698C54.8259 62.5145 55.696 62.536 56.4287 63.2538ZM48.3813 65.6443L58.2735 75.3339L60.5018 72.7816L56.7676 69.1238L57.3019 68.5118L62.9386 69.9904L65.4536 67.1097L59.4252 65.6905C60.3816 63.6368 59.8375 61.7747 58.5975 60.5601C56.8783 58.8761 54.3626 58.7932 52.1213 61.3605L48.3813 65.6443Z" fill="white"/>
<path d="M68.7275 44.9748L62.4468 50.646L71.1876 61.5069L77.4683 55.8358L75.7624 53.7162L71.9794 57.1321L70.0619 54.7495L73.4068 51.7292L71.7632 49.687L68.4183 52.7072L66.6503 50.5103L70.4333 47.0944L68.7275 44.9748Z" fill="white"/>
<path d="M91.6932 45.0555L94.5849 43.0163L83.0602 33.9982L79.8969 36.2289L83.3056 50.9703L86.1653 48.9536L85.5175 46.382L89.7033 43.4302L91.6932 45.0555ZM87.5963 41.6922L84.8324 43.6412L83.4728 38.3232L87.5963 41.6922Z" fill="white"/>
<path d="M95.3087 29.4083L98.4934 27.6997L103.393 37.9468L106.321 36.376L101.421 26.129L104.606 24.4204L103.418 21.9357L94.1206 26.9236L95.3087 29.4083Z" fill="white"/>
<path d="M121.128 14.4402L113.376 17.4399L117.999 30.845L125.751 27.8452L124.849 25.2291L120.18 27.036L119.166 24.0953L123.294 22.4977L122.425 19.9771L118.296 21.5747L117.361 18.8631L122.03 17.0563L121.128 14.4402Z" fill="white"/>
<path d="M160.613 9.18934C160.46 7.22306 158.917 5.62867 156.19 5.95696C153.52 6.27837 152.187 8.07573 152.402 10.0755C152.499 10.9845 152.83 11.7223 153.609 12.5082C151.859 13.6601 151.145 15.2807 151.331 17.0179C151.613 19.6439 153.761 21.1244 156.87 20.7502C158.624 20.539 160.019 19.8595 161.134 18.7228L162.51 19.8461L166.305 19.3893L162.722 16.4241C163.07 15.707 163.39 14.9114 163.662 14.0194L164.388 12.1518L161.127 12.5444L160.558 13.9019C160.504 14.1131 160.428 14.3064 160.371 14.4973L156.748 11.5165C155.958 10.8137 155.533 10.2715 155.47 9.68569C155.405 9.0797 155.819 8.6206 156.43 8.54714C157.002 8.47827 157.479 8.78906 157.543 9.55896L160.613 9.18934ZM156.723 17.9442C155.426 18.1004 154.558 17.3865 154.452 16.3967C154.365 15.5887 154.747 14.8266 155.608 14.2114L158.91 16.9034C158.316 17.4865 157.6 17.8386 156.723 17.9442Z" fill="white"/>
<path d="M195.287 6.39338L190.278 5.73242L188.612 19.8946L193.621 20.5555C197.888 21.1185 200.97 18.5955 201.463 14.3993C201.959 10.1829 199.553 6.95632 195.287 6.39338ZM192.22 17.3386L193.188 9.10757L194.731 9.31113C197.188 9.63533 198.455 11.3596 198.149 13.962C197.843 16.5644 196.22 17.8663 193.763 17.5421L192.22 17.3386Z" fill="white"/>
<path d="M221.907 19.2876C222.879 15.1235 220.599 11.4265 216.873 10.4502C213.165 9.4788 209.464 11.6088 208.492 15.7729C207.52 19.937 209.851 23.6684 213.559 24.6398C217.267 25.6113 220.934 23.4518 221.907 19.2876ZM211.753 16.6272C212.329 14.1603 214.034 12.9527 216.158 13.5092C218.245 14.0559 219.241 15.9713 218.665 18.4382C218.098 20.8657 216.365 22.1079 214.278 21.5611C212.154 21.0046 211.186 19.0546 211.753 16.6272Z" fill="white"/>
<path d="M225.33 28.1157L229.047 29.6022L234.262 21.6484L233.141 31.2396L236.857 32.7262L244.903 20.6888L241.599 19.3674L236.303 28.3538L237.613 17.7731L234.237 16.423L228.528 25.2442L230.179 14.8L226.893 13.4858L225.33 28.1157Z" fill="white"/>
<path d="M255.537 26.6526L251.684 34.4985L250.667 23.9698L247.755 22.3657L241.538 35.0273L244.45 36.6314L248.284 28.8216L249.32 39.3142L252.232 40.9182L258.448 28.2567L255.537 26.6526Z" fill="white"/>
<path d="M268.432 34.8552L260.845 46.6491L267.11 51.171L268.536 48.9533L264.983 46.389L271.144 36.8128L268.432 34.8552Z" fill="white"/>
<path d="M287.804 60.1026C290.465 56.8683 290.03 52.4763 287.135 49.8054C284.255 47.1478 280.045 47.253 277.385 50.4873C274.725 53.7216 275.19 58.169 278.07 60.8266C280.95 63.4841 285.144 63.3369 287.804 60.1026ZM279.917 52.8243C281.493 50.9083 283.531 50.6589 285.181 52.1813C286.802 53.677 286.862 55.8628 285.286 57.7789C283.736 59.6643 281.658 59.931 280.037 58.4353C278.387 56.9129 278.367 54.7098 279.917 52.8243Z" fill="white"/>
<path d="M292.657 76.1831L294.988 78.9115L301.707 65.5065L299.157 62.5219L285.896 68.2694L288.201 70.9676L290.507 69.9091L293.881 73.8585L292.657 76.1831ZM295.193 71.3946L292.965 68.7868L297.73 66.5773L295.193 71.3946Z" fill="white"/>
<path d="M312.535 79.9149L309.614 75.554L298.625 83.8115L301.546 88.1724C304.033 91.8866 307.871 92.5922 311.127 90.1456C314.399 87.6871 315.022 83.6291 312.535 79.9149ZM302.841 84.906L309.228 80.1067L310.127 81.4498C311.56 83.5888 311.214 85.743 309.195 87.2604C307.175 88.7778 305.173 88.3881 303.74 86.2491L302.841 84.906Z" fill="white"/>
<path d="M323.357 113.811C319.613 115.394 318.032 119.259 319.506 123.167C320.694 126.321 323.249 127.998 326.243 127.608L324.905 124.058C323.629 123.963 322.717 123.188 322.254 121.961C321.507 119.979 322.385 118.031 324.595 117.096C326.805 116.162 328.708 116.933 329.455 118.915C329.918 120.143 329.76 121.369 328.897 122.369L330.235 125.919C332.66 124.018 333.439 120.93 332.25 117.777C330.777 113.869 327.1 112.228 323.357 113.811Z" fill="white"/>
<path d="M329.156 134.304C325.559 135.323 324.409 138.322 325.218 141.523C326.021 144.705 328.476 146.871 332.073 145.852L339.841 143.651L338.993 140.293L331.206 142.499C329.667 142.935 328.564 142.343 328.162 140.752C327.76 139.161 328.447 138.104 329.986 137.668L337.773 135.461L336.925 132.103L329.156 134.304Z" fill="white"/>
<path d="M333.757 165.392C338.221 164.712 336.228 157.889 338.546 157.536C339.382 157.408 339.866 157.971 339.959 158.799C340.065 159.728 339.64 160.45 338.793 160.64L339.298 164.363C341.825 163.835 342.987 161.542 342.569 158.463C342.168 155.505 340.464 153.526 337.938 153.911C333.202 154.591 335.49 161.451 333.021 161.828C332.242 161.946 331.679 161.375 331.543 160.369C331.412 159.403 331.813 158.643 332.825 158.386L332.328 154.724C329.644 155.235 328.541 157.827 328.954 160.866C329.402 164.166 331.515 165.733 333.757 165.392Z" fill="white"/>
<path d="M341.316 174.331L341.402 178.112L330.561 178.39L330.641 181.866L341.482 181.587L341.568 185.367L344.197 185.3L343.944 174.264L341.316 174.331Z" fill="white"/>
<path d="M335.944 208.793C339.975 209.197 343.091 206.262 343.452 202.214C343.812 198.187 341.277 194.624 337.245 194.221C333.213 193.817 330.073 196.81 329.714 200.838C329.354 204.866 331.912 208.389 335.944 208.793ZM336.929 197.762C339.317 198.002 340.696 199.61 340.49 201.918C340.288 204.184 338.647 205.511 336.258 205.271C333.908 205.036 332.492 203.403 332.694 201.137C332.9 198.829 334.578 197.527 336.929 197.762Z" fill="white"/>
<path d="M328.506 212.21L327.812 215.608L335.729 217.42L327.172 218.747L326.612 221.49L333.874 226.417L325.976 224.609L325.282 228.007L338.452 231.022L339.267 227.028L330.94 221.066L340.856 219.239L341.675 215.225L328.506 212.21Z" fill="white"/>
<path d="M325.451 266.028L329.041 258.156L316.908 251.949L313.319 259.821L315.686 261.032L317.848 256.291L320.51 257.653L318.598 261.845L320.88 263.012L322.791 258.82L325.245 260.075L323.083 264.817L325.451 266.028Z" fill="white"/>
<path d="M317.934 279.835L320.652 275.33L309.298 267.646L306.58 272.152C304.265 275.99 305.09 280.022 308.455 282.298C311.835 284.586 315.62 283.673 317.934 279.835ZM309.924 272.196L316.523 276.661L315.687 278.049C314.354 280.259 312.339 280.729 310.253 279.317C308.166 277.905 307.754 275.793 309.087 273.583L309.924 272.196Z" fill="white"/>
<path d="M295.68 288.193L293.598 290.881L304.015 299.933L306.097 297.245L295.68 288.193Z" fill="white"/>
<path d="M294.12 307.396L291.545 310.016L284.034 301.731L281.667 304.139L289.178 312.424L286.603 315.043L288.425 317.052L295.941 309.405L294.12 307.396Z" fill="white"/>
<path d="M267.195 322.225C269.913 326.038 274.592 320.896 276.003 322.875C276.512 323.589 276.28 324.309 275.64 324.795C274.924 325.343 274.122 325.296 273.555 324.603L270.722 326.869C272.378 328.958 274.835 328.929 277.179 327.055C279.431 325.254 280.244 322.719 278.706 320.561C275.858 316.496 271.29 321.931 269.787 319.822C269.313 319.157 269.514 318.359 270.28 317.747C271.015 317.159 271.837 317.164 272.538 317.979L275.326 315.75C273.607 313.507 270.932 313.735 268.619 315.585C266.107 317.594 265.831 320.311 267.195 322.225Z" fill="white"/>
<path d="M232.369 345.208C233.982 349.143 237.912 350.615 241.433 348.996C244.937 347.385 246.658 343.314 245.045 339.379C243.433 335.444 239.442 333.977 235.938 335.588C232.435 337.199 230.757 341.273 232.369 345.208ZM241.964 340.796C242.92 343.127 242.256 345.183 240.249 346.106C238.277 347.012 236.388 346.13 235.433 343.799C234.493 341.505 235.159 339.404 237.131 338.497C239.138 337.574 241.024 338.502 241.964 340.796Z" fill="white"/>
<path d="M222.542 341.041L219.398 342.038L220.961 347.569L217.027 348.818L217.759 351.408L221.694 350.16L222.509 353.042L217.25 354.71L218.005 357.378L226.407 354.713L222.542 341.041Z" fill="white"/>
<path d="M180.199 348.804L176.73 349.002L182.324 362.974L186.119 362.758L190.261 348.229L186.83 348.425L186.154 350.988L181.132 351.275L180.199 348.804ZM182.112 353.906L185.428 353.717L184.045 359.028L182.112 353.906Z" fill="white"/>
<path d="M145.806 353.925L145.191 357.443L143.436 357.099C142.153 356.847 141.724 356.06 141.913 354.98C142.102 353.901 142.768 353.329 144.051 353.581L145.806 353.925ZM138.629 354.336C138.178 356.915 139.462 359.172 142.708 359.809L147.936 360.835L150.39 346.802L147.163 346.169L146.282 351.206L144.282 350.814C140.903 350.151 139.035 352.017 138.629 354.336Z" fill="white"/>
<path d="M123.155 349.607C123.469 348.54 124.207 348.08 125.38 348.467L127.322 349.107L126.33 352.485L124.387 351.845C123.214 351.458 122.858 350.617 123.155 349.607ZM128.653 356.275L132.658 342.648L129.524 341.615L128.012 346.759L127.261 346.511L126.097 340.485L122.56 339.319L123.943 345.694C121.781 345.662 120.428 346.984 119.926 348.692C119.23 351.06 120.242 353.501 123.394 354.541L128.653 356.275Z" fill="white"/>
<path d="M102.287 345.708L109.822 349.275L115.32 336.245L107.785 332.678L106.712 335.221L111.25 337.37L110.044 340.228L106.032 338.328L104.998 340.778L109.01 342.678L107.898 345.314L103.36 343.165L102.287 345.708Z" fill="white"/>
<path d="M90.3306 338.979L97.2447 326.73L90.7377 322.609L89.4376 324.912L93.1276 327.249L87.5136 337.195L90.3306 338.979Z" fill="white"/>
<path d="M69.5812 314.992C67.1065 318.387 67.7864 322.744 70.825 325.229C73.8483 327.701 78.0454 327.332 80.5201 323.936C82.9947 320.541 82.281 316.13 79.2577 313.658C76.2343 311.186 72.0559 311.596 69.5812 314.992ZM77.8613 321.762C76.3953 323.774 74.3748 324.151 72.6429 322.734C70.9413 321.343 70.7587 319.165 72.2248 317.153C73.6674 315.174 75.7264 314.777 77.428 316.168C79.16 317.585 79.3039 319.783 77.8613 321.762Z" fill="white"/>
<path d="M63.8363 299.245L61.3567 296.667L55.3993 310.47L58.1117 313.29L71.0283 306.72L68.5761 304.171L66.3338 305.373L62.7447 301.642L63.8363 299.245ZM61.573 304.184L63.9429 306.647L59.31 309.152L61.573 304.184Z" fill="white"/>
<path d="M43.7854 296.766L46.9448 300.936L57.4529 292.004L54.2935 287.834C51.6026 284.282 47.7322 283.819 44.6187 286.465C41.4902 289.125 41.0945 293.215 43.7854 296.766ZM53.1833 291.176L47.0761 296.367L46.103 295.083C44.5533 293.038 44.778 290.866 46.709 289.224C48.6399 287.583 50.6606 287.846 52.2103 289.891L53.1833 291.176Z" fill="white"/>
<path d="M29.4904 275.041L33.8584 282.458L45.2902 274.904L40.9221 267.487L38.6911 268.961L41.3221 273.429L38.8143 275.086L36.4881 271.136L34.3385 272.556L36.6647 276.506L34.3523 278.034L31.7213 273.567L29.4904 275.041Z" fill="white"/>
<path d="M22.4801 260.938L24.6265 265.777L36.8214 259.709L34.6751 254.869C32.8471 250.748 29.1877 249.334 25.5744 251.132C21.9437 252.939 20.6521 256.816 22.4801 260.938ZM32.8549 257.842L25.7672 261.369L25.1062 259.878C24.0534 257.504 24.7535 255.449 26.9944 254.334C29.2354 253.219 31.1411 253.978 32.1939 256.351L32.8549 257.842Z" fill="white"/>
<path d="M13.1907 224.895L12.4742 221.19L23.0977 218.885L22.4389 215.479L11.8155 217.785L11.099 214.08L8.523 214.639L10.6147 225.454L13.1907 224.895Z" fill="white"/>
<path d="M10.8145 195.303C11.8665 195.21 12.5457 195.761 12.6482 197.058L12.8179 199.206L9.48995 199.501L9.32021 197.353C9.21772 196.057 9.81997 195.391 10.8145 195.303ZM7.04785 203.206L20.4745 202.015L20.2006 198.551L15.1322 199L15.0665 198.17L19.9012 194.762L19.5921 190.852L14.5345 194.606C13.7495 192.472 12.0851 191.641 10.402 191.79C8.06863 191.997 6.31284 193.907 6.58827 197.391L7.04785 203.206Z" fill="white"/>
<path d="M19.8152 174.851L19.9369 171.174L6.30083 175.835L6.16777 179.857L19.4624 185.518L19.5827 181.881L17.2324 180.939L17.4085 175.616L19.8152 174.851ZM14.847 176.416L14.7307 179.931L9.8589 178.001L14.847 176.416Z" fill="white"/>
<path d="M13.7366 164.816C17.7197 165.469 20.9365 162.993 21.5443 158.834C22.0346 155.479 20.6406 152.658 17.875 151.382L17.323 155.159C18.3759 155.928 18.7893 157.086 18.5985 158.392C18.2902 160.502 16.5994 161.706 14.2474 161.32C11.8955 160.934 10.6274 159.245 10.9357 157.136C11.1265 155.83 11.8512 154.858 13.0743 154.462L13.6263 150.685C10.6258 151.016 8.47299 153.255 7.98268 156.61C7.37494 160.769 9.75345 164.163 13.7366 164.816Z" fill="white"/>
<path d="M26.2536 136.326L27.3318 132.233L19.2588 135.799L14.3024 128.593L13.2655 132.529L17.7524 138.794L12.0584 137.111L11.1763 140.46L24.1541 144.296L25.0362 140.947L19.3053 139.253L26.2536 136.326Z" fill="white"/>
<path d="M30.5758 118.823C29.6352 118.413 28.6079 118.866 28.1693 119.994C27.7235 121.141 28.1515 122.229 29.092 122.639C29.9971 123.034 31.0244 122.581 31.4703 121.434C31.9088 120.306 31.4809 119.218 30.5758 118.823Z" fill="white"/>
</svg>
